<?xml version="1.0" encoding="UTF-8" standalone="no"?>
<!DOCTYPE svg PUBLIC "-//W3C//DTD SVG 1.1//EN"
 "http://www.w3.org/Graphics/SVG/1.1/DTD/svg11.dtd">
<!-- Generated by graphviz version 2.40.1 (20161225.0304)
 -->
<!-- Title: o2::header::RAWDataHeaderV6 Pages: 1 -->
<!--zoomable 391 -->
<svg id="main" version="1.1" xmlns="http://www.w3.org/2000/svg" xmlns:xlink="http://www.w3.org/1999/xlink" xml:space="preserve" onload="init(evt)">
<style type="text/css"><![CDATA[
.edge:hover path { stroke: red; }
.edge:hover polygon { stroke: red; fill: red; }
]]></style>
<script type="text/javascript"><![CDATA[
var edges = document.getElementsByTagName('g');
if (edges && edges.length) {
  for (var i=0;i<edges.length;i++) {
    if (edges[i].id.substr(0,4)=='edge') {
      edges[i].setAttribute('class','edge');
    }
  }
}
]]></script>
        <defs>
                <circle id="rim" cx="0" cy="0" r="7"/>
                <circle id="rim2" cx="0" cy="0" r="3.5"/>
                <g id="zoomPlus">
                        <use xlink:href="#rim" fill="#404040">
                                <set attributeName="fill" to="#808080" begin="zoomplus.mouseover" end="zoomplus.mouseout"/>
                        </use>
                        <path d="M-4,0h8M0,-4v8" fill="none" stroke="white" stroke-width="1.5" pointer-events="none"/>
                </g>
                <g id="zoomMin">
                        <use xlink:href="#rim" fill="#404040">
                                <set attributeName="fill" to="#808080" begin="zoomminus.mouseover" end="zoomminus.mouseout"/>
                        </use>
                        <path d="M-4,0h8" fill="none" stroke="white" stroke-width="1.5" pointer-events="none"/>
                </g>
                <g id="dirArrow">
                        <path fill="none" stroke="white" stroke-width="1.5" d="M0,-3.0v7 M-2.5,-0.5L0,-3.0L2.5,-0.5"/>
                </g>
               <g id="resetDef">
                       <use xlink:href="#rim2" fill="#404040">
                               <set attributeName="fill" to="#808080" begin="reset.mouseover" end="reset.mouseout"/>
                       </use>
               </g>
        </defs>

<script type="text/javascript">
var viewWidth = 1215;
var viewHeight = 391;
var sectionId = 'dynsection-0';
</script>
<script xlink:href="../../svgpan.js"/>
<svg id="graph" class="graph">
<g id="viewport">
<title>o2::header::RAWDataHeaderV6</title>
<!-- Node1 -->
<g id="node1" class="node">
<title>Node1</title>
<polygon fill="#bfbfbf" stroke="#000000" points="495,-.5 495,-167.5 662,-167.5 662,-.5 495,-.5"/>
<text text-anchor="middle" x="578.5" y="-155.5" font-family="Helvetica,sans-Serif" font-size="10.00" fill="#000000">o2::header::RAWDataHeaderV6</text>
<polyline fill="none" stroke="#000000" points="495,-148.5 662,-148.5 "/>
<text text-anchor="start" x="503" y="-136.5" font-family="Helvetica,sans-Serif" font-size="10.00" fill="#000000">+ zero0</text>
<text text-anchor="start" x="503" y="-125.5" font-family="Helvetica,sans-Serif" font-size="10.00" fill="#000000">+ word1</text>
<text text-anchor="start" x="503" y="-114.5" font-family="Helvetica,sans-Serif" font-size="10.00" fill="#000000">+ word2</text>
<text text-anchor="start" x="503" y="-103.5" font-family="Helvetica,sans-Serif" font-size="10.00" fill="#000000">+ word3</text>
<text text-anchor="start" x="503" y="-92.5" font-family="Helvetica,sans-Serif" font-size="10.00" fill="#000000">+ word4</text>
<text text-anchor="start" x="503" y="-81.5" font-family="Helvetica,sans-Serif" font-size="10.00" fill="#000000">+ pageCnt</text>
<text text-anchor="start" x="503" y="-70.5" font-family="Helvetica,sans-Serif" font-size="10.00" fill="#000000">+ stop</text>
<text text-anchor="start" x="503" y="-59.5" font-family="Helvetica,sans-Serif" font-size="10.00" fill="#000000">+ zero4</text>
<text text-anchor="start" x="503" y="-48.5" font-family="Helvetica,sans-Serif" font-size="10.00" fill="#000000">+ word5</text>
<text text-anchor="start" x="503" y="-37.5" font-family="Helvetica,sans-Serif" font-size="10.00" fill="#000000">+ word6</text>
<text text-anchor="start" x="503" y="-26.5" font-family="Helvetica,sans-Serif" font-size="10.00" fill="#000000">+ detectorField</text>
<polyline fill="none" stroke="#000000" points="495,-19.5 662,-19.5 "/>
<text text-anchor="middle" x="578.5" y="-7.5" font-family="Helvetica,sans-Serif" font-size="10.00" fill="#000000"> </text>
</g>
<!-- Node2 -->
<g id="node2" class="node">
<title>Node2</title>
<polygon fill="none" stroke="#bfbfbf" points="0,-325.5 0,-382.5 107,-382.5 107,-325.5 0,-325.5"/>
<text text-anchor="middle" x="53.5" y="-370.5" font-family="Helvetica,sans-Serif" font-size="10.00" fill="#000000">anonymous:+@71</text>
<polyline fill="none" stroke="#bfbfbf" points="0,-363.5 107,-363.5 "/>
<text text-anchor="middle" x="53.5" y="-351.5" font-family="Helvetica,sans-Serif" font-size="10.00" fill="#000000"> </text>
<polyline fill="none" stroke="#bfbfbf" points="0,-344.5 107,-344.5 "/>
<text text-anchor="middle" x="53.5" y="-332.5" font-family="Helvetica,sans-Serif" font-size="10.00" fill="#000000"> </text>
</g>
<!-- Node2&#45;&gt;Node1 -->
<g id="edge1" class="edge">
<title>Node2&#45;&gt;Node1</title>
<path fill="none" stroke="#404040" d="M61.5466,-325.4167C73.726,-287.5536 100.5491,-221.4357 147.5,-186 199.6322,-146.6538 372.3718,-114.6107 482.6915,-97.5046"/>
<polygon fill="none" stroke="#404040" points="482.9641,-97.4629 488.2886,-92.5998 494.8255,-95.6442 489.501,-100.5074 482.9641,-97.4629"/>
<text text-anchor="middle" x="164.5" y="-244" font-family="Helvetica,sans-Serif" font-size="10.00" fill="#000000"> +@71</text>
</g>
<!-- Node3 -->
<g id="node3" class="node">
<title>Node3</title>
<polygon fill="none" stroke="#bfbfbf" points="125,-325.5 125,-382.5 232,-382.5 232,-325.5 125,-325.5"/>
<text text-anchor="middle" x="178.5" y="-370.5" font-family="Helvetica,sans-Serif" font-size="10.00" fill="#000000">anonymous:+@81</text>
<polyline fill="none" stroke="#bfbfbf" points="125,-363.5 232,-363.5 "/>
<text text-anchor="middle" x="178.5" y="-351.5" font-family="Helvetica,sans-Serif" font-size="10.00" fill="#000000"> </text>
<polyline fill="none" stroke="#bfbfbf" points="125,-344.5 232,-344.5 "/>
<text text-anchor="middle" x="178.5" y="-332.5" font-family="Helvetica,sans-Serif" font-size="10.00" fill="#000000"> </text>
</g>
<!-- Node3&#45;&gt;Node1 -->
<g id="edge2" class="edge">
<title>Node3&#45;&gt;Node1</title>
<path fill="none" stroke="#404040" d="M181.6728,-325.3776C187.3208,-288.0863 202.564,-223.262 242.5,-186 277.5676,-153.2804 396.4639,-122.2482 482.891,-103.1903"/>
<polygon fill="none" stroke="#404040" points="483.1339,-103.1374 488.1443,-97.9513 494.8586,-100.5817 489.8482,-105.7678 483.1339,-103.1374"/>
<text text-anchor="middle" x="259.5" y="-244" font-family="Helvetica,sans-Serif" font-size="10.00" fill="#000000"> +@81</text>
</g>
<!-- Node4 -->
<g id="node4" class="node">
<title>Node4</title>
<g id="a_node4"><a xlink:href="../../d6/d30/classuint64__t.html" target="_top" xlink:title="{uint64_t\n||}">
<polygon fill="none" stroke="#000000" points="250.5,-325.5 250.5,-382.5 306.5,-382.5 306.5,-325.5 250.5,-325.5"/>
<text text-anchor="middle" x="278.5" y="-370.5" font-family="Helvetica,sans-Serif" font-size="10.00" fill="#000000">uint64_t</text>
<polyline fill="none" stroke="#000000" points="250.5,-363.5 306.5,-363.5 "/>
<text text-anchor="middle" x="278.5" y="-351.5" font-family="Helvetica,sans-Serif" font-size="10.00" fill="#000000"> </text>
<polyline fill="none" stroke="#000000" points="250.5,-344.5 306.5,-344.5 "/>
<text text-anchor="middle" x="278.5" y="-332.5" font-family="Helvetica,sans-Serif" font-size="10.00" fill="#000000"> </text>
</a>
</g>
</g>
<!-- Node4&#45;&gt;Node1 -->
<g id="edge3" class="edge">
<title>Node4&#45;&gt;Node1</title>
<path fill="none" stroke="#404040" d="M278.6572,-325.4255C280.3662,-288.7823 288.6201,-225.2905 323.5,-186 364.4923,-139.8241 429.2635,-114.2641 483.267,-100.2787"/>
<polygon fill="none" stroke="#404040" points="483.3184,-100.266 488.1818,-94.9419 494.967,-97.3835 490.1035,-102.7077 483.3184,-100.266"/>
<text text-anchor="middle" x="357.5" y="-299" font-family="Helvetica,sans-Serif" font-size="10.00" fill="#000000"> +word7</text>
<text text-anchor="middle" x="357.5" y="-288" font-family="Helvetica,sans-Serif" font-size="10.00" fill="#000000">+triggerType</text>
<text text-anchor="middle" x="357.5" y="-277" font-family="Helvetica,sans-Serif" font-size="10.00" fill="#000000">+sourceID</text>
<text text-anchor="middle" x="357.5" y="-266" font-family="Helvetica,sans-Serif" font-size="10.00" fill="#000000">+zero6</text>
<text text-anchor="middle" x="357.5" y="-255" font-family="Helvetica,sans-Serif" font-size="10.00" fill="#000000">+detectorPAR</text>
<text text-anchor="middle" x="357.5" y="-244" font-family="Helvetica,sans-Serif" font-size="10.00" fill="#000000">+feeId</text>
<text text-anchor="middle" x="357.5" y="-233" font-family="Helvetica,sans-Serif" font-size="10.00" fill="#000000">+priority</text>
<text text-anchor="middle" x="357.5" y="-222" font-family="Helvetica,sans-Serif" font-size="10.00" fill="#000000">+headerSize</text>
<text text-anchor="middle" x="357.5" y="-211" font-family="Helvetica,sans-Serif" font-size="10.00" fill="#000000">+version</text>
<text text-anchor="middle" x="357.5" y="-200" font-family="Helvetica,sans-Serif" font-size="10.00" fill="#000000">+word0</text>
<text text-anchor="middle" x="357.5" y="-189" font-family="Helvetica,sans-Serif" font-size="10.00" fill="#000000">...</text>
</g>
<!-- Node5 -->
<g id="node5" class="node">
<title>Node5</title>
<polygon fill="none" stroke="#bfbfbf" points="325,-325.5 325,-382.5 432,-382.5 432,-325.5 325,-325.5"/>
<text text-anchor="middle" x="378.5" y="-370.5" font-family="Helvetica,sans-Serif" font-size="10.00" fill="#000000">anonymous:+@73</text>
<polyline fill="none" stroke="#bfbfbf" points="325,-363.5 432,-363.5 "/>
<text text-anchor="middle" x="378.5" y="-351.5" font-family="Helvetica,sans-Serif" font-size="10.00" fill="#000000"> </text>
<polyline fill="none" stroke="#bfbfbf" points="325,-344.5 432,-344.5 "/>
<text text-anchor="middle" x="378.5" y="-332.5" font-family="Helvetica,sans-Serif" font-size="10.00" fill="#000000"> </text>
</g>
<!-- Node5&#45;&gt;Node1 -->
<g id="edge4" class="edge">
<title>Node5&#45;&gt;Node1</title>
<path fill="none" stroke="#404040" d="M387.741,-325.1919C399.9576,-289.9841 423.9278,-229.709 457.5,-186 465.8491,-175.13 475.5391,-164.623 485.7304,-154.7505"/>
<polygon fill="none" stroke="#404040" points="486.0438,-154.4564 487.6819,-147.4337 494.7943,-146.2447 493.1563,-153.2674 486.0438,-154.4564"/>
<text text-anchor="middle" x="474.5" y="-244" font-family="Helvetica,sans-Serif" font-size="10.00" fill="#000000"> +@73</text>
</g>
<!-- Node6 -->
<g id="node6" class="node">
<title>Node6</title>
<polygon fill="none" stroke="#bfbfbf" points="450.5,-325.5 450.5,-382.5 506.5,-382.5 506.5,-325.5 450.5,-325.5"/>
<text text-anchor="middle" x="478.5" y="-370.5" font-family="Helvetica,sans-Serif" font-size="10.00" fill="#000000">uint16_t</text>
<polyline fill="none" stroke="#bfbfbf" points="450.5,-363.5 506.5,-363.5 "/>
<text text-anchor="middle" x="478.5" y="-351.5" font-family="Helvetica,sans-Serif" font-size="10.00" fill="#000000"> </text>
<polyline fill="none" stroke="#bfbfbf" points="450.5,-344.5 506.5,-344.5 "/>
<text text-anchor="middle" x="478.5" y="-332.5" font-family="Helvetica,sans-Serif" font-size="10.00" fill="#000000"> </text>
</g>
<!-- Node6&#45;&gt;Node1 -->
<g id="edge5" class="edge">
<title>Node6&#45;&gt;Node1</title>
<path fill="none" stroke="#404040" d="M488.1372,-325.3235C499.5142,-291.7678 519.2067,-234.6054 537.5,-186 538.3797,-183.6626 539.2766,-181.2976 540.1867,-178.914"/>
<polygon fill="none" stroke="#404040" points="540.21,-178.8534 538.6358,-171.8162 544.5263,-167.6565 546.1004,-174.6937 540.21,-178.8534"/>
<text text-anchor="middle" x="556" y="-244" font-family="Helvetica,sans-Serif" font-size="10.00" fill="#000000"> +cruID</text>
</g>
<!-- Node7 -->
<g id="node7" class="node">
<title>Node7</title>
<polygon fill="none" stroke="#bfbfbf" points="525,-325.5 525,-382.5 632,-382.5 632,-325.5 525,-325.5"/>
<text text-anchor="middle" x="578.5" y="-370.5" font-family="Helvetica,sans-Serif" font-size="10.00" fill="#000000">anonymous:+@83</text>
<polyline fill="none" stroke="#bfbfbf" points="525,-363.5 632,-363.5 "/>
<text text-anchor="middle" x="578.5" y="-351.5" font-family="Helvetica,sans-Serif" font-size="10.00" fill="#000000"> </text>
<polyline fill="none" stroke="#bfbfbf" points="525,-344.5 632,-344.5 "/>
<text text-anchor="middle" x="578.5" y="-332.5" font-family="Helvetica,sans-Serif" font-size="10.00" fill="#000000"> </text>
</g>
<!-- Node7&#45;&gt;Node1 -->
<g id="edge6" class="edge">
<title>Node7&#45;&gt;Node1</title>
<path fill="none" stroke="#404040" d="M578.5,-325.3609C578.5,-290.8712 578.5,-231.1584 578.5,-179.7577"/>
<polygon fill="none" stroke="#404040" points="578.5001,-179.5731 574.5,-173.5731 578.5,-167.5731 582.5,-173.573 578.5001,-179.5731"/>
<text text-anchor="middle" x="595.5" y="-244" font-family="Helvetica,sans-Serif" font-size="10.00" fill="#000000"> +@83</text>
</g>
<!-- Node8 -->
<g id="node8" class="node">
<title>Node8</title>
<polygon fill="none" stroke="#bfbfbf" points="650,-325.5 650,-382.5 757,-382.5 757,-325.5 650,-325.5"/>
<text text-anchor="middle" x="703.5" y="-370.5" font-family="Helvetica,sans-Serif" font-size="10.00" fill="#000000">anonymous:+@75</text>
<polyline fill="none" stroke="#bfbfbf" points="650,-363.5 757,-363.5 "/>
<text text-anchor="middle" x="703.5" y="-351.5" font-family="Helvetica,sans-Serif" font-size="10.00" fill="#000000"> </text>
<polyline fill="none" stroke="#bfbfbf" points="650,-344.5 757,-344.5 "/>
<text text-anchor="middle" x="703.5" y="-332.5" font-family="Helvetica,sans-Serif" font-size="10.00" fill="#000000"> </text>
</g>
<!-- Node8&#45;&gt;Node1 -->
<g id="edge7" class="edge">
<title>Node8&#45;&gt;Node1</title>
<path fill="none" stroke="#404040" d="M690.2412,-325.3609C674.1726,-290.6529 646.2785,-230.4015 622.3809,-178.7828"/>
<polygon fill="none" stroke="#404040" points="622.2328,-178.4627 616.0821,-174.6984 617.1912,-167.5731 623.3419,-171.3374 622.2328,-178.4627"/>
<text text-anchor="middle" x="696.5" y="-244" font-family="Helvetica,sans-Serif" font-size="10.00" fill="#000000"> +@75</text>
</g>
<!-- Node9 -->
<g id="node9" class="node">
<title>Node9</title>
<polygon fill="none" stroke="#bfbfbf" points="775,-325.5 775,-382.5 882,-382.5 882,-325.5 775,-325.5"/>
<text text-anchor="middle" x="828.5" y="-370.5" font-family="Helvetica,sans-Serif" font-size="10.00" fill="#000000">anonymous:+@77</text>
<polyline fill="none" stroke="#bfbfbf" points="775,-363.5 882,-363.5 "/>
<text text-anchor="middle" x="828.5" y="-351.5" font-family="Helvetica,sans-Serif" font-size="10.00" fill="#000000"> </text>
<polyline fill="none" stroke="#bfbfbf" points="775,-344.5 882,-344.5 "/>
<text text-anchor="middle" x="828.5" y="-332.5" font-family="Helvetica,sans-Serif" font-size="10.00" fill="#000000"> </text>
</g>
<!-- Node9&#45;&gt;Node1 -->
<g id="edge8" class="edge">
<title>Node9&#45;&gt;Node1</title>
<path fill="none" stroke="#404040" d="M813.7142,-325.3648C794.6056,-290.0635 758.8377,-229.4228 717.5,-186 703.9126,-171.7272 688.1206,-158.0495 672.1568,-145.6048"/>
<polygon fill="none" stroke="#404040" points="671.7547,-145.2982 664.5582,-144.8404 662.2129,-138.0213 669.4095,-138.4791 671.7547,-145.2982"/>
<text text-anchor="middle" x="819.5" y="-244" font-family="Helvetica,sans-Serif" font-size="10.00" fill="#000000"> +@77</text>
</g>
<!-- Node10 -->
<g id="node10" class="node">
<title>Node10</title>
<g id="a_node10"><a xlink:href="../../d3/d87/classuint32__t.html" target="_top" xlink:title="{uint32_t\n||}">
<polygon fill="none" stroke="#000000" points="900.5,-325.5 900.5,-382.5 956.5,-382.5 956.5,-325.5 900.5,-325.5"/>
<text text-anchor="middle" x="928.5" y="-370.5" font-family="Helvetica,sans-Serif" font-size="10.00" fill="#000000">uint32_t</text>
<polyline fill="none" stroke="#000000" points="900.5,-363.5 956.5,-363.5 "/>
<text text-anchor="middle" x="928.5" y="-351.5" font-family="Helvetica,sans-Serif" font-size="10.00" fill="#000000"> </text>
<polyline fill="none" stroke="#000000" points="900.5,-344.5 956.5,-344.5 "/>
<text text-anchor="middle" x="928.5" y="-332.5" font-family="Helvetica,sans-Serif" font-size="10.00" fill="#000000"> </text>
</a>
</g>
</g>
<!-- Node10&#45;&gt;Node1 -->
<g id="edge9" class="edge">
<title>Node10&#45;&gt;Node1</title>
<path fill="none" stroke="#404040" d="M920.4425,-325.4069C908.654,-288.4483 883.3231,-224.3055 840.5,-186 793.7268,-144.1611 727.8528,-118.62 673.8603,-103.5594"/>
<polygon fill="none" stroke="#404040" points="673.7659,-103.534 666.9317,-105.8348 662.1794,-100.4111 669.0136,-98.1104 673.7659,-103.534"/>
<text text-anchor="middle" x="952.5" y="-282.5" font-family="Helvetica,sans-Serif" font-size="10.00" fill="#000000"> +linkID</text>
<text text-anchor="middle" x="952.5" y="-271.5" font-family="Helvetica,sans-Serif" font-size="10.00" fill="#000000">+endPointID</text>
<text text-anchor="middle" x="952.5" y="-260.5" font-family="Helvetica,sans-Serif" font-size="10.00" fill="#000000">+reserved2</text>
<text text-anchor="middle" x="952.5" y="-249.5" font-family="Helvetica,sans-Serif" font-size="10.00" fill="#000000">+memorySize</text>
<text text-anchor="middle" x="952.5" y="-238.5" font-family="Helvetica,sans-Serif" font-size="10.00" fill="#000000">+offsetToNext</text>
<text text-anchor="middle" x="952.5" y="-227.5" font-family="Helvetica,sans-Serif" font-size="10.00" fill="#000000">+orbit</text>
<text text-anchor="middle" x="952.5" y="-216.5" font-family="Helvetica,sans-Serif" font-size="10.00" fill="#000000">+packetCounter</text>
<text text-anchor="middle" x="952.5" y="-205.5" font-family="Helvetica,sans-Serif" font-size="10.00" fill="#000000">+bunchCrossing</text>
</g>
<!-- Node11 -->
<g id="node11" class="node">
<title>Node11</title>
<polygon fill="none" stroke="#bfbfbf" points="975,-325.5 975,-382.5 1082,-382.5 1082,-325.5 975,-325.5"/>
<text text-anchor="middle" x="1028.5" y="-370.5" font-family="Helvetica,sans-Serif" font-size="10.00" fill="#000000">anonymous:+@79</text>
<polyline fill="none" stroke="#bfbfbf" points="975,-363.5 1082,-363.5 "/>
<text text-anchor="middle" x="1028.5" y="-351.5" font-family="Helvetica,sans-Serif" font-size="10.00" fill="#000000"> </text>
<polyline fill="none" stroke="#bfbfbf" points="975,-344.5 1082,-344.5 "/>
<text text-anchor="middle" x="1028.5" y="-332.5" font-family="Helvetica,sans-Serif" font-size="10.00" fill="#000000"> </text>
</g>
<!-- Node11&#45;&gt;Node1 -->
<g id="edge10" class="edge">
<title>Node11&#45;&gt;Node1</title>
<path fill="none" stroke="#404040" d="M1031.6655,-325.4994C1034.1018,-288.3431 1032.2898,-223.6678 996.5,-186 952.8575,-140.0675 783.5045,-110.2203 674.2114,-95.3099"/>
<polygon fill="none" stroke="#404040" points="674.0765,-95.2919 667.5978,-98.4584 662.1831,-93.696 668.6617,-90.5295 674.0765,-95.2919"/>
<text text-anchor="middle" x="1048.5" y="-244" font-family="Helvetica,sans-Serif" font-size="10.00" fill="#000000"> +@79</text>
</g>
<!-- Node12 -->
<g id="node12" class="node">
<title>Node12</title>
<polygon fill="none" stroke="#bfbfbf" points="1100,-325.5 1100,-382.5 1207,-382.5 1207,-325.5 1100,-325.5"/>
<text text-anchor="middle" x="1153.5" y="-370.5" font-family="Helvetica,sans-Serif" font-size="10.00" fill="#000000">anonymous:+@69</text>
<polyline fill="none" stroke="#bfbfbf" points="1100,-363.5 1207,-363.5 "/>
<text text-anchor="middle" x="1153.5" y="-351.5" font-family="Helvetica,sans-Serif" font-size="10.00" fill="#000000"> </text>
<polyline fill="none" stroke="#bfbfbf" points="1100,-344.5 1207,-344.5 "/>
<text text-anchor="middle" x="1153.5" y="-332.5" font-family="Helvetica,sans-Serif" font-size="10.00" fill="#000000"> </text>
</g>
<!-- Node12&#45;&gt;Node1 -->
<g id="edge11" class="edge">
<title>Node12&#45;&gt;Node1</title>
<path fill="none" stroke="#404040" d="M1147.3419,-325.2908C1137.6284,-287.285 1114.9804,-221.006 1069.5,-186 1038.4211,-162.0787 807.8453,-121.2997 674.0031,-99.2446"/>
<polygon fill="none" stroke="#404040" points="673.9985,-99.2439 667.4298,-102.219 662.1571,-97.2998 668.7258,-94.3247 673.9985,-99.2439"/>
<text text-anchor="middle" x="1158.5" y="-244" font-family="Helvetica,sans-Serif" font-size="10.00" fill="#000000"> +@69</text>
</g>
</g>
</svg>
        <g id="navigator" transform="translate(0 0)" fill="#404254">
                <rect fill="#f2f5e9" fill-opacity="0.5" stroke="#606060" stroke-width=".5" x="0" y="0" width="60" height="60"/>
                <use id="zoomplus" xlink:href="#zoomPlus" x="17" y="9" onmousedown="handleZoom(evt,'in')"/>
                <use id="zoomminus" xlink:href="#zoomMin" x="42" y="9" onmousedown="handleZoom(evt,'out')"/>
                <use id="reset" xlink:href="#resetDef" x="30" y="36" onmousedown="handleReset()"/>
                <g id="arrowUp" xlink:href="#dirArrow" transform="translate(30 24)" onmousedown="handlePan(0,-1)">
                  <use xlink:href="#rim" fill="#404040">
                        <set attributeName="fill" to="#808080" begin="arrowUp.mouseover" end="arrowUp.mouseout"/>
                  </use>
                  <path fill="none" stroke="white" stroke-width="1.5" d="M0,-3.0v7 M-2.5,-0.5L0,-3.0L2.5,-0.5"/>
                </g>
                <g id="arrowRight" xlink:href="#dirArrow" transform="rotate(90) translate(36 -43)" onmousedown="handlePan(1,0)">
                  <use xlink:href="#rim" fill="#404040">
                        <set attributeName="fill" to="#808080" begin="arrowRight.mouseover" end="arrowRight.mouseout"/>
                  </use>
                  <path fill="none" stroke="white" stroke-width="1.5" d="M0,-3.0v7 M-2.5,-0.5L0,-3.0L2.5,-0.5"/>
                </g>
                <g id="arrowDown" xlink:href="#dirArrow" transform="rotate(180) translate(-30 -48)" onmousedown="handlePan(0,1)">
                  <use xlink:href="#rim" fill="#404040">
                        <set attributeName="fill" to="#808080" begin="arrowDown.mouseover" end="arrowDown.mouseout"/>
                  </use>
                  <path fill="none" stroke="white" stroke-width="1.5" d="M0,-3.0v7 M-2.5,-0.5L0,-3.0L2.5,-0.5"/>
                </g>
                <g id="arrowLeft" xlink:href="#dirArrow" transform="rotate(270) translate(-36 17)" onmousedown="handlePan(-1,0)">
                  <use xlink:href="#rim" fill="#404040">
                        <set attributeName="fill" to="#808080" begin="arrowLeft.mouseover" end="arrowLeft.mouseout"/>
                  </use>
                  <path fill="none" stroke="white" stroke-width="1.5" d="M0,-3.0v7 M-2.5,-0.5L0,-3.0L2.5,-0.5"/>
                </g>
        </g>
        <svg viewBox="0 0 15 15" width="100%" height="30px" preserveAspectRatio="xMaxYMin meet">
         <g id="arrow_out" transform="scale(0.3 0.3)">
          <a xlink:href="structo2_1_1header_1_1RAWDataHeaderV6__coll__graph_org.svg" target="_base">
           <rect id="button" ry="5" rx="5" y="6" x="6" height="38" width="38"
                fill="#f2f5e9" fill-opacity="0.5" stroke="#606060" stroke-width="1.0"/>
           <path id="arrow"
             d="M 11.500037,31.436501 C 11.940474,20.09759 22.043105,11.32322 32.158766,21.979434 L 37.068811,17.246167 C 37.068811,17.246167 37.088388,32 37.088388,32 L 22.160133,31.978069 C 22.160133,31.978069 26.997745,27.140456 26.997745,27.140456 C 18.528582,18.264221 13.291696,25.230495 11.500037,31.436501 z"
             style="fill:#404040;"/>
          </a>
         </g>
        </svg>
</svg>
