<?xml version="1.0" encoding="UTF-8" standalone="no"?>
<!DOCTYPE svg PUBLIC "-//W3C//DTD SVG 1.1//EN"
 "http://www.w3.org/Graphics/SVG/1.1/DTD/svg11.dtd">
<!-- Generated by graphviz version 2.40.1 (20161225.0304)
 -->
<!-- Title: /home/travis/build/AliceO2Group/AliceO2/Detectors/FIT/FT0/base/include/FT0Base/Geometry.h Pages: 1 -->
<svg width="1509pt" height="339pt"
 viewBox="0.00 0.00 1509.00 339.00" xmlns="http://www.w3.org/2000/svg" xmlns:xlink="http://www.w3.org/1999/xlink">
<g id="graph0" class="graph" transform="scale(1 1) rotate(0) translate(4 335)">
<title>/home/travis/build/AliceO2Group/AliceO2/Detectors/FIT/FT0/base/include/FT0Base/Geometry.h</title>
<!-- Node3 -->
<g id="node1" class="node">
<title>Node3</title>
<polygon fill="#bfbfbf" stroke="#000000" points="570.5,-278.5 570.5,-330.5 728.5,-330.5 728.5,-278.5 570.5,-278.5"/>
<text text-anchor="start" x="578.5" y="-318.5" font-family="Helvetica,sans-Serif" font-size="10.00" fill="#000000">/home/travis/build</text>
<text text-anchor="start" x="578.5" y="-307.5" font-family="Helvetica,sans-Serif" font-size="10.00" fill="#000000">/AliceO2Group/AliceO2</text>
<text text-anchor="start" x="578.5" y="-296.5" font-family="Helvetica,sans-Serif" font-size="10.00" fill="#000000">/Detectors/FIT/FT0/base</text>
<text text-anchor="middle" x="649.5" y="-285.5" font-family="Helvetica,sans-Serif" font-size="10.00" fill="#000000">/include/FT0Base/Geometry.h</text>
</g>
<!-- Node4 -->
<g id="node2" class="node">
<title>Node4</title>
<g id="a_node2"><a xlink:href="../../d3/d21/RecPoints_8cxx.html" target="_top" xlink:title="/home/travis/build\l/AliceO2Group/AliceO2\l/DataFormats/Detectors\l/FIT/FT0/src/RecPoints.cxx">
<polygon fill="none" stroke="#000000" points="28.5,-184 28.5,-236 170.5,-236 170.5,-184 28.5,-184"/>
<text text-anchor="start" x="36.5" y="-224" font-family="Helvetica,sans-Serif" font-size="10.00" fill="#000000">/home/travis/build</text>
<text text-anchor="start" x="36.5" y="-213" font-family="Helvetica,sans-Serif" font-size="10.00" fill="#000000">/AliceO2Group/AliceO2</text>
<text text-anchor="start" x="36.5" y="-202" font-family="Helvetica,sans-Serif" font-size="10.00" fill="#000000">/DataFormats/Detectors</text>
<text text-anchor="middle" x="99.5" y="-191" font-family="Helvetica,sans-Serif" font-size="10.00" fill="#000000">/FIT/FT0/src/RecPoints.cxx</text>
</a>
</g>
</g>
<!-- Node3&#45;&gt;Node4 -->
<g id="edge1" class="edge">
<title>Node3&#45;&gt;Node4</title>
<path fill="none" stroke="#191970" d="M559.9738,-299.2251C464.4548,-292.0679 309.3362,-276.0329 179.5,-242 173.1332,-240.3311 166.5917,-238.2906 160.1237,-236.0555"/>
<polygon fill="#191970" stroke="#191970" points="559.9445,-302.7323 570.1736,-299.9726 560.4562,-295.751 559.9445,-302.7323"/>
</g>
<!-- Node5 -->
<g id="node3" class="node">
<title>Node5</title>
<g id="a_node3"><a xlink:href="../../d8/d6b/FIT_2FT0_2base_2src_2Geometry_8cxx.html" target="_top" xlink:title="/home/travis/build\l/AliceO2Group/AliceO2\l/Detectors/FIT/FT0/base\l/src/Geometry.cxx">
<polygon fill="none" stroke="#000000" points="189,-184 189,-236 320,-236 320,-184 189,-184"/>
<text text-anchor="start" x="197" y="-224" font-family="Helvetica,sans-Serif" font-size="10.00" fill="#000000">/home/travis/build</text>
<text text-anchor="start" x="197" y="-213" font-family="Helvetica,sans-Serif" font-size="10.00" fill="#000000">/AliceO2Group/AliceO2</text>
<text text-anchor="start" x="197" y="-202" font-family="Helvetica,sans-Serif" font-size="10.00" fill="#000000">/Detectors/FIT/FT0/base</text>
<text text-anchor="middle" x="254.5" y="-191" font-family="Helvetica,sans-Serif" font-size="10.00" fill="#000000">/src/Geometry.cxx</text>
</a>
</g>
</g>
<!-- Node3&#45;&gt;Node5 -->
<g id="edge2" class="edge">
<title>Node3&#45;&gt;Node5</title>
<path fill="none" stroke="#191970" d="M560.2629,-292.4198C495.136,-282.3319 405.2081,-265.7474 328.5,-242 322.8842,-240.2615 317.1193,-238.2321 311.4053,-236.054"/>
<polygon fill="#191970" stroke="#191970" points="560.0827,-295.9328 570.4966,-293.9831 561.1399,-289.013 560.0827,-295.9328"/>
</g>
<!-- Node6 -->
<g id="node4" class="node">
<title>Node6</title>
<g id="a_node4"><a xlink:href="../../da/ddf/FIT_2FT0_2reconstruction_2include_2FT0Reconstruction_2CTFCoder_8h.html" target="_top" xlink:title="/home/travis/build\l/AliceO2Group/AliceO2\l/Detectors/FIT/FT0/reconstruction\l/include/FT0Reconstruction/CTFCoder.h">
<polygon fill="none" stroke="#000000" points="338,-184 338,-236 543,-236 543,-184 338,-184"/>
<text text-anchor="start" x="346" y="-224" font-family="Helvetica,sans-Serif" font-size="10.00" fill="#000000">/home/travis/build</text>
<text text-anchor="start" x="346" y="-213" font-family="Helvetica,sans-Serif" font-size="10.00" fill="#000000">/AliceO2Group/AliceO2</text>
<text text-anchor="start" x="346" y="-202" font-family="Helvetica,sans-Serif" font-size="10.00" fill="#000000">/Detectors/FIT/FT0/reconstruction</text>
<text text-anchor="middle" x="440.5" y="-191" font-family="Helvetica,sans-Serif" font-size="10.00" fill="#000000">/include/FT0Reconstruction/CTFCoder.h</text>
</a>
</g>
</g>
<!-- Node3&#45;&gt;Node6 -->
<g id="edge3" class="edge">
<title>Node3&#45;&gt;Node6</title>
<path fill="none" stroke="#191970" d="M582.4333,-274.1756C555.3527,-261.931 524.4073,-247.939 498.3377,-236.1515"/>
<polygon fill="#191970" stroke="#191970" points="581.2827,-277.4964 591.8366,-278.4273 584.1667,-271.1181 581.2827,-277.4964"/>
</g>
<!-- Node11 -->
<g id="node9" class="node">
<title>Node11</title>
<g id="a_node9"><a xlink:href="../../d9/d2f/CollisionTimeRecoTask_8cxx.html" target="_top" xlink:title="Implementation of the FIT reconstruction task. ">
<polygon fill="none" stroke="#000000" points="561,-184 561,-236 738,-236 738,-184 561,-184"/>
<text text-anchor="start" x="569" y="-224" font-family="Helvetica,sans-Serif" font-size="10.00" fill="#000000">/home/travis/build</text>
<text text-anchor="start" x="569" y="-213" font-family="Helvetica,sans-Serif" font-size="10.00" fill="#000000">/AliceO2Group/AliceO2</text>
<text text-anchor="start" x="569" y="-202" font-family="Helvetica,sans-Serif" font-size="10.00" fill="#000000">/Detectors/FIT/FT0/reconstruction</text>
<text text-anchor="middle" x="649.5" y="-191" font-family="Helvetica,sans-Serif" font-size="10.00" fill="#000000">/src/CollisionTimeRecoTask.cxx</text>
</a>
</g>
</g>
<!-- Node3&#45;&gt;Node11 -->
<g id="edge8" class="edge">
<title>Node3&#45;&gt;Node11</title>
<path fill="none" stroke="#191970" d="M649.5,-268.1645C649.5,-257.5577 649.5,-246.1746 649.5,-236.3157"/>
<polygon fill="#191970" stroke="#191970" points="646.0001,-268.4273 649.5,-278.4273 653.0001,-268.4273 646.0001,-268.4273"/>
</g>
<!-- Node12 -->
<g id="node10" class="node">
<title>Node12</title>
<g id="a_node10"><a xlink:href="../../d7/d12/FIT_2FT0_2simulation_2include_2FT0Simulation_2Detector_8h.html" target="_top" xlink:title="/home/travis/build\l/AliceO2Group/AliceO2\l/Detectors/FIT/FT0/simulation\l/include/FT0Simulation/Detector.h">
<polygon fill="none" stroke="#000000" points="961,-184 961,-236 1142,-236 1142,-184 961,-184"/>
<text text-anchor="start" x="969" y="-224" font-family="Helvetica,sans-Serif" font-size="10.00" fill="#000000">/home/travis/build</text>
<text text-anchor="start" x="969" y="-213" font-family="Helvetica,sans-Serif" font-size="10.00" fill="#000000">/AliceO2Group/AliceO2</text>
<text text-anchor="start" x="969" y="-202" font-family="Helvetica,sans-Serif" font-size="10.00" fill="#000000">/Detectors/FIT/FT0/simulation</text>
<text text-anchor="middle" x="1051.5" y="-191" font-family="Helvetica,sans-Serif" font-size="10.00" fill="#000000">/include/FT0Simulation/Detector.h</text>
</a>
</g>
</g>
<!-- Node3&#45;&gt;Node12 -->
<g id="edge9" class="edge">
<title>Node3&#45;&gt;Node12</title>
<path fill="none" stroke="#191970" d="M738.4568,-288.6506C798.9141,-277.254 880.4946,-260.6525 951.5,-242 958.4639,-240.1706 965.6596,-238.144 972.8497,-236.0244"/>
<polygon fill="#191970" stroke="#191970" points="737.7458,-285.2228 728.5616,-290.505 739.0352,-292.103 737.7458,-285.2228"/>
</g>
<!-- Node18 -->
<g id="node16" class="node">
<title>Node18</title>
<g id="a_node16"><a xlink:href="../../dc/d88/FIT_2FT0_2simulation_2src_2Detector_8cxx.html" target="_top" xlink:title="/home/travis/build\l/AliceO2Group/AliceO2\l/Detectors/FIT/FT0/simulation\l/src/Detector.cxx">
<polygon fill="none" stroke="#000000" points="1342,-89.5 1342,-141.5 1501,-141.5 1501,-89.5 1342,-89.5"/>
<text text-anchor="start" x="1350" y="-129.5" font-family="Helvetica,sans-Serif" font-size="10.00" fill="#000000">/home/travis/build</text>
<text text-anchor="start" x="1350" y="-118.5" font-family="Helvetica,sans-Serif" font-size="10.00" fill="#000000">/AliceO2Group/AliceO2</text>
<text text-anchor="start" x="1350" y="-107.5" font-family="Helvetica,sans-Serif" font-size="10.00" fill="#000000">/Detectors/FIT/FT0/simulation</text>
<text text-anchor="middle" x="1421.5" y="-96.5" font-family="Helvetica,sans-Serif" font-size="10.00" fill="#000000">/src/Detector.cxx</text>
</a>
</g>
</g>
<!-- Node3&#45;&gt;Node18 -->
<g id="edge22" class="edge">
<title>Node3&#45;&gt;Node18</title>
<path fill="none" stroke="#191970" d="M739.0981,-301.7966C840.851,-296.7985 1010.9799,-282.5602 1151.5,-242 1235.0537,-217.8828 1325.2225,-170.9404 1377.3405,-141.5173"/>
<polygon fill="#191970" stroke="#191970" points="738.6843,-298.3121 728.8604,-302.2795 739.0142,-305.3043 738.6843,-298.3121"/>
</g>
<!-- Node21 -->
<g id="node19" class="node">
<title>Node21</title>
<g id="a_node19"><a xlink:href="../../db/db4/FT0_2simulation_2include_2FT0Simulation_2DigitizationParameters_8h.html" target="_top" xlink:title="/home/travis/build\l/AliceO2Group/AliceO2\l/Detectors/FIT/FT0/simulation\l/include/FT0Simulation/Digitization\lParameters.h">
<polygon fill="none" stroke="#000000" points="756,-178.5 756,-241.5 943,-241.5 943,-178.5 756,-178.5"/>
<text text-anchor="start" x="764" y="-229.5" font-family="Helvetica,sans-Serif" font-size="10.00" fill="#000000">/home/travis/build</text>
<text text-anchor="start" x="764" y="-218.5" font-family="Helvetica,sans-Serif" font-size="10.00" fill="#000000">/AliceO2Group/AliceO2</text>
<text text-anchor="start" x="764" y="-207.5" font-family="Helvetica,sans-Serif" font-size="10.00" fill="#000000">/Detectors/FIT/FT0/simulation</text>
<text text-anchor="start" x="764" y="-196.5" font-family="Helvetica,sans-Serif" font-size="10.00" fill="#000000">/include/FT0Simulation/Digitization</text>
<text text-anchor="middle" x="849.5" y="-185.5" font-family="Helvetica,sans-Serif" font-size="10.00" fill="#000000">Parameters.h</text>
</a>
</g>
</g>
<!-- Node3&#45;&gt;Node21 -->
<g id="edge19" class="edge">
<title>Node3&#45;&gt;Node21</title>
<path fill="none" stroke="#191970" d="M713.9337,-274.0551C735.9371,-263.6585 760.582,-252.0138 782.7628,-241.5333"/>
<polygon fill="#191970" stroke="#191970" points="712.2266,-270.9906 704.6803,-278.4273 715.2171,-277.3197 712.2266,-270.9906"/>
</g>
<!-- Node7 -->
<g id="node5" class="node">
<title>Node7</title>
<g id="a_node5"><a xlink:href="../../d3/d53/test__ctf__io__ft0_8cxx.html" target="_top" xlink:title="/home/travis/build\l/AliceO2Group/AliceO2\l/Detectors/CTF/test/test\l_ctf_io_ft0.cxx">
<polygon fill="none" stroke="#000000" points="546,-89.5 546,-141.5 677,-141.5 677,-89.5 546,-89.5"/>
<text text-anchor="start" x="554" y="-129.5" font-family="Helvetica,sans-Serif" font-size="10.00" fill="#000000">/home/travis/build</text>
<text text-anchor="start" x="554" y="-118.5" font-family="Helvetica,sans-Serif" font-size="10.00" fill="#000000">/AliceO2Group/AliceO2</text>
<text text-anchor="start" x="554" y="-107.5" font-family="Helvetica,sans-Serif" font-size="10.00" fill="#000000">/Detectors/CTF/test/test</text>
<text text-anchor="middle" x="611.5" y="-96.5" font-family="Helvetica,sans-Serif" font-size="10.00" fill="#000000">_ctf_io_ft0.cxx</text>
</a>
</g>
</g>
<!-- Node6&#45;&gt;Node7 -->
<g id="edge4" class="edge">
<title>Node6&#45;&gt;Node7</title>
<path fill="none" stroke="#191970" d="M496.5367,-179.0324C518.4129,-166.9429 543.2211,-153.2331 564.1782,-141.6515"/>
<polygon fill="#191970" stroke="#191970" points="494.7387,-176.027 487.6792,-183.9273 498.1245,-182.1537 494.7387,-176.027"/>
</g>
<!-- Node8 -->
<g id="node6" class="node">
<title>Node8</title>
<g id="a_node6"><a xlink:href="../../d7/d9d/FIT_2FT0_2reconstruction_2src_2CTFCoder_8cxx.html" target="_top" xlink:title="/home/travis/build\l/AliceO2Group/AliceO2\l/Detectors/FIT/FT0/reconstruction\l/src/CTFCoder.cxx">
<polygon fill="none" stroke="#000000" points="0,-89.5 0,-141.5 177,-141.5 177,-89.5 0,-89.5"/>
<text text-anchor="start" x="8" y="-129.5" font-family="Helvetica,sans-Serif" font-size="10.00" fill="#000000">/home/travis/build</text>
<text text-anchor="start" x="8" y="-118.5" font-family="Helvetica,sans-Serif" font-size="10.00" fill="#000000">/AliceO2Group/AliceO2</text>
<text text-anchor="start" x="8" y="-107.5" font-family="Helvetica,sans-Serif" font-size="10.00" fill="#000000">/Detectors/FIT/FT0/reconstruction</text>
<text text-anchor="middle" x="88.5" y="-96.5" font-family="Helvetica,sans-Serif" font-size="10.00" fill="#000000">/src/CTFCoder.cxx</text>
</a>
</g>
</g>
<!-- Node6&#45;&gt;Node8 -->
<g id="edge5" class="edge">
<title>Node6&#45;&gt;Node8</title>
<path fill="none" stroke="#191970" d="M340.7228,-181.3186C336.5967,-180.1875 332.5098,-179.0773 328.5,-178 265.2058,-160.9954 248.8918,-158.6368 185.5,-142 182.7139,-141.2688 179.8839,-140.5218 177.0274,-139.764"/>
<polygon fill="#191970" stroke="#191970" points="339.8323,-184.7037 350.4031,-183.9899 341.6944,-177.9559 339.8323,-184.7037"/>
</g>
<!-- Node9 -->
<g id="node7" class="node">
<title>Node9</title>
<g id="a_node7"><a xlink:href="../../d5/de7/FIT_2FT0_2workflow_2src_2EntropyDecoderSpec_8cxx.html" target="_top" xlink:title="/home/travis/build\l/AliceO2Group/AliceO2\l/Detectors/FIT/FT0/workflow\l/src/EntropyDecoderSpec.cxx">
<polygon fill="none" stroke="#000000" points="194.5,-89.5 194.5,-141.5 352.5,-141.5 352.5,-89.5 194.5,-89.5"/>
<text text-anchor="start" x="202.5" y="-129.5" font-family="Helvetica,sans-Serif" font-size="10.00" fill="#000000">/home/travis/build</text>
<text text-anchor="start" x="202.5" y="-118.5" font-family="Helvetica,sans-Serif" font-size="10.00" fill="#000000">/AliceO2Group/AliceO2</text>
<text text-anchor="start" x="202.5" y="-107.5" font-family="Helvetica,sans-Serif" font-size="10.00" fill="#000000">/Detectors/FIT/FT0/workflow</text>
<text text-anchor="middle" x="273.5" y="-96.5" font-family="Helvetica,sans-Serif" font-size="10.00" fill="#000000">/src/EntropyDecoderSpec.cxx</text>
</a>
</g>
</g>
<!-- Node6&#45;&gt;Node9 -->
<g id="edge6" class="edge">
<title>Node6&#45;&gt;Node9</title>
<path fill="none" stroke="#191970" d="M385.4891,-178.8711C364.1943,-166.821 340.0908,-153.1816 319.7148,-141.6515"/>
<polygon fill="#191970" stroke="#191970" points="383.9975,-182.0485 394.4244,-183.9273 387.4449,-175.9563 383.9975,-182.0485"/>
</g>
<!-- Node10 -->
<g id="node8" class="node">
<title>Node10</title>
<g id="a_node8"><a xlink:href="../../de/db3/FIT_2FT0_2workflow_2src_2EntropyEncoderSpec_8cxx.html" target="_top" xlink:title="/home/travis/build\l/AliceO2Group/AliceO2\l/Detectors/FIT/FT0/workflow\l/src/EntropyEncoderSpec.cxx">
<polygon fill="none" stroke="#000000" points="371,-89.5 371,-141.5 528,-141.5 528,-89.5 371,-89.5"/>
<text text-anchor="start" x="379" y="-129.5" font-family="Helvetica,sans-Serif" font-size="10.00" fill="#000000">/home/travis/build</text>
<text text-anchor="start" x="379" y="-118.5" font-family="Helvetica,sans-Serif" font-size="10.00" fill="#000000">/AliceO2Group/AliceO2</text>
<text text-anchor="start" x="379" y="-107.5" font-family="Helvetica,sans-Serif" font-size="10.00" fill="#000000">/Detectors/FIT/FT0/workflow</text>
<text text-anchor="middle" x="449.5" y="-96.5" font-family="Helvetica,sans-Serif" font-size="10.00" fill="#000000">/src/EntropyEncoderSpec.cxx</text>
</a>
</g>
</g>
<!-- Node6&#45;&gt;Node10 -->
<g id="edge7" class="edge">
<title>Node6&#45;&gt;Node10</title>
<path fill="none" stroke="#191970" d="M443.9605,-173.6645C444.9707,-163.0577 446.0548,-151.6746 446.9937,-141.8157"/>
<polygon fill="#191970" stroke="#191970" points="440.4471,-173.6405 442.9831,-183.9273 447.4155,-174.3042 440.4471,-173.6405"/>
</g>
<!-- Node13 -->
<g id="node11" class="node">
<title>Node13</title>
<g id="a_node11"><a xlink:href="../../da/d10/FIT_2FT0_2simulation_2include_2FT0Simulation_2Digitizer_8h.html" target="_top" xlink:title="/home/travis/build\l/AliceO2Group/AliceO2\l/Detectors/FIT/FT0/simulation\l/include/FT0Simulation/Digitizer.h">
<polygon fill="none" stroke="#000000" points="759.5,-89.5 759.5,-141.5 939.5,-141.5 939.5,-89.5 759.5,-89.5"/>
<text text-anchor="start" x="767.5" y="-129.5" font-family="Helvetica,sans-Serif" font-size="10.00" fill="#000000">/home/travis/build</text>
<text text-anchor="start" x="767.5" y="-118.5" font-family="Helvetica,sans-Serif" font-size="10.00" fill="#000000">/AliceO2Group/AliceO2</text>
<text text-anchor="start" x="767.5" y="-107.5" font-family="Helvetica,sans-Serif" font-size="10.00" fill="#000000">/Detectors/FIT/FT0/simulation</text>
<text text-anchor="middle" x="849.5" y="-96.5" font-family="Helvetica,sans-Serif" font-size="10.00" fill="#000000">/include/FT0Simulation/Digitizer.h</text>
</a>
</g>
</g>
<!-- Node12&#45;&gt;Node13 -->
<g id="edge10" class="edge">
<title>Node12&#45;&gt;Node13</title>
<path fill="none" stroke="#191970" d="M986.6796,-179.6756C960.5059,-167.431 930.597,-153.439 905.4006,-141.6515"/>
<polygon fill="#191970" stroke="#191970" points="985.2269,-182.86 995.7679,-183.9273 988.1932,-176.5196 985.2269,-182.86"/>
</g>
<!-- Node16 -->
<g id="node14" class="node">
<title>Node16</title>
<g id="a_node14"><a xlink:href="../../dd/d0b/FIT_2FT0_2simulation_2include_2FT0Simulation_2DigitizerTask_8h.html" target="_top" xlink:title="/home/travis/build\l/AliceO2Group/AliceO2\l/Detectors/FIT/FT0/simulation\l/include/FT0Simulation/DigitizerTask.h">
<polygon fill="none" stroke="#000000" points="1121,-89.5 1121,-141.5 1324,-141.5 1324,-89.5 1121,-89.5"/>
<text text-anchor="start" x="1129" y="-129.5" font-family="Helvetica,sans-Serif" font-size="10.00" fill="#000000">/home/travis/build</text>
<text text-anchor="start" x="1129" y="-118.5" font-family="Helvetica,sans-Serif" font-size="10.00" fill="#000000">/AliceO2Group/AliceO2</text>
<text text-anchor="start" x="1129" y="-107.5" font-family="Helvetica,sans-Serif" font-size="10.00" fill="#000000">/Detectors/FIT/FT0/simulation</text>
<text text-anchor="middle" x="1222.5" y="-96.5" font-family="Helvetica,sans-Serif" font-size="10.00" fill="#000000">/include/FT0Simulation/DigitizerTask.h</text>
</a>
</g>
</g>
<!-- Node12&#45;&gt;Node16 -->
<g id="edge13" class="edge">
<title>Node12&#45;&gt;Node16</title>
<path fill="none" stroke="#191970" d="M1107.5367,-179.0324C1129.4129,-166.9429 1154.2211,-153.2331 1175.1782,-141.6515"/>
<polygon fill="#191970" stroke="#191970" points="1105.7387,-176.027 1098.6792,-183.9273 1109.1245,-182.1537 1105.7387,-176.027"/>
</g>
<!-- Node12&#45;&gt;Node18 -->
<g id="edge15" class="edge">
<title>Node12&#45;&gt;Node18</title>
<path fill="none" stroke="#191970" d="M1152.2267,-187.1519C1206.1777,-174.5516 1273.6672,-158.2092 1333.5,-142 1336.2721,-141.249 1339.0894,-140.4726 1341.9318,-139.6781"/>
<polygon fill="#191970" stroke="#191970" points="1151.2608,-183.7831 1142.3154,-189.4602 1152.8486,-190.6006 1151.2608,-183.7831"/>
</g>
<!-- Node19 -->
<g id="node17" class="node">
<title>Node19</title>
<g id="a_node17"><a xlink:href="../../db/d50/O2HitMerger_8h.html" target="_top" xlink:title="/home/travis/build\l/AliceO2Group/AliceO2\l/run/O2HitMerger.h">
<polygon fill="none" stroke="#000000" points="958,-95 958,-136 1085,-136 1085,-95 958,-95"/>
<text text-anchor="start" x="966" y="-124" font-family="Helvetica,sans-Serif" font-size="10.00" fill="#000000">/home/travis/build</text>
<text text-anchor="start" x="966" y="-113" font-family="Helvetica,sans-Serif" font-size="10.00" fill="#000000">/AliceO2Group/AliceO2</text>
<text text-anchor="middle" x="1021.5" y="-102" font-family="Helvetica,sans-Serif" font-size="10.00" fill="#000000">/run/O2HitMerger.h</text>
</a>
</g>
</g>
<!-- Node12&#45;&gt;Node19 -->
<g id="edge16" class="edge">
<title>Node12&#45;&gt;Node19</title>
<path fill="none" stroke="#191970" d="M1040.1855,-174.3594C1036.0848,-161.442 1031.5923,-147.2907 1028.0402,-136.1016"/>
<polygon fill="#191970" stroke="#191970" points="1036.8612,-175.4551 1043.223,-183.9273 1043.533,-173.337 1036.8612,-175.4551"/>
</g>
<!-- Node14 -->
<g id="node12" class="node">
<title>Node14</title>
<g id="a_node12"><a xlink:href="../../de/dd9/FIT_2FT0_2simulation_2src_2Digitizer_8cxx.html" target="_top" xlink:title="/home/travis/build\l/AliceO2Group/AliceO2\l/Detectors/FIT/FT0/simulation\l/src/Digitizer.cxx">
<polygon fill="none" stroke="#000000" points="782,-.5 782,-52.5 941,-52.5 941,-.5 782,-.5"/>
<text text-anchor="start" x="790" y="-40.5" font-family="Helvetica,sans-Serif" font-size="10.00" fill="#000000">/home/travis/build</text>
<text text-anchor="start" x="790" y="-29.5" font-family="Helvetica,sans-Serif" font-size="10.00" fill="#000000">/AliceO2Group/AliceO2</text>
<text text-anchor="start" x="790" y="-18.5" font-family="Helvetica,sans-Serif" font-size="10.00" fill="#000000">/Detectors/FIT/FT0/simulation</text>
<text text-anchor="middle" x="861.5" y="-7.5" font-family="Helvetica,sans-Serif" font-size="10.00" fill="#000000">/src/Digitizer.cxx</text>
</a>
</g>
</g>
<!-- Node13&#45;&gt;Node14 -->
<g id="edge11" class="edge">
<title>Node13&#45;&gt;Node14</title>
<path fill="none" stroke="#191970" d="M854.4058,-79.1155C855.607,-70.2061 856.8689,-60.8475 857.9898,-52.5341"/>
<polygon fill="#191970" stroke="#191970" points="850.9032,-78.9004 853.0355,-89.2784 857.8404,-79.8358 850.9032,-78.9004"/>
</g>
<!-- Node15 -->
<g id="node13" class="node">
<title>Node15</title>
<g id="a_node13"><a xlink:href="../../d4/dfd/FT0DigitizerSpec_8cxx.html" target="_top" xlink:title="/home/travis/build\l/AliceO2Group/AliceO2\l/Steer/DigitizerWorkflow\l/src/FT0DigitizerSpec.cxx">
<polygon fill="none" stroke="#000000" points="625,-.5 625,-52.5 764,-52.5 764,-.5 625,-.5"/>
<text text-anchor="start" x="633" y="-40.5" font-family="Helvetica,sans-Serif" font-size="10.00" fill="#000000">/home/travis/build</text>
<text text-anchor="start" x="633" y="-29.5" font-family="Helvetica,sans-Serif" font-size="10.00" fill="#000000">/AliceO2Group/AliceO2</text>
<text text-anchor="start" x="633" y="-18.5" font-family="Helvetica,sans-Serif" font-size="10.00" fill="#000000">/Steer/DigitizerWorkflow</text>
<text text-anchor="middle" x="694.5" y="-7.5" font-family="Helvetica,sans-Serif" font-size="10.00" fill="#000000">/src/FT0DigitizerSpec.cxx</text>
</a>
</g>
</g>
<!-- Node13&#45;&gt;Node15 -->
<g id="edge12" class="edge">
<title>Node13&#45;&gt;Node15</title>
<path fill="none" stroke="#191970" d="M795.1318,-84.2821C777.0648,-73.9082 757.1514,-62.4741 739.8404,-52.5341"/>
<polygon fill="#191970" stroke="#191970" points="793.4183,-87.3342 803.8332,-89.2784 796.904,-81.2637 793.4183,-87.3342"/>
</g>
<!-- Node17 -->
<g id="node15" class="node">
<title>Node17</title>
<g id="a_node15"><a xlink:href="../../d8/d59/FIT_2FT0_2simulation_2src_2DigitizerTask_8cxx.html" target="_top" xlink:title="/home/travis/build\l/AliceO2Group/AliceO2\l/Detectors/FIT/FT0/simulation\l/src/DigitizerTask.cxx">
<polygon fill="none" stroke="#000000" points="1143,-.5 1143,-52.5 1302,-52.5 1302,-.5 1143,-.5"/>
<text text-anchor="start" x="1151" y="-40.5" font-family="Helvetica,sans-Serif" font-size="10.00" fill="#000000">/home/travis/build</text>
<text text-anchor="start" x="1151" y="-29.5" font-family="Helvetica,sans-Serif" font-size="10.00" fill="#000000">/AliceO2Group/AliceO2</text>
<text text-anchor="start" x="1151" y="-18.5" font-family="Helvetica,sans-Serif" font-size="10.00" fill="#000000">/Detectors/FIT/FT0/simulation</text>
<text text-anchor="middle" x="1222.5" y="-7.5" font-family="Helvetica,sans-Serif" font-size="10.00" fill="#000000">/src/DigitizerTask.cxx</text>
</a>
</g>
</g>
<!-- Node16&#45;&gt;Node17 -->
<g id="edge14" class="edge">
<title>Node16&#45;&gt;Node17</title>
<path fill="none" stroke="#191970" d="M1222.5,-79.1155C1222.5,-70.2061 1222.5,-60.8475 1222.5,-52.5341"/>
<polygon fill="#191970" stroke="#191970" points="1219.0001,-79.2784 1222.5,-89.2784 1226.0001,-79.2785 1219.0001,-79.2784"/>
</g>
<!-- Node19&#45;&gt;Node19 -->
<g id="edge17" class="edge">
<title>Node19&#45;&gt;Node19</title>
<path fill="none" stroke="#191970" d="M1094.6757,-127.5715C1099.8451,-124.8251 1103,-120.8013 1103,-115.5 1103,-107.4219 1095.6744,-102.3099 1085.058,-100.1642"/>
<polygon fill="#191970" stroke="#191970" points="1093.4026,-124.3075 1085.058,-130.8358 1095.6524,-130.9361 1093.4026,-124.3075"/>
</g>
<!-- Node20 -->
<g id="node18" class="node">
<title>Node20</title>
<g id="a_node18"><a xlink:href="../../d9/d16/O2HitMergerRunner_8cxx.html" target="_top" xlink:title="/home/travis/build\l/AliceO2Group/AliceO2\l/run/O2HitMergerRunner.cxx">
<polygon fill="none" stroke="#000000" points="959,-6 959,-47 1112,-47 1112,-6 959,-6"/>
<text text-anchor="start" x="967" y="-35" font-family="Helvetica,sans-Serif" font-size="10.00" fill="#000000">/home/travis/build</text>
<text text-anchor="start" x="967" y="-24" font-family="Helvetica,sans-Serif" font-size="10.00" fill="#000000">/AliceO2Group/AliceO2</text>
<text text-anchor="middle" x="1035.5" y="-13" font-family="Helvetica,sans-Serif" font-size="10.00" fill="#000000">/run/O2HitMergerRunner.cxx</text>
</a>
</g>
</g>
<!-- Node19&#45;&gt;Node20 -->
<g id="edge18" class="edge">
<title>Node19&#45;&gt;Node20</title>
<path fill="none" stroke="#191970" d="M1026.3223,-84.844C1028.2873,-72.3522 1030.5066,-58.2439 1032.2705,-47.0301"/>
<polygon fill="#191970" stroke="#191970" points="1022.8436,-84.4355 1024.7471,-94.8579 1029.7586,-85.5233 1022.8436,-84.4355"/>
</g>
<!-- Node21&#45;&gt;Node13 -->
<g id="edge20" class="edge">
<title>Node21&#45;&gt;Node13</title>
<path fill="none" stroke="#191970" d="M849.5,-168.2457C849.5,-159.2008 849.5,-149.8836 849.5,-141.6442"/>
<polygon fill="#191970" stroke="#191970" points="846.0001,-168.2699 849.5,-178.27 853.0001,-168.27 846.0001,-168.2699"/>
</g>
<!-- Node21&#45;&gt;Node15 -->
<g id="edge21" class="edge">
<title>Node21&#45;&gt;Node15</title>
<path fill="none" stroke="#191970" d="M784.2916,-172.4122C772.097,-163.4816 760.165,-153.2401 750.5,-142 727.5438,-115.3027 711.5926,-77.5636 702.7441,-52.5819"/>
<polygon fill="#191970" stroke="#191970" points="782.5626,-175.4759 792.7512,-178.3817 786.5985,-169.7564 782.5626,-175.4759"/>
</g>
</g>
</svg>
