<?xml version="1.0" encoding="UTF-8" standalone="no"?>
<!DOCTYPE svg PUBLIC "-//W3C//DTD SVG 1.1//EN"
 "http://www.w3.org/Graphics/SVG/1.1/DTD/svg11.dtd">
<!-- Generated by graphviz version 2.40.1 (20161225.0304)
 -->
<!-- Title: o2::framework::DataSamplingHeader Pages: 1 -->
<svg width="1454pt" height="1058pt"
 viewBox="0.00 0.00 1454.48 1058.00" xmlns="http://www.w3.org/2000/svg" xmlns:xlink="http://www.w3.org/1999/xlink">
<g id="graph0" class="graph" transform="scale(1 1) rotate(0) translate(4 1054)">
<title>o2::framework::DataSamplingHeader</title>
<!-- Node2 -->
<g id="node1" class="node">
<title>Node2</title>
<polygon fill="#bfbfbf" stroke="#000000" points="829.9804,-.5 829.9804,-112.5 992.9804,-112.5 992.9804,-.5 829.9804,-.5"/>
<text text-anchor="start" x="837.9804" y="-100.5" font-family="Helvetica,sans-Serif" font-size="10.00" fill="#000000">o2::framework::DataSampling</text>
<text text-anchor="middle" x="911.4804" y="-89.5" font-family="Helvetica,sans-Serif" font-size="10.00" fill="#000000">Header</text>
<polyline fill="none" stroke="#000000" points="829.9804,-82.5 992.9804,-82.5 "/>
<text text-anchor="middle" x="911.4804" y="-70.5" font-family="Helvetica,sans-Serif" font-size="10.00" fill="#000000"> </text>
<polyline fill="none" stroke="#000000" points="829.9804,-63.5 992.9804,-63.5 "/>
<text text-anchor="start" x="837.9804" y="-51.5" font-family="Helvetica,sans-Serif" font-size="10.00" fill="#000000">+ DataSamplingHeader()</text>
<text text-anchor="start" x="837.9804" y="-40.5" font-family="Helvetica,sans-Serif" font-size="10.00" fill="#000000">+ DataSamplingHeader()</text>
<text text-anchor="start" x="837.9804" y="-29.5" font-family="Helvetica,sans-Serif" font-size="10.00" fill="#000000">+ DataSamplingHeader()</text>
<text text-anchor="start" x="837.9804" y="-18.5" font-family="Helvetica,sans-Serif" font-size="10.00" fill="#000000">+ operator=()</text>
<text text-anchor="start" x="837.9804" y="-7.5" font-family="Helvetica,sans-Serif" font-size="10.00" fill="#000000">+ Get()</text>
</g>
<!-- Node3 -->
<g id="node2" class="node">
<title>Node3</title>
<g id="a_node2"><a xlink:href="../../d8/dbd/structo2_1_1header_1_1BaseHeader.html" target="_top" xlink:title="the base header struct Every header type must begin (i.e. derive) with this. Don&#39;t use this struct di...">
<polygon fill="none" stroke="#000000" points="824.9804,-160.5 824.9804,-327.5 997.9804,-327.5 997.9804,-160.5 824.9804,-160.5"/>
<text text-anchor="middle" x="911.4804" y="-315.5" font-family="Helvetica,sans-Serif" font-size="10.00" fill="#000000">o2::header::BaseHeader</text>
<polyline fill="none" stroke="#000000" points="824.9804,-308.5 997.9804,-308.5 "/>
<text text-anchor="middle" x="911.4804" y="-296.5" font-family="Helvetica,sans-Serif" font-size="10.00" fill="#000000"> </text>
<polyline fill="none" stroke="#000000" points="824.9804,-289.5 997.9804,-289.5 "/>
<text text-anchor="start" x="832.9804" y="-277.5" font-family="Helvetica,sans-Serif" font-size="10.00" fill="#000000">+ BaseHeader()</text>
<text text-anchor="start" x="832.9804" y="-266.5" font-family="Helvetica,sans-Serif" font-size="10.00" fill="#000000">+ BaseHeader()</text>
<text text-anchor="start" x="832.9804" y="-255.5" font-family="Helvetica,sans-Serif" font-size="10.00" fill="#000000">+ BaseHeader()</text>
<text text-anchor="start" x="832.9804" y="-244.5" font-family="Helvetica,sans-Serif" font-size="10.00" fill="#000000">+ size()</text>
<text text-anchor="start" x="832.9804" y="-233.5" font-family="Helvetica,sans-Serif" font-size="10.00" fill="#000000">+ data()</text>
<text text-anchor="start" x="832.9804" y="-222.5" font-family="Helvetica,sans-Serif" font-size="10.00" fill="#000000">+ next()</text>
<text text-anchor="start" x="832.9804" y="-211.5" font-family="Helvetica,sans-Serif" font-size="10.00" fill="#000000">+ next()</text>
<text text-anchor="start" x="832.9804" y="-200.5" font-family="Helvetica,sans-Serif" font-size="10.00" fill="#000000">+ sanityCheck()</text>
<text text-anchor="start" x="832.9804" y="-189.5" font-family="Helvetica,sans-Serif" font-size="10.00" fill="#000000">+ throwInconsistentStackError()</text>
<text text-anchor="start" x="832.9804" y="-178.5" font-family="Helvetica,sans-Serif" font-size="10.00" fill="#000000">+ get()</text>
<text text-anchor="start" x="832.9804" y="-167.5" font-family="Helvetica,sans-Serif" font-size="10.00" fill="#000000">+ get()</text>
</a>
</g>
</g>
<!-- Node3&#45;&gt;Node2 -->
<g id="edge1" class="edge">
<title>Node3&#45;&gt;Node2</title>
<path fill="none" stroke="#191970" d="M911.4804,-150.1C911.4804,-137.2415 911.4804,-124.3866 911.4804,-112.5032"/>
<polygon fill="none" stroke="#191970" points="907.9805,-150.3946 911.4804,-160.3947 914.9805,-150.3947 907.9805,-150.3946"/>
</g>
<!-- Node4 -->
<g id="node3" class="node">
<title>Node4</title>
<g id="a_node3"><a xlink:href="../../d9/db3/structo2_1_1header_1_1Descriptor.html" target="_top" xlink:title="{o2::header::Descriptor\l\&lt; gSizeHeaderDescriptionString \&gt;\n||+ Descriptor()\l+ Descriptor()\l+ Descriptor()\l+ Descriptor()\l+ operator=()\l+ operator ItgType()\l+ runtimeInit()\l+ operator==()\l+ operator==()\l+ operator\&lt;()\l+ operator!=()\l+ operator!=()\l+ as()\l+ print()\l}">
<polygon fill="none" stroke="#000000" points="698.9804,-441.5 698.9804,-652.5 883.9804,-652.5 883.9804,-441.5 698.9804,-441.5"/>
<text text-anchor="start" x="706.9804" y="-640.5" font-family="Helvetica,sans-Serif" font-size="10.00" fill="#000000">o2::header::Descriptor</text>
<text text-anchor="middle" x="791.4804" y="-629.5" font-family="Helvetica,sans-Serif" font-size="10.00" fill="#000000">&lt; gSizeHeaderDescriptionString &gt;</text>
<polyline fill="none" stroke="#000000" points="698.9804,-622.5 883.9804,-622.5 "/>
<text text-anchor="middle" x="791.4804" y="-610.5" font-family="Helvetica,sans-Serif" font-size="10.00" fill="#000000"> </text>
<polyline fill="none" stroke="#000000" points="698.9804,-603.5 883.9804,-603.5 "/>
<text text-anchor="start" x="706.9804" y="-591.5" font-family="Helvetica,sans-Serif" font-size="10.00" fill="#000000">+ Descriptor()</text>
<text text-anchor="start" x="706.9804" y="-580.5" font-family="Helvetica,sans-Serif" font-size="10.00" fill="#000000">+ Descriptor()</text>
<text text-anchor="start" x="706.9804" y="-569.5" font-family="Helvetica,sans-Serif" font-size="10.00" fill="#000000">+ Descriptor()</text>
<text text-anchor="start" x="706.9804" y="-558.5" font-family="Helvetica,sans-Serif" font-size="10.00" fill="#000000">+ Descriptor()</text>
<text text-anchor="start" x="706.9804" y="-547.5" font-family="Helvetica,sans-Serif" font-size="10.00" fill="#000000">+ operator=()</text>
<text text-anchor="start" x="706.9804" y="-536.5" font-family="Helvetica,sans-Serif" font-size="10.00" fill="#000000">+ operator ItgType()</text>
<text text-anchor="start" x="706.9804" y="-525.5" font-family="Helvetica,sans-Serif" font-size="10.00" fill="#000000">+ runtimeInit()</text>
<text text-anchor="start" x="706.9804" y="-514.5" font-family="Helvetica,sans-Serif" font-size="10.00" fill="#000000">+ operator==()</text>
<text text-anchor="start" x="706.9804" y="-503.5" font-family="Helvetica,sans-Serif" font-size="10.00" fill="#000000">+ operator==()</text>
<text text-anchor="start" x="706.9804" y="-492.5" font-family="Helvetica,sans-Serif" font-size="10.00" fill="#000000">+ operator&lt;()</text>
<text text-anchor="start" x="706.9804" y="-481.5" font-family="Helvetica,sans-Serif" font-size="10.00" fill="#000000">+ operator!=()</text>
<text text-anchor="start" x="706.9804" y="-470.5" font-family="Helvetica,sans-Serif" font-size="10.00" fill="#000000">+ operator!=()</text>
<text text-anchor="start" x="706.9804" y="-459.5" font-family="Helvetica,sans-Serif" font-size="10.00" fill="#000000">+ as()</text>
<text text-anchor="start" x="706.9804" y="-448.5" font-family="Helvetica,sans-Serif" font-size="10.00" fill="#000000">+ print()</text>
</a>
</g>
</g>
<!-- Node4&#45;&gt;Node3 -->
<g id="edge2" class="edge">
<title>Node4&#45;&gt;Node3</title>
<path fill="none" stroke="#404040" d="M802.9636,-441.3212C808.8995,-409.6949 817.886,-375.5816 831.4804,-346 832.6257,-343.5077 833.8433,-341.0216 835.1237,-338.5467"/>
<polygon fill="none" stroke="#404040" points="835.2777,-338.2696 834.6984,-331.0818 841.1104,-327.7825 841.6898,-334.9703 835.2777,-338.2696"/>
<text text-anchor="middle" x="864.4804" y="-382" font-family="Helvetica,sans-Serif" font-size="10.00" fill="#000000"> +description</text>
</g>
<!-- Node5 -->
<g id="node4" class="node">
<title>Node5</title>
<polygon fill="none" stroke="#bfbfbf" points="376.9804,-992.5 376.9804,-1049.5 415.9804,-1049.5 415.9804,-992.5 376.9804,-992.5"/>
<text text-anchor="middle" x="396.4804" y="-1037.5" font-family="Helvetica,sans-Serif" font-size="10.00" fill="#000000">Type</text>
<polyline fill="none" stroke="#bfbfbf" points="376.9804,-1030.5 415.9804,-1030.5 "/>
<text text-anchor="middle" x="396.4804" y="-1018.5" font-family="Helvetica,sans-Serif" font-size="10.00" fill="#000000"> </text>
<polyline fill="none" stroke="#bfbfbf" points="376.9804,-1011.5 415.9804,-1011.5 "/>
<text text-anchor="middle" x="396.4804" y="-999.5" font-family="Helvetica,sans-Serif" font-size="10.00" fill="#000000"> </text>
</g>
<!-- Node5&#45;&gt;Node4 -->
<g id="edge3" class="edge">
<title>Node5&#45;&gt;Node4</title>
<path fill="none" stroke="#404040" d="M416.0197,-1019.5912C461.3786,-1015.094 572.6727,-996.6647 608.4804,-923 650.1389,-837.299 574.1816,-779.4439 640.4804,-711 671.2916,-679.1919 704.6703,-721.6001 738.4804,-693 748.1534,-684.8175 756.0611,-674.7207 762.5255,-663.6877"/>
<polygon fill="none" stroke="#404040" points="762.6532,-663.4477 761.9415,-656.2718 768.2917,-652.8549 769.0034,-660.0308 762.6532,-663.4477"/>
<text text-anchor="middle" x="652.9804" y="-814.5" font-family="Helvetica,sans-Serif" font-size="10.00" fill="#000000"> +itg</text>
</g>
<!-- Node9 -->
<g id="node8" class="node">
<title>Node9</title>
<g id="a_node8"><a xlink:href="../../d9/db3/structo2_1_1header_1_1Descriptor.html" target="_top" xlink:title="{o2::header::Descriptor\l\&lt; N, PrinterPolicy \&gt;\n||+ Descriptor()\l+ Descriptor()\l+ Descriptor()\l+ operator=()\l+ operator ItgType()\l+ Descriptor()\l+ runtimeInit()\l+ operator==()\l+ operator\&lt;()\l+ operator!=()\l+ operator==()\l+ operator!=()\l+ as()\l+ print()\l}">
<polygon fill="none" stroke="#000000" points="313.9804,-711.5 313.9804,-922.5 438.9804,-922.5 438.9804,-711.5 313.9804,-711.5"/>
<text text-anchor="start" x="321.9804" y="-910.5" font-family="Helvetica,sans-Serif" font-size="10.00" fill="#000000">o2::header::Descriptor</text>
<text text-anchor="middle" x="376.4804" y="-899.5" font-family="Helvetica,sans-Serif" font-size="10.00" fill="#000000">&lt; N, PrinterPolicy &gt;</text>
<polyline fill="none" stroke="#000000" points="313.9804,-892.5 438.9804,-892.5 "/>
<text text-anchor="middle" x="376.4804" y="-880.5" font-family="Helvetica,sans-Serif" font-size="10.00" fill="#000000"> </text>
<polyline fill="none" stroke="#000000" points="313.9804,-873.5 438.9804,-873.5 "/>
<text text-anchor="start" x="321.9804" y="-861.5" font-family="Helvetica,sans-Serif" font-size="10.00" fill="#000000">+ Descriptor()</text>
<text text-anchor="start" x="321.9804" y="-850.5" font-family="Helvetica,sans-Serif" font-size="10.00" fill="#000000">+ Descriptor()</text>
<text text-anchor="start" x="321.9804" y="-839.5" font-family="Helvetica,sans-Serif" font-size="10.00" fill="#000000">+ Descriptor()</text>
<text text-anchor="start" x="321.9804" y="-828.5" font-family="Helvetica,sans-Serif" font-size="10.00" fill="#000000">+ operator=()</text>
<text text-anchor="start" x="321.9804" y="-817.5" font-family="Helvetica,sans-Serif" font-size="10.00" fill="#000000">+ operator ItgType()</text>
<text text-anchor="start" x="321.9804" y="-806.5" font-family="Helvetica,sans-Serif" font-size="10.00" fill="#000000">+ Descriptor()</text>
<text text-anchor="start" x="321.9804" y="-795.5" font-family="Helvetica,sans-Serif" font-size="10.00" fill="#000000">+ runtimeInit()</text>
<text text-anchor="start" x="321.9804" y="-784.5" font-family="Helvetica,sans-Serif" font-size="10.00" fill="#000000">+ operator==()</text>
<text text-anchor="start" x="321.9804" y="-773.5" font-family="Helvetica,sans-Serif" font-size="10.00" fill="#000000">+ operator&lt;()</text>
<text text-anchor="start" x="321.9804" y="-762.5" font-family="Helvetica,sans-Serif" font-size="10.00" fill="#000000">+ operator!=()</text>
<text text-anchor="start" x="321.9804" y="-751.5" font-family="Helvetica,sans-Serif" font-size="10.00" fill="#000000">+ operator==()</text>
<text text-anchor="start" x="321.9804" y="-740.5" font-family="Helvetica,sans-Serif" font-size="10.00" fill="#000000">+ operator!=()</text>
<text text-anchor="start" x="321.9804" y="-729.5" font-family="Helvetica,sans-Serif" font-size="10.00" fill="#000000">+ as()</text>
<text text-anchor="start" x="321.9804" y="-718.5" font-family="Helvetica,sans-Serif" font-size="10.00" fill="#000000">+ print()</text>
</a>
</g>
</g>
<!-- Node5&#45;&gt;Node9 -->
<g id="edge8" class="edge">
<title>Node5&#45;&gt;Node9</title>
<path fill="none" stroke="#404040" d="M382.9537,-992.4444C380.6943,-986.4752 378.6929,-980.1301 377.4804,-974 374.9901,-961.4095 373.3821,-948.1392 372.416,-934.8651"/>
<polygon fill="none" stroke="#404040" points="372.4048,-934.6723 368.0604,-928.9168 371.7023,-922.6929 376.0467,-928.4485 372.4048,-934.6723"/>
<text text-anchor="middle" x="389.9804" y="-955" font-family="Helvetica,sans-Serif" font-size="10.00" fill="#000000"> +itg</text>
</g>
<!-- Node11 -->
<g id="node10" class="node">
<title>Node11</title>
<g id="a_node10"><a xlink:href="../../d9/db3/structo2_1_1header_1_1Descriptor.html" target="_top" xlink:title="{o2::header::Descriptor\l\&lt; gSizeSerializationMethodString \&gt;\n||+ Descriptor()\l+ Descriptor()\l+ Descriptor()\l+ Descriptor()\l+ operator=()\l+ operator ItgType()\l+ runtimeInit()\l+ operator==()\l+ operator==()\l+ operator\&lt;()\l+ operator!=()\l+ operator!=()\l+ as()\l+ print()\l}">
<polygon fill="none" stroke="#000000" points="489.9804,-441.5 489.9804,-652.5 680.9804,-652.5 680.9804,-441.5 489.9804,-441.5"/>
<text text-anchor="start" x="497.9804" y="-640.5" font-family="Helvetica,sans-Serif" font-size="10.00" fill="#000000">o2::header::Descriptor</text>
<text text-anchor="middle" x="585.4804" y="-629.5" font-family="Helvetica,sans-Serif" font-size="10.00" fill="#000000">&lt; gSizeSerializationMethodString &gt;</text>
<polyline fill="none" stroke="#000000" points="489.9804,-622.5 680.9804,-622.5 "/>
<text text-anchor="middle" x="585.4804" y="-610.5" font-family="Helvetica,sans-Serif" font-size="10.00" fill="#000000"> </text>
<polyline fill="none" stroke="#000000" points="489.9804,-603.5 680.9804,-603.5 "/>
<text text-anchor="start" x="497.9804" y="-591.5" font-family="Helvetica,sans-Serif" font-size="10.00" fill="#000000">+ Descriptor()</text>
<text text-anchor="start" x="497.9804" y="-580.5" font-family="Helvetica,sans-Serif" font-size="10.00" fill="#000000">+ Descriptor()</text>
<text text-anchor="start" x="497.9804" y="-569.5" font-family="Helvetica,sans-Serif" font-size="10.00" fill="#000000">+ Descriptor()</text>
<text text-anchor="start" x="497.9804" y="-558.5" font-family="Helvetica,sans-Serif" font-size="10.00" fill="#000000">+ Descriptor()</text>
<text text-anchor="start" x="497.9804" y="-547.5" font-family="Helvetica,sans-Serif" font-size="10.00" fill="#000000">+ operator=()</text>
<text text-anchor="start" x="497.9804" y="-536.5" font-family="Helvetica,sans-Serif" font-size="10.00" fill="#000000">+ operator ItgType()</text>
<text text-anchor="start" x="497.9804" y="-525.5" font-family="Helvetica,sans-Serif" font-size="10.00" fill="#000000">+ runtimeInit()</text>
<text text-anchor="start" x="497.9804" y="-514.5" font-family="Helvetica,sans-Serif" font-size="10.00" fill="#000000">+ operator==()</text>
<text text-anchor="start" x="497.9804" y="-503.5" font-family="Helvetica,sans-Serif" font-size="10.00" fill="#000000">+ operator==()</text>
<text text-anchor="start" x="497.9804" y="-492.5" font-family="Helvetica,sans-Serif" font-size="10.00" fill="#000000">+ operator&lt;()</text>
<text text-anchor="start" x="497.9804" y="-481.5" font-family="Helvetica,sans-Serif" font-size="10.00" fill="#000000">+ operator!=()</text>
<text text-anchor="start" x="497.9804" y="-470.5" font-family="Helvetica,sans-Serif" font-size="10.00" fill="#000000">+ operator!=()</text>
<text text-anchor="start" x="497.9804" y="-459.5" font-family="Helvetica,sans-Serif" font-size="10.00" fill="#000000">+ as()</text>
<text text-anchor="start" x="497.9804" y="-448.5" font-family="Helvetica,sans-Serif" font-size="10.00" fill="#000000">+ print()</text>
</a>
</g>
</g>
<!-- Node5&#45;&gt;Node11 -->
<g id="edge15" class="edge">
<title>Node5&#45;&gt;Node11</title>
<path fill="none" stroke="#404040" d="M405.8252,-992.3724C411.671,-976.5405 420.0701,-956.912 430.4804,-941 436.5048,-931.7917 442.2175,-932.6638 447.4804,-923 493.8799,-837.8 465.1454,-801.7362 499.4804,-711 500.1085,-709.34 510.5417,-689.301 523.9389,-663.7636"/>
<polygon fill="none" stroke="#404040" points="524.0491,-663.5534 523.2966,-656.3816 529.6273,-652.9286 530.3798,-660.1004 524.0491,-663.5534"/>
<text text-anchor="middle" x="511.9804" y="-814.5" font-family="Helvetica,sans-Serif" font-size="10.00" fill="#000000"> +itg</text>
</g>
<!-- Node15 -->
<g id="node14" class="node">
<title>Node15</title>
<g id="a_node14"><a xlink:href="../../d9/db3/structo2_1_1header_1_1Descriptor.html" target="_top" xlink:title="{o2::header::Descriptor\l\&lt; deviceIDTypeSize \&gt;\n||+ Descriptor()\l+ Descriptor()\l+ Descriptor()\l+ Descriptor()\l+ operator=()\l+ operator ItgType()\l+ runtimeInit()\l+ operator==()\l+ operator==()\l+ operator\&lt;()\l+ operator!=()\l+ operator!=()\l+ as()\l+ print()\l}">
<polygon fill="none" stroke="#000000" points="117.9804,-441.5 117.9804,-652.5 242.9804,-652.5 242.9804,-441.5 117.9804,-441.5"/>
<text text-anchor="start" x="125.9804" y="-640.5" font-family="Helvetica,sans-Serif" font-size="10.00" fill="#000000">o2::header::Descriptor</text>
<text text-anchor="middle" x="180.4804" y="-629.5" font-family="Helvetica,sans-Serif" font-size="10.00" fill="#000000">&lt; deviceIDTypeSize &gt;</text>
<polyline fill="none" stroke="#000000" points="117.9804,-622.5 242.9804,-622.5 "/>
<text text-anchor="middle" x="180.4804" y="-610.5" font-family="Helvetica,sans-Serif" font-size="10.00" fill="#000000"> </text>
<polyline fill="none" stroke="#000000" points="117.9804,-603.5 242.9804,-603.5 "/>
<text text-anchor="start" x="125.9804" y="-591.5" font-family="Helvetica,sans-Serif" font-size="10.00" fill="#000000">+ Descriptor()</text>
<text text-anchor="start" x="125.9804" y="-580.5" font-family="Helvetica,sans-Serif" font-size="10.00" fill="#000000">+ Descriptor()</text>
<text text-anchor="start" x="125.9804" y="-569.5" font-family="Helvetica,sans-Serif" font-size="10.00" fill="#000000">+ Descriptor()</text>
<text text-anchor="start" x="125.9804" y="-558.5" font-family="Helvetica,sans-Serif" font-size="10.00" fill="#000000">+ Descriptor()</text>
<text text-anchor="start" x="125.9804" y="-547.5" font-family="Helvetica,sans-Serif" font-size="10.00" fill="#000000">+ operator=()</text>
<text text-anchor="start" x="125.9804" y="-536.5" font-family="Helvetica,sans-Serif" font-size="10.00" fill="#000000">+ operator ItgType()</text>
<text text-anchor="start" x="125.9804" y="-525.5" font-family="Helvetica,sans-Serif" font-size="10.00" fill="#000000">+ runtimeInit()</text>
<text text-anchor="start" x="125.9804" y="-514.5" font-family="Helvetica,sans-Serif" font-size="10.00" fill="#000000">+ operator==()</text>
<text text-anchor="start" x="125.9804" y="-503.5" font-family="Helvetica,sans-Serif" font-size="10.00" fill="#000000">+ operator==()</text>
<text text-anchor="start" x="125.9804" y="-492.5" font-family="Helvetica,sans-Serif" font-size="10.00" fill="#000000">+ operator&lt;()</text>
<text text-anchor="start" x="125.9804" y="-481.5" font-family="Helvetica,sans-Serif" font-size="10.00" fill="#000000">+ operator!=()</text>
<text text-anchor="start" x="125.9804" y="-470.5" font-family="Helvetica,sans-Serif" font-size="10.00" fill="#000000">+ operator!=()</text>
<text text-anchor="start" x="125.9804" y="-459.5" font-family="Helvetica,sans-Serif" font-size="10.00" fill="#000000">+ as()</text>
<text text-anchor="start" x="125.9804" y="-448.5" font-family="Helvetica,sans-Serif" font-size="10.00" fill="#000000">+ print()</text>
</a>
</g>
</g>
<!-- Node5&#45;&gt;Node15 -->
<g id="edge24" class="edge">
<title>Node5&#45;&gt;Node15</title>
<path fill="none" stroke="#404040" d="M376.9245,-1019.0839C346.4619,-1015.2329 287.0733,-1004.1628 247.4804,-974 226.0045,-957.6392 224.8442,-947.9295 214.4804,-923 177.4694,-833.972 223.4414,-790.2155 168.4804,-711 160.0471,-698.845 147.5695,-705.9849 140.4804,-693 135.795,-684.4179 138.961,-680.659 140.4804,-671 140.8214,-668.8318 141.1941,-666.6498 141.5955,-664.4582"/>
<polygon fill="none" stroke="#404040" points="141.6016,-664.4278 138.8813,-657.7495 143.9996,-652.6698 146.7199,-659.3481 141.6016,-664.4278"/>
<text text-anchor="middle" x="226.9804" y="-814.5" font-family="Helvetica,sans-Serif" font-size="10.00" fill="#000000"> +itg</text>
</g>
<!-- Node6 -->
<g id="node5" class="node">
<title>Node6</title>
<polygon fill="none" stroke="#bfbfbf" points="813.4804,-992.5 813.4804,-1049.5 851.4804,-1049.5 851.4804,-992.5 813.4804,-992.5"/>
<text text-anchor="middle" x="832.4804" y="-1037.5" font-family="Helvetica,sans-Serif" font-size="10.00" fill="#000000">char</text>
<polyline fill="none" stroke="#bfbfbf" points="813.4804,-1030.5 851.4804,-1030.5 "/>
<text text-anchor="middle" x="832.4804" y="-1018.5" font-family="Helvetica,sans-Serif" font-size="10.00" fill="#000000"> </text>
<polyline fill="none" stroke="#bfbfbf" points="813.4804,-1011.5 851.4804,-1011.5 "/>
<text text-anchor="middle" x="832.4804" y="-999.5" font-family="Helvetica,sans-Serif" font-size="10.00" fill="#000000"> </text>
</g>
<!-- Node6&#45;&gt;Node3 -->
<g id="edge13" class="edge">
<title>Node6&#45;&gt;Node3</title>
<path fill="none" stroke="#404040" d="M851.7167,-1015.8452C886.5959,-1005.2867 959.0208,-977.4714 984.4804,-923 1024.3765,-837.6412 1018.9782,-798.6797 984.4804,-711 971.585,-678.225 944.133,-685.4669 930.4804,-653 907.6102,-598.6129 906.411,-442.7832 908.3944,-339.9395"/>
<polygon fill="none" stroke="#404040" points="908.3999,-339.668 904.5262,-333.5857 908.6508,-327.6706 912.5245,-333.7529 908.3999,-339.668"/>
<text text-anchor="middle" x="1008.4804" y="-679.5" font-family="Helvetica,sans-Serif" font-size="10.00" fill="#000000"> +magicString</text>
</g>
<!-- Node6&#45;&gt;Node4 -->
<g id="edge4" class="edge">
<title>Node6&#45;&gt;Node4</title>
<path fill="none" stroke="#404040" d="M851.8722,-1008.9521C875.8233,-992.793 915.3713,-961.6134 931.4804,-923 967.7585,-836.0418 956.6315,-801.8034 931.4804,-711 927.4003,-696.2696 911.678,-674.2495 892.156,-651.0892"/>
<polygon fill="none" stroke="#404040" points="892.0155,-650.9255 885.0723,-648.9783 884.1992,-641.8202 891.1425,-643.7674 892.0155,-650.9255"/>
<text text-anchor="middle" x="967.9804" y="-814.5" font-family="Helvetica,sans-Serif" font-size="10.00" fill="#000000"> +str</text>
</g>
<!-- Node6&#45;&gt;Node9 -->
<g id="edge9" class="edge">
<title>Node6&#45;&gt;Node9</title>
<path fill="none" stroke="#404040" d="M813.3144,-1017.6668C745.7155,-1005.6557 519.2253,-963.1744 458.4804,-923 454.9782,-920.6838 451.5622,-918.1673 448.2378,-915.4904"/>
<polygon fill="none" stroke="#404040" points="448.1691,-915.4306 441.0169,-914.5104 439.1155,-907.5545 446.2677,-908.4747 448.1691,-915.4306"/>
<text text-anchor="middle" x="613.9804" y="-955" font-family="Helvetica,sans-Serif" font-size="10.00" fill="#000000"> +str</text>
</g>
<!-- Node6&#45;&gt;Node11 -->
<g id="edge16" class="edge">
<title>Node6&#45;&gt;Node11</title>
<path fill="none" stroke="#404040" d="M831.1941,-992.4573C827.329,-912.9106 814.6325,-693.0967 791.4804,-671 760.781,-641.7001 734.6125,-669.3565 692.1744,-653.2808"/>
<polygon fill="none" stroke="#404040" points="691.9384,-653.1731 684.8191,-654.3205 681.0218,-648.1902 688.1411,-647.0428 691.9384,-653.1731"/>
<text text-anchor="middle" x="839.9804" y="-814.5" font-family="Helvetica,sans-Serif" font-size="10.00" fill="#000000"> +str</text>
</g>
<!-- Node6&#45;&gt;Node15 -->
<g id="edge25" class="edge">
<title>Node6&#45;&gt;Node15</title>
<path fill="none" stroke="#404040" d="M813.3092,-993.1048C801.1864,-974.1491 786.2095,-948.0569 777.4804,-923 739.6048,-814.2776 817.2755,-728.4111 717.4804,-671 647.6652,-630.836 432.4944,-676.5827 355.4804,-653 319.6297,-642.0221 283.5913,-622.0759 253.6151,-602.4236"/>
<polygon fill="none" stroke="#404040" points="253.2461,-602.1766 246.035,-602.1618 243.2751,-595.4998 250.4863,-595.5145 253.2461,-602.1766"/>
<text text-anchor="middle" x="789.9804" y="-814.5" font-family="Helvetica,sans-Serif" font-size="10.00" fill="#000000"> +str</text>
</g>
<!-- Node7 -->
<g id="node6" class="node">
<title>Node7</title>
<polygon fill="none" stroke="#bfbfbf" points="108.9804,-992.5 108.9804,-1049.5 137.9804,-1049.5 137.9804,-992.5 108.9804,-992.5"/>
<text text-anchor="middle" x="123.4804" y="-1037.5" font-family="Helvetica,sans-Serif" font-size="10.00" fill="#000000">int</text>
<polyline fill="none" stroke="#bfbfbf" points="108.9804,-1030.5 137.9804,-1030.5 "/>
<text text-anchor="middle" x="123.4804" y="-1018.5" font-family="Helvetica,sans-Serif" font-size="10.00" fill="#000000"> </text>
<polyline fill="none" stroke="#bfbfbf" points="108.9804,-1011.5 137.9804,-1011.5 "/>
<text text-anchor="middle" x="123.4804" y="-999.5" font-family="Helvetica,sans-Serif" font-size="10.00" fill="#000000"> </text>
</g>
<!-- Node7&#45;&gt;Node4 -->
<g id="edge5" class="edge">
<title>Node7&#45;&gt;Node4</title>
<path fill="none" stroke="#404040" d="M138.0509,-1019.2186C175.887,-1014.6035 280.3795,-1001.9268 367.4804,-992 404.1274,-987.8234 507.1327,-1000.7944 532.4804,-974 572.7016,-931.4831 506.2318,-753.4909 546.4804,-711 572.1492,-683.9012 682.5427,-713.8829 713.4804,-693 725.39,-684.961 735.6229,-674.4928 744.3797,-662.8509"/>
<polygon fill="none" stroke="#404040" points="744.5153,-662.657 744.6761,-655.4477 751.3927,-652.8233 751.2319,-660.0326 744.5153,-662.657"/>
<text text-anchor="middle" x="575.4804" y="-825.5" font-family="Helvetica,sans-Serif" font-size="10.00" fill="#000000"> +arraySize</text>
<text text-anchor="middle" x="575.4804" y="-814.5" font-family="Helvetica,sans-Serif" font-size="10.00" fill="#000000">+size</text>
<text text-anchor="middle" x="575.4804" y="-803.5" font-family="Helvetica,sans-Serif" font-size="10.00" fill="#000000">+bitcount</text>
</g>
<!-- Node7&#45;&gt;Node9 -->
<g id="edge10" class="edge">
<title>Node7&#45;&gt;Node9</title>
<path fill="none" stroke="#404040" d="M138.0254,-1015.4547C169.9389,-1002.777 247.4019,-969.1681 299.4804,-923 301.4856,-921.2224 303.4693,-919.3838 305.4293,-917.4938"/>
<polygon fill="none" stroke="#404040" points="305.4553,-917.4673 306.8057,-910.3838 313.8638,-908.9058 312.5134,-915.9894 305.4553,-917.4673"/>
<text text-anchor="middle" x="303.4804" y="-966" font-family="Helvetica,sans-Serif" font-size="10.00" fill="#000000"> +arraySize</text>
<text text-anchor="middle" x="303.4804" y="-955" font-family="Helvetica,sans-Serif" font-size="10.00" fill="#000000">+size</text>
<text text-anchor="middle" x="303.4804" y="-944" font-family="Helvetica,sans-Serif" font-size="10.00" fill="#000000">+bitcount</text>
</g>
<!-- Node7&#45;&gt;Node11 -->
<g id="edge17" class="edge">
<title>Node7&#45;&gt;Node11</title>
<path fill="none" stroke="#404040" d="M117.766,-992.3213C104.9206,-924.6137 77.099,-757.0697 106.4804,-711 129.1473,-675.4585 151.6249,-681.3836 192.4804,-671 251.352,-656.0374 404.7246,-677.0622 478.3686,-652.7503"/>
<polygon fill="none" stroke="#404040" points="478.7168,-652.6146 482.8533,-646.7079 489.8966,-648.2544 485.7601,-654.1612 478.7168,-652.6146"/>
<text text-anchor="middle" x="135.4804" y="-825.5" font-family="Helvetica,sans-Serif" font-size="10.00" fill="#000000"> +arraySize</text>
<text text-anchor="middle" x="135.4804" y="-814.5" font-family="Helvetica,sans-Serif" font-size="10.00" fill="#000000">+size</text>
<text text-anchor="middle" x="135.4804" y="-803.5" font-family="Helvetica,sans-Serif" font-size="10.00" fill="#000000">+bitcount</text>
</g>
<!-- Node7&#45;&gt;Node15 -->
<g id="edge26" class="edge">
<title>Node7&#45;&gt;Node15</title>
<path fill="none" stroke="#404040" d="M108.7531,-1011.7718C86.0136,-996.5419 43.2322,-963.7376 26.4804,-923 -9.3536,-835.8578 -8.2042,-798.606 26.4804,-711 43.2958,-668.5279 76.8892,-630.6334 108.4207,-601.9986"/>
<polygon fill="none" stroke="#404040" points="108.6986,-601.7524 110.5365,-594.7794 117.68,-593.794 115.8421,-600.767 108.6986,-601.7524"/>
<text text-anchor="middle" x="55.4804" y="-825.5" font-family="Helvetica,sans-Serif" font-size="10.00" fill="#000000"> +arraySize</text>
<text text-anchor="middle" x="55.4804" y="-814.5" font-family="Helvetica,sans-Serif" font-size="10.00" fill="#000000">+size</text>
<text text-anchor="middle" x="55.4804" y="-803.5" font-family="Helvetica,sans-Serif" font-size="10.00" fill="#000000">+bitcount</text>
</g>
<!-- Node8 -->
<g id="node7" class="node">
<title>Node8</title>
<polygon fill="none" stroke="#bfbfbf" points="540.9804,-992.5 540.9804,-1049.5 647.9804,-1049.5 647.9804,-992.5 540.9804,-992.5"/>
<text text-anchor="middle" x="594.4804" y="-1037.5" font-family="Helvetica,sans-Serif" font-size="10.00" fill="#000000">anonymous:+@53</text>
<polyline fill="none" stroke="#bfbfbf" points="540.9804,-1030.5 647.9804,-1030.5 "/>
<text text-anchor="middle" x="594.4804" y="-1018.5" font-family="Helvetica,sans-Serif" font-size="10.00" fill="#000000"> </text>
<polyline fill="none" stroke="#bfbfbf" points="540.9804,-1011.5 647.9804,-1011.5 "/>
<text text-anchor="middle" x="594.4804" y="-999.5" font-family="Helvetica,sans-Serif" font-size="10.00" fill="#000000"> </text>
</g>
<!-- Node8&#45;&gt;Node4 -->
<g id="edge6" class="edge">
<title>Node8&#45;&gt;Node4</title>
<path fill="none" stroke="#404040" d="M648.2188,-1008.9264C718.7365,-991.8687 836.4992,-958.7798 861.4804,-923 914.2118,-847.4743 889.2379,-743.3901 855.2904,-663.877"/>
<polygon fill="none" stroke="#404040" points="855.2642,-663.8171 849.1923,-659.927 850.4478,-652.826 856.5197,-656.7161 855.2642,-663.8171"/>
<text text-anchor="middle" x="909.4804" y="-814.5" font-family="Helvetica,sans-Serif" font-size="10.00" fill="#000000"> +@53</text>
</g>
<!-- Node8&#45;&gt;Node9 -->
<g id="edge11" class="edge">
<title>Node8&#45;&gt;Node9</title>
<path fill="none" stroke="#404040" d="M540.7149,-1014.0561C511.1606,-1007.8352 475.5252,-996.0954 450.4804,-974 437.5371,-962.5809 426.6811,-948.4116 417.6264,-933.2945"/>
<polygon fill="none" stroke="#404040" points="417.5437,-933.148 411.11,-929.891 411.642,-922.6995 418.0757,-925.9565 417.5437,-933.148"/>
<text text-anchor="middle" x="467.4804" y="-955" font-family="Helvetica,sans-Serif" font-size="10.00" fill="#000000"> +@53</text>
</g>
<!-- Node8&#45;&gt;Node11 -->
<g id="edge18" class="edge">
<title>Node8&#45;&gt;Node11</title>
<path fill="none" stroke="#404040" d="M624.611,-992.3208C641.3485,-974.2407 660.5494,-949.3813 669.4804,-923 699.6934,-833.7532 730.3833,-782.8934 669.4804,-711 638.0264,-673.8698 592.9343,-730.1302 561.4804,-693 554.4394,-684.6884 550.3896,-675.1242 548.5333,-664.9505"/>
<polygon fill="none" stroke="#404040" points="548.5089,-664.7063 543.9313,-659.1345 547.3139,-652.7659 551.8915,-658.3378 548.5089,-664.7063"/>
<text text-anchor="middle" x="722.4804" y="-814.5" font-family="Helvetica,sans-Serif" font-size="10.00" fill="#000000"> +@53</text>
</g>
<!-- Node8&#45;&gt;Node15 -->
<g id="edge27" class="edge">
<title>Node8&#45;&gt;Node15</title>
<path fill="none" stroke="#404040" d="M540.8284,-1012.7751C457.2068,-998.7165 302.0716,-967.2371 270.4804,-923 215.1402,-845.5073 298.9949,-785.3349 239.4804,-711 225.5003,-693.5386 205.9019,-710.8944 192.4804,-693 186.0497,-684.4262 181.4109,-674.7189 178.1484,-664.4836"/>
<polygon fill="none" stroke="#404040" points="178.1086,-664.3334 172.7022,-659.5615 175.0276,-652.7356 180.434,-657.5075 178.1086,-664.3334"/>
<text text-anchor="middle" x="287.4804" y="-814.5" font-family="Helvetica,sans-Serif" font-size="10.00" fill="#000000"> +@53</text>
</g>
<!-- Node9&#45;&gt;Node2 -->
<g id="edge31" class="edge">
<title>Node9&#45;&gt;Node2</title>
<path fill="none" stroke="#404040" d="M345.8452,-711.4413C322.225,-605.7442 306.5327,-444.968 393.4804,-346 510.3301,-212.9961 703.7224,-128.1041 818.2393,-86.6649"/>
<polygon fill="none" stroke="#404040" points="818.453,-86.5885 822.7563,-80.8022 829.7526,-82.5489 825.4493,-88.3353 818.453,-86.5885"/>
<text text-anchor="middle" x="448.9804" y="-387.5" font-family="Helvetica,sans-Serif" font-size="10.00" fill="#000000"> +sHeaderType</text>
<text text-anchor="middle" x="448.9804" y="-376.5" font-family="Helvetica,sans-Serif" font-size="10.00" fill="#000000">+sSerializationMethod</text>
</g>
<!-- Node9&#45;&gt;Node4 -->
<g id="edge7" class="edge">
<title>Node9&#45;&gt;Node4</title>
<path fill="none" stroke="#ffa500" d="M446.7734,-720.1694C450.5646,-716.8998 454.4703,-713.823 458.4804,-711 459.9493,-709.9659 579.7354,-671.4266 581.4804,-671 628.7503,-659.4432 646.4277,-675.6818 689.4804,-653 692.6437,-651.3334 695.7661,-649.5321 698.8426,-647.6158"/>
<polygon fill="#ffa500" stroke="#ffa500" points="444.1757,-717.802 439.1554,-727.1319 448.8981,-722.9691 444.1757,-717.802"/>
<text text-anchor="start" x="581.4804" y="-685" font-family="Helvetica,sans-Serif" font-size="10.00" fill="#000000"> &lt; gSizeHeaderDescription</text>
<text text-anchor="middle" x="647.4804" y="-674" font-family="Helvetica,sans-Serif" font-size="10.00" fill="#000000">String &gt;</text>
</g>
<!-- Node9&#45;&gt;Node11 -->
<g id="edge19" class="edge">
<title>Node9&#45;&gt;Node11</title>
<path fill="none" stroke="#ffa500" d="M355.7351,-701.4146C358.2735,-690.3129 362.9211,-679.8968 370.4804,-671 402.5569,-633.2479 436.4521,-675.7076 480.4804,-653 483.5883,-651.3971 486.6604,-649.6685 489.6918,-647.8319"/>
<polygon fill="#ffa500" stroke="#ffa500" points="352.2762,-700.877 354.027,-711.3262 359.1745,-702.0659 352.2762,-700.877"/>
<text text-anchor="start" x="370.4804" y="-685" font-family="Helvetica,sans-Serif" font-size="10.00" fill="#000000"> &lt; gSizeSerializationMethod</text>
<text text-anchor="middle" x="439.4804" y="-674" font-family="Helvetica,sans-Serif" font-size="10.00" fill="#000000">String &gt;</text>
</g>
<!-- Node9&#45;&gt;Node15 -->
<g id="edge28" class="edge">
<title>Node9&#45;&gt;Node15</title>
<path fill="none" stroke="#ffa500" d="M305.8859,-715.4402C303.7926,-713.882 301.6572,-712.3985 299.4804,-711 265.5273,-689.1864 239.0609,-721.492 210.4804,-693 199.3015,-681.8558 191.7467,-667.7329 186.7237,-652.6836"/>
<polygon fill="#ffa500" stroke="#ffa500" points="303.7735,-718.2332 313.7504,-721.7988 308.1747,-712.7898 303.7735,-718.2332"/>
<text text-anchor="middle" x="266.4804" y="-679.5" font-family="Helvetica,sans-Serif" font-size="10.00" fill="#000000"> &lt; deviceIDTypeSize &gt;</text>
</g>
<!-- Node10 -->
<g id="node9" class="node">
<title>Node10</title>
<polygon fill="none" stroke="#bfbfbf" points="364.9804,-518.5 364.9804,-575.5 471.9804,-575.5 471.9804,-518.5 364.9804,-518.5"/>
<text text-anchor="middle" x="418.4804" y="-563.5" font-family="Helvetica,sans-Serif" font-size="10.00" fill="#000000">anonymous:+@57</text>
<polyline fill="none" stroke="#bfbfbf" points="364.9804,-556.5 471.9804,-556.5 "/>
<text text-anchor="middle" x="418.4804" y="-544.5" font-family="Helvetica,sans-Serif" font-size="10.00" fill="#000000"> </text>
<polyline fill="none" stroke="#bfbfbf" points="364.9804,-537.5 471.9804,-537.5 "/>
<text text-anchor="middle" x="418.4804" y="-525.5" font-family="Helvetica,sans-Serif" font-size="10.00" fill="#000000"> </text>
</g>
<!-- Node10&#45;&gt;Node3 -->
<g id="edge12" class="edge">
<title>Node10&#45;&gt;Node3</title>
<path fill="none" stroke="#404040" d="M430.8666,-518.05C441.6207,-495.266 458.8536,-463.6818 480.4804,-441 571.2244,-345.8295 716.6656,-292.7053 813.1305,-266.2228"/>
<polygon fill="none" stroke="#404040" points="813.3496,-266.164 818.1047,-260.7428 824.9377,-263.0471 820.1826,-268.4683 813.3496,-266.164"/>
<text text-anchor="middle" x="621.4804" y="-382" font-family="Helvetica,sans-Serif" font-size="10.00" fill="#000000"> +@57</text>
</g>
<!-- Node11&#45;&gt;Node3 -->
<g id="edge14" class="edge">
<title>Node11&#45;&gt;Node3</title>
<path fill="none" stroke="#404040" d="M649.4619,-441.4029C672.6441,-408.3782 700.7617,-373.4393 731.4804,-346 755.8275,-324.252 785.5754,-305.0896 813.8202,-289.4181"/>
<polygon fill="none" stroke="#404040" points="814.0129,-289.3134 817.3755,-282.9342 824.5573,-283.5846 821.1947,-289.9638 814.0129,-289.3134"/>
<text text-anchor="middle" x="767.4804" y="-382" font-family="Helvetica,sans-Serif" font-size="10.00" fill="#000000"> +serialization</text>
</g>
<!-- Node12 -->
<g id="node11" class="node">
<title>Node12</title>
<g id="a_node11"><a xlink:href="../../d3/d87/classuint32__t.html" target="_top" xlink:title="{uint32_t\n||}">
<polygon fill="none" stroke="#000000" points="1181.4804,-518.5 1181.4804,-575.5 1237.4804,-575.5 1237.4804,-518.5 1181.4804,-518.5"/>
<text text-anchor="middle" x="1209.4804" y="-563.5" font-family="Helvetica,sans-Serif" font-size="10.00" fill="#000000">uint32_t</text>
<polyline fill="none" stroke="#000000" points="1181.4804,-556.5 1237.4804,-556.5 "/>
<text text-anchor="middle" x="1209.4804" y="-544.5" font-family="Helvetica,sans-Serif" font-size="10.00" fill="#000000"> </text>
<polyline fill="none" stroke="#000000" points="1181.4804,-537.5 1237.4804,-537.5 "/>
<text text-anchor="middle" x="1209.4804" y="-525.5" font-family="Helvetica,sans-Serif" font-size="10.00" fill="#000000"> </text>
</a>
</g>
</g>
<!-- Node12&#45;&gt;Node2 -->
<g id="edge30" class="edge">
<title>Node12&#45;&gt;Node2</title>
<path fill="none" stroke="#404040" d="M1220.471,-518.2887C1234.0853,-477.9587 1252.5999,-403.0804 1227.4804,-346 1181.9485,-242.5356 1079.1625,-159.9132 1003.1165,-109.8356"/>
<polygon fill="none" stroke="#404040" points="1003.1045,-109.8278 995.8938,-109.9119 993.0429,-103.2883 1000.2535,-103.2042 1003.1045,-109.8278"/>
<text text-anchor="middle" x="1281.9804" y="-258" font-family="Helvetica,sans-Serif" font-size="10.00" fill="#000000"> +totalEvaluatedMessages</text>
<text text-anchor="middle" x="1281.9804" y="-247" font-family="Helvetica,sans-Serif" font-size="10.00" fill="#000000">+totalAcceptedMessages</text>
<text text-anchor="middle" x="1281.9804" y="-236" font-family="Helvetica,sans-Serif" font-size="10.00" fill="#000000">+deviceIDTypeSize</text>
<text text-anchor="middle" x="1281.9804" y="-225" font-family="Helvetica,sans-Serif" font-size="10.00" fill="#000000">+sVersion</text>
</g>
<!-- Node12&#45;&gt;Node3 -->
<g id="edge20" class="edge">
<title>Node12&#45;&gt;Node3</title>
<path fill="none" stroke="#404040" d="M1190.2097,-518.4016C1174.2815,-493.8683 1151.8628,-457.1691 1136.4804,-423 1121.7101,-390.1906 1134.8399,-373.367 1111.4804,-346 1084.6494,-314.566 1045.7346,-291.6729 1009.3487,-275.6383"/>
<polygon fill="none" stroke="#404040" points="1009.1978,-275.5742 1002.1112,-276.9086 998.1539,-270.8803 1005.2405,-269.5459 1009.1978,-275.5742"/>
<text text-anchor="middle" x="1181.9804" y="-415" font-family="Helvetica,sans-Serif" font-size="10.00" fill="#000000"> +headerVersion</text>
<text text-anchor="middle" x="1181.9804" y="-404" font-family="Helvetica,sans-Serif" font-size="10.00" fill="#000000">+headerSize</text>
<text text-anchor="middle" x="1181.9804" y="-393" font-family="Helvetica,sans-Serif" font-size="10.00" fill="#000000">+sMagicString</text>
<text text-anchor="middle" x="1181.9804" y="-382" font-family="Helvetica,sans-Serif" font-size="10.00" fill="#000000">+flagsNextHeader</text>
<text text-anchor="middle" x="1181.9804" y="-371" font-family="Helvetica,sans-Serif" font-size="10.00" fill="#000000">+magicStringInt</text>
<text text-anchor="middle" x="1181.9804" y="-360" font-family="Helvetica,sans-Serif" font-size="10.00" fill="#000000">+flagsUnused</text>
<text text-anchor="middle" x="1181.9804" y="-349" font-family="Helvetica,sans-Serif" font-size="10.00" fill="#000000">+flags</text>
</g>
<!-- Node13 -->
<g id="node12" class="node">
<title>Node13</title>
<polygon fill="none" stroke="#bfbfbf" points="939.9804,-518.5 939.9804,-575.5 982.9804,-575.5 982.9804,-518.5 939.9804,-518.5"/>
<text text-anchor="middle" x="961.4804" y="-563.5" font-family="Helvetica,sans-Serif" font-size="10.00" fill="#000000">const</text>
<polyline fill="none" stroke="#bfbfbf" points="939.9804,-556.5 982.9804,-556.5 "/>
<text text-anchor="middle" x="961.4804" y="-544.5" font-family="Helvetica,sans-Serif" font-size="10.00" fill="#000000"> </text>
<polyline fill="none" stroke="#bfbfbf" points="939.9804,-537.5 982.9804,-537.5 "/>
<text text-anchor="middle" x="961.4804" y="-525.5" font-family="Helvetica,sans-Serif" font-size="10.00" fill="#000000"> </text>
</g>
<!-- Node13&#45;&gt;Node3 -->
<g id="edge21" class="edge">
<title>Node13&#45;&gt;Node3</title>
<path fill="none" stroke="#404040" d="M956.7765,-518.4945C950.0874,-477.9586 937.5058,-401.7139 927.297,-339.8486"/>
<polygon fill="none" stroke="#404040" points="927.2432,-339.522 922.3196,-334.2533 925.2893,-327.6821 930.2129,-332.9508 927.2432,-339.522"/>
<text text-anchor="middle" x="996.9804" y="-393" font-family="Helvetica,sans-Serif" font-size="10.00" fill="#000000"> +sHeaderType</text>
<text text-anchor="middle" x="996.9804" y="-382" font-family="Helvetica,sans-Serif" font-size="10.00" fill="#000000">+sSerializationMethod</text>
<text text-anchor="middle" x="996.9804" y="-371" font-family="Helvetica,sans-Serif" font-size="10.00" fill="#000000">+sVersion</text>
</g>
<!-- Node14 -->
<g id="node13" class="node">
<title>Node14</title>
<polygon fill="none" stroke="#bfbfbf" points="1024.9804,-518.5 1024.9804,-575.5 1131.9804,-575.5 1131.9804,-518.5 1024.9804,-518.5"/>
<text text-anchor="middle" x="1078.4804" y="-563.5" font-family="Helvetica,sans-Serif" font-size="10.00" fill="#000000">anonymous:+@55</text>
<polyline fill="none" stroke="#bfbfbf" points="1024.9804,-556.5 1131.9804,-556.5 "/>
<text text-anchor="middle" x="1078.4804" y="-544.5" font-family="Helvetica,sans-Serif" font-size="10.00" fill="#000000"> </text>
<polyline fill="none" stroke="#bfbfbf" points="1024.9804,-537.5 1131.9804,-537.5 "/>
<text text-anchor="middle" x="1078.4804" y="-525.5" font-family="Helvetica,sans-Serif" font-size="10.00" fill="#000000"> </text>
</g>
<!-- Node14&#45;&gt;Node3 -->
<g id="edge22" class="edge">
<title>Node14&#45;&gt;Node3</title>
<path fill="none" stroke="#404040" d="M1078.2071,-518.3889C1077.2796,-470.0019 1073.303,-374.4898 1056.4804,-346 1044.6199,-325.9138 1027.0734,-308.7808 1008.247,-294.6128"/>
<polygon fill="none" stroke="#404040" points="1008.055,-294.475 1000.8483,-294.2234 998.3087,-287.4742 1005.5154,-287.7258 1008.055,-294.475"/>
<text text-anchor="middle" x="1090.4804" y="-382" font-family="Helvetica,sans-Serif" font-size="10.00" fill="#000000"> +@55</text>
</g>
<!-- Node15&#45;&gt;Node2 -->
<g id="edge23" class="edge">
<title>Node15&#45;&gt;Node2</title>
<path fill="none" stroke="#404040" d="M180.8171,-441.2672C186.1965,-357.2363 205.6335,-240.7925 267.4804,-160 284.2779,-138.0569 296.1258,-139.3122 322.4804,-131 412.5626,-102.5883 675.568,-76.6718 817.7134,-64.241"/>
<polygon fill="none" stroke="#404040" points="817.8719,-64.2273 823.5032,-59.723 829.8269,-63.1887 824.1956,-67.693 817.8719,-64.2273"/>
<text text-anchor="middle" x="294.9804" y="-241.5" font-family="Helvetica,sans-Serif" font-size="10.00" fill="#000000"> +deviceID</text>
</g>
<!-- Node16 -->
<g id="node15" class="node">
<title>Node16</title>
<g id="a_node15"><a xlink:href="../../d6/d30/classuint64__t.html" target="_top" xlink:title="{uint64_t\n||}">
<polygon fill="none" stroke="#000000" points="1390.4804,-215.5 1390.4804,-272.5 1446.4804,-272.5 1446.4804,-215.5 1390.4804,-215.5"/>
<text text-anchor="middle" x="1418.4804" y="-260.5" font-family="Helvetica,sans-Serif" font-size="10.00" fill="#000000">uint64_t</text>
<polyline fill="none" stroke="#000000" points="1390.4804,-253.5 1446.4804,-253.5 "/>
<text text-anchor="middle" x="1418.4804" y="-241.5" font-family="Helvetica,sans-Serif" font-size="10.00" fill="#000000"> </text>
<polyline fill="none" stroke="#000000" points="1390.4804,-234.5 1446.4804,-234.5 "/>
<text text-anchor="middle" x="1418.4804" y="-222.5" font-family="Helvetica,sans-Serif" font-size="10.00" fill="#000000"> </text>
</a>
</g>
</g>
<!-- Node16&#45;&gt;Node2 -->
<g id="edge29" class="edge">
<title>Node16&#45;&gt;Node2</title>
<path fill="none" stroke="#404040" d="M1411.0306,-215.4278C1404.771,-196.9722 1393.9724,-173.892 1376.4804,-160 1319.8928,-115.0585 1123.8892,-83.2455 1005.171,-67.5785"/>
<polygon fill="none" stroke="#404040" points="1005.1211,-67.5721 998.6546,-70.7633 993.2217,-66.0216 999.6882,-62.8304 1005.1211,-67.5721"/>
<text text-anchor="middle" x="1384.9804" y="-134" font-family="Helvetica,sans-Serif" font-size="10.00" fill="#000000"> +sampleTimeUs</text>
</g>
</g>
</svg>
