<?xml version="1.0" encoding="UTF-8" standalone="no"?>
<!DOCTYPE svg PUBLIC "-//W3C//DTD SVG 1.1//EN"
 "http://www.w3.org/Graphics/SVG/1.1/DTD/svg11.dtd">
<!-- Generated by graphviz version 2.40.1 (20161225.0304)
 -->
<!-- Title: /home/travis/build/AliceO2Group/AliceO2/DataFormats/Detectors/TPC/include/DataFormatsTPC/CTF.h Pages: 1 -->
<!--zoomable 250 -->
<svg id="main" version="1.1" xmlns="http://www.w3.org/2000/svg" xmlns:xlink="http://www.w3.org/1999/xlink" xml:space="preserve" onload="init(evt)">
<style type="text/css"><![CDATA[
.edge:hover path { stroke: red; }
.edge:hover polygon { stroke: red; fill: red; }
]]></style>
<script type="text/javascript"><![CDATA[
var edges = document.getElementsByTagName('g');
if (edges && edges.length) {
  for (var i=0;i<edges.length;i++) {
    if (edges[i].id.substr(0,4)=='edge') {
      edges[i].setAttribute('class','edge');
    }
  }
}
]]></script>
        <defs>
                <circle id="rim" cx="0" cy="0" r="7"/>
                <circle id="rim2" cx="0" cy="0" r="3.5"/>
                <g id="zoomPlus">
                        <use xlink:href="#rim" fill="#404040">
                                <set attributeName="fill" to="#808080" begin="zoomplus.mouseover" end="zoomplus.mouseout"/>
                        </use>
                        <path d="M-4,0h8M0,-4v8" fill="none" stroke="white" stroke-width="1.5" pointer-events="none"/>
                </g>
                <g id="zoomMin">
                        <use xlink:href="#rim" fill="#404040">
                                <set attributeName="fill" to="#808080" begin="zoomminus.mouseover" end="zoomminus.mouseout"/>
                        </use>
                        <path d="M-4,0h8" fill="none" stroke="white" stroke-width="1.5" pointer-events="none"/>
                </g>
                <g id="dirArrow">
                        <path fill="none" stroke="white" stroke-width="1.5" d="M0,-3.0v7 M-2.5,-0.5L0,-3.0L2.5,-0.5"/>
                </g>
               <g id="resetDef">
                       <use xlink:href="#rim2" fill="#404040">
                               <set attributeName="fill" to="#808080" begin="reset.mouseover" end="reset.mouseout"/>
                       </use>
               </g>
        </defs>

<script type="text/javascript">
var viewWidth = 837;
var viewHeight = 250;
var sectionId = 'dynsection-1';
</script>
<script xlink:href="../../svgpan.js"/>
<svg id="graph" class="graph">
<g id="viewport">
<title>/home/travis/build/AliceO2Group/AliceO2/DataFormats/Detectors/TPC/include/DataFormatsTPC/CTF.h</title>
<!-- Node36 -->
<g id="node1" class="node">
<title>Node36</title>
<polygon fill="#bfbfbf" stroke="#000000" points="160.5,-189.5 160.5,-241.5 350.5,-241.5 350.5,-189.5 160.5,-189.5"/>
<text text-anchor="start" x="168.5" y="-229.5" font-family="Helvetica,sans-Serif" font-size="10.00" fill="#000000">/home/travis/build</text>
<text text-anchor="start" x="168.5" y="-218.5" font-family="Helvetica,sans-Serif" font-size="10.00" fill="#000000">/AliceO2Group/AliceO2</text>
<text text-anchor="start" x="168.5" y="-207.5" font-family="Helvetica,sans-Serif" font-size="10.00" fill="#000000">/DataFormats/Detectors</text>
<text text-anchor="middle" x="255.5" y="-196.5" font-family="Helvetica,sans-Serif" font-size="10.00" fill="#000000">/TPC/include/DataFormatsTPC/CTF.h</text>
</g>
<!-- Node37 -->
<g id="node2" class="node">
<title>Node37</title>
<g id="a_node2"><a xlink:href="../../d3/d53/test__ctf__io__ft0_8cxx.html" target="_top" xlink:title="/home/travis/build\l/AliceO2Group/AliceO2\l/Detectors/CTF/test/test\l_ctf_io_ft0.cxx">
<polygon fill="none" stroke="#000000" points="0,-95 0,-147 131,-147 131,-95 0,-95"/>
<text text-anchor="start" x="8" y="-135" font-family="Helvetica,sans-Serif" font-size="10.00" fill="#000000">/home/travis/build</text>
<text text-anchor="start" x="8" y="-124" font-family="Helvetica,sans-Serif" font-size="10.00" fill="#000000">/AliceO2Group/AliceO2</text>
<text text-anchor="start" x="8" y="-113" font-family="Helvetica,sans-Serif" font-size="10.00" fill="#000000">/Detectors/CTF/test/test</text>
<text text-anchor="middle" x="65.5" y="-102" font-family="Helvetica,sans-Serif" font-size="10.00" fill="#000000">_ctf_io_ft0.cxx</text>
</a>
</g>
</g>
<!-- Node36&#45;&gt;Node37 -->
<g id="edge1" class="edge">
<title>Node36&#45;&gt;Node37</title>
<path fill="none" stroke="#191970" d="M193.8845,-184.8544C169.4205,-172.6868 141.5724,-158.836 118.0797,-147.1515"/>
<polygon fill="#191970" stroke="#191970" points="192.5664,-188.1078 203.0787,-189.4273 195.6837,-181.8402 192.5664,-188.1078"/>
</g>
<!-- Node38 -->
<g id="node3" class="node">
<title>Node38</title>
<g id="a_node3"><a xlink:href="../../df/d43/test__ctf__io__tpc_8cxx.html" target="_top" xlink:title="/home/travis/build\l/AliceO2Group/AliceO2\l/Detectors/CTF/test/test\l_ctf_io_tpc.cxx">
<polygon fill="none" stroke="#000000" points="131,-.5 131,-52.5 262,-52.5 262,-.5 131,-.5"/>
<text text-anchor="start" x="139" y="-40.5" font-family="Helvetica,sans-Serif" font-size="10.00" fill="#000000">/home/travis/build</text>
<text text-anchor="start" x="139" y="-29.5" font-family="Helvetica,sans-Serif" font-size="10.00" fill="#000000">/AliceO2Group/AliceO2</text>
<text text-anchor="start" x="139" y="-18.5" font-family="Helvetica,sans-Serif" font-size="10.00" fill="#000000">/Detectors/CTF/test/test</text>
<text text-anchor="middle" x="196.5" y="-7.5" font-family="Helvetica,sans-Serif" font-size="10.00" fill="#000000">_ctf_io_tpc.cxx</text>
</a>
</g>
</g>
<!-- Node36&#45;&gt;Node38 -->
<g id="edge2" class="edge">
<title>Node36&#45;&gt;Node38</title>
<path fill="none" stroke="#191970" d="M202.1475,-182.8764C192.578,-174.4099 183.9328,-164.407 178.5,-153 163.143,-120.7556 174.2216,-79.035 184.5589,-52.5108"/>
<polygon fill="#191970" stroke="#191970" points="200.0351,-185.671 209.9765,-189.3344 204.4895,-180.2711 200.0351,-185.671"/>
</g>
<!-- Node39 -->
<g id="node4" class="node">
<title>Node39</title>
<g id="a_node4"><a xlink:href="../../d8/d12/CTFReaderSpec_8cxx.html" target="_top" xlink:title="/home/travis/build\l/AliceO2Group/AliceO2\l/Detectors/CTF/workflow\l/src/CTFReaderSpec.cxx">
<polygon fill="none" stroke="#000000" points="188,-95 188,-147 323,-147 323,-95 188,-95"/>
<text text-anchor="start" x="196" y="-135" font-family="Helvetica,sans-Serif" font-size="10.00" fill="#000000">/home/travis/build</text>
<text text-anchor="start" x="196" y="-124" font-family="Helvetica,sans-Serif" font-size="10.00" fill="#000000">/AliceO2Group/AliceO2</text>
<text text-anchor="start" x="196" y="-113" font-family="Helvetica,sans-Serif" font-size="10.00" fill="#000000">/Detectors/CTF/workflow</text>
<text text-anchor="middle" x="255.5" y="-102" font-family="Helvetica,sans-Serif" font-size="10.00" fill="#000000">/src/CTFReaderSpec.cxx</text>
</a>
</g>
</g>
<!-- Node36&#45;&gt;Node39 -->
<g id="edge3" class="edge">
<title>Node36&#45;&gt;Node39</title>
<path fill="none" stroke="#191970" d="M255.5,-179.1645C255.5,-168.5577 255.5,-157.1746 255.5,-147.3157"/>
<polygon fill="#191970" stroke="#191970" points="252.0001,-179.4273 255.5,-189.4273 259.0001,-179.4273 252.0001,-179.4273"/>
</g>
<!-- Node40 -->
<g id="node5" class="node">
<title>Node40</title>
<g id="a_node5"><a xlink:href="../../d4/dd7/CTFWriterSpec_8cxx.html" target="_top" xlink:title="/home/travis/build\l/AliceO2Group/AliceO2\l/Detectors/CTF/workflow\l/src/CTFWriterSpec.cxx">
<polygon fill="none" stroke="#000000" points="341,-95 341,-147 476,-147 476,-95 341,-95"/>
<text text-anchor="start" x="349" y="-135" font-family="Helvetica,sans-Serif" font-size="10.00" fill="#000000">/home/travis/build</text>
<text text-anchor="start" x="349" y="-124" font-family="Helvetica,sans-Serif" font-size="10.00" fill="#000000">/AliceO2Group/AliceO2</text>
<text text-anchor="start" x="349" y="-113" font-family="Helvetica,sans-Serif" font-size="10.00" fill="#000000">/Detectors/CTF/workflow</text>
<text text-anchor="middle" x="408.5" y="-102" font-family="Helvetica,sans-Serif" font-size="10.00" fill="#000000">/src/CTFWriterSpec.cxx</text>
</a>
</g>
</g>
<!-- Node36&#45;&gt;Node40 -->
<g id="edge4" class="edge">
<title>Node36&#45;&gt;Node40</title>
<path fill="none" stroke="#191970" d="M306.4224,-184.0479C325.8029,-172.0776 347.6584,-158.5786 366.1595,-147.1515"/>
<polygon fill="#191970" stroke="#191970" points="304.3817,-181.1945 297.7129,-189.4273 308.0602,-187.1501 304.3817,-181.1945"/>
</g>
<!-- Node41 -->
<g id="node6" class="node">
<title>Node41</title>
<g id="a_node6"><a xlink:href="../../d9/de3/TPC_2reconstruction_2include_2TPCReconstruction_2CTFCoder_8h.html" target="_top" xlink:title="/home/travis/build\l/AliceO2Group/AliceO2\l/Detectors/TPC/reconstruction\l/include/TPCReconstruction\l/CTFCoder.h">
<polygon fill="none" stroke="#000000" points="494,-89.5 494,-152.5 655,-152.5 655,-89.5 494,-89.5"/>
<text text-anchor="start" x="502" y="-140.5" font-family="Helvetica,sans-Serif" font-size="10.00" fill="#000000">/home/travis/build</text>
<text text-anchor="start" x="502" y="-129.5" font-family="Helvetica,sans-Serif" font-size="10.00" fill="#000000">/AliceO2Group/AliceO2</text>
<text text-anchor="start" x="502" y="-118.5" font-family="Helvetica,sans-Serif" font-size="10.00" fill="#000000">/Detectors/TPC/reconstruction</text>
<text text-anchor="start" x="502" y="-107.5" font-family="Helvetica,sans-Serif" font-size="10.00" fill="#000000">/include/TPCReconstruction</text>
<text text-anchor="middle" x="574.5" y="-96.5" font-family="Helvetica,sans-Serif" font-size="10.00" fill="#000000">/CTFCoder.h</text>
</a>
</g>
</g>
<!-- Node36&#45;&gt;Node41 -->
<g id="edge5" class="edge">
<title>Node36&#45;&gt;Node41</title>
<path fill="none" stroke="#191970" d="M360.4462,-188.8718C399.8633,-178.3759 444.9335,-165.7822 485.5,-153 488.1623,-152.1611 490.8635,-151.2925 493.5867,-150.4019"/>
<polygon fill="#191970" stroke="#191970" points="359.3224,-185.5487 350.5528,-191.4939 361.1158,-192.3151 359.3224,-185.5487"/>
</g>
<!-- Node41&#45;&gt;Node38 -->
<g id="edge6" class="edge">
<title>Node41&#45;&gt;Node38</title>
<path fill="none" stroke="#191970" d="M483.8289,-88.6568C405.5559,-67.4388 382.6426,-69.8222 306.5,-53 292.1142,-49.8218 276.7162,-46.2312 262.1339,-42.7428"/>
<polygon fill="#191970" stroke="#191970" points="483.0857,-92.0823 493.6562,-91.3642 484.945,-85.3338 483.0857,-92.0823"/>
</g>
<!-- Node42 -->
<g id="node7" class="node">
<title>Node42</title>
<g id="a_node7"><a xlink:href="../../d4/d51/TPC_2reconstruction_2src_2CTFCoder_8cxx.html" target="_top" xlink:title="/home/travis/build\l/AliceO2Group/AliceO2\l/Detectors/TPC/reconstruction\l/src/CTFCoder.cxx">
<polygon fill="none" stroke="#000000" points="316,-.5 316,-52.5 477,-52.5 477,-.5 316,-.5"/>
<text text-anchor="start" x="324" y="-40.5" font-family="Helvetica,sans-Serif" font-size="10.00" fill="#000000">/home/travis/build</text>
<text text-anchor="start" x="324" y="-29.5" font-family="Helvetica,sans-Serif" font-size="10.00" fill="#000000">/AliceO2Group/AliceO2</text>
<text text-anchor="start" x="324" y="-18.5" font-family="Helvetica,sans-Serif" font-size="10.00" fill="#000000">/Detectors/TPC/reconstruction</text>
<text text-anchor="middle" x="396.5" y="-7.5" font-family="Helvetica,sans-Serif" font-size="10.00" fill="#000000">/src/CTFCoder.cxx</text>
</a>
</g>
</g>
<!-- Node41&#45;&gt;Node42 -->
<g id="edge7" class="edge">
<title>Node41&#45;&gt;Node42</title>
<path fill="none" stroke="#191970" d="M505.668,-84.4572C485.6843,-73.8479 464.2688,-62.4784 445.7451,-52.6442"/>
<polygon fill="#191970" stroke="#191970" points="504.2597,-87.6722 514.7334,-89.27 507.5422,-81.4894 504.2597,-87.6722"/>
</g>
<!-- Node43 -->
<g id="node8" class="node">
<title>Node43</title>
<g id="a_node8"><a xlink:href="../../db/d6d/TPC_2workflow_2src_2EntropyDecoderSpec_8cxx.html" target="_top" xlink:title="/home/travis/build\l/AliceO2Group/AliceO2\l/Detectors/TPC/workflow\l/src/EntropyDecoderSpec.cxx">
<polygon fill="none" stroke="#000000" points="495.5,-.5 495.5,-52.5 653.5,-52.5 653.5,-.5 495.5,-.5"/>
<text text-anchor="start" x="503.5" y="-40.5" font-family="Helvetica,sans-Serif" font-size="10.00" fill="#000000">/home/travis/build</text>
<text text-anchor="start" x="503.5" y="-29.5" font-family="Helvetica,sans-Serif" font-size="10.00" fill="#000000">/AliceO2Group/AliceO2</text>
<text text-anchor="start" x="503.5" y="-18.5" font-family="Helvetica,sans-Serif" font-size="10.00" fill="#000000">/Detectors/TPC/workflow</text>
<text text-anchor="middle" x="574.5" y="-7.5" font-family="Helvetica,sans-Serif" font-size="10.00" fill="#000000">/src/EntropyDecoderSpec.cxx</text>
</a>
</g>
</g>
<!-- Node41&#45;&gt;Node43 -->
<g id="edge8" class="edge">
<title>Node41&#45;&gt;Node43</title>
<path fill="none" stroke="#191970" d="M574.5,-79.2457C574.5,-70.2008 574.5,-60.8836 574.5,-52.6442"/>
<polygon fill="#191970" stroke="#191970" points="571.0001,-79.2699 574.5,-89.27 578.0001,-79.27 571.0001,-79.2699"/>
</g>
<!-- Node44 -->
<g id="node9" class="node">
<title>Node44</title>
<g id="a_node9"><a xlink:href="../../db/dd4/TPC_2workflow_2src_2EntropyEncoderSpec_8cxx.html" target="_top" xlink:title="/home/travis/build\l/AliceO2Group/AliceO2\l/Detectors/TPC/workflow\l/src/EntropyEncoderSpec.cxx">
<polygon fill="none" stroke="#000000" points="672,-.5 672,-52.5 829,-52.5 829,-.5 672,-.5"/>
<text text-anchor="start" x="680" y="-40.5" font-family="Helvetica,sans-Serif" font-size="10.00" fill="#000000">/home/travis/build</text>
<text text-anchor="start" x="680" y="-29.5" font-family="Helvetica,sans-Serif" font-size="10.00" fill="#000000">/AliceO2Group/AliceO2</text>
<text text-anchor="start" x="680" y="-18.5" font-family="Helvetica,sans-Serif" font-size="10.00" fill="#000000">/Detectors/TPC/workflow</text>
<text text-anchor="middle" x="750.5" y="-7.5" font-family="Helvetica,sans-Serif" font-size="10.00" fill="#000000">/src/EntropyEncoderSpec.cxx</text>
</a>
</g>
</g>
<!-- Node41&#45;&gt;Node44 -->
<g id="edge9" class="edge">
<title>Node41&#45;&gt;Node44</title>
<path fill="none" stroke="#191970" d="M642.5586,-84.4572C662.3177,-73.8479 683.4927,-62.4784 701.8082,-52.6442"/>
<polygon fill="#191970" stroke="#191970" points="640.7497,-81.4558 633.5951,-89.27 644.0611,-87.623 640.7497,-81.4558"/>
</g>
</g>
</svg>
        <g id="navigator" transform="translate(0 0)" fill="#404254">
                <rect fill="#f2f5e9" fill-opacity="0.5" stroke="#606060" stroke-width=".5" x="0" y="0" width="60" height="60"/>
                <use id="zoomplus" xlink:href="#zoomPlus" x="17" y="9" onmousedown="handleZoom(evt,'in')"/>
                <use id="zoomminus" xlink:href="#zoomMin" x="42" y="9" onmousedown="handleZoom(evt,'out')"/>
                <use id="reset" xlink:href="#resetDef" x="30" y="36" onmousedown="handleReset()"/>
                <g id="arrowUp" xlink:href="#dirArrow" transform="translate(30 24)" onmousedown="handlePan(0,-1)">
                  <use xlink:href="#rim" fill="#404040">
                        <set attributeName="fill" to="#808080" begin="arrowUp.mouseover" end="arrowUp.mouseout"/>
                  </use>
                  <path fill="none" stroke="white" stroke-width="1.5" d="M0,-3.0v7 M-2.5,-0.5L0,-3.0L2.5,-0.5"/>
                </g>
                <g id="arrowRight" xlink:href="#dirArrow" transform="rotate(90) translate(36 -43)" onmousedown="handlePan(1,0)">
                  <use xlink:href="#rim" fill="#404040">
                        <set attributeName="fill" to="#808080" begin="arrowRight.mouseover" end="arrowRight.mouseout"/>
                  </use>
                  <path fill="none" stroke="white" stroke-width="1.5" d="M0,-3.0v7 M-2.5,-0.5L0,-3.0L2.5,-0.5"/>
                </g>
                <g id="arrowDown" xlink:href="#dirArrow" transform="rotate(180) translate(-30 -48)" onmousedown="handlePan(0,1)">
                  <use xlink:href="#rim" fill="#404040">
                        <set attributeName="fill" to="#808080" begin="arrowDown.mouseover" end="arrowDown.mouseout"/>
                  </use>
                  <path fill="none" stroke="white" stroke-width="1.5" d="M0,-3.0v7 M-2.5,-0.5L0,-3.0L2.5,-0.5"/>
                </g>
                <g id="arrowLeft" xlink:href="#dirArrow" transform="rotate(270) translate(-36 17)" onmousedown="handlePan(-1,0)">
                  <use xlink:href="#rim" fill="#404040">
                        <set attributeName="fill" to="#808080" begin="arrowLeft.mouseover" end="arrowLeft.mouseout"/>
                  </use>
                  <path fill="none" stroke="white" stroke-width="1.5" d="M0,-3.0v7 M-2.5,-0.5L0,-3.0L2.5,-0.5"/>
                </g>
        </g>
        <svg viewBox="0 0 15 15" width="100%" height="30px" preserveAspectRatio="xMaxYMin meet">
         <g id="arrow_out" transform="scale(0.3 0.3)">
          <a xlink:href="TPC_2include_2DataFormatsTPC_2CTF_8h__dep__incl_org.svg" target="_base">
           <rect id="button" ry="5" rx="5" y="6" x="6" height="38" width="38"
                fill="#f2f5e9" fill-opacity="0.5" stroke="#606060" stroke-width="1.0"/>
           <path id="arrow"
             d="M 11.500037,31.436501 C 11.940474,20.09759 22.043105,11.32322 32.158766,21.979434 L 37.068811,17.246167 C 37.068811,17.246167 37.088388,32 37.088388,32 L 22.160133,31.978069 C 22.160133,31.978069 26.997745,27.140456 26.997745,27.140456 C 18.528582,18.264221 13.291696,25.230495 11.500037,31.436501 z"
             style="fill:#404040;"/>
          </a>
         </g>
        </svg>
</svg>
