<?xml version="1.0" encoding="UTF-8" standalone="no"?>
<!DOCTYPE svg PUBLIC "-//W3C//DTD SVG 1.1//EN"
 "http://www.w3.org/Graphics/SVG/1.1/DTD/svg11.dtd">
<!-- Generated by graphviz version 2.40.1 (20161225.0304)
 -->
<!-- Title: o2::framework::DPLRawParser Pages: 1 -->
<!--zoomable 562 -->
<svg id="main" version="1.1" xmlns="http://www.w3.org/2000/svg" xmlns:xlink="http://www.w3.org/1999/xlink" xml:space="preserve" onload="init(evt)">
<style type="text/css"><![CDATA[
.edge:hover path { stroke: red; }
.edge:hover polygon { stroke: red; fill: red; }
]]></style>
<script type="text/javascript"><![CDATA[
var edges = document.getElementsByTagName('g');
if (edges && edges.length) {
  for (var i=0;i<edges.length;i++) {
    if (edges[i].id.substr(0,4)=='edge') {
      edges[i].setAttribute('class','edge');
    }
  }
}
]]></script>
        <defs>
                <circle id="rim" cx="0" cy="0" r="7"/>
                <circle id="rim2" cx="0" cy="0" r="3.5"/>
                <g id="zoomPlus">
                        <use xlink:href="#rim" fill="#404040">
                                <set attributeName="fill" to="#808080" begin="zoomplus.mouseover" end="zoomplus.mouseout"/>
                        </use>
                        <path d="M-4,0h8M0,-4v8" fill="none" stroke="white" stroke-width="1.5" pointer-events="none"/>
                </g>
                <g id="zoomMin">
                        <use xlink:href="#rim" fill="#404040">
                                <set attributeName="fill" to="#808080" begin="zoomminus.mouseover" end="zoomminus.mouseout"/>
                        </use>
                        <path d="M-4,0h8" fill="none" stroke="white" stroke-width="1.5" pointer-events="none"/>
                </g>
                <g id="dirArrow">
                        <path fill="none" stroke="white" stroke-width="1.5" d="M0,-3.0v7 M-2.5,-0.5L0,-3.0L2.5,-0.5"/>
                </g>
               <g id="resetDef">
                       <use xlink:href="#rim2" fill="#404040">
                               <set attributeName="fill" to="#808080" begin="reset.mouseover" end="reset.mouseout"/>
                       </use>
               </g>
        </defs>

<script type="text/javascript">
var viewWidth = 1331;
var viewHeight = 562;
var sectionId = 'dynsection-0';
</script>
<script xlink:href="../../svgpan.js"/>
<svg id="graph" class="graph">
<g id="viewport">
<title>o2::framework::DPLRawParser</title>
<!-- Node1 -->
<g id="node1" class="node">
<title>Node1</title>
<polygon fill="#bfbfbf" stroke="#000000" points="481.5,-.5 481.5,-90.5 645.5,-90.5 645.5,-.5 481.5,-.5"/>
<text text-anchor="middle" x="563.5" y="-78.5" font-family="Helvetica,sans-Serif" font-size="10.00" fill="#000000">o2::framework::DPLRawParser</text>
<polyline fill="none" stroke="#000000" points="481.5,-71.5 645.5,-71.5 "/>
<text text-anchor="middle" x="563.5" y="-59.5" font-family="Helvetica,sans-Serif" font-size="10.00" fill="#000000"> </text>
<polyline fill="none" stroke="#000000" points="481.5,-52.5 645.5,-52.5 "/>
<text text-anchor="start" x="489.5" y="-40.5" font-family="Helvetica,sans-Serif" font-size="10.00" fill="#000000">+ DPLRawParser()</text>
<text text-anchor="start" x="489.5" y="-29.5" font-family="Helvetica,sans-Serif" font-size="10.00" fill="#000000">+ DPLRawParser()</text>
<text text-anchor="start" x="489.5" y="-18.5" font-family="Helvetica,sans-Serif" font-size="10.00" fill="#000000">+ begin()</text>
<text text-anchor="start" x="489.5" y="-7.5" font-family="Helvetica,sans-Serif" font-size="10.00" fill="#000000">+ end()</text>
</g>
<!-- Node2 -->
<g id="node2" class="node">
<title>Node2</title>
<g id="a_node2"><a xlink:href="../../d8/d47/structo2_1_1header_1_1RAWDataHeaderV4.html" target="_top" xlink:title="{o2::header::RAWDataHeaderV4\n|+ word0\l+ blockLength\l+ zero0\l+ word1\l+ word2\l+ word3\l+ word4\l+ heartbeatBC\l+ zero42\l+ word5\l+ word6\l+ detectorField\l+ stop\l+ pageCnt\l|}">
<polygon fill="none" stroke="#000000" points="480,-138.5 480,-338.5 647,-338.5 647,-138.5 480,-138.5"/>
<text text-anchor="middle" x="563.5" y="-326.5" font-family="Helvetica,sans-Serif" font-size="10.00" fill="#000000">o2::header::RAWDataHeaderV4</text>
<polyline fill="none" stroke="#000000" points="480,-319.5 647,-319.5 "/>
<text text-anchor="start" x="488" y="-307.5" font-family="Helvetica,sans-Serif" font-size="10.00" fill="#000000">+ word0</text>
<text text-anchor="start" x="488" y="-296.5" font-family="Helvetica,sans-Serif" font-size="10.00" fill="#000000">+ blockLength</text>
<text text-anchor="start" x="488" y="-285.5" font-family="Helvetica,sans-Serif" font-size="10.00" fill="#000000">+ zero0</text>
<text text-anchor="start" x="488" y="-274.5" font-family="Helvetica,sans-Serif" font-size="10.00" fill="#000000">+ word1</text>
<text text-anchor="start" x="488" y="-263.5" font-family="Helvetica,sans-Serif" font-size="10.00" fill="#000000">+ word2</text>
<text text-anchor="start" x="488" y="-252.5" font-family="Helvetica,sans-Serif" font-size="10.00" fill="#000000">+ word3</text>
<text text-anchor="start" x="488" y="-241.5" font-family="Helvetica,sans-Serif" font-size="10.00" fill="#000000">+ word4</text>
<text text-anchor="start" x="488" y="-230.5" font-family="Helvetica,sans-Serif" font-size="10.00" fill="#000000">+ heartbeatBC</text>
<text text-anchor="start" x="488" y="-219.5" font-family="Helvetica,sans-Serif" font-size="10.00" fill="#000000">+ zero42</text>
<text text-anchor="start" x="488" y="-208.5" font-family="Helvetica,sans-Serif" font-size="10.00" fill="#000000">+ word5</text>
<text text-anchor="start" x="488" y="-197.5" font-family="Helvetica,sans-Serif" font-size="10.00" fill="#000000">+ word6</text>
<text text-anchor="start" x="488" y="-186.5" font-family="Helvetica,sans-Serif" font-size="10.00" fill="#000000">+ detectorField</text>
<text text-anchor="start" x="488" y="-175.5" font-family="Helvetica,sans-Serif" font-size="10.00" fill="#000000">+ stop</text>
<text text-anchor="start" x="488" y="-164.5" font-family="Helvetica,sans-Serif" font-size="10.00" fill="#000000">+ pageCnt</text>
<polyline fill="none" stroke="#000000" points="480,-157.5 647,-157.5 "/>
<text text-anchor="middle" x="563.5" y="-145.5" font-family="Helvetica,sans-Serif" font-size="10.00" fill="#000000"> </text>
</a>
</g>
</g>
<!-- Node2&#45;&gt;Node1 -->
<g id="edge1" class="edge">
<title>Node2&#45;&gt;Node1</title>
<path fill="none" stroke="#404040" d="M563.5,-138.3255C563.5,-126.1882 563.5,-114.1285 563.5,-102.916"/>
<polygon fill="none" stroke="#404040" points="563.5001,-102.6576 559.5,-96.6576 563.5,-90.6576 567.5,-96.6576 563.5001,-102.6576"/>
<text text-anchor="middle" x="592.5" y="-112" font-family="Helvetica,sans-Serif" font-size="10.00" fill="#000000"> +initializer</text>
</g>
<!-- Node3 -->
<g id="node3" class="node">
<title>Node3</title>
<polygon fill="none" stroke="#bfbfbf" points="0,-496.5 0,-553.5 113,-553.5 113,-496.5 0,-496.5"/>
<text text-anchor="middle" x="56.5" y="-541.5" font-family="Helvetica,sans-Serif" font-size="10.00" fill="#000000">anonymous:+@129</text>
<polyline fill="none" stroke="#bfbfbf" points="0,-534.5 113,-534.5 "/>
<text text-anchor="middle" x="56.5" y="-522.5" font-family="Helvetica,sans-Serif" font-size="10.00" fill="#000000"> </text>
<polyline fill="none" stroke="#bfbfbf" points="0,-515.5 113,-515.5 "/>
<text text-anchor="middle" x="56.5" y="-503.5" font-family="Helvetica,sans-Serif" font-size="10.00" fill="#000000"> </text>
</g>
<!-- Node3&#45;&gt;Node2 -->
<g id="edge2" class="edge">
<title>Node3&#45;&gt;Node2</title>
<path fill="none" stroke="#404040" d="M55.4982,-496.3726C55.8242,-459.0759 62.2348,-394.2455 99.5,-357 150.7385,-305.7887 347.2287,-269.3878 467.4751,-251.3643"/>
<polygon fill="none" stroke="#404040" points="467.7146,-251.3289 473.0645,-246.4938 479.5854,-249.5725 474.2355,-254.4076 467.7146,-251.3289"/>
<text text-anchor="middle" x="119.5" y="-415" font-family="Helvetica,sans-Serif" font-size="10.00" fill="#000000"> +@129</text>
</g>
<!-- Node4 -->
<g id="node4" class="node">
<title>Node4</title>
<g id="a_node4"><a xlink:href="../../d6/d30/classuint64__t.html" target="_top" xlink:title="{uint64_t\n||}">
<polygon fill="none" stroke="#000000" points="131.5,-496.5 131.5,-553.5 187.5,-553.5 187.5,-496.5 131.5,-496.5"/>
<text text-anchor="middle" x="159.5" y="-541.5" font-family="Helvetica,sans-Serif" font-size="10.00" fill="#000000">uint64_t</text>
<polyline fill="none" stroke="#000000" points="131.5,-534.5 187.5,-534.5 "/>
<text text-anchor="middle" x="159.5" y="-522.5" font-family="Helvetica,sans-Serif" font-size="10.00" fill="#000000"> </text>
<polyline fill="none" stroke="#000000" points="131.5,-515.5 187.5,-515.5 "/>
<text text-anchor="middle" x="159.5" y="-503.5" font-family="Helvetica,sans-Serif" font-size="10.00" fill="#000000"> </text>
</a>
</g>
</g>
<!-- Node4&#45;&gt;Node2 -->
<g id="edge3" class="edge">
<title>Node4&#45;&gt;Node2</title>
<path fill="none" stroke="#404040" d="M151.103,-496.4028C142.3023,-460.0255 133.6231,-397.1207 164.5,-357 201.5256,-308.8897 361.833,-272.8848 467.641,-253.8201"/>
<polygon fill="none" stroke="#404040" points="467.8064,-253.7908 473.0142,-248.8029 479.6214,-251.6916 474.4136,-256.6795 467.8064,-253.7908"/>
<text text-anchor="middle" x="196.5" y="-470" font-family="Helvetica,sans-Serif" font-size="10.00" fill="#000000"> +word7</text>
<text text-anchor="middle" x="196.5" y="-459" font-family="Helvetica,sans-Serif" font-size="10.00" fill="#000000">+triggerType</text>
<text text-anchor="middle" x="196.5" y="-448" font-family="Helvetica,sans-Serif" font-size="10.00" fill="#000000">+zero6</text>
<text text-anchor="middle" x="196.5" y="-437" font-family="Helvetica,sans-Serif" font-size="10.00" fill="#000000">+par</text>
<text text-anchor="middle" x="196.5" y="-426" font-family="Helvetica,sans-Serif" font-size="10.00" fill="#000000">+feeId</text>
<text text-anchor="middle" x="196.5" y="-415" font-family="Helvetica,sans-Serif" font-size="10.00" fill="#000000">+priority</text>
<text text-anchor="middle" x="196.5" y="-404" font-family="Helvetica,sans-Serif" font-size="10.00" fill="#000000">+headerSize</text>
<text text-anchor="middle" x="196.5" y="-393" font-family="Helvetica,sans-Serif" font-size="10.00" fill="#000000">+version</text>
<text text-anchor="middle" x="196.5" y="-382" font-family="Helvetica,sans-Serif" font-size="10.00" fill="#000000">+triggerBC</text>
<text text-anchor="middle" x="196.5" y="-371" font-family="Helvetica,sans-Serif" font-size="10.00" fill="#000000">+zero41</text>
<text text-anchor="middle" x="196.5" y="-360" font-family="Helvetica,sans-Serif" font-size="10.00" fill="#000000">...</text>
</g>
<!-- Node5 -->
<g id="node5" class="node">
<title>Node5</title>
<polygon fill="none" stroke="#bfbfbf" points="207.5,-496.5 207.5,-553.5 263.5,-553.5 263.5,-496.5 207.5,-496.5"/>
<text text-anchor="middle" x="235.5" y="-541.5" font-family="Helvetica,sans-Serif" font-size="10.00" fill="#000000">uint16_t</text>
<polyline fill="none" stroke="#bfbfbf" points="207.5,-534.5 263.5,-534.5 "/>
<text text-anchor="middle" x="235.5" y="-522.5" font-family="Helvetica,sans-Serif" font-size="10.00" fill="#000000"> </text>
<polyline fill="none" stroke="#bfbfbf" points="207.5,-515.5 263.5,-515.5 "/>
<text text-anchor="middle" x="235.5" y="-503.5" font-family="Helvetica,sans-Serif" font-size="10.00" fill="#000000"> </text>
</g>
<!-- Node5&#45;&gt;Node2 -->
<g id="edge4" class="edge">
<title>Node5&#45;&gt;Node2</title>
<path fill="none" stroke="#404040" d="M233.5606,-496.3615C231.3057,-454.2716 229.6903,-378.3777 245.5,-357 272.7826,-320.1087 384.5843,-284.2421 467.9583,-261.8097"/>
<polygon fill="none" stroke="#404040" points="468.1836,-261.7499 472.9546,-256.3427 479.7808,-258.667 475.0099,-264.0742 468.1836,-261.7499"/>
<text text-anchor="middle" x="264" y="-415" font-family="Helvetica,sans-Serif" font-size="10.00" fill="#000000"> +cruID</text>
</g>
<!-- Node6 -->
<g id="node6" class="node">
<title>Node6</title>
<polygon fill="none" stroke="#bfbfbf" points="281.5,-496.5 281.5,-553.5 331.5,-553.5 331.5,-496.5 281.5,-496.5"/>
<text text-anchor="middle" x="306.5" y="-541.5" font-family="Helvetica,sans-Serif" font-size="10.00" fill="#000000">uint8_t</text>
<polyline fill="none" stroke="#bfbfbf" points="281.5,-534.5 331.5,-534.5 "/>
<text text-anchor="middle" x="306.5" y="-522.5" font-family="Helvetica,sans-Serif" font-size="10.00" fill="#000000"> </text>
<polyline fill="none" stroke="#bfbfbf" points="281.5,-515.5 331.5,-515.5 "/>
<text text-anchor="middle" x="306.5" y="-503.5" font-family="Helvetica,sans-Serif" font-size="10.00" fill="#000000"> </text>
</g>
<!-- Node6&#45;&gt;Node2 -->
<g id="edge5" class="edge">
<title>Node6&#45;&gt;Node2</title>
<path fill="none" stroke="#404040" d="M296.976,-496.2368C287.042,-460.5312 276.3575,-399.1993 303.5,-357 339.6516,-300.7938 409.7568,-270.9274 468.0682,-255.2438"/>
<polygon fill="none" stroke="#404040" points="468.3132,-255.1811 473.1316,-249.8161 479.9371,-252.2003 475.1188,-257.5653 468.3132,-255.1811"/>
<text text-anchor="middle" x="343.5" y="-426" font-family="Helvetica,sans-Serif" font-size="10.00" fill="#000000"> +linkID</text>
<text text-anchor="middle" x="343.5" y="-415" font-family="Helvetica,sans-Serif" font-size="10.00" fill="#000000">+endPointID</text>
<text text-anchor="middle" x="343.5" y="-404" font-family="Helvetica,sans-Serif" font-size="10.00" fill="#000000">+packetCounter</text>
</g>
<!-- Node7 -->
<g id="node7" class="node">
<title>Node7</title>
<g id="a_node7"><a xlink:href="../../d3/d87/classuint32__t.html" target="_top" xlink:title="{uint32_t\n||}">
<polygon fill="none" stroke="#000000" points="349.5,-496.5 349.5,-553.5 405.5,-553.5 405.5,-496.5 349.5,-496.5"/>
<text text-anchor="middle" x="377.5" y="-541.5" font-family="Helvetica,sans-Serif" font-size="10.00" fill="#000000">uint32_t</text>
<polyline fill="none" stroke="#000000" points="349.5,-534.5 405.5,-534.5 "/>
<text text-anchor="middle" x="377.5" y="-522.5" font-family="Helvetica,sans-Serif" font-size="10.00" fill="#000000"> </text>
<polyline fill="none" stroke="#000000" points="349.5,-515.5 405.5,-515.5 "/>
<text text-anchor="middle" x="377.5" y="-503.5" font-family="Helvetica,sans-Serif" font-size="10.00" fill="#000000"> </text>
</a>
</g>
</g>
<!-- Node7&#45;&gt;Node2 -->
<g id="edge6" class="edge">
<title>Node7&#45;&gt;Node2</title>
<path fill="none" stroke="#404040" d="M383.8806,-496.2161C385.1403,-490.2084 386.4087,-483.9065 387.5,-478 397.3902,-424.4692 378.5122,-403.6909 406.5,-357 422.0085,-331.1278 445.5061,-309.0018 469.6334,-291.117"/>
<polygon fill="none" stroke="#404040" points="469.8645,-290.9516 472.4154,-284.2068 479.6226,-283.9674 477.0716,-290.7122 469.8645,-290.9516"/>
<text text-anchor="middle" x="448" y="-431.5" font-family="Helvetica,sans-Serif" font-size="10.00" fill="#000000"> +heartbeatOrbit</text>
<text text-anchor="middle" x="448" y="-420.5" font-family="Helvetica,sans-Serif" font-size="10.00" fill="#000000">+triggerOrbit</text>
<text text-anchor="middle" x="448" y="-409.5" font-family="Helvetica,sans-Serif" font-size="10.00" fill="#000000">+memorySize</text>
<text text-anchor="middle" x="448" y="-398.5" font-family="Helvetica,sans-Serif" font-size="10.00" fill="#000000">+offsetToNext</text>
</g>
<!-- Node8 -->
<g id="node8" class="node">
<title>Node8</title>
<polygon fill="none" stroke="#bfbfbf" points="424,-496.5 424,-553.5 537,-553.5 537,-496.5 424,-496.5"/>
<text text-anchor="middle" x="480.5" y="-541.5" font-family="Helvetica,sans-Serif" font-size="10.00" fill="#000000">anonymous:+@121</text>
<polyline fill="none" stroke="#bfbfbf" points="424,-534.5 537,-534.5 "/>
<text text-anchor="middle" x="480.5" y="-522.5" font-family="Helvetica,sans-Serif" font-size="10.00" fill="#000000"> </text>
<polyline fill="none" stroke="#bfbfbf" points="424,-515.5 537,-515.5 "/>
<text text-anchor="middle" x="480.5" y="-503.5" font-family="Helvetica,sans-Serif" font-size="10.00" fill="#000000"> </text>
</g>
<!-- Node8&#45;&gt;Node2 -->
<g id="edge7" class="edge">
<title>Node8&#45;&gt;Node2</title>
<path fill="none" stroke="#404040" d="M488.7618,-496.4819C498.6367,-462.3957 515.7575,-403.2979 531.1229,-350.2594"/>
<polygon fill="none" stroke="#404040" points="531.1341,-350.2204 528.9617,-343.3443 534.4734,-338.6944 536.6458,-345.5705 531.1341,-350.2204"/>
<text text-anchor="middle" x="546.5" y="-415" font-family="Helvetica,sans-Serif" font-size="10.00" fill="#000000"> +@121</text>
</g>
<!-- Node9 -->
<g id="node9" class="node">
<title>Node9</title>
<polygon fill="none" stroke="#bfbfbf" points="555,-496.5 555,-553.5 668,-553.5 668,-496.5 555,-496.5"/>
<text text-anchor="middle" x="611.5" y="-541.5" font-family="Helvetica,sans-Serif" font-size="10.00" fill="#000000">anonymous:+@131</text>
<polyline fill="none" stroke="#bfbfbf" points="555,-534.5 668,-534.5 "/>
<text text-anchor="middle" x="611.5" y="-522.5" font-family="Helvetica,sans-Serif" font-size="10.00" fill="#000000"> </text>
<polyline fill="none" stroke="#bfbfbf" points="555,-515.5 668,-515.5 "/>
<text text-anchor="middle" x="611.5" y="-503.5" font-family="Helvetica,sans-Serif" font-size="10.00" fill="#000000"> </text>
</g>
<!-- Node9&#45;&gt;Node2 -->
<g id="edge8" class="edge">
<title>Node9&#45;&gt;Node2</title>
<path fill="none" stroke="#404040" d="M606.7221,-496.4819C601.0233,-462.4672 591.1516,-403.5456 582.28,-350.593"/>
<polygon fill="none" stroke="#404040" points="582.2694,-350.5294 577.3329,-345.2729 580.2865,-338.6944 585.223,-343.9509 582.2694,-350.5294"/>
<text text-anchor="middle" x="622.5" y="-415" font-family="Helvetica,sans-Serif" font-size="10.00" fill="#000000"> +@131</text>
</g>
<!-- Node10 -->
<g id="node10" class="node">
<title>Node10</title>
<polygon fill="none" stroke="#bfbfbf" points="686,-496.5 686,-553.5 799,-553.5 799,-496.5 686,-496.5"/>
<text text-anchor="middle" x="742.5" y="-541.5" font-family="Helvetica,sans-Serif" font-size="10.00" fill="#000000">anonymous:+@123</text>
<polyline fill="none" stroke="#bfbfbf" points="686,-534.5 799,-534.5 "/>
<text text-anchor="middle" x="742.5" y="-522.5" font-family="Helvetica,sans-Serif" font-size="10.00" fill="#000000"> </text>
<polyline fill="none" stroke="#bfbfbf" points="686,-515.5 799,-515.5 "/>
<text text-anchor="middle" x="742.5" y="-503.5" font-family="Helvetica,sans-Serif" font-size="10.00" fill="#000000"> </text>
</g>
<!-- Node10&#45;&gt;Node2 -->
<g id="edge9" class="edge">
<title>Node10&#45;&gt;Node2</title>
<path fill="none" stroke="#404040" d="M727.144,-496.2911C708.8101,-462.4618 676.8103,-404.8045 646.5,-357 644.7631,-354.2606 642.9902,-351.496 641.1893,-348.7157"/>
<polygon fill="none" stroke="#404040" points="641.1369,-348.6355 634.503,-345.8084 634.5612,-338.5975 641.1951,-341.4246 641.1369,-348.6355"/>
<text text-anchor="middle" x="735.5" y="-415" font-family="Helvetica,sans-Serif" font-size="10.00" fill="#000000"> +@123</text>
</g>
<!-- Node11 -->
<g id="node11" class="node">
<title>Node11</title>
<polygon fill="none" stroke="#bfbfbf" points="817,-496.5 817,-553.5 930,-553.5 930,-496.5 817,-496.5"/>
<text text-anchor="middle" x="873.5" y="-541.5" font-family="Helvetica,sans-Serif" font-size="10.00" fill="#000000">anonymous:+@133</text>
<polyline fill="none" stroke="#bfbfbf" points="817,-534.5 930,-534.5 "/>
<text text-anchor="middle" x="873.5" y="-522.5" font-family="Helvetica,sans-Serif" font-size="10.00" fill="#000000"> </text>
<polyline fill="none" stroke="#bfbfbf" points="817,-515.5 930,-515.5 "/>
<text text-anchor="middle" x="873.5" y="-503.5" font-family="Helvetica,sans-Serif" font-size="10.00" fill="#000000"> </text>
</g>
<!-- Node11&#45;&gt;Node2 -->
<g id="edge10" class="edge">
<title>Node11&#45;&gt;Node2</title>
<path fill="none" stroke="#404040" d="M859.104,-496.3977C840.033,-460.5817 803.6055,-398.8525 759.5,-357 729.7004,-328.7227 692.0316,-303.9694 657.6982,-284.5012"/>
<polygon fill="none" stroke="#404040" points="657.6452,-284.4717 650.457,-285.0455 647.1625,-278.6309 654.3508,-278.0571 657.6452,-284.4717"/>
<text text-anchor="middle" x="867.5" y="-415" font-family="Helvetica,sans-Serif" font-size="10.00" fill="#000000"> +@133</text>
</g>
<!-- Node12 -->
<g id="node12" class="node">
<title>Node12</title>
<polygon fill="none" stroke="#bfbfbf" points="948,-496.5 948,-553.5 1061,-553.5 1061,-496.5 948,-496.5"/>
<text text-anchor="middle" x="1004.5" y="-541.5" font-family="Helvetica,sans-Serif" font-size="10.00" fill="#000000">anonymous:+@125</text>
<polyline fill="none" stroke="#bfbfbf" points="948,-534.5 1061,-534.5 "/>
<text text-anchor="middle" x="1004.5" y="-522.5" font-family="Helvetica,sans-Serif" font-size="10.00" fill="#000000"> </text>
<polyline fill="none" stroke="#bfbfbf" points="948,-515.5 1061,-515.5 "/>
<text text-anchor="middle" x="1004.5" y="-503.5" font-family="Helvetica,sans-Serif" font-size="10.00" fill="#000000"> </text>
</g>
<!-- Node12&#45;&gt;Node2 -->
<g id="edge11" class="edge">
<title>Node12&#45;&gt;Node2</title>
<path fill="none" stroke="#404040" d="M992.1365,-496.2341C974.7923,-459.0865 939.8551,-394.7372 891.5,-357 823.2541,-303.7396 728.9261,-273.008 658.9384,-256.2538"/>
<polygon fill="none" stroke="#404040" points="658.7333,-256.2061 651.9825,-258.7412 647.0459,-253.4848 653.7967,-250.9497 658.7333,-256.2061"/>
<text text-anchor="middle" x="1002.5" y="-415" font-family="Helvetica,sans-Serif" font-size="10.00" fill="#000000"> +@125</text>
</g>
<!-- Node13 -->
<g id="node13" class="node">
<title>Node13</title>
<polygon fill="none" stroke="#bfbfbf" points="1079,-496.5 1079,-553.5 1192,-553.5 1192,-496.5 1079,-496.5"/>
<text text-anchor="middle" x="1135.5" y="-541.5" font-family="Helvetica,sans-Serif" font-size="10.00" fill="#000000">anonymous:+@135</text>
<polyline fill="none" stroke="#bfbfbf" points="1079,-534.5 1192,-534.5 "/>
<text text-anchor="middle" x="1135.5" y="-522.5" font-family="Helvetica,sans-Serif" font-size="10.00" fill="#000000"> </text>
<polyline fill="none" stroke="#bfbfbf" points="1079,-515.5 1192,-515.5 "/>
<text text-anchor="middle" x="1135.5" y="-503.5" font-family="Helvetica,sans-Serif" font-size="10.00" fill="#000000"> </text>
</g>
<!-- Node13&#45;&gt;Node2 -->
<g id="edge12" class="edge">
<title>Node13&#45;&gt;Node2</title>
<path fill="none" stroke="#404040" d="M1124.7794,-496.4939C1109.0812,-458.7181 1076.1986,-392.699 1026.5,-357 968.1077,-315.0562 776.5995,-275.5964 658.9587,-254.4786"/>
<polygon fill="none" stroke="#404040" points="658.9221,-254.4721 652.3138,-257.3583 647.1079,-252.3683 653.7163,-249.4822 658.9221,-254.4721"/>
<text text-anchor="middle" x="1135.5" y="-415" font-family="Helvetica,sans-Serif" font-size="10.00" fill="#000000"> +@135</text>
</g>
<!-- Node14 -->
<g id="node14" class="node">
<title>Node14</title>
<polygon fill="none" stroke="#bfbfbf" points="1210,-496.5 1210,-553.5 1323,-553.5 1323,-496.5 1210,-496.5"/>
<text text-anchor="middle" x="1266.5" y="-541.5" font-family="Helvetica,sans-Serif" font-size="10.00" fill="#000000">anonymous:+@127</text>
<polyline fill="none" stroke="#bfbfbf" points="1210,-534.5 1323,-534.5 "/>
<text text-anchor="middle" x="1266.5" y="-522.5" font-family="Helvetica,sans-Serif" font-size="10.00" fill="#000000"> </text>
<polyline fill="none" stroke="#bfbfbf" points="1210,-515.5 1323,-515.5 "/>
<text text-anchor="middle" x="1266.5" y="-503.5" font-family="Helvetica,sans-Serif" font-size="10.00" fill="#000000"> </text>
</g>
<!-- Node14&#45;&gt;Node2 -->
<g id="edge13" class="edge">
<title>Node14&#45;&gt;Node2</title>
<path fill="none" stroke="#404040" d="M1256.5262,-496.4276C1241.6491,-458.2615 1209.8742,-391.4609 1159.5,-357 1079.3606,-302.1767 806.3224,-264.9268 659.2248,-248.3231"/>
<polygon fill="none" stroke="#404040" points="659.0505,-248.3038 652.6436,-251.6131 647.1246,-246.9718 653.5315,-243.6625 659.0505,-248.3038"/>
<text text-anchor="middle" x="1267.5" y="-415" font-family="Helvetica,sans-Serif" font-size="10.00" fill="#000000"> +@127</text>
</g>
</g>
</svg>
        <g id="navigator" transform="translate(0 0)" fill="#404254">
                <rect fill="#f2f5e9" fill-opacity="0.5" stroke="#606060" stroke-width=".5" x="0" y="0" width="60" height="60"/>
                <use id="zoomplus" xlink:href="#zoomPlus" x="17" y="9" onmousedown="handleZoom(evt,'in')"/>
                <use id="zoomminus" xlink:href="#zoomMin" x="42" y="9" onmousedown="handleZoom(evt,'out')"/>
                <use id="reset" xlink:href="#resetDef" x="30" y="36" onmousedown="handleReset()"/>
                <g id="arrowUp" xlink:href="#dirArrow" transform="translate(30 24)" onmousedown="handlePan(0,-1)">
                  <use xlink:href="#rim" fill="#404040">
                        <set attributeName="fill" to="#808080" begin="arrowUp.mouseover" end="arrowUp.mouseout"/>
                  </use>
                  <path fill="none" stroke="white" stroke-width="1.5" d="M0,-3.0v7 M-2.5,-0.5L0,-3.0L2.5,-0.5"/>
                </g>
                <g id="arrowRight" xlink:href="#dirArrow" transform="rotate(90) translate(36 -43)" onmousedown="handlePan(1,0)">
                  <use xlink:href="#rim" fill="#404040">
                        <set attributeName="fill" to="#808080" begin="arrowRight.mouseover" end="arrowRight.mouseout"/>
                  </use>
                  <path fill="none" stroke="white" stroke-width="1.5" d="M0,-3.0v7 M-2.5,-0.5L0,-3.0L2.5,-0.5"/>
                </g>
                <g id="arrowDown" xlink:href="#dirArrow" transform="rotate(180) translate(-30 -48)" onmousedown="handlePan(0,1)">
                  <use xlink:href="#rim" fill="#404040">
                        <set attributeName="fill" to="#808080" begin="arrowDown.mouseover" end="arrowDown.mouseout"/>
                  </use>
                  <path fill="none" stroke="white" stroke-width="1.5" d="M0,-3.0v7 M-2.5,-0.5L0,-3.0L2.5,-0.5"/>
                </g>
                <g id="arrowLeft" xlink:href="#dirArrow" transform="rotate(270) translate(-36 17)" onmousedown="handlePan(-1,0)">
                  <use xlink:href="#rim" fill="#404040">
                        <set attributeName="fill" to="#808080" begin="arrowLeft.mouseover" end="arrowLeft.mouseout"/>
                  </use>
                  <path fill="none" stroke="white" stroke-width="1.5" d="M0,-3.0v7 M-2.5,-0.5L0,-3.0L2.5,-0.5"/>
                </g>
        </g>
        <svg viewBox="0 0 15 15" width="100%" height="30px" preserveAspectRatio="xMaxYMin meet">
         <g id="arrow_out" transform="scale(0.3 0.3)">
          <a xlink:href="classo2_1_1framework_1_1DPLRawParser__coll__graph_org.svg" target="_base">
           <rect id="button" ry="5" rx="5" y="6" x="6" height="38" width="38"
                fill="#f2f5e9" fill-opacity="0.5" stroke="#606060" stroke-width="1.0"/>
           <path id="arrow"
             d="M 11.500037,31.436501 C 11.940474,20.09759 22.043105,11.32322 32.158766,21.979434 L 37.068811,17.246167 C 37.068811,17.246167 37.088388,32 37.088388,32 L 22.160133,31.978069 C 22.160133,31.978069 26.997745,27.140456 26.997745,27.140456 C 18.528582,18.264221 13.291696,25.230495 11.500037,31.436501 z"
             style="fill:#404040;"/>
          </a>
         </g>
        </svg>
</svg>
