<?xml version="1.0" encoding="UTF-8" standalone="no"?>
<!DOCTYPE svg PUBLIC "-//W3C//DTD SVG 1.1//EN"
 "http://www.w3.org/Graphics/SVG/1.1/DTD/svg11.dtd">
<!-- Generated by graphviz version 2.40.1 (20161225.0304)
 -->
<!-- Title: /home/travis/build/AliceO2Group/AliceO2/Framework/Foundation/include/Framework/Tracing.h Pages: 1 -->
<svg width="571pt" height="239pt"
 viewBox="0.00 0.00 571.00 239.00" xmlns="http://www.w3.org/2000/svg" xmlns:xlink="http://www.w3.org/1999/xlink">
<g id="graph0" class="graph" transform="scale(1 1) rotate(0) translate(4 235)">
<title>/home/travis/build/AliceO2Group/AliceO2/Framework/Foundation/include/Framework/Tracing.h</title>
<!-- Node1 -->
<g id="node1" class="node">
<title>Node1</title>
<polygon fill="#bfbfbf" stroke="#000000" points="143.5,-178.5 143.5,-230.5 301.5,-230.5 301.5,-178.5 143.5,-178.5"/>
<text text-anchor="start" x="151.5" y="-218.5" font-family="Helvetica,sans-Serif" font-size="10.00" fill="#000000">/home/travis/build</text>
<text text-anchor="start" x="151.5" y="-207.5" font-family="Helvetica,sans-Serif" font-size="10.00" fill="#000000">/AliceO2Group/AliceO2</text>
<text text-anchor="start" x="151.5" y="-196.5" font-family="Helvetica,sans-Serif" font-size="10.00" fill="#000000">/Framework/Foundation</text>
<text text-anchor="middle" x="222.5" y="-185.5" font-family="Helvetica,sans-Serif" font-size="10.00" fill="#000000">/include/Framework/Tracing.h</text>
</g>
<!-- Node2 -->
<g id="node2" class="node">
<title>Node2</title>
<g id="a_node2"><a xlink:href="../../d3/d4b/DataProcessingDevice_8h.html" target="_top" xlink:title="/home/travis/build\l/AliceO2Group/AliceO2\l/Framework/Core/include\l/Framework/DataProcessingDevice.h">
<polygon fill="none" stroke="#000000" points="125,-89.5 125,-141.5 320,-141.5 320,-89.5 125,-89.5"/>
<text text-anchor="start" x="133" y="-129.5" font-family="Helvetica,sans-Serif" font-size="10.00" fill="#000000">/home/travis/build</text>
<text text-anchor="start" x="133" y="-118.5" font-family="Helvetica,sans-Serif" font-size="10.00" fill="#000000">/AliceO2Group/AliceO2</text>
<text text-anchor="start" x="133" y="-107.5" font-family="Helvetica,sans-Serif" font-size="10.00" fill="#000000">/Framework/Core/include</text>
<text text-anchor="middle" x="222.5" y="-96.5" font-family="Helvetica,sans-Serif" font-size="10.00" fill="#000000">/Framework/DataProcessingDevice.h</text>
</a>
</g>
</g>
<!-- Node1&#45;&gt;Node2 -->
<g id="edge1" class="edge">
<title>Node1&#45;&gt;Node2</title>
<path fill="none" stroke="#191970" d="M222.5,-168.1155C222.5,-159.2061 222.5,-149.8475 222.5,-141.5341"/>
<polygon fill="#191970" stroke="#191970" points="219.0001,-168.2784 222.5,-178.2784 226.0001,-168.2785 219.0001,-168.2784"/>
</g>
<!-- Node3 -->
<g id="node3" class="node">
<title>Node3</title>
<g id="a_node3"><a xlink:href="../../db/dac/DataProcessingDevice_8cxx.html" target="_top" xlink:title="/home/travis/build\l/AliceO2Group/AliceO2\l/Framework/Core/src/DataProcessing\lDevice.cxx">
<polygon fill="none" stroke="#000000" points="0,-.5 0,-52.5 195,-52.5 195,-.5 0,-.5"/>
<text text-anchor="start" x="8" y="-40.5" font-family="Helvetica,sans-Serif" font-size="10.00" fill="#000000">/home/travis/build</text>
<text text-anchor="start" x="8" y="-29.5" font-family="Helvetica,sans-Serif" font-size="10.00" fill="#000000">/AliceO2Group/AliceO2</text>
<text text-anchor="start" x="8" y="-18.5" font-family="Helvetica,sans-Serif" font-size="10.00" fill="#000000">/Framework/Core/src/DataProcessing</text>
<text text-anchor="middle" x="97.5" y="-7.5" font-family="Helvetica,sans-Serif" font-size="10.00" fill="#000000">Device.cxx</text>
</a>
</g>
</g>
<!-- Node1&#45;&gt;Node3 -->
<g id="edge5" class="edge">
<title>Node1&#45;&gt;Node3</title>
<path fill="none" stroke="#191970" d="M149.2575,-172.9577C136.6632,-164.5648 124.9355,-154.3158 116.5,-142 98.356,-115.5099 95.371,-77.7222 95.7446,-52.673"/>
<polygon fill="#191970" stroke="#191970" points="147.7501,-176.1428 158.0852,-178.4742 151.4597,-170.2066 147.7501,-176.1428"/>
</g>
<!-- Node5 -->
<g id="node5" class="node">
<title>Node5</title>
<g id="a_node5"><a xlink:href="../../dd/d27/CommonServices_8cxx.html" target="_top" xlink:title="/home/travis/build\l/AliceO2Group/AliceO2\l/Framework/Core/src/CommonServices.cxx">
<polygon fill="none" stroke="#000000" points="338,-95 338,-136 563,-136 563,-95 338,-95"/>
<text text-anchor="start" x="346" y="-124" font-family="Helvetica,sans-Serif" font-size="10.00" fill="#000000">/home/travis/build</text>
<text text-anchor="start" x="346" y="-113" font-family="Helvetica,sans-Serif" font-size="10.00" fill="#000000">/AliceO2Group/AliceO2</text>
<text text-anchor="middle" x="450.5" y="-102" font-family="Helvetica,sans-Serif" font-size="10.00" fill="#000000">/Framework/Core/src/CommonServices.cxx</text>
</a>
</g>
</g>
<!-- Node1&#45;&gt;Node5 -->
<g id="edge4" class="edge">
<title>Node1&#45;&gt;Node5</title>
<path fill="none" stroke="#191970" d="M298.8394,-174.7008C331.3196,-162.0222 368.3948,-147.5498 397.7575,-136.0881"/>
<polygon fill="#191970" stroke="#191970" points="297.4097,-171.5017 289.367,-178.3984 299.9551,-178.0225 297.4097,-171.5017"/>
</g>
<!-- Node2&#45;&gt;Node3 -->
<g id="edge2" class="edge">
<title>Node2&#45;&gt;Node3</title>
<path fill="none" stroke="#191970" d="M177.4593,-83.431C163.2101,-73.2856 147.6446,-62.203 134.0648,-52.5341"/>
<polygon fill="#191970" stroke="#191970" points="175.4958,-86.3295 185.672,-89.2784 179.5558,-80.6272 175.4958,-86.3295"/>
</g>
<!-- Node4 -->
<g id="node4" class="node">
<title>Node4</title>
<g id="a_node4"><a xlink:href="../../d7/d54/runDataProcessing_8cxx.html" target="_top" xlink:title="/home/travis/build\l/AliceO2Group/AliceO2\l/Framework/Core/src/runDataProcessing.cxx">
<polygon fill="none" stroke="#000000" points="213,-6 213,-47 444,-47 444,-6 213,-6"/>
<text text-anchor="start" x="221" y="-35" font-family="Helvetica,sans-Serif" font-size="10.00" fill="#000000">/home/travis/build</text>
<text text-anchor="start" x="221" y="-24" font-family="Helvetica,sans-Serif" font-size="10.00" fill="#000000">/AliceO2Group/AliceO2</text>
<text text-anchor="middle" x="328.5" y="-13" font-family="Helvetica,sans-Serif" font-size="10.00" fill="#000000">/Framework/Core/src/runDataProcessing.cxx</text>
</a>
</g>
</g>
<!-- Node2&#45;&gt;Node4 -->
<g id="edge3" class="edge">
<title>Node2&#45;&gt;Node4</title>
<path fill="none" stroke="#191970" d="M261.4364,-82.8081C275.6274,-70.893 291.2684,-57.7605 303.8733,-47.1771"/>
<polygon fill="#191970" stroke="#191970" points="259.1381,-80.1677 253.7302,-89.2784 263.6393,-85.5286 259.1381,-80.1677"/>
</g>
</g>
</svg>
