<?xml version="1.0" encoding="UTF-8" standalone="no"?>
<!DOCTYPE svg PUBLIC "-//W3C//DTD SVG 1.1//EN"
 "http://www.w3.org/Graphics/SVG/1.1/DTD/svg11.dtd">
<!-- Generated by graphviz version 2.40.1 (20161225.0304)
 -->
<!-- Title: o2::tpc::zerosupp_link_based::Header Pages: 1 -->
<svg width="469pt" height="226pt"
 viewBox="0.00 0.00 468.50 226.00" xmlns="http://www.w3.org/2000/svg" xmlns:xlink="http://www.w3.org/1999/xlink">
<g id="graph0" class="graph" transform="scale(1 1) rotate(0) translate(4 222)">
<title>o2::tpc::zerosupp_link_based::Header</title>
<!-- Node1 -->
<g id="node1" class="node">
<title>Node1</title>
<polygon fill="#bfbfbf" stroke="#000000" points="162,-.5 162,-68.5 285,-68.5 285,-.5 162,-.5"/>
<text text-anchor="start" x="170" y="-56.5" font-family="Helvetica,sans-Serif" font-size="10.00" fill="#000000">o2::tpc::zerosupp_link</text>
<text text-anchor="middle" x="223.5" y="-45.5" font-family="Helvetica,sans-Serif" font-size="10.00" fill="#000000">_based::Header</text>
<polyline fill="none" stroke="#000000" points="162,-38.5 285,-38.5 "/>
<text text-anchor="middle" x="223.5" y="-26.5" font-family="Helvetica,sans-Serif" font-size="10.00" fill="#000000"> </text>
<polyline fill="none" stroke="#000000" points="162,-19.5 285,-19.5 "/>
<text text-anchor="start" x="170" y="-7.5" font-family="Helvetica,sans-Serif" font-size="10.00" fill="#000000">+ getChannelBits()</text>
</g>
<!-- Node2 -->
<g id="node2" class="node">
<title>Node2</title>
<polygon fill="none" stroke="#bfbfbf" points="0,-160.5 0,-217.5 107,-217.5 107,-160.5 0,-160.5"/>
<text text-anchor="middle" x="53.5" y="-205.5" font-family="Helvetica,sans-Serif" font-size="10.00" fill="#000000">anonymous:+@27</text>
<polyline fill="none" stroke="#bfbfbf" points="0,-198.5 107,-198.5 "/>
<text text-anchor="middle" x="53.5" y="-186.5" font-family="Helvetica,sans-Serif" font-size="10.00" fill="#000000"> </text>
<polyline fill="none" stroke="#bfbfbf" points="0,-179.5 107,-179.5 "/>
<text text-anchor="middle" x="53.5" y="-167.5" font-family="Helvetica,sans-Serif" font-size="10.00" fill="#000000"> </text>
</g>
<!-- Node2&#45;&gt;Node1 -->
<g id="edge1" class="edge">
<title>Node2&#45;&gt;Node1</title>
<path fill="none" stroke="#404040" d="M79.9257,-160.2214C99.7375,-139.1739 127.904,-110.344 154.5,-87 158.5549,-83.4409 162.8271,-79.8492 167.176,-76.3038"/>
<polygon fill="none" stroke="#404040" points="167.3877,-76.1348 169.5805,-69.2652 176.7651,-68.6471 174.5723,-75.5167 167.3877,-76.1348"/>
<text text-anchor="middle" x="171.5" y="-112" font-family="Helvetica,sans-Serif" font-size="10.00" fill="#000000"> +@27</text>
</g>
<!-- Node3 -->
<g id="node3" class="node">
<title>Node3</title>
<polygon fill="none" stroke="#bfbfbf" points="125,-160.5 125,-217.5 232,-217.5 232,-160.5 125,-160.5"/>
<text text-anchor="middle" x="178.5" y="-205.5" font-family="Helvetica,sans-Serif" font-size="10.00" fill="#000000">anonymous:+@29</text>
<polyline fill="none" stroke="#bfbfbf" points="125,-198.5 232,-198.5 "/>
<text text-anchor="middle" x="178.5" y="-186.5" font-family="Helvetica,sans-Serif" font-size="10.00" fill="#000000"> </text>
<polyline fill="none" stroke="#bfbfbf" points="125,-179.5 232,-179.5 "/>
<text text-anchor="middle" x="178.5" y="-167.5" font-family="Helvetica,sans-Serif" font-size="10.00" fill="#000000"> </text>
</g>
<!-- Node3&#45;&gt;Node1 -->
<g id="edge2" class="edge">
<title>Node3&#45;&gt;Node1</title>
<path fill="none" stroke="#404040" d="M186.8587,-160.3018C193.3756,-137.9273 202.5541,-106.4143 210.0943,-80.5263"/>
<polygon fill="none" stroke="#404040" points="210.1806,-80.2297 208.0181,-73.3505 213.5364,-68.7084 215.6989,-75.5876 210.1806,-80.2297"/>
<text text-anchor="middle" x="224.5" y="-112" font-family="Helvetica,sans-Serif" font-size="10.00" fill="#000000"> +@29</text>
</g>
<!-- Node4 -->
<g id="node4" class="node">
<title>Node4</title>
<g id="a_node4"><a xlink:href="../../d6/d30/classuint64__t.html" target="_top" xlink:title="{uint64_t\n||}">
<polygon fill="none" stroke="#000000" points="250.5,-160.5 250.5,-217.5 306.5,-217.5 306.5,-160.5 250.5,-160.5"/>
<text text-anchor="middle" x="278.5" y="-205.5" font-family="Helvetica,sans-Serif" font-size="10.00" fill="#000000">uint64_t</text>
<polyline fill="none" stroke="#000000" points="250.5,-198.5 306.5,-198.5 "/>
<text text-anchor="middle" x="278.5" y="-186.5" font-family="Helvetica,sans-Serif" font-size="10.00" fill="#000000"> </text>
<polyline fill="none" stroke="#000000" points="250.5,-179.5 306.5,-179.5 "/>
<text text-anchor="middle" x="278.5" y="-167.5" font-family="Helvetica,sans-Serif" font-size="10.00" fill="#000000"> </text>
</a>
</g>
</g>
<!-- Node4&#45;&gt;Node1 -->
<g id="edge3" class="edge">
<title>Node4&#45;&gt;Node1</title>
<path fill="none" stroke="#404040" d="M269.8903,-160.201C263.5743,-139.6481 254.5537,-111.4334 245.5,-87 244.6281,-84.6471 243.7128,-82.2445 242.7712,-79.8252"/>
<polygon fill="none" stroke="#404040" points="242.6995,-79.6459 236.7555,-75.5632 238.238,-68.5061 244.1821,-72.5889 242.6995,-79.6459"/>
<text text-anchor="middle" x="297.5" y="-134" font-family="Helvetica,sans-Serif" font-size="10.00" fill="#000000"> +zero</text>
<text text-anchor="middle" x="297.5" y="-123" font-family="Helvetica,sans-Serif" font-size="10.00" fill="#000000">+bitMaskLow</text>
<text text-anchor="middle" x="297.5" y="-112" font-family="Helvetica,sans-Serif" font-size="10.00" fill="#000000">+word0</text>
<text text-anchor="middle" x="297.5" y="-101" font-family="Helvetica,sans-Serif" font-size="10.00" fill="#000000">+word1</text>
<text text-anchor="middle" x="297.5" y="-90" font-family="Helvetica,sans-Serif" font-size="10.00" fill="#000000">+bitMaskHigh</text>
</g>
<!-- Node5 -->
<g id="node5" class="node">
<title>Node5</title>
<g id="a_node5"><a xlink:href="../../d3/d87/classuint32__t.html" target="_top" xlink:title="{uint32_t\n||}">
<polygon fill="none" stroke="#000000" points="333.5,-160.5 333.5,-217.5 389.5,-217.5 389.5,-160.5 333.5,-160.5"/>
<text text-anchor="middle" x="361.5" y="-205.5" font-family="Helvetica,sans-Serif" font-size="10.00" fill="#000000">uint32_t</text>
<polyline fill="none" stroke="#000000" points="333.5,-198.5 389.5,-198.5 "/>
<text text-anchor="middle" x="361.5" y="-186.5" font-family="Helvetica,sans-Serif" font-size="10.00" fill="#000000"> </text>
<polyline fill="none" stroke="#000000" points="333.5,-179.5 389.5,-179.5 "/>
<text text-anchor="middle" x="361.5" y="-167.5" font-family="Helvetica,sans-Serif" font-size="10.00" fill="#000000"> </text>
</a>
</g>
</g>
<!-- Node5&#45;&gt;Node1 -->
<g id="edge4" class="edge">
<title>Node5&#45;&gt;Node1</title>
<path fill="none" stroke="#404040" d="M360.9832,-160.0761C359.1595,-137.8467 353.4055,-107.5621 336.5,-87 325.8873,-74.0919 311.3901,-64.1935 296.3189,-56.6638"/>
<polygon fill="none" stroke="#404040" points="296.1925,-56.6056 289.0699,-57.732 285.2908,-51.5904 292.4134,-50.4641 296.1925,-56.6056"/>
<text text-anchor="middle" x="409.5" y="-117.5" font-family="Helvetica,sans-Serif" font-size="10.00" fill="#000000"> +numWordsPayload</text>
<text text-anchor="middle" x="409.5" y="-106.5" font-family="Helvetica,sans-Serif" font-size="10.00" fill="#000000">+bunchCrossing</text>
</g>
</g>
</svg>
