<?xml version="1.0" encoding="UTF-8" standalone="no"?>
<!DOCTYPE svg PUBLIC "-//W3C//DTD SVG 1.1//EN"
 "http://www.w3.org/Graphics/SVG/1.1/DTD/svg11.dtd">
<!-- Generated by graphviz version 2.40.1 (20161225.0304)
 -->
<!-- Title: o2::emcal::EMCALBlockHeader Pages: 1 -->
<svg width="1054pt" height="1003pt"
 viewBox="0.00 0.00 1053.84 1003.00" xmlns="http://www.w3.org/2000/svg" xmlns:xlink="http://www.w3.org/1999/xlink">
<g id="graph0" class="graph" transform="scale(1 1) rotate(0) translate(4 999)">
<title>o2::emcal::EMCALBlockHeader</title>
<!-- Node2 -->
<g id="node1" class="node">
<title>Node2</title>
<polygon fill="#bfbfbf" stroke="#000000" points="822.8389,-.5 822.8389,-57.5 988.8389,-57.5 988.8389,-.5 822.8389,-.5"/>
<text text-anchor="middle" x="905.8389" y="-45.5" font-family="Helvetica,sans-Serif" font-size="10.00" fill="#000000">o2::emcal::EMCALBlockHeader</text>
<polyline fill="none" stroke="#000000" points="822.8389,-38.5 988.8389,-38.5 "/>
<text text-anchor="middle" x="905.8389" y="-26.5" font-family="Helvetica,sans-Serif" font-size="10.00" fill="#000000"> </text>
<polyline fill="none" stroke="#000000" points="822.8389,-19.5 988.8389,-19.5 "/>
<text text-anchor="start" x="830.8389" y="-7.5" font-family="Helvetica,sans-Serif" font-size="10.00" fill="#000000">+ EMCALBlockHeader()</text>
</g>
<!-- Node3 -->
<g id="node2" class="node">
<title>Node3</title>
<g id="a_node2"><a xlink:href="../../d8/dbd/structo2_1_1header_1_1BaseHeader.html" target="_top" xlink:title="the base header struct Every header type must begin (i.e. derive) with this. Don&#39;t use this struct di...">
<polygon fill="none" stroke="#000000" points="383.3389,-105.5 383.3389,-272.5 556.3389,-272.5 556.3389,-105.5 383.3389,-105.5"/>
<text text-anchor="middle" x="469.8389" y="-260.5" font-family="Helvetica,sans-Serif" font-size="10.00" fill="#000000">o2::header::BaseHeader</text>
<polyline fill="none" stroke="#000000" points="383.3389,-253.5 556.3389,-253.5 "/>
<text text-anchor="middle" x="469.8389" y="-241.5" font-family="Helvetica,sans-Serif" font-size="10.00" fill="#000000"> </text>
<polyline fill="none" stroke="#000000" points="383.3389,-234.5 556.3389,-234.5 "/>
<text text-anchor="start" x="391.3389" y="-222.5" font-family="Helvetica,sans-Serif" font-size="10.00" fill="#000000">+ BaseHeader()</text>
<text text-anchor="start" x="391.3389" y="-211.5" font-family="Helvetica,sans-Serif" font-size="10.00" fill="#000000">+ BaseHeader()</text>
<text text-anchor="start" x="391.3389" y="-200.5" font-family="Helvetica,sans-Serif" font-size="10.00" fill="#000000">+ BaseHeader()</text>
<text text-anchor="start" x="391.3389" y="-189.5" font-family="Helvetica,sans-Serif" font-size="10.00" fill="#000000">+ size()</text>
<text text-anchor="start" x="391.3389" y="-178.5" font-family="Helvetica,sans-Serif" font-size="10.00" fill="#000000">+ data()</text>
<text text-anchor="start" x="391.3389" y="-167.5" font-family="Helvetica,sans-Serif" font-size="10.00" fill="#000000">+ next()</text>
<text text-anchor="start" x="391.3389" y="-156.5" font-family="Helvetica,sans-Serif" font-size="10.00" fill="#000000">+ next()</text>
<text text-anchor="start" x="391.3389" y="-145.5" font-family="Helvetica,sans-Serif" font-size="10.00" fill="#000000">+ sanityCheck()</text>
<text text-anchor="start" x="391.3389" y="-134.5" font-family="Helvetica,sans-Serif" font-size="10.00" fill="#000000">+ throwInconsistentStackError()</text>
<text text-anchor="start" x="391.3389" y="-123.5" font-family="Helvetica,sans-Serif" font-size="10.00" fill="#000000">+ get()</text>
<text text-anchor="start" x="391.3389" y="-112.5" font-family="Helvetica,sans-Serif" font-size="10.00" fill="#000000">+ get()</text>
</a>
</g>
</g>
<!-- Node3&#45;&gt;Node2 -->
<g id="edge1" class="edge">
<title>Node3&#45;&gt;Node2</title>
<path fill="none" stroke="#191970" d="M565.9478,-153.7307C644.7313,-124.8193 754.8137,-84.4221 828.1157,-57.5223"/>
<polygon fill="none" stroke="#191970" points="564.6818,-150.467 556.4998,-157.1979 567.0934,-157.0385 564.6818,-150.467"/>
</g>
<!-- Node4 -->
<g id="node3" class="node">
<title>Node4</title>
<g id="a_node3"><a xlink:href="../../d9/db3/structo2_1_1header_1_1Descriptor.html" target="_top" xlink:title="{o2::header::Descriptor\l\&lt; gSizeHeaderDescriptionString \&gt;\n||+ Descriptor()\l+ Descriptor()\l+ Descriptor()\l+ Descriptor()\l+ operator=()\l+ operator ItgType()\l+ runtimeInit()\l+ operator==()\l+ operator==()\l+ operator\&lt;()\l+ operator!=()\l+ operator!=()\l+ as()\l+ print()\l}">
<polygon fill="none" stroke="#000000" points="295.3389,-386.5 295.3389,-597.5 480.3389,-597.5 480.3389,-386.5 295.3389,-386.5"/>
<text text-anchor="start" x="303.3389" y="-585.5" font-family="Helvetica,sans-Serif" font-size="10.00" fill="#000000">o2::header::Descriptor</text>
<text text-anchor="middle" x="387.8389" y="-574.5" font-family="Helvetica,sans-Serif" font-size="10.00" fill="#000000">&lt; gSizeHeaderDescriptionString &gt;</text>
<polyline fill="none" stroke="#000000" points="295.3389,-567.5 480.3389,-567.5 "/>
<text text-anchor="middle" x="387.8389" y="-555.5" font-family="Helvetica,sans-Serif" font-size="10.00" fill="#000000"> </text>
<polyline fill="none" stroke="#000000" points="295.3389,-548.5 480.3389,-548.5 "/>
<text text-anchor="start" x="303.3389" y="-536.5" font-family="Helvetica,sans-Serif" font-size="10.00" fill="#000000">+ Descriptor()</text>
<text text-anchor="start" x="303.3389" y="-525.5" font-family="Helvetica,sans-Serif" font-size="10.00" fill="#000000">+ Descriptor()</text>
<text text-anchor="start" x="303.3389" y="-514.5" font-family="Helvetica,sans-Serif" font-size="10.00" fill="#000000">+ Descriptor()</text>
<text text-anchor="start" x="303.3389" y="-503.5" font-family="Helvetica,sans-Serif" font-size="10.00" fill="#000000">+ Descriptor()</text>
<text text-anchor="start" x="303.3389" y="-492.5" font-family="Helvetica,sans-Serif" font-size="10.00" fill="#000000">+ operator=()</text>
<text text-anchor="start" x="303.3389" y="-481.5" font-family="Helvetica,sans-Serif" font-size="10.00" fill="#000000">+ operator ItgType()</text>
<text text-anchor="start" x="303.3389" y="-470.5" font-family="Helvetica,sans-Serif" font-size="10.00" fill="#000000">+ runtimeInit()</text>
<text text-anchor="start" x="303.3389" y="-459.5" font-family="Helvetica,sans-Serif" font-size="10.00" fill="#000000">+ operator==()</text>
<text text-anchor="start" x="303.3389" y="-448.5" font-family="Helvetica,sans-Serif" font-size="10.00" fill="#000000">+ operator==()</text>
<text text-anchor="start" x="303.3389" y="-437.5" font-family="Helvetica,sans-Serif" font-size="10.00" fill="#000000">+ operator&lt;()</text>
<text text-anchor="start" x="303.3389" y="-426.5" font-family="Helvetica,sans-Serif" font-size="10.00" fill="#000000">+ operator!=()</text>
<text text-anchor="start" x="303.3389" y="-415.5" font-family="Helvetica,sans-Serif" font-size="10.00" fill="#000000">+ operator!=()</text>
<text text-anchor="start" x="303.3389" y="-404.5" font-family="Helvetica,sans-Serif" font-size="10.00" fill="#000000">+ as()</text>
<text text-anchor="start" x="303.3389" y="-393.5" font-family="Helvetica,sans-Serif" font-size="10.00" fill="#000000">+ print()</text>
</a>
</g>
</g>
<!-- Node4&#45;&gt;Node3 -->
<g id="edge2" class="edge">
<title>Node4&#45;&gt;Node3</title>
<path fill="none" stroke="#404040" d="M416.4035,-386.4507C425.3775,-353.2903 435.2296,-316.8859 444.0032,-284.4662"/>
<polygon fill="none" stroke="#404040" points="444.0483,-284.2992 441.7547,-277.4626 447.1832,-272.7158 449.4769,-279.5524 444.0483,-284.2992"/>
<text text-anchor="middle" x="474.8389" y="-327" font-family="Helvetica,sans-Serif" font-size="10.00" fill="#000000"> +description</text>
</g>
<!-- Node5 -->
<g id="node4" class="node">
<title>Node5</title>
<polygon fill="none" stroke="#bfbfbf" points="795.3389,-937.5 795.3389,-994.5 834.3389,-994.5 834.3389,-937.5 795.3389,-937.5"/>
<text text-anchor="middle" x="814.8389" y="-982.5" font-family="Helvetica,sans-Serif" font-size="10.00" fill="#000000">Type</text>
<polyline fill="none" stroke="#bfbfbf" points="795.3389,-975.5 834.3389,-975.5 "/>
<text text-anchor="middle" x="814.8389" y="-963.5" font-family="Helvetica,sans-Serif" font-size="10.00" fill="#000000"> </text>
<polyline fill="none" stroke="#bfbfbf" points="795.3389,-956.5 834.3389,-956.5 "/>
<text text-anchor="middle" x="814.8389" y="-944.5" font-family="Helvetica,sans-Serif" font-size="10.00" fill="#000000"> </text>
</g>
<!-- Node5&#45;&gt;Node4 -->
<g id="edge3" class="edge">
<title>Node5&#45;&gt;Node4</title>
<path fill="none" stroke="#404040" d="M815.7496,-937.3803C814.9142,-920.977 811.4421,-900.7787 800.8389,-886 791.0999,-872.4257 777.2913,-881.7755 767.8389,-868 714.0667,-789.634 802.8787,-727.1244 739.8389,-656 718.5318,-631.9603 700.6508,-647.0847 669.8389,-638 640.1812,-629.2556 633.8837,-623.3049 603.8389,-616 557.1045,-604.6373 537.4817,-619.5878 491.4265,-598.6573"/>
<polygon fill="none" stroke="#404040" points="491.2614,-598.5759 484.1108,-599.5079 480.5002,-593.2657 487.6509,-592.3338 491.2614,-598.5759"/>
<text text-anchor="middle" x="780.3389" y="-759.5" font-family="Helvetica,sans-Serif" font-size="10.00" fill="#000000"> +itg</text>
</g>
<!-- Node9 -->
<g id="node8" class="node">
<title>Node9</title>
<g id="a_node8"><a xlink:href="../../d9/db3/structo2_1_1header_1_1Descriptor.html" target="_top" xlink:title="{o2::header::Descriptor\l\&lt; N, PrinterPolicy \&gt;\n||+ Descriptor()\l+ Descriptor()\l+ Descriptor()\l+ operator=()\l+ operator ItgType()\l+ Descriptor()\l+ runtimeInit()\l+ operator==()\l+ operator\&lt;()\l+ operator!=()\l+ operator==()\l+ operator!=()\l+ as()\l+ print()\l}">
<polygon fill="none" stroke="#000000" points="606.3389,-656.5 606.3389,-867.5 731.3389,-867.5 731.3389,-656.5 606.3389,-656.5"/>
<text text-anchor="start" x="614.3389" y="-855.5" font-family="Helvetica,sans-Serif" font-size="10.00" fill="#000000">o2::header::Descriptor</text>
<text text-anchor="middle" x="668.8389" y="-844.5" font-family="Helvetica,sans-Serif" font-size="10.00" fill="#000000">&lt; N, PrinterPolicy &gt;</text>
<polyline fill="none" stroke="#000000" points="606.3389,-837.5 731.3389,-837.5 "/>
<text text-anchor="middle" x="668.8389" y="-825.5" font-family="Helvetica,sans-Serif" font-size="10.00" fill="#000000"> </text>
<polyline fill="none" stroke="#000000" points="606.3389,-818.5 731.3389,-818.5 "/>
<text text-anchor="start" x="614.3389" y="-806.5" font-family="Helvetica,sans-Serif" font-size="10.00" fill="#000000">+ Descriptor()</text>
<text text-anchor="start" x="614.3389" y="-795.5" font-family="Helvetica,sans-Serif" font-size="10.00" fill="#000000">+ Descriptor()</text>
<text text-anchor="start" x="614.3389" y="-784.5" font-family="Helvetica,sans-Serif" font-size="10.00" fill="#000000">+ Descriptor()</text>
<text text-anchor="start" x="614.3389" y="-773.5" font-family="Helvetica,sans-Serif" font-size="10.00" fill="#000000">+ operator=()</text>
<text text-anchor="start" x="614.3389" y="-762.5" font-family="Helvetica,sans-Serif" font-size="10.00" fill="#000000">+ operator ItgType()</text>
<text text-anchor="start" x="614.3389" y="-751.5" font-family="Helvetica,sans-Serif" font-size="10.00" fill="#000000">+ Descriptor()</text>
<text text-anchor="start" x="614.3389" y="-740.5" font-family="Helvetica,sans-Serif" font-size="10.00" fill="#000000">+ runtimeInit()</text>
<text text-anchor="start" x="614.3389" y="-729.5" font-family="Helvetica,sans-Serif" font-size="10.00" fill="#000000">+ operator==()</text>
<text text-anchor="start" x="614.3389" y="-718.5" font-family="Helvetica,sans-Serif" font-size="10.00" fill="#000000">+ operator&lt;()</text>
<text text-anchor="start" x="614.3389" y="-707.5" font-family="Helvetica,sans-Serif" font-size="10.00" fill="#000000">+ operator!=()</text>
<text text-anchor="start" x="614.3389" y="-696.5" font-family="Helvetica,sans-Serif" font-size="10.00" fill="#000000">+ operator==()</text>
<text text-anchor="start" x="614.3389" y="-685.5" font-family="Helvetica,sans-Serif" font-size="10.00" fill="#000000">+ operator!=()</text>
<text text-anchor="start" x="614.3389" y="-674.5" font-family="Helvetica,sans-Serif" font-size="10.00" fill="#000000">+ as()</text>
<text text-anchor="start" x="614.3389" y="-663.5" font-family="Helvetica,sans-Serif" font-size="10.00" fill="#000000">+ print()</text>
</a>
</g>
</g>
<!-- Node5&#45;&gt;Node9 -->
<g id="edge8" class="edge">
<title>Node5&#45;&gt;Node9</title>
<path fill="none" stroke="#404040" d="M794.9549,-942.9221C788.6853,-935.4137 781.8345,-926.962 775.8389,-919 763.3989,-902.4798 750.6345,-884.6349 738.4507,-867.1048"/>
<polygon fill="none" stroke="#404040" points="738.1737,-866.704 731.4717,-864.0423 731.351,-856.8322 738.0529,-859.4938 738.1737,-866.704"/>
<text text-anchor="middle" x="788.3389" y="-900" font-family="Helvetica,sans-Serif" font-size="10.00" fill="#000000"> +itg</text>
</g>
<!-- Node11 -->
<g id="node10" class="node">
<title>Node11</title>
<g id="a_node10"><a xlink:href="../../d9/db3/structo2_1_1header_1_1Descriptor.html" target="_top" xlink:title="{o2::header::Descriptor\l\&lt; gSizeSerializationMethodString \&gt;\n||+ Descriptor()\l+ Descriptor()\l+ Descriptor()\l+ Descriptor()\l+ operator=()\l+ operator ItgType()\l+ runtimeInit()\l+ operator==()\l+ operator==()\l+ operator\&lt;()\l+ operator!=()\l+ operator!=()\l+ as()\l+ print()\l}">
<polygon fill="none" stroke="#000000" points="623.3389,-386.5 623.3389,-597.5 814.3389,-597.5 814.3389,-386.5 623.3389,-386.5"/>
<text text-anchor="start" x="631.3389" y="-585.5" font-family="Helvetica,sans-Serif" font-size="10.00" fill="#000000">o2::header::Descriptor</text>
<text text-anchor="middle" x="718.8389" y="-574.5" font-family="Helvetica,sans-Serif" font-size="10.00" fill="#000000">&lt; gSizeSerializationMethodString &gt;</text>
<polyline fill="none" stroke="#000000" points="623.3389,-567.5 814.3389,-567.5 "/>
<text text-anchor="middle" x="718.8389" y="-555.5" font-family="Helvetica,sans-Serif" font-size="10.00" fill="#000000"> </text>
<polyline fill="none" stroke="#000000" points="623.3389,-548.5 814.3389,-548.5 "/>
<text text-anchor="start" x="631.3389" y="-536.5" font-family="Helvetica,sans-Serif" font-size="10.00" fill="#000000">+ Descriptor()</text>
<text text-anchor="start" x="631.3389" y="-525.5" font-family="Helvetica,sans-Serif" font-size="10.00" fill="#000000">+ Descriptor()</text>
<text text-anchor="start" x="631.3389" y="-514.5" font-family="Helvetica,sans-Serif" font-size="10.00" fill="#000000">+ Descriptor()</text>
<text text-anchor="start" x="631.3389" y="-503.5" font-family="Helvetica,sans-Serif" font-size="10.00" fill="#000000">+ Descriptor()</text>
<text text-anchor="start" x="631.3389" y="-492.5" font-family="Helvetica,sans-Serif" font-size="10.00" fill="#000000">+ operator=()</text>
<text text-anchor="start" x="631.3389" y="-481.5" font-family="Helvetica,sans-Serif" font-size="10.00" fill="#000000">+ operator ItgType()</text>
<text text-anchor="start" x="631.3389" y="-470.5" font-family="Helvetica,sans-Serif" font-size="10.00" fill="#000000">+ runtimeInit()</text>
<text text-anchor="start" x="631.3389" y="-459.5" font-family="Helvetica,sans-Serif" font-size="10.00" fill="#000000">+ operator==()</text>
<text text-anchor="start" x="631.3389" y="-448.5" font-family="Helvetica,sans-Serif" font-size="10.00" fill="#000000">+ operator==()</text>
<text text-anchor="start" x="631.3389" y="-437.5" font-family="Helvetica,sans-Serif" font-size="10.00" fill="#000000">+ operator&lt;()</text>
<text text-anchor="start" x="631.3389" y="-426.5" font-family="Helvetica,sans-Serif" font-size="10.00" fill="#000000">+ operator!=()</text>
<text text-anchor="start" x="631.3389" y="-415.5" font-family="Helvetica,sans-Serif" font-size="10.00" fill="#000000">+ operator!=()</text>
<text text-anchor="start" x="631.3389" y="-404.5" font-family="Helvetica,sans-Serif" font-size="10.00" fill="#000000">+ as()</text>
<text text-anchor="start" x="631.3389" y="-393.5" font-family="Helvetica,sans-Serif" font-size="10.00" fill="#000000">+ print()</text>
</a>
</g>
</g>
<!-- Node5&#45;&gt;Node11 -->
<g id="edge15" class="edge">
<title>Node5&#45;&gt;Node11</title>
<path fill="none" stroke="#404040" d="M834.4456,-949.6207C854.0322,-931.8574 882.896,-901.5158 894.8389,-868 926.4658,-779.2443 934.3142,-741.5543 894.8389,-656 878.1968,-619.9318 856.1426,-624.8174 826.8389,-598 825.6942,-596.9524 824.5449,-595.8968 823.3917,-594.8339"/>
<polygon fill="none" stroke="#404040" points="823.2795,-594.7297 816.1613,-593.5756 814.4889,-586.561 821.607,-587.7152 823.2795,-594.7297"/>
<text text-anchor="middle" x="933.3389" y="-759.5" font-family="Helvetica,sans-Serif" font-size="10.00" fill="#000000"> +itg</text>
</g>
<!-- Node6 -->
<g id="node5" class="node">
<title>Node6</title>
<polygon fill="none" stroke="#bfbfbf" points="279.8389,-937.5 279.8389,-994.5 317.8389,-994.5 317.8389,-937.5 279.8389,-937.5"/>
<text text-anchor="middle" x="298.8389" y="-982.5" font-family="Helvetica,sans-Serif" font-size="10.00" fill="#000000">char</text>
<polyline fill="none" stroke="#bfbfbf" points="279.8389,-975.5 317.8389,-975.5 "/>
<text text-anchor="middle" x="298.8389" y="-963.5" font-family="Helvetica,sans-Serif" font-size="10.00" fill="#000000"> </text>
<polyline fill="none" stroke="#bfbfbf" points="279.8389,-956.5 317.8389,-956.5 "/>
<text text-anchor="middle" x="298.8389" y="-944.5" font-family="Helvetica,sans-Serif" font-size="10.00" fill="#000000"> </text>
</g>
<!-- Node6&#45;&gt;Node3 -->
<g id="edge13" class="edge">
<title>Node6&#45;&gt;Node3</title>
<path fill="none" stroke="#404040" d="M284.2665,-937.3067C281.5658,-931.3482 278.9386,-925.0423 276.8389,-919 269.1956,-897.0045 269.7421,-890.7636 264.8389,-868 240.8828,-756.779 203.994,-728.6629 219.8389,-616 234.65,-510.6887 233.4248,-478.5343 285.8389,-386 309.1296,-344.8817 342.6739,-305.551 374.7594,-272.995"/>
<polygon fill="none" stroke="#404040" points="374.8342,-272.9201 376.2469,-265.8487 383.3177,-264.433 381.905,-271.5044 374.8342,-272.9201"/>
<text text-anchor="middle" x="254.8389" y="-624.5" font-family="Helvetica,sans-Serif" font-size="10.00" fill="#000000"> +magicString</text>
</g>
<!-- Node6&#45;&gt;Node4 -->
<g id="edge4" class="edge">
<title>Node6&#45;&gt;Node4</title>
<path fill="none" stroke="#404040" d="M291.0164,-937.4773C277.1403,-881.955 252.325,-756.034 281.8389,-656 282.1101,-655.081 295.4208,-634.3405 312.5234,-607.8991"/>
<polygon fill="none" stroke="#404040" points="312.7239,-607.5894 312.6263,-600.3789 319.2446,-597.5156 319.3422,-604.726 312.7239,-607.5894"/>
<text text-anchor="middle" x="294.3389" y="-759.5" font-family="Helvetica,sans-Serif" font-size="10.00" fill="#000000"> +str</text>
</g>
<!-- Node6&#45;&gt;Node9 -->
<g id="edge9" class="edge">
<title>Node6&#45;&gt;Node9</title>
<path fill="none" stroke="#404040" d="M318.0421,-960.3222C379.4995,-942.0492 568.6967,-884.9681 591.8389,-868 593.5414,-866.7517 595.2217,-865.4546 596.8791,-864.1139"/>
<polygon fill="none" stroke="#404040" points="597.1038,-863.9164 598.9697,-856.9508 606.1171,-855.9941 604.2512,-862.9596 597.1038,-863.9164"/>
<text text-anchor="middle" x="557.3389" y="-900" font-family="Helvetica,sans-Serif" font-size="10.00" fill="#000000"> +str</text>
</g>
<!-- Node6&#45;&gt;Node11 -->
<g id="edge16" class="edge">
<title>Node6&#45;&gt;Node11</title>
<path fill="none" stroke="#404040" d="M301.8033,-937.4795C309.6645,-862.8776 331.0417,-666.9512 339.8389,-656 372.4181,-615.4442 399.1766,-627.8112 449.8389,-616 517.6242,-600.1968 544.9911,-626.898 612.0465,-598.1581"/>
<polygon fill="none" stroke="#404040" points="612.2562,-598.0619 616.0398,-591.9231 623.1616,-593.0545 619.378,-599.1934 612.2562,-598.0619"/>
<text text-anchor="middle" x="352.3389" y="-759.5" font-family="Helvetica,sans-Serif" font-size="10.00" fill="#000000"> +str</text>
</g>
<!-- Node7 -->
<g id="node6" class="node">
<title>Node7</title>
<polygon fill="none" stroke="#bfbfbf" points="654.3389,-937.5 654.3389,-994.5 683.3389,-994.5 683.3389,-937.5 654.3389,-937.5"/>
<text text-anchor="middle" x="668.8389" y="-982.5" font-family="Helvetica,sans-Serif" font-size="10.00" fill="#000000">int</text>
<polyline fill="none" stroke="#bfbfbf" points="654.3389,-975.5 683.3389,-975.5 "/>
<text text-anchor="middle" x="668.8389" y="-963.5" font-family="Helvetica,sans-Serif" font-size="10.00" fill="#000000"> </text>
<polyline fill="none" stroke="#bfbfbf" points="654.3389,-956.5 683.3389,-956.5 "/>
<text text-anchor="middle" x="668.8389" y="-944.5" font-family="Helvetica,sans-Serif" font-size="10.00" fill="#000000"> </text>
</g>
<!-- Node7&#45;&gt;Node4 -->
<g id="edge5" class="edge">
<title>Node7&#45;&gt;Node4</title>
<path fill="none" stroke="#404040" d="M654.212,-958.7345C638.2056,-950.3942 612.2425,-935.6954 592.8389,-919 578.2586,-906.4546 581.3453,-895.875 564.8389,-886 532.074,-866.3981 507.6883,-895.1457 480.8389,-868 413.2313,-799.646 461.4402,-749.199 437.8389,-656 434.025,-640.9389 429.6877,-625.2019 425.1991,-609.6905"/>
<polygon fill="none" stroke="#404040" points="425.1154,-609.4044 419.5905,-604.7702 421.7433,-597.8879 427.2682,-602.5221 425.1154,-609.4044"/>
<text text-anchor="middle" x="509.8389" y="-770.5" font-family="Helvetica,sans-Serif" font-size="10.00" fill="#000000"> +arraySize</text>
<text text-anchor="middle" x="509.8389" y="-759.5" font-family="Helvetica,sans-Serif" font-size="10.00" fill="#000000">+size</text>
<text text-anchor="middle" x="509.8389" y="-748.5" font-family="Helvetica,sans-Serif" font-size="10.00" fill="#000000">+bitcount</text>
</g>
<!-- Node7&#45;&gt;Node9 -->
<g id="edge10" class="edge">
<title>Node7&#45;&gt;Node9</title>
<path fill="none" stroke="#404040" d="M668.8389,-937.2045C668.8389,-921.616 668.8389,-901.2061 668.8389,-879.8459"/>
<polygon fill="none" stroke="#404040" points="668.839,-879.5491 664.839,-873.5491 668.8389,-867.5491 672.839,-873.5491 668.839,-879.5491"/>
<text text-anchor="middle" x="697.8389" y="-911" font-family="Helvetica,sans-Serif" font-size="10.00" fill="#000000"> +arraySize</text>
<text text-anchor="middle" x="697.8389" y="-900" font-family="Helvetica,sans-Serif" font-size="10.00" fill="#000000">+size</text>
<text text-anchor="middle" x="697.8389" y="-889" font-family="Helvetica,sans-Serif" font-size="10.00" fill="#000000">+bitcount</text>
</g>
<!-- Node7&#45;&gt;Node11 -->
<g id="edge17" class="edge">
<title>Node7&#45;&gt;Node11</title>
<path fill="none" stroke="#404040" d="M683.649,-963.193C706.3636,-958.1637 749.8915,-945.5584 775.8389,-919 792.9694,-901.4661 791.1467,-891.843 796.8389,-868 822.9133,-758.784 851.1608,-722.2484 814.8389,-616 814.0133,-613.5848 813.1194,-611.1803 812.1633,-608.7888"/>
<polygon fill="none" stroke="#404040" points="812.1132,-608.6753 806.0276,-604.8066 807.2582,-597.7012 813.3437,-601.5699 812.1132,-608.6753"/>
<text text-anchor="middle" x="861.8389" y="-770.5" font-family="Helvetica,sans-Serif" font-size="10.00" fill="#000000"> +arraySize</text>
<text text-anchor="middle" x="861.8389" y="-759.5" font-family="Helvetica,sans-Serif" font-size="10.00" fill="#000000">+size</text>
<text text-anchor="middle" x="861.8389" y="-748.5" font-family="Helvetica,sans-Serif" font-size="10.00" fill="#000000">+bitcount</text>
</g>
<!-- Node8 -->
<g id="node7" class="node">
<title>Node8</title>
<polygon fill="none" stroke="#bfbfbf" points="500.3389,-937.5 500.3389,-994.5 607.3389,-994.5 607.3389,-937.5 500.3389,-937.5"/>
<text text-anchor="middle" x="553.8389" y="-982.5" font-family="Helvetica,sans-Serif" font-size="10.00" fill="#000000">anonymous:+@53</text>
<polyline fill="none" stroke="#bfbfbf" points="500.3389,-975.5 607.3389,-975.5 "/>
<text text-anchor="middle" x="553.8389" y="-963.5" font-family="Helvetica,sans-Serif" font-size="10.00" fill="#000000"> </text>
<polyline fill="none" stroke="#bfbfbf" points="500.3389,-956.5 607.3389,-956.5 "/>
<text text-anchor="middle" x="553.8389" y="-944.5" font-family="Helvetica,sans-Serif" font-size="10.00" fill="#000000"> </text>
</g>
<!-- Node8&#45;&gt;Node4 -->
<g id="edge6" class="edge">
<title>Node8&#45;&gt;Node4</title>
<path fill="none" stroke="#404040" d="M500.0005,-948.1634C464.6135,-933.1051 421.675,-907.5592 403.8389,-868 367.4501,-787.292 365.1,-686.6817 370.9499,-609.8489"/>
<polygon fill="none" stroke="#404040" points="370.9632,-609.6874 367.4729,-603.3773 371.9552,-597.7285 375.4455,-604.0386 370.9632,-609.6874"/>
<text text-anchor="middle" x="420.8389" y="-759.5" font-family="Helvetica,sans-Serif" font-size="10.00" fill="#000000"> +@53</text>
</g>
<!-- Node8&#45;&gt;Node9 -->
<g id="edge11" class="edge">
<title>Node8&#45;&gt;Node9</title>
<path fill="none" stroke="#404040" d="M570.0717,-937.2045C579.1046,-921.1809 591.0092,-900.0632 603.4155,-878.0555"/>
<polygon fill="none" stroke="#404040" points="603.4453,-878.0026 602.9073,-870.8115 609.3382,-867.5491 609.8762,-874.7401 603.4453,-878.0026"/>
<text text-anchor="middle" x="614.8389" y="-900" font-family="Helvetica,sans-Serif" font-size="10.00" fill="#000000"> +@53</text>
</g>
<!-- Node8&#45;&gt;Node11 -->
<g id="edge18" class="edge">
<title>Node8&#45;&gt;Node11</title>
<path fill="none" stroke="#404040" d="M550.8128,-937.4013C544.223,-869.4796 531.5472,-700.8043 562.8389,-656 575.1728,-638.34 590.699,-651.0469 607.8389,-638 619.734,-628.9455 630.9994,-618.3016 641.466,-606.9558"/>
<polygon fill="none" stroke="#404040" points="641.7063,-606.6859 642.7083,-599.5447 649.6856,-597.7231 648.6835,-604.8643 641.7063,-606.6859"/>
<text text-anchor="middle" x="579.8389" y="-759.5" font-family="Helvetica,sans-Serif" font-size="10.00" fill="#000000"> +@53</text>
</g>
<!-- Node9&#45;&gt;Node2 -->
<g id="edge25" class="edge">
<title>Node9&#45;&gt;Node2</title>
<path fill="none" stroke="#404040" d="M731.3701,-659.3169C732.833,-658.1677 734.3225,-657.0606 735.8389,-656 766.7703,-634.3657 783.1748,-650.3636 818.8389,-638 857.1514,-624.7183 877.6911,-631.293 900.8389,-598 963.5111,-507.8601 951.4862,-213.1909 932.8389,-105 930.7737,-93.0176 927.003,-80.4197 922.9214,-69.0025"/>
<polygon fill="none" stroke="#404040" points="922.857,-68.8321 916.9938,-64.6341 918.6138,-57.6073 924.477,-61.8053 922.857,-68.8321"/>
<text text-anchor="middle" x="984.3389" y="-327" font-family="Helvetica,sans-Serif" font-size="10.00" fill="#000000"> +sHeaderType</text>
</g>
<!-- Node9&#45;&gt;Node4 -->
<g id="edge7" class="edge">
<title>Node9&#45;&gt;Node4</title>
<path fill="none" stroke="#ffa500" d="M598.3396,-660.2879C596.2175,-658.7758 594.0505,-657.3429 591.8389,-656 545.7422,-628.0083 516.3859,-668.3976 471.8389,-638 462.66,-631.7365 451.5277,-616.3243 440.4109,-597.7475"/>
<polygon fill="#ffa500" stroke="#ffa500" points="596.2617,-663.1059 606.3012,-666.4911 600.564,-657.5841 596.2617,-663.1059"/>
<text text-anchor="start" x="471.8389" y="-630" font-family="Helvetica,sans-Serif" font-size="10.00" fill="#000000"> &lt; gSizeHeaderDescription</text>
<text text-anchor="middle" x="537.8389" y="-619" font-family="Helvetica,sans-Serif" font-size="10.00" fill="#000000">String &gt;</text>
</g>
<!-- Node9&#45;&gt;Node11 -->
<g id="edge19" class="edge">
<title>Node9&#45;&gt;Node11</title>
<path fill="none" stroke="#ffa500" d="M672.2943,-646.0869C673.4726,-635.8683 674.9628,-625.7208 676.8389,-616 678.0019,-609.9743 679.3868,-603.8404 680.9338,-597.688"/>
<polygon fill="#ffa500" stroke="#ffa500" points="668.7837,-646.0043 671.2173,-656.3159 675.7452,-646.7374 668.7837,-646.0043"/>
<text text-anchor="start" x="676.8389" y="-630" font-family="Helvetica,sans-Serif" font-size="10.00" fill="#000000"> &lt; gSizeSerializationMethod</text>
<text text-anchor="middle" x="745.8389" y="-619" font-family="Helvetica,sans-Serif" font-size="10.00" fill="#000000">String &gt;</text>
</g>
<!-- Node10 -->
<g id="node9" class="node">
<title>Node10</title>
<polygon fill="none" stroke="#bfbfbf" points="498.3389,-463.5 498.3389,-520.5 605.3389,-520.5 605.3389,-463.5 498.3389,-463.5"/>
<text text-anchor="middle" x="551.8389" y="-508.5" font-family="Helvetica,sans-Serif" font-size="10.00" fill="#000000">anonymous:+@57</text>
<polyline fill="none" stroke="#bfbfbf" points="498.3389,-501.5 605.3389,-501.5 "/>
<text text-anchor="middle" x="551.8389" y="-489.5" font-family="Helvetica,sans-Serif" font-size="10.00" fill="#000000"> </text>
<polyline fill="none" stroke="#bfbfbf" points="498.3389,-482.5 605.3389,-482.5 "/>
<text text-anchor="middle" x="551.8389" y="-470.5" font-family="Helvetica,sans-Serif" font-size="10.00" fill="#000000"> </text>
</g>
<!-- Node10&#45;&gt;Node3 -->
<g id="edge12" class="edge">
<title>Node10&#45;&gt;Node3</title>
<path fill="none" stroke="#404040" d="M547.9189,-463.2783C542.1377,-423.8803 530.0083,-351.113 511.8389,-291 511.1533,-288.7314 510.4357,-286.4439 509.691,-284.1444"/>
<polygon fill="none" stroke="#404040" points="509.6228,-283.9434 503.9054,-279.5489 505.7628,-272.5811 511.4802,-276.9756 509.6228,-283.9434"/>
<text text-anchor="middle" x="548.8389" y="-327" font-family="Helvetica,sans-Serif" font-size="10.00" fill="#000000"> +@57</text>
</g>
<!-- Node11&#45;&gt;Node3 -->
<g id="edge14" class="edge">
<title>Node11&#45;&gt;Node3</title>
<path fill="none" stroke="#404040" d="M644.7329,-386.3433C621.6086,-354.9624 595.4356,-320.9793 569.8389,-291 567.2625,-287.9824 564.6175,-284.9436 561.9226,-281.898"/>
<polygon fill="none" stroke="#404040" points="561.7274,-281.6808 554.7418,-279.8916 553.7066,-272.7552 560.6922,-274.5444 561.7274,-281.6808"/>
<text text-anchor="middle" x="665.8389" y="-327" font-family="Helvetica,sans-Serif" font-size="10.00" fill="#000000"> +serialization</text>
</g>
<!-- Node12 -->
<g id="node11" class="node">
<title>Node12</title>
<g id="a_node11"><a xlink:href="../../d3/d87/classuint32__t.html" target="_top" xlink:title="{uint32_t\n||}">
<polygon fill="none" stroke="#000000" points="835.8389,-463.5 835.8389,-520.5 891.8389,-520.5 891.8389,-463.5 835.8389,-463.5"/>
<text text-anchor="middle" x="863.8389" y="-508.5" font-family="Helvetica,sans-Serif" font-size="10.00" fill="#000000">uint32_t</text>
<polyline fill="none" stroke="#000000" points="835.8389,-501.5 891.8389,-501.5 "/>
<text text-anchor="middle" x="863.8389" y="-489.5" font-family="Helvetica,sans-Serif" font-size="10.00" fill="#000000"> </text>
<polyline fill="none" stroke="#000000" points="835.8389,-482.5 891.8389,-482.5 "/>
<text text-anchor="middle" x="863.8389" y="-470.5" font-family="Helvetica,sans-Serif" font-size="10.00" fill="#000000"> </text>
</a>
</g>
</g>
<!-- Node12&#45;&gt;Node2 -->
<g id="edge23" class="edge">
<title>Node12&#45;&gt;Node2</title>
<path fill="none" stroke="#404040" d="M862.2179,-463.0363C859.202,-398.2271 855.0996,-236.8527 879.8389,-105 882.0721,-93.0982 885.7817,-80.5263 889.7093,-69.1081"/>
<polygon fill="none" stroke="#404040" points="889.752,-68.9898 888.0281,-61.9878 893.8284,-57.7034 895.5524,-64.7054 889.752,-68.9898"/>
<text text-anchor="middle" x="906.3389" y="-186.5" font-family="Helvetica,sans-Serif" font-size="10.00" fill="#000000"> +sVersion</text>
</g>
<!-- Node12&#45;&gt;Node3 -->
<g id="edge20" class="edge">
<title>Node12&#45;&gt;Node3</title>
<path fill="none" stroke="#404040" d="M859.9089,-463.2707C855.152,-439.3594 844.8409,-406.0903 822.8389,-386 801.3347,-366.3641 783.5606,-384.8903 759.8389,-368 725.7893,-343.7558 738.2465,-317.3991 705.8389,-291 665.5615,-258.1902 613.1275,-234.1306 567.9157,-217.6466"/>
<polygon fill="none" stroke="#404040" points="567.8948,-217.6392 560.9013,-219.3975 556.5885,-213.6182 563.582,-211.86 567.8948,-217.6392"/>
<text text-anchor="middle" x="805.3389" y="-360" font-family="Helvetica,sans-Serif" font-size="10.00" fill="#000000"> +headerVersion</text>
<text text-anchor="middle" x="805.3389" y="-349" font-family="Helvetica,sans-Serif" font-size="10.00" fill="#000000">+headerSize</text>
<text text-anchor="middle" x="805.3389" y="-338" font-family="Helvetica,sans-Serif" font-size="10.00" fill="#000000">+sMagicString</text>
<text text-anchor="middle" x="805.3389" y="-327" font-family="Helvetica,sans-Serif" font-size="10.00" fill="#000000">+flagsNextHeader</text>
<text text-anchor="middle" x="805.3389" y="-316" font-family="Helvetica,sans-Serif" font-size="10.00" fill="#000000">+magicStringInt</text>
<text text-anchor="middle" x="805.3389" y="-305" font-family="Helvetica,sans-Serif" font-size="10.00" fill="#000000">+flagsUnused</text>
<text text-anchor="middle" x="805.3389" y="-294" font-family="Helvetica,sans-Serif" font-size="10.00" fill="#000000">+flags</text>
</g>
<!-- Node13 -->
<g id="node12" class="node">
<title>Node13</title>
<polygon fill="none" stroke="#bfbfbf" points="1.3389,-463.5 1.3389,-520.5 44.3389,-520.5 44.3389,-463.5 1.3389,-463.5"/>
<text text-anchor="middle" x="22.8389" y="-508.5" font-family="Helvetica,sans-Serif" font-size="10.00" fill="#000000">const</text>
<polyline fill="none" stroke="#bfbfbf" points="1.3389,-501.5 44.3389,-501.5 "/>
<text text-anchor="middle" x="22.8389" y="-489.5" font-family="Helvetica,sans-Serif" font-size="10.00" fill="#000000"> </text>
<polyline fill="none" stroke="#bfbfbf" points="1.3389,-482.5 44.3389,-482.5 "/>
<text text-anchor="middle" x="22.8389" y="-470.5" font-family="Helvetica,sans-Serif" font-size="10.00" fill="#000000"> </text>
</g>
<!-- Node13&#45;&gt;Node3 -->
<g id="edge21" class="edge">
<title>Node13&#45;&gt;Node3</title>
<path fill="none" stroke="#404040" d="M13.3343,-463.354C1.1502,-420.7027 -13.9884,-340.2556 25.8389,-291 68.5252,-238.2088 253.6313,-210.3512 370.9463,-197.7268"/>
<polygon fill="none" stroke="#404040" points="371.2033,-197.6998 376.7514,-193.0935 383.1373,-196.4433 377.5891,-201.0495 371.2033,-197.6998"/>
<text text-anchor="middle" x="81.3389" y="-338" font-family="Helvetica,sans-Serif" font-size="10.00" fill="#000000"> +sHeaderType</text>
<text text-anchor="middle" x="81.3389" y="-327" font-family="Helvetica,sans-Serif" font-size="10.00" fill="#000000">+sSerializationMethod</text>
<text text-anchor="middle" x="81.3389" y="-316" font-family="Helvetica,sans-Serif" font-size="10.00" fill="#000000">+sVersion</text>
</g>
<!-- Node14 -->
<g id="node13" class="node">
<title>Node14</title>
<polygon fill="none" stroke="#bfbfbf" points="86.3389,-463.5 86.3389,-520.5 193.3389,-520.5 193.3389,-463.5 86.3389,-463.5"/>
<text text-anchor="middle" x="139.8389" y="-508.5" font-family="Helvetica,sans-Serif" font-size="10.00" fill="#000000">anonymous:+@55</text>
<polyline fill="none" stroke="#bfbfbf" points="86.3389,-501.5 193.3389,-501.5 "/>
<text text-anchor="middle" x="139.8389" y="-489.5" font-family="Helvetica,sans-Serif" font-size="10.00" fill="#000000"> </text>
<polyline fill="none" stroke="#bfbfbf" points="86.3389,-482.5 193.3389,-482.5 "/>
<text text-anchor="middle" x="139.8389" y="-470.5" font-family="Helvetica,sans-Serif" font-size="10.00" fill="#000000"> </text>
</g>
<!-- Node14&#45;&gt;Node3 -->
<g id="edge22" class="edge">
<title>Node14&#45;&gt;Node3</title>
<path fill="none" stroke="#404040" d="M136.2469,-463.2878C132.5701,-420.5511 132.2974,-339.9951 173.8389,-291 199.9897,-260.1571 295.7329,-230.7104 371.3389,-211.4559"/>
<polygon fill="none" stroke="#404040" points="371.6482,-211.3783 376.4928,-206.0369 383.2865,-208.4545 378.4419,-213.7959 371.6482,-211.3783"/>
<text text-anchor="middle" x="190.8389" y="-327" font-family="Helvetica,sans-Serif" font-size="10.00" fill="#000000"> +@55</text>
</g>
<!-- Node15 -->
<g id="node14" class="node">
<title>Node15</title>
<polygon fill="none" stroke="#bfbfbf" points="974.8389,-160.5 974.8389,-217.5 1012.8389,-217.5 1012.8389,-160.5 974.8389,-160.5"/>
<text text-anchor="middle" x="993.8389" y="-205.5" font-family="Helvetica,sans-Serif" font-size="10.00" fill="#000000">bool</text>
<polyline fill="none" stroke="#bfbfbf" points="974.8389,-198.5 1012.8389,-198.5 "/>
<text text-anchor="middle" x="993.8389" y="-186.5" font-family="Helvetica,sans-Serif" font-size="10.00" fill="#000000"> </text>
<polyline fill="none" stroke="#bfbfbf" points="974.8389,-179.5 1012.8389,-179.5 "/>
<text text-anchor="middle" x="993.8389" y="-167.5" font-family="Helvetica,sans-Serif" font-size="10.00" fill="#000000"> </text>
</g>
<!-- Node15&#45;&gt;Node2 -->
<g id="edge24" class="edge">
<title>Node15&#45;&gt;Node2</title>
<path fill="none" stroke="#404040" d="M990.1115,-160.1646C985.9516,-136.1154 977.4826,-101.7448 960.8389,-76 958.6909,-72.6774 956.2388,-69.4609 953.5899,-66.3747"/>
<polygon fill="none" stroke="#404040" points="953.4399,-66.2172 946.4047,-64.6339 945.1604,-57.5309 952.1956,-59.1142 953.4399,-66.2172"/>
<text text-anchor="middle" x="1006.3389" y="-79" font-family="Helvetica,sans-Serif" font-size="10.00" fill="#000000"> +mHasPayload</text>
</g>
</g>
</svg>
