<?xml version="1.0" encoding="UTF-8" standalone="no"?>
<!DOCTYPE svg PUBLIC "-//W3C//DTD SVG 1.1//EN"
 "http://www.w3.org/Graphics/SVG/1.1/DTD/svg11.dtd">
<!-- Generated by graphviz version 2.40.1 (20161225.0304)
 -->
<!-- Title: o2::emcal::RAWDataHeader Pages: 1 -->
<!--zoomable 468 -->
<svg id="main" version="1.1" xmlns="http://www.w3.org/2000/svg" xmlns:xlink="http://www.w3.org/1999/xlink" xml:space="preserve" onload="init(evt)">
<style type="text/css"><![CDATA[
.edge:hover path { stroke: red; }
.edge:hover polygon { stroke: red; fill: red; }
]]></style>
<script type="text/javascript"><![CDATA[
var edges = document.getElementsByTagName('g');
if (edges && edges.length) {
  for (var i=0;i<edges.length;i++) {
    if (edges[i].id.substr(0,4)=='edge') {
      edges[i].setAttribute('class','edge');
    }
  }
}
]]></script>
        <defs>
                <circle id="rim" cx="0" cy="0" r="7"/>
                <circle id="rim2" cx="0" cy="0" r="3.5"/>
                <g id="zoomPlus">
                        <use xlink:href="#rim" fill="#404040">
                                <set attributeName="fill" to="#808080" begin="zoomplus.mouseover" end="zoomplus.mouseout"/>
                        </use>
                        <path d="M-4,0h8M0,-4v8" fill="none" stroke="white" stroke-width="1.5" pointer-events="none"/>
                </g>
                <g id="zoomMin">
                        <use xlink:href="#rim" fill="#404040">
                                <set attributeName="fill" to="#808080" begin="zoomminus.mouseover" end="zoomminus.mouseout"/>
                        </use>
                        <path d="M-4,0h8" fill="none" stroke="white" stroke-width="1.5" pointer-events="none"/>
                </g>
                <g id="dirArrow">
                        <path fill="none" stroke="white" stroke-width="1.5" d="M0,-3.0v7 M-2.5,-0.5L0,-3.0L2.5,-0.5"/>
                </g>
               <g id="resetDef">
                       <use xlink:href="#rim2" fill="#404040">
                               <set attributeName="fill" to="#808080" begin="reset.mouseover" end="reset.mouseout"/>
                       </use>
               </g>
        </defs>

<script type="text/javascript">
var viewWidth = 1531;
var viewHeight = 468;
var sectionId = 'dynsection-0';
</script>
<script xlink:href="../../svgpan.js"/>
<svg id="graph" class="graph">
<g id="viewport">
<title>o2::emcal::RAWDataHeader</title>
<!-- Node1 -->
<g id="node1" class="node">
<title>Node1</title>
<polygon fill="#bfbfbf" stroke="#000000" points="711,-.5 711,-233.5 862,-233.5 862,-.5 711,-.5"/>
<text text-anchor="middle" x="786.5" y="-221.5" font-family="Helvetica,sans-Serif" font-size="10.00" fill="#000000">o2::emcal::RAWDataHeader</text>
<polyline fill="none" stroke="#000000" points="711,-214.5 862,-214.5 "/>
<text text-anchor="start" x="719" y="-202.5" font-family="Helvetica,sans-Serif" font-size="10.00" fill="#000000">+ word0</text>
<text text-anchor="start" x="719" y="-191.5" font-family="Helvetica,sans-Serif" font-size="10.00" fill="#000000">+ word1</text>
<text text-anchor="start" x="719" y="-180.5" font-family="Helvetica,sans-Serif" font-size="10.00" fill="#000000">+ triggermessageL1</text>
<text text-anchor="start" x="719" y="-169.5" font-family="Helvetica,sans-Serif" font-size="10.00" fill="#000000">+ word2</text>
<text text-anchor="start" x="719" y="-158.5" font-family="Helvetica,sans-Serif" font-size="10.00" fill="#000000">+ offsetToNext</text>
<text text-anchor="start" x="719" y="-147.5" font-family="Helvetica,sans-Serif" font-size="10.00" fill="#000000">+ memorySize</text>
<text text-anchor="start" x="719" y="-136.5" font-family="Helvetica,sans-Serif" font-size="10.00" fill="#000000">+ word3</text>
<text text-anchor="start" x="719" y="-125.5" font-family="Helvetica,sans-Serif" font-size="10.00" fill="#000000">+ word4</text>
<text text-anchor="start" x="719" y="-114.5" font-family="Helvetica,sans-Serif" font-size="10.00" fill="#000000">+ status</text>
<text text-anchor="start" x="719" y="-103.5" font-family="Helvetica,sans-Serif" font-size="10.00" fill="#000000">+ zero41</text>
<text text-anchor="start" x="719" y="-92.5" font-family="Helvetica,sans-Serif" font-size="10.00" fill="#000000">+ word5</text>
<text text-anchor="start" x="719" y="-81.5" font-family="Helvetica,sans-Serif" font-size="10.00" fill="#000000">+ word6</text>
<text text-anchor="start" x="719" y="-70.5" font-family="Helvetica,sans-Serif" font-size="10.00" fill="#000000">+ triggerTypesHigh</text>
<text text-anchor="start" x="719" y="-59.5" font-family="Helvetica,sans-Serif" font-size="10.00" fill="#000000">+ triggerTypesNext50</text>
<text text-anchor="start" x="719" y="-48.5" font-family="Helvetica,sans-Serif" font-size="10.00" fill="#000000">+ triggerTypesNext50High</text>
<text text-anchor="start" x="719" y="-37.5" font-family="Helvetica,sans-Serif" font-size="10.00" fill="#000000">+ roi</text>
<text text-anchor="start" x="719" y="-26.5" font-family="Helvetica,sans-Serif" font-size="10.00" fill="#000000">+ roiHigh</text>
<polyline fill="none" stroke="#000000" points="711,-19.5 862,-19.5 "/>
<text text-anchor="middle" x="786.5" y="-7.5" font-family="Helvetica,sans-Serif" font-size="10.00" fill="#000000"> </text>
</g>
<!-- Node2 -->
<g id="node2" class="node">
<title>Node2</title>
<polygon fill="none" stroke="#bfbfbf" points="0,-402.5 0,-459.5 113,-459.5 113,-402.5 0,-402.5"/>
<text text-anchor="middle" x="56.5" y="-447.5" font-family="Helvetica,sans-Serif" font-size="10.00" fill="#000000">anonymous:+@174</text>
<polyline fill="none" stroke="#bfbfbf" points="0,-440.5 113,-440.5 "/>
<text text-anchor="middle" x="56.5" y="-428.5" font-family="Helvetica,sans-Serif" font-size="10.00" fill="#000000"> </text>
<polyline fill="none" stroke="#bfbfbf" points="0,-421.5 113,-421.5 "/>
<text text-anchor="middle" x="56.5" y="-409.5" font-family="Helvetica,sans-Serif" font-size="10.00" fill="#000000"> </text>
</g>
<!-- Node2&#45;&gt;Node1 -->
<g id="edge1" class="edge">
<title>Node2&#45;&gt;Node1</title>
<path fill="none" stroke="#404040" d="M65.1044,-402.4223C78.7376,-362.2609 109.2575,-289.8125 161.5,-252 246.6473,-190.3715 547.8249,-146.0476 698.8305,-127.1502"/>
<polygon fill="none" stroke="#404040" points="698.8522,-127.1476 704.3145,-122.4397 710.7611,-125.671 705.2989,-130.3789 698.8522,-127.1476"/>
<text text-anchor="middle" x="181.5" y="-315.5" font-family="Helvetica,sans-Serif" font-size="10.00" fill="#000000"> +@174</text>
</g>
<!-- Node3 -->
<g id="node3" class="node">
<title>Node3</title>
<polygon fill="none" stroke="#bfbfbf" points="131,-402.5 131,-459.5 244,-459.5 244,-402.5 131,-402.5"/>
<text text-anchor="middle" x="187.5" y="-447.5" font-family="Helvetica,sans-Serif" font-size="10.00" fill="#000000">anonymous:+@184</text>
<polyline fill="none" stroke="#bfbfbf" points="131,-440.5 244,-440.5 "/>
<text text-anchor="middle" x="187.5" y="-428.5" font-family="Helvetica,sans-Serif" font-size="10.00" fill="#000000"> </text>
<polyline fill="none" stroke="#bfbfbf" points="131,-421.5 244,-421.5 "/>
<text text-anchor="middle" x="187.5" y="-409.5" font-family="Helvetica,sans-Serif" font-size="10.00" fill="#000000"> </text>
</g>
<!-- Node3&#45;&gt;Node1 -->
<g id="edge2" class="edge">
<title>Node3&#45;&gt;Node1</title>
<path fill="none" stroke="#404040" d="M196.3386,-402.4676C210.141,-362.699 240.6364,-291.0984 291.5,-252 355.1476,-203.0747 574.5623,-156.1195 698.8419,-132.6147"/>
<polygon fill="none" stroke="#404040" points="699.1376,-132.5592 704.2966,-127.521 710.9316,-130.3454 705.7725,-135.3836 699.1376,-132.5592"/>
<text text-anchor="middle" x="311.5" y="-315.5" font-family="Helvetica,sans-Serif" font-size="10.00" fill="#000000"> +@184</text>
</g>
<!-- Node4 -->
<g id="node4" class="node">
<title>Node4</title>
<polygon fill="none" stroke="#bfbfbf" points="262,-402.5 262,-459.5 375,-459.5 375,-402.5 262,-402.5"/>
<text text-anchor="middle" x="318.5" y="-447.5" font-family="Helvetica,sans-Serif" font-size="10.00" fill="#000000">anonymous:+@176</text>
<polyline fill="none" stroke="#bfbfbf" points="262,-440.5 375,-440.5 "/>
<text text-anchor="middle" x="318.5" y="-428.5" font-family="Helvetica,sans-Serif" font-size="10.00" fill="#000000"> </text>
<polyline fill="none" stroke="#bfbfbf" points="262,-421.5 375,-421.5 "/>
<text text-anchor="middle" x="318.5" y="-409.5" font-family="Helvetica,sans-Serif" font-size="10.00" fill="#000000"> </text>
</g>
<!-- Node4&#45;&gt;Node1 -->
<g id="edge3" class="edge">
<title>Node4&#45;&gt;Node1</title>
<path fill="none" stroke="#404040" d="M327.0388,-402.3903C340.1357,-363.1893 368.804,-292.9854 416.5,-252 497.6061,-182.3053 617.7003,-147.3817 698.8782,-130.7559"/>
<polygon fill="none" stroke="#404040" points="699.0425,-130.7234 704.1484,-125.6312 710.8126,-128.3858 705.7067,-133.478 699.0425,-130.7234"/>
<text text-anchor="middle" x="436.5" y="-315.5" font-family="Helvetica,sans-Serif" font-size="10.00" fill="#000000"> +@176</text>
</g>
<!-- Node5 -->
<g id="node5" class="node">
<title>Node5</title>
<polygon fill="none" stroke="#bfbfbf" points="393,-402.5 393,-459.5 506,-459.5 506,-402.5 393,-402.5"/>
<text text-anchor="middle" x="449.5" y="-447.5" font-family="Helvetica,sans-Serif" font-size="10.00" fill="#000000">anonymous:+@186</text>
<polyline fill="none" stroke="#bfbfbf" points="393,-440.5 506,-440.5 "/>
<text text-anchor="middle" x="449.5" y="-428.5" font-family="Helvetica,sans-Serif" font-size="10.00" fill="#000000"> </text>
<polyline fill="none" stroke="#bfbfbf" points="393,-421.5 506,-421.5 "/>
<text text-anchor="middle" x="449.5" y="-409.5" font-family="Helvetica,sans-Serif" font-size="10.00" fill="#000000"> </text>
</g>
<!-- Node5&#45;&gt;Node1 -->
<g id="edge4" class="edge">
<title>Node5&#45;&gt;Node1</title>
<path fill="none" stroke="#404040" d="M454.9168,-402.238C463.4647,-363.8143 483.406,-295.5341 523.5,-252 571.0723,-200.3459 642.9204,-165.3431 699.5056,-143.9478"/>
<polygon fill="none" stroke="#404040" points="699.7121,-143.8718 703.9569,-138.0424 710.9705,-139.7186 706.7256,-145.548 699.7121,-143.8718"/>
<text text-anchor="middle" x="543.5" y="-315.5" font-family="Helvetica,sans-Serif" font-size="10.00" fill="#000000"> +@186</text>
</g>
<!-- Node6 -->
<g id="node6" class="node">
<title>Node6</title>
<polygon fill="none" stroke="#bfbfbf" points="524.5,-402.5 524.5,-459.5 580.5,-459.5 580.5,-402.5 524.5,-402.5"/>
<text text-anchor="middle" x="552.5" y="-447.5" font-family="Helvetica,sans-Serif" font-size="10.00" fill="#000000">uint16_t</text>
<polyline fill="none" stroke="#bfbfbf" points="524.5,-440.5 580.5,-440.5 "/>
<text text-anchor="middle" x="552.5" y="-428.5" font-family="Helvetica,sans-Serif" font-size="10.00" fill="#000000"> </text>
<polyline fill="none" stroke="#bfbfbf" points="524.5,-421.5 580.5,-421.5 "/>
<text text-anchor="middle" x="552.5" y="-409.5" font-family="Helvetica,sans-Serif" font-size="10.00" fill="#000000"> </text>
</g>
<!-- Node6&#45;&gt;Node1 -->
<g id="edge5" class="edge">
<title>Node6&#45;&gt;Node1</title>
<path fill="none" stroke="#404040" d="M559.9976,-402.2311C570.6697,-365.0015 592.8741,-299.31 627.5,-252 647.8812,-224.1528 675.1215,-198.3307 701.29,-176.8849"/>
<polygon fill="none" stroke="#404040" points="701.5148,-176.7042 703.6853,-169.8275 710.8678,-169.1861 708.6973,-176.0629 701.5148,-176.7042"/>
<text text-anchor="middle" x="650" y="-315.5" font-family="Helvetica,sans-Serif" font-size="10.00" fill="#000000"> +zero31</text>
</g>
<!-- Node7 -->
<g id="node7" class="node">
<title>Node7</title>
<polygon fill="none" stroke="#bfbfbf" points="599,-402.5 599,-459.5 712,-459.5 712,-402.5 599,-402.5"/>
<text text-anchor="middle" x="655.5" y="-447.5" font-family="Helvetica,sans-Serif" font-size="10.00" fill="#000000">anonymous:+@192</text>
<polyline fill="none" stroke="#bfbfbf" points="599,-440.5 712,-440.5 "/>
<text text-anchor="middle" x="655.5" y="-428.5" font-family="Helvetica,sans-Serif" font-size="10.00" fill="#000000"> </text>
<polyline fill="none" stroke="#bfbfbf" points="599,-421.5 712,-421.5 "/>
<text text-anchor="middle" x="655.5" y="-409.5" font-family="Helvetica,sans-Serif" font-size="10.00" fill="#000000"> </text>
</g>
<!-- Node7&#45;&gt;Node1 -->
<g id="edge6" class="edge">
<title>Node7&#45;&gt;Node1</title>
<path fill="none" stroke="#404040" d="M667.4727,-402.3022C682.3961,-366.5316 708.8934,-303.0188 733.1047,-244.9856"/>
<polygon fill="none" stroke="#404040" points="733.1333,-244.9171 731.7519,-237.8395 737.7537,-233.8422 739.1351,-240.9198 733.1333,-244.9171"/>
<text text-anchor="middle" x="748.5" y="-315.5" font-family="Helvetica,sans-Serif" font-size="10.00" fill="#000000"> +@192</text>
</g>
<!-- Node8 -->
<g id="node8" class="node">
<title>Node8</title>
<polygon fill="none" stroke="#bfbfbf" points="730,-402.5 730,-459.5 843,-459.5 843,-402.5 730,-402.5"/>
<text text-anchor="middle" x="786.5" y="-447.5" font-family="Helvetica,sans-Serif" font-size="10.00" fill="#000000">anonymous:+@178</text>
<polyline fill="none" stroke="#bfbfbf" points="730,-440.5 843,-440.5 "/>
<text text-anchor="middle" x="786.5" y="-428.5" font-family="Helvetica,sans-Serif" font-size="10.00" fill="#000000"> </text>
<polyline fill="none" stroke="#bfbfbf" points="730,-421.5 843,-421.5 "/>
<text text-anchor="middle" x="786.5" y="-409.5" font-family="Helvetica,sans-Serif" font-size="10.00" fill="#000000"> </text>
</g>
<!-- Node8&#45;&gt;Node1 -->
<g id="edge7" class="edge">
<title>Node8&#45;&gt;Node1</title>
<path fill="none" stroke="#404040" d="M786.5,-402.3022C786.5,-366.7547 786.5,-303.8099 786.5,-246.0721"/>
<polygon fill="none" stroke="#404040" points="786.5001,-245.8422 782.5,-239.8423 786.5,-233.8422 790.5,-239.8422 786.5001,-245.8422"/>
<text text-anchor="middle" x="806.5" y="-315.5" font-family="Helvetica,sans-Serif" font-size="10.00" fill="#000000"> +@178</text>
</g>
<!-- Node9 -->
<g id="node9" class="node">
<title>Node9</title>
<polygon fill="none" stroke="#bfbfbf" points="861,-402.5 861,-459.5 974,-459.5 974,-402.5 861,-402.5"/>
<text text-anchor="middle" x="917.5" y="-447.5" font-family="Helvetica,sans-Serif" font-size="10.00" fill="#000000">anonymous:+@188</text>
<polyline fill="none" stroke="#bfbfbf" points="861,-440.5 974,-440.5 "/>
<text text-anchor="middle" x="917.5" y="-428.5" font-family="Helvetica,sans-Serif" font-size="10.00" fill="#000000"> </text>
<polyline fill="none" stroke="#bfbfbf" points="861,-421.5 974,-421.5 "/>
<text text-anchor="middle" x="917.5" y="-409.5" font-family="Helvetica,sans-Serif" font-size="10.00" fill="#000000"> </text>
</g>
<!-- Node9&#45;&gt;Node1 -->
<g id="edge8" class="edge">
<title>Node9&#45;&gt;Node1</title>
<path fill="none" stroke="#404040" d="M905.5273,-402.3022C890.6039,-366.5316 864.1066,-303.0188 839.8953,-244.9856"/>
<polygon fill="none" stroke="#404040" points="839.8667,-244.9171 833.8649,-240.9198 835.2463,-233.8422 841.2481,-237.8395 839.8667,-244.9171"/>
<text text-anchor="middle" x="915.5" y="-315.5" font-family="Helvetica,sans-Serif" font-size="10.00" fill="#000000"> +@188</text>
</g>
<!-- Node10 -->
<g id="node10" class="node">
<title>Node10</title>
<polygon fill="none" stroke="#bfbfbf" points="992.5,-402.5 992.5,-459.5 1042.5,-459.5 1042.5,-402.5 992.5,-402.5"/>
<text text-anchor="middle" x="1017.5" y="-447.5" font-family="Helvetica,sans-Serif" font-size="10.00" fill="#000000">uint8_t</text>
<polyline fill="none" stroke="#bfbfbf" points="992.5,-440.5 1042.5,-440.5 "/>
<text text-anchor="middle" x="1017.5" y="-428.5" font-family="Helvetica,sans-Serif" font-size="10.00" fill="#000000"> </text>
<polyline fill="none" stroke="#bfbfbf" points="992.5,-421.5 1042.5,-421.5 "/>
<text text-anchor="middle" x="1017.5" y="-409.5" font-family="Helvetica,sans-Serif" font-size="10.00" fill="#000000"> </text>
</g>
<!-- Node10&#45;&gt;Node1 -->
<g id="edge9" class="edge">
<title>Node10&#45;&gt;Node1</title>
<path fill="none" stroke="#404040" d="M1009.3053,-402.3456C997.7768,-365.2398 974.2204,-299.6819 939.5,-252 920.4552,-225.8455 895.5253,-201.17 871.3336,-180.2472"/>
<polygon fill="none" stroke="#404040" points="871.2591,-180.1839 864.0964,-179.3495 862.1119,-172.4168 869.2745,-173.2513 871.2591,-180.1839"/>
<text text-anchor="middle" x="1041.5" y="-321" font-family="Helvetica,sans-Serif" font-size="10.00" fill="#000000"> +linkID</text>
<text text-anchor="middle" x="1041.5" y="-310" font-family="Helvetica,sans-Serif" font-size="10.00" fill="#000000">+packetCounter</text>
</g>
<!-- Node11 -->
<g id="node11" class="node">
<title>Node11</title>
<polygon fill="none" stroke="#bfbfbf" points="1061,-402.5 1061,-459.5 1174,-459.5 1174,-402.5 1061,-402.5"/>
<text text-anchor="middle" x="1117.5" y="-447.5" font-family="Helvetica,sans-Serif" font-size="10.00" fill="#000000">anonymous:+@180</text>
<polyline fill="none" stroke="#bfbfbf" points="1061,-440.5 1174,-440.5 "/>
<text text-anchor="middle" x="1117.5" y="-428.5" font-family="Helvetica,sans-Serif" font-size="10.00" fill="#000000"> </text>
<polyline fill="none" stroke="#bfbfbf" points="1061,-421.5 1174,-421.5 "/>
<text text-anchor="middle" x="1117.5" y="-409.5" font-family="Helvetica,sans-Serif" font-size="10.00" fill="#000000"> </text>
</g>
<!-- Node11&#45;&gt;Node1 -->
<g id="edge10" class="edge">
<title>Node11&#45;&gt;Node1</title>
<path fill="none" stroke="#404040" d="M1120.0814,-402.3253C1121.9653,-364.0004 1119.6445,-295.8319 1085.5,-252 1033.8257,-185.6649 942.3098,-150.9419 874.0918,-133.4316"/>
<polygon fill="none" stroke="#404040" points="873.7192,-133.3397 866.9348,-135.7833 862.0697,-130.4607 868.8541,-128.017 873.7192,-133.3397"/>
<text text-anchor="middle" x="1140.5" y="-315.5" font-family="Helvetica,sans-Serif" font-size="10.00" fill="#000000"> +@180</text>
</g>
<!-- Node12 -->
<g id="node12" class="node">
<title>Node12</title>
<polygon fill="none" stroke="#bfbfbf" points="1192,-402.5 1192,-459.5 1305,-459.5 1305,-402.5 1192,-402.5"/>
<text text-anchor="middle" x="1248.5" y="-447.5" font-family="Helvetica,sans-Serif" font-size="10.00" fill="#000000">anonymous:+@190</text>
<polyline fill="none" stroke="#bfbfbf" points="1192,-440.5 1305,-440.5 "/>
<text text-anchor="middle" x="1248.5" y="-428.5" font-family="Helvetica,sans-Serif" font-size="10.00" fill="#000000"> </text>
<polyline fill="none" stroke="#bfbfbf" points="1192,-421.5 1305,-421.5 "/>
<text text-anchor="middle" x="1248.5" y="-409.5" font-family="Helvetica,sans-Serif" font-size="10.00" fill="#000000"> </text>
</g>
<!-- Node12&#45;&gt;Node1 -->
<g id="edge11" class="edge">
<title>Node12&#45;&gt;Node1</title>
<path fill="none" stroke="#404040" d="M1242.3703,-402.3872C1232.5406,-363.1827 1209.598,-292.9745 1164.5,-252 1082.8971,-177.8584 957.7754,-143.7953 874.098,-128.5906"/>
<polygon fill="none" stroke="#404040" points="873.8829,-128.553 867.2825,-131.4573 862.063,-126.4816 868.6634,-123.5774 873.8829,-128.553"/>
<text text-anchor="middle" x="1255.5" y="-315.5" font-family="Helvetica,sans-Serif" font-size="10.00" fill="#000000"> +@190</text>
</g>
<!-- Node13 -->
<g id="node13" class="node">
<title>Node13</title>
<g id="a_node13"><a xlink:href="../../d3/d87/classuint32__t.html" target="_top" xlink:title="{uint32_t\n||}">
<polygon fill="none" stroke="#000000" points="1323.5,-402.5 1323.5,-459.5 1379.5,-459.5 1379.5,-402.5 1323.5,-402.5"/>
<text text-anchor="middle" x="1351.5" y="-447.5" font-family="Helvetica,sans-Serif" font-size="10.00" fill="#000000">uint32_t</text>
<polyline fill="none" stroke="#000000" points="1323.5,-440.5 1379.5,-440.5 "/>
<text text-anchor="middle" x="1351.5" y="-428.5" font-family="Helvetica,sans-Serif" font-size="10.00" fill="#000000"> </text>
<polyline fill="none" stroke="#000000" points="1323.5,-421.5 1379.5,-421.5 "/>
<text text-anchor="middle" x="1351.5" y="-409.5" font-family="Helvetica,sans-Serif" font-size="10.00" fill="#000000"> </text>
</a>
</g>
</g>
<!-- Node13&#45;&gt;Node1 -->
<g id="edge12" class="edge">
<title>Node13&#45;&gt;Node1</title>
<path fill="none" stroke="#404040" d="M1343.4036,-402.4533C1330.0801,-357.3689 1302.6959,-272.6676 1279.5,-252 1219.707,-198.7241 999.1669,-153.4657 874.2672,-131.4018"/>
<polygon fill="none" stroke="#404040" points="873.9378,-131.3442 867.338,-134.2499 862.1174,-129.2753 868.7172,-126.3696 873.9378,-131.3442"/>
<text text-anchor="middle" x="1388.5" y="-376" font-family="Helvetica,sans-Serif" font-size="10.00" fill="#000000"> +word7</text>
<text text-anchor="middle" x="1388.5" y="-365" font-family="Helvetica,sans-Serif" font-size="10.00" fill="#000000">+triggerType</text>
<text text-anchor="middle" x="1388.5" y="-354" font-family="Helvetica,sans-Serif" font-size="10.00" fill="#000000">+zero81</text>
<text text-anchor="middle" x="1388.5" y="-343" font-family="Helvetica,sans-Serif" font-size="10.00" fill="#000000">+word8</text>
<text text-anchor="middle" x="1388.5" y="-332" font-family="Helvetica,sans-Serif" font-size="10.00" fill="#000000">+word9</text>
<text text-anchor="middle" x="1388.5" y="-321" font-family="Helvetica,sans-Serif" font-size="10.00" fill="#000000">+zero11</text>
<text text-anchor="middle" x="1388.5" y="-310" font-family="Helvetica,sans-Serif" font-size="10.00" fill="#000000">+triggerOrbit</text>
<text text-anchor="middle" x="1388.5" y="-299" font-family="Helvetica,sans-Serif" font-size="10.00" fill="#000000">+version</text>
<text text-anchor="middle" x="1388.5" y="-288" font-family="Helvetica,sans-Serif" font-size="10.00" fill="#000000">+triggerBC</text>
<text text-anchor="start" x="1336.5" y="-277" font-family="Helvetica,sans-Serif" font-size="10.00" fill="#000000">+triggerTypesNext50</text>
<text text-anchor="middle" x="1388.5" y="-266" font-family="Helvetica,sans-Serif" font-size="10.00" fill="#000000">Middle</text>
<text text-anchor="middle" x="1388.5" y="-255" font-family="Helvetica,sans-Serif" font-size="10.00" fill="#000000">...</text>
</g>
<!-- Node14 -->
<g id="node14" class="node">
<title>Node14</title>
<polygon fill="none" stroke="#bfbfbf" points="1410,-402.5 1410,-459.5 1523,-459.5 1523,-402.5 1410,-402.5"/>
<text text-anchor="middle" x="1466.5" y="-447.5" font-family="Helvetica,sans-Serif" font-size="10.00" fill="#000000">anonymous:+@182</text>
<polyline fill="none" stroke="#bfbfbf" points="1410,-440.5 1523,-440.5 "/>
<text text-anchor="middle" x="1466.5" y="-428.5" font-family="Helvetica,sans-Serif" font-size="10.00" fill="#000000"> </text>
<polyline fill="none" stroke="#bfbfbf" points="1410,-421.5 1523,-421.5 "/>
<text text-anchor="middle" x="1466.5" y="-409.5" font-family="Helvetica,sans-Serif" font-size="10.00" fill="#000000"> </text>
</g>
<!-- Node14&#45;&gt;Node1 -->
<g id="edge13" class="edge">
<title>Node14&#45;&gt;Node1</title>
<path fill="none" stroke="#404040" d="M1472.1956,-402.3491C1478.1932,-363.0997 1482.1936,-292.8392 1444.5,-252 1368.4748,-169.6303 1035.5735,-134.8419 874.4672,-122.6226"/>
<polygon fill="none" stroke="#404040" points="874.2001,-122.6029 867.92,-126.147 862.2331,-121.7132 868.5132,-118.169 874.2001,-122.6029"/>
<text text-anchor="middle" x="1495.5" y="-315.5" font-family="Helvetica,sans-Serif" font-size="10.00" fill="#000000"> +@182</text>
</g>
</g>
</svg>
        <g id="navigator" transform="translate(0 0)" fill="#404254">
                <rect fill="#f2f5e9" fill-opacity="0.5" stroke="#606060" stroke-width=".5" x="0" y="0" width="60" height="60"/>
                <use id="zoomplus" xlink:href="#zoomPlus" x="17" y="9" onmousedown="handleZoom(evt,'in')"/>
                <use id="zoomminus" xlink:href="#zoomMin" x="42" y="9" onmousedown="handleZoom(evt,'out')"/>
                <use id="reset" xlink:href="#resetDef" x="30" y="36" onmousedown="handleReset()"/>
                <g id="arrowUp" xlink:href="#dirArrow" transform="translate(30 24)" onmousedown="handlePan(0,-1)">
                  <use xlink:href="#rim" fill="#404040">
                        <set attributeName="fill" to="#808080" begin="arrowUp.mouseover" end="arrowUp.mouseout"/>
                  </use>
                  <path fill="none" stroke="white" stroke-width="1.5" d="M0,-3.0v7 M-2.5,-0.5L0,-3.0L2.5,-0.5"/>
                </g>
                <g id="arrowRight" xlink:href="#dirArrow" transform="rotate(90) translate(36 -43)" onmousedown="handlePan(1,0)">
                  <use xlink:href="#rim" fill="#404040">
                        <set attributeName="fill" to="#808080" begin="arrowRight.mouseover" end="arrowRight.mouseout"/>
                  </use>
                  <path fill="none" stroke="white" stroke-width="1.5" d="M0,-3.0v7 M-2.5,-0.5L0,-3.0L2.5,-0.5"/>
                </g>
                <g id="arrowDown" xlink:href="#dirArrow" transform="rotate(180) translate(-30 -48)" onmousedown="handlePan(0,1)">
                  <use xlink:href="#rim" fill="#404040">
                        <set attributeName="fill" to="#808080" begin="arrowDown.mouseover" end="arrowDown.mouseout"/>
                  </use>
                  <path fill="none" stroke="white" stroke-width="1.5" d="M0,-3.0v7 M-2.5,-0.5L0,-3.0L2.5,-0.5"/>
                </g>
                <g id="arrowLeft" xlink:href="#dirArrow" transform="rotate(270) translate(-36 17)" onmousedown="handlePan(-1,0)">
                  <use xlink:href="#rim" fill="#404040">
                        <set attributeName="fill" to="#808080" begin="arrowLeft.mouseover" end="arrowLeft.mouseout"/>
                  </use>
                  <path fill="none" stroke="white" stroke-width="1.5" d="M0,-3.0v7 M-2.5,-0.5L0,-3.0L2.5,-0.5"/>
                </g>
        </g>
        <svg viewBox="0 0 15 15" width="100%" height="30px" preserveAspectRatio="xMaxYMin meet">
         <g id="arrow_out" transform="scale(0.3 0.3)">
          <a xlink:href="structo2_1_1emcal_1_1RAWDataHeader__coll__graph_org.svg" target="_base">
           <rect id="button" ry="5" rx="5" y="6" x="6" height="38" width="38"
                fill="#f2f5e9" fill-opacity="0.5" stroke="#606060" stroke-width="1.0"/>
           <path id="arrow"
             d="M 11.500037,31.436501 C 11.940474,20.09759 22.043105,11.32322 32.158766,21.979434 L 37.068811,17.246167 C 37.068811,17.246167 37.088388,32 37.088388,32 L 22.160133,31.978069 C 22.160133,31.978069 26.997745,27.140456 26.997745,27.140456 C 18.528582,18.264221 13.291696,25.230495 11.500037,31.436501 z"
             style="fill:#404040;"/>
          </a>
         </g>
        </svg>
</svg>
