<?xml version="1.0" encoding="UTF-8" standalone="no"?>
<!DOCTYPE svg PUBLIC "-//W3C//DTD SVG 1.1//EN"
 "http://www.w3.org/Graphics/SVG/1.1/DTD/svg11.dtd">
<!-- Generated by graphviz version 2.40.1 (20161225.0304)
 -->
<!-- Title: /home/travis/build/AliceO2Group/AliceO2/Detectors/TRD/simulation Pages: 1 -->
<svg width="281pt" height="447pt"
 viewBox="0.00 0.00 281.26 447.00" xmlns="http://www.w3.org/2000/svg" xmlns:xlink="http://www.w3.org/1999/xlink">
<g id="graph0" class="graph" transform="scale(1 1) rotate(0) translate(4 443)">
<title>/home/travis/build/AliceO2Group/AliceO2/Detectors/TRD/simulation</title>
<g id="clust1" class="cluster">
<title>clusterdir_69dd0583e11051991bf4c0cf23c50933</title>
<g id="a_clust1"><a xlink:href="dir_69dd0583e11051991bf4c0cf23c50933.html" target="_top" xlink:title="TRD">
<polygon fill="#ddddee" stroke="#000000" points="81,-272 81,-431 253,-431 253,-272 81,-272"/>
<text text-anchor="middle" x="167" y="-419" font-family="Helvetica,sans-Serif" font-size="10.00" fill="#000000">TRD</text>
</a>
</g>
</g>
<g id="clust2" class="cluster">
<title>clusterdir_5cb2a8e9fdbe67a11efb4176f60bf3d6</title>
<g id="a_clust2"><a xlink:href="dir_5cb2a8e9fdbe67a11efb4176f60bf3d6.html" target="_top">
<polygon fill="#eeeeff" stroke="#000000" points="89,-280 89,-404 245,-404 245,-280 89,-280"/>
</a>
</g>
</g>
<!-- dir_5cb2a8e9fdbe67a11efb4176f60bf3d6 -->
<g id="node1" class="node">
<title>dir_5cb2a8e9fdbe67a11efb4176f60bf3d6</title>
<text text-anchor="middle" x="203" y="-375.5" font-family="Helvetica,sans-Serif" font-size="10.00" fill="#000000">simulation</text>
</g>
<!-- dir_5036081dbf3ad3ea0cfa218a95bb99de -->
<g id="node2" class="node">
<title>dir_5036081dbf3ad3ea0cfa218a95bb99de</title>
<g id="a_node2"><a xlink:href="dir_5036081dbf3ad3ea0cfa218a95bb99de.html" target="_top" xlink:title="include">
<polygon fill="#ffffff" stroke="#ff0000" points="151,-324 97,-324 97,-288 151,-288 151,-324"/>
<text text-anchor="middle" x="124" y="-303.5" font-family="Helvetica,sans-Serif" font-size="10.00" fill="#000000">include</text>
</a>
</g>
</g>
<!-- dir_4ab6b4cc6a7edbff49100e9123df213f -->
<g id="node4" class="node">
<title>dir_4ab6b4cc6a7edbff49100e9123df213f</title>
<g id="a_node4"><a xlink:href="dir_4ab6b4cc6a7edbff49100e9123df213f.html" target="_top" xlink:title="Common">
<polygon fill="none" stroke="#ff0000" points="241.5,-252 180.5,-252 180.5,-216 241.5,-216 241.5,-252"/>
<text text-anchor="middle" x="211" y="-231.5" font-family="Helvetica,sans-Serif" font-size="10.00" fill="#000000">Common</text>
</a>
</g>
</g>
<!-- dir_5036081dbf3ad3ea0cfa218a95bb99de&#45;&gt;dir_4ab6b4cc6a7edbff49100e9123df213f -->
<g id="edge12" class="edge">
<title>dir_5036081dbf3ad3ea0cfa218a95bb99de&#45;&gt;dir_4ab6b4cc6a7edbff49100e9123df213f</title>
<path fill="none" stroke="#000000" d="M145.9538,-287.8314C156.6695,-278.9632 169.7189,-268.1637 181.309,-258.5718"/>
<polygon fill="#000000" stroke="#000000" points="183.5808,-261.2349 189.0533,-252.1628 179.1178,-255.8422 183.5808,-261.2349"/>
<g id="a_edge12&#45;headlabel"><a xlink:href="dir_000307_000028.html" target="_top" xlink:title="4">
<text text-anchor="middle" x="182.6218" y="-263.2141" font-family="Helvetica,sans-Serif" font-size="10.00" fill="#000000">4</text>
</a>
</g>
</g>
<!-- dir_37c90836491b695b472bf98d1be8336b -->
<g id="node5" class="node">
<title>dir_37c90836491b695b472bf98d1be8336b</title>
<g id="a_node5"><a xlink:href="dir_37c90836491b695b472bf98d1be8336b.html" target="_top" xlink:title="Base">
<polygon fill="none" stroke="#ff0000" points="214,-36 160,-36 160,0 214,0 214,-36"/>
<text text-anchor="middle" x="187" y="-15.5" font-family="Helvetica,sans-Serif" font-size="10.00" fill="#000000">Base</text>
</a>
</g>
</g>
<!-- dir_5036081dbf3ad3ea0cfa218a95bb99de&#45;&gt;dir_37c90836491b695b472bf98d1be8336b -->
<g id="edge13" class="edge">
<title>dir_5036081dbf3ad3ea0cfa218a95bb99de&#45;&gt;dir_37c90836491b695b472bf98d1be8336b</title>
<path fill="none" stroke="#000000" d="M117.9941,-287.7793C105.5845,-246.7378 81.1419,-144.9498 117,-72 124.3315,-57.0848 137.9844,-45.1261 151.2995,-36.2913"/>
<polygon fill="#000000" stroke="#000000" points="153.278,-39.1827 159.9308,-30.937 149.588,-33.2343 153.278,-39.1827"/>
<g id="a_edge13&#45;headlabel"><a xlink:href="dir_000307_000275.html" target="_top" xlink:title="1">
<text text-anchor="middle" x="151.7201" y="-40.9903" font-family="Helvetica,sans-Serif" font-size="10.00" fill="#000000">1</text>
</a>
</g>
</g>
<!-- dir_09bf7f7c4011a5ccc426492db4dd0891 -->
<g id="node6" class="node">
<title>dir_09bf7f7c4011a5ccc426492db4dd0891</title>
<g id="a_node6"><a xlink:href="dir_09bf7f7c4011a5ccc426492db4dd0891.html" target="_top" xlink:title="base">
<polygon fill="none" stroke="#ff0000" points="180,-108 126,-108 126,-72 180,-72 180,-108"/>
<text text-anchor="middle" x="153" y="-87.5" font-family="Helvetica,sans-Serif" font-size="10.00" fill="#000000">base</text>
</a>
</g>
</g>
<!-- dir_5036081dbf3ad3ea0cfa218a95bb99de&#45;&gt;dir_09bf7f7c4011a5ccc426492db4dd0891 -->
<g id="edge14" class="edge">
<title>dir_5036081dbf3ad3ea0cfa218a95bb99de&#45;&gt;dir_09bf7f7c4011a5ccc426492db4dd0891</title>
<path fill="none" stroke="#000000" d="M126.4226,-287.9555C131.4763,-250.3144 143.174,-163.1867 149.224,-118.1246"/>
<polygon fill="#000000" stroke="#000000" points="152.702,-118.5219 150.5639,-108.1451 145.7642,-117.5904 152.702,-118.5219"/>
<g id="a_edge14&#45;headlabel"><a xlink:href="dir_000307_000142.html" target="_top" xlink:title="11">
<text text-anchor="middle" x="155.0378" y="-119.9623" font-family="Helvetica,sans-Serif" font-size="10.00" fill="#000000">11</text>
</a>
</g>
</g>
<!-- dir_2171f7ec022c5423887b07c69b2f5b48 -->
<g id="node7" class="node">
<title>dir_2171f7ec022c5423887b07c69b2f5b48</title>
<g id="a_node7"><a xlink:href="dir_2171f7ec022c5423887b07c69b2f5b48.html" target="_top" xlink:title="DataFormats">
<polygon fill="none" stroke="#ff0000" points="260,-180 180,-180 180,-144 260,-144 260,-180"/>
<text text-anchor="middle" x="220" y="-159.5" font-family="Helvetica,sans-Serif" font-size="10.00" fill="#000000">DataFormats</text>
</a>
</g>
</g>
<!-- dir_5036081dbf3ad3ea0cfa218a95bb99de&#45;&gt;dir_2171f7ec022c5423887b07c69b2f5b48 -->
<g id="edge15" class="edge">
<title>dir_5036081dbf3ad3ea0cfa218a95bb99de&#45;&gt;dir_2171f7ec022c5423887b07c69b2f5b48</title>
<path fill="none" stroke="#000000" d="M131.7488,-287.9814C140.181,-269.2405 154.6626,-239.4211 171,-216 177.765,-206.3018 186.1167,-196.4917 193.9965,-187.9426"/>
<polygon fill="#000000" stroke="#000000" points="196.7184,-190.158 201.0414,-180.4852 191.6299,-185.351 196.7184,-190.158"/>
<g id="a_edge15&#45;headlabel"><a xlink:href="dir_000307_000077.html" target="_top" xlink:title="4">
<text text-anchor="middle" x="196.3139" y="-192.2207" font-family="Helvetica,sans-Serif" font-size="10.00" fill="#000000">4</text>
</a>
</g>
</g>
<!-- dir_41d98617f9e68bb8925b5f8794afb89b -->
<g id="node3" class="node">
<title>dir_41d98617f9e68bb8925b5f8794afb89b</title>
<g id="a_node3"><a xlink:href="dir_41d98617f9e68bb8925b5f8794afb89b.html" target="_top" xlink:title="src">
<polygon fill="#ffffff" stroke="#000000" points="151,-396 97,-396 97,-360 151,-360 151,-396"/>
<text text-anchor="middle" x="124" y="-375.5" font-family="Helvetica,sans-Serif" font-size="10.00" fill="#000000">src</text>
</a>
</g>
</g>
<!-- dir_41d98617f9e68bb8925b5f8794afb89b&#45;&gt;dir_5036081dbf3ad3ea0cfa218a95bb99de -->
<g id="edge7" class="edge">
<title>dir_41d98617f9e68bb8925b5f8794afb89b&#45;&gt;dir_5036081dbf3ad3ea0cfa218a95bb99de</title>
<path fill="none" stroke="#000000" d="M124,-359.8314C124,-352.131 124,-342.9743 124,-334.4166"/>
<polygon fill="#000000" stroke="#000000" points="127.5001,-334.4132 124,-324.4133 120.5001,-334.4133 127.5001,-334.4132"/>
<g id="a_edge7&#45;headlabel"><a xlink:href="dir_000330_000307.html" target="_top" xlink:title="14">
<text text-anchor="middle" x="130.3393" y="-335.5079" font-family="Helvetica,sans-Serif" font-size="10.00" fill="#000000">14</text>
</a>
</g>
</g>
<!-- dir_41d98617f9e68bb8925b5f8794afb89b&#45;&gt;dir_4ab6b4cc6a7edbff49100e9123df213f -->
<g id="edge4" class="edge">
<title>dir_41d98617f9e68bb8925b5f8794afb89b&#45;&gt;dir_4ab6b4cc6a7edbff49100e9123df213f</title>
<path fill="none" stroke="#000000" d="M136.6646,-359.7203C143.7208,-349.3603 152.558,-336.09 160,-324 172.827,-303.1618 186.4467,-279.0111 196.382,-260.9765"/>
<polygon fill="#000000" stroke="#000000" points="199.4809,-262.6046 201.2179,-252.1531 193.3424,-259.2402 199.4809,-262.6046"/>
<g id="a_edge4&#45;headlabel"><a xlink:href="dir_000330_000028.html" target="_top" xlink:title="1">
<text text-anchor="middle" x="200.2431" y="-264.6214" font-family="Helvetica,sans-Serif" font-size="10.00" fill="#000000">1</text>
</a>
</g>
</g>
<!-- dir_41d98617f9e68bb8925b5f8794afb89b&#45;&gt;dir_37c90836491b695b472bf98d1be8336b -->
<g id="edge5" class="edge">
<title>dir_41d98617f9e68bb8925b5f8794afb89b&#45;&gt;dir_37c90836491b695b472bf98d1be8336b</title>
<path fill="none" stroke="#000000" d="M96.7877,-362.5901C60.2862,-339.6659 0,-292.89 0,-234 0,-234 0,-234 0,-162 0,-86.9724 95.6654,-45.604 150.1473,-28.128"/>
<polygon fill="#000000" stroke="#000000" points="151.2891,-31.4385 159.8086,-25.1402 149.2209,-24.751 151.2891,-31.4385"/>
<g id="a_edge5&#45;headlabel"><a xlink:href="dir_000330_000275.html" target="_top" xlink:title="1">
<text text-anchor="middle" x="148.6938" y="-32.713" font-family="Helvetica,sans-Serif" font-size="10.00" fill="#000000">1</text>
</a>
</g>
</g>
<!-- dir_41d98617f9e68bb8925b5f8794afb89b&#45;&gt;dir_09bf7f7c4011a5ccc426492db4dd0891 -->
<g id="edge6" class="edge">
<title>dir_41d98617f9e68bb8925b5f8794afb89b&#45;&gt;dir_09bf7f7c4011a5ccc426492db4dd0891</title>
<path fill="none" stroke="#000000" d="M108.0095,-359.9169C100.3462,-350.0371 91.9834,-337.1563 88,-324 81.3028,-301.8805 84.0556,-294.772 88,-272 97.8505,-215.131 123.8116,-152.512 139.7845,-117.5479"/>
<polygon fill="#000000" stroke="#000000" points="143.1646,-118.5786 144.1976,-108.0342 136.8145,-115.633 143.1646,-118.5786"/>
<g id="a_edge6&#45;headlabel"><a xlink:href="dir_000330_000142.html" target="_top" xlink:title="20">
<text text-anchor="middle" x="144.2277" y="-120.5342" font-family="Helvetica,sans-Serif" font-size="10.00" fill="#000000">20</text>
</a>
</g>
</g>
<!-- dir_41d98617f9e68bb8925b5f8794afb89b&#45;&gt;dir_2171f7ec022c5423887b07c69b2f5b48 -->
<g id="edge8" class="edge">
<title>dir_41d98617f9e68bb8925b5f8794afb89b&#45;&gt;dir_2171f7ec022c5423887b07c69b2f5b48</title>
<path fill="none" stroke="#000000" d="M151.1466,-361.6536C182.6497,-340.8209 232.6247,-301.4995 251,-252 258.8361,-230.891 249.5499,-206.7577 239.1475,-188.7987"/>
<polygon fill="#000000" stroke="#000000" points="241.9421,-186.6646 233.6907,-180.0189 235.9968,-190.3597 241.9421,-186.6646"/>
<g id="a_edge8&#45;headlabel"><a xlink:href="dir_000330_000077.html" target="_top" xlink:title="3">
<text text-anchor="middle" x="246.251" y="-185.7189" font-family="Helvetica,sans-Serif" font-size="10.00" fill="#000000">3</text>
</a>
</g>
</g>
<!-- dir_4ab6b4cc6a7edbff49100e9123df213f&#45;&gt;dir_2171f7ec022c5423887b07c69b2f5b48 -->
<g id="edge1" class="edge">
<title>dir_4ab6b4cc6a7edbff49100e9123df213f&#45;&gt;dir_2171f7ec022c5423887b07c69b2f5b48</title>
<path fill="none" stroke="#000000" d="M207.3187,-215.8314C207.5308,-208.131 208.4545,-198.9743 209.8328,-190.4166"/>
<polygon fill="#000000" stroke="#000000" points="213.3054,-190.8892 211.7223,-180.4133 206.427,-189.5899 213.3054,-190.8892"/>
<g id="a_edge1&#45;headlabel"><a xlink:href="dir_000028_000077.html" target="_top" xlink:title="2">
<text text-anchor="middle" x="215.4282" y="-192.4483" font-family="Helvetica,sans-Serif" font-size="10.00" fill="#000000">2</text>
</a>
</g>
</g>
<!-- dir_37c90836491b695b472bf98d1be8336b&#45;&gt;dir_4ab6b4cc6a7edbff49100e9123df213f -->
<g id="edge2" class="edge">
<title>dir_37c90836491b695b472bf98d1be8336b&#45;&gt;dir_4ab6b4cc6a7edbff49100e9123df213f</title>
<path fill="none" stroke="#000000" d="M204.1915,-36.219C224.5311,-59.2112 257.1307,-100.9771 269,-144 273.2552,-159.4238 275.3858,-165.3296 269,-180 264.1585,-191.1227 255.7717,-200.9894 246.8561,-209.1459"/>
<polygon fill="#000000" stroke="#000000" points="244.31,-206.7167 238.9609,-215.862 248.8456,-212.0485 244.31,-206.7167"/>
<g id="a_edge2&#45;headlabel"><a xlink:href="dir_000275_000028.html" target="_top" xlink:title="16">
<text text-anchor="middle" x="245.2083" y="-199.725" font-family="Helvetica,sans-Serif" font-size="10.00" fill="#000000">16</text>
</a>
</g>
</g>
<!-- dir_37c90836491b695b472bf98d1be8336b&#45;&gt;dir_2171f7ec022c5423887b07c69b2f5b48 -->
<g id="edge3" class="edge">
<title>dir_37c90836491b695b472bf98d1be8336b&#45;&gt;dir_2171f7ec022c5423887b07c69b2f5b48</title>
<path fill="none" stroke="#000000" d="M195.8038,-36.0896C203.9187,-60.6805 214.3286,-104.905 219.0333,-133.8531"/>
<polygon fill="#000000" stroke="#000000" points="215.573,-134.3795 220.4937,-143.7623 222.4982,-133.3588 215.573,-134.3795"/>
<g id="a_edge3&#45;headlabel"><a xlink:href="dir_000275_000077.html" target="_top" xlink:title="12">
<text text-anchor="middle" x="212.2401" y="-128.7372" font-family="Helvetica,sans-Serif" font-size="10.00" fill="#000000">12</text>
</a>
</g>
</g>
<!-- dir_09bf7f7c4011a5ccc426492db4dd0891&#45;&gt;dir_4ab6b4cc6a7edbff49100e9123df213f -->
<g id="edge9" class="edge">
<title>dir_09bf7f7c4011a5ccc426492db4dd0891&#45;&gt;dir_4ab6b4cc6a7edbff49100e9123df213f</title>
<path fill="none" stroke="#000000" d="M154.2994,-108.2948C156.1606,-126.9978 160.5984,-156.5488 171,-180 175.3283,-189.7584 181.6725,-199.4396 188.0387,-207.8521"/>
<polygon fill="#000000" stroke="#000000" points="185.383,-210.1361 194.3383,-215.7976 190.8681,-205.7872 185.383,-210.1361"/>
<g id="a_edge9&#45;headlabel"><a xlink:href="dir_000142_000028.html" target="_top" xlink:title="3">
<text text-anchor="middle" x="180.9249" y="-206.5834" font-family="Helvetica,sans-Serif" font-size="10.00" fill="#000000">3</text>
</a>
</g>
</g>
<!-- dir_09bf7f7c4011a5ccc426492db4dd0891&#45;&gt;dir_37c90836491b695b472bf98d1be8336b -->
<g id="edge10" class="edge">
<title>dir_09bf7f7c4011a5ccc426492db4dd0891&#45;&gt;dir_37c90836491b695b472bf98d1be8336b</title>
<path fill="none" stroke="#000000" d="M161.5796,-71.8314C165.3358,-63.8771 169.8257,-54.369 173.9798,-45.5723"/>
<polygon fill="#000000" stroke="#000000" points="177.1996,-46.9503 178.3048,-36.4133 170.8699,-43.9612 177.1996,-46.9503"/>
<g id="a_edge10&#45;headlabel"><a xlink:href="dir_000142_000275.html" target="_top" xlink:title="2">
<text text-anchor="middle" x="178.2321" y="-48.9131" font-family="Helvetica,sans-Serif" font-size="10.00" fill="#000000">2</text>
</a>
</g>
</g>
<!-- dir_09bf7f7c4011a5ccc426492db4dd0891&#45;&gt;dir_2171f7ec022c5423887b07c69b2f5b48 -->
<g id="edge11" class="edge">
<title>dir_09bf7f7c4011a5ccc426492db4dd0891&#45;&gt;dir_2171f7ec022c5423887b07c69b2f5b48</title>
<path fill="none" stroke="#000000" d="M175.8533,-108.1628C184.5311,-116.6038 194.2017,-126.7956 202.3453,-136.0303"/>
<polygon fill="#000000" stroke="#000000" points="199.8748,-138.5257 209.0455,-143.8314 205.185,-133.9648 199.8748,-138.5257"/>
<g id="a_edge11&#45;headlabel"><a xlink:href="dir_000142_000077.html" target="_top" xlink:title="11">
<text text-anchor="middle" x="195.3789" y="-135.1488" font-family="Helvetica,sans-Serif" font-size="10.00" fill="#000000">11</text>
</a>
</g>
</g>
<!-- dir_2171f7ec022c5423887b07c69b2f5b48&#45;&gt;dir_4ab6b4cc6a7edbff49100e9123df213f -->
<g id="edge16" class="edge">
<title>dir_2171f7ec022c5423887b07c69b2f5b48&#45;&gt;dir_4ab6b4cc6a7edbff49100e9123df213f</title>
<path fill="none" stroke="#000000" d="M223.6743,-180.4133C223.4472,-188.1442 222.5112,-197.3097 221.1233,-205.8545"/>
<polygon fill="#000000" stroke="#000000" points="217.656,-205.3531 219.2235,-215.8314 224.5324,-206.6626 217.656,-205.3531"/>
<g id="a_edge16&#45;headlabel"><a xlink:href="dir_000077_000028.html" target="_top" xlink:title="35">
<text text-anchor="middle" x="215.5392" y="-198.7909" font-family="Helvetica,sans-Serif" font-size="10.00" fill="#000000">35</text>
</a>
</g>
</g>
<!-- dir_2171f7ec022c5423887b07c69b2f5b48&#45;&gt;dir_37c90836491b695b472bf98d1be8336b -->
<g id="edge17" class="edge">
<title>dir_2171f7ec022c5423887b07c69b2f5b48&#45;&gt;dir_37c90836491b695b472bf98d1be8336b</title>
<path fill="none" stroke="#000000" d="M211.1474,-143.7623C203.0589,-119.201 192.7115,-75.2474 188.0004,-46.3541"/>
<polygon fill="#000000" stroke="#000000" points="191.4083,-45.4722 186.4872,-36.0896 184.4831,-46.4932 191.4083,-45.4722"/>
<g id="a_edge17&#45;headlabel"><a xlink:href="dir_000077_000275.html" target="_top" xlink:title="1">
<text text-anchor="middle" x="194.7414" y="-46.1144" font-family="Helvetica,sans-Serif" font-size="10.00" fill="#000000">1</text>
</a>
</g>
</g>
<!-- dir_2171f7ec022c5423887b07c69b2f5b48&#45;&gt;dir_09bf7f7c4011a5ccc426492db4dd0891 -->
<g id="edge18" class="edge">
<title>dir_2171f7ec022c5423887b07c69b2f5b48&#45;&gt;dir_09bf7f7c4011a5ccc426492db4dd0891</title>
<path fill="none" stroke="#000000" d="M197.1407,-143.8314C188.5287,-135.454 178.9396,-125.3531 170.8358,-116.1749"/>
<polygon fill="#000000" stroke="#000000" points="173.3335,-113.7115 164.1586,-108.4133 168.027,-118.2767 173.3335,-113.7115"/>
<g id="a_edge18&#45;headlabel"><a xlink:href="dir_000077_000142.html" target="_top" xlink:title="1">
<text text-anchor="middle" x="177.8301" y="-112.0848" font-family="Helvetica,sans-Serif" font-size="10.00" fill="#000000">1</text>
</a>
</g>
</g>
</g>
</svg>
