<?xml version="1.0" encoding="UTF-8" standalone="no"?>
<!DOCTYPE svg PUBLIC "-//W3C//DTD SVG 1.1//EN"
 "http://www.w3.org/Graphics/SVG/1.1/DTD/svg11.dtd">
<!-- Generated by graphviz version 2.40.1 (20161225.0304)
 -->
<!-- Title: /home/travis/build/AliceO2Group/AliceO2/Analysis/DataModel/include/Analysis Pages: 1 -->
<svg width="160pt" height="223pt"
 viewBox="0.00 0.00 159.50 223.00" xmlns="http://www.w3.org/2000/svg" xmlns:xlink="http://www.w3.org/1999/xlink">
<g id="graph0" class="graph" transform="scale(1 1) rotate(0) translate(4 219)">
<title>/home/travis/build/AliceO2Group/AliceO2/Analysis/DataModel/include/Analysis</title>
<g id="clust1" class="cluster">
<title>clusterdir_7683e4c5aa7478ea0e5a46a41c8497b7</title>
<g id="a_clust1"><a xlink:href="dir_7683e4c5aa7478ea0e5a46a41c8497b7.html" target="_top" xlink:title="include">
<polygon fill="#ddddee" stroke="#000000" points="69.5,-136 69.5,-207 143.5,-207 143.5,-136 69.5,-136"/>
<text text-anchor="middle" x="106.5" y="-195" font-family="Helvetica,sans-Serif" font-size="10.00" fill="#000000">include</text>
</a>
</g>
</g>
<!-- dir_5288c54a69662669867ddb130abdbf12 -->
<g id="node1" class="node">
<title>dir_5288c54a69662669867ddb130abdbf12</title>
<g id="a_node1"><a xlink:href="dir_5288c54a69662669867ddb130abdbf12.html" target="_top" xlink:title="Analysis">
<polygon fill="#eeeeff" stroke="#000000" points="135.5,-180 77.5,-180 77.5,-144 135.5,-144 135.5,-180"/>
<text text-anchor="middle" x="106.5" y="-159.5" font-family="Helvetica,sans-Serif" font-size="10.00" fill="#000000">Analysis</text>
</a>
</g>
</g>
<!-- dir_4ab6b4cc6a7edbff49100e9123df213f -->
<g id="node2" class="node">
<title>dir_4ab6b4cc6a7edbff49100e9123df213f</title>
<g id="a_node2"><a xlink:href="dir_4ab6b4cc6a7edbff49100e9123df213f.html" target="_top" xlink:title="Common">
<polygon fill="none" stroke="#ff0000" points="61,-108 0,-108 0,-72 61,-72 61,-108"/>
<text text-anchor="middle" x="30.5" y="-87.5" font-family="Helvetica,sans-Serif" font-size="10.00" fill="#000000">Common</text>
</a>
</g>
</g>
<!-- dir_5288c54a69662669867ddb130abdbf12&#45;&gt;dir_4ab6b4cc6a7edbff49100e9123df213f -->
<g id="edge2" class="edge">
<title>dir_5288c54a69662669867ddb130abdbf12&#45;&gt;dir_4ab6b4cc6a7edbff49100e9123df213f</title>
<path fill="none" stroke="#000000" d="M87.322,-143.8314C78.1412,-135.1337 66.9994,-124.5783 57.0224,-115.1265"/>
<polygon fill="#000000" stroke="#000000" points="59.3385,-112.4995 49.6719,-108.1628 54.5243,-117.5811 59.3385,-112.4995"/>
<g id="a_edge2&#45;headlabel"><a xlink:href="dir_000011_000028.html" target="_top" xlink:title="1">
<text text-anchor="middle" x="63.9007" y="-110.4104" font-family="Helvetica,sans-Serif" font-size="10.00" fill="#000000">1</text>
</a>
</g>
</g>
<!-- dir_8d04f135a1eb0fdc4d561ef87bbea216 -->
<g id="node3" class="node">
<title>dir_8d04f135a1eb0fdc4d561ef87bbea216</title>
<g id="a_node3"><a xlink:href="dir_8d04f135a1eb0fdc4d561ef87bbea216.html" target="_top" xlink:title="Core">
<polygon fill="none" stroke="#ff0000" points="133.5,-108 79.5,-108 79.5,-72 133.5,-72 133.5,-108"/>
<text text-anchor="middle" x="106.5" y="-87.5" font-family="Helvetica,sans-Serif" font-size="10.00" fill="#000000">Core</text>
</a>
</g>
</g>
<!-- dir_5288c54a69662669867ddb130abdbf12&#45;&gt;dir_8d04f135a1eb0fdc4d561ef87bbea216 -->
<g id="edge3" class="edge">
<title>dir_5288c54a69662669867ddb130abdbf12&#45;&gt;dir_8d04f135a1eb0fdc4d561ef87bbea216</title>
<path fill="none" stroke="#000000" d="M106.5,-143.8314C106.5,-136.131 106.5,-126.9743 106.5,-118.4166"/>
<polygon fill="#000000" stroke="#000000" points="110.0001,-118.4132 106.5,-108.4133 103.0001,-118.4133 110.0001,-118.4132"/>
<g id="a_edge3&#45;headlabel"><a xlink:href="dir_000011_000005.html" target="_top" xlink:title="1">
<text text-anchor="middle" x="112.8393" y="-119.5079" font-family="Helvetica,sans-Serif" font-size="10.00" fill="#000000">1</text>
</a>
</g>
</g>
<!-- dir_bcbb2cf9a3d3d83e5515c82071a07177 -->
<g id="node4" class="node">
<title>dir_bcbb2cf9a3d3d83e5515c82071a07177</title>
<g id="a_node4"><a xlink:href="dir_bcbb2cf9a3d3d83e5515c82071a07177.html" target="_top" xlink:title="Framework">
<polygon fill="none" stroke="#ff0000" points="104,-36 33,-36 33,0 104,0 104,-36"/>
<text text-anchor="middle" x="68.5" y="-15.5" font-family="Helvetica,sans-Serif" font-size="10.00" fill="#000000">Framework</text>
</a>
</g>
</g>
<!-- dir_5288c54a69662669867ddb130abdbf12&#45;&gt;dir_bcbb2cf9a3d3d83e5515c82071a07177 -->
<g id="edge4" class="edge">
<title>dir_5288c54a69662669867ddb130abdbf12&#45;&gt;dir_bcbb2cf9a3d3d83e5515c82071a07177</title>
<path fill="none" stroke="#000000" d="M122.7646,-143.9955C137.3718,-125.5237 154.7753,-96.1538 142.5,-72 135.948,-59.1078 124.7144,-48.5613 112.9516,-40.3206"/>
<polygon fill="#000000" stroke="#000000" points="114.6434,-37.2458 104.3523,-34.7271 110.8265,-43.1137 114.6434,-37.2458"/>
<g id="a_edge4&#45;headlabel"><a xlink:href="dir_000011_000014.html" target="_top" xlink:title="9">
<text text-anchor="middle" x="119.2048" y="-34.3257" font-family="Helvetica,sans-Serif" font-size="10.00" fill="#000000">9</text>
</a>
</g>
</g>
<!-- dir_4ab6b4cc6a7edbff49100e9123df213f&#45;&gt;dir_bcbb2cf9a3d3d83e5515c82071a07177 -->
<g id="edge1" class="edge">
<title>dir_4ab6b4cc6a7edbff49100e9123df213f&#45;&gt;dir_bcbb2cf9a3d3d83e5515c82071a07177</title>
<path fill="none" stroke="#000000" d="M34.1366,-71.8314C37.6324,-63.7079 42.5727,-53.9637 47.6844,-45.0118"/>
<polygon fill="#000000" stroke="#000000" points="50.6955,-46.7958 52.8059,-36.4133 44.6815,-43.2137 50.6955,-46.7958"/>
<g id="a_edge1&#45;headlabel"><a xlink:href="dir_000028_000014.html" target="_top" xlink:title="2">
<text text-anchor="middle" x="51.2954" y="-48.837" font-family="Helvetica,sans-Serif" font-size="10.00" fill="#000000">2</text>
</a>
</g>
</g>
<!-- dir_8d04f135a1eb0fdc4d561ef87bbea216&#45;&gt;dir_bcbb2cf9a3d3d83e5515c82071a07177 -->
<g id="edge5" class="edge">
<title>dir_8d04f135a1eb0fdc4d561ef87bbea216&#45;&gt;dir_bcbb2cf9a3d3d83e5515c82071a07177</title>
<path fill="none" stroke="#000000" d="M96.911,-71.8314C92.6683,-63.7925 87.5879,-54.1666 82.904,-45.2918"/>
<polygon fill="#000000" stroke="#000000" points="85.9811,-43.6235 78.2181,-36.4133 79.7904,-46.8908 85.9811,-43.6235"/>
<g id="a_edge5&#45;headlabel"><a xlink:href="dir_000005_000014.html" target="_top" xlink:title="5">
<text text-anchor="middle" x="90.1699" y="-42.9772" font-family="Helvetica,sans-Serif" font-size="10.00" fill="#000000">5</text>
</a>
</g>
</g>
<!-- dir_bcbb2cf9a3d3d83e5515c82071a07177&#45;&gt;dir_4ab6b4cc6a7edbff49100e9123df213f -->
<g id="edge6" class="edge">
<title>dir_bcbb2cf9a3d3d83e5515c82071a07177&#45;&gt;dir_4ab6b4cc6a7edbff49100e9123df213f</title>
<path fill="none" stroke="#000000" d="M64.7579,-36.4133C61.27,-44.484 56.38,-54.1182 51.3218,-62.9775"/>
<polygon fill="#000000" stroke="#000000" points="48.1576,-61.45 46.0414,-71.8314 54.1696,-65.0355 48.1576,-61.45"/>
<g id="a_edge6&#45;headlabel"><a xlink:href="dir_000014_000028.html" target="_top" xlink:title="8">
<text text-anchor="middle" x="47.5602" y="-54.4085" font-family="Helvetica,sans-Serif" font-size="10.00" fill="#000000">8</text>
</a>
</g>
</g>
</g>
</svg>
