<?xml version="1.0" encoding="UTF-8" standalone="no"?>
<!DOCTYPE svg PUBLIC "-//W3C//DTD SVG 1.1//EN"
 "http://www.w3.org/Graphics/SVG/1.1/DTD/svg11.dtd">
<!-- Generated by graphviz version 2.40.1 (20161225.0304)
 -->
<!-- Title: /home/travis/build/AliceO2Group/AliceO2/Detectors/CTF/workflow Pages: 1 -->
<!--zoomable 519 -->
<svg id="main" version="1.1" xmlns="http://www.w3.org/2000/svg" xmlns:xlink="http://www.w3.org/1999/xlink" xml:space="preserve" onload="init(evt)">
<style type="text/css"><![CDATA[
.edge:hover path { stroke: red; }
.edge:hover polygon { stroke: red; fill: red; }
]]></style>
<script type="text/javascript"><![CDATA[
var edges = document.getElementsByTagName('g');
if (edges && edges.length) {
  for (var i=0;i<edges.length;i++) {
    if (edges[i].id.substr(0,4)=='edge') {
      edges[i].setAttribute('class','edge');
    }
  }
}
]]></script>
        <defs>
                <circle id="rim" cx="0" cy="0" r="7"/>
                <circle id="rim2" cx="0" cy="0" r="3.5"/>
                <g id="zoomPlus">
                        <use xlink:href="#rim" fill="#404040">
                                <set attributeName="fill" to="#808080" begin="zoomplus.mouseover" end="zoomplus.mouseout"/>
                        </use>
                        <path d="M-4,0h8M0,-4v8" fill="none" stroke="white" stroke-width="1.5" pointer-events="none"/>
                </g>
                <g id="zoomMin">
                        <use xlink:href="#rim" fill="#404040">
                                <set attributeName="fill" to="#808080" begin="zoomminus.mouseover" end="zoomminus.mouseout"/>
                        </use>
                        <path d="M-4,0h8" fill="none" stroke="white" stroke-width="1.5" pointer-events="none"/>
                </g>
                <g id="dirArrow">
                        <path fill="none" stroke="white" stroke-width="1.5" d="M0,-3.0v7 M-2.5,-0.5L0,-3.0L2.5,-0.5"/>
                </g>
               <g id="resetDef">
                       <use xlink:href="#rim2" fill="#404040">
                               <set attributeName="fill" to="#808080" begin="reset.mouseover" end="reset.mouseout"/>
                       </use>
               </g>
        </defs>

<script type="text/javascript">
var viewWidth = 530;
var viewHeight = 519;
var sectionId = 'dynsection-0';
</script>
<script xlink:href="svgpan.js"/>
<svg id="graph" class="graph">
<g id="viewport">
<title>/home/travis/build/AliceO2Group/AliceO2/Detectors/CTF/workflow</title>
<g id="clust1" class="cluster">
<title>clusterdir_22c28337d94ed0b7d4c6655ee55d3b27</title>
<g id="a_clust1"><a xlink:href="dir_22c28337d94ed0b7d4c6655ee55d3b27.html" target="_top" xlink:title="CTF">
<polygon fill="#ddddee" stroke="#000000" points="256,-344 256,-503 422,-503 422,-344 256,-344"/>
<text text-anchor="middle" x="339" y="-491" font-family="Helvetica,sans-Serif" font-size="10.00" fill="#000000">CTF</text>
</a>
</g>
</g>
<g id="clust2" class="cluster">
<title>clusterdir_60bab4a80e8540917b3a9a0f6e3beabd</title>
<g id="a_clust2"><a xlink:href="dir_60bab4a80e8540917b3a9a0f6e3beabd.html" target="_top">
<polygon fill="#eeeeff" stroke="#000000" points="264,-352 264,-476 414,-476 414,-352 264,-352"/>
</a>
</g>
</g>
<!-- dir_60bab4a80e8540917b3a9a0f6e3beabd -->
<g id="node1" class="node">
<title>dir_60bab4a80e8540917b3a9a0f6e3beabd</title>
<text text-anchor="middle" x="375" y="-447.5" font-family="Helvetica,sans-Serif" font-size="10.00" fill="#000000">workflow</text>
</g>
<!-- dir_f880e19344c61eaaaff98e6bc913348a -->
<g id="node2" class="node">
<title>dir_f880e19344c61eaaaff98e6bc913348a</title>
<g id="a_node2"><a xlink:href="dir_f880e19344c61eaaaff98e6bc913348a.html" target="_top" xlink:title="include">
<polygon fill="#ffffff" stroke="#ff0000" points="326,-396 272,-396 272,-360 326,-360 326,-396"/>
<text text-anchor="middle" x="299" y="-375.5" font-family="Helvetica,sans-Serif" font-size="10.00" fill="#000000">include</text>
</a>
</g>
</g>
<!-- dir_bcbb2cf9a3d3d83e5515c82071a07177 -->
<g id="node9" class="node">
<title>dir_bcbb2cf9a3d3d83e5515c82071a07177</title>
<g id="a_node9"><a xlink:href="dir_bcbb2cf9a3d3d83e5515c82071a07177.html" target="_top" xlink:title="Framework">
<polygon fill="none" stroke="#ff0000" points="270.5,-324 199.5,-324 199.5,-288 270.5,-288 270.5,-324"/>
<text text-anchor="middle" x="235" y="-303.5" font-family="Helvetica,sans-Serif" font-size="10.00" fill="#000000">Framework</text>
</a>
</g>
</g>
<!-- dir_f880e19344c61eaaaff98e6bc913348a&#45;&gt;dir_bcbb2cf9a3d3d83e5515c82071a07177 -->
<g id="edge1" class="edge">
<title>dir_f880e19344c61eaaaff98e6bc913348a&#45;&gt;dir_bcbb2cf9a3d3d83e5515c82071a07177</title>
<path fill="none" stroke="#000000" d="M282.8501,-359.8314C275.3283,-351.3694 266.2435,-341.1489 258.0196,-331.8971"/>
<polygon fill="#000000" stroke="#000000" points="260.627,-329.5621 251.3673,-324.4133 255.3951,-334.2127 260.627,-329.5621"/>
<g id="a_edge1&#45;headlabel"><a xlink:href="dir_000417_000014.html" target="_top" xlink:title="4">
<text text-anchor="middle" x="265.1372" y="-327.8624" font-family="Helvetica,sans-Serif" font-size="10.00" fill="#000000">4</text>
</a>
</g>
</g>
<!-- dir_2171f7ec022c5423887b07c69b2f5b48 -->
<g id="node10" class="node">
<title>dir_2171f7ec022c5423887b07c69b2f5b48</title>
<g id="a_node10"><a xlink:href="dir_2171f7ec022c5423887b07c69b2f5b48.html" target="_top" xlink:title="DataFormats">
<polygon fill="none" stroke="#ff0000" points="308,-108 228,-108 228,-72 308,-72 308,-108"/>
<text text-anchor="middle" x="268" y="-87.5" font-family="Helvetica,sans-Serif" font-size="10.00" fill="#000000">DataFormats</text>
</a>
</g>
</g>
<!-- dir_f880e19344c61eaaaff98e6bc913348a&#45;&gt;dir_2171f7ec022c5423887b07c69b2f5b48 -->
<g id="edge2" class="edge">
<title>dir_f880e19344c61eaaaff98e6bc913348a&#45;&gt;dir_2171f7ec022c5423887b07c69b2f5b48</title>
<path fill="none" stroke="#000000" d="M308.493,-359.9543C323.042,-329.9653 347.8844,-268.0166 335,-216 325.8219,-178.9464 303.4214,-140.8527 287.0395,-116.3934"/>
<polygon fill="#000000" stroke="#000000" points="289.8488,-114.301 281.312,-108.0261 284.0724,-118.255 289.8488,-114.301"/>
<g id="a_edge2&#45;headlabel"><a xlink:href="dir_000417_000077.html" target="_top" xlink:title="2">
<text text-anchor="middle" x="294.2221" y="-113.1635" font-family="Helvetica,sans-Serif" font-size="10.00" fill="#000000">2</text>
</a>
</g>
</g>
<!-- dir_0975f3a41b875e2b4566cea931b99e77 -->
<g id="node3" class="node">
<title>dir_0975f3a41b875e2b4566cea931b99e77</title>
<g id="a_node3"><a xlink:href="dir_0975f3a41b875e2b4566cea931b99e77.html" target="_top" xlink:title="src">
<polygon fill="#ffffff" stroke="#000000" points="326,-468 272,-468 272,-432 326,-432 326,-468"/>
<text text-anchor="middle" x="299" y="-447.5" font-family="Helvetica,sans-Serif" font-size="10.00" fill="#000000">src</text>
</a>
</g>
</g>
<!-- dir_0975f3a41b875e2b4566cea931b99e77&#45;&gt;dir_f880e19344c61eaaaff98e6bc913348a -->
<g id="edge5" class="edge">
<title>dir_0975f3a41b875e2b4566cea931b99e77&#45;&gt;dir_f880e19344c61eaaaff98e6bc913348a</title>
<path fill="none" stroke="#000000" d="M299,-431.8314C299,-424.131 299,-414.9743 299,-406.4166"/>
<polygon fill="#000000" stroke="#000000" points="302.5001,-406.4132 299,-396.4133 295.5001,-406.4133 302.5001,-406.4132"/>
<g id="a_edge5&#45;headlabel"><a xlink:href="dir_000419_000417.html" target="_top" xlink:title="4">
<text text-anchor="middle" x="305.3393" y="-407.5079" font-family="Helvetica,sans-Serif" font-size="10.00" fill="#000000">4</text>
</a>
</g>
</g>
<!-- dir_4ab6b4cc6a7edbff49100e9123df213f -->
<g id="node4" class="node">
<title>dir_4ab6b4cc6a7edbff49100e9123df213f</title>
<g id="a_node4"><a xlink:href="dir_4ab6b4cc6a7edbff49100e9123df213f.html" target="_top" xlink:title="Common">
<polygon fill="none" stroke="#ff0000" points="171.5,-180 110.5,-180 110.5,-144 171.5,-144 171.5,-180"/>
<text text-anchor="middle" x="141" y="-159.5" font-family="Helvetica,sans-Serif" font-size="10.00" fill="#000000">Common</text>
</a>
</g>
</g>
<!-- dir_0975f3a41b875e2b4566cea931b99e77&#45;&gt;dir_4ab6b4cc6a7edbff49100e9123df213f -->
<g id="edge6" class="edge">
<title>dir_0975f3a41b875e2b4566cea931b99e77&#45;&gt;dir_4ab6b4cc6a7edbff49100e9123df213f</title>
<path fill="none" stroke="#000000" d="M277.6001,-431.9764C266.1913,-421.9111 252.2324,-408.8405 241,-396 191.6167,-339.5468 175.4249,-323.5738 153,-252 146.7259,-231.975 143.7321,-208.439 142.3036,-190.4587"/>
<polygon fill="#000000" stroke="#000000" points="145.7849,-190.0631 141.6157,-180.323 138.8009,-190.5371 145.7849,-190.0631"/>
<g id="a_edge6&#45;headlabel"><a xlink:href="dir_000419_000028.html" target="_top" xlink:title="2">
<text text-anchor="middle" x="148.8609" y="-190.9572" font-family="Helvetica,sans-Serif" font-size="10.00" fill="#000000">2</text>
</a>
</g>
</g>
<!-- dir_d14e88a79bca429480864605ee348cef -->
<g id="node5" class="node">
<title>dir_d14e88a79bca429480864605ee348cef</title>
<g id="a_node5"><a xlink:href="dir_d14e88a79bca429480864605ee348cef.html" target="_top" xlink:title="FIT">
<polygon fill="none" stroke="#ff0000" points="295,-36 241,-36 241,0 295,0 295,-36"/>
<text text-anchor="middle" x="268" y="-15.5" font-family="Helvetica,sans-Serif" font-size="10.00" fill="#000000">FIT</text>
</a>
</g>
</g>
<!-- dir_0975f3a41b875e2b4566cea931b99e77&#45;&gt;dir_d14e88a79bca429480864605ee348cef -->
<g id="edge7" class="edge">
<title>dir_0975f3a41b875e2b4566cea931b99e77&#45;&gt;dir_d14e88a79bca429480864605ee348cef</title>
<path fill="none" stroke="#000000" d="M326.2974,-435.6994C377.7582,-407.8194 484,-345.4799 484,-306 484,-306 484,-306 484,-162 484,-77.0416 366.882,-39.1229 305.126,-25.0341"/>
<polygon fill="#000000" stroke="#000000" points="305.8733,-21.6149 295.3565,-22.8986 304.3785,-28.4534 305.8733,-21.6149"/>
<g id="a_edge7&#45;headlabel"><a xlink:href="dir_000419_000163.html" target="_top" xlink:title="1">
<text text-anchor="middle" x="309.9913" y="-17.1086" font-family="Helvetica,sans-Serif" font-size="10.00" fill="#000000">1</text>
</a>
</g>
</g>
<!-- dir_a597e8e061b11201a1dff411feb10d0b -->
<g id="node6" class="node">
<title>dir_a597e8e061b11201a1dff411feb10d0b</title>
<g id="a_node6"><a xlink:href="dir_a597e8e061b11201a1dff411feb10d0b.html" target="_top" xlink:title="TPC">
<polygon fill="none" stroke="#ff0000" points="326,-252 272,-252 272,-216 326,-216 326,-252"/>
<text text-anchor="middle" x="299" y="-231.5" font-family="Helvetica,sans-Serif" font-size="10.00" fill="#000000">TPC</text>
</a>
</g>
</g>
<!-- dir_0975f3a41b875e2b4566cea931b99e77&#45;&gt;dir_a597e8e061b11201a1dff411feb10d0b -->
<g id="edge8" class="edge">
<title>dir_0975f3a41b875e2b4566cea931b99e77&#45;&gt;dir_a597e8e061b11201a1dff411feb10d0b</title>
<path fill="none" stroke="#000000" d="M314.9905,-431.9169C322.6538,-422.0371 331.0166,-409.1563 335,-396 349.0733,-349.5191 329.0056,-294.0131 313.6555,-261.519"/>
<polygon fill="#000000" stroke="#000000" points="316.6341,-259.6439 309.0862,-252.2089 310.3502,-262.7281 316.6341,-259.6439"/>
<g id="a_edge8&#45;headlabel"><a xlink:href="dir_000419_000050.html" target="_top" xlink:title="1">
<text text-anchor="middle" x="320.7667" y="-259.1199" font-family="Helvetica,sans-Serif" font-size="10.00" fill="#000000">1</text>
</a>
</g>
</g>
<!-- dir_1306292b77b40360479b729ac9ee7efe -->
<g id="node7" class="node">
<title>dir_1306292b77b40360479b729ac9ee7efe</title>
<g id="a_node7"><a xlink:href="dir_1306292b77b40360479b729ac9ee7efe.html" target="_top" xlink:title="ITSMFT">
<polygon fill="none" stroke="#ff0000" points="124,-36 70,-36 70,0 124,0 124,-36"/>
<text text-anchor="middle" x="97" y="-15.5" font-family="Helvetica,sans-Serif" font-size="10.00" fill="#000000">ITSMFT</text>
</a>
</g>
</g>
<!-- dir_0975f3a41b875e2b4566cea931b99e77&#45;&gt;dir_1306292b77b40360479b729ac9ee7efe -->
<g id="edge9" class="edge">
<title>dir_0975f3a41b875e2b4566cea931b99e77&#45;&gt;dir_1306292b77b40360479b729ac9ee7efe</title>
<path fill="none" stroke="#000000" d="M271.9384,-443.1707C198.3368,-423.8098 0,-366.0648 0,-306 0,-306 0,-306 0,-162 0,-113.7831 37.8721,-69.6001 66.2878,-43.2353"/>
<polygon fill="#000000" stroke="#000000" points="68.9209,-45.5744 74.0124,-36.2831 64.238,-40.3713 68.9209,-45.5744"/>
<g id="a_edge9&#45;headlabel"><a xlink:href="dir_000419_000044.html" target="_top" xlink:title="1">
<text text-anchor="middle" x="68.1484" y="-47.5894" font-family="Helvetica,sans-Serif" font-size="10.00" fill="#000000">1</text>
</a>
</g>
</g>
<!-- dir_8ba487e25de5ee77e05e9dce7582cb98 -->
<g id="node8" class="node">
<title>dir_8ba487e25de5ee77e05e9dce7582cb98</title>
<g id="a_node8"><a xlink:href="dir_8ba487e25de5ee77e05e9dce7582cb98.html" target="_top" xlink:title="Algorithm">
<polygon fill="none" stroke="#ff0000" points="440.5,-36 375.5,-36 375.5,0 440.5,0 440.5,-36"/>
<text text-anchor="middle" x="408" y="-15.5" font-family="Helvetica,sans-Serif" font-size="10.00" fill="#000000">Algorithm</text>
</a>
</g>
</g>
<!-- dir_0975f3a41b875e2b4566cea931b99e77&#45;&gt;dir_8ba487e25de5ee77e05e9dce7582cb98 -->
<g id="edge10" class="edge">
<title>dir_0975f3a41b875e2b4566cea931b99e77&#45;&gt;dir_8ba487e25de5ee77e05e9dce7582cb98</title>
<path fill="none" stroke="#000000" d="M326.3012,-436.2345C329.5429,-434.7443 332.8269,-433.2994 336,-432 428.4016,-394.162 522,-405.8488 522,-306 522,-306 522,-306 522,-162 522,-111.147 477.7553,-67.7674 444.3936,-42.2861"/>
<polygon fill="#000000" stroke="#000000" points="446.2982,-39.3413 436.1798,-36.1998 442.1307,-44.9655 446.2982,-39.3413"/>
<g id="a_edge10&#45;headlabel"><a xlink:href="dir_000419_000000.html" target="_top" xlink:title="1">
<text text-anchor="middle" x="450.8767" y="-36.7001" font-family="Helvetica,sans-Serif" font-size="10.00" fill="#000000">1</text>
</a>
</g>
</g>
<!-- dir_0975f3a41b875e2b4566cea931b99e77&#45;&gt;dir_bcbb2cf9a3d3d83e5515c82071a07177 -->
<g id="edge11" class="edge">
<title>dir_0975f3a41b875e2b4566cea931b99e77&#45;&gt;dir_bcbb2cf9a3d3d83e5515c82071a07177</title>
<path fill="none" stroke="#000000" d="M284.9516,-431.7942C277.6459,-421.6755 269.0118,-408.612 263,-396 253.4794,-376.0269 246.2047,-352.0447 241.4594,-333.8606"/>
<polygon fill="#000000" stroke="#000000" points="244.8531,-333.0043 239.0226,-324.1581 238.064,-334.7095 244.8531,-333.0043"/>
<g id="a_edge11&#45;headlabel"><a xlink:href="dir_000419_000014.html" target="_top" xlink:title="18">
<text text-anchor="middle" x="248.4824" y="-333.2991" font-family="Helvetica,sans-Serif" font-size="10.00" fill="#000000">18</text>
</a>
</g>
</g>
<!-- dir_0975f3a41b875e2b4566cea931b99e77&#45;&gt;dir_2171f7ec022c5423887b07c69b2f5b48 -->
<g id="edge12" class="edge">
<title>dir_0975f3a41b875e2b4566cea931b99e77&#45;&gt;dir_2171f7ec022c5423887b07c69b2f5b48</title>
<path fill="none" stroke="#000000" d="M323.5801,-431.7772C334.1482,-422.4022 345.3543,-410.0021 351,-396 356.8781,-381.4216 362.9557,-297.051 350,-216 344.6976,-182.8281 345.1111,-172.2928 327,-144 320.0986,-133.2189 310.5168,-123.1999 301.0799,-114.7922"/>
<polygon fill="#000000" stroke="#000000" points="303.1328,-111.9434 293.2491,-108.1274 298.5959,-117.2741 303.1328,-111.9434"/>
<g id="a_edge12&#45;headlabel"><a xlink:href="dir_000419_000077.html" target="_top" xlink:title="18">
<text text-anchor="middle" x="307.7104" y="-109.611" font-family="Helvetica,sans-Serif" font-size="10.00" fill="#000000">18</text>
</a>
</g>
</g>
<!-- dir_4ab6b4cc6a7edbff49100e9123df213f&#45;&gt;dir_bcbb2cf9a3d3d83e5515c82071a07177 -->
<g id="edge3" class="edge">
<title>dir_4ab6b4cc6a7edbff49100e9123df213f&#45;&gt;dir_bcbb2cf9a3d3d83e5515c82071a07177</title>
<path fill="none" stroke="#000000" d="M151.5241,-180.1317C158.5119,-199.2331 167.7095,-229.5932 183,-252 190.3495,-262.77 200.3161,-272.7859 209.6416,-281.1941"/>
<polygon fill="#000000" stroke="#000000" points="207.424,-283.9045 217.2527,-287.8602 212.036,-278.6386 207.424,-283.9045"/>
<g id="a_edge3&#45;headlabel"><a xlink:href="dir_000028_000014.html" target="_top" xlink:title="2">
<text text-anchor="middle" x="202.8492" y="-281.1721" font-family="Helvetica,sans-Serif" font-size="10.00" fill="#000000">2</text>
</a>
</g>
</g>
<!-- dir_4ab6b4cc6a7edbff49100e9123df213f&#45;&gt;dir_2171f7ec022c5423887b07c69b2f5b48 -->
<g id="edge4" class="edge">
<title>dir_4ab6b4cc6a7edbff49100e9123df213f&#45;&gt;dir_2171f7ec022c5423887b07c69b2f5b48</title>
<path fill="none" stroke="#000000" d="M167.0951,-143.8314C182.5838,-134.5368 202.5861,-123.1208 220.7275,-113.1971"/>
<polygon fill="#000000" stroke="#000000" points="222.8888,-116.0067 230.011,-108.1628 219.5518,-109.8532 222.8888,-116.0067"/>
<g id="a_edge4&#45;headlabel"><a xlink:href="dir_000028_000077.html" target="_top" xlink:title="2">
<text text-anchor="middle" x="221.0824" y="-117.7161" font-family="Helvetica,sans-Serif" font-size="10.00" fill="#000000">2</text>
</a>
</g>
</g>
<!-- dir_d14e88a79bca429480864605ee348cef&#45;&gt;dir_4ab6b4cc6a7edbff49100e9123df213f -->
<g id="edge13" class="edge">
<title>dir_d14e88a79bca429480864605ee348cef&#45;&gt;dir_4ab6b4cc6a7edbff49100e9123df213f</title>
<path fill="none" stroke="#000000" d="M240.9842,-31.0446C223.5717,-40.5075 201.3911,-54.6642 186,-72 169.8767,-90.1605 157.9946,-115.1369 150.502,-134.1716"/>
<polygon fill="#000000" stroke="#000000" points="147.1309,-133.1926 146.8884,-143.7847 153.6833,-135.6557 147.1309,-133.1926"/>
<g id="a_edge13&#45;headlabel"><a xlink:href="dir_000163_000028.html" target="_top" xlink:title="22">
<text text-anchor="middle" x="145.738" y="-126.3289" font-family="Helvetica,sans-Serif" font-size="10.00" fill="#000000">22</text>
</a>
</g>
</g>
<!-- dir_d14e88a79bca429480864605ee348cef&#45;&gt;dir_bcbb2cf9a3d3d83e5515c82071a07177 -->
<g id="edge14" class="edge">
<title>dir_d14e88a79bca429480864605ee348cef&#45;&gt;dir_bcbb2cf9a3d3d83e5515c82071a07177</title>
<path fill="none" stroke="#000000" d="M245.325,-36.0091C235.2112,-45.5028 224.3802,-58.0645 219,-72 191.8559,-142.3076 212.3243,-233.2651 225.7477,-278.2638"/>
<polygon fill="#000000" stroke="#000000" points="222.4327,-279.3912 228.7304,-287.9112 229.1204,-277.3235 222.4327,-279.3912"/>
<g id="a_edge14&#45;headlabel"><a xlink:href="dir_000163_000014.html" target="_top" xlink:title="72">
<text text-anchor="middle" x="218.6584" y="-274.2957" font-family="Helvetica,sans-Serif" font-size="10.00" fill="#000000">72</text>
</a>
</g>
</g>
<!-- dir_d14e88a79bca429480864605ee348cef&#45;&gt;dir_2171f7ec022c5423887b07c69b2f5b48 -->
<g id="edge15" class="edge">
<title>dir_d14e88a79bca429480864605ee348cef&#45;&gt;dir_2171f7ec022c5423887b07c69b2f5b48</title>
<path fill="none" stroke="#000000" d="M273.976,-36.4133C274.7071,-44.0593 274.9203,-53.1084 274.6155,-61.5726"/>
<polygon fill="#000000" stroke="#000000" points="271.1048,-61.6264 273.9524,-71.8314 278.0902,-62.078 271.1048,-61.6264"/>
<g id="a_edge15&#45;headlabel"><a xlink:href="dir_000163_000077.html" target="_top" xlink:title="110">
<text text-anchor="middle" x="268.5032" y="-55.3562" font-family="Helvetica,sans-Serif" font-size="10.00" fill="#000000">110</text>
</a>
</g>
</g>
<!-- dir_a597e8e061b11201a1dff411feb10d0b&#45;&gt;dir_4ab6b4cc6a7edbff49100e9123df213f -->
<g id="edge16" class="edge">
<title>dir_a597e8e061b11201a1dff411feb10d0b&#45;&gt;dir_4ab6b4cc6a7edbff49100e9123df213f</title>
<path fill="none" stroke="#000000" d="M271.8388,-221.6228C246.7894,-210.2078 209.2903,-193.1196 180.8504,-180.1597"/>
<polygon fill="#000000" stroke="#000000" points="182.1351,-176.8989 171.584,-175.937 179.2323,-183.2687 182.1351,-176.8989"/>
<g id="a_edge16&#45;headlabel"><a xlink:href="dir_000050_000028.html" target="_top" xlink:title="40">
<text text-anchor="middle" x="186.5834" y="-173.3057" font-family="Helvetica,sans-Serif" font-size="10.00" fill="#000000">40</text>
</a>
</g>
</g>
<!-- dir_a597e8e061b11201a1dff411feb10d0b&#45;&gt;dir_8ba487e25de5ee77e05e9dce7582cb98 -->
<g id="edge17" class="edge">
<title>dir_a597e8e061b11201a1dff411feb10d0b&#45;&gt;dir_8ba487e25de5ee77e05e9dce7582cb98</title>
<path fill="none" stroke="#000000" d="M308.1058,-215.9555C327.2208,-178.0762 371.6254,-90.0818 394.2367,-45.274"/>
<polygon fill="#000000" stroke="#000000" points="397.4629,-46.6496 398.8435,-36.1451 391.2135,-43.4959 397.4629,-46.6496"/>
<g id="a_edge17&#45;headlabel"><a xlink:href="dir_000050_000000.html" target="_top" xlink:title="5">
<text text-anchor="middle" x="398.3784" y="-48.6379" font-family="Helvetica,sans-Serif" font-size="10.00" fill="#000000">5</text>
</a>
</g>
</g>
<!-- dir_a597e8e061b11201a1dff411feb10d0b&#45;&gt;dir_bcbb2cf9a3d3d83e5515c82071a07177 -->
<g id="edge18" class="edge">
<title>dir_a597e8e061b11201a1dff411feb10d0b&#45;&gt;dir_bcbb2cf9a3d3d83e5515c82071a07177</title>
<path fill="none" stroke="#000000" d="M288.6087,-252.4133C281.8694,-260.9088 272.9509,-271.1366 264.2773,-280.3696"/>
<polygon fill="#000000" stroke="#000000" points="261.5106,-278.1972 257.1023,-287.8314 266.5564,-283.049 261.5106,-278.1972"/>
<g id="a_edge18&#45;headlabel"><a xlink:href="dir_000050_000014.html" target="_top" xlink:title="103">
<text text-anchor="middle" x="261.9555" y="-271.1382" font-family="Helvetica,sans-Serif" font-size="10.00" fill="#000000">103</text>
</a>
</g>
</g>
<!-- dir_a597e8e061b11201a1dff411feb10d0b&#45;&gt;dir_2171f7ec022c5423887b07c69b2f5b48 -->
<g id="edge19" class="edge">
<title>dir_a597e8e061b11201a1dff411feb10d0b&#45;&gt;dir_2171f7ec022c5423887b07c69b2f5b48</title>
<path fill="none" stroke="#000000" d="M295.0738,-215.7623C289.763,-191.0928 280.2406,-146.8598 274.022,-117.9731"/>
<polygon fill="#000000" stroke="#000000" points="277.4205,-117.129 271.8943,-108.0896 270.5773,-118.6023 277.4205,-117.129"/>
<g id="a_edge19&#45;headlabel"><a xlink:href="dir_000050_000077.html" target="_top" xlink:title="183">
<text text-anchor="middle" x="280.9527" y="-117.5456" font-family="Helvetica,sans-Serif" font-size="10.00" fill="#000000">183</text>
</a>
</g>
</g>
<!-- dir_1306292b77b40360479b729ac9ee7efe&#45;&gt;dir_4ab6b4cc6a7edbff49100e9123df213f -->
<g id="edge20" class="edge">
<title>dir_1306292b77b40360479b729ac9ee7efe&#45;&gt;dir_4ab6b4cc6a7edbff49100e9123df213f</title>
<path fill="none" stroke="#000000" d="M102.5274,-36.0896C110.0413,-60.6805 123.5543,-104.905 132.3995,-133.8531"/>
<polygon fill="#000000" stroke="#000000" points="129.1579,-135.2216 135.4274,-143.7623 135.8523,-133.176 129.1579,-135.2216"/>
<g id="a_edge20&#45;headlabel"><a xlink:href="dir_000044_000028.html" target="_top" xlink:title="79">
<text text-anchor="middle" x="125.3922" y="-130.1135" font-family="Helvetica,sans-Serif" font-size="10.00" fill="#000000">79</text>
</a>
</g>
</g>
<!-- dir_1306292b77b40360479b729ac9ee7efe&#45;&gt;dir_bcbb2cf9a3d3d83e5515c82071a07177 -->
<g id="edge21" class="edge">
<title>dir_1306292b77b40360479b729ac9ee7efe&#45;&gt;dir_bcbb2cf9a3d3d83e5515c82071a07177</title>
<path fill="none" stroke="#000000" d="M99.5451,-36.0971C98.8078,-66.6847 93.197,-130.1457 110,-180 125.2425,-225.2242 168.3563,-260.5874 199.8143,-282.1904"/>
<polygon fill="#000000" stroke="#000000" points="198.0913,-285.2492 208.3451,-287.9155 201.992,-279.4368 198.0913,-285.2492"/>
<g id="a_edge21&#45;headlabel"><a xlink:href="dir_000044_000014.html" target="_top" xlink:title="105">
<text text-anchor="middle" x="193.5243" y="-283.1037" font-family="Helvetica,sans-Serif" font-size="10.00" fill="#000000">105</text>
</a>
</g>
</g>
<!-- dir_1306292b77b40360479b729ac9ee7efe&#45;&gt;dir_2171f7ec022c5423887b07c69b2f5b48 -->
<g id="edge22" class="edge">
<title>dir_1306292b77b40360479b729ac9ee7efe&#45;&gt;dir_2171f7ec022c5423887b07c69b2f5b48</title>
<path fill="none" stroke="#000000" d="M124.1756,-27.4474C150.3515,-37.6348 190.2383,-54.211 221.4268,-67.7407"/>
<polygon fill="#000000" stroke="#000000" points="220.2366,-71.0401 230.8019,-71.8314 223.0361,-64.6242 220.2366,-71.0401"/>
<g id="a_edge22&#45;headlabel"><a xlink:href="dir_000044_000077.html" target="_top" xlink:title="236">
<text text-anchor="middle" x="215.8065" y="-69.7049" font-family="Helvetica,sans-Serif" font-size="10.00" fill="#000000">236</text>
</a>
</g>
</g>
<!-- dir_8ba487e25de5ee77e05e9dce7582cb98&#45;&gt;dir_2171f7ec022c5423887b07c69b2f5b48 -->
<g id="edge23" class="edge">
<title>dir_8ba487e25de5ee77e05e9dce7582cb98&#45;&gt;dir_2171f7ec022c5423887b07c69b2f5b48</title>
<path fill="none" stroke="#000000" d="M378.5976,-36.1832C360.8234,-45.8059 337.807,-57.6996 317.3408,-67.8567"/>
<polygon fill="#000000" stroke="#000000" points="315.5688,-64.8279 308.1449,-72.3868 318.6622,-71.1073 315.5688,-64.8279"/>
<g id="a_edge23&#45;headlabel"><a xlink:href="dir_000000_000077.html" target="_top" xlink:title="8">
<text text-anchor="middle" x="317.5387" y="-58.1925" font-family="Helvetica,sans-Serif" font-size="10.00" fill="#000000">8</text>
</a>
</g>
</g>
<!-- dir_bcbb2cf9a3d3d83e5515c82071a07177&#45;&gt;dir_4ab6b4cc6a7edbff49100e9123df213f -->
<g id="edge24" class="edge">
<title>dir_bcbb2cf9a3d3d83e5515c82071a07177&#45;&gt;dir_4ab6b4cc6a7edbff49100e9123df213f</title>
<path fill="none" stroke="#000000" d="M201.0155,-287.8602C188.1026,-278.3357 174.4074,-265.7856 165,-252 152.1584,-233.1818 143.6143,-208.7538 139.8199,-190.0967"/>
<polygon fill="#000000" stroke="#000000" points="143.2566,-189.4258 138.1705,-180.1317 136.3505,-190.569 143.2566,-189.4258"/>
<g id="a_edge24&#45;headlabel"><a xlink:href="dir_000014_000028.html" target="_top" xlink:title="8">
<text text-anchor="middle" x="146.6447" y="-190.0086" font-family="Helvetica,sans-Serif" font-size="10.00" fill="#000000">8</text>
</a>
</g>
</g>
<!-- dir_bcbb2cf9a3d3d83e5515c82071a07177&#45;&gt;dir_a597e8e061b11201a1dff411feb10d0b -->
<g id="edge25" class="edge">
<title>dir_bcbb2cf9a3d3d83e5515c82071a07177&#45;&gt;dir_a597e8e061b11201a1dff411feb10d0b</title>
<path fill="none" stroke="#000000" d="M245.1975,-287.8314C251.8946,-279.3694 260.7943,-269.1489 269.4724,-259.8971"/>
<polygon fill="#000000" stroke="#000000" points="272.2563,-262.0511 276.6566,-252.4133 267.2065,-257.2034 272.2563,-262.0511"/>
<g id="a_edge25&#45;headlabel"><a xlink:href="dir_000014_000050.html" target="_top" xlink:title="1">
<text text-anchor="middle" x="271.8152" y="-264.1105" font-family="Helvetica,sans-Serif" font-size="10.00" fill="#000000">1</text>
</a>
</g>
</g>
<!-- dir_bcbb2cf9a3d3d83e5515c82071a07177&#45;&gt;dir_1306292b77b40360479b729ac9ee7efe -->
<g id="edge26" class="edge">
<title>dir_bcbb2cf9a3d3d83e5515c82071a07177&#45;&gt;dir_1306292b77b40360479b729ac9ee7efe</title>
<path fill="none" stroke="#000000" d="M199.2988,-290.3116C162.7405,-270.1266 109.3385,-231.443 92,-180 76.8379,-135.0143 79.9257,-78.9497 86.3697,-45.9555"/>
<polygon fill="#000000" stroke="#000000" points="89.8077,-46.6183 88.5609,-36.0971 82.9745,-45.0994 89.8077,-46.6183"/>
<g id="a_edge26&#45;headlabel"><a xlink:href="dir_000014_000044.html" target="_top" xlink:title="1">
<text text-anchor="middle" x="91.7995" y="-48.2433" font-family="Helvetica,sans-Serif" font-size="10.00" fill="#000000">1</text>
</a>
</g>
</g>
<!-- dir_bcbb2cf9a3d3d83e5515c82071a07177&#45;&gt;dir_8ba487e25de5ee77e05e9dce7582cb98 -->
<g id="edge27" class="edge">
<title>dir_bcbb2cf9a3d3d83e5515c82071a07177&#45;&gt;dir_8ba487e25de5ee77e05e9dce7582cb98</title>
<path fill="none" stroke="#000000" d="M270.7785,-294.2276C292.0642,-285.574 318.1237,-271.8369 335,-252 386.6771,-191.2572 401.8142,-94.0501 406.2159,-46.3164"/>
<polygon fill="#000000" stroke="#000000" points="409.7244,-46.3577 407.0613,-36.103 402.7483,-45.7802 409.7244,-46.3577"/>
<g id="a_edge27&#45;headlabel"><a xlink:href="dir_000014_000000.html" target="_top" xlink:title="1">
<text text-anchor="middle" x="412.2576" y="-47.6742" font-family="Helvetica,sans-Serif" font-size="10.00" fill="#000000">1</text>
</a>
</g>
</g>
<!-- dir_bcbb2cf9a3d3d83e5515c82071a07177&#45;&gt;dir_2171f7ec022c5423887b07c69b2f5b48 -->
<g id="edge28" class="edge">
<title>dir_bcbb2cf9a3d3d83e5515c82071a07177&#45;&gt;dir_2171f7ec022c5423887b07c69b2f5b48</title>
<path fill="none" stroke="#000000" d="M233.8109,-287.9555C236.1032,-250.3144 249.155,-163.1867 258.9793,-118.1246"/>
<polygon fill="#000000" stroke="#000000" points="262.444,-118.675 261.2727,-108.1451 255.6218,-117.1071 262.444,-118.675"/>
<g id="a_edge28&#45;headlabel"><a xlink:href="dir_000014_000077.html" target="_top" xlink:title="82">
<text text-anchor="middle" x="264.4061" y="-120.3141" font-family="Helvetica,sans-Serif" font-size="10.00" fill="#000000">82</text>
</a>
</g>
</g>
<!-- dir_2171f7ec022c5423887b07c69b2f5b48&#45;&gt;dir_4ab6b4cc6a7edbff49100e9123df213f -->
<g id="edge29" class="edge">
<title>dir_2171f7ec022c5423887b07c69b2f5b48&#45;&gt;dir_4ab6b4cc6a7edbff49100e9123df213f</title>
<path fill="none" stroke="#000000" d="M242.1298,-108.0336C224.3738,-118.6953 200.6115,-132.184 180.5285,-143.0088"/>
<polygon fill="#000000" stroke="#000000" points="178.7701,-139.9798 171.5949,-147.7751 182.0652,-146.1558 178.7701,-139.9798"/>
<g id="a_edge29&#45;headlabel"><a xlink:href="dir_000077_000028.html" target="_top" xlink:title="35">
<text text-anchor="middle" x="180.6051" y="-133.2828" font-family="Helvetica,sans-Serif" font-size="10.00" fill="#000000">35</text>
</a>
</g>
</g>
<!-- dir_2171f7ec022c5423887b07c69b2f5b48&#45;&gt;dir_d14e88a79bca429480864605ee348cef -->
<g id="edge30" class="edge">
<title>dir_2171f7ec022c5423887b07c69b2f5b48&#45;&gt;dir_d14e88a79bca429480864605ee348cef</title>
<path fill="none" stroke="#000000" d="M262.0476,-71.8314C261.2972,-64.131 261.0763,-54.9743 261.3849,-46.4166"/>
<polygon fill="#000000" stroke="#000000" points="264.8792,-46.6161 262.024,-36.4133 257.8935,-46.1697 264.8792,-46.6161"/>
<g id="a_edge30&#45;headlabel"><a xlink:href="dir_000077_000163.html" target="_top" xlink:title="1">
<text text-anchor="middle" x="267.4836" y="-47.8844" font-family="Helvetica,sans-Serif" font-size="10.00" fill="#000000">1</text>
</a>
</g>
</g>
<!-- dir_2171f7ec022c5423887b07c69b2f5b48&#45;&gt;dir_1306292b77b40360479b729ac9ee7efe -->
<g id="edge31" class="edge">
<title>dir_2171f7ec022c5423887b07c69b2f5b48&#45;&gt;dir_1306292b77b40360479b729ac9ee7efe</title>
<path fill="none" stroke="#000000" d="M227.847,-75.4297C199.2304,-63.9982 161.1919,-48.0341 133.4455,-35.838"/>
<polygon fill="#000000" stroke="#000000" points="134.6535,-32.5451 124.0929,-31.6949 131.8183,-38.9453 134.6535,-32.5451"/>
<g id="a_edge31&#45;headlabel"><a xlink:href="dir_000077_000044.html" target="_top" xlink:title="1">
<text text-anchor="middle" x="139.0901" y="-28.905" font-family="Helvetica,sans-Serif" font-size="10.00" fill="#000000">1</text>
</a>
</g>
</g>
<!-- dir_2171f7ec022c5423887b07c69b2f5b48&#45;&gt;dir_8ba487e25de5ee77e05e9dce7582cb98 -->
<g id="edge32" class="edge">
<title>dir_2171f7ec022c5423887b07c69b2f5b48&#45;&gt;dir_8ba487e25de5ee77e05e9dce7582cb98</title>
<path fill="none" stroke="#000000" d="M297.3755,-71.8314C317.304,-61.0417 343.8312,-47.393 365.9642,-36.5389"/>
<polygon fill="#000000" stroke="#000000" points="367.6849,-39.5941 375.1488,-32.0747 364.6248,-33.2984 367.6849,-39.5941"/>
<g id="a_edge32&#45;headlabel"><a xlink:href="dir_000077_000000.html" target="_top" xlink:title="2">
<text text-anchor="middle" x="365.6932" y="-41.2191" font-family="Helvetica,sans-Serif" font-size="10.00" fill="#000000">2</text>
</a>
</g>
</g>
<!-- dir_2171f7ec022c5423887b07c69b2f5b48&#45;&gt;dir_bcbb2cf9a3d3d83e5515c82071a07177 -->
<g id="edge33" class="edge">
<title>dir_2171f7ec022c5423887b07c69b2f5b48&#45;&gt;dir_bcbb2cf9a3d3d83e5515c82071a07177</title>
<path fill="none" stroke="#000000" d="M269.183,-108.1451C266.8716,-145.8741 253.813,-233.0083 243.9945,-277.9956"/>
<polygon fill="#000000" stroke="#000000" points="240.5343,-277.4253 241.7027,-287.9555 247.356,-278.995 240.5343,-277.4253"/>
<g id="a_edge33&#45;headlabel"><a xlink:href="dir_000077_000014.html" target="_top" xlink:title="12">
<text text-anchor="middle" x="238.5733" y="-270.7856" font-family="Helvetica,sans-Serif" font-size="10.00" fill="#000000">12</text>
</a>
</g>
</g>
</g>
</svg>
        <g id="navigator" transform="translate(0 0)" fill="#404254">
                <rect fill="#f2f5e9" fill-opacity="0.5" stroke="#606060" stroke-width=".5" x="0" y="0" width="60" height="60"/>
                <use id="zoomplus" xlink:href="#zoomPlus" x="17" y="9" onmousedown="handleZoom(evt,'in')"/>
                <use id="zoomminus" xlink:href="#zoomMin" x="42" y="9" onmousedown="handleZoom(evt,'out')"/>
                <use id="reset" xlink:href="#resetDef" x="30" y="36" onmousedown="handleReset()"/>
                <g id="arrowUp" xlink:href="#dirArrow" transform="translate(30 24)" onmousedown="handlePan(0,-1)">
                  <use xlink:href="#rim" fill="#404040">
                        <set attributeName="fill" to="#808080" begin="arrowUp.mouseover" end="arrowUp.mouseout"/>
                  </use>
                  <path fill="none" stroke="white" stroke-width="1.5" d="M0,-3.0v7 M-2.5,-0.5L0,-3.0L2.5,-0.5"/>
                </g>
                <g id="arrowRight" xlink:href="#dirArrow" transform="rotate(90) translate(36 -43)" onmousedown="handlePan(1,0)">
                  <use xlink:href="#rim" fill="#404040">
                        <set attributeName="fill" to="#808080" begin="arrowRight.mouseover" end="arrowRight.mouseout"/>
                  </use>
                  <path fill="none" stroke="white" stroke-width="1.5" d="M0,-3.0v7 M-2.5,-0.5L0,-3.0L2.5,-0.5"/>
                </g>
                <g id="arrowDown" xlink:href="#dirArrow" transform="rotate(180) translate(-30 -48)" onmousedown="handlePan(0,1)">
                  <use xlink:href="#rim" fill="#404040">
                        <set attributeName="fill" to="#808080" begin="arrowDown.mouseover" end="arrowDown.mouseout"/>
                  </use>
                  <path fill="none" stroke="white" stroke-width="1.5" d="M0,-3.0v7 M-2.5,-0.5L0,-3.0L2.5,-0.5"/>
                </g>
                <g id="arrowLeft" xlink:href="#dirArrow" transform="rotate(270) translate(-36 17)" onmousedown="handlePan(-1,0)">
                  <use xlink:href="#rim" fill="#404040">
                        <set attributeName="fill" to="#808080" begin="arrowLeft.mouseover" end="arrowLeft.mouseout"/>
                  </use>
                  <path fill="none" stroke="white" stroke-width="1.5" d="M0,-3.0v7 M-2.5,-0.5L0,-3.0L2.5,-0.5"/>
                </g>
        </g>
        <svg viewBox="0 0 15 15" width="100%" height="30px" preserveAspectRatio="xMaxYMin meet">
         <g id="arrow_out" transform="scale(0.3 0.3)">
          <a xlink:href="dir_60bab4a80e8540917b3a9a0f6e3beabd_dep_org.svg" target="_base">
           <rect id="button" ry="5" rx="5" y="6" x="6" height="38" width="38"
                fill="#f2f5e9" fill-opacity="0.5" stroke="#606060" stroke-width="1.0"/>
           <path id="arrow"
             d="M 11.500037,31.436501 C 11.940474,20.09759 22.043105,11.32322 32.158766,21.979434 L 37.068811,17.246167 C 37.068811,17.246167 37.088388,32 37.088388,32 L 22.160133,31.978069 C 22.160133,31.978069 26.997745,27.140456 26.997745,27.140456 C 18.528582,18.264221 13.291696,25.230495 11.500037,31.436501 z"
             style="fill:#404040;"/>
          </a>
         </g>
        </svg>
</svg>
