<?xml version="1.0" encoding="UTF-8" standalone="no"?>
<!DOCTYPE svg PUBLIC "-//W3C//DTD SVG 1.1//EN"
 "http://www.w3.org/Graphics/SVG/1.1/DTD/svg11.dtd">
<!-- Generated by graphviz version 2.40.1 (20161225.0304)
 -->
<!-- Title: /home/travis/build/AliceO2Group/AliceO2/Detectors/FIT/FT0/reconstruction Pages: 1 -->
<!--zoomable 519 -->
<svg id="main" version="1.1" xmlns="http://www.w3.org/2000/svg" xmlns:xlink="http://www.w3.org/1999/xlink" xml:space="preserve" onload="init(evt)">
<style type="text/css"><![CDATA[
.edge:hover path { stroke: red; }
.edge:hover polygon { stroke: red; fill: red; }
]]></style>
<script type="text/javascript"><![CDATA[
var edges = document.getElementsByTagName('g');
if (edges && edges.length) {
  for (var i=0;i<edges.length;i++) {
    if (edges[i].id.substr(0,4)=='edge') {
      edges[i].setAttribute('class','edge');
    }
  }
}
]]></script>
        <defs>
                <circle id="rim" cx="0" cy="0" r="7"/>
                <circle id="rim2" cx="0" cy="0" r="3.5"/>
                <g id="zoomPlus">
                        <use xlink:href="#rim" fill="#404040">
                                <set attributeName="fill" to="#808080" begin="zoomplus.mouseover" end="zoomplus.mouseout"/>
                        </use>
                        <path d="M-4,0h8M0,-4v8" fill="none" stroke="white" stroke-width="1.5" pointer-events="none"/>
                </g>
                <g id="zoomMin">
                        <use xlink:href="#rim" fill="#404040">
                                <set attributeName="fill" to="#808080" begin="zoomminus.mouseover" end="zoomminus.mouseout"/>
                        </use>
                        <path d="M-4,0h8" fill="none" stroke="white" stroke-width="1.5" pointer-events="none"/>
                </g>
                <g id="dirArrow">
                        <path fill="none" stroke="white" stroke-width="1.5" d="M0,-3.0v7 M-2.5,-0.5L0,-3.0L2.5,-0.5"/>
                </g>
               <g id="resetDef">
                       <use xlink:href="#rim2" fill="#404040">
                               <set attributeName="fill" to="#808080" begin="reset.mouseover" end="reset.mouseout"/>
                       </use>
               </g>
        </defs>

<script type="text/javascript">
var viewWidth = 410;
var viewHeight = 519;
var sectionId = 'dynsection-0';
</script>
<script xlink:href="svgpan.js"/>
<svg id="graph" class="graph">
<g id="viewport">
<title>/home/travis/build/AliceO2Group/AliceO2/Detectors/FIT/FT0/reconstruction</title>
<g id="clust1" class="cluster">
<title>clusterdir_732f729910dd598014f768fa2866f334</title>
<g id="a_clust1"><a xlink:href="dir_732f729910dd598014f768fa2866f334.html" target="_top" xlink:title="FT0">
<polygon fill="#ddddee" stroke="#000000" points="92,-344 92,-503 282,-503 282,-344 92,-344"/>
<text text-anchor="middle" x="187" y="-491" font-family="Helvetica,sans-Serif" font-size="10.00" fill="#000000">FT0</text>
</a>
</g>
</g>
<g id="clust2" class="cluster">
<title>clusterdir_ca639a046a87a9287b3468a6ba2bbef1</title>
<g id="a_clust2"><a xlink:href="dir_ca639a046a87a9287b3468a6ba2bbef1.html" target="_top">
<polygon fill="#eeeeff" stroke="#000000" points="100,-352 100,-476 274,-476 274,-352 100,-352"/>
</a>
</g>
</g>
<!-- dir_ca639a046a87a9287b3468a6ba2bbef1 -->
<g id="node1" class="node">
<title>dir_ca639a046a87a9287b3468a6ba2bbef1</title>
<text text-anchor="middle" x="223" y="-447.5" font-family="Helvetica,sans-Serif" font-size="10.00" fill="#000000">reconstruction</text>
</g>
<!-- dir_ee46b747e1abe6c555594e61ae5c8c00 -->
<g id="node2" class="node">
<title>dir_ee46b747e1abe6c555594e61ae5c8c00</title>
<g id="a_node2"><a xlink:href="dir_ee46b747e1abe6c555594e61ae5c8c00.html" target="_top" xlink:title="include">
<polygon fill="#ffffff" stroke="#ff0000" points="162,-396 108,-396 108,-360 162,-360 162,-396"/>
<text text-anchor="middle" x="135" y="-375.5" font-family="Helvetica,sans-Serif" font-size="10.00" fill="#000000">include</text>
</a>
</g>
</g>
<!-- dir_b05a5fa85f84bfc9013183c9d87f9a36 -->
<g id="node5" class="node">
<title>dir_b05a5fa85f84bfc9013183c9d87f9a36</title>
<g id="a_node5"><a xlink:href="dir_b05a5fa85f84bfc9013183c9d87f9a36.html" target="_top" xlink:title="Utilities">
<polygon fill="none" stroke="#ff0000" points="162.5,-324 107.5,-324 107.5,-288 162.5,-288 162.5,-324"/>
<text text-anchor="middle" x="135" y="-303.5" font-family="Helvetica,sans-Serif" font-size="10.00" fill="#000000">Utilities</text>
</a>
</g>
</g>
<!-- dir_ee46b747e1abe6c555594e61ae5c8c00&#45;&gt;dir_b05a5fa85f84bfc9013183c9d87f9a36 -->
<g id="edge9" class="edge">
<title>dir_ee46b747e1abe6c555594e61ae5c8c00&#45;&gt;dir_b05a5fa85f84bfc9013183c9d87f9a36</title>
<path fill="none" stroke="#000000" d="M135,-359.8314C135,-352.131 135,-342.9743 135,-334.4166"/>
<polygon fill="#000000" stroke="#000000" points="138.5001,-334.4132 135,-324.4133 131.5001,-334.4133 138.5001,-334.4132"/>
<g id="a_edge9&#45;headlabel"><a xlink:href="dir_000458_000577.html" target="_top" xlink:title="1">
<text text-anchor="middle" x="141.3393" y="-335.5079" font-family="Helvetica,sans-Serif" font-size="10.00" fill="#000000">1</text>
</a>
</g>
</g>
<!-- dir_63da1bf9cbb165deb85abc813a5acde9 -->
<g id="node6" class="node">
<title>dir_63da1bf9cbb165deb85abc813a5acde9</title>
<g id="a_node6"><a xlink:href="dir_63da1bf9cbb165deb85abc813a5acde9.html" target="_top" xlink:title="base">
<polygon fill="none" stroke="#ff0000" points="65,-36 11,-36 11,0 65,0 65,-36"/>
<text text-anchor="middle" x="38" y="-15.5" font-family="Helvetica,sans-Serif" font-size="10.00" fill="#000000">base</text>
</a>
</g>
</g>
<!-- dir_ee46b747e1abe6c555594e61ae5c8c00&#45;&gt;dir_63da1bf9cbb165deb85abc813a5acde9 -->
<g id="edge10" class="edge">
<title>dir_ee46b747e1abe6c555594e61ae5c8c00&#45;&gt;dir_63da1bf9cbb165deb85abc813a5acde9</title>
<path fill="none" stroke="#000000" d="M112.0124,-359.7169C83.3281,-334.6722 38,-286.7501 38,-234 38,-234 38,-234 38,-162 38,-121.876 38,-75.4631 38,-46.4177"/>
<polygon fill="#000000" stroke="#000000" points="41.5001,-46.1853 38,-36.1854 34.5001,-46.1854 41.5001,-46.1853"/>
<g id="a_edge10&#45;headlabel"><a xlink:href="dir_000458_000336.html" target="_top" xlink:title="1">
<text text-anchor="middle" x="44.3393" y="-47.28" font-family="Helvetica,sans-Serif" font-size="10.00" fill="#000000">1</text>
</a>
</g>
</g>
<!-- dir_2171f7ec022c5423887b07c69b2f5b48 -->
<g id="node9" class="node">
<title>dir_2171f7ec022c5423887b07c69b2f5b48</title>
<g id="a_node9"><a xlink:href="dir_2171f7ec022c5423887b07c69b2f5b48.html" target="_top" xlink:title="DataFormats">
<polygon fill="none" stroke="#ff0000" points="219,-108 139,-108 139,-72 219,-72 219,-108"/>
<text text-anchor="middle" x="179" y="-87.5" font-family="Helvetica,sans-Serif" font-size="10.00" fill="#000000">DataFormats</text>
</a>
</g>
</g>
<!-- dir_ee46b747e1abe6c555594e61ae5c8c00&#45;&gt;dir_2171f7ec022c5423887b07c69b2f5b48 -->
<g id="edge11" class="edge">
<title>dir_ee46b747e1abe6c555594e61ae5c8c00&#45;&gt;dir_2171f7ec022c5423887b07c69b2f5b48</title>
<path fill="none" stroke="#000000" d="M118.5719,-359.989C110.6975,-350.1289 102.102,-337.2441 98,-324 93.2662,-308.7163 95.0025,-303.7167 98,-288 110.2313,-223.8668 143.8588,-154.4482 163.7302,-117.244"/>
<polygon fill="#000000" stroke="#000000" points="167.0152,-118.5282 168.7028,-108.0687 160.8609,-115.1929 167.0152,-118.5282"/>
<g id="a_edge11&#45;headlabel"><a xlink:href="dir_000458_000077.html" target="_top" xlink:title="16">
<text text-anchor="middle" x="167.7987" y="-120.5414" font-family="Helvetica,sans-Serif" font-size="10.00" fill="#000000">16</text>
</a>
</g>
</g>
<!-- dir_1b6b29fc497b523a5fbcdcf4771534fb -->
<g id="node3" class="node">
<title>dir_1b6b29fc497b523a5fbcdcf4771534fb</title>
<g id="a_node3"><a xlink:href="dir_1b6b29fc497b523a5fbcdcf4771534fb.html" target="_top" xlink:title="src">
<polygon fill="#ffffff" stroke="#000000" points="162,-468 108,-468 108,-432 162,-432 162,-468"/>
<text text-anchor="middle" x="135" y="-447.5" font-family="Helvetica,sans-Serif" font-size="10.00" fill="#000000">src</text>
</a>
</g>
</g>
<!-- dir_1b6b29fc497b523a5fbcdcf4771534fb&#45;&gt;dir_ee46b747e1abe6c555594e61ae5c8c00 -->
<g id="edge2" class="edge">
<title>dir_1b6b29fc497b523a5fbcdcf4771534fb&#45;&gt;dir_ee46b747e1abe6c555594e61ae5c8c00</title>
<path fill="none" stroke="#000000" d="M135,-431.8314C135,-424.131 135,-414.9743 135,-406.4166"/>
<polygon fill="#000000" stroke="#000000" points="138.5001,-406.4132 135,-396.4133 131.5001,-406.4133 138.5001,-406.4132"/>
<g id="a_edge2&#45;headlabel"><a xlink:href="dir_000460_000458.html" target="_top" xlink:title="3">
<text text-anchor="middle" x="141.3393" y="-407.5079" font-family="Helvetica,sans-Serif" font-size="10.00" fill="#000000">3</text>
</a>
</g>
</g>
<!-- dir_4ab6b4cc6a7edbff49100e9123df213f -->
<g id="node4" class="node">
<title>dir_4ab6b4cc6a7edbff49100e9123df213f</title>
<g id="a_node4"><a xlink:href="dir_4ab6b4cc6a7edbff49100e9123df213f.html" target="_top" xlink:title="Common">
<polygon fill="none" stroke="#ff0000" points="221.5,-252 160.5,-252 160.5,-216 221.5,-216 221.5,-252"/>
<text text-anchor="middle" x="191" y="-231.5" font-family="Helvetica,sans-Serif" font-size="10.00" fill="#000000">Common</text>
</a>
</g>
</g>
<!-- dir_1b6b29fc497b523a5fbcdcf4771534fb&#45;&gt;dir_4ab6b4cc6a7edbff49100e9123df213f -->
<g id="edge1" class="edge">
<title>dir_1b6b29fc497b523a5fbcdcf4771534fb&#45;&gt;dir_4ab6b4cc6a7edbff49100e9123df213f</title>
<path fill="none" stroke="#000000" d="M150.3329,-431.6956C157.8163,-421.7552 166.2166,-408.887 171,-396 187.5678,-351.3647 191.0034,-295.5419 191.4079,-262.4405"/>
<polygon fill="#000000" stroke="#000000" points="194.9088,-262.1469 191.4434,-252.1348 187.9088,-262.1226 194.9088,-262.1469"/>
<g id="a_edge1&#45;headlabel"><a xlink:href="dir_000460_000028.html" target="_top" xlink:title="3">
<text text-anchor="middle" x="197.7357" y="-263.2512" font-family="Helvetica,sans-Serif" font-size="10.00" fill="#000000">3</text>
</a>
</g>
</g>
<!-- dir_1b6b29fc497b523a5fbcdcf4771534fb&#45;&gt;dir_63da1bf9cbb165deb85abc813a5acde9 -->
<g id="edge3" class="edge">
<title>dir_1b6b29fc497b523a5fbcdcf4771534fb&#45;&gt;dir_63da1bf9cbb165deb85abc813a5acde9</title>
<path fill="none" stroke="#000000" d="M107.6807,-436.4934C68.2333,-414.8389 0,-368.3683 0,-306 0,-306 0,-306 0,-162 0,-120.3681 15.0328,-74.14 26.1881,-45.567"/>
<polygon fill="#000000" stroke="#000000" points="29.4578,-46.817 29.9412,-36.2332 22.9632,-44.2055 29.4578,-46.817"/>
<g id="a_edge3&#45;headlabel"><a xlink:href="dir_000460_000336.html" target="_top" xlink:title="1">
<text text-anchor="middle" x="30.7511" y="-48.7113" font-family="Helvetica,sans-Serif" font-size="10.00" fill="#000000">1</text>
</a>
</g>
</g>
<!-- dir_bcbb2cf9a3d3d83e5515c82071a07177 -->
<g id="node7" class="node">
<title>dir_bcbb2cf9a3d3d83e5515c82071a07177</title>
<g id="a_node7"><a xlink:href="dir_bcbb2cf9a3d3d83e5515c82071a07177.html" target="_top" xlink:title="Framework">
<polygon fill="none" stroke="#ff0000" points="287.5,-180 216.5,-180 216.5,-144 287.5,-144 287.5,-180"/>
<text text-anchor="middle" x="252" y="-159.5" font-family="Helvetica,sans-Serif" font-size="10.00" fill="#000000">Framework</text>
</a>
</g>
</g>
<!-- dir_1b6b29fc497b523a5fbcdcf4771534fb&#45;&gt;dir_bcbb2cf9a3d3d83e5515c82071a07177 -->
<g id="edge4" class="edge">
<title>dir_1b6b29fc497b523a5fbcdcf4771534fb&#45;&gt;dir_bcbb2cf9a3d3d83e5515c82071a07177</title>
<path fill="none" stroke="#000000" d="M162.0693,-436.3546C190.0635,-422.1343 230.5809,-401.2066 237,-396 269.3508,-369.76 282.8197,-363.1667 297,-324 313.8222,-277.5362 288.7174,-221.6817 269.7808,-189.1749"/>
<polygon fill="#000000" stroke="#000000" points="272.5645,-187.014 264.3995,-180.2625 266.5721,-190.6322 272.5645,-187.014"/>
<g id="a_edge4&#45;headlabel"><a xlink:href="dir_000460_000014.html" target="_top" xlink:title="2">
<text text-anchor="middle" x="276.853" y="-186.1236" font-family="Helvetica,sans-Serif" font-size="10.00" fill="#000000">2</text>
</a>
</g>
</g>
<!-- dir_26637d1bd82229bc9ed97f7e706be743 -->
<g id="node8" class="node">
<title>dir_26637d1bd82229bc9ed97f7e706be743</title>
<g id="a_node8"><a xlink:href="dir_26637d1bd82229bc9ed97f7e706be743.html" target="_top" xlink:title="Raw">
<polygon fill="none" stroke="#ff0000" points="288,-324 234,-324 234,-288 288,-288 288,-324"/>
<text text-anchor="middle" x="261" y="-303.5" font-family="Helvetica,sans-Serif" font-size="10.00" fill="#000000">Raw</text>
</a>
</g>
</g>
<!-- dir_1b6b29fc497b523a5fbcdcf4771534fb&#45;&gt;dir_26637d1bd82229bc9ed97f7e706be743 -->
<g id="edge5" class="edge">
<title>dir_1b6b29fc497b523a5fbcdcf4771534fb&#45;&gt;dir_26637d1bd82229bc9ed97f7e706be743</title>
<path fill="none" stroke="#000000" d="M162.136,-432.5192C175.9543,-422.8041 192.4408,-409.889 205,-396 222.2111,-376.9666 237.2873,-351.9658 247.448,-333.1454"/>
<polygon fill="#000000" stroke="#000000" points="250.5993,-334.6728 252.1636,-324.1941 244.4061,-331.4102 250.5993,-334.6728"/>
<g id="a_edge5&#45;headlabel"><a xlink:href="dir_000460_000581.html" target="_top" xlink:title="1">
<text text-anchor="middle" x="251.4359" y="-336.6764" font-family="Helvetica,sans-Serif" font-size="10.00" fill="#000000">1</text>
</a>
</g>
</g>
<!-- dir_1b6b29fc497b523a5fbcdcf4771534fb&#45;&gt;dir_2171f7ec022c5423887b07c69b2f5b48 -->
<g id="edge6" class="edge">
<title>dir_1b6b29fc497b523a5fbcdcf4771534fb&#45;&gt;dir_2171f7ec022c5423887b07c69b2f5b48</title>
<path fill="none" stroke="#000000" d="M162.3415,-435.8581C165.2402,-434.5006 168.1645,-433.1887 171,-432 278.8521,-386.7853 402,-422.9463 402,-306 402,-306 402,-306 402,-234 402,-152.1377 294.6346,-114.5493 228.8997,-99.2073"/>
<polygon fill="#000000" stroke="#000000" points="229.6488,-95.7884 219.1255,-97.0174 228.1184,-102.6191 229.6488,-95.7884"/>
<g id="a_edge6&#45;headlabel"><a xlink:href="dir_000460_000077.html" target="_top" xlink:title="10">
<text text-anchor="middle" x="233.7772" y="-91.3036" font-family="Helvetica,sans-Serif" font-size="10.00" fill="#000000">10</text>
</a>
</g>
</g>
<!-- dir_4ab6b4cc6a7edbff49100e9123df213f&#45;&gt;dir_bcbb2cf9a3d3d83e5515c82071a07177 -->
<g id="edge7" class="edge">
<title>dir_4ab6b4cc6a7edbff49100e9123df213f&#45;&gt;dir_bcbb2cf9a3d3d83e5515c82071a07177</title>
<path fill="none" stroke="#000000" d="M200.4405,-215.8314C206.785,-207.3694 215.2588,-197.1489 223.5514,-187.8971"/>
<polygon fill="#000000" stroke="#000000" points="226.238,-190.1462 230.4239,-180.4133 221.0821,-185.4115 226.238,-190.1462"/>
<g id="a_edge7&#45;headlabel"><a xlink:href="dir_000028_000014.html" target="_top" xlink:title="2">
<text text-anchor="middle" x="225.8979" y="-192.2142" font-family="Helvetica,sans-Serif" font-size="10.00" fill="#000000">2</text>
</a>
</g>
</g>
<!-- dir_4ab6b4cc6a7edbff49100e9123df213f&#45;&gt;dir_2171f7ec022c5423887b07c69b2f5b48 -->
<g id="edge8" class="edge">
<title>dir_4ab6b4cc6a7edbff49100e9123df213f&#45;&gt;dir_2171f7ec022c5423887b07c69b2f5b48</title>
<path fill="none" stroke="#000000" d="M184.807,-215.7623C180.3004,-191.201 176.3629,-147.2474 175.8654,-118.3541"/>
<polygon fill="#000000" stroke="#000000" points="179.3651,-118.084 175.8492,-108.0896 172.3651,-118.0952 179.3651,-118.084"/>
<g id="a_edge8&#45;headlabel"><a xlink:href="dir_000028_000077.html" target="_top" xlink:title="2">
<text text-anchor="middle" x="182.21" y="-119.1742" font-family="Helvetica,sans-Serif" font-size="10.00" fill="#000000">2</text>
</a>
</g>
</g>
<!-- dir_b05a5fa85f84bfc9013183c9d87f9a36&#45;&gt;dir_4ab6b4cc6a7edbff49100e9123df213f -->
<g id="edge12" class="edge">
<title>dir_b05a5fa85f84bfc9013183c9d87f9a36&#45;&gt;dir_4ab6b4cc6a7edbff49100e9123df213f</title>
<path fill="none" stroke="#000000" d="M149.1312,-287.8314C155.5811,-279.5386 163.3445,-269.557 170.4252,-260.4533"/>
<polygon fill="#000000" stroke="#000000" points="173.3019,-262.4556 176.6786,-252.4133 167.7764,-258.158 173.3019,-262.4556"/>
<g id="a_edge12&#45;headlabel"><a xlink:href="dir_000577_000028.html" target="_top" xlink:title="1">
<text text-anchor="middle" x="173.3362" y="-264.5361" font-family="Helvetica,sans-Serif" font-size="10.00" fill="#000000">1</text>
</a>
</g>
</g>
<!-- dir_b05a5fa85f84bfc9013183c9d87f9a36&#45;&gt;dir_bcbb2cf9a3d3d83e5515c82071a07177 -->
<g id="edge13" class="edge">
<title>dir_b05a5fa85f84bfc9013183c9d87f9a36&#45;&gt;dir_bcbb2cf9a3d3d83e5515c82071a07177</title>
<path fill="none" stroke="#000000" d="M162.7711,-297.3626C184.5805,-289.1471 214.0121,-274.6356 231,-252 244.346,-234.2172 249.3967,-209.3152 251.2222,-190.2119"/>
<polygon fill="#000000" stroke="#000000" points="254.7297,-190.2288 251.9498,-180.0052 247.7475,-189.731 254.7297,-190.2288"/>
<g id="a_edge13&#45;headlabel"><a xlink:href="dir_000577_000014.html" target="_top" xlink:title="33">
<text text-anchor="middle" x="257.3063" y="-191.5162" font-family="Helvetica,sans-Serif" font-size="10.00" fill="#000000">33</text>
</a>
</g>
</g>
<!-- dir_b05a5fa85f84bfc9013183c9d87f9a36&#45;&gt;dir_2171f7ec022c5423887b07c69b2f5b48 -->
<g id="edge14" class="edge">
<title>dir_b05a5fa85f84bfc9013183c9d87f9a36&#45;&gt;dir_2171f7ec022c5423887b07c69b2f5b48</title>
<path fill="none" stroke="#000000" d="M131.1764,-287.6854C132.0794,-269.4693 137.0536,-240.7437 142,-216 148.7563,-182.2023 157.5014,-143.5337 165.3586,-118.0474"/>
<polygon fill="#000000" stroke="#000000" points="168.7611,-118.9036 168.5481,-108.3109 162.1089,-116.7244 168.7611,-118.9036"/>
<g id="a_edge14&#45;headlabel"><a xlink:href="dir_000577_000077.html" target="_top" xlink:title="48">
<text text-anchor="middle" x="170.3403" y="-120.7035" font-family="Helvetica,sans-Serif" font-size="10.00" fill="#000000">48</text>
</a>
</g>
</g>
<!-- dir_bcbb2cf9a3d3d83e5515c82071a07177&#45;&gt;dir_4ab6b4cc6a7edbff49100e9123df213f -->
<g id="edge15" class="edge">
<title>dir_bcbb2cf9a3d3d83e5515c82071a07177&#45;&gt;dir_4ab6b4cc6a7edbff49100e9123df213f</title>
<path fill="none" stroke="#000000" d="M242.3759,-180.4133C235.9906,-188.9088 227.4983,-199.1366 219.2094,-208.3696"/>
<polygon fill="#000000" stroke="#000000" points="216.5396,-206.1021 212.3453,-215.8314 221.6914,-210.8412 216.5396,-206.1021"/>
<g id="a_edge15&#45;headlabel"><a xlink:href="dir_000014_000028.html" target="_top" xlink:title="8">
<text text-anchor="middle" x="216.8835" y="-199.0344" font-family="Helvetica,sans-Serif" font-size="10.00" fill="#000000">8</text>
</a>
</g>
</g>
<!-- dir_bcbb2cf9a3d3d83e5515c82071a07177&#45;&gt;dir_2171f7ec022c5423887b07c69b2f5b48 -->
<g id="edge16" class="edge">
<title>dir_bcbb2cf9a3d3d83e5515c82071a07177&#45;&gt;dir_2171f7ec022c5423887b07c69b2f5b48</title>
<path fill="none" stroke="#000000" d="M227.6266,-143.8314C218.2225,-135.3694 207.6749,-125.1489 198.7488,-115.8971"/>
<polygon fill="#000000" stroke="#000000" points="201.0996,-113.2884 191.693,-108.4133 196.0063,-118.0904 201.0996,-113.2884"/>
<g id="a_edge16&#45;headlabel"><a xlink:href="dir_000014_000077.html" target="_top" xlink:title="82">
<text text-anchor="middle" x="205.6313" y="-111.4561" font-family="Helvetica,sans-Serif" font-size="10.00" fill="#000000">82</text>
</a>
</g>
</g>
<!-- dir_26637d1bd82229bc9ed97f7e706be743&#45;&gt;dir_4ab6b4cc6a7edbff49100e9123df213f -->
<g id="edge17" class="edge">
<title>dir_26637d1bd82229bc9ed97f7e706be743&#45;&gt;dir_4ab6b4cc6a7edbff49100e9123df213f</title>
<path fill="none" stroke="#000000" d="M243.336,-287.8314C235.0268,-279.2848 224.9736,-268.9443 215.9082,-259.6198"/>
<polygon fill="#000000" stroke="#000000" points="218.3821,-257.1435 208.9018,-252.4133 213.3631,-262.023 218.3821,-257.1435"/>
<g id="a_edge17&#45;headlabel"><a xlink:href="dir_000581_000028.html" target="_top" xlink:title="10">
<text text-anchor="middle" x="222.9235" y="-255.2416" font-family="Helvetica,sans-Serif" font-size="10.00" fill="#000000">10</text>
</a>
</g>
</g>
<!-- dir_26637d1bd82229bc9ed97f7e706be743&#45;&gt;dir_bcbb2cf9a3d3d83e5515c82071a07177 -->
<g id="edge18" class="edge">
<title>dir_26637d1bd82229bc9ed97f7e706be743&#45;&gt;dir_bcbb2cf9a3d3d83e5515c82071a07177</title>
<path fill="none" stroke="#000000" d="M263.134,-287.6705C264.8982,-269.4431 266.7124,-240.7091 264,-216 263.0716,-207.5425 261.3486,-198.4715 259.4922,-190.2246"/>
<polygon fill="#000000" stroke="#000000" points="262.8544,-189.2356 257.1191,-180.3273 256.0473,-190.8678 262.8544,-189.2356"/>
<g id="a_edge18&#45;headlabel"><a xlink:href="dir_000581_000014.html" target="_top" xlink:title="25">
<text text-anchor="middle" x="266.4534" y="-189.5692" font-family="Helvetica,sans-Serif" font-size="10.00" fill="#000000">25</text>
</a>
</g>
</g>
<!-- dir_26637d1bd82229bc9ed97f7e706be743&#45;&gt;dir_2171f7ec022c5423887b07c69b2f5b48 -->
<g id="edge19" class="edge">
<title>dir_26637d1bd82229bc9ed97f7e706be743&#45;&gt;dir_2171f7ec022c5423887b07c69b2f5b48</title>
<path fill="none" stroke="#000000" d="M273.1528,-287.9345C292.7782,-256.2836 326.4216,-189.8202 297,-144 281.9551,-120.5695 253.9332,-107.1764 228.9714,-99.5901"/>
<polygon fill="#000000" stroke="#000000" points="229.8032,-96.1885 219.2301,-96.8661 227.918,-102.9299 229.8032,-96.1885"/>
<g id="a_edge19&#45;headlabel"><a xlink:href="dir_000581_000077.html" target="_top" xlink:title="15">
<text text-anchor="middle" x="234.0297" y="-91.9221" font-family="Helvetica,sans-Serif" font-size="10.00" fill="#000000">15</text>
</a>
</g>
</g>
<!-- dir_2171f7ec022c5423887b07c69b2f5b48&#45;&gt;dir_4ab6b4cc6a7edbff49100e9123df213f -->
<g id="edge20" class="edge">
<title>dir_2171f7ec022c5423887b07c69b2f5b48&#45;&gt;dir_4ab6b4cc6a7edbff49100e9123df213f</title>
<path fill="none" stroke="#000000" d="M185.1658,-108.0896C189.6746,-132.5727 193.6202,-176.5174 194.1315,-205.4713"/>
<polygon fill="#000000" stroke="#000000" points="190.6321,-205.7698 194.1534,-215.7623 197.6321,-205.7549 190.6321,-205.7698"/>
<g id="a_edge20&#45;headlabel"><a xlink:href="dir_000077_000028.html" target="_top" xlink:title="35">
<text text-anchor="middle" x="187.7853" y="-199.6812" font-family="Helvetica,sans-Serif" font-size="10.00" fill="#000000">35</text>
</a>
</g>
</g>
<!-- dir_2171f7ec022c5423887b07c69b2f5b48&#45;&gt;dir_b05a5fa85f84bfc9013183c9d87f9a36 -->
<g id="edge21" class="edge">
<title>dir_2171f7ec022c5423887b07c69b2f5b48&#45;&gt;dir_b05a5fa85f84bfc9013183c9d87f9a36</title>
<path fill="none" stroke="#000000" d="M180.7982,-108.3109C177.949,-132.7858 167.6872,-177.5458 160,-216 155.8651,-236.6842 151.7108,-260.1509 147.4123,-277.935"/>
<polygon fill="#000000" stroke="#000000" points="144.0064,-277.1253 144.8638,-287.6854 150.7789,-278.8955 144.0064,-277.1253"/>
<g id="a_edge21&#45;headlabel"><a xlink:href="dir_000077_000577.html" target="_top" xlink:title="1">
<text text-anchor="middle" x="142.1684" y="-270.4296" font-family="Helvetica,sans-Serif" font-size="10.00" fill="#000000">1</text>
</a>
</g>
</g>
<!-- dir_2171f7ec022c5423887b07c69b2f5b48&#45;&gt;dir_63da1bf9cbb165deb85abc813a5acde9 -->
<g id="edge22" class="edge">
<title>dir_2171f7ec022c5423887b07c69b2f5b48&#45;&gt;dir_63da1bf9cbb165deb85abc813a5acde9</title>
<path fill="none" stroke="#000000" d="M143.4197,-71.8314C122.2422,-61.0173 95.4404,-47.3312 74.1611,-36.4652"/>
<polygon fill="#000000" stroke="#000000" points="75.611,-33.2757 65.1132,-31.845 72.4275,-39.51 75.611,-33.2757"/>
<g id="a_edge22&#45;headlabel"><a xlink:href="dir_000077_000336.html" target="_top" xlink:title="1">
<text text-anchor="middle" x="80.1036" y="-29.8818" font-family="Helvetica,sans-Serif" font-size="10.00" fill="#000000">1</text>
</a>
</g>
</g>
<!-- dir_2171f7ec022c5423887b07c69b2f5b48&#45;&gt;dir_bcbb2cf9a3d3d83e5515c82071a07177 -->
<g id="edge23" class="edge">
<title>dir_2171f7ec022c5423887b07c69b2f5b48&#45;&gt;dir_bcbb2cf9a3d3d83e5515c82071a07177</title>
<path fill="none" stroke="#000000" d="M203.3669,-108.1628C212.8429,-116.6891 223.4806,-127.0016 232.4508,-136.3099"/>
<polygon fill="#000000" stroke="#000000" points="230.1285,-138.9492 239.5314,-143.8314 235.2254,-134.151 230.1285,-138.9492"/>
<g id="a_edge23&#45;headlabel"><a xlink:href="dir_000077_000014.html" target="_top" xlink:title="12">
<text text-anchor="middle" x="225.5973" y="-135.778" font-family="Helvetica,sans-Serif" font-size="10.00" fill="#000000">12</text>
</a>
</g>
</g>
</g>
</svg>
        <g id="navigator" transform="translate(0 0)" fill="#404254">
                <rect fill="#f2f5e9" fill-opacity="0.5" stroke="#606060" stroke-width=".5" x="0" y="0" width="60" height="60"/>
                <use id="zoomplus" xlink:href="#zoomPlus" x="17" y="9" onmousedown="handleZoom(evt,'in')"/>
                <use id="zoomminus" xlink:href="#zoomMin" x="42" y="9" onmousedown="handleZoom(evt,'out')"/>
                <use id="reset" xlink:href="#resetDef" x="30" y="36" onmousedown="handleReset()"/>
                <g id="arrowUp" xlink:href="#dirArrow" transform="translate(30 24)" onmousedown="handlePan(0,-1)">
                  <use xlink:href="#rim" fill="#404040">
                        <set attributeName="fill" to="#808080" begin="arrowUp.mouseover" end="arrowUp.mouseout"/>
                  </use>
                  <path fill="none" stroke="white" stroke-width="1.5" d="M0,-3.0v7 M-2.5,-0.5L0,-3.0L2.5,-0.5"/>
                </g>
                <g id="arrowRight" xlink:href="#dirArrow" transform="rotate(90) translate(36 -43)" onmousedown="handlePan(1,0)">
                  <use xlink:href="#rim" fill="#404040">
                        <set attributeName="fill" to="#808080" begin="arrowRight.mouseover" end="arrowRight.mouseout"/>
                  </use>
                  <path fill="none" stroke="white" stroke-width="1.5" d="M0,-3.0v7 M-2.5,-0.5L0,-3.0L2.5,-0.5"/>
                </g>
                <g id="arrowDown" xlink:href="#dirArrow" transform="rotate(180) translate(-30 -48)" onmousedown="handlePan(0,1)">
                  <use xlink:href="#rim" fill="#404040">
                        <set attributeName="fill" to="#808080" begin="arrowDown.mouseover" end="arrowDown.mouseout"/>
                  </use>
                  <path fill="none" stroke="white" stroke-width="1.5" d="M0,-3.0v7 M-2.5,-0.5L0,-3.0L2.5,-0.5"/>
                </g>
                <g id="arrowLeft" xlink:href="#dirArrow" transform="rotate(270) translate(-36 17)" onmousedown="handlePan(-1,0)">
                  <use xlink:href="#rim" fill="#404040">
                        <set attributeName="fill" to="#808080" begin="arrowLeft.mouseover" end="arrowLeft.mouseout"/>
                  </use>
                  <path fill="none" stroke="white" stroke-width="1.5" d="M0,-3.0v7 M-2.5,-0.5L0,-3.0L2.5,-0.5"/>
                </g>
        </g>
        <svg viewBox="0 0 15 15" width="100%" height="30px" preserveAspectRatio="xMaxYMin meet">
         <g id="arrow_out" transform="scale(0.3 0.3)">
          <a xlink:href="dir_ca639a046a87a9287b3468a6ba2bbef1_dep_org.svg" target="_base">
           <rect id="button" ry="5" rx="5" y="6" x="6" height="38" width="38"
                fill="#f2f5e9" fill-opacity="0.5" stroke="#606060" stroke-width="1.0"/>
           <path id="arrow"
             d="M 11.500037,31.436501 C 11.940474,20.09759 22.043105,11.32322 32.158766,21.979434 L 37.068811,17.246167 C 37.068811,17.246167 37.088388,32 37.088388,32 L 22.160133,31.978069 C 22.160133,31.978069 26.997745,27.140456 26.997745,27.140456 C 18.528582,18.264221 13.291696,25.230495 11.500037,31.436501 z"
             style="fill:#404040;"/>
          </a>
         </g>
        </svg>
</svg>
