<?xml version="1.0" encoding="UTF-8" standalone="no"?>
<!DOCTYPE svg PUBLIC "-//W3C//DTD SVG 1.1//EN"
 "http://www.w3.org/Graphics/SVG/1.1/DTD/svg11.dtd">
<!-- Generated by graphviz version 2.40.1 (20161225.0304)
 -->
<!-- Title: /home/travis/build/AliceO2Group/AliceO2/Detectors/TRD/workflow Pages: 1 -->
<svg width="696pt" height="591pt"
 viewBox="0.00 0.00 696.00 591.00" xmlns="http://www.w3.org/2000/svg" xmlns:xlink="http://www.w3.org/1999/xlink">
<g id="graph0" class="graph" transform="scale(1 1) rotate(0) translate(4 587)">
<title>/home/travis/build/AliceO2Group/AliceO2/Detectors/TRD/workflow</title>
<g id="clust1" class="cluster">
<title>clusterdir_69dd0583e11051991bf4c0cf23c50933</title>
<g id="a_clust1"><a xlink:href="dir_69dd0583e11051991bf4c0cf23c50933.html" target="_top" xlink:title="TRD">
<polygon fill="#ddddee" stroke="#000000" points="265,-416 265,-575 431,-575 431,-416 265,-416"/>
<text text-anchor="middle" x="348" y="-563" font-family="Helvetica,sans-Serif" font-size="10.00" fill="#000000">TRD</text>
</a>
</g>
</g>
<g id="clust2" class="cluster">
<title>clusterdir_184e1d06e85fb151746c3bdf717cc8ad</title>
<g id="a_clust2"><a xlink:href="dir_184e1d06e85fb151746c3bdf717cc8ad.html" target="_top">
<polygon fill="#eeeeff" stroke="#000000" points="273,-424 273,-548 423,-548 423,-424 273,-424"/>
</a>
</g>
</g>
<!-- dir_184e1d06e85fb151746c3bdf717cc8ad -->
<g id="node1" class="node">
<title>dir_184e1d06e85fb151746c3bdf717cc8ad</title>
<text text-anchor="middle" x="384" y="-519.5" font-family="Helvetica,sans-Serif" font-size="10.00" fill="#000000">workflow</text>
</g>
<!-- dir_11da180be91271a1ebdaa9322b1ad99a -->
<g id="node2" class="node">
<title>dir_11da180be91271a1ebdaa9322b1ad99a</title>
<g id="a_node2"><a xlink:href="dir_11da180be91271a1ebdaa9322b1ad99a.html" target="_top" xlink:title="include">
<polygon fill="#ffffff" stroke="#ff0000" points="335,-468 281,-468 281,-432 335,-432 335,-468"/>
<text text-anchor="middle" x="308" y="-447.5" font-family="Helvetica,sans-Serif" font-size="10.00" fill="#000000">include</text>
</a>
</g>
</g>
<!-- dir_6af676bf18881990e4083e191d0e63e0 -->
<g id="node6" class="node">
<title>dir_6af676bf18881990e4083e191d0e63e0</title>
<g id="a_node6"><a xlink:href="dir_6af676bf18881990e4083e191d0e63e0.html" target="_top" xlink:title="CCDB">
<polygon fill="none" stroke="#ff0000" points="280,-396 226,-396 226,-360 280,-360 280,-396"/>
<text text-anchor="middle" x="253" y="-375.5" font-family="Helvetica,sans-Serif" font-size="10.00" fill="#000000">CCDB</text>
</a>
</g>
</g>
<!-- dir_11da180be91271a1ebdaa9322b1ad99a&#45;&gt;dir_6af676bf18881990e4083e191d0e63e0 -->
<g id="edge41" class="edge">
<title>dir_11da180be91271a1ebdaa9322b1ad99a&#45;&gt;dir_6af676bf18881990e4083e191d0e63e0</title>
<path fill="none" stroke="#000000" d="M294.1212,-431.8314C287.7864,-423.5386 280.1616,-413.557 273.2074,-404.4533"/>
<polygon fill="#000000" stroke="#000000" points="275.9175,-402.2353 267.0657,-396.4133 270.3548,-406.4847 275.9175,-402.2353"/>
<g id="a_edge41&#45;headlabel"><a xlink:href="dir_000630_000020.html" target="_top" xlink:title="1">
<text text-anchor="middle" x="280.3558" y="-400.8683" font-family="Helvetica,sans-Serif" font-size="10.00" fill="#000000">1</text>
</a>
</g>
</g>
<!-- dir_09bf7f7c4011a5ccc426492db4dd0891 -->
<g id="node9" class="node">
<title>dir_09bf7f7c4011a5ccc426492db4dd0891</title>
<g id="a_node9"><a xlink:href="dir_09bf7f7c4011a5ccc426492db4dd0891.html" target="_top" xlink:title="base">
<polygon fill="none" stroke="#ff0000" points="208,-108 154,-108 154,-72 208,-72 208,-108"/>
<text text-anchor="middle" x="181" y="-87.5" font-family="Helvetica,sans-Serif" font-size="10.00" fill="#000000">base</text>
</a>
</g>
</g>
<!-- dir_11da180be91271a1ebdaa9322b1ad99a&#45;&gt;dir_09bf7f7c4011a5ccc426492db4dd0891 -->
<g id="edge42" class="edge">
<title>dir_11da180be91271a1ebdaa9322b1ad99a&#45;&gt;dir_09bf7f7c4011a5ccc426492db4dd0891</title>
<path fill="none" stroke="#000000" d="M280.7924,-440.1616C260.4645,-431.489 233.4557,-416.947 217,-396 151.9829,-313.2378 165.641,-176.9386 175.4451,-118.2838"/>
<polygon fill="#000000" stroke="#000000" points="178.9218,-118.7215 177.211,-108.2657 172.0281,-117.5062 178.9218,-118.7215"/>
<g id="a_edge42&#45;headlabel"><a xlink:href="dir_000630_000142.html" target="_top" xlink:title="7">
<text text-anchor="middle" x="181.094" y="-120.2544" font-family="Helvetica,sans-Serif" font-size="10.00" fill="#000000">7</text>
</a>
</g>
</g>
<!-- dir_bcbb2cf9a3d3d83e5515c82071a07177 -->
<g id="node10" class="node">
<title>dir_bcbb2cf9a3d3d83e5515c82071a07177</title>
<g id="a_node10"><a xlink:href="dir_bcbb2cf9a3d3d83e5515c82071a07177.html" target="_top" xlink:title="Framework">
<polygon fill="none" stroke="#ff0000" points="421.5,-252 350.5,-252 350.5,-216 421.5,-216 421.5,-252"/>
<text text-anchor="middle" x="386" y="-231.5" font-family="Helvetica,sans-Serif" font-size="10.00" fill="#000000">Framework</text>
</a>
</g>
</g>
<!-- dir_11da180be91271a1ebdaa9322b1ad99a&#45;&gt;dir_bcbb2cf9a3d3d83e5515c82071a07177 -->
<g id="edge43" class="edge">
<title>dir_11da180be91271a1ebdaa9322b1ad99a&#45;&gt;dir_bcbb2cf9a3d3d83e5515c82071a07177</title>
<path fill="none" stroke="#000000" d="M314.5161,-431.9555C328.166,-394.1556 359.8373,-306.4506 376.0491,-261.5564"/>
<polygon fill="#000000" stroke="#000000" points="379.343,-262.7394 379.4476,-252.1451 372.7592,-260.3618 379.343,-262.7394"/>
<g id="a_edge43&#45;headlabel"><a xlink:href="dir_000630_000014.html" target="_top" xlink:title="8">
<text text-anchor="middle" x="380.7927" y="-264.5846" font-family="Helvetica,sans-Serif" font-size="10.00" fill="#000000">8</text>
</a>
</g>
</g>
<!-- dir_5cb2a8e9fdbe67a11efb4176f60bf3d6 -->
<g id="node11" class="node">
<title>dir_5cb2a8e9fdbe67a11efb4176f60bf3d6</title>
<g id="a_node11"><a xlink:href="dir_5cb2a8e9fdbe67a11efb4176f60bf3d6.html" target="_top" xlink:title="simulation">
<polygon fill="none" stroke="#ff0000" points="124,-396 56,-396 56,-360 124,-360 124,-396"/>
<text text-anchor="middle" x="90" y="-375.5" font-family="Helvetica,sans-Serif" font-size="10.00" fill="#000000">simulation</text>
</a>
</g>
</g>
<!-- dir_11da180be91271a1ebdaa9322b1ad99a&#45;&gt;dir_5cb2a8e9fdbe67a11efb4176f60bf3d6 -->
<g id="edge44" class="edge">
<title>dir_11da180be91271a1ebdaa9322b1ad99a&#45;&gt;dir_5cb2a8e9fdbe67a11efb4176f60bf3d6</title>
<path fill="none" stroke="#000000" d="M280.7713,-441.8213C247.0819,-431.594 188.0418,-413.3179 138,-396 136.5807,-395.5088 135.14,-395.0042 133.6868,-394.49"/>
<polygon fill="#000000" stroke="#000000" points="134.6048,-391.1005 124.0105,-390.9994 132.2294,-397.6851 134.6048,-391.1005"/>
<g id="a_edge44&#45;headlabel"><a xlink:href="dir_000630_000306.html" target="_top" xlink:title="2">
<text text-anchor="middle" x="138.9496" y="-387.1494" font-family="Helvetica,sans-Serif" font-size="10.00" fill="#000000">2</text>
</a>
</g>
</g>
<!-- dir_2171f7ec022c5423887b07c69b2f5b48 -->
<g id="node12" class="node">
<title>dir_2171f7ec022c5423887b07c69b2f5b48</title>
<g id="a_node12"><a xlink:href="dir_2171f7ec022c5423887b07c69b2f5b48.html" target="_top" xlink:title="DataFormats">
<polygon fill="none" stroke="#ff0000" points="426,-180 346,-180 346,-144 426,-144 426,-180"/>
<text text-anchor="middle" x="386" y="-159.5" font-family="Helvetica,sans-Serif" font-size="10.00" fill="#000000">DataFormats</text>
</a>
</g>
</g>
<!-- dir_11da180be91271a1ebdaa9322b1ad99a&#45;&gt;dir_2171f7ec022c5423887b07c69b2f5b48 -->
<g id="edge45" class="edge">
<title>dir_11da180be91271a1ebdaa9322b1ad99a&#45;&gt;dir_2171f7ec022c5423887b07c69b2f5b48</title>
<path fill="none" stroke="#000000" d="M324.5749,-431.8557C353.3048,-398.9807 411.1788,-326.0806 431,-252 435.1355,-236.5437 436.4468,-231.0443 431,-216 427.2851,-205.7392 420.6748,-196.0579 413.6452,-187.8033"/>
<polygon fill="#000000" stroke="#000000" points="416.18,-185.3886 406.8578,-180.3539 411.0056,-190.1031 416.18,-185.3886"/>
<g id="a_edge45&#45;headlabel"><a xlink:href="dir_000630_000077.html" target="_top" xlink:title="4">
<text text-anchor="middle" x="420.6997" y="-183.6334" font-family="Helvetica,sans-Serif" font-size="10.00" fill="#000000">4</text>
</a>
</g>
</g>
<!-- dir_19cbc61730528058d9acd8ae2ca70332 -->
<g id="node3" class="node">
<title>dir_19cbc61730528058d9acd8ae2ca70332</title>
<g id="a_node3"><a xlink:href="dir_19cbc61730528058d9acd8ae2ca70332.html" target="_top" xlink:title="src">
<polygon fill="#ffffff" stroke="#000000" points="335,-540 281,-540 281,-504 335,-504 335,-540"/>
<text text-anchor="middle" x="308" y="-519.5" font-family="Helvetica,sans-Serif" font-size="10.00" fill="#000000">src</text>
</a>
</g>
</g>
<!-- dir_19cbc61730528058d9acd8ae2ca70332&#45;&gt;dir_11da180be91271a1ebdaa9322b1ad99a -->
<g id="edge28" class="edge">
<title>dir_19cbc61730528058d9acd8ae2ca70332&#45;&gt;dir_11da180be91271a1ebdaa9322b1ad99a</title>
<path fill="none" stroke="#000000" d="M308,-503.8314C308,-496.131 308,-486.9743 308,-478.4166"/>
<polygon fill="#000000" stroke="#000000" points="311.5001,-478.4132 308,-468.4133 304.5001,-478.4133 311.5001,-478.4132"/>
<g id="a_edge28&#45;headlabel"><a xlink:href="dir_000632_000630.html" target="_top" xlink:title="8">
<text text-anchor="middle" x="314.3393" y="-479.5079" font-family="Helvetica,sans-Serif" font-size="10.00" fill="#000000">8</text>
</a>
</g>
</g>
<!-- dir_40b4a122691869ee86baf7f2711ed718 -->
<g id="node4" class="node">
<title>dir_40b4a122691869ee86baf7f2711ed718</title>
<g id="a_node4"><a xlink:href="dir_40b4a122691869ee86baf7f2711ed718.html" target="_top" xlink:title="Steer">
<polygon fill="none" stroke="#ff0000" points="542,-468 488,-468 488,-432 542,-432 542,-468"/>
<text text-anchor="middle" x="515" y="-447.5" font-family="Helvetica,sans-Serif" font-size="10.00" fill="#000000">Steer</text>
</a>
</g>
</g>
<!-- dir_19cbc61730528058d9acd8ae2ca70332&#45;&gt;dir_40b4a122691869ee86baf7f2711ed718 -->
<g id="edge19" class="edge">
<title>dir_19cbc61730528058d9acd8ae2ca70332&#45;&gt;dir_40b4a122691869ee86baf7f2711ed718</title>
<path fill="none" stroke="#000000" d="M335.236,-508.069C338.4894,-506.6085 341.7939,-505.2158 345,-504 400.6566,-482.8941 417.9416,-488.0141 474,-468 475.4185,-467.4936 476.8571,-466.9607 478.3047,-466.4083"/>
<polygon fill="#000000" stroke="#000000" points="479.904,-469.5373 487.8699,-462.552 477.2866,-463.0451 479.904,-469.5373"/>
<g id="a_edge19&#45;headlabel"><a xlink:href="dir_000632_000727.html" target="_top" xlink:title="3">
<text text-anchor="middle" x="477.6317" y="-471.0146" font-family="Helvetica,sans-Serif" font-size="10.00" fill="#000000">3</text>
</a>
</g>
</g>
<!-- dir_4ab6b4cc6a7edbff49100e9123df213f -->
<g id="node5" class="node">
<title>dir_4ab6b4cc6a7edbff49100e9123df213f</title>
<g id="a_node5"><a xlink:href="dir_4ab6b4cc6a7edbff49100e9123df213f.html" target="_top" xlink:title="Common">
<polygon fill="none" stroke="#ff0000" points="279.5,-324 218.5,-324 218.5,-288 279.5,-288 279.5,-324"/>
<text text-anchor="middle" x="249" y="-303.5" font-family="Helvetica,sans-Serif" font-size="10.00" fill="#000000">Common</text>
</a>
</g>
</g>
<!-- dir_19cbc61730528058d9acd8ae2ca70332&#45;&gt;dir_4ab6b4cc6a7edbff49100e9123df213f -->
<g id="edge20" class="edge">
<title>dir_19cbc61730528058d9acd8ae2ca70332&#45;&gt;dir_4ab6b4cc6a7edbff49100e9123df213f</title>
<path fill="none" stroke="#000000" d="M286.9363,-503.8455C276.2408,-493.9461 263.5301,-481.0694 254,-468 232.8023,-438.9298 225.4594,-430.9694 217,-396 213.238,-380.4486 212.7712,-375.4311 217,-360 219.5805,-350.5837 224.2742,-341.1443 229.2859,-332.8513"/>
<polygon fill="#000000" stroke="#000000" points="232.2851,-334.6585 234.7641,-324.3577 226.4026,-330.8644 232.2851,-334.6585"/>
<g id="a_edge20&#45;headlabel"><a xlink:href="dir_000632_000028.html" target="_top" xlink:title="1">
<text text-anchor="middle" x="232.7229" y="-336.7182" font-family="Helvetica,sans-Serif" font-size="10.00" fill="#000000">1</text>
</a>
</g>
</g>
<!-- dir_19cbc61730528058d9acd8ae2ca70332&#45;&gt;dir_6af676bf18881990e4083e191d0e63e0 -->
<g id="edge21" class="edge">
<title>dir_19cbc61730528058d9acd8ae2ca70332&#45;&gt;dir_6af676bf18881990e4083e191d0e63e0</title>
<path fill="none" stroke="#000000" d="M293.1147,-503.5185C285.7538,-493.5296 277.328,-480.6716 272,-468 263.6694,-448.1876 258.8467,-424.3321 256.1459,-406.1605"/>
<polygon fill="#000000" stroke="#000000" points="259.6059,-405.6289 254.7905,-396.1917 252.6698,-406.5721 259.6059,-405.6289"/>
<g id="a_edge21&#45;headlabel"><a xlink:href="dir_000632_000020.html" target="_top" xlink:title="1">
<text text-anchor="middle" x="262.9035" y="-406.3082" font-family="Helvetica,sans-Serif" font-size="10.00" fill="#000000">1</text>
</a>
</g>
</g>
<!-- dir_37c90836491b695b472bf98d1be8336b -->
<g id="node7" class="node">
<title>dir_37c90836491b695b472bf98d1be8336b</title>
<g id="a_node7"><a xlink:href="dir_37c90836491b695b472bf98d1be8336b.html" target="_top" xlink:title="Base">
<polygon fill="none" stroke="#ff0000" points="378,-36 324,-36 324,0 378,0 378,-36"/>
<text text-anchor="middle" x="351" y="-15.5" font-family="Helvetica,sans-Serif" font-size="10.00" fill="#000000">Base</text>
</a>
</g>
</g>
<!-- dir_19cbc61730528058d9acd8ae2ca70332&#45;&gt;dir_37c90836491b695b472bf98d1be8336b -->
<g id="edge22" class="edge">
<title>dir_19cbc61730528058d9acd8ae2ca70332&#45;&gt;dir_37c90836491b695b472bf98d1be8336b</title>
<path fill="none" stroke="#000000" d="M335.0864,-507.63C338.3667,-506.2483 341.7184,-504.9941 345,-504 458.3329,-469.6668 504.6803,-524.0403 609,-468 655.8869,-442.8125 688,-431.224 688,-378 688,-378 688,-378 688,-162 688,-97.3454 475.5968,-44.5895 388.044,-25.5898"/>
<polygon fill="#000000" stroke="#000000" points="388.5196,-22.1124 378.0085,-23.4416 387.0543,-28.9573 388.5196,-22.1124"/>
<g id="a_edge22&#45;headlabel"><a xlink:href="dir_000632_000275.html" target="_top" xlink:title="3">
<text text-anchor="middle" x="392.6288" y="-17.5884" font-family="Helvetica,sans-Serif" font-size="10.00" fill="#000000">3</text>
</a>
</g>
</g>
<!-- dir_8ba487e25de5ee77e05e9dce7582cb98 -->
<g id="node8" class="node">
<title>dir_8ba487e25de5ee77e05e9dce7582cb98</title>
<g id="a_node8"><a xlink:href="dir_8ba487e25de5ee77e05e9dce7582cb98.html" target="_top" xlink:title="Algorithm">
<polygon fill="none" stroke="#ff0000" points="486.5,-108 421.5,-108 421.5,-72 486.5,-72 486.5,-108"/>
<text text-anchor="middle" x="454" y="-87.5" font-family="Helvetica,sans-Serif" font-size="10.00" fill="#000000">Algorithm</text>
</a>
</g>
</g>
<!-- dir_19cbc61730528058d9acd8ae2ca70332&#45;&gt;dir_8ba487e25de5ee77e05e9dce7582cb98 -->
<g id="edge23" class="edge">
<title>dir_19cbc61730528058d9acd8ae2ca70332&#45;&gt;dir_8ba487e25de5ee77e05e9dce7582cb98</title>
<path fill="none" stroke="#000000" d="M335.1245,-507.7514C338.3979,-506.3479 341.7376,-505.0554 345,-504 433.4304,-475.3908 467.5297,-508.8794 551,-468 604.4037,-441.8457 650,-437.4643 650,-378 650,-378 650,-378 650,-306 650,-223.1996 617.6381,-201.4386 558,-144 540.4166,-127.0651 516.467,-114.1417 495.9826,-105.1899"/>
<polygon fill="#000000" stroke="#000000" points="497.1256,-101.874 486.55,-101.2355 494.4192,-108.3297 497.1256,-101.874"/>
<g id="a_edge23&#45;headlabel"><a xlink:href="dir_000632_000000.html" target="_top" xlink:title="1">
<text text-anchor="middle" x="501.5384" y="-98.1452" font-family="Helvetica,sans-Serif" font-size="10.00" fill="#000000">1</text>
</a>
</g>
</g>
<!-- dir_19cbc61730528058d9acd8ae2ca70332&#45;&gt;dir_09bf7f7c4011a5ccc426492db4dd0891 -->
<g id="edge24" class="edge">
<title>dir_19cbc61730528058d9acd8ae2ca70332&#45;&gt;dir_09bf7f7c4011a5ccc426492db4dd0891</title>
<path fill="none" stroke="#000000" d="M280.7206,-517.2198C243.4587,-510.0022 175.2035,-494.2981 122,-468 61.5963,-438.143 0,-445.3799 0,-378 0,-378 0,-378 0,-306 0,-225.3018 25.8225,-201.9334 82,-144 99.4134,-126.0424 124.1047,-112.5589 144.4719,-103.5566"/>
<polygon fill="#000000" stroke="#000000" points="145.9333,-106.7387 153.7772,-99.6167 143.204,-100.2927 145.9333,-106.7387"/>
<g id="a_edge24&#45;headlabel"><a xlink:href="dir_000632_000142.html" target="_top" xlink:title="11">
<text text-anchor="middle" x="143.7302" y="-108.2547" font-family="Helvetica,sans-Serif" font-size="10.00" fill="#000000">11</text>
</a>
</g>
</g>
<!-- dir_19cbc61730528058d9acd8ae2ca70332&#45;&gt;dir_bcbb2cf9a3d3d83e5515c82071a07177 -->
<g id="edge25" class="edge">
<title>dir_19cbc61730528058d9acd8ae2ca70332&#45;&gt;dir_bcbb2cf9a3d3d83e5515c82071a07177</title>
<path fill="none" stroke="#000000" d="M322.9339,-503.5388C330.3081,-493.5555 338.7311,-480.6963 344,-468 373.1576,-397.7401 382.1009,-307.3613 384.8233,-262.2486"/>
<polygon fill="#000000" stroke="#000000" points="388.3297,-262.2248 385.3777,-252.0495 381.34,-261.8448 388.3297,-262.2248"/>
<g id="a_edge25&#45;headlabel"><a xlink:href="dir_000632_000014.html" target="_top" xlink:title="30">
<text text-anchor="middle" x="390.9698" y="-263.4682" font-family="Helvetica,sans-Serif" font-size="10.00" fill="#000000">30</text>
</a>
</g>
</g>
<!-- dir_19cbc61730528058d9acd8ae2ca70332&#45;&gt;dir_5cb2a8e9fdbe67a11efb4176f60bf3d6 -->
<g id="edge26" class="edge">
<title>dir_19cbc61730528058d9acd8ae2ca70332&#45;&gt;dir_5cb2a8e9fdbe67a11efb4176f60bf3d6</title>
<path fill="none" stroke="#000000" d="M280.976,-513.3546C254.8806,-504.3063 214.8852,-488.5539 184,-468 156.7232,-449.8474 130.1852,-423.3799 112.3022,-403.8431"/>
<polygon fill="#000000" stroke="#000000" points="114.7159,-401.2931 105.4241,-396.2025 109.5133,-405.9764 114.7159,-401.2931"/>
<g id="a_edge26&#45;headlabel"><a xlink:href="dir_000632_000306.html" target="_top" xlink:title="8">
<text text-anchor="middle" x="119.231" y="-399.5651" font-family="Helvetica,sans-Serif" font-size="10.00" fill="#000000">8</text>
</a>
</g>
</g>
<!-- dir_19cbc61730528058d9acd8ae2ca70332&#45;&gt;dir_2171f7ec022c5423887b07c69b2f5b48 -->
<g id="edge27" class="edge">
<title>dir_19cbc61730528058d9acd8ae2ca70332&#45;&gt;dir_2171f7ec022c5423887b07c69b2f5b48</title>
<path fill="none" stroke="#000000" d="M332.252,-503.8619C343.7487,-494.2495 356.9198,-481.6233 366,-468 422.7776,-382.8149 427.9389,-352.767 446,-252 448.8228,-236.251 452.5094,-230.616 446,-216 440.9666,-204.6983 432.2695,-194.7696 423.0341,-186.611"/>
<polygon fill="#000000" stroke="#000000" points="425.165,-183.8319 415.2184,-180.1828 420.7185,-189.2382 425.165,-183.8319"/>
<g id="a_edge27&#45;headlabel"><a xlink:href="dir_000632_000077.html" target="_top" xlink:title="21">
<text text-anchor="middle" x="429.7448" y="-181.4223" font-family="Helvetica,sans-Serif" font-size="10.00" fill="#000000">21</text>
</a>
</g>
</g>
<!-- dir_40b4a122691869ee86baf7f2711ed718&#45;&gt;dir_11da180be91271a1ebdaa9322b1ad99a -->
<g id="edge6" class="edge">
<title>dir_40b4a122691869ee86baf7f2711ed718&#45;&gt;dir_11da180be91271a1ebdaa9322b1ad99a</title>
<path fill="none" stroke="#000000" d="M487.9429,-450C440.3747,-450 392.8066,-450 345.2384,-450"/>
<polygon fill="#000000" stroke="#000000" points="345.0879,-446.5001 335.0879,-450 345.0879,-453.5001 345.0879,-446.5001"/>
<g id="a_edge6&#45;headlabel"><a xlink:href="dir_000727_000630.html" target="_top" xlink:title="4">
<text text-anchor="middle" x="348.6825" y="-441.1607" font-family="Helvetica,sans-Serif" font-size="10.00" fill="#000000">4</text>
</a>
</g>
</g>
<!-- dir_40b4a122691869ee86baf7f2711ed718&#45;&gt;dir_4ab6b4cc6a7edbff49100e9123df213f -->
<g id="edge1" class="edge">
<title>dir_40b4a122691869ee86baf7f2711ed718&#45;&gt;dir_4ab6b4cc6a7edbff49100e9123df213f</title>
<path fill="none" stroke="#000000" d="M487.5352,-435.1318C440.2292,-409.5226 343.2086,-357.0001 288.6018,-327.4386"/>
<polygon fill="#000000" stroke="#000000" points="290.0287,-324.2311 279.5683,-322.5483 286.6961,-330.3869 290.0287,-324.2311"/>
<g id="a_edge1&#45;headlabel"><a xlink:href="dir_000727_000028.html" target="_top" xlink:title="12">
<text text-anchor="middle" x="294.5415" y="-320.9455" font-family="Helvetica,sans-Serif" font-size="10.00" fill="#000000">12</text>
</a>
</g>
</g>
<!-- dir_40b4a122691869ee86baf7f2711ed718&#45;&gt;dir_37c90836491b695b472bf98d1be8336b -->
<g id="edge2" class="edge">
<title>dir_40b4a122691869ee86baf7f2711ed718&#45;&gt;dir_37c90836491b695b472bf98d1be8336b</title>
<path fill="none" stroke="#000000" d="M531.6121,-431.6779C536.4695,-426.5062 541.8577,-420.9437 547,-416 556.7654,-406.6116 562.9951,-407.5947 570,-396 611.5743,-327.1845 603.7675,-294.8377 588,-216 573.1056,-141.5281 558.328,-115.3949 496,-72 462.9229,-48.9706 418.8104,-34.3867 387.96,-26.2593"/>
<polygon fill="#000000" stroke="#000000" points="388.5944,-22.8096 378.0412,-23.7477 386.8761,-29.5954 388.5944,-22.8096"/>
<g id="a_edge2&#45;headlabel"><a xlink:href="dir_000727_000275.html" target="_top" xlink:title="17">
<text text-anchor="middle" x="392.776" y="-18.4395" font-family="Helvetica,sans-Serif" font-size="10.00" fill="#000000">17</text>
</a>
</g>
</g>
<!-- dir_40b4a122691869ee86baf7f2711ed718&#45;&gt;dir_8ba487e25de5ee77e05e9dce7582cb98 -->
<g id="edge3" class="edge">
<title>dir_40b4a122691869ee86baf7f2711ed718&#45;&gt;dir_8ba487e25de5ee77e05e9dce7582cb98</title>
<path fill="none" stroke="#000000" d="M527.8021,-431.8796C545.1545,-405.4944 574,-354.3605 574,-306 574,-306 574,-306 574,-234 574,-182.2495 527.6955,-139.2268 492.6138,-114.0578"/>
<polygon fill="#000000" stroke="#000000" points="494.1801,-110.884 483.9715,-108.0492 490.1841,-116.6314 494.1801,-110.884"/>
<g id="a_edge3&#45;headlabel"><a xlink:href="dir_000727_000000.html" target="_top" xlink:title="1">
<text text-anchor="middle" x="498.7522" y="-108.1048" font-family="Helvetica,sans-Serif" font-size="10.00" fill="#000000">1</text>
</a>
</g>
</g>
<!-- dir_40b4a122691869ee86baf7f2711ed718&#45;&gt;dir_bcbb2cf9a3d3d83e5515c82071a07177 -->
<g id="edge4" class="edge">
<title>dir_40b4a122691869ee86baf7f2711ed718&#45;&gt;dir_bcbb2cf9a3d3d83e5515c82071a07177</title>
<path fill="none" stroke="#000000" d="M508.1774,-431.8091C496.1163,-400.8114 469.1443,-336.4117 436,-288 429.2581,-278.1526 420.7796,-268.3022 412.7293,-259.7621"/>
<polygon fill="#000000" stroke="#000000" points="414.9924,-257.0682 405.5186,-252.325 409.9668,-261.9409 414.9924,-257.0682"/>
<g id="a_edge4&#45;headlabel"><a xlink:href="dir_000727_000014.html" target="_top" xlink:title="146">
<text text-anchor="middle" x="419.533" y="-255.1725" font-family="Helvetica,sans-Serif" font-size="10.00" fill="#000000">146</text>
</a>
</g>
</g>
<!-- dir_40b4a122691869ee86baf7f2711ed718&#45;&gt;dir_2171f7ec022c5423887b07c69b2f5b48 -->
<g id="edge5" class="edge">
<title>dir_40b4a122691869ee86baf7f2711ed718&#45;&gt;dir_2171f7ec022c5423887b07c69b2f5b48</title>
<path fill="none" stroke="#000000" d="M520.837,-431.9525C533.2333,-389.9491 557.5037,-284.0549 512,-216 494.9757,-190.5386 463.225,-177.0299 435.8568,-169.8909"/>
<polygon fill="#000000" stroke="#000000" points="436.5469,-166.4573 426.0074,-167.5386 434.9208,-173.2658 436.5469,-166.4573"/>
<g id="a_edge5&#45;headlabel"><a xlink:href="dir_000727_000077.html" target="_top" xlink:title="144">
<text text-anchor="middle" x="440.7027" y="-162.0306" font-family="Helvetica,sans-Serif" font-size="10.00" fill="#000000">144</text>
</a>
</g>
</g>
<!-- dir_4ab6b4cc6a7edbff49100e9123df213f&#45;&gt;dir_bcbb2cf9a3d3d83e5515c82071a07177 -->
<g id="edge7" class="edge">
<title>dir_4ab6b4cc6a7edbff49100e9123df213f&#45;&gt;dir_bcbb2cf9a3d3d83e5515c82071a07177</title>
<path fill="none" stroke="#000000" d="M277.6185,-287.8314C296.0932,-277.5979 320.3968,-264.7926 341.3511,-254.239"/>
<polygon fill="#000000" stroke="#000000" points="343.0217,-257.3169 350.4039,-249.7173 339.8938,-251.0546 343.0217,-257.3169"/>
<g id="a_edge7&#45;headlabel"><a xlink:href="dir_000028_000014.html" target="_top" xlink:title="2">
<text text-anchor="middle" x="341.0746" y="-258.9631" font-family="Helvetica,sans-Serif" font-size="10.00" fill="#000000">2</text>
</a>
</g>
</g>
<!-- dir_4ab6b4cc6a7edbff49100e9123df213f&#45;&gt;dir_2171f7ec022c5423887b07c69b2f5b48 -->
<g id="edge8" class="edge">
<title>dir_4ab6b4cc6a7edbff49100e9123df213f&#45;&gt;dir_2171f7ec022c5423887b07c69b2f5b48</title>
<path fill="none" stroke="#000000" d="M261.678,-287.7623C283.3223,-262.3354 327.0814,-216.1253 356.5884,-187.3569"/>
<polygon fill="#000000" stroke="#000000" points="359.3583,-189.5484 364.1314,-180.0896 354.5016,-184.5073 359.3583,-189.5484"/>
<g id="a_edge8&#45;headlabel"><a xlink:href="dir_000028_000077.html" target="_top" xlink:title="2">
<text text-anchor="middle" x="358.7396" y="-191.5871" font-family="Helvetica,sans-Serif" font-size="10.00" fill="#000000">2</text>
</a>
</g>
</g>
<!-- dir_6af676bf18881990e4083e191d0e63e0&#45;&gt;dir_4ab6b4cc6a7edbff49100e9123df213f -->
<g id="edge9" class="edge">
<title>dir_6af676bf18881990e4083e191d0e63e0&#45;&gt;dir_4ab6b4cc6a7edbff49100e9123df213f</title>
<path fill="none" stroke="#000000" d="M251.9906,-359.8314C251.5628,-352.131 251.0541,-342.9743 250.5787,-334.4166"/>
<polygon fill="#000000" stroke="#000000" points="254.0724,-334.2037 250.023,-324.4133 247.0831,-334.592 254.0724,-334.2037"/>
<g id="a_edge9&#45;headlabel"><a xlink:href="dir_000020_000028.html" target="_top" xlink:title="4">
<text text-anchor="middle" x="257.1066" y="-335.1353" font-family="Helvetica,sans-Serif" font-size="10.00" fill="#000000">4</text>
</a>
</g>
</g>
<!-- dir_6af676bf18881990e4083e191d0e63e0&#45;&gt;dir_bcbb2cf9a3d3d83e5515c82071a07177 -->
<g id="edge10" class="edge">
<title>dir_6af676bf18881990e4083e191d0e63e0&#45;&gt;dir_bcbb2cf9a3d3d83e5515c82071a07177</title>
<path fill="none" stroke="#000000" d="M268.4005,-359.7639C284.0817,-341.3616 309.2548,-312.2738 332,-288 340.9238,-278.4765 350.9691,-268.2927 359.9539,-259.3645"/>
<polygon fill="#000000" stroke="#000000" points="362.5497,-261.7201 367.2039,-252.2023 357.6301,-256.7403 362.5497,-261.7201"/>
<g id="a_edge10&#45;headlabel"><a xlink:href="dir_000020_000014.html" target="_top" xlink:title="2">
<text text-anchor="middle" x="361.9879" y="-263.7662" font-family="Helvetica,sans-Serif" font-size="10.00" fill="#000000">2</text>
</a>
</g>
</g>
<!-- dir_37c90836491b695b472bf98d1be8336b&#45;&gt;dir_4ab6b4cc6a7edbff49100e9123df213f -->
<g id="edge11" class="edge">
<title>dir_37c90836491b695b472bf98d1be8336b&#45;&gt;dir_4ab6b4cc6a7edbff49100e9123df213f</title>
<path fill="none" stroke="#000000" d="M341.4704,-36.219C336.2544,-46.56 329.8797,-59.8316 325,-72 295.7842,-144.8547 269.3504,-233.6926 256.7594,-278.0251"/>
<polygon fill="#000000" stroke="#000000" points="253.3491,-277.2235 254.0038,-287.798 260.0864,-279.1232 253.3491,-277.2235"/>
<g id="a_edge11&#45;headlabel"><a xlink:href="dir_000275_000028.html" target="_top" xlink:title="16">
<text text-anchor="middle" x="251.5918" y="-270.4932" font-family="Helvetica,sans-Serif" font-size="10.00" fill="#000000">16</text>
</a>
</g>
</g>
<!-- dir_37c90836491b695b472bf98d1be8336b&#45;&gt;dir_bcbb2cf9a3d3d83e5515c82071a07177 -->
<g id="edge12" class="edge">
<title>dir_37c90836491b695b472bf98d1be8336b&#45;&gt;dir_bcbb2cf9a3d3d83e5515c82071a07177</title>
<path fill="none" stroke="#000000" d="M344.3533,-36.2294C334.2209,-67.0121 317.9869,-130.753 337,-180 341.1192,-190.6694 348.4336,-200.5335 356.1749,-208.8319"/>
<polygon fill="#000000" stroke="#000000" points="353.7819,-211.3887 363.325,-215.9909 358.7348,-206.442 353.7819,-211.3887"/>
<g id="a_edge12&#45;headlabel"><a xlink:href="dir_000275_000014.html" target="_top" xlink:title="1">
<text text-anchor="middle" x="349.2328" y="-208.3517" font-family="Helvetica,sans-Serif" font-size="10.00" fill="#000000">1</text>
</a>
</g>
</g>
<!-- dir_37c90836491b695b472bf98d1be8336b&#45;&gt;dir_2171f7ec022c5423887b07c69b2f5b48 -->
<g id="edge13" class="edge">
<title>dir_37c90836491b695b472bf98d1be8336b&#45;&gt;dir_2171f7ec022c5423887b07c69b2f5b48</title>
<path fill="none" stroke="#000000" d="M360.0551,-36.0896C368.5115,-60.6805 379.5356,-104.905 384.6424,-133.8531"/>
<polygon fill="#000000" stroke="#000000" points="381.1929,-134.4471 386.2404,-143.7623 388.1036,-133.3326 381.1929,-134.4471"/>
<g id="a_edge13&#45;headlabel"><a xlink:href="dir_000275_000077.html" target="_top" xlink:title="12">
<text text-anchor="middle" x="377.8176" y="-128.8503" font-family="Helvetica,sans-Serif" font-size="10.00" fill="#000000">12</text>
</a>
</g>
</g>
<!-- dir_8ba487e25de5ee77e05e9dce7582cb98&#45;&gt;dir_2171f7ec022c5423887b07c69b2f5b48 -->
<g id="edge14" class="edge">
<title>dir_8ba487e25de5ee77e05e9dce7582cb98&#45;&gt;dir_2171f7ec022c5423887b07c69b2f5b48</title>
<path fill="none" stroke="#000000" d="M442.5857,-108.4133C435.3024,-116.9938 425.6978,-127.3414 416.4257,-136.6463"/>
<polygon fill="#000000" stroke="#000000" points="413.7926,-134.3266 409.1117,-143.8314 418.6981,-139.3202 413.7926,-134.3266"/>
<g id="a_edge14&#45;headlabel"><a xlink:href="dir_000000_000077.html" target="_top" xlink:title="8">
<text text-anchor="middle" x="414.3671" y="-127.2822" font-family="Helvetica,sans-Serif" font-size="10.00" fill="#000000">8</text>
</a>
</g>
</g>
<!-- dir_09bf7f7c4011a5ccc426492db4dd0891&#45;&gt;dir_4ab6b4cc6a7edbff49100e9123df213f -->
<g id="edge15" class="edge">
<title>dir_09bf7f7c4011a5ccc426492db4dd0891&#45;&gt;dir_4ab6b4cc6a7edbff49100e9123df213f</title>
<path fill="none" stroke="#000000" d="M186.7123,-108.1451C198.6151,-145.9537 226.137,-233.3762 240.2733,-278.2797"/>
<polygon fill="#000000" stroke="#000000" points="236.9779,-279.468 243.3193,-287.9555 243.6549,-277.366 236.9779,-279.468"/>
<g id="a_edge15&#45;headlabel"><a xlink:href="dir_000142_000028.html" target="_top" xlink:title="3">
<text text-anchor="middle" x="233.1903" y="-274.3919" font-family="Helvetica,sans-Serif" font-size="10.00" fill="#000000">3</text>
</a>
</g>
</g>
<!-- dir_09bf7f7c4011a5ccc426492db4dd0891&#45;&gt;dir_6af676bf18881990e4083e191d0e63e0 -->
<g id="edge16" class="edge">
<title>dir_09bf7f7c4011a5ccc426492db4dd0891&#45;&gt;dir_6af676bf18881990e4083e191d0e63e0</title>
<path fill="none" stroke="#000000" d="M179.9901,-108.1615C178.4204,-148.6588 178.3561,-248.7129 210,-324 214.1792,-333.9432 220.7346,-343.5693 227.4788,-351.8723"/>
<polygon fill="#000000" stroke="#000000" points="225.0321,-354.3952 234.2049,-359.697 230.3404,-349.8321 225.0321,-354.3952"/>
<g id="a_edge16&#45;headlabel"><a xlink:href="dir_000142_000020.html" target="_top" xlink:title="1">
<text text-anchor="middle" x="220.5358" y="-351.0201" font-family="Helvetica,sans-Serif" font-size="10.00" fill="#000000">1</text>
</a>
</g>
</g>
<!-- dir_09bf7f7c4011a5ccc426492db4dd0891&#45;&gt;dir_37c90836491b695b472bf98d1be8336b -->
<g id="edge17" class="edge">
<title>dir_09bf7f7c4011a5ccc426492db4dd0891&#45;&gt;dir_37c90836491b695b472bf98d1be8336b</title>
<path fill="none" stroke="#000000" d="M208.3134,-78.432C237.0632,-66.2556 282.4837,-47.0187 314.3377,-33.5276"/>
<polygon fill="#000000" stroke="#000000" points="315.9112,-36.6622 323.7543,-29.5393 313.1812,-30.2165 315.9112,-36.6622"/>
<g id="a_edge17&#45;headlabel"><a xlink:href="dir_000142_000275.html" target="_top" xlink:title="2">
<text text-anchor="middle" x="313.7085" y="-38.1785" font-family="Helvetica,sans-Serif" font-size="10.00" fill="#000000">2</text>
</a>
</g>
</g>
<!-- dir_09bf7f7c4011a5ccc426492db4dd0891&#45;&gt;dir_2171f7ec022c5423887b07c69b2f5b48 -->
<g id="edge18" class="edge">
<title>dir_09bf7f7c4011a5ccc426492db4dd0891&#45;&gt;dir_2171f7ec022c5423887b07c69b2f5b48</title>
<path fill="none" stroke="#000000" d="M208.1901,-97.992C240.8058,-108.6159 295.8224,-127.745 336.0945,-142.3332"/>
<polygon fill="#000000" stroke="#000000" points="335.1405,-145.7106 345.7345,-145.8418 337.5346,-139.1327 335.1405,-145.7106"/>
<g id="a_edge18&#45;headlabel"><a xlink:href="dir_000142_000077.html" target="_top" xlink:title="11">
<text text-anchor="middle" x="330.7916" y="-144.6493" font-family="Helvetica,sans-Serif" font-size="10.00" fill="#000000">11</text>
</a>
</g>
</g>
<!-- dir_bcbb2cf9a3d3d83e5515c82071a07177&#45;&gt;dir_4ab6b4cc6a7edbff49100e9123df213f -->
<g id="edge29" class="edge">
<title>dir_bcbb2cf9a3d3d83e5515c82071a07177&#45;&gt;dir_4ab6b4cc6a7edbff49100e9123df213f</title>
<path fill="none" stroke="#000000" d="M357.3448,-252.189C337.4643,-263.2002 310.8469,-277.1833 288.9148,-288.1354"/>
<polygon fill="#000000" stroke="#000000" points="287.2473,-285.0554 279.8354,-292.6261 290.3507,-291.3299 287.2473,-285.0554"/>
<g id="a_edge29&#45;headlabel"><a xlink:href="dir_000014_000028.html" target="_top" xlink:title="8">
<text text-anchor="middle" x="289.2106" y="-278.4168" font-family="Helvetica,sans-Serif" font-size="10.00" fill="#000000">8</text>
</a>
</g>
</g>
<!-- dir_bcbb2cf9a3d3d83e5515c82071a07177&#45;&gt;dir_8ba487e25de5ee77e05e9dce7582cb98 -->
<g id="edge30" class="edge">
<title>dir_bcbb2cf9a3d3d83e5515c82071a07177&#45;&gt;dir_8ba487e25de5ee77e05e9dce7582cb98</title>
<path fill="none" stroke="#000000" d="M406.9405,-215.925C416.8879,-206.2376 428.0866,-193.5269 435,-180 444.8418,-160.7432 449.588,-136.6749 451.8755,-118.2742"/>
<polygon fill="#000000" stroke="#000000" points="455.3723,-118.4905 452.9582,-108.1743 448.4122,-117.7443 455.3723,-118.4905"/>
<g id="a_edge30&#45;headlabel"><a xlink:href="dir_000014_000000.html" target="_top" xlink:title="1">
<text text-anchor="middle" x="457.8124" y="-119.8672" font-family="Helvetica,sans-Serif" font-size="10.00" fill="#000000">1</text>
</a>
</g>
</g>
<!-- dir_bcbb2cf9a3d3d83e5515c82071a07177&#45;&gt;dir_2171f7ec022c5423887b07c69b2f5b48 -->
<g id="edge31" class="edge">
<title>dir_bcbb2cf9a3d3d83e5515c82071a07177&#45;&gt;dir_2171f7ec022c5423887b07c69b2f5b48</title>
<path fill="none" stroke="#000000" d="M380.0476,-215.8314C379.2972,-208.131 379.0763,-198.9743 379.3849,-190.4166"/>
<polygon fill="#000000" stroke="#000000" points="382.8792,-190.6161 380.024,-180.4133 375.8935,-190.1697 382.8792,-190.6161"/>
<g id="a_edge31&#45;headlabel"><a xlink:href="dir_000014_000077.html" target="_top" xlink:title="82">
<text text-anchor="middle" x="385.4836" y="-191.8844" font-family="Helvetica,sans-Serif" font-size="10.00" fill="#000000">82</text>
</a>
</g>
</g>
<!-- dir_5cb2a8e9fdbe67a11efb4176f60bf3d6&#45;&gt;dir_4ab6b4cc6a7edbff49100e9123df213f -->
<g id="edge32" class="edge">
<title>dir_5cb2a8e9fdbe67a11efb4176f60bf3d6&#45;&gt;dir_4ab6b4cc6a7edbff49100e9123df213f</title>
<path fill="none" stroke="#000000" d="M124.1095,-362.5542C149.0589,-351.2563 182.9779,-335.8968 209.1713,-324.0357"/>
<polygon fill="#000000" stroke="#000000" points="210.7752,-327.1515 218.441,-319.838 207.8876,-320.7748 210.7752,-327.1515"/>
<g id="a_edge32&#45;headlabel"><a xlink:href="dir_000306_000028.html" target="_top" xlink:title="5">
<text text-anchor="middle" x="208.6719" y="-328.7207" font-family="Helvetica,sans-Serif" font-size="10.00" fill="#000000">5</text>
</a>
</g>
</g>
<!-- dir_5cb2a8e9fdbe67a11efb4176f60bf3d6&#45;&gt;dir_37c90836491b695b472bf98d1be8336b -->
<g id="edge33" class="edge">
<title>dir_5cb2a8e9fdbe67a11efb4176f60bf3d6&#45;&gt;dir_37c90836491b695b472bf98d1be8336b</title>
<path fill="none" stroke="#000000" d="M82.3981,-359.8646C78.4728,-349.5498 74.0798,-336.2765 72,-324 58.6168,-245.0023 48.2194,-216.6541 82,-144 99.927,-105.4433 108.8431,-94.3758 145,-72 198.0056,-39.1973 270.5436,-26.1797 313.8958,-21.1145"/>
<polygon fill="#000000" stroke="#000000" points="314.4333,-24.5768 323.9968,-20.0171 313.6772,-17.6177 314.4333,-24.5768"/>
<g id="a_edge33&#45;headlabel"><a xlink:href="dir_000306_000275.html" target="_top" xlink:title="2">
<text text-anchor="middle" x="311.1663" y="-25.2876" font-family="Helvetica,sans-Serif" font-size="10.00" fill="#000000">2</text>
</a>
</g>
</g>
<!-- dir_5cb2a8e9fdbe67a11efb4176f60bf3d6&#45;&gt;dir_09bf7f7c4011a5ccc426492db4dd0891 -->
<g id="edge34" class="edge">
<title>dir_5cb2a8e9fdbe67a11efb4176f60bf3d6&#45;&gt;dir_09bf7f7c4011a5ccc426492db4dd0891</title>
<path fill="none" stroke="#000000" d="M85.5668,-359.7914C76.5241,-318.341 60.0045,-215.0429 100,-144 109.864,-126.4789 128.0532,-113.5804 144.6996,-104.7922"/>
<polygon fill="#000000" stroke="#000000" points="146.3131,-107.8989 153.7261,-100.3294 143.2107,-101.6239 146.3131,-107.8989"/>
<g id="a_edge34&#45;headlabel"><a xlink:href="dir_000306_000142.html" target="_top" xlink:title="31">
<text text-anchor="middle" x="144.3491" y="-109.5372" font-family="Helvetica,sans-Serif" font-size="10.00" fill="#000000">31</text>
</a>
</g>
</g>
<!-- dir_5cb2a8e9fdbe67a11efb4176f60bf3d6&#45;&gt;dir_2171f7ec022c5423887b07c69b2f5b48 -->
<g id="edge35" class="edge">
<title>dir_5cb2a8e9fdbe67a11efb4176f60bf3d6&#45;&gt;dir_2171f7ec022c5423887b07c69b2f5b48</title>
<path fill="none" stroke="#000000" d="M111.4112,-359.8593C148.286,-328.9364 226.6083,-264.6453 297,-216 312.4118,-205.3494 329.9344,-194.4706 345.3318,-185.2944"/>
<polygon fill="#000000" stroke="#000000" points="347.2901,-188.2027 354.1199,-180.103 343.7297,-182.1757 347.2901,-188.2027"/>
<g id="a_edge35&#45;headlabel"><a xlink:href="dir_000306_000077.html" target="_top" xlink:title="7">
<text text-anchor="middle" x="345.6393" y="-189.9755" font-family="Helvetica,sans-Serif" font-size="10.00" fill="#000000">7</text>
</a>
</g>
</g>
<!-- dir_2171f7ec022c5423887b07c69b2f5b48&#45;&gt;dir_4ab6b4cc6a7edbff49100e9123df213f -->
<g id="edge36" class="edge">
<title>dir_2171f7ec022c5423887b07c69b2f5b48&#45;&gt;dir_4ab6b4cc6a7edbff49100e9123df213f</title>
<path fill="none" stroke="#000000" d="M373.448,-180.0896C351.8898,-205.4355 308.1461,-251.639 278.5838,-280.4751"/>
<polygon fill="#000000" stroke="#000000" points="275.7948,-278.3022 271.0243,-287.7623 280.653,-283.3419 275.7948,-278.3022"/>
<g id="a_edge36&#45;headlabel"><a xlink:href="dir_000077_000028.html" target="_top" xlink:title="35">
<text text-anchor="middle" x="276.4123" y="-271.2634" font-family="Helvetica,sans-Serif" font-size="10.00" fill="#000000">35</text>
</a>
</g>
</g>
<!-- dir_2171f7ec022c5423887b07c69b2f5b48&#45;&gt;dir_37c90836491b695b472bf98d1be8336b -->
<g id="edge37" class="edge">
<title>dir_2171f7ec022c5423887b07c69b2f5b48&#45;&gt;dir_37c90836491b695b472bf98d1be8336b</title>
<path fill="none" stroke="#000000" d="M376.8941,-143.7623C368.4274,-119.0928 357.41,-74.8598 352.327,-45.9731"/>
<polygon fill="#000000" stroke="#000000" points="355.7811,-45.4075 350.7385,-36.0896 348.8698,-46.5183 355.7811,-45.4075"/>
<g id="a_edge37&#45;headlabel"><a xlink:href="dir_000077_000275.html" target="_top" xlink:title="1">
<text text-anchor="middle" x="359.1547" y="-46.006" font-family="Helvetica,sans-Serif" font-size="10.00" fill="#000000">1</text>
</a>
</g>
</g>
<!-- dir_2171f7ec022c5423887b07c69b2f5b48&#45;&gt;dir_8ba487e25de5ee77e05e9dce7582cb98 -->
<g id="edge38" class="edge">
<title>dir_2171f7ec022c5423887b07c69b2f5b48&#45;&gt;dir_8ba487e25de5ee77e05e9dce7582cb98</title>
<path fill="none" stroke="#000000" d="M397.2069,-143.8314C404.5015,-135.219 414.1788,-124.7851 423.5234,-115.4048"/>
<polygon fill="#000000" stroke="#000000" points="426.2141,-117.6679 430.8944,-108.1628 421.3082,-112.6746 426.2141,-117.6679"/>
<g id="a_edge38&#45;headlabel"><a xlink:href="dir_000077_000000.html" target="_top" xlink:title="2">
<text text-anchor="middle" x="425.6399" y="-119.7124" font-family="Helvetica,sans-Serif" font-size="10.00" fill="#000000">2</text>
</a>
</g>
</g>
<!-- dir_2171f7ec022c5423887b07c69b2f5b48&#45;&gt;dir_09bf7f7c4011a5ccc426492db4dd0891 -->
<g id="edge39" class="edge">
<title>dir_2171f7ec022c5423887b07c69b2f5b48&#45;&gt;dir_09bf7f7c4011a5ccc426492db4dd0891</title>
<path fill="none" stroke="#000000" d="M345.5172,-149.6228C308.2589,-137.2008 253.6486,-118.0603 217.6501,-104.8327"/>
<polygon fill="#000000" stroke="#000000" points="218.6133,-101.4573 208.0201,-101.2692 216.1839,-108.0222 218.6133,-101.4573"/>
<g id="a_edge39&#45;headlabel"><a xlink:href="dir_000077_000142.html" target="_top" xlink:title="1">
<text text-anchor="middle" x="222.9698" y="-97.5419" font-family="Helvetica,sans-Serif" font-size="10.00" fill="#000000">1</text>
</a>
</g>
</g>
<!-- dir_2171f7ec022c5423887b07c69b2f5b48&#45;&gt;dir_bcbb2cf9a3d3d83e5515c82071a07177 -->
<g id="edge40" class="edge">
<title>dir_2171f7ec022c5423887b07c69b2f5b48&#45;&gt;dir_bcbb2cf9a3d3d83e5515c82071a07177</title>
<path fill="none" stroke="#000000" d="M391.976,-180.4133C392.7071,-188.0593 392.9203,-197.1084 392.6155,-205.5726"/>
<polygon fill="#000000" stroke="#000000" points="389.1048,-205.6264 391.9524,-215.8314 396.0902,-206.078 389.1048,-205.6264"/>
<g id="a_edge40&#45;headlabel"><a xlink:href="dir_000077_000014.html" target="_top" xlink:title="12">
<text text-anchor="middle" x="386.5032" y="-199.3562" font-family="Helvetica,sans-Serif" font-size="10.00" fill="#000000">12</text>
</a>
</g>
</g>
</g>
</svg>
