<?xml version="1.0" encoding="UTF-8" standalone="no"?>
<!DOCTYPE svg PUBLIC "-//W3C//DTD SVG 1.1//EN"
 "http://www.w3.org/Graphics/SVG/1.1/DTD/svg11.dtd">
<!-- Generated by graphviz version 2.40.1 (20161225.0304)
 -->
<!-- Title: /home/travis/build/AliceO2Group/AliceO2/Detectors/FIT/FT0/workflow/src Pages: 1 -->
<svg width="257pt" height="439pt"
 viewBox="0.00 0.00 257.00 439.00" xmlns="http://www.w3.org/2000/svg" xmlns:xlink="http://www.w3.org/1999/xlink">
<g id="graph0" class="graph" transform="scale(1 1) rotate(0) translate(4 435)">
<title>/home/travis/build/AliceO2Group/AliceO2/Detectors/FIT/FT0/workflow/src</title>
<g id="clust1" class="cluster">
<title>clusterdir_db2620e5be5f5f7bc69e8ed28a3729c7</title>
<g id="a_clust1"><a xlink:href="dir_db2620e5be5f5f7bc69e8ed28a3729c7.html" target="_top" xlink:title="workflow">
<polygon fill="#ddddee" stroke="#000000" points="62,-352 62,-423 132,-423 132,-352 62,-352"/>
<text text-anchor="middle" x="97" y="-411" font-family="Helvetica,sans-Serif" font-size="10.00" fill="#000000">workflow</text>
</a>
</g>
</g>
<!-- dir_653475d871d0e907f9d0ff42c790e616 -->
<g id="node1" class="node">
<title>dir_653475d871d0e907f9d0ff42c790e616</title>
<g id="a_node1"><a xlink:href="dir_653475d871d0e907f9d0ff42c790e616.html" target="_top" xlink:title="src">
<polygon fill="#eeeeff" stroke="#000000" points="124,-396 70,-396 70,-360 124,-360 124,-396"/>
<text text-anchor="middle" x="97" y="-375.5" font-family="Helvetica,sans-Serif" font-size="10.00" fill="#000000">src</text>
</a>
</g>
</g>
<!-- dir_4ab6b4cc6a7edbff49100e9123df213f -->
<g id="node2" class="node">
<title>dir_4ab6b4cc6a7edbff49100e9123df213f</title>
<g id="a_node2"><a xlink:href="dir_4ab6b4cc6a7edbff49100e9123df213f.html" target="_top" xlink:title="Common">
<polygon fill="none" stroke="#ff0000" points="89.5,-180 28.5,-180 28.5,-144 89.5,-144 89.5,-180"/>
<text text-anchor="middle" x="59" y="-159.5" font-family="Helvetica,sans-Serif" font-size="10.00" fill="#000000">Common</text>
</a>
</g>
</g>
<!-- dir_653475d871d0e907f9d0ff42c790e616&#45;&gt;dir_4ab6b4cc6a7edbff49100e9123df213f -->
<g id="edge1" class="edge">
<title>dir_653475d871d0e907f9d0ff42c790e616&#45;&gt;dir_4ab6b4cc6a7edbff49100e9123df213f</title>
<path fill="none" stroke="#000000" d="M91.715,-359.6189C88.8583,-349.2272 85.4289,-335.9589 83,-324 73.5432,-277.4382 66.206,-222.6349 62.2508,-190.1903"/>
<polygon fill="#000000" stroke="#000000" points="65.7054,-189.6015 61.041,-180.0887 58.7551,-190.4339 65.7054,-189.6015"/>
<g id="a_edge1&#45;headlabel"><a xlink:href="dir_000411_000028.html" target="_top" xlink:title="4">
<text text-anchor="middle" x="68.9519" y="-190.333" font-family="Helvetica,sans-Serif" font-size="10.00" fill="#000000">4</text>
</a>
</g>
</g>
<!-- dir_ca639a046a87a9287b3468a6ba2bbef1 -->
<g id="node3" class="node">
<title>dir_ca639a046a87a9287b3468a6ba2bbef1</title>
<g id="a_node3"><a xlink:href="dir_ca639a046a87a9287b3468a6ba2bbef1.html" target="_top" xlink:title="reconstruction">
<polygon fill="none" stroke="#ff0000" points="211,-252 125,-252 125,-216 211,-216 211,-252"/>
<text text-anchor="middle" x="168" y="-231.5" font-family="Helvetica,sans-Serif" font-size="10.00" fill="#000000">reconstruction</text>
</a>
</g>
</g>
<!-- dir_653475d871d0e907f9d0ff42c790e616&#45;&gt;dir_ca639a046a87a9287b3468a6ba2bbef1 -->
<g id="edge2" class="edge">
<title>dir_653475d871d0e907f9d0ff42c790e616&#45;&gt;dir_ca639a046a87a9287b3468a6ba2bbef1</title>
<path fill="none" stroke="#000000" d="M105.9922,-359.7623C118.2623,-334.8764 140.3483,-290.0822 154.5808,-261.2165"/>
<polygon fill="#000000" stroke="#000000" points="157.7977,-262.6065 159.0808,-252.0896 151.5194,-259.5109 157.7977,-262.6065"/>
<g id="a_edge2&#45;headlabel"><a xlink:href="dir_000411_000457.html" target="_top" xlink:title="2">
<text text-anchor="middle" x="158.7547" y="-264.5861" font-family="Helvetica,sans-Serif" font-size="10.00" fill="#000000">2</text>
</a>
</g>
</g>
<!-- dir_ddefa1c93b06b88863ed284983804d8f -->
<g id="node4" class="node">
<title>dir_ddefa1c93b06b88863ed284983804d8f</title>
<g id="a_node4"><a xlink:href="dir_ddefa1c93b06b88863ed284983804d8f.html" target="_top" xlink:title="include">
<polygon fill="none" stroke="#ff0000" points="249,-324 195,-324 195,-288 249,-288 249,-324"/>
<text text-anchor="middle" x="222" y="-303.5" font-family="Helvetica,sans-Serif" font-size="10.00" fill="#000000">include</text>
</a>
</g>
</g>
<!-- dir_653475d871d0e907f9d0ff42c790e616&#45;&gt;dir_ddefa1c93b06b88863ed284983804d8f -->
<g id="edge3" class="edge">
<title>dir_653475d871d0e907f9d0ff42c790e616&#45;&gt;dir_ddefa1c93b06b88863ed284983804d8f</title>
<path fill="none" stroke="#000000" d="M124.1231,-362.3771C142.3052,-351.9042 166.4431,-338.0007 186.1985,-326.6216"/>
<polygon fill="#000000" stroke="#000000" points="188.0114,-329.6166 194.9298,-321.5924 184.5175,-323.5508 188.0114,-329.6166"/>
<g id="a_edge3&#45;headlabel"><a xlink:href="dir_000411_000397.html" target="_top" xlink:title="20">
<text text-anchor="middle" x="186.3137" y="-331.371" font-family="Helvetica,sans-Serif" font-size="10.00" fill="#000000">20</text>
</a>
</g>
</g>
<!-- dir_bcbb2cf9a3d3d83e5515c82071a07177 -->
<g id="node5" class="node">
<title>dir_bcbb2cf9a3d3d83e5515c82071a07177</title>
<g id="a_node5"><a xlink:href="dir_bcbb2cf9a3d3d83e5515c82071a07177.html" target="_top" xlink:title="Framework">
<polygon fill="none" stroke="#ff0000" points="166.5,-108 95.5,-108 95.5,-72 166.5,-72 166.5,-108"/>
<text text-anchor="middle" x="131" y="-87.5" font-family="Helvetica,sans-Serif" font-size="10.00" fill="#000000">Framework</text>
</a>
</g>
</g>
<!-- dir_653475d871d0e907f9d0ff42c790e616&#45;&gt;dir_bcbb2cf9a3d3d83e5515c82071a07177 -->
<g id="edge4" class="edge">
<title>dir_653475d871d0e907f9d0ff42c790e616&#45;&gt;dir_bcbb2cf9a3d3d83e5515c82071a07177</title>
<path fill="none" stroke="#000000" d="M99.1551,-359.5345C102.6676,-329.4597 109.8523,-268.0259 116,-216 119.9585,-182.5005 124.5481,-143.9962 127.5976,-118.4596"/>
<polygon fill="#000000" stroke="#000000" points="131.093,-118.7063 128.8039,-108.3617 124.1424,-117.8759 131.093,-118.7063"/>
<g id="a_edge4&#45;headlabel"><a xlink:href="dir_000411_000014.html" target="_top" xlink:title="19">
<text text-anchor="middle" x="133.4859" y="-120.1123" font-family="Helvetica,sans-Serif" font-size="10.00" fill="#000000">19</text>
</a>
</g>
</g>
<!-- dir_2171f7ec022c5423887b07c69b2f5b48 -->
<g id="node6" class="node">
<title>dir_2171f7ec022c5423887b07c69b2f5b48</title>
<g id="a_node6"><a xlink:href="dir_2171f7ec022c5423887b07c69b2f5b48.html" target="_top" xlink:title="DataFormats">
<polygon fill="none" stroke="#ff0000" points="171,-36 91,-36 91,0 171,0 171,-36"/>
<text text-anchor="middle" x="131" y="-15.5" font-family="Helvetica,sans-Serif" font-size="10.00" fill="#000000">DataFormats</text>
</a>
</g>
</g>
<!-- dir_653475d871d0e907f9d0ff42c790e616&#45;&gt;dir_2171f7ec022c5423887b07c69b2f5b48 -->
<g id="edge5" class="edge">
<title>dir_653475d871d0e907f9d0ff42c790e616&#45;&gt;dir_2171f7ec022c5423887b07c69b2f5b48</title>
<path fill="none" stroke="#000000" d="M74.0124,-359.7169C45.3281,-334.6722 0,-286.7501 0,-234 0,-234 0,-234 0,-162 0,-108.6527 49.8032,-66.3462 87.9937,-41.7467"/>
<polygon fill="#000000" stroke="#000000" points="90.292,-44.4382 96.9233,-36.1752 86.5865,-38.4994 90.292,-44.4382"/>
<g id="a_edge5&#45;headlabel"><a xlink:href="dir_000411_000077.html" target="_top" xlink:title="9">
<text text-anchor="middle" x="88.7453" y="-46.2498" font-family="Helvetica,sans-Serif" font-size="10.00" fill="#000000">9</text>
</a>
</g>
</g>
<!-- dir_4ab6b4cc6a7edbff49100e9123df213f&#45;&gt;dir_bcbb2cf9a3d3d83e5515c82071a07177 -->
<g id="edge6" class="edge">
<title>dir_4ab6b4cc6a7edbff49100e9123df213f&#45;&gt;dir_bcbb2cf9a3d3d83e5515c82071a07177</title>
<path fill="none" stroke="#000000" d="M71.2162,-143.8314C79.0663,-135.1337 89.4496,-124.5783 99.4049,-115.1265"/>
<polygon fill="#000000" stroke="#000000" points="101.9508,-117.5384 106.8853,-108.1628 97.1812,-112.4148 101.9508,-117.5384"/>
<g id="a_edge6&#45;headlabel"><a xlink:href="dir_000028_000014.html" target="_top" xlink:title="2">
<text text-anchor="middle" x="101.2544" y="-119.5658" font-family="Helvetica,sans-Serif" font-size="10.00" fill="#000000">2</text>
</a>
</g>
</g>
<!-- dir_4ab6b4cc6a7edbff49100e9123df213f&#45;&gt;dir_2171f7ec022c5423887b07c69b2f5b48 -->
<g id="edge7" class="edge">
<title>dir_4ab6b4cc6a7edbff49100e9123df213f&#45;&gt;dir_2171f7ec022c5423887b07c69b2f5b48</title>
<path fill="none" stroke="#000000" d="M55.4685,-143.9238C57.0012,-125.136 64.4906,-95.2788 77,-72 82.3957,-61.9591 89.8448,-52.0564 97.5676,-43.5279"/>
<polygon fill="#000000" stroke="#000000" points="100.2827,-45.7538 104.686,-36.1173 95.2343,-40.9046 100.2827,-45.7538"/>
<g id="a_edge7&#45;headlabel"><a xlink:href="dir_000028_000077.html" target="_top" xlink:title="2">
<text text-anchor="middle" x="99.8402" y="-47.813" font-family="Helvetica,sans-Serif" font-size="10.00" fill="#000000">2</text>
</a>
</g>
</g>
<!-- dir_ca639a046a87a9287b3468a6ba2bbef1&#45;&gt;dir_4ab6b4cc6a7edbff49100e9123df213f -->
<g id="edge8" class="edge">
<title>dir_ca639a046a87a9287b3468a6ba2bbef1&#45;&gt;dir_4ab6b4cc6a7edbff49100e9123df213f</title>
<path fill="none" stroke="#000000" d="M140.4947,-215.8314C126.682,-206.7074 109.7744,-195.539 94.9471,-185.7449"/>
<polygon fill="#000000" stroke="#000000" points="96.7696,-182.7541 86.4965,-180.1628 92.9114,-188.5949 96.7696,-182.7541"/>
<g id="a_edge8&#45;headlabel"><a xlink:href="dir_000457_000028.html" target="_top" xlink:title="3">
<text text-anchor="middle" x="101.3338" y="-179.8662" font-family="Helvetica,sans-Serif" font-size="10.00" fill="#000000">3</text>
</a>
</g>
</g>
<!-- dir_ca639a046a87a9287b3468a6ba2bbef1&#45;&gt;dir_bcbb2cf9a3d3d83e5515c82071a07177 -->
<g id="edge9" class="edge">
<title>dir_ca639a046a87a9287b3468a6ba2bbef1&#45;&gt;dir_bcbb2cf9a3d3d83e5515c82071a07177</title>
<path fill="none" stroke="#000000" d="M163.3139,-215.7623C156.9752,-191.0928 145.6098,-146.8598 138.1875,-117.9731"/>
<polygon fill="#000000" stroke="#000000" points="141.5266,-116.904 135.648,-108.0896 134.7468,-118.6461 141.5266,-116.904"/>
<g id="a_edge9&#45;headlabel"><a xlink:href="dir_000457_000014.html" target="_top" xlink:title="2">
<text text-anchor="middle" x="145.171" y="-117.1789" font-family="Helvetica,sans-Serif" font-size="10.00" fill="#000000">2</text>
</a>
</g>
</g>
<!-- dir_ca639a046a87a9287b3468a6ba2bbef1&#45;&gt;dir_2171f7ec022c5423887b07c69b2f5b48 -->
<g id="edge10" class="edge">
<title>dir_ca639a046a87a9287b3468a6ba2bbef1&#45;&gt;dir_2171f7ec022c5423887b07c69b2f5b48</title>
<path fill="none" stroke="#000000" d="M173.3371,-215.8285C181.3946,-185.1311 193.9261,-121.5127 176,-72 172.2851,-61.7392 165.6748,-52.0579 158.6452,-43.8033"/>
<polygon fill="#000000" stroke="#000000" points="161.18,-41.3886 151.8578,-36.3539 156.0056,-46.1031 161.18,-41.3886"/>
<g id="a_edge10&#45;headlabel"><a xlink:href="dir_000457_000077.html" target="_top" xlink:title="26">
<text text-anchor="middle" x="165.6997" y="-39.6334" font-family="Helvetica,sans-Serif" font-size="10.00" fill="#000000">26</text>
</a>
</g>
</g>
<!-- dir_ddefa1c93b06b88863ed284983804d8f&#45;&gt;dir_ca639a046a87a9287b3468a6ba2bbef1 -->
<g id="edge11" class="edge">
<title>dir_ddefa1c93b06b88863ed284983804d8f&#45;&gt;dir_ca639a046a87a9287b3468a6ba2bbef1</title>
<path fill="none" stroke="#000000" d="M208.3735,-287.8314C202.154,-279.5386 194.6678,-269.557 187.84,-260.4533"/>
<polygon fill="#000000" stroke="#000000" points="190.61,-258.3133 181.81,-252.4133 185.01,-262.5133 190.61,-258.3133"/>
<g id="a_edge11&#45;headlabel"><a xlink:href="dir_000397_000457.html" target="_top" xlink:title="1">
<text text-anchor="middle" x="195.0381" y="-256.9854" font-family="Helvetica,sans-Serif" font-size="10.00" fill="#000000">1</text>
</a>
</g>
</g>
<!-- dir_ddefa1c93b06b88863ed284983804d8f&#45;&gt;dir_bcbb2cf9a3d3d83e5515c82071a07177 -->
<g id="edge12" class="edge">
<title>dir_ddefa1c93b06b88863ed284983804d8f&#45;&gt;dir_bcbb2cf9a3d3d83e5515c82071a07177</title>
<path fill="none" stroke="#000000" d="M224.6343,-287.8891C226.6408,-269.3325 227.8817,-239.8962 220,-216 207.1118,-176.9251 177.6391,-139.3707 156.1292,-115.5848"/>
<polygon fill="#000000" stroke="#000000" points="158.534,-113.0302 149.1753,-108.0638 153.3943,-117.7824 158.534,-113.0302"/>
<g id="a_edge12&#45;headlabel"><a xlink:href="dir_000397_000014.html" target="_top" xlink:title="33">
<text text-anchor="middle" x="163.059" y="-111.242" font-family="Helvetica,sans-Serif" font-size="10.00" fill="#000000">33</text>
</a>
</g>
</g>
<!-- dir_ddefa1c93b06b88863ed284983804d8f&#45;&gt;dir_2171f7ec022c5423887b07c69b2f5b48 -->
<g id="edge13" class="edge">
<title>dir_ddefa1c93b06b88863ed284983804d8f&#45;&gt;dir_2171f7ec022c5423887b07c69b2f5b48</title>
<path fill="none" stroke="#000000" d="M227.9698,-287.7319C231.0408,-277.3756 234.4563,-264.105 236,-252 246.4045,-170.4097 237.5388,-141.1486 193,-72 185.8642,-60.9213 175.8119,-50.8103 165.8747,-42.41"/>
<polygon fill="#000000" stroke="#000000" points="167.9703,-39.6037 157.9878,-36.054 163.5778,-45.0541 167.9703,-39.6037"/>
<g id="a_edge13&#45;headlabel"><a xlink:href="dir_000397_000077.html" target="_top" xlink:title="6">
<text text-anchor="middle" x="172.5508" y="-37.1486" font-family="Helvetica,sans-Serif" font-size="10.00" fill="#000000">6</text>
</a>
</g>
</g>
<!-- dir_bcbb2cf9a3d3d83e5515c82071a07177&#45;&gt;dir_4ab6b4cc6a7edbff49100e9123df213f -->
<g id="edge14" class="edge">
<title>dir_bcbb2cf9a3d3d83e5515c82071a07177&#45;&gt;dir_4ab6b4cc6a7edbff49100e9123df213f</title>
<path fill="none" stroke="#000000" d="M118.5627,-108.4133C110.7259,-117.0787 100.4215,-127.5464 90.5436,-136.9223"/>
<polygon fill="#000000" stroke="#000000" points="88.0561,-134.4561 83.121,-143.8314 92.8255,-139.5799 88.0561,-134.4561"/>
<g id="a_edge14&#45;headlabel"><a xlink:href="dir_000014_000028.html" target="_top" xlink:title="8">
<text text-anchor="middle" x="88.7528" y="-127.4287" font-family="Helvetica,sans-Serif" font-size="10.00" fill="#000000">8</text>
</a>
</g>
</g>
<!-- dir_bcbb2cf9a3d3d83e5515c82071a07177&#45;&gt;dir_2171f7ec022c5423887b07c69b2f5b48 -->
<g id="edge15" class="edge">
<title>dir_bcbb2cf9a3d3d83e5515c82071a07177&#45;&gt;dir_2171f7ec022c5423887b07c69b2f5b48</title>
<path fill="none" stroke="#000000" d="M125.0476,-71.8314C124.2972,-64.131 124.0763,-54.9743 124.3849,-46.4166"/>
<polygon fill="#000000" stroke="#000000" points="127.8792,-46.6161 125.024,-36.4133 120.8935,-46.1697 127.8792,-46.6161"/>
<g id="a_edge15&#45;headlabel"><a xlink:href="dir_000014_000077.html" target="_top" xlink:title="82">
<text text-anchor="middle" x="130.4836" y="-47.8844" font-family="Helvetica,sans-Serif" font-size="10.00" fill="#000000">82</text>
</a>
</g>
</g>
<!-- dir_2171f7ec022c5423887b07c69b2f5b48&#45;&gt;dir_4ab6b4cc6a7edbff49100e9123df213f -->
<g id="edge16" class="edge">
<title>dir_2171f7ec022c5423887b07c69b2f5b48&#45;&gt;dir_4ab6b4cc6a7edbff49100e9123df213f</title>
<path fill="none" stroke="#000000" d="M120.7378,-36.1173C112.5979,-46.0066 102.0475,-58.8853 95,-72 84.4452,-91.6415 77.4642,-115.9662 71.8797,-134.3736"/>
<polygon fill="#000000" stroke="#000000" points="68.5373,-133.3354 68.9071,-143.9238 75.221,-135.4159 68.5373,-133.3354"/>
<g id="a_edge16&#45;headlabel"><a xlink:href="dir_000077_000028.html" target="_top" xlink:title="35">
<text text-anchor="middle" x="66.8946" y="-126.5594" font-family="Helvetica,sans-Serif" font-size="10.00" fill="#000000">35</text>
</a>
</g>
</g>
<!-- dir_2171f7ec022c5423887b07c69b2f5b48&#45;&gt;dir_bcbb2cf9a3d3d83e5515c82071a07177 -->
<g id="edge17" class="edge">
<title>dir_2171f7ec022c5423887b07c69b2f5b48&#45;&gt;dir_bcbb2cf9a3d3d83e5515c82071a07177</title>
<path fill="none" stroke="#000000" d="M136.976,-36.4133C137.7071,-44.0593 137.9203,-53.1084 137.6155,-61.5726"/>
<polygon fill="#000000" stroke="#000000" points="134.1048,-61.6264 136.9524,-71.8314 141.0902,-62.078 134.1048,-61.6264"/>
<g id="a_edge17&#45;headlabel"><a xlink:href="dir_000077_000014.html" target="_top" xlink:title="12">
<text text-anchor="middle" x="131.5032" y="-55.3562" font-family="Helvetica,sans-Serif" font-size="10.00" fill="#000000">12</text>
</a>
</g>
</g>
</g>
</svg>
