<?xml version="1.0" encoding="UTF-8" standalone="no"?>
<!DOCTYPE svg PUBLIC "-//W3C//DTD SVG 1.1//EN"
 "http://www.w3.org/Graphics/SVG/1.1/DTD/svg11.dtd">
<!-- Generated by graphviz version 2.40.1 (20161225.0304)
 -->
<!-- Title: /home/travis/build/AliceO2Group/AliceO2/Detectors/FIT/FT0 Pages: 1 -->
<svg width="470pt" height="447pt"
 viewBox="0.00 0.00 470.29 447.00" xmlns="http://www.w3.org/2000/svg" xmlns:xlink="http://www.w3.org/1999/xlink">
<g id="graph0" class="graph" transform="scale(1 1) rotate(0) translate(4 443)">
<title>/home/travis/build/AliceO2Group/AliceO2/Detectors/FIT/FT0</title>
<g id="clust1" class="cluster">
<title>clusterdir_d14e88a79bca429480864605ee348cef</title>
<g id="a_clust1"><a xlink:href="dir_d14e88a79bca429480864605ee348cef.html" target="_top" xlink:title="FIT">
<polygon fill="#ddddee" stroke="#000000" points="136.2906,-200 136.2906,-431 412.2906,-431 412.2906,-200 136.2906,-200"/>
<text text-anchor="middle" x="274.2906" y="-419" font-family="Helvetica,sans-Serif" font-size="10.00" fill="#000000">FIT</text>
</a>
</g>
</g>
<g id="clust2" class="cluster">
<title>clusterdir_732f729910dd598014f768fa2866f334</title>
<g id="a_clust2"><a xlink:href="dir_732f729910dd598014f768fa2866f334.html" target="_top">
<polygon fill="#eeeeff" stroke="#000000" points="144.2906,-208 144.2906,-404 404.2906,-404 404.2906,-208 144.2906,-208"/>
</a>
</g>
</g>
<!-- dir_732f729910dd598014f768fa2866f334 -->
<g id="node1" class="node">
<title>dir_732f729910dd598014f768fa2866f334</title>
<text text-anchor="middle" x="314.2906" y="-375.5" font-family="Helvetica,sans-Serif" font-size="10.00" fill="#000000">FT0</text>
</g>
<!-- dir_63da1bf9cbb165deb85abc813a5acde9 -->
<g id="node2" class="node">
<title>dir_63da1bf9cbb165deb85abc813a5acde9</title>
<g id="a_node2"><a xlink:href="dir_63da1bf9cbb165deb85abc813a5acde9.html" target="_top" xlink:title="base">
<polygon fill="#ffffff" stroke="#ff0000" points="396.2906,-252 342.2906,-252 342.2906,-216 396.2906,-216 396.2906,-252"/>
<text text-anchor="middle" x="369.2906" y="-231.5" font-family="Helvetica,sans-Serif" font-size="10.00" fill="#000000">base</text>
</a>
</g>
</g>
<!-- dir_e62a450b26de845460eb308fa2db0683 -->
<g id="node3" class="node">
<title>dir_e62a450b26de845460eb308fa2db0683</title>
<g id="a_node3"><a xlink:href="dir_e62a450b26de845460eb308fa2db0683.html" target="_top" xlink:title="raw">
<polygon fill="#ffffff" stroke="#ff0000" points="206.2906,-324 152.2906,-324 152.2906,-288 206.2906,-288 206.2906,-324"/>
<text text-anchor="middle" x="179.2906" y="-303.5" font-family="Helvetica,sans-Serif" font-size="10.00" fill="#000000">raw</text>
</a>
</g>
</g>
<!-- dir_2171f7ec022c5423887b07c69b2f5b48 -->
<g id="node12" class="node">
<title>dir_2171f7ec022c5423887b07c69b2f5b48</title>
<g id="a_node12"><a xlink:href="dir_2171f7ec022c5423887b07c69b2f5b48.html" target="_top" xlink:title="DataFormats">
<polygon fill="none" stroke="#ff0000" points="128.2906,-252 48.2906,-252 48.2906,-216 128.2906,-216 128.2906,-252"/>
<text text-anchor="middle" x="88.2906" y="-231.5" font-family="Helvetica,sans-Serif" font-size="10.00" fill="#000000">DataFormats</text>
</a>
</g>
</g>
<!-- dir_e62a450b26de845460eb308fa2db0683&#45;&gt;dir_2171f7ec022c5423887b07c69b2f5b48 -->
<g id="edge7" class="edge">
<title>dir_e62a450b26de845460eb308fa2db0683&#45;&gt;dir_2171f7ec022c5423887b07c69b2f5b48</title>
<path fill="none" stroke="#000000" d="M156.3275,-287.8314C145.1191,-278.9632 131.4697,-268.1637 119.3467,-258.5718"/>
<polygon fill="#000000" stroke="#000000" points="121.2604,-255.6229 111.2464,-252.1628 116.917,-261.1125 121.2604,-255.6229"/>
<g id="a_edge7&#45;headlabel"><a xlink:href="dir_000453_000077.html" target="_top" xlink:title="10">
<text text-anchor="middle" x="125.841" y="-253.1267" font-family="Helvetica,sans-Serif" font-size="10.00" fill="#000000">10</text>
</a>
</g>
</g>
<!-- dir_ca639a046a87a9287b3468a6ba2bbef1 -->
<g id="node4" class="node">
<title>dir_ca639a046a87a9287b3468a6ba2bbef1</title>
<g id="a_node4"><a xlink:href="dir_ca639a046a87a9287b3468a6ba2bbef1.html" target="_top" xlink:title="reconstruction">
<polygon fill="#ffffff" stroke="#ff0000" points="310.2906,-324 224.2906,-324 224.2906,-288 310.2906,-288 310.2906,-324"/>
<text text-anchor="middle" x="267.2906" y="-303.5" font-family="Helvetica,sans-Serif" font-size="10.00" fill="#000000">reconstruction</text>
</a>
</g>
</g>
<!-- dir_ca639a046a87a9287b3468a6ba2bbef1&#45;&gt;dir_63da1bf9cbb165deb85abc813a5acde9 -->
<g id="edge12" class="edge">
<title>dir_ca639a046a87a9287b3468a6ba2bbef1&#45;&gt;dir_63da1bf9cbb165deb85abc813a5acde9</title>
<path fill="none" stroke="#000000" d="M293.0295,-287.8314C305.8344,-278.7927 321.4815,-267.7476 335.2626,-258.0198"/>
<polygon fill="#000000" stroke="#000000" points="337.4087,-260.7891 343.56,-252.1628 333.3719,-255.0703 337.4087,-260.7891"/>
<g id="a_edge12&#45;headlabel"><a xlink:href="dir_000457_000336.html" target="_top" xlink:title="2">
<text text-anchor="middle" x="336.1094" y="-262.6816" font-family="Helvetica,sans-Serif" font-size="10.00" fill="#000000">2</text>
</a>
</g>
</g>
<!-- dir_4ab6b4cc6a7edbff49100e9123df213f -->
<g id="node7" class="node">
<title>dir_4ab6b4cc6a7edbff49100e9123df213f</title>
<g id="a_node7"><a xlink:href="dir_4ab6b4cc6a7edbff49100e9123df213f.html" target="_top" xlink:title="Common">
<polygon fill="none" stroke="#ff0000" points="101.7906,-108 40.7906,-108 40.7906,-72 101.7906,-72 101.7906,-108"/>
<text text-anchor="middle" x="71.2906" y="-87.5" font-family="Helvetica,sans-Serif" font-size="10.00" fill="#000000">Common</text>
</a>
</g>
</g>
<!-- dir_ca639a046a87a9287b3468a6ba2bbef1&#45;&gt;dir_4ab6b4cc6a7edbff49100e9123df213f -->
<g id="edge10" class="edge">
<title>dir_ca639a046a87a9287b3468a6ba2bbef1&#45;&gt;dir_4ab6b4cc6a7edbff49100e9123df213f</title>
<path fill="none" stroke="#000000" d="M264.0247,-287.794C256.9272,-250.0665 239.1308,-165.1058 219.2906,-144 191.1932,-114.1102 145.2179,-100.7083 111.9576,-94.7343"/>
<polygon fill="#000000" stroke="#000000" points="112.5131,-91.2787 102.0775,-93.1087 111.3766,-98.1858 112.5131,-91.2787"/>
<g id="a_edge10&#45;headlabel"><a xlink:href="dir_000457_000028.html" target="_top" xlink:title="3">
<text text-anchor="middle" x="116.5209" y="-86.5606" font-family="Helvetica,sans-Serif" font-size="10.00" fill="#000000">3</text>
</a>
</g>
</g>
<!-- dir_b05a5fa85f84bfc9013183c9d87f9a36 -->
<g id="node8" class="node">
<title>dir_b05a5fa85f84bfc9013183c9d87f9a36</title>
<g id="a_node8"><a xlink:href="dir_b05a5fa85f84bfc9013183c9d87f9a36.html" target="_top" xlink:title="Utilities">
<polygon fill="none" stroke="#ff0000" points="137.7906,-180 82.7906,-180 82.7906,-144 137.7906,-144 137.7906,-180"/>
<text text-anchor="middle" x="110.2906" y="-159.5" font-family="Helvetica,sans-Serif" font-size="10.00" fill="#000000">Utilities</text>
</a>
</g>
</g>
<!-- dir_ca639a046a87a9287b3468a6ba2bbef1&#45;&gt;dir_b05a5fa85f84bfc9013183c9d87f9a36 -->
<g id="edge11" class="edge">
<title>dir_ca639a046a87a9287b3468a6ba2bbef1&#45;&gt;dir_b05a5fa85f84bfc9013183c9d87f9a36</title>
<path fill="none" stroke="#000000" d="M235.8087,-287.9076C220.1638,-278.2157 201.4203,-265.5063 186.2906,-252 164.7258,-232.749 143.8048,-207.3183 129.3911,-188.4014"/>
<polygon fill="#000000" stroke="#000000" points="132.0489,-186.1119 123.2476,-180.2138 126.4498,-190.3131 132.0489,-186.1119"/>
<g id="a_edge11&#45;headlabel"><a xlink:href="dir_000457_000577.html" target="_top" xlink:title="1">
<text text-anchor="middle" x="136.4773" y="-184.783" font-family="Helvetica,sans-Serif" font-size="10.00" fill="#000000">1</text>
</a>
</g>
</g>
<!-- dir_bcbb2cf9a3d3d83e5515c82071a07177 -->
<g id="node10" class="node">
<title>dir_bcbb2cf9a3d3d83e5515c82071a07177</title>
<g id="a_node10"><a xlink:href="dir_bcbb2cf9a3d3d83e5515c82071a07177.html" target="_top" xlink:title="Framework">
<polygon fill="none" stroke="#ff0000" points="135.7906,-36 64.7906,-36 64.7906,0 135.7906,0 135.7906,-36"/>
<text text-anchor="middle" x="100.2906" y="-15.5" font-family="Helvetica,sans-Serif" font-size="10.00" fill="#000000">Framework</text>
</a>
</g>
</g>
<!-- dir_ca639a046a87a9287b3468a6ba2bbef1&#45;&gt;dir_bcbb2cf9a3d3d83e5515c82071a07177 -->
<g id="edge13" class="edge">
<title>dir_ca639a046a87a9287b3468a6ba2bbef1&#45;&gt;dir_bcbb2cf9a3d3d83e5515c82071a07177</title>
<path fill="none" stroke="#000000" d="M269.1101,-287.9026C271.3753,-255.9106 271.7759,-188.5463 241.2906,-144 212.7345,-102.2726 167.5017,-65.1467 135.9953,-42.1895"/>
<polygon fill="#000000" stroke="#000000" points="137.6647,-39.0798 127.4981,-36.098 133.5862,-44.769 137.6647,-39.0798"/>
<g id="a_edge13&#45;headlabel"><a xlink:href="dir_000457_000014.html" target="_top" xlink:title="2">
<text text-anchor="middle" x="142.2404" y="-36.3666" font-family="Helvetica,sans-Serif" font-size="10.00" fill="#000000">2</text>
</a>
</g>
</g>
<!-- dir_26637d1bd82229bc9ed97f7e706be743 -->
<g id="node11" class="node">
<title>dir_26637d1bd82229bc9ed97f7e706be743</title>
<g id="a_node11"><a xlink:href="dir_26637d1bd82229bc9ed97f7e706be743.html" target="_top" xlink:title="Raw">
<polygon fill="none" stroke="#ff0000" points="96.2906,-324 42.2906,-324 42.2906,-288 96.2906,-288 96.2906,-324"/>
<text text-anchor="middle" x="69.2906" y="-303.5" font-family="Helvetica,sans-Serif" font-size="10.00" fill="#000000">Raw</text>
</a>
</g>
</g>
<!-- dir_ca639a046a87a9287b3468a6ba2bbef1&#45;&gt;dir_26637d1bd82229bc9ed97f7e706be743 -->
<g id="edge14" class="edge">
<title>dir_ca639a046a87a9287b3468a6ba2bbef1&#45;&gt;dir_26637d1bd82229bc9ed97f7e706be743</title>
<path fill="none" stroke="#000000" d="M243.4233,-324.1041C232.6752,-331.1586 219.4582,-338.4042 206.2906,-342 181.8521,-348.6736 174.0599,-347.3163 149.2906,-342 134.432,-338.8108 119.0026,-332.6386 105.7047,-326.2932"/>
<polygon fill="#000000" stroke="#000000" points="106.9493,-323.0032 96.4371,-321.6824 103.8312,-329.2704 106.9493,-323.0032"/>
<g id="a_edge14&#45;headlabel"><a xlink:href="dir_000457_000581.html" target="_top" xlink:title="1">
<text text-anchor="middle" x="111.4323" y="-319.5623" font-family="Helvetica,sans-Serif" font-size="10.00" fill="#000000">1</text>
</a>
</g>
</g>
<!-- dir_ca639a046a87a9287b3468a6ba2bbef1&#45;&gt;dir_2171f7ec022c5423887b07c69b2f5b48 -->
<g id="edge15" class="edge">
<title>dir_ca639a046a87a9287b3468a6ba2bbef1&#45;&gt;dir_2171f7ec022c5423887b07c69b2f5b48</title>
<path fill="none" stroke="#000000" d="M223.9597,-288.5708C197.9517,-278.1095 164.7809,-264.767 137.7489,-253.8938"/>
<polygon fill="#000000" stroke="#000000" points="139.049,-250.6443 128.4652,-250.1596 136.4367,-257.1386 139.049,-250.6443"/>
<g id="a_edge15&#45;headlabel"><a xlink:href="dir_000457_000077.html" target="_top" xlink:title="26">
<text text-anchor="middle" x="143.4434" y="-246.8515" font-family="Helvetica,sans-Serif" font-size="10.00" fill="#000000">26</text>
</a>
</g>
</g>
<!-- dir_dde9e01e42e5df81e682067abb84b2d4 -->
<g id="node5" class="node">
<title>dir_dde9e01e42e5df81e682067abb84b2d4</title>
<g id="a_node5"><a xlink:href="dir_dde9e01e42e5df81e682067abb84b2d4.html" target="_top" xlink:title="simulation">
<polygon fill="#ffffff" stroke="#ff0000" points="396.2906,-324 328.2906,-324 328.2906,-288 396.2906,-288 396.2906,-324"/>
<text text-anchor="middle" x="362.2906" y="-303.5" font-family="Helvetica,sans-Serif" font-size="10.00" fill="#000000">simulation</text>
</a>
</g>
</g>
<!-- dir_dde9e01e42e5df81e682067abb84b2d4&#45;&gt;dir_63da1bf9cbb165deb85abc813a5acde9 -->
<g id="edge3" class="edge">
<title>dir_dde9e01e42e5df81e682067abb84b2d4&#45;&gt;dir_63da1bf9cbb165deb85abc813a5acde9</title>
<path fill="none" stroke="#000000" d="M364.057,-287.8314C364.8057,-280.131 365.6959,-270.9743 366.5279,-262.4166"/>
<polygon fill="#000000" stroke="#000000" points="370.0163,-262.7051 367.5005,-252.4133 363.0491,-262.0276 370.0163,-262.7051"/>
<g id="a_edge3&#45;headlabel"><a xlink:href="dir_000288_000336.html" target="_top" xlink:title="3">
<text text-anchor="middle" x="372.4945" y="-264.0575" font-family="Helvetica,sans-Serif" font-size="10.00" fill="#000000">3</text>
</a>
</g>
</g>
<!-- dir_dde9e01e42e5df81e682067abb84b2d4&#45;&gt;dir_4ab6b4cc6a7edbff49100e9123df213f -->
<g id="edge1" class="edge">
<title>dir_dde9e01e42e5df81e682067abb84b2d4&#45;&gt;dir_4ab6b4cc6a7edbff49100e9123df213f</title>
<path fill="none" stroke="#000000" d="M350.8325,-287.924C326.5045,-250.0389 269.6074,-164.1481 241.2906,-144 202.4799,-116.3851 148.9351,-102.46 112.3733,-95.7431"/>
<polygon fill="#000000" stroke="#000000" points="112.5237,-92.2171 102.0729,-93.9585 111.3286,-99.1144 112.5237,-92.2171"/>
<g id="a_edge1&#45;headlabel"><a xlink:href="dir_000288_000028.html" target="_top" xlink:title="6">
<text text-anchor="middle" x="116.5502" y="-87.5331" font-family="Helvetica,sans-Serif" font-size="10.00" fill="#000000">6</text>
</a>
</g>
</g>
<!-- dir_37c90836491b695b472bf98d1be8336b -->
<g id="node9" class="node">
<title>dir_37c90836491b695b472bf98d1be8336b</title>
<g id="a_node9"><a xlink:href="dir_37c90836491b695b472bf98d1be8336b.html" target="_top" xlink:title="Base">
<polygon fill="none" stroke="#ff0000" points="210.2906,-180 156.2906,-180 156.2906,-144 210.2906,-144 210.2906,-180"/>
<text text-anchor="middle" x="183.2906" y="-159.5" font-family="Helvetica,sans-Serif" font-size="10.00" fill="#000000">Base</text>
</a>
</g>
</g>
<!-- dir_dde9e01e42e5df81e682067abb84b2d4&#45;&gt;dir_37c90836491b695b472bf98d1be8336b -->
<g id="edge2" class="edge">
<title>dir_dde9e01e42e5df81e682067abb84b2d4&#45;&gt;dir_37c90836491b695b472bf98d1be8336b</title>
<path fill="none" stroke="#000000" d="M339.6202,-287.7623C307.7442,-262.119 249.5917,-215.3372 213.9023,-186.6262"/>
<polygon fill="#000000" stroke="#000000" points="215.7626,-183.6307 205.777,-180.0896 211.3749,-189.0849 215.7626,-183.6307"/>
<g id="a_edge2&#45;headlabel"><a xlink:href="dir_000288_000275.html" target="_top" xlink:title="1">
<text text-anchor="middle" x="220.3431" y="-181.1716" font-family="Helvetica,sans-Serif" font-size="10.00" fill="#000000">1</text>
</a>
</g>
</g>
<!-- dir_dde9e01e42e5df81e682067abb84b2d4&#45;&gt;dir_bcbb2cf9a3d3d83e5515c82071a07177 -->
<g id="edge4" class="edge">
<title>dir_dde9e01e42e5df81e682067abb84b2d4&#45;&gt;dir_bcbb2cf9a3d3d83e5515c82071a07177</title>
<path fill="none" stroke="#000000" d="M381.7863,-287.9663C390.801,-278.2894 400.5458,-265.5757 405.2906,-252 412.9159,-230.1831 416.3626,-220.2863 405.2906,-200 350.8788,-100.3055 216.8739,-49.8537 145.9777,-29.3942"/>
<polygon fill="#000000" stroke="#000000" points="146.5664,-25.9242 135.9925,-26.5909 144.6742,-32.6636 146.5664,-25.9242"/>
<g id="a_edge4&#45;headlabel"><a xlink:href="dir_000288_000014.html" target="_top" xlink:title="2">
<text text-anchor="middle" x="150.7946" y="-21.6621" font-family="Helvetica,sans-Serif" font-size="10.00" fill="#000000">2</text>
</a>
</g>
</g>
<!-- dir_dde9e01e42e5df81e682067abb84b2d4&#45;&gt;dir_26637d1bd82229bc9ed97f7e706be743 -->
<g id="edge5" class="edge">
<title>dir_dde9e01e42e5df81e682067abb84b2d4&#45;&gt;dir_26637d1bd82229bc9ed97f7e706be743</title>
<path fill="none" stroke="#000000" d="M342.0918,-324.2578C333.0415,-331.2455 321.8194,-338.3987 310.2906,-342 241.9899,-363.3355 219.2528,-357.0163 149.2906,-342 134.432,-338.8108 119.0026,-332.6386 105.7047,-326.2932"/>
<polygon fill="#000000" stroke="#000000" points="106.9493,-323.0032 96.4371,-321.6824 103.8312,-329.2704 106.9493,-323.0032"/>
<g id="a_edge5&#45;headlabel"><a xlink:href="dir_000288_000581.html" target="_top" xlink:title="5">
<text text-anchor="middle" x="111.4323" y="-319.5623" font-family="Helvetica,sans-Serif" font-size="10.00" fill="#000000">5</text>
</a>
</g>
</g>
<!-- dir_dde9e01e42e5df81e682067abb84b2d4&#45;&gt;dir_2171f7ec022c5423887b07c69b2f5b48 -->
<g id="edge6" class="edge">
<title>dir_dde9e01e42e5df81e682067abb84b2d4&#45;&gt;dir_2171f7ec022c5423887b07c69b2f5b48</title>
<path fill="none" stroke="#000000" d="M328.2482,-291.0329C325.2457,-289.9317 322.2309,-288.9013 319.2906,-288 241.7057,-264.2163 218.5882,-273.3207 140.2906,-252 139.5647,-251.8023 138.8343,-251.5998 138.1003,-251.3929"/>
<polygon fill="#000000" stroke="#000000" points="139.0188,-248.0144 128.4349,-248.4955 137.0088,-254.7196 139.0188,-248.0144"/>
<g id="a_edge6&#45;headlabel"><a xlink:href="dir_000288_000077.html" target="_top" xlink:title="26">
<text text-anchor="middle" x="143.2773" y="-243.8268" font-family="Helvetica,sans-Serif" font-size="10.00" fill="#000000">26</text>
</a>
</g>
</g>
<!-- dir_db2620e5be5f5f7bc69e8ed28a3729c7 -->
<g id="node6" class="node">
<title>dir_db2620e5be5f5f7bc69e8ed28a3729c7</title>
<g id="a_node6"><a xlink:href="dir_db2620e5be5f5f7bc69e8ed28a3729c7.html" target="_top" xlink:title="workflow">
<polygon fill="#ffffff" stroke="#ff0000" points="213.7906,-396 152.7906,-396 152.7906,-360 213.7906,-360 213.7906,-396"/>
<text text-anchor="middle" x="183.2906" y="-375.5" font-family="Helvetica,sans-Serif" font-size="10.00" fill="#000000">workflow</text>
</a>
</g>
</g>
<!-- dir_db2620e5be5f5f7bc69e8ed28a3729c7&#45;&gt;dir_e62a450b26de845460eb308fa2db0683 -->
<g id="edge24" class="edge">
<title>dir_db2620e5be5f5f7bc69e8ed28a3729c7&#45;&gt;dir_e62a450b26de845460eb308fa2db0683</title>
<path fill="none" stroke="#000000" d="M182.2813,-359.8314C181.8535,-352.131 181.3448,-342.9743 180.8693,-334.4166"/>
<polygon fill="#000000" stroke="#000000" points="184.363,-334.2037 180.3136,-324.4133 177.3738,-334.592 184.363,-334.2037"/>
<g id="a_edge24&#45;headlabel"><a xlink:href="dir_000396_000453.html" target="_top" xlink:title="3">
<text text-anchor="middle" x="187.3972" y="-335.1353" font-family="Helvetica,sans-Serif" font-size="10.00" fill="#000000">3</text>
</a>
</g>
</g>
<!-- dir_db2620e5be5f5f7bc69e8ed28a3729c7&#45;&gt;dir_ca639a046a87a9287b3468a6ba2bbef1 -->
<g id="edge26" class="edge">
<title>dir_db2620e5be5f5f7bc69e8ed28a3729c7&#45;&gt;dir_ca639a046a87a9287b3468a6ba2bbef1</title>
<path fill="none" stroke="#000000" d="M204.4874,-359.8314C214.7341,-351.0485 227.1909,-340.3712 238.3003,-330.8489"/>
<polygon fill="#000000" stroke="#000000" points="240.7859,-333.3282 246.1007,-324.1628 236.2303,-328.0134 240.7859,-333.3282"/>
<g id="a_edge26&#45;headlabel"><a xlink:href="dir_000396_000457.html" target="_top" xlink:title="3">
<text text-anchor="middle" x="239.9044" y="-335.3232" font-family="Helvetica,sans-Serif" font-size="10.00" fill="#000000">3</text>
</a>
</g>
</g>
<!-- dir_db2620e5be5f5f7bc69e8ed28a3729c7&#45;&gt;dir_4ab6b4cc6a7edbff49100e9123df213f -->
<g id="edge25" class="edge">
<title>dir_db2620e5be5f5f7bc69e8ed28a3729c7&#45;&gt;dir_4ab6b4cc6a7edbff49100e9123df213f</title>
<path fill="none" stroke="#000000" d="M152.6844,-371.2561C113.1145,-361.8551 47.5712,-343.7307 33.2906,-324 -13.6177,-259.1895 9.3917,-219.697 35.2906,-144 38.5933,-134.3471 44.0633,-124.7671 49.7544,-116.416"/>
<polygon fill="#000000" stroke="#000000" points="52.6659,-118.3626 55.6836,-108.2066 46.9912,-114.2641 52.6659,-118.3626"/>
<g id="a_edge25&#45;headlabel"><a xlink:href="dir_000396_000028.html" target="_top" xlink:title="4">
<text text-anchor="middle" x="52.863" y="-120.4391" font-family="Helvetica,sans-Serif" font-size="10.00" fill="#000000">4</text>
</a>
</g>
</g>
<!-- dir_db2620e5be5f5f7bc69e8ed28a3729c7&#45;&gt;dir_bcbb2cf9a3d3d83e5515c82071a07177 -->
<g id="edge27" class="edge">
<title>dir_db2620e5be5f5f7bc69e8ed28a3729c7&#45;&gt;dir_bcbb2cf9a3d3d83e5515c82071a07177</title>
<path fill="none" stroke="#000000" d="M214.1825,-371.8258C271.4582,-360.184 389.7411,-335.1578 405.2906,-324 443.759,-296.3964 462.2906,-281.3474 462.2906,-234 462.2906,-234 462.2906,-234 462.2906,-162 462.2906,-94.6333 243.1064,-44.917 145.8442,-26.1718"/>
<polygon fill="#000000" stroke="#000000" points="146.4691,-22.728 135.9913,-24.2987 145.1616,-29.6048 146.4691,-22.728"/>
<g id="a_edge27&#45;headlabel"><a xlink:href="dir_000396_000014.html" target="_top" xlink:title="52">
<text text-anchor="middle" x="150.5307" y="-18.11" font-family="Helvetica,sans-Serif" font-size="10.00" fill="#000000">52</text>
</a>
</g>
</g>
<!-- dir_db2620e5be5f5f7bc69e8ed28a3729c7&#45;&gt;dir_2171f7ec022c5423887b07c69b2f5b48 -->
<g id="edge28" class="edge">
<title>dir_db2620e5be5f5f7bc69e8ed28a3729c7&#45;&gt;dir_2171f7ec022c5423887b07c69b2f5b48</title>
<path fill="none" stroke="#000000" d="M169.1779,-359.7977C161.3248,-349.4619 151.5065,-336.1901 143.2906,-324 129.3465,-303.3108 114.6657,-279.1504 103.9822,-261.0743"/>
<polygon fill="#000000" stroke="#000000" points="106.8678,-259.0764 98.7849,-252.2268 100.8322,-262.622 106.8678,-259.0764"/>
<g id="a_edge28&#45;headlabel"><a xlink:href="dir_000396_000077.html" target="_top" xlink:title="15">
<text text-anchor="middle" x="111.1366" y="-258.2377" font-family="Helvetica,sans-Serif" font-size="10.00" fill="#000000">15</text>
</a>
</g>
</g>
<!-- dir_4ab6b4cc6a7edbff49100e9123df213f&#45;&gt;dir_bcbb2cf9a3d3d83e5515c82071a07177 -->
<g id="edge8" class="edge">
<title>dir_4ab6b4cc6a7edbff49100e9123df213f&#45;&gt;dir_bcbb2cf9a3d3d83e5515c82071a07177</title>
<path fill="none" stroke="#000000" d="M72.6562,-71.8314C75.0848,-63.8771 78.7043,-54.369 82.6023,-45.5723"/>
<polygon fill="#000000" stroke="#000000" points="85.8204,-46.9532 86.8982,-36.4133 79.4829,-43.9806 85.8204,-46.9532"/>
<g id="a_edge8&#45;headlabel"><a xlink:href="dir_000028_000014.html" target="_top" xlink:title="2">
<text text-anchor="middle" x="86.8646" y="-48.9132" font-family="Helvetica,sans-Serif" font-size="10.00" fill="#000000">2</text>
</a>
</g>
</g>
<!-- dir_4ab6b4cc6a7edbff49100e9123df213f&#45;&gt;dir_2171f7ec022c5423887b07c69b2f5b48 -->
<g id="edge9" class="edge">
<title>dir_4ab6b4cc6a7edbff49100e9123df213f&#45;&gt;dir_2171f7ec022c5423887b07c69b2f5b48</title>
<path fill="none" stroke="#000000" d="M77.1853,-108.0402C78.7701,-126.2902 78.6383,-155.262 82.2906,-180 83.5497,-188.5277 85.7338,-197.6203 87.6788,-205.8655"/>
<polygon fill="#000000" stroke="#000000" points="84.2962,-206.7753 89.9271,-215.7499 91.1219,-205.2227 84.2962,-206.7753"/>
<g id="a_edge9&#45;headlabel"><a xlink:href="dir_000028_000077.html" target="_top" xlink:title="2">
<text text-anchor="middle" x="80.7305" y="-201.3999" font-family="Helvetica,sans-Serif" font-size="10.00" fill="#000000">2</text>
</a>
</g>
</g>
<!-- dir_b05a5fa85f84bfc9013183c9d87f9a36&#45;&gt;dir_4ab6b4cc6a7edbff49100e9123df213f -->
<g id="edge16" class="edge">
<title>dir_b05a5fa85f84bfc9013183c9d87f9a36&#45;&gt;dir_4ab6b4cc6a7edbff49100e9123df213f</title>
<path fill="none" stroke="#000000" d="M100.4493,-143.8314C96.0949,-135.7925 90.8809,-126.1666 86.0737,-117.2918"/>
<polygon fill="#000000" stroke="#000000" points="89.1049,-115.5392 81.2645,-108.4133 82.9498,-118.8732 89.1049,-115.5392"/>
<g id="a_edge16&#45;headlabel"><a xlink:href="dir_000577_000028.html" target="_top" xlink:title="1">
<text text-anchor="middle" x="93.3135" y="-114.8476" font-family="Helvetica,sans-Serif" font-size="10.00" fill="#000000">1</text>
</a>
</g>
</g>
<!-- dir_b05a5fa85f84bfc9013183c9d87f9a36&#45;&gt;dir_bcbb2cf9a3d3d83e5515c82071a07177 -->
<g id="edge17" class="edge">
<title>dir_b05a5fa85f84bfc9013183c9d87f9a36&#45;&gt;dir_bcbb2cf9a3d3d83e5515c82071a07177</title>
<path fill="none" stroke="#000000" d="M111.269,-143.6837C112.0119,-125.4662 112.562,-96.7397 110.2906,-72 109.5184,-63.5885 108.083,-54.5317 106.5359,-46.2836"/>
<polygon fill="#000000" stroke="#000000" points="109.9484,-45.499 104.5581,-36.3779 103.0839,-46.8697 109.9484,-45.499"/>
<g id="a_edge17&#45;headlabel"><a xlink:href="dir_000577_000014.html" target="_top" xlink:title="33">
<text text-anchor="middle" x="113.4365" y="-45.9682" font-family="Helvetica,sans-Serif" font-size="10.00" fill="#000000">33</text>
</a>
</g>
</g>
<!-- dir_b05a5fa85f84bfc9013183c9d87f9a36&#45;&gt;dir_2171f7ec022c5423887b07c69b2f5b48 -->
<g id="edge18" class="edge">
<title>dir_b05a5fa85f84bfc9013183c9d87f9a36&#45;&gt;dir_2171f7ec022c5423887b07c69b2f5b48</title>
<path fill="none" stroke="#000000" d="M110.6404,-180.4133C108.9817,-188.3141 106.3122,-197.7132 103.3021,-206.417"/>
<polygon fill="#000000" stroke="#000000" points="100.0061,-205.2386 99.7946,-215.8314 106.5656,-207.6825 100.0061,-205.2386"/>
<g id="a_edge18&#45;headlabel"><a xlink:href="dir_000577_000077.html" target="_top" xlink:title="48">
<text text-anchor="middle" x="98.6004" y="-198.379" font-family="Helvetica,sans-Serif" font-size="10.00" fill="#000000">48</text>
</a>
</g>
</g>
<!-- dir_37c90836491b695b472bf98d1be8336b&#45;&gt;dir_4ab6b4cc6a7edbff49100e9123df213f -->
<g id="edge19" class="edge">
<title>dir_37c90836491b695b472bf98d1be8336b&#45;&gt;dir_4ab6b4cc6a7edbff49100e9123df213f</title>
<path fill="none" stroke="#000000" d="M156.1786,-144.5708C141.6486,-135.2301 123.5455,-123.5924 107.794,-113.4664"/>
<polygon fill="#000000" stroke="#000000" points="109.6271,-110.4841 99.3227,-108.0206 105.8418,-116.3723 109.6271,-110.4841"/>
<g id="a_edge19&#45;headlabel"><a xlink:href="dir_000275_000028.html" target="_top" xlink:title="16">
<text text-anchor="middle" x="114.1862" y="-107.5395" font-family="Helvetica,sans-Serif" font-size="10.00" fill="#000000">16</text>
</a>
</g>
</g>
<!-- dir_37c90836491b695b472bf98d1be8336b&#45;&gt;dir_bcbb2cf9a3d3d83e5515c82071a07177 -->
<g id="edge20" class="edge">
<title>dir_37c90836491b695b472bf98d1be8336b&#45;&gt;dir_bcbb2cf9a3d3d83e5515c82071a07177</title>
<path fill="none" stroke="#000000" d="M172.7786,-143.7623C158.3723,-118.7682 132.3911,-73.6924 115.7614,-44.8409"/>
<polygon fill="#000000" stroke="#000000" points="118.7434,-43.0057 110.7173,-36.0896 112.6787,-46.5013 118.7434,-43.0057"/>
<g id="a_edge20&#45;headlabel"><a xlink:href="dir_000275_000014.html" target="_top" xlink:title="1">
<text text-anchor="middle" x="122.9984" y="-42.2021" font-family="Helvetica,sans-Serif" font-size="10.00" fill="#000000">1</text>
</a>
</g>
</g>
<!-- dir_37c90836491b695b472bf98d1be8336b&#45;&gt;dir_2171f7ec022c5423887b07c69b2f5b48 -->
<g id="edge21" class="edge">
<title>dir_37c90836491b695b472bf98d1be8336b&#45;&gt;dir_2171f7ec022c5423887b07c69b2f5b48</title>
<path fill="none" stroke="#000000" d="M165.2776,-180.1628C154.2339,-189.2007 139.8123,-200.2456 126.3983,-209.9739"/>
<polygon fill="#000000" stroke="#000000" points="124.3097,-207.1646 118.2155,-215.8314 128.3842,-212.8566 124.3097,-207.1646"/>
<g id="a_edge21&#45;headlabel"><a xlink:href="dir_000275_000077.html" target="_top" xlink:title="12">
<text text-anchor="middle" x="125.58" y="-200.2636" font-family="Helvetica,sans-Serif" font-size="10.00" fill="#000000">12</text>
</a>
</g>
</g>
<!-- dir_bcbb2cf9a3d3d83e5515c82071a07177&#45;&gt;dir_4ab6b4cc6a7edbff49100e9123df213f -->
<g id="edge22" class="edge">
<title>dir_bcbb2cf9a3d3d83e5515c82071a07177&#45;&gt;dir_4ab6b4cc6a7edbff49100e9123df213f</title>
<path fill="none" stroke="#000000" d="M98.8502,-36.4133C96.3973,-44.3991 92.7629,-53.9155 88.8593,-62.6975"/>
<polygon fill="#000000" stroke="#000000" points="85.6521,-61.2929 84.561,-71.8314 91.9859,-64.2735 85.6521,-61.2929"/>
<g id="a_edge22&#45;headlabel"><a xlink:href="dir_000014_000028.html" target="_top" xlink:title="8">
<text text-anchor="middle" x="84.6136" y="-54.3315" font-family="Helvetica,sans-Serif" font-size="10.00" fill="#000000">8</text>
</a>
</g>
</g>
<!-- dir_bcbb2cf9a3d3d83e5515c82071a07177&#45;&gt;dir_2171f7ec022c5423887b07c69b2f5b48 -->
<g id="edge23" class="edge">
<title>dir_bcbb2cf9a3d3d83e5515c82071a07177&#45;&gt;dir_2171f7ec022c5423887b07c69b2f5b48</title>
<path fill="none" stroke="#000000" d="M73.6545,-36.2233C61.14,-45.0923 47.553,-57.0945 40.2906,-72 17.9688,-117.8144 50.8667,-174.6709 72.517,-207.3992"/>
<polygon fill="#000000" stroke="#000000" points="69.7877,-209.6129 78.27,-215.9612 75.598,-205.7089 69.7877,-209.6129"/>
<g id="a_edge23&#45;headlabel"><a xlink:href="dir_000014_000077.html" target="_top" xlink:title="82">
<text text-anchor="middle" x="65.4263" y="-205.7128" font-family="Helvetica,sans-Serif" font-size="10.00" fill="#000000">82</text>
</a>
</g>
</g>
<!-- dir_26637d1bd82229bc9ed97f7e706be743&#45;&gt;dir_4ab6b4cc6a7edbff49100e9123df213f -->
<g id="edge29" class="edge">
<title>dir_26637d1bd82229bc9ed97f7e706be743&#45;&gt;dir_4ab6b4cc6a7edbff49100e9123df213f</title>
<path fill="none" stroke="#000000" d="M55.9344,-287.5137C49.5399,-277.5235 42.5727,-264.6657 39.2906,-252 27.1689,-205.2208 44.8839,-149.8093 58.3992,-117.4146"/>
<polygon fill="#000000" stroke="#000000" points="61.6557,-118.7022 62.4211,-108.1351 55.233,-115.9185 61.6557,-118.7022"/>
<g id="a_edge29&#45;headlabel"><a xlink:href="dir_000581_000028.html" target="_top" xlink:title="10">
<text text-anchor="middle" x="62.8314" y="-120.6294" font-family="Helvetica,sans-Serif" font-size="10.00" fill="#000000">10</text>
</a>
</g>
</g>
<!-- dir_26637d1bd82229bc9ed97f7e706be743&#45;&gt;dir_bcbb2cf9a3d3d83e5515c82071a07177 -->
<g id="edge30" class="edge">
<title>dir_26637d1bd82229bc9ed97f7e706be743&#45;&gt;dir_bcbb2cf9a3d3d83e5515c82071a07177</title>
<path fill="none" stroke="#000000" d="M52.8405,-287.9222C44.8687,-278.0438 36.0169,-265.1628 31.2906,-252 4.2052,-176.566 -17.3252,-142.7739 20.2906,-72 28.0321,-57.4345 41.6486,-46.0862 55.4773,-37.6346"/>
<polygon fill="#000000" stroke="#000000" points="57.566,-40.4737 64.5358,-32.4942 54.1112,-34.3856 57.566,-40.4737"/>
<g id="a_edge30&#45;headlabel"><a xlink:href="dir_000581_000014.html" target="_top" xlink:title="25">
<text text-anchor="middle" x="55.8409" y="-42.2171" font-family="Helvetica,sans-Serif" font-size="10.00" fill="#000000">25</text>
</a>
</g>
</g>
<!-- dir_26637d1bd82229bc9ed97f7e706be743&#45;&gt;dir_2171f7ec022c5423887b07c69b2f5b48 -->
<g id="edge31" class="edge">
<title>dir_26637d1bd82229bc9ed97f7e706be743&#45;&gt;dir_2171f7ec022c5423887b07c69b2f5b48</title>
<path fill="none" stroke="#000000" d="M74.0851,-287.8314C76.1395,-280.0463 78.5867,-270.7729 80.8662,-262.1347"/>
<polygon fill="#000000" stroke="#000000" points="84.2641,-262.9753 83.4316,-252.4133 77.4958,-261.1892 84.2641,-262.9753"/>
<g id="a_edge31&#45;headlabel"><a xlink:href="dir_000581_000077.html" target="_top" xlink:title="15">
<text text-anchor="middle" x="86.0923" y="-264.6754" font-family="Helvetica,sans-Serif" font-size="10.00" fill="#000000">15</text>
</a>
</g>
</g>
<!-- dir_2171f7ec022c5423887b07c69b2f5b48&#45;&gt;dir_63da1bf9cbb165deb85abc813a5acde9 -->
<g id="edge35" class="edge">
<title>dir_2171f7ec022c5423887b07c69b2f5b48&#45;&gt;dir_63da1bf9cbb165deb85abc813a5acde9</title>
<path fill="none" stroke="#000000" d="M128.3551,-234C196.231,-234 264.1068,-234 331.9827,-234"/>
<polygon fill="#000000" stroke="#000000" points="331.9972,-237.5001 341.9972,-234 331.9971,-230.5001 331.9972,-237.5001"/>
<g id="a_edge35&#45;headlabel"><a xlink:href="dir_000077_000336.html" target="_top" xlink:title="1">
<text text-anchor="middle" x="328.4025" y="-237.8393" font-family="Helvetica,sans-Serif" font-size="10.00" fill="#000000">1</text>
</a>
</g>
</g>
<!-- dir_2171f7ec022c5423887b07c69b2f5b48&#45;&gt;dir_4ab6b4cc6a7edbff49100e9123df213f -->
<g id="edge32" class="edge">
<title>dir_2171f7ec022c5423887b07c69b2f5b48&#45;&gt;dir_4ab6b4cc6a7edbff49100e9123df213f</title>
<path fill="none" stroke="#000000" d="M74.0732,-215.7499C69.743,-205.3992 66.0813,-192.1283 64.2906,-180 61.2518,-159.4172 60.8326,-135.9035 62.3959,-118.0731"/>
<polygon fill="#000000" stroke="#000000" points="65.8837,-118.3815 63.5799,-108.0402 58.932,-117.5611 65.8837,-118.3815"/>
<g id="a_edge32&#45;headlabel"><a xlink:href="dir_000077_000028.html" target="_top" xlink:title="35">
<text text-anchor="middle" x="68.2823" y="-119.7841" font-family="Helvetica,sans-Serif" font-size="10.00" fill="#000000">35</text>
</a>
</g>
</g>
<!-- dir_2171f7ec022c5423887b07c69b2f5b48&#45;&gt;dir_b05a5fa85f84bfc9013183c9d87f9a36 -->
<g id="edge33" class="edge">
<title>dir_2171f7ec022c5423887b07c69b2f5b48&#45;&gt;dir_b05a5fa85f84bfc9013183c9d87f9a36</title>
<path fill="none" stroke="#000000" d="M87.8898,-215.8314C89.5275,-207.9617 92.1829,-198.5712 95.1859,-189.8533"/>
<polygon fill="#000000" stroke="#000000" points="98.4912,-191.0063 98.6884,-180.4133 91.9284,-188.5713 98.4912,-191.0063"/>
<g id="a_edge33&#45;headlabel"><a xlink:href="dir_000077_000577.html" target="_top" xlink:title="1">
<text text-anchor="middle" x="99.9029" y="-192.864" font-family="Helvetica,sans-Serif" font-size="10.00" fill="#000000">1</text>
</a>
</g>
</g>
<!-- dir_2171f7ec022c5423887b07c69b2f5b48&#45;&gt;dir_37c90836491b695b472bf98d1be8336b -->
<g id="edge34" class="edge">
<title>dir_2171f7ec022c5423887b07c69b2f5b48&#45;&gt;dir_37c90836491b695b472bf98d1be8336b</title>
<path fill="none" stroke="#000000" d="M106.3108,-215.8314C118.0305,-206.2407 133.5521,-194.3911 147.6368,-184.2531"/>
<polygon fill="#000000" stroke="#000000" points="150.0425,-186.8378 156.174,-178.1975 145.9926,-181.1283 150.0425,-186.8378"/>
<g id="a_edge34&#45;headlabel"><a xlink:href="dir_000077_000275.html" target="_top" xlink:title="1">
<text text-anchor="middle" x="148.7533" y="-188.7333" font-family="Helvetica,sans-Serif" font-size="10.00" fill="#000000">1</text>
</a>
</g>
</g>
<!-- dir_2171f7ec022c5423887b07c69b2f5b48&#45;&gt;dir_bcbb2cf9a3d3d83e5515c82071a07177 -->
<g id="edge36" class="edge">
<title>dir_2171f7ec022c5423887b07c69b2f5b48&#45;&gt;dir_bcbb2cf9a3d3d83e5515c82071a07177</title>
<path fill="none" stroke="#000000" d="M67.2858,-215.9612C39.5408,-185.4594 -2.1299,-122.1217 22.2906,-72 29.3411,-57.5293 42.3526,-45.795 55.8281,-37.0075"/>
<polygon fill="#000000" stroke="#000000" points="57.9382,-39.8221 64.6923,-31.6592 54.3219,-33.8285 57.9382,-39.8221"/>
<g id="a_edge36&#45;headlabel"><a xlink:href="dir_000077_000014.html" target="_top" xlink:title="12">
<text text-anchor="middle" x="56.3272" y="-41.6101" font-family="Helvetica,sans-Serif" font-size="10.00" fill="#000000">12</text>
</a>
</g>
</g>
</g>
</svg>
