<?xml version="1.0" encoding="UTF-8" standalone="no"?>
<!DOCTYPE svg PUBLIC "-//W3C//DTD SVG 1.1//EN"
 "http://www.w3.org/Graphics/SVG/1.1/DTD/svg11.dtd">
<!-- Generated by graphviz version 2.40.1 (20161225.0304)
 -->
<!-- Title: /home/travis/build/AliceO2Group/AliceO2/DataFormats/Detectors/TRD/include Pages: 1 -->
<svg width="292pt" height="177pt"
 viewBox="0.00 0.00 292.00 177.08" xmlns="http://www.w3.org/2000/svg" xmlns:xlink="http://www.w3.org/1999/xlink">
<g id="graph0" class="graph" transform="scale(1 1) rotate(0) translate(4 173.0761)">
<title>/home/travis/build/AliceO2Group/AliceO2/DataFormats/Detectors/TRD/include</title>
<g id="clust1" class="cluster">
<title>clusterdir_bb194ed89d4d31aa97da8e5c0af864ff</title>
<g id="a_clust1"><a xlink:href="dir_bb194ed89d4d31aa97da8e5c0af864ff.html" target="_top" xlink:title="TRD">
<polygon fill="#ddddee" stroke="#000000" points="8,-56 8,-143 212,-143 212,-56 8,-56"/>
<text text-anchor="middle" x="110" y="-131" font-family="Helvetica,sans-Serif" font-size="10.00" fill="#000000">TRD</text>
</a>
</g>
</g>
<g id="clust2" class="cluster">
<title>clusterdir_37cb16e5a1a76e7ae4faac09696b430a</title>
<g id="a_clust2"><a xlink:href="dir_37cb16e5a1a76e7ae4faac09696b430a.html" target="_top">
<polygon fill="#eeeeff" stroke="#000000" points="16,-64 16,-116 204,-116 204,-64 16,-64"/>
</a>
</g>
</g>
<!-- dir_37cb16e5a1a76e7ae4faac09696b430a -->
<g id="node1" class="node">
<title>dir_37cb16e5a1a76e7ae4faac09696b430a</title>
<text text-anchor="middle" x="169" y="-87.5" font-family="Helvetica,sans-Serif" font-size="10.00" fill="#000000">include</text>
</g>
<!-- dir_749c95cc3e4629ce3f5eb7a24ed74759 -->
<g id="node2" class="node">
<title>dir_749c95cc3e4629ce3f5eb7a24ed74759</title>
<g id="a_node2"><a xlink:href="dir_749c95cc3e4629ce3f5eb7a24ed74759.html" target="_top" xlink:title="DataFormatsTRD">
<polygon fill="#ffffff" stroke="#000000" points="124,-108 24,-108 24,-72 124,-72 124,-108"/>
<text text-anchor="middle" x="74" y="-87.5" font-family="Helvetica,sans-Serif" font-size="10.00" fill="#000000">DataFormatsTRD</text>
</a>
</g>
</g>
<!-- dir_051dca18e802f8e9474f2e30d29c04e0 -->
<g id="node3" class="node">
<title>dir_051dca18e802f8e9474f2e30d29c04e0</title>
<g id="a_node3"><a xlink:href="dir_051dca18e802f8e9474f2e30d29c04e0.html" target="_top" xlink:title="Detectors">
<polygon fill="none" stroke="#ff0000" points="284,-108 220,-108 220,-72 284,-72 284,-108"/>
<text text-anchor="middle" x="252" y="-87.5" font-family="Helvetica,sans-Serif" font-size="10.00" fill="#000000">Detectors</text>
</a>
</g>
</g>
<!-- dir_749c95cc3e4629ce3f5eb7a24ed74759&#45;&gt;dir_051dca18e802f8e9474f2e30d29c04e0 -->
<g id="edge3" class="edge">
<title>dir_749c95cc3e4629ce3f5eb7a24ed74759&#45;&gt;dir_051dca18e802f8e9474f2e30d29c04e0</title>
<path fill="none" stroke="#000000" d="M85.14,-108.2664C96.8546,-125.5366 117.0414,-150.3449 142,-161 165.299,-170.9466 176.354,-172.355 199,-161 217.2761,-151.8362 230.8613,-133.0489 239.7001,-117.1014"/>
<polygon fill="#000000" stroke="#000000" points="242.8542,-118.622 244.3553,-108.1341 236.6414,-115.3968 242.8542,-118.622"/>
<g id="a_edge3&#45;headlabel"><a xlink:href="dir_000147_000040.html" target="_top" xlink:title="1">
<text text-anchor="middle" x="243.718" y="-120.6205" font-family="Helvetica,sans-Serif" font-size="10.00" fill="#000000">1</text>
</a>
</g>
</g>
<!-- dir_7924ba4398ae4560cd37376e44666c6d -->
<g id="node4" class="node">
<title>dir_7924ba4398ae4560cd37376e44666c6d</title>
<g id="a_node4"><a xlink:href="dir_7924ba4398ae4560cd37376e44666c6d.html" target="_top" xlink:title="common">
<polygon fill="none" stroke="#ff0000" points="192.5,-36 133.5,-36 133.5,0 192.5,0 192.5,-36"/>
<text text-anchor="middle" x="163" y="-15.5" font-family="Helvetica,sans-Serif" font-size="10.00" fill="#000000">common</text>
</a>
</g>
</g>
<!-- dir_749c95cc3e4629ce3f5eb7a24ed74759&#45;&gt;dir_7924ba4398ae4560cd37376e44666c6d -->
<g id="edge4" class="edge">
<title>dir_749c95cc3e4629ce3f5eb7a24ed74759&#45;&gt;dir_7924ba4398ae4560cd37376e44666c6d</title>
<path fill="none" stroke="#000000" d="M96.4585,-71.8314C107.4205,-62.9632 120.7699,-52.1637 132.6265,-42.5718"/>
<polygon fill="#000000" stroke="#000000" points="134.9755,-45.1734 140.5487,-36.1628 130.5729,-39.7313 134.9755,-45.1734"/>
<g id="a_edge4&#45;headlabel"><a xlink:href="dir_000147_000078.html" target="_top" xlink:title="2">
<text text-anchor="middle" x="133.9667" y="-47.1416" font-family="Helvetica,sans-Serif" font-size="10.00" fill="#000000">2</text>
</a>
</g>
</g>
<!-- dir_051dca18e802f8e9474f2e30d29c04e0&#45;&gt;dir_749c95cc3e4629ce3f5eb7a24ed74759 -->
<g id="edge1" class="edge">
<title>dir_051dca18e802f8e9474f2e30d29c04e0&#45;&gt;dir_749c95cc3e4629ce3f5eb7a24ed74759</title>
<path fill="none" stroke="#000000" d="M244.3553,-108.1341C236.0132,-125.3038 220.863,-150.0377 199,-161 176.354,-172.355 165.299,-170.9466 142,-161 120.9412,-152.0097 103.2794,-132.9437 91.2376,-116.8312"/>
<polygon fill="#000000" stroke="#000000" points="93.791,-114.3829 85.14,-108.2664 88.0885,-118.4427 93.791,-114.3829"/>
<g id="a_edge1&#45;headlabel"><a xlink:href="dir_000040_000147.html" target="_top" xlink:title="9">
<text text-anchor="middle" x="98.1887" y="-113.1645" font-family="Helvetica,sans-Serif" font-size="10.00" fill="#000000">9</text>
</a>
</g>
</g>
<!-- dir_051dca18e802f8e9474f2e30d29c04e0&#45;&gt;dir_7924ba4398ae4560cd37376e44666c6d -->
<g id="edge2" class="edge">
<title>dir_051dca18e802f8e9474f2e30d29c04e0&#45;&gt;dir_7924ba4398ae4560cd37376e44666c6d</title>
<path fill="none" stroke="#000000" d="M229.5415,-71.8314C218.5795,-62.9632 205.2301,-52.1637 193.3735,-42.5718"/>
<polygon fill="#000000" stroke="#000000" points="195.4271,-39.7313 185.4513,-36.1628 191.0245,-45.1734 195.4271,-39.7313"/>
<g id="a_edge2&#45;headlabel"><a xlink:href="dir_000040_000078.html" target="_top" xlink:title="49">
<text text-anchor="middle" x="200.0075" y="-37.2847" font-family="Helvetica,sans-Serif" font-size="10.00" fill="#000000">49</text>
</a>
</g>
</g>
</g>
</svg>
