<?xml version="1.0" encoding="UTF-8" standalone="no"?>
<!DOCTYPE svg PUBLIC "-//W3C//DTD SVG 1.1//EN"
 "http://www.w3.org/Graphics/SVG/1.1/DTD/svg11.dtd">
<!-- Generated by graphviz version 2.40.1 (20161225.0304)
 -->
<!-- Title: /home/travis/build/AliceO2Group/AliceO2/Analysis/DataModel/include Pages: 1 -->
<svg width="331pt" height="303pt"
 viewBox="0.00 0.00 330.50 303.00" xmlns="http://www.w3.org/2000/svg" xmlns:xlink="http://www.w3.org/1999/xlink">
<g id="graph0" class="graph" transform="scale(1 1) rotate(0) translate(4 299)">
<title>/home/travis/build/AliceO2Group/AliceO2/Analysis/DataModel/include</title>
<g id="clust1" class="cluster">
<title>clusterdir_f41dd59f861c855ea21b0dc3111cb7b0</title>
<g id="a_clust1"><a xlink:href="dir_f41dd59f861c855ea21b0dc3111cb7b0.html" target="_top" xlink:title="DataModel">
<polygon fill="#ddddee" stroke="#000000" points="80.5,-200 80.5,-287 314.5,-287 314.5,-200 80.5,-200"/>
<text text-anchor="middle" x="197.5" y="-275" font-family="Helvetica,sans-Serif" font-size="10.00" fill="#000000">DataModel</text>
</a>
</g>
</g>
<g id="clust2" class="cluster">
<title>clusterdir_7683e4c5aa7478ea0e5a46a41c8497b7</title>
<g id="a_clust2"><a xlink:href="dir_7683e4c5aa7478ea0e5a46a41c8497b7.html" target="_top">
<polygon fill="#eeeeff" stroke="#000000" points="88.5,-208 88.5,-260 306.5,-260 306.5,-208 88.5,-208"/>
</a>
</g>
</g>
<!-- dir_7683e4c5aa7478ea0e5a46a41c8497b7 -->
<g id="node1" class="node">
<title>dir_7683e4c5aa7478ea0e5a46a41c8497b7</title>
<text text-anchor="middle" x="271.5" y="-231.5" font-family="Helvetica,sans-Serif" font-size="10.00" fill="#000000">include</text>
</g>
<!-- dir_5288c54a69662669867ddb130abdbf12 -->
<g id="node2" class="node">
<title>dir_5288c54a69662669867ddb130abdbf12</title>
<g id="a_node2"><a xlink:href="dir_5288c54a69662669867ddb130abdbf12.html" target="_top" xlink:title="Analysis">
<polygon fill="#ffffff" stroke="#000000" points="154.5,-252 96.5,-252 96.5,-216 154.5,-216 154.5,-252"/>
<text text-anchor="middle" x="125.5" y="-231.5" font-family="Helvetica,sans-Serif" font-size="10.00" fill="#000000">Analysis</text>
</a>
</g>
</g>
<!-- dir_4ab6b4cc6a7edbff49100e9123df213f -->
<g id="node4" class="node">
<title>dir_4ab6b4cc6a7edbff49100e9123df213f</title>
<g id="a_node4"><a xlink:href="dir_4ab6b4cc6a7edbff49100e9123df213f.html" target="_top" xlink:title="Common">
<polygon fill="none" stroke="#ff0000" points="61,-180 0,-180 0,-144 61,-144 61,-180"/>
<text text-anchor="middle" x="30.5" y="-159.5" font-family="Helvetica,sans-Serif" font-size="10.00" fill="#000000">Common</text>
</a>
</g>
</g>
<!-- dir_5288c54a69662669867ddb130abdbf12&#45;&gt;dir_4ab6b4cc6a7edbff49100e9123df213f -->
<g id="edge5" class="edge">
<title>dir_5288c54a69662669867ddb130abdbf12&#45;&gt;dir_4ab6b4cc6a7edbff49100e9123df213f</title>
<path fill="none" stroke="#000000" d="M101.5275,-215.8314C89.7139,-206.8779 75.3028,-195.9558 62.5565,-186.2955"/>
<polygon fill="#000000" stroke="#000000" points="64.5486,-183.4137 54.4648,-180.1628 60.3205,-188.9925 64.5486,-183.4137"/>
<g id="a_edge5&#45;headlabel"><a xlink:href="dir_000011_000028.html" target="_top" xlink:title="1">
<text text-anchor="middle" x="69.1284" y="-180.822" font-family="Helvetica,sans-Serif" font-size="10.00" fill="#000000">1</text>
</a>
</g>
</g>
<!-- dir_8d04f135a1eb0fdc4d561ef87bbea216 -->
<g id="node5" class="node">
<title>dir_8d04f135a1eb0fdc4d561ef87bbea216</title>
<g id="a_node5"><a xlink:href="dir_8d04f135a1eb0fdc4d561ef87bbea216.html" target="_top" xlink:title="Core">
<polygon fill="none" stroke="#ff0000" points="133.5,-180 79.5,-180 79.5,-144 133.5,-144 133.5,-180"/>
<text text-anchor="middle" x="106.5" y="-159.5" font-family="Helvetica,sans-Serif" font-size="10.00" fill="#000000">Core</text>
</a>
</g>
</g>
<!-- dir_5288c54a69662669867ddb130abdbf12&#45;&gt;dir_8d04f135a1eb0fdc4d561ef87bbea216 -->
<g id="edge6" class="edge">
<title>dir_5288c54a69662669867ddb130abdbf12&#45;&gt;dir_8d04f135a1eb0fdc4d561ef87bbea216</title>
<path fill="none" stroke="#000000" d="M120.7055,-215.8314C118.6511,-208.0463 116.204,-198.7729 113.9244,-190.1347"/>
<polygon fill="#000000" stroke="#000000" points="117.2948,-189.1892 111.3591,-180.4133 110.5265,-190.9753 117.2948,-189.1892"/>
<g id="a_edge6&#45;headlabel"><a xlink:href="dir_000011_000005.html" target="_top" xlink:title="1">
<text text-anchor="middle" x="120.9572" y="-189.4404" font-family="Helvetica,sans-Serif" font-size="10.00" fill="#000000">1</text>
</a>
</g>
</g>
<!-- dir_bcbb2cf9a3d3d83e5515c82071a07177 -->
<g id="node6" class="node">
<title>dir_bcbb2cf9a3d3d83e5515c82071a07177</title>
<g id="a_node6"><a xlink:href="dir_bcbb2cf9a3d3d83e5515c82071a07177.html" target="_top" xlink:title="Framework">
<polygon fill="none" stroke="#ff0000" points="141,-108 70,-108 70,-72 141,-72 141,-108"/>
<text text-anchor="middle" x="105.5" y="-87.5" font-family="Helvetica,sans-Serif" font-size="10.00" fill="#000000">Framework</text>
</a>
</g>
</g>
<!-- dir_5288c54a69662669867ddb130abdbf12&#45;&gt;dir_bcbb2cf9a3d3d83e5515c82071a07177 -->
<g id="edge7" class="edge">
<title>dir_5288c54a69662669867ddb130abdbf12&#45;&gt;dir_bcbb2cf9a3d3d83e5515c82071a07177</title>
<path fill="none" stroke="#000000" d="M134.0545,-215.7763C141.5049,-197.3835 150.0273,-168.3031 142.5,-144 139.4555,-134.1704 133.9359,-124.5387 128.0729,-116.1946"/>
<polygon fill="#000000" stroke="#000000" points="130.7314,-113.9061 121.9281,-108.011 125.1337,-118.1092 130.7314,-113.9061"/>
<g id="a_edge7&#45;headlabel"><a xlink:href="dir_000011_000014.html" target="_top" xlink:title="9">
<text text-anchor="middle" x="135.1602" y="-112.5758" font-family="Helvetica,sans-Serif" font-size="10.00" fill="#000000">9</text>
</a>
</g>
</g>
<!-- dir_fbd351ec6b98f95c9f7c5b7ed91033e7 -->
<g id="node3" class="node">
<title>dir_fbd351ec6b98f95c9f7c5b7ed91033e7</title>
<g id="a_node3"><a xlink:href="dir_fbd351ec6b98f95c9f7c5b7ed91033e7.html" target="_top" xlink:title="PID">
<polygon fill="#ffffff" stroke="#000000" points="226.5,-252 172.5,-252 172.5,-216 226.5,-216 226.5,-252"/>
<text text-anchor="middle" x="199.5" y="-231.5" font-family="Helvetica,sans-Serif" font-size="10.00" fill="#000000">PID</text>
</a>
</g>
</g>
<!-- dir_fbd351ec6b98f95c9f7c5b7ed91033e7&#45;&gt;dir_bcbb2cf9a3d3d83e5515c82071a07177 -->
<g id="edge3" class="edge">
<title>dir_fbd351ec6b98f95c9f7c5b7ed91033e7&#45;&gt;dir_bcbb2cf9a3d3d83e5515c82071a07177</title>
<path fill="none" stroke="#000000" d="M193.3448,-215.7825C186.482,-196.8794 174.2461,-166.9293 158.5,-144 151.4832,-133.7822 142.4385,-123.7604 133.8142,-115.1782"/>
<polygon fill="#000000" stroke="#000000" points="136.0343,-112.457 126.4049,-108.0382 131.177,-117.4975 136.0343,-112.457"/>
<g id="a_edge3&#45;headlabel"><a xlink:href="dir_000012_000014.html" target="_top" xlink:title="5">
<text text-anchor="middle" x="140.5928" y="-110.4068" font-family="Helvetica,sans-Serif" font-size="10.00" fill="#000000">5</text>
</a>
</g>
</g>
<!-- dir_2171f7ec022c5423887b07c69b2f5b48 -->
<g id="node7" class="node">
<title>dir_2171f7ec022c5423887b07c69b2f5b48</title>
<g id="a_node7"><a xlink:href="dir_2171f7ec022c5423887b07c69b2f5b48.html" target="_top" xlink:title="DataFormats">
<polygon fill="none" stroke="#ff0000" points="145.5,-36 65.5,-36 65.5,0 145.5,0 145.5,-36"/>
<text text-anchor="middle" x="105.5" y="-15.5" font-family="Helvetica,sans-Serif" font-size="10.00" fill="#000000">DataFormats</text>
</a>
</g>
</g>
<!-- dir_fbd351ec6b98f95c9f7c5b7ed91033e7&#45;&gt;dir_2171f7ec022c5423887b07c69b2f5b48 -->
<g id="edge4" class="edge">
<title>dir_fbd351ec6b98f95c9f7c5b7ed91033e7&#45;&gt;dir_2171f7ec022c5423887b07c69b2f5b48</title>
<path fill="none" stroke="#000000" d="M197.3773,-215.751C194.9294,-197.3386 190.2183,-168.2431 182.5,-144 171.8211,-110.4579 168.1008,-101.8851 149.5,-72 143.4952,-62.3524 135.9703,-52.5115 128.8503,-43.9193"/>
<polygon fill="#000000" stroke="#000000" points="131.3551,-41.4619 122.2108,-36.1109 126.0223,-45.9965 131.3551,-41.4619"/>
<g id="a_edge4&#45;headlabel"><a xlink:href="dir_000012_000077.html" target="_top" xlink:title="3">
<text text-anchor="middle" x="135.8466" y="-39.8612" font-family="Helvetica,sans-Serif" font-size="10.00" fill="#000000">3</text>
</a>
</g>
</g>
<!-- dir_4ab6b4cc6a7edbff49100e9123df213f&#45;&gt;dir_bcbb2cf9a3d3d83e5515c82071a07177 -->
<g id="edge1" class="edge">
<title>dir_4ab6b4cc6a7edbff49100e9123df213f&#45;&gt;dir_bcbb2cf9a3d3d83e5515c82071a07177</title>
<path fill="none" stroke="#000000" d="M43.4733,-143.8314C51.7662,-135.0485 62.7213,-124.3712 73.1622,-114.8489"/>
<polygon fill="#000000" stroke="#000000" points="75.5138,-117.4413 80.6286,-108.1628 70.844,-112.2266 75.5138,-117.4413"/>
<g id="a_edge1&#45;headlabel"><a xlink:href="dir_000028_000014.html" target="_top" xlink:title="2">
<text text-anchor="middle" x="74.7301" y="-119.4544" font-family="Helvetica,sans-Serif" font-size="10.00" fill="#000000">2</text>
</a>
</g>
</g>
<!-- dir_4ab6b4cc6a7edbff49100e9123df213f&#45;&gt;dir_2171f7ec022c5423887b07c69b2f5b48 -->
<g id="edge2" class="edge">
<title>dir_4ab6b4cc6a7edbff49100e9123df213f&#45;&gt;dir_2171f7ec022c5423887b07c69b2f5b48</title>
<path fill="none" stroke="#000000" d="M27.6927,-143.9361C29.951,-125.1583 38.5155,-95.3092 51.5,-72 57.0472,-62.042 64.5372,-52.1617 72.2509,-43.6282"/>
<polygon fill="#000000" stroke="#000000" points="74.9666,-45.8525 79.3486,-36.2063 69.9076,-41.0145 74.9666,-45.8525"/>
<g id="a_edge2&#45;headlabel"><a xlink:href="dir_000028_000077.html" target="_top" xlink:title="2">
<text text-anchor="middle" x="74.5343" y="-47.9127" font-family="Helvetica,sans-Serif" font-size="10.00" fill="#000000">2</text>
</a>
</g>
</g>
<!-- dir_8d04f135a1eb0fdc4d561ef87bbea216&#45;&gt;dir_bcbb2cf9a3d3d83e5515c82071a07177 -->
<g id="edge8" class="edge">
<title>dir_8d04f135a1eb0fdc4d561ef87bbea216&#45;&gt;dir_bcbb2cf9a3d3d83e5515c82071a07177</title>
<path fill="none" stroke="#000000" d="M106.2477,-143.8314C106.1407,-136.131 106.0135,-126.9743 105.8947,-118.4166"/>
<polygon fill="#000000" stroke="#000000" points="109.3944,-118.3637 105.7557,-108.4133 102.3951,-118.4609 109.3944,-118.3637"/>
<g id="a_edge8&#45;headlabel"><a xlink:href="dir_000005_000014.html" target="_top" xlink:title="5">
<text text-anchor="middle" x="112.2832" y="-119.4185" font-family="Helvetica,sans-Serif" font-size="10.00" fill="#000000">5</text>
</a>
</g>
</g>
<!-- dir_bcbb2cf9a3d3d83e5515c82071a07177&#45;&gt;dir_4ab6b4cc6a7edbff49100e9123df213f -->
<g id="edge9" class="edge">
<title>dir_bcbb2cf9a3d3d83e5515c82071a07177&#45;&gt;dir_4ab6b4cc6a7edbff49100e9123df213f</title>
<path fill="none" stroke="#000000" d="M92.2955,-108.4133C84.0976,-117.0787 73.357,-127.5464 63.0885,-136.9223"/>
<polygon fill="#000000" stroke="#000000" points="60.4899,-134.5513 55.3781,-143.8314 65.1613,-139.7645 60.4899,-134.5513"/>
<g id="a_edge9&#45;headlabel"><a xlink:href="dir_000014_000028.html" target="_top" xlink:title="8">
<text text-anchor="middle" x="61.2722" y="-127.5379" font-family="Helvetica,sans-Serif" font-size="10.00" fill="#000000">8</text>
</a>
</g>
</g>
<!-- dir_bcbb2cf9a3d3d83e5515c82071a07177&#45;&gt;dir_2171f7ec022c5423887b07c69b2f5b48 -->
<g id="edge10" class="edge">
<title>dir_bcbb2cf9a3d3d83e5515c82071a07177&#45;&gt;dir_2171f7ec022c5423887b07c69b2f5b48</title>
<path fill="none" stroke="#000000" d="M99.5476,-71.8314C98.7972,-64.131 98.5763,-54.9743 98.8849,-46.4166"/>
<polygon fill="#000000" stroke="#000000" points="102.3792,-46.6161 99.524,-36.4133 95.3935,-46.1697 102.3792,-46.6161"/>
<g id="a_edge10&#45;headlabel"><a xlink:href="dir_000014_000077.html" target="_top" xlink:title="82">
<text text-anchor="middle" x="104.9836" y="-47.8844" font-family="Helvetica,sans-Serif" font-size="10.00" fill="#000000">82</text>
</a>
</g>
</g>
<!-- dir_2171f7ec022c5423887b07c69b2f5b48&#45;&gt;dir_4ab6b4cc6a7edbff49100e9123df213f -->
<g id="edge11" class="edge">
<title>dir_2171f7ec022c5423887b07c69b2f5b48&#45;&gt;dir_4ab6b4cc6a7edbff49100e9123df213f</title>
<path fill="none" stroke="#000000" d="M95.4004,-36.2063C87.305,-46.1199 76.7453,-58.9936 69.5,-72 58.5443,-91.6671 50.7353,-115.9901 44.466,-134.3903"/>
<polygon fill="#000000" stroke="#000000" points="41.1251,-133.3413 41.1313,-143.9361 47.7335,-135.6498 41.1251,-133.3413"/>
<g id="a_edge11&#45;headlabel"><a xlink:href="dir_000077_000028.html" target="_top" xlink:title="35">
<text text-anchor="middle" x="39.6301" y="-126.5114" font-family="Helvetica,sans-Serif" font-size="10.00" fill="#000000">35</text>
</a>
</g>
</g>
<!-- dir_2171f7ec022c5423887b07c69b2f5b48&#45;&gt;dir_bcbb2cf9a3d3d83e5515c82071a07177 -->
<g id="edge12" class="edge">
<title>dir_2171f7ec022c5423887b07c69b2f5b48&#45;&gt;dir_bcbb2cf9a3d3d83e5515c82071a07177</title>
<path fill="none" stroke="#000000" d="M111.476,-36.4133C112.2071,-44.0593 112.4203,-53.1084 112.1155,-61.5726"/>
<polygon fill="#000000" stroke="#000000" points="108.6048,-61.6264 111.4524,-71.8314 115.5902,-62.078 108.6048,-61.6264"/>
<g id="a_edge12&#45;headlabel"><a xlink:href="dir_000077_000014.html" target="_top" xlink:title="12">
<text text-anchor="middle" x="106.0032" y="-55.3562" font-family="Helvetica,sans-Serif" font-size="10.00" fill="#000000">12</text>
</a>
</g>
</g>
</g>
</svg>
