<?xml version="1.0" encoding="UTF-8" standalone="no"?>
<!DOCTYPE svg PUBLIC "-//W3C//DTD SVG 1.1//EN"
 "http://www.w3.org/Graphics/SVG/1.1/DTD/svg11.dtd">
<!-- Generated by graphviz version 2.40.1 (20161225.0304)
 -->
<!-- Title: /home/travis/build/AliceO2Group/AliceO2/Detectors/TRD/workflow/src Pages: 1 -->
<svg width="762pt" height="655pt"
 viewBox="0.00 0.00 762.00 655.00" xmlns="http://www.w3.org/2000/svg" xmlns:xlink="http://www.w3.org/1999/xlink">
<g id="graph0" class="graph" transform="scale(1 1) rotate(0) translate(4 651)">
<title>/home/travis/build/AliceO2Group/AliceO2/Detectors/TRD/workflow/src</title>
<g id="clust1" class="cluster">
<title>clusterdir_184e1d06e85fb151746c3bdf717cc8ad</title>
<g id="a_clust1"><a xlink:href="dir_184e1d06e85fb151746c3bdf717cc8ad.html" target="_top" xlink:title="workflow">
<polygon fill="#ddddee" stroke="#000000" points="358,-568 358,-639 428,-639 428,-568 358,-568"/>
<text text-anchor="middle" x="393" y="-627" font-family="Helvetica,sans-Serif" font-size="10.00" fill="#000000">workflow</text>
</a>
</g>
</g>
<!-- dir_19cbc61730528058d9acd8ae2ca70332 -->
<g id="node1" class="node">
<title>dir_19cbc61730528058d9acd8ae2ca70332</title>
<g id="a_node1"><a xlink:href="dir_19cbc61730528058d9acd8ae2ca70332.html" target="_top" xlink:title="src">
<polygon fill="#eeeeff" stroke="#000000" points="420,-612 366,-612 366,-576 420,-576 420,-612"/>
<text text-anchor="middle" x="393" y="-591.5" font-family="Helvetica,sans-Serif" font-size="10.00" fill="#000000">src</text>
</a>
</g>
</g>
<!-- dir_40b4a122691869ee86baf7f2711ed718 -->
<g id="node2" class="node">
<title>dir_40b4a122691869ee86baf7f2711ed718</title>
<g id="a_node2"><a xlink:href="dir_40b4a122691869ee86baf7f2711ed718.html" target="_top" xlink:title="Steer">
<polygon fill="none" stroke="#ff0000" points="553,-540 499,-540 499,-504 553,-504 553,-540"/>
<text text-anchor="middle" x="526" y="-519.5" font-family="Helvetica,sans-Serif" font-size="10.00" fill="#000000">Steer</text>
</a>
</g>
</g>
<!-- dir_19cbc61730528058d9acd8ae2ca70332&#45;&gt;dir_40b4a122691869ee86baf7f2711ed718 -->
<g id="edge19" class="edge">
<title>dir_19cbc61730528058d9acd8ae2ca70332&#45;&gt;dir_40b4a122691869ee86baf7f2711ed718</title>
<path fill="none" stroke="#000000" d="M420.2355,-579.256C440.3179,-568.3843 467.8435,-553.4832 489.7799,-541.6079"/>
<polygon fill="#000000" stroke="#000000" points="491.6731,-544.563 498.8009,-536.7243 488.3406,-538.4071 491.6731,-544.563"/>
<g id="a_edge19&#45;headlabel"><a xlink:href="dir_000632_000727.html" target="_top" xlink:title="3">
<text text-anchor="middle" x="489.8637" y="-546.2711" font-family="Helvetica,sans-Serif" font-size="10.00" fill="#000000">3</text>
</a>
</g>
</g>
<!-- dir_4ab6b4cc6a7edbff49100e9123df213f -->
<g id="node3" class="node">
<title>dir_4ab6b4cc6a7edbff49100e9123df213f</title>
<g id="a_node3"><a xlink:href="dir_4ab6b4cc6a7edbff49100e9123df213f.html" target="_top" xlink:title="Common">
<polygon fill="none" stroke="#ff0000" points="421.5,-324 360.5,-324 360.5,-288 421.5,-288 421.5,-324"/>
<text text-anchor="middle" x="391" y="-303.5" font-family="Helvetica,sans-Serif" font-size="10.00" fill="#000000">Common</text>
</a>
</g>
</g>
<!-- dir_19cbc61730528058d9acd8ae2ca70332&#45;&gt;dir_4ab6b4cc6a7edbff49100e9123df213f -->
<g id="edge20" class="edge">
<title>dir_19cbc61730528058d9acd8ae2ca70332&#45;&gt;dir_4ab6b4cc6a7edbff49100e9123df213f</title>
<path fill="none" stroke="#000000" d="M392.8749,-575.9843C392.5368,-527.2939 391.6028,-392.7961 391.1948,-334.0573"/>
<polygon fill="#000000" stroke="#000000" points="394.6945,-333.9843 391.1251,-324.0089 387.6947,-334.033 394.6945,-333.9843"/>
<g id="a_edge20&#45;headlabel"><a xlink:href="dir_000632_000028.html" target="_top" xlink:title="1">
<text text-anchor="middle" x="397.5586" y="-335.0591" font-family="Helvetica,sans-Serif" font-size="10.00" fill="#000000">1</text>
</a>
</g>
</g>
<!-- dir_6af676bf18881990e4083e191d0e63e0 -->
<g id="node4" class="node">
<title>dir_6af676bf18881990e4083e191d0e63e0</title>
<g id="a_node4"><a xlink:href="dir_6af676bf18881990e4083e191d0e63e0.html" target="_top" xlink:title="CCDB">
<polygon fill="none" stroke="#ff0000" points="141,-36 87,-36 87,0 141,0 141,-36"/>
<text text-anchor="middle" x="114" y="-15.5" font-family="Helvetica,sans-Serif" font-size="10.00" fill="#000000">CCDB</text>
</a>
</g>
</g>
<!-- dir_19cbc61730528058d9acd8ae2ca70332&#45;&gt;dir_6af676bf18881990e4083e191d0e63e0 -->
<g id="edge21" class="edge">
<title>dir_19cbc61730528058d9acd8ae2ca70332&#45;&gt;dir_6af676bf18881990e4083e191d0e63e0</title>
<path fill="none" stroke="#000000" d="M365.6875,-591.3948C299.909,-584.7739 134.5557,-565.9688 86,-540 37.2134,-513.9077 0,-505.3257 0,-450 0,-450 0,-450 0,-162 0,-110.5591 45.2736,-66.7654 78.7591,-41.4096"/>
<polygon fill="#000000" stroke="#000000" points="80.9971,-44.1084 86.9836,-35.367 76.8525,-38.4672 80.9971,-44.1084"/>
<g id="a_edge21&#45;headlabel"><a xlink:href="dir_000632_000020.html" target="_top" xlink:title="1">
<text text-anchor="middle" x="79.7813" y="-46.0248" font-family="Helvetica,sans-Serif" font-size="10.00" fill="#000000">1</text>
</a>
</g>
</g>
<!-- dir_37c90836491b695b472bf98d1be8336b -->
<g id="node5" class="node">
<title>dir_37c90836491b695b472bf98d1be8336b</title>
<g id="a_node5"><a xlink:href="dir_37c90836491b695b472bf98d1be8336b.html" target="_top" xlink:title="Base">
<polygon fill="none" stroke="#ff0000" points="475,-36 421,-36 421,0 475,0 475,-36"/>
<text text-anchor="middle" x="448" y="-15.5" font-family="Helvetica,sans-Serif" font-size="10.00" fill="#000000">Base</text>
</a>
</g>
</g>
<!-- dir_19cbc61730528058d9acd8ae2ca70332&#45;&gt;dir_37c90836491b695b472bf98d1be8336b -->
<g id="edge22" class="edge">
<title>dir_19cbc61730528058d9acd8ae2ca70332&#45;&gt;dir_37c90836491b695b472bf98d1be8336b</title>
<path fill="none" stroke="#000000" d="M420.3597,-592.118C467.5001,-588.0066 566.1729,-575.5464 641,-540 698.9938,-512.4502 754,-514.2049 754,-450 754,-450 754,-450 754,-162 754,-110.775 725.3618,-99.2719 682,-72 649.5228,-51.5738 542.7992,-32.6073 485.3704,-23.5591"/>
<polygon fill="#000000" stroke="#000000" points="485.6686,-20.0635 475.2498,-21.9869 484.594,-26.9805 485.6686,-20.0635"/>
<g id="a_edge22&#45;headlabel"><a xlink:href="dir_000632_000275.html" target="_top" xlink:title="3">
<text text-anchor="middle" x="489.6564" y="-15.3096" font-family="Helvetica,sans-Serif" font-size="10.00" fill="#000000">3</text>
</a>
</g>
</g>
<!-- dir_8ba487e25de5ee77e05e9dce7582cb98 -->
<g id="node6" class="node">
<title>dir_8ba487e25de5ee77e05e9dce7582cb98</title>
<g id="a_node6"><a xlink:href="dir_8ba487e25de5ee77e05e9dce7582cb98.html" target="_top" xlink:title="Algorithm">
<polygon fill="none" stroke="#ff0000" points="647.5,-108 582.5,-108 582.5,-72 647.5,-72 647.5,-108"/>
<text text-anchor="middle" x="615" y="-87.5" font-family="Helvetica,sans-Serif" font-size="10.00" fill="#000000">Algorithm</text>
</a>
</g>
</g>
<!-- dir_19cbc61730528058d9acd8ae2ca70332&#45;&gt;dir_8ba487e25de5ee77e05e9dce7582cb98 -->
<g id="edge23" class="edge">
<title>dir_19cbc61730528058d9acd8ae2ca70332&#45;&gt;dir_8ba487e25de5ee77e05e9dce7582cb98</title>
<path fill="none" stroke="#000000" d="M420.2604,-588.0308C498.1314,-570.1995 716,-514.5433 716,-450 716,-450 716,-450 716,-306 716,-231.529 666.1256,-155.0594 636.4716,-116.1744"/>
<polygon fill="#000000" stroke="#000000" points="639.0246,-113.756 630.1207,-108.0138 633.5003,-118.0552 639.0246,-113.756"/>
<g id="a_edge23&#45;headlabel"><a xlink:href="dir_000632_000000.html" target="_top" xlink:title="1">
<text text-anchor="middle" x="643.4729" y="-112.3489" font-family="Helvetica,sans-Serif" font-size="10.00" fill="#000000">1</text>
</a>
</g>
</g>
<!-- dir_09bf7f7c4011a5ccc426492db4dd0891 -->
<g id="node7" class="node">
<title>dir_09bf7f7c4011a5ccc426492db4dd0891</title>
<g id="a_node7"><a xlink:href="dir_09bf7f7c4011a5ccc426492db4dd0891.html" target="_top" xlink:title="base">
<polygon fill="none" stroke="#ff0000" points="293,-108 239,-108 239,-72 293,-72 293,-108"/>
<text text-anchor="middle" x="266" y="-87.5" font-family="Helvetica,sans-Serif" font-size="10.00" fill="#000000">base</text>
</a>
</g>
</g>
<!-- dir_19cbc61730528058d9acd8ae2ca70332&#45;&gt;dir_09bf7f7c4011a5ccc426492db4dd0891 -->
<g id="edge24" class="edge">
<title>dir_19cbc61730528058d9acd8ae2ca70332&#45;&gt;dir_09bf7f7c4011a5ccc426492db4dd0891</title>
<path fill="none" stroke="#000000" d="M365.7332,-589.0608C282.6055,-573.2357 38,-520.6662 38,-450 38,-450 38,-450 38,-234 38,-144.8601 164.1219,-108.6601 228.759,-95.961"/>
<polygon fill="#000000" stroke="#000000" points="229.7647,-99.3336 238.9501,-94.0535 228.4768,-92.4531 229.7647,-99.3336"/>
<g id="a_edge24&#45;headlabel"><a xlink:href="dir_000632_000142.html" target="_top" xlink:title="11">
<text text-anchor="middle" x="226.7538" y="-100.2856" font-family="Helvetica,sans-Serif" font-size="10.00" fill="#000000">11</text>
</a>
</g>
</g>
<!-- dir_bcbb2cf9a3d3d83e5515c82071a07177 -->
<g id="node8" class="node">
<title>dir_bcbb2cf9a3d3d83e5515c82071a07177</title>
<g id="a_node8"><a xlink:href="dir_bcbb2cf9a3d3d83e5515c82071a07177.html" target="_top" xlink:title="Framework">
<polygon fill="none" stroke="#ff0000" points="611.5,-252 540.5,-252 540.5,-216 611.5,-216 611.5,-252"/>
<text text-anchor="middle" x="576" y="-231.5" font-family="Helvetica,sans-Serif" font-size="10.00" fill="#000000">Framework</text>
</a>
</g>
</g>
<!-- dir_19cbc61730528058d9acd8ae2ca70332&#45;&gt;dir_bcbb2cf9a3d3d83e5515c82071a07177 -->
<g id="edge25" class="edge">
<title>dir_19cbc61730528058d9acd8ae2ca70332&#45;&gt;dir_bcbb2cf9a3d3d83e5515c82071a07177</title>
<path fill="none" stroke="#000000" d="M420.3433,-589.0549C463.4651,-580.6638 544.2072,-562.3512 562,-540 627.3031,-457.9668 600.3221,-320.7868 584.4701,-262.0625"/>
<polygon fill="#000000" stroke="#000000" points="587.8214,-261.0502 581.7575,-252.3622 581.08,-262.9354 587.8214,-261.0502"/>
<g id="a_edge25&#45;headlabel"><a xlink:href="dir_000632_000014.html" target="_top" xlink:title="30">
<text text-anchor="middle" x="591.5237" y="-261.2473" font-family="Helvetica,sans-Serif" font-size="10.00" fill="#000000">30</text>
</a>
</g>
</g>
<!-- dir_5cb2a8e9fdbe67a11efb4176f60bf3d6 -->
<g id="node9" class="node">
<title>dir_5cb2a8e9fdbe67a11efb4176f60bf3d6</title>
<g id="a_node9"><a xlink:href="dir_5cb2a8e9fdbe67a11efb4176f60bf3d6.html" target="_top" xlink:title="simulation">
<polygon fill="none" stroke="#ff0000" points="200,-396 132,-396 132,-360 200,-360 200,-396"/>
<text text-anchor="middle" x="166" y="-375.5" font-family="Helvetica,sans-Serif" font-size="10.00" fill="#000000">simulation</text>
</a>
</g>
</g>
<!-- dir_19cbc61730528058d9acd8ae2ca70332&#45;&gt;dir_5cb2a8e9fdbe67a11efb4176f60bf3d6 -->
<g id="edge26" class="edge">
<title>dir_19cbc61730528058d9acd8ae2ca70332&#45;&gt;dir_5cb2a8e9fdbe67a11efb4176f60bf3d6</title>
<path fill="none" stroke="#000000" d="M374.0365,-575.9555C333.5605,-537.4409 238.6359,-447.1161 192.3324,-403.0564"/>
<polygon fill="#000000" stroke="#000000" points="194.7263,-400.5029 185.0691,-396.1451 189.9009,-405.574 194.7263,-400.5029"/>
<g id="a_edge26&#45;headlabel"><a xlink:href="dir_000632_000306.html" target="_top" xlink:title="8">
<text text-anchor="middle" x="199.2875" y="-398.4239" font-family="Helvetica,sans-Serif" font-size="10.00" fill="#000000">8</text>
</a>
</g>
</g>
<!-- dir_2171f7ec022c5423887b07c69b2f5b48 -->
<g id="node10" class="node">
<title>dir_2171f7ec022c5423887b07c69b2f5b48</title>
<g id="a_node10"><a xlink:href="dir_2171f7ec022c5423887b07c69b2f5b48.html" target="_top" xlink:title="DataFormats">
<polygon fill="none" stroke="#ff0000" points="488,-180 408,-180 408,-144 488,-144 488,-180"/>
<text text-anchor="middle" x="448" y="-159.5" font-family="Helvetica,sans-Serif" font-size="10.00" fill="#000000">DataFormats</text>
</a>
</g>
</g>
<!-- dir_19cbc61730528058d9acd8ae2ca70332&#45;&gt;dir_2171f7ec022c5423887b07c69b2f5b48 -->
<g id="edge27" class="edge">
<title>dir_19cbc61730528058d9acd8ae2ca70332&#45;&gt;dir_2171f7ec022c5423887b07c69b2f5b48</title>
<path fill="none" stroke="#000000" d="M396.231,-575.9036C405.1827,-525.0553 430.4679,-376.4837 443,-252 445.0737,-231.4015 446.3394,-208.0578 447.0784,-190.307"/>
<polygon fill="#000000" stroke="#000000" points="450.5759,-190.4364 447.4639,-180.3089 443.5811,-190.1666 450.5759,-190.4364"/>
<g id="a_edge27&#45;headlabel"><a xlink:href="dir_000632_000077.html" target="_top" xlink:title="21">
<text text-anchor="middle" x="453.2747" y="-191.6377" font-family="Helvetica,sans-Serif" font-size="10.00" fill="#000000">21</text>
</a>
</g>
</g>
<!-- dir_11da180be91271a1ebdaa9322b1ad99a -->
<g id="node11" class="node">
<title>dir_11da180be91271a1ebdaa9322b1ad99a</title>
<g id="a_node11"><a xlink:href="dir_11da180be91271a1ebdaa9322b1ad99a.html" target="_top" xlink:title="include">
<polygon fill="none" stroke="#ff0000" points="346,-468 292,-468 292,-432 346,-432 346,-468"/>
<text text-anchor="middle" x="319" y="-447.5" font-family="Helvetica,sans-Serif" font-size="10.00" fill="#000000">include</text>
</a>
</g>
</g>
<!-- dir_19cbc61730528058d9acd8ae2ca70332&#45;&gt;dir_11da180be91271a1ebdaa9322b1ad99a -->
<g id="edge28" class="edge">
<title>dir_19cbc61730528058d9acd8ae2ca70332&#45;&gt;dir_11da180be91271a1ebdaa9322b1ad99a</title>
<path fill="none" stroke="#000000" d="M381.1347,-575.8268C374.5864,-565.5001 366.4908,-552.2276 360,-540 349.1319,-519.5263 338.3245,-495.6177 330.5361,-477.5906"/>
<polygon fill="#000000" stroke="#000000" points="333.6878,-476.0589 326.5386,-468.2397 327.2513,-478.8106 333.6878,-476.0589"/>
<g id="a_edge28&#45;headlabel"><a xlink:href="dir_000632_000630.html" target="_top" xlink:title="8">
<text text-anchor="middle" x="337.7115" y="-475.7481" font-family="Helvetica,sans-Serif" font-size="10.00" fill="#000000">8</text>
</a>
</g>
</g>
<!-- dir_40b4a122691869ee86baf7f2711ed718&#45;&gt;dir_4ab6b4cc6a7edbff49100e9123df213f -->
<g id="edge1" class="edge">
<title>dir_40b4a122691869ee86baf7f2711ed718&#45;&gt;dir_4ab6b4cc6a7edbff49100e9123df213f</title>
<path fill="none" stroke="#000000" d="M514.7222,-503.9555C490.9483,-465.9173 435.5894,-377.3431 407.6954,-332.7127"/>
<polygon fill="#000000" stroke="#000000" points="410.6087,-330.7701 402.3407,-324.1451 404.6727,-334.4801 410.6087,-330.7701"/>
<g id="a_edge1&#45;headlabel"><a xlink:href="dir_000727_000028.html" target="_top" xlink:title="12">
<text text-anchor="middle" x="414.9215" y="-329.8135" font-family="Helvetica,sans-Serif" font-size="10.00" fill="#000000">12</text>
</a>
</g>
</g>
<!-- dir_40b4a122691869ee86baf7f2711ed718&#45;&gt;dir_37c90836491b695b472bf98d1be8336b -->
<g id="edge2" class="edge">
<title>dir_40b4a122691869ee86baf7f2711ed718&#45;&gt;dir_37c90836491b695b472bf98d1be8336b</title>
<path fill="none" stroke="#000000" d="M553.1746,-511.0704C596.8951,-491.4794 678,-445.9758 678,-378 678,-378 678,-378 678,-306 678,-201.582 724.5652,-151.6119 657,-72 635.0049,-46.0832 539.2348,-29.7811 485.291,-22.4812"/>
<polygon fill="#000000" stroke="#000000" points="485.465,-18.9741 475.0942,-21.1411 484.5528,-25.9144 485.465,-18.9741"/>
<g id="a_edge2&#45;headlabel"><a xlink:href="dir_000727_000275.html" target="_top" xlink:title="17">
<text text-anchor="middle" x="489.3989" y="-14.1273" font-family="Helvetica,sans-Serif" font-size="10.00" fill="#000000">17</text>
</a>
</g>
</g>
<!-- dir_40b4a122691869ee86baf7f2711ed718&#45;&gt;dir_8ba487e25de5ee77e05e9dce7582cb98 -->
<g id="edge3" class="edge">
<title>dir_40b4a122691869ee86baf7f2711ed718&#45;&gt;dir_8ba487e25de5ee77e05e9dce7582cb98</title>
<path fill="none" stroke="#000000" d="M538.4597,-503.6222C544.9455,-493.4531 552.6214,-480.3963 558,-468 603.952,-362.0924 623.7464,-331.4143 621,-216 620.2022,-182.4754 618.2122,-143.9761 616.7416,-118.4475"/>
<polygon fill="#000000" stroke="#000000" points="620.2291,-118.1304 616.1481,-108.3531 613.2411,-118.5413 620.2291,-118.1304"/>
<g id="a_edge3&#45;headlabel"><a xlink:href="dir_000727_000000.html" target="_top" xlink:title="1">
<text text-anchor="middle" x="623.2743" y="-119.0523" font-family="Helvetica,sans-Serif" font-size="10.00" fill="#000000">1</text>
</a>
</g>
</g>
<!-- dir_40b4a122691869ee86baf7f2711ed718&#45;&gt;dir_bcbb2cf9a3d3d83e5515c82071a07177 -->
<g id="edge4" class="edge">
<title>dir_40b4a122691869ee86baf7f2711ed718&#45;&gt;dir_bcbb2cf9a3d3d83e5515c82071a07177</title>
<path fill="none" stroke="#000000" d="M531.2593,-503.6136C534.1079,-493.2202 537.5378,-479.9521 540,-468 555.2081,-394.1756 567.1007,-306.0448 572.6242,-261.9849"/>
<polygon fill="#000000" stroke="#000000" points="576.1029,-262.3724 573.8588,-252.0179 569.1559,-261.5118 576.1029,-262.3724"/>
<g id="a_edge4&#45;headlabel"><a xlink:href="dir_000727_000014.html" target="_top" xlink:title="146">
<text text-anchor="middle" x="578.4788" y="-263.7887" font-family="Helvetica,sans-Serif" font-size="10.00" fill="#000000">146</text>
</a>
</g>
</g>
<!-- dir_40b4a122691869ee86baf7f2711ed718&#45;&gt;dir_2171f7ec022c5423887b07c69b2f5b48 -->
<g id="edge5" class="edge">
<title>dir_40b4a122691869ee86baf7f2711ed718&#45;&gt;dir_2171f7ec022c5423887b07c69b2f5b48</title>
<path fill="none" stroke="#000000" d="M526.8802,-503.9675C528.6017,-455.4561 529.1595,-318.8859 488,-216 484.0349,-206.0885 477.7942,-196.3637 471.4112,-187.9582"/>
<polygon fill="#000000" stroke="#000000" points="474.0451,-185.6482 465.0597,-180.0346 468.5833,-190.0263 474.0451,-185.6482"/>
<g id="a_edge5&#45;headlabel"><a xlink:href="dir_000727_000077.html" target="_top" xlink:title="144">
<text text-anchor="middle" x="478.5087" y="-184.1771" font-family="Helvetica,sans-Serif" font-size="10.00" fill="#000000">144</text>
</a>
</g>
</g>
<!-- dir_40b4a122691869ee86baf7f2711ed718&#45;&gt;dir_11da180be91271a1ebdaa9322b1ad99a -->
<g id="edge6" class="edge">
<title>dir_40b4a122691869ee86baf7f2711ed718&#45;&gt;dir_11da180be91271a1ebdaa9322b1ad99a</title>
<path fill="none" stroke="#000000" d="M498.9384,-512.5873C462.2888,-499.8396 396.7479,-477.0427 355.6939,-462.7631"/>
<polygon fill="#000000" stroke="#000000" points="356.6631,-459.3946 346.0683,-459.4151 354.3634,-466.0061 356.6631,-459.3946"/>
<g id="a_edge6&#45;headlabel"><a xlink:href="dir_000727_000630.html" target="_top" xlink:title="4">
<text text-anchor="middle" x="360.9909" y="-455.3937" font-family="Helvetica,sans-Serif" font-size="10.00" fill="#000000">4</text>
</a>
</g>
</g>
<!-- dir_4ab6b4cc6a7edbff49100e9123df213f&#45;&gt;dir_bcbb2cf9a3d3d83e5515c82071a07177 -->
<g id="edge7" class="edge">
<title>dir_4ab6b4cc6a7edbff49100e9123df213f&#45;&gt;dir_bcbb2cf9a3d3d83e5515c82071a07177</title>
<path fill="none" stroke="#000000" d="M421.6281,-291.9468C451.3886,-279.7295 496.7328,-262.0592 530.649,-249.4482"/>
<polygon fill="#000000" stroke="#000000" points="532.1648,-252.6196 540.3328,-245.8717 529.7396,-246.0531 532.1648,-252.6196"/>
<g id="a_edge7&#45;headlabel"><a xlink:href="dir_000028_000014.html" target="_top" xlink:title="2">
<text text-anchor="middle" x="529.7765" y="-254.0283" font-family="Helvetica,sans-Serif" font-size="10.00" fill="#000000">2</text>
</a>
</g>
</g>
<!-- dir_4ab6b4cc6a7edbff49100e9123df213f&#45;&gt;dir_2171f7ec022c5423887b07c69b2f5b48 -->
<g id="edge8" class="edge">
<title>dir_4ab6b4cc6a7edbff49100e9123df213f&#45;&gt;dir_2171f7ec022c5423887b07c69b2f5b48</title>
<path fill="none" stroke="#000000" d="M393.5459,-287.7623C400.9043,-262.8764 418.3862,-218.0822 431.8063,-189.2165"/>
<polygon fill="#000000" stroke="#000000" points="435.0148,-190.6201 436.1812,-180.0896 428.7025,-187.5942 435.0148,-190.6201"/>
<g id="a_edge8&#45;headlabel"><a xlink:href="dir_000028_000077.html" target="_top" xlink:title="2">
<text text-anchor="middle" x="436.0213" y="-192.5888" font-family="Helvetica,sans-Serif" font-size="10.00" fill="#000000">2</text>
</a>
</g>
</g>
<!-- dir_6af676bf18881990e4083e191d0e63e0&#45;&gt;dir_4ab6b4cc6a7edbff49100e9123df213f -->
<g id="edge9" class="edge">
<title>dir_6af676bf18881990e4083e191d0e63e0&#45;&gt;dir_4ab6b4cc6a7edbff49100e9123df213f</title>
<path fill="none" stroke="#000000" d="M130.7745,-36.1149C167.522,-75.7022 258.0762,-172.7293 336,-252 345.3075,-261.4684 355.662,-271.7089 364.8539,-280.7007"/>
<polygon fill="#000000" stroke="#000000" points="362.65,-283.4402 372.2531,-287.9158 367.537,-278.4285 362.65,-283.4402"/>
<g id="a_edge9&#45;headlabel"><a xlink:href="dir_000020_000028.html" target="_top" xlink:title="4">
<text text-anchor="middle" x="358.0942" y="-280.4635" font-family="Helvetica,sans-Serif" font-size="10.00" fill="#000000">4</text>
</a>
</g>
</g>
<!-- dir_6af676bf18881990e4083e191d0e63e0&#45;&gt;dir_bcbb2cf9a3d3d83e5515c82071a07177 -->
<g id="edge10" class="edge">
<title>dir_6af676bf18881990e4083e191d0e63e0&#45;&gt;dir_bcbb2cf9a3d3d83e5515c82071a07177</title>
<path fill="none" stroke="#000000" d="M141.3919,-21.6177C207.6774,-31.4498 379.8864,-63.5254 497,-144 521.7777,-161.026 543.7694,-187.5327 558.217,-207.3775"/>
<polygon fill="#000000" stroke="#000000" points="555.4789,-209.567 564.1199,-215.6976 561.188,-205.5165 555.4789,-209.567"/>
<g id="a_edge10&#45;headlabel"><a xlink:href="dir_000020_000014.html" target="_top" xlink:title="2">
<text text-anchor="middle" x="551.0833" y="-205.7782" font-family="Helvetica,sans-Serif" font-size="10.00" fill="#000000">2</text>
</a>
</g>
</g>
<!-- dir_37c90836491b695b472bf98d1be8336b&#45;&gt;dir_4ab6b4cc6a7edbff49100e9123df213f -->
<g id="edge11" class="edge">
<title>dir_37c90836491b695b472bf98d1be8336b&#45;&gt;dir_4ab6b4cc6a7edbff49100e9123df213f</title>
<path fill="none" stroke="#000000" d="M438.7603,-36.2072C427.0937,-60.2038 407.518,-104.0588 399,-144 389.1852,-190.0218 388.7751,-244.9901 389.6737,-277.6144"/>
<polygon fill="#000000" stroke="#000000" points="386.1813,-277.9004 390.0169,-287.7765 393.1773,-277.6641 386.1813,-277.9004"/>
<g id="a_edge11&#45;headlabel"><a xlink:href="dir_000275_000028.html" target="_top" xlink:title="16">
<text text-anchor="middle" x="383.2224" y="-271.9036" font-family="Helvetica,sans-Serif" font-size="10.00" fill="#000000">16</text>
</a>
</g>
</g>
<!-- dir_37c90836491b695b472bf98d1be8336b&#45;&gt;dir_bcbb2cf9a3d3d83e5515c82071a07177 -->
<g id="edge12" class="edge">
<title>dir_37c90836491b695b472bf98d1be8336b&#45;&gt;dir_bcbb2cf9a3d3d83e5515c82071a07177</title>
<path fill="none" stroke="#000000" d="M475.3409,-29.7499C493.3512,-38.8185 516.0929,-53.0281 530,-72 559.5564,-112.3206 570.1517,-171.0538 573.9291,-205.6133"/>
<polygon fill="#000000" stroke="#000000" points="570.4808,-206.3158 574.9314,-215.9305 577.448,-205.6389 570.4808,-206.3158"/>
<g id="a_edge12&#45;headlabel"><a xlink:href="dir_000275_000014.html" target="_top" xlink:title="1">
<text text-anchor="middle" x="567.3074" y="-200.5125" font-family="Helvetica,sans-Serif" font-size="10.00" fill="#000000">1</text>
</a>
</g>
</g>
<!-- dir_37c90836491b695b472bf98d1be8336b&#45;&gt;dir_2171f7ec022c5423887b07c69b2f5b48 -->
<g id="edge13" class="edge">
<title>dir_37c90836491b695b472bf98d1be8336b&#45;&gt;dir_2171f7ec022c5423887b07c69b2f5b48</title>
<path fill="none" stroke="#000000" d="M452.6583,-36.0896C455.1269,-60.5727 455.4104,-104.5174 453.5089,-133.4713"/>
<polygon fill="#000000" stroke="#000000" points="449.9942,-133.5118 452.6732,-143.7623 456.9712,-134.0785 449.9942,-133.5118"/>
<g id="a_edge13&#45;headlabel"><a xlink:href="dir_000275_000077.html" target="_top" xlink:title="12">
<text text-anchor="middle" x="447.4551" y="-127.1992" font-family="Helvetica,sans-Serif" font-size="10.00" fill="#000000">12</text>
</a>
</g>
</g>
<!-- dir_8ba487e25de5ee77e05e9dce7582cb98&#45;&gt;dir_2171f7ec022c5423887b07c69b2f5b48 -->
<g id="edge14" class="edge">
<title>dir_8ba487e25de5ee77e05e9dce7582cb98&#45;&gt;dir_2171f7ec022c5423887b07c69b2f5b48</title>
<path fill="none" stroke="#000000" d="M582.435,-106.5331C558.2831,-117.4667 525.0535,-131.8263 497.6291,-143.1954"/>
<polygon fill="#000000" stroke="#000000" points="496.1083,-140.0365 488.1952,-147.0816 498.7746,-146.5088 496.1083,-140.0365"/>
<g id="a_edge14&#45;headlabel"><a xlink:href="dir_000000_000077.html" target="_top" xlink:title="8">
<text text-anchor="middle" x="498.3506" y="-133.5421" font-family="Helvetica,sans-Serif" font-size="10.00" fill="#000000">8</text>
</a>
</g>
</g>
<!-- dir_09bf7f7c4011a5ccc426492db4dd0891&#45;&gt;dir_4ab6b4cc6a7edbff49100e9123df213f -->
<g id="edge15" class="edge">
<title>dir_09bf7f7c4011a5ccc426492db4dd0891&#45;&gt;dir_4ab6b4cc6a7edbff49100e9123df213f</title>
<path fill="none" stroke="#000000" d="M276.5006,-108.1451C298.5188,-146.1925 349.6125,-234.4825 375.4476,-279.1254"/>
<polygon fill="#000000" stroke="#000000" points="372.5194,-281.0534 380.5576,-287.9555 378.5781,-277.5472 372.5194,-281.0534"/>
<g id="a_edge15&#45;headlabel"><a xlink:href="dir_000142_000028.html" target="_top" xlink:title="3">
<text text-anchor="middle" x="368.2616" y="-276.8643" font-family="Helvetica,sans-Serif" font-size="10.00" fill="#000000">3</text>
</a>
</g>
</g>
<!-- dir_09bf7f7c4011a5ccc426492db4dd0891&#45;&gt;dir_6af676bf18881990e4083e191d0e63e0 -->
<g id="edge16" class="edge">
<title>dir_09bf7f7c4011a5ccc426492db4dd0891&#45;&gt;dir_6af676bf18881990e4083e191d0e63e0</title>
<path fill="none" stroke="#000000" d="M238.8254,-77.1278C214.1529,-65.4408 177.5749,-48.1144 150.3858,-35.2354"/>
<polygon fill="#000000" stroke="#000000" points="151.7308,-31.9997 141.1951,-30.8819 148.7342,-38.3259 151.7308,-31.9997"/>
<g id="a_edge16&#45;headlabel"><a xlink:href="dir_000142_000020.html" target="_top" xlink:title="1">
<text text-anchor="middle" x="156.1948" y="-28.4725" font-family="Helvetica,sans-Serif" font-size="10.00" fill="#000000">1</text>
</a>
</g>
</g>
<!-- dir_09bf7f7c4011a5ccc426492db4dd0891&#45;&gt;dir_37c90836491b695b472bf98d1be8336b -->
<g id="edge17" class="edge">
<title>dir_09bf7f7c4011a5ccc426492db4dd0891&#45;&gt;dir_37c90836491b695b472bf98d1be8336b</title>
<path fill="none" stroke="#000000" d="M293.2472,-79.2209C324.7,-66.778 376.5728,-46.2569 411.4949,-32.4416"/>
<polygon fill="#000000" stroke="#000000" points="412.8529,-35.6684 420.8641,-28.7351 410.2778,-29.1592 412.8529,-35.6684"/>
<g id="a_edge17&#45;headlabel"><a xlink:href="dir_000142_000275.html" target="_top" xlink:title="2">
<text text-anchor="middle" x="410.5548" y="-37.1308" font-family="Helvetica,sans-Serif" font-size="10.00" fill="#000000">2</text>
</a>
</g>
</g>
<!-- dir_09bf7f7c4011a5ccc426492db4dd0891&#45;&gt;dir_2171f7ec022c5423887b07c69b2f5b48 -->
<g id="edge18" class="edge">
<title>dir_09bf7f7c4011a5ccc426492db4dd0891&#45;&gt;dir_2171f7ec022c5423887b07c69b2f5b48</title>
<path fill="none" stroke="#000000" d="M293.0111,-98.8579C320.8794,-109.0551 364.7132,-126.1781 398.7173,-140.0221"/>
<polygon fill="#000000" stroke="#000000" points="397.4455,-143.2833 408.0261,-143.8314 400.0966,-136.8047 397.4455,-143.2833"/>
<g id="a_edge18&#45;headlabel"><a xlink:href="dir_000142_000077.html" target="_top" xlink:title="11">
<text text-anchor="middle" x="393.0433" y="-142.0497" font-family="Helvetica,sans-Serif" font-size="10.00" fill="#000000">11</text>
</a>
</g>
</g>
<!-- dir_bcbb2cf9a3d3d83e5515c82071a07177&#45;&gt;dir_4ab6b4cc6a7edbff49100e9123df213f -->
<g id="edge29" class="edge">
<title>dir_bcbb2cf9a3d3d83e5515c82071a07177&#45;&gt;dir_4ab6b4cc6a7edbff49100e9123df213f</title>
<path fill="none" stroke="#000000" d="M540.2436,-250.1498C508.9695,-262.8851 463.7486,-280.4422 431.2249,-292.4513"/>
<polygon fill="#000000" stroke="#000000" points="429.7543,-289.2625 421.5684,-295.9887 432.1622,-295.8354 429.7543,-289.2625"/>
<g id="a_edge29&#45;headlabel"><a xlink:href="dir_000014_000028.html" target="_top" xlink:title="8">
<text text-anchor="middle" x="432.153" y="-282.8601" font-family="Helvetica,sans-Serif" font-size="10.00" fill="#000000">8</text>
</a>
</g>
</g>
<!-- dir_bcbb2cf9a3d3d83e5515c82071a07177&#45;&gt;dir_8ba487e25de5ee77e05e9dce7582cb98 -->
<g id="edge30" class="edge">
<title>dir_bcbb2cf9a3d3d83e5515c82071a07177&#45;&gt;dir_8ba487e25de5ee77e05e9dce7582cb98</title>
<path fill="none" stroke="#000000" d="M580.9394,-215.7623C587.6207,-191.0928 599.6005,-146.8598 607.424,-117.9731"/>
<polygon fill="#000000" stroke="#000000" points="610.8648,-118.6569 610.1007,-108.0896 604.1082,-116.8269 610.8648,-118.6569"/>
<g id="a_edge30&#45;headlabel"><a xlink:href="dir_000014_000000.html" target="_top" xlink:title="1">
<text text-anchor="middle" x="612.6657" y="-120.3687" font-family="Helvetica,sans-Serif" font-size="10.00" fill="#000000">1</text>
</a>
</g>
</g>
<!-- dir_bcbb2cf9a3d3d83e5515c82071a07177&#45;&gt;dir_2171f7ec022c5423887b07c69b2f5b48 -->
<g id="edge31" class="edge">
<title>dir_bcbb2cf9a3d3d83e5515c82071a07177&#45;&gt;dir_2171f7ec022c5423887b07c69b2f5b48</title>
<path fill="none" stroke="#000000" d="M540.1692,-217.1192C522.285,-207.6334 500.8058,-195.6527 483.0362,-185.2859"/>
<polygon fill="#000000" stroke="#000000" points="484.5132,-182.0939 474.1206,-180.0336 480.9601,-188.1251 484.5132,-182.0939"/>
<g id="a_edge31&#45;headlabel"><a xlink:href="dir_000014_000077.html" target="_top" xlink:title="82">
<text text-anchor="middle" x="489.0515" y="-178.9721" font-family="Helvetica,sans-Serif" font-size="10.00" fill="#000000">82</text>
</a>
</g>
</g>
<!-- dir_5cb2a8e9fdbe67a11efb4176f60bf3d6&#45;&gt;dir_4ab6b4cc6a7edbff49100e9123df213f -->
<g id="edge32" class="edge">
<title>dir_5cb2a8e9fdbe67a11efb4176f60bf3d6&#45;&gt;dir_4ab6b4cc6a7edbff49100e9123df213f</title>
<path fill="none" stroke="#000000" d="M200.1727,-367.0647C240.661,-354.1085 308.0204,-332.5535 350.928,-318.8231"/>
<polygon fill="#000000" stroke="#000000" points="352.0279,-322.146 360.4854,-315.7647 349.8944,-315.479 352.0279,-322.146"/>
<g id="a_edge32&#45;headlabel"><a xlink:href="dir_000306_000028.html" target="_top" xlink:title="5">
<text text-anchor="middle" x="349.4697" y="-323.4456" font-family="Helvetica,sans-Serif" font-size="10.00" fill="#000000">5</text>
</a>
</g>
</g>
<!-- dir_5cb2a8e9fdbe67a11efb4176f60bf3d6&#45;&gt;dir_37c90836491b695b472bf98d1be8336b -->
<g id="edge33" class="edge">
<title>dir_5cb2a8e9fdbe67a11efb4176f60bf3d6&#45;&gt;dir_37c90836491b695b472bf98d1be8336b</title>
<path fill="none" stroke="#000000" d="M163.0246,-359.6849C155.3749,-305.3868 141.4024,-144.5612 230,-72 257.4888,-49.4868 356.3293,-31.6597 410.9942,-23.257"/>
<polygon fill="#000000" stroke="#000000" points="411.6157,-26.7029 420.9821,-21.751 410.5721,-19.7811 411.6157,-26.7029"/>
<g id="a_edge33&#45;headlabel"><a xlink:href="dir_000306_000275.html" target="_top" xlink:title="2">
<text text-anchor="middle" x="408.4846" y="-27.5463" font-family="Helvetica,sans-Serif" font-size="10.00" fill="#000000">2</text>
</a>
</g>
</g>
<!-- dir_5cb2a8e9fdbe67a11efb4176f60bf3d6&#45;&gt;dir_09bf7f7c4011a5ccc426492db4dd0891 -->
<g id="edge34" class="edge">
<title>dir_5cb2a8e9fdbe67a11efb4176f60bf3d6&#45;&gt;dir_09bf7f7c4011a5ccc426492db4dd0891</title>
<path fill="none" stroke="#000000" d="M166.3408,-359.8437C167.8042,-318.9342 175.3739,-217.3987 214,-144 219.5786,-133.3993 227.8674,-123.4411 236.1965,-115.0336"/>
<polygon fill="#000000" stroke="#000000" points="238.6653,-117.5154 243.4593,-108.0672 233.8197,-112.4636 238.6653,-117.5154"/>
<g id="a_edge34&#45;headlabel"><a xlink:href="dir_000306_000142.html" target="_top" xlink:title="31">
<text text-anchor="middle" x="238.0366" y="-119.5527" font-family="Helvetica,sans-Serif" font-size="10.00" fill="#000000">31</text>
</a>
</g>
</g>
<!-- dir_5cb2a8e9fdbe67a11efb4176f60bf3d6&#45;&gt;dir_2171f7ec022c5423887b07c69b2f5b48 -->
<g id="edge35" class="edge">
<title>dir_5cb2a8e9fdbe67a11efb4176f60bf3d6&#45;&gt;dir_2171f7ec022c5423887b07c69b2f5b48</title>
<path fill="none" stroke="#000000" d="M180.3491,-359.809C206.6939,-327.3713 265.8043,-258.9282 328,-216 349.5516,-201.1248 375.8616,-188.7444 398.3481,-179.6068"/>
<polygon fill="#000000" stroke="#000000" points="399.7182,-182.8288 407.726,-175.8915 397.1399,-176.3209 399.7182,-182.8288"/>
<g id="a_edge35&#45;headlabel"><a xlink:href="dir_000306_000077.html" target="_top" xlink:title="7">
<text text-anchor="middle" x="397.4221" y="-184.2923" font-family="Helvetica,sans-Serif" font-size="10.00" fill="#000000">7</text>
</a>
</g>
</g>
<!-- dir_2171f7ec022c5423887b07c69b2f5b48&#45;&gt;dir_4ab6b4cc6a7edbff49100e9123df213f -->
<g id="edge36" class="edge">
<title>dir_2171f7ec022c5423887b07c69b2f5b48&#45;&gt;dir_4ab6b4cc6a7edbff49100e9123df213f</title>
<path fill="none" stroke="#000000" d="M445.4978,-180.0896C438.1798,-204.8962 420.7099,-249.6824 407.2738,-278.6113"/>
<polygon fill="#000000" stroke="#000000" points="404.054,-277.2313 402.8923,-287.7623 410.3676,-280.2543 404.054,-277.2313"/>
<g id="a_edge36&#45;headlabel"><a xlink:href="dir_000077_000028.html" target="_top" xlink:title="35">
<text text-anchor="middle" x="403.0454" y="-270.2631" font-family="Helvetica,sans-Serif" font-size="10.00" fill="#000000">35</text>
</a>
</g>
</g>
<!-- dir_2171f7ec022c5423887b07c69b2f5b48&#45;&gt;dir_37c90836491b695b472bf98d1be8336b -->
<g id="edge37" class="edge">
<title>dir_2171f7ec022c5423887b07c69b2f5b48&#45;&gt;dir_37c90836491b695b472bf98d1be8336b</title>
<path fill="none" stroke="#000000" d="M443.3268,-143.7623C440.867,-119.201 440.5923,-75.2474 442.5026,-46.3541"/>
<polygon fill="#000000" stroke="#000000" points="446.0152,-46.3416 443.3417,-36.0896 439.0385,-45.7712 446.0152,-46.3416"/>
<g id="a_edge37&#45;headlabel"><a xlink:href="dir_000077_000275.html" target="_top" xlink:title="1">
<text text-anchor="middle" x="448.5522" y="-47.6556" font-family="Helvetica,sans-Serif" font-size="10.00" fill="#000000">1</text>
</a>
</g>
</g>
<!-- dir_2171f7ec022c5423887b07c69b2f5b48&#45;&gt;dir_8ba487e25de5ee77e05e9dce7582cb98 -->
<g id="edge38" class="edge">
<title>dir_2171f7ec022c5423887b07c69b2f5b48&#45;&gt;dir_8ba487e25de5ee77e05e9dce7582cb98</title>
<path fill="none" stroke="#000000" d="M484.1888,-143.8314C510.3545,-132.0555 545.6575,-116.8742 573.0505,-105.6371"/>
<polygon fill="#000000" stroke="#000000" points="574.4393,-108.8507 582.3819,-101.8389 571.8003,-102.3672 574.4393,-108.8507"/>
<g id="a_edge38&#45;headlabel"><a xlink:href="dir_000077_000000.html" target="_top" xlink:title="2">
<text text-anchor="middle" x="572.1803" y="-110.3356" font-family="Helvetica,sans-Serif" font-size="10.00" fill="#000000">2</text>
</a>
</g>
</g>
<!-- dir_2171f7ec022c5423887b07c69b2f5b48&#45;&gt;dir_09bf7f7c4011a5ccc426492db4dd0891 -->
<g id="edge39" class="edge">
<title>dir_2171f7ec022c5423887b07c69b2f5b48&#45;&gt;dir_09bf7f7c4011a5ccc426492db4dd0891</title>
<path fill="none" stroke="#000000" d="M407.904,-148.2879C376.4106,-136.4698 333.0587,-119.3684 302.5193,-106.7439"/>
<polygon fill="#000000" stroke="#000000" points="303.6625,-103.4287 293.0854,-102.8148 300.9711,-109.8906 303.6625,-103.4287"/>
<g id="a_edge39&#45;headlabel"><a xlink:href="dir_000077_000142.html" target="_top" xlink:title="1">
<text text-anchor="middle" x="308.0724" y="-99.6897" font-family="Helvetica,sans-Serif" font-size="10.00" fill="#000000">1</text>
</a>
</g>
</g>
<!-- dir_2171f7ec022c5423887b07c69b2f5b48&#45;&gt;dir_bcbb2cf9a3d3d83e5515c82071a07177 -->
<g id="edge40" class="edge">
<title>dir_2171f7ec022c5423887b07c69b2f5b48&#45;&gt;dir_bcbb2cf9a3d3d83e5515c82071a07177</title>
<path fill="none" stroke="#000000" d="M486.2413,-180.1628C503.5095,-189.3712 523.7244,-200.6631 540.6365,-210.5232"/>
<polygon fill="#000000" stroke="#000000" points="539.2594,-213.774 549.6526,-215.8314 542.8109,-207.7417 539.2594,-213.774"/>
<g id="a_edge40&#45;headlabel"><a xlink:href="dir_000077_000014.html" target="_top" xlink:title="12">
<text text-anchor="middle" x="534.7213" y="-211.897" font-family="Helvetica,sans-Serif" font-size="10.00" fill="#000000">12</text>
</a>
</g>
</g>
<!-- dir_11da180be91271a1ebdaa9322b1ad99a&#45;&gt;dir_6af676bf18881990e4083e191d0e63e0 -->
<g id="edge41" class="edge">
<title>dir_11da180be91271a1ebdaa9322b1ad99a&#45;&gt;dir_6af676bf18881990e4083e191d0e63e0</title>
<path fill="none" stroke="#000000" d="M291.8369,-445.2829C244.4177,-436.6059 149.0898,-417.0627 123,-396 87.8882,-367.6538 76,-351.1259 76,-306 76,-306 76,-306 76,-162 76,-120.3681 91.0328,-74.14 102.1881,-45.567"/>
<polygon fill="#000000" stroke="#000000" points="105.4578,-46.817 105.9412,-36.2332 98.9632,-44.2055 105.4578,-46.817"/>
<g id="a_edge41&#45;headlabel"><a xlink:href="dir_000630_000020.html" target="_top" xlink:title="1">
<text text-anchor="middle" x="106.7511" y="-48.7113" font-family="Helvetica,sans-Serif" font-size="10.00" fill="#000000">1</text>
</a>
</g>
</g>
<!-- dir_11da180be91271a1ebdaa9322b1ad99a&#45;&gt;dir_09bf7f7c4011a5ccc426492db4dd0891 -->
<g id="edge42" class="edge">
<title>dir_11da180be91271a1ebdaa9322b1ad99a&#45;&gt;dir_09bf7f7c4011a5ccc426492db4dd0891</title>
<path fill="none" stroke="#000000" d="M297.894,-431.8504C271.0117,-406.5934 228,-358.0495 228,-306 228,-306 228,-306 228,-234 228,-192.3681 243.0328,-146.14 254.1881,-117.567"/>
<polygon fill="#000000" stroke="#000000" points="257.4578,-118.817 257.9412,-108.2332 250.9632,-116.2055 257.4578,-118.817"/>
<g id="a_edge42&#45;headlabel"><a xlink:href="dir_000630_000142.html" target="_top" xlink:title="7">
<text text-anchor="middle" x="258.7511" y="-120.7113" font-family="Helvetica,sans-Serif" font-size="10.00" fill="#000000">7</text>
</a>
</g>
</g>
<!-- dir_11da180be91271a1ebdaa9322b1ad99a&#45;&gt;dir_bcbb2cf9a3d3d83e5515c82071a07177 -->
<g id="edge43" class="edge">
<title>dir_11da180be91271a1ebdaa9322b1ad99a&#45;&gt;dir_bcbb2cf9a3d3d83e5515c82071a07177</title>
<path fill="none" stroke="#000000" d="M340.4696,-431.9555C386.3894,-393.3614 494.208,-302.7435 546.5111,-258.7845"/>
<polygon fill="#000000" stroke="#000000" points="549.0073,-261.2585 554.4107,-252.1451 544.5035,-255.8998 549.0073,-261.2585"/>
<g id="a_edge43&#45;headlabel"><a xlink:href="dir_000630_000014.html" target="_top" xlink:title="8">
<text text-anchor="middle" x="548.0824" y="-263.2448" font-family="Helvetica,sans-Serif" font-size="10.00" fill="#000000">8</text>
</a>
</g>
</g>
<!-- dir_11da180be91271a1ebdaa9322b1ad99a&#45;&gt;dir_5cb2a8e9fdbe67a11efb4176f60bf3d6 -->
<g id="edge44" class="edge">
<title>dir_11da180be91271a1ebdaa9322b1ad99a&#45;&gt;dir_5cb2a8e9fdbe67a11efb4176f60bf3d6</title>
<path fill="none" stroke="#000000" d="M291.9989,-437.2936C269.1304,-426.532 235.92,-410.9035 209.3356,-398.3932"/>
<polygon fill="#000000" stroke="#000000" points="210.775,-395.2024 200.2365,-394.1113 207.7944,-401.5362 210.775,-395.2024"/>
<g id="a_edge44&#45;headlabel"><a xlink:href="dir_000630_000306.html" target="_top" xlink:title="2">
<text text-anchor="middle" x="215.2364" y="-391.6639" font-family="Helvetica,sans-Serif" font-size="10.00" fill="#000000">2</text>
</a>
</g>
</g>
<!-- dir_11da180be91271a1ebdaa9322b1ad99a&#45;&gt;dir_2171f7ec022c5423887b07c69b2f5b48 -->
<g id="edge45" class="edge">
<title>dir_11da180be91271a1ebdaa9322b1ad99a&#45;&gt;dir_2171f7ec022c5423887b07c69b2f5b48</title>
<path fill="none" stroke="#000000" d="M319.8976,-431.6794C321.9951,-400.7624 328.8686,-336.8286 351,-288 368.5849,-249.2023 400.211,-211.3994 422.5635,-187.487"/>
<polygon fill="#000000" stroke="#000000" points="425.1115,-189.8866 429.4654,-180.2277 420.0385,-185.0633 425.1115,-189.8866"/>
<g id="a_edge45&#45;headlabel"><a xlink:href="dir_000630_000077.html" target="_top" xlink:title="4">
<text text-anchor="middle" x="424.6924" y="-191.948" font-family="Helvetica,sans-Serif" font-size="10.00" fill="#000000">4</text>
</a>
</g>
</g>
</g>
</svg>
