<?xml version="1.0" encoding="UTF-8" standalone="no"?>
<!DOCTYPE svg PUBLIC "-//W3C//DTD SVG 1.1//EN"
 "http://www.w3.org/Graphics/SVG/1.1/DTD/svg11.dtd">
<!-- Generated by graphviz version 2.40.1 (20161225.0304)
 -->
<!-- Title: /home/travis/build/AliceO2Group/AliceO2/Detectors/TRD Pages: 1 -->
<!--zoomable 591 -->
<svg id="main" version="1.1" xmlns="http://www.w3.org/2000/svg" xmlns:xlink="http://www.w3.org/1999/xlink" xml:space="preserve" onload="init(evt)">
<style type="text/css"><![CDATA[
.edge:hover path { stroke: red; }
.edge:hover polygon { stroke: red; fill: red; }
]]></style>
<script type="text/javascript"><![CDATA[
var edges = document.getElementsByTagName('g');
if (edges && edges.length) {
  for (var i=0;i<edges.length;i++) {
    if (edges[i].id.substr(0,4)=='edge') {
      edges[i].setAttribute('class','edge');
    }
  }
}
]]></script>
        <defs>
                <circle id="rim" cx="0" cy="0" r="7"/>
                <circle id="rim2" cx="0" cy="0" r="3.5"/>
                <g id="zoomPlus">
                        <use xlink:href="#rim" fill="#404040">
                                <set attributeName="fill" to="#808080" begin="zoomplus.mouseover" end="zoomplus.mouseout"/>
                        </use>
                        <path d="M-4,0h8M0,-4v8" fill="none" stroke="white" stroke-width="1.5" pointer-events="none"/>
                </g>
                <g id="zoomMin">
                        <use xlink:href="#rim" fill="#404040">
                                <set attributeName="fill" to="#808080" begin="zoomminus.mouseover" end="zoomminus.mouseout"/>
                        </use>
                        <path d="M-4,0h8" fill="none" stroke="white" stroke-width="1.5" pointer-events="none"/>
                </g>
                <g id="dirArrow">
                        <path fill="none" stroke="white" stroke-width="1.5" d="M0,-3.0v7 M-2.5,-0.5L0,-3.0L2.5,-0.5"/>
                </g>
               <g id="resetDef">
                       <use xlink:href="#rim2" fill="#404040">
                               <set attributeName="fill" to="#808080" begin="reset.mouseover" end="reset.mouseout"/>
                       </use>
               </g>
        </defs>

<script type="text/javascript">
var viewWidth = 724;
var viewHeight = 591;
var sectionId = 'dynsection-0';
</script>
<script xlink:href="svgpan.js"/>
<svg id="graph" class="graph">
<g id="viewport">
<title>/home/travis/build/AliceO2Group/AliceO2/Detectors/TRD</title>
<g id="clust1" class="cluster">
<title>clusterdir_051dca18e802f8e9474f2e30d29c04e0</title>
<g id="a_clust1"><a xlink:href="dir_051dca18e802f8e9474f2e30d29c04e0.html" target="_top" xlink:title="Detectors">
<polygon fill="#ddddee" stroke="#000000" points="142,-344 142,-575 308,-575 308,-344 142,-344"/>
<text text-anchor="middle" x="225" y="-563" font-family="Helvetica,sans-Serif" font-size="10.00" fill="#000000">Detectors</text>
</a>
</g>
</g>
<g id="clust2" class="cluster">
<title>clusterdir_69dd0583e11051991bf4c0cf23c50933</title>
<g id="a_clust2"><a xlink:href="dir_69dd0583e11051991bf4c0cf23c50933.html" target="_top">
<polygon fill="#eeeeff" stroke="#000000" points="150,-352 150,-548 300,-548 300,-352 150,-352"/>
</a>
</g>
</g>
<!-- dir_69dd0583e11051991bf4c0cf23c50933 -->
<g id="node1" class="node">
<title>dir_69dd0583e11051991bf4c0cf23c50933</title>
<text text-anchor="middle" x="265" y="-519.5" font-family="Helvetica,sans-Serif" font-size="10.00" fill="#000000">TRD</text>
</g>
<!-- dir_09bf7f7c4011a5ccc426492db4dd0891 -->
<g id="node2" class="node">
<title>dir_09bf7f7c4011a5ccc426492db4dd0891</title>
<g id="a_node2"><a xlink:href="dir_09bf7f7c4011a5ccc426492db4dd0891.html" target="_top" xlink:title="base">
<polygon fill="#ffffff" stroke="#ff0000" points="264,-396 210,-396 210,-360 264,-360 264,-396"/>
<text text-anchor="middle" x="237" y="-375.5" font-family="Helvetica,sans-Serif" font-size="10.00" fill="#000000">base</text>
</a>
</g>
</g>
<!-- dir_4ab6b4cc6a7edbff49100e9123df213f -->
<g id="node6" class="node">
<title>dir_4ab6b4cc6a7edbff49100e9123df213f</title>
<g id="a_node6"><a xlink:href="dir_4ab6b4cc6a7edbff49100e9123df213f.html" target="_top" xlink:title="Common">
<polygon fill="none" stroke="#ff0000" points="377.5,-396 316.5,-396 316.5,-360 377.5,-360 377.5,-396"/>
<text text-anchor="middle" x="347" y="-375.5" font-family="Helvetica,sans-Serif" font-size="10.00" fill="#000000">Common</text>
</a>
</g>
</g>
<!-- dir_09bf7f7c4011a5ccc426492db4dd0891&#45;&gt;dir_4ab6b4cc6a7edbff49100e9123df213f -->
<g id="edge26" class="edge">
<title>dir_09bf7f7c4011a5ccc426492db4dd0891&#45;&gt;dir_4ab6b4cc6a7edbff49100e9123df213f</title>
<path fill="none" stroke="#000000" d="M264.0703,-378C278.0598,-378 292.0493,-378 306.0388,-378"/>
<polygon fill="#000000" stroke="#000000" points="306.2253,-381.5001 316.2253,-378 306.2253,-374.5001 306.2253,-381.5001"/>
<g id="a_edge26&#45;headlabel"><a xlink:href="dir_000142_000028.html" target="_top" xlink:title="3">
<text text-anchor="middle" x="302.6307" y="-381.8393" font-family="Helvetica,sans-Serif" font-size="10.00" fill="#000000">3</text>
</a>
</g>
</g>
<!-- dir_6af676bf18881990e4083e191d0e63e0 -->
<g id="node7" class="node">
<title>dir_6af676bf18881990e4083e191d0e63e0</title>
<g id="a_node7"><a xlink:href="dir_6af676bf18881990e4083e191d0e63e0.html" target="_top" xlink:title="CCDB">
<polygon fill="none" stroke="#ff0000" points="372,-468 318,-468 318,-432 372,-432 372,-468"/>
<text text-anchor="middle" x="345" y="-447.5" font-family="Helvetica,sans-Serif" font-size="10.00" fill="#000000">CCDB</text>
</a>
</g>
</g>
<!-- dir_09bf7f7c4011a5ccc426492db4dd0891&#45;&gt;dir_6af676bf18881990e4083e191d0e63e0 -->
<g id="edge27" class="edge">
<title>dir_09bf7f7c4011a5ccc426492db4dd0891&#45;&gt;dir_6af676bf18881990e4083e191d0e63e0</title>
<path fill="none" stroke="#000000" d="M264.2442,-396.1628C277.9289,-405.2859 294.6812,-416.4541 309.3734,-426.2489"/>
<polygon fill="#000000" stroke="#000000" points="307.4851,-429.1965 317.747,-431.8314 311.368,-423.3721 307.4851,-429.1965"/>
<g id="a_edge27&#45;headlabel"><a xlink:href="dir_000142_000020.html" target="_top" xlink:title="1">
<text text-anchor="middle" x="302.9192" y="-427.065" font-family="Helvetica,sans-Serif" font-size="10.00" fill="#000000">1</text>
</a>
</g>
</g>
<!-- dir_37c90836491b695b472bf98d1be8336b -->
<g id="node8" class="node">
<title>dir_37c90836491b695b472bf98d1be8336b</title>
<g id="a_node8"><a xlink:href="dir_37c90836491b695b472bf98d1be8336b.html" target="_top" xlink:title="Base">
<polygon fill="none" stroke="#ff0000" points="397,-180 343,-180 343,-144 397,-144 397,-180"/>
<text text-anchor="middle" x="370" y="-159.5" font-family="Helvetica,sans-Serif" font-size="10.00" fill="#000000">Base</text>
</a>
</g>
</g>
<!-- dir_09bf7f7c4011a5ccc426492db4dd0891&#45;&gt;dir_37c90836491b695b472bf98d1be8336b -->
<g id="edge28" class="edge">
<title>dir_09bf7f7c4011a5ccc426492db4dd0891&#45;&gt;dir_37c90836491b695b472bf98d1be8336b</title>
<path fill="none" stroke="#000000" d="M234.8019,-359.7097C233.4061,-340.4758 233.87,-310.0061 247,-288 261.4026,-263.861 278.5136,-271.2466 299,-252 319.4103,-232.8249 338.8344,-207.5375 352.1898,-188.6508"/>
<polygon fill="#000000" stroke="#000000" points="355.2242,-190.4176 358.0583,-180.2088 349.4765,-186.422 355.2242,-190.4176"/>
<g id="a_edge28&#45;headlabel"><a xlink:href="dir_000142_000275.html" target="_top" xlink:title="2">
<text text-anchor="middle" x="355.5038" y="-192.4897" font-family="Helvetica,sans-Serif" font-size="10.00" fill="#000000">2</text>
</a>
</g>
</g>
<!-- dir_f511f1e9c03c071966ae594f00bbc5e0 -->
<g id="node10" class="node">
<title>dir_f511f1e9c03c071966ae594f00bbc5e0</title>
<g id="a_node10"><a xlink:href="dir_f511f1e9c03c071966ae594f00bbc5e0.html" target="_top" xlink:title="GPU">
<polygon fill="none" stroke="#ff0000" points="310,-324 256,-324 256,-288 310,-288 310,-324"/>
<text text-anchor="middle" x="283" y="-303.5" font-family="Helvetica,sans-Serif" font-size="10.00" fill="#000000">GPU</text>
</a>
</g>
</g>
<!-- dir_09bf7f7c4011a5ccc426492db4dd0891&#45;&gt;dir_f511f1e9c03c071966ae594f00bbc5e0 -->
<g id="edge29" class="edge">
<title>dir_09bf7f7c4011a5ccc426492db4dd0891&#45;&gt;dir_f511f1e9c03c071966ae594f00bbc5e0</title>
<path fill="none" stroke="#000000" d="M248.6077,-359.8314C253.7978,-351.7079 260.0232,-341.9637 265.7425,-333.0118"/>
<polygon fill="#000000" stroke="#000000" points="268.8015,-334.7246 271.236,-324.4133 262.9026,-330.9559 268.8015,-334.7246"/>
<g id="a_edge29&#45;headlabel"><a xlink:href="dir_000142_000690.html" target="_top" xlink:title="8">
<text text-anchor="middle" x="269.2589" y="-336.7824" font-family="Helvetica,sans-Serif" font-size="10.00" fill="#000000">8</text>
</a>
</g>
</g>
<!-- dir_2171f7ec022c5423887b07c69b2f5b48 -->
<g id="node12" class="node">
<title>dir_2171f7ec022c5423887b07c69b2f5b48</title>
<g id="a_node12"><a xlink:href="dir_2171f7ec022c5423887b07c69b2f5b48.html" target="_top" xlink:title="DataFormats">
<polygon fill="none" stroke="#ff0000" points="290,-252 210,-252 210,-216 290,-216 290,-252"/>
<text text-anchor="middle" x="250" y="-231.5" font-family="Helvetica,sans-Serif" font-size="10.00" fill="#000000">DataFormats</text>
</a>
</g>
</g>
<!-- dir_09bf7f7c4011a5ccc426492db4dd0891&#45;&gt;dir_2171f7ec022c5423887b07c69b2f5b48 -->
<g id="edge30" class="edge">
<title>dir_09bf7f7c4011a5ccc426492db4dd0891&#45;&gt;dir_2171f7ec022c5423887b07c69b2f5b48</title>
<path fill="none" stroke="#000000" d="M209.8628,-361.8061C197.0386,-352.522 183.0267,-339.6048 176,-324 169.4306,-309.4108 168.751,-302.2637 176,-288 182.1439,-275.9109 192.4043,-265.8843 203.3574,-257.8874"/>
<polygon fill="#000000" stroke="#000000" points="205.4907,-260.6699 211.8117,-252.1672 201.568,-254.8723 205.4907,-260.6699"/>
<g id="a_edge30&#45;headlabel"><a xlink:href="dir_000142_000077.html" target="_top" xlink:title="11">
<text text-anchor="middle" x="204.1046" y="-262.5358" font-family="Helvetica,sans-Serif" font-size="10.00" fill="#000000">11</text>
</a>
</g>
</g>
<!-- dir_5cb2a8e9fdbe67a11efb4176f60bf3d6 -->
<g id="node3" class="node">
<title>dir_5cb2a8e9fdbe67a11efb4176f60bf3d6</title>
<g id="a_node3"><a xlink:href="dir_5cb2a8e9fdbe67a11efb4176f60bf3d6.html" target="_top" xlink:title="simulation">
<polygon fill="#ffffff" stroke="#ff0000" points="226,-468 158,-468 158,-432 226,-432 226,-468"/>
<text text-anchor="middle" x="192" y="-447.5" font-family="Helvetica,sans-Serif" font-size="10.00" fill="#000000">simulation</text>
</a>
</g>
</g>
<!-- dir_5cb2a8e9fdbe67a11efb4176f60bf3d6&#45;&gt;dir_09bf7f7c4011a5ccc426492db4dd0891 -->
<g id="edge38" class="edge">
<title>dir_5cb2a8e9fdbe67a11efb4176f60bf3d6&#45;&gt;dir_09bf7f7c4011a5ccc426492db4dd0891</title>
<path fill="none" stroke="#000000" d="M203.3554,-431.8314C208.4326,-423.7079 214.5227,-413.9637 220.1176,-405.0118"/>
<polygon fill="#000000" stroke="#000000" points="223.1597,-406.7483 225.4917,-396.4133 217.2237,-403.0383 223.1597,-406.7483"/>
<g id="a_edge38&#45;headlabel"><a xlink:href="dir_000306_000142.html" target="_top" xlink:title="31">
<text text-anchor="middle" x="223.6623" y="-408.8013" font-family="Helvetica,sans-Serif" font-size="10.00" fill="#000000">31</text>
</a>
</g>
</g>
<!-- dir_5cb2a8e9fdbe67a11efb4176f60bf3d6&#45;&gt;dir_4ab6b4cc6a7edbff49100e9123df213f -->
<g id="edge36" class="edge">
<title>dir_5cb2a8e9fdbe67a11efb4176f60bf3d6&#45;&gt;dir_4ab6b4cc6a7edbff49100e9123df213f</title>
<path fill="none" stroke="#000000" d="M226.0154,-434.1993C249.9584,-423.0774 282.0884,-408.1525 307.2199,-396.4785"/>
<polygon fill="#000000" stroke="#000000" points="308.8827,-399.5654 316.4775,-392.1782 305.9336,-393.2168 308.8827,-399.5654"/>
<g id="a_edge36&#45;headlabel"><a xlink:href="dir_000306_000028.html" target="_top" xlink:title="5">
<text text-anchor="middle" x="306.8187" y="-401.1547" font-family="Helvetica,sans-Serif" font-size="10.00" fill="#000000">5</text>
</a>
</g>
</g>
<!-- dir_5cb2a8e9fdbe67a11efb4176f60bf3d6&#45;&gt;dir_37c90836491b695b472bf98d1be8336b -->
<g id="edge37" class="edge">
<title>dir_5cb2a8e9fdbe67a11efb4176f60bf3d6&#45;&gt;dir_37c90836491b695b472bf98d1be8336b</title>
<path fill="none" stroke="#000000" d="M173.396,-431.8067C164.7967,-422.0891 155.5063,-409.3872 151,-396 135.6868,-350.5082 136.6549,-333.8063 151,-288 162.6432,-250.8212 169.6706,-239.1581 201,-216 240.452,-186.8378 296.2324,-173.0601 332.7508,-166.8119"/>
<polygon fill="#000000" stroke="#000000" points="333.648,-170.2129 342.968,-165.1741 332.54,-163.3011 333.648,-170.2129"/>
<g id="a_edge37&#45;headlabel"><a xlink:href="dir_000306_000275.html" target="_top" xlink:title="2">
<text text-anchor="middle" x="330.5481" y="-171.0852" font-family="Helvetica,sans-Serif" font-size="10.00" fill="#000000">2</text>
</a>
</g>
</g>
<!-- dir_5cb2a8e9fdbe67a11efb4176f60bf3d6&#45;&gt;dir_2171f7ec022c5423887b07c69b2f5b48 -->
<g id="edge39" class="edge">
<title>dir_5cb2a8e9fdbe67a11efb4176f60bf3d6&#45;&gt;dir_2171f7ec022c5423887b07c69b2f5b48</title>
<path fill="none" stroke="#000000" d="M182.0394,-431.7309C166.3894,-400.338 140.3387,-335.0029 166,-288 173.7689,-273.77 187.0709,-262.7305 200.8269,-254.4494"/>
<polygon fill="#000000" stroke="#000000" points="202.8506,-257.3284 209.8786,-249.4001 199.4404,-251.2152 202.8506,-257.3284"/>
<g id="a_edge39&#45;headlabel"><a xlink:href="dir_000306_000077.html" target="_top" xlink:title="7">
<text text-anchor="middle" x="201.0945" y="-259.0591" font-family="Helvetica,sans-Serif" font-size="10.00" fill="#000000">7</text>
</a>
</g>
</g>
<!-- dir_184e1d06e85fb151746c3bdf717cc8ad -->
<g id="node4" class="node">
<title>dir_184e1d06e85fb151746c3bdf717cc8ad</title>
<g id="a_node4"><a xlink:href="dir_184e1d06e85fb151746c3bdf717cc8ad.html" target="_top" xlink:title="workflow">
<polygon fill="#ffffff" stroke="#ff0000" points="219.5,-540 158.5,-540 158.5,-504 219.5,-504 219.5,-540"/>
<text text-anchor="middle" x="189" y="-519.5" font-family="Helvetica,sans-Serif" font-size="10.00" fill="#000000">workflow</text>
</a>
</g>
</g>
<!-- dir_184e1d06e85fb151746c3bdf717cc8ad&#45;&gt;dir_09bf7f7c4011a5ccc426492db4dd0891 -->
<g id="edge17" class="edge">
<title>dir_184e1d06e85fb151746c3bdf717cc8ad&#45;&gt;dir_09bf7f7c4011a5ccc426492db4dd0891</title>
<path fill="none" stroke="#000000" d="M210.1809,-503.6814C219.6504,-494.1146 229.8278,-481.5806 235,-468 242.4864,-448.3431 242.654,-424.4796 241.129,-406.2654"/>
<polygon fill="#000000" stroke="#000000" points="244.6045,-405.8478 240.078,-396.2685 237.6428,-406.5797 244.6045,-405.8478"/>
<g id="a_edge17&#45;headlabel"><a xlink:href="dir_000629_000142.html" target="_top" xlink:title="18">
<text text-anchor="middle" x="247.8039" y="-406.6258" font-family="Helvetica,sans-Serif" font-size="10.00" fill="#000000">18</text>
</a>
</g>
</g>
<!-- dir_184e1d06e85fb151746c3bdf717cc8ad&#45;&gt;dir_5cb2a8e9fdbe67a11efb4176f60bf3d6 -->
<g id="edge19" class="edge">
<title>dir_184e1d06e85fb151746c3bdf717cc8ad&#45;&gt;dir_5cb2a8e9fdbe67a11efb4176f60bf3d6</title>
<path fill="none" stroke="#000000" d="M189.757,-503.8314C190.0779,-496.131 190.4594,-486.9743 190.816,-478.4166"/>
<polygon fill="#000000" stroke="#000000" points="194.3133,-478.5503 191.2328,-468.4133 187.3194,-478.2589 194.3133,-478.5503"/>
<g id="a_edge19&#45;headlabel"><a xlink:href="dir_000629_000306.html" target="_top" xlink:title="10">
<text text-anchor="middle" x="197.0006" y="-479.76" font-family="Helvetica,sans-Serif" font-size="10.00" fill="#000000">10</text>
</a>
</g>
</g>
<!-- dir_40b4a122691869ee86baf7f2711ed718 -->
<g id="node5" class="node">
<title>dir_40b4a122691869ee86baf7f2711ed718</title>
<g id="a_node5"><a xlink:href="dir_40b4a122691869ee86baf7f2711ed718.html" target="_top" xlink:title="Steer">
<polygon fill="none" stroke="#ff0000" points="506,-468 452,-468 452,-432 506,-432 506,-468"/>
<text text-anchor="middle" x="479" y="-447.5" font-family="Helvetica,sans-Serif" font-size="10.00" fill="#000000">Steer</text>
</a>
</g>
</g>
<!-- dir_184e1d06e85fb151746c3bdf717cc8ad&#45;&gt;dir_40b4a122691869ee86baf7f2711ed718 -->
<g id="edge12" class="edge">
<title>dir_184e1d06e85fb151746c3bdf717cc8ad&#45;&gt;dir_40b4a122691869ee86baf7f2711ed718</title>
<path fill="none" stroke="#000000" d="M219.5654,-504.1438C219.7105,-504.0955 219.8553,-504.0476 220,-504 260.372,-490.72 380.1522,-467.1068 441.7739,-456.0393"/>
<polygon fill="#000000" stroke="#000000" points="442.6238,-459.4432 451.858,-454.2489 441.4001,-452.551 442.6238,-459.4432"/>
<g id="a_edge12&#45;headlabel"><a xlink:href="dir_000629_000727.html" target="_top" xlink:title="3">
<text text-anchor="middle" x="439.5809" y="-460.3671" font-family="Helvetica,sans-Serif" font-size="10.00" fill="#000000">3</text>
</a>
</g>
</g>
<!-- dir_184e1d06e85fb151746c3bdf717cc8ad&#45;&gt;dir_4ab6b4cc6a7edbff49100e9123df213f -->
<g id="edge13" class="edge">
<title>dir_184e1d06e85fb151746c3bdf717cc8ad&#45;&gt;dir_4ab6b4cc6a7edbff49100e9123df213f</title>
<path fill="none" stroke="#000000" d="M209.0108,-503.7623C237.0284,-478.2272 288.0445,-431.7316 319.5798,-402.9906"/>
<polygon fill="#000000" stroke="#000000" points="322.1183,-405.4125 327.1517,-396.0896 317.4031,-400.2389 322.1183,-405.4125"/>
<g id="a_edge13&#45;headlabel"><a xlink:href="dir_000629_000028.html" target="_top" xlink:title="1">
<text text-anchor="middle" x="321.3741" y="-407.4323" font-family="Helvetica,sans-Serif" font-size="10.00" fill="#000000">1</text>
</a>
</g>
</g>
<!-- dir_184e1d06e85fb151746c3bdf717cc8ad&#45;&gt;dir_6af676bf18881990e4083e191d0e63e0 -->
<g id="edge14" class="edge">
<title>dir_184e1d06e85fb151746c3bdf717cc8ad&#45;&gt;dir_6af676bf18881990e4083e191d0e63e0</title>
<path fill="none" stroke="#000000" d="M219.8206,-507.7751C245.3971,-495.9706 281.8144,-479.1626 308.7802,-466.7168"/>
<polygon fill="#000000" stroke="#000000" points="310.278,-469.8804 317.8909,-462.5119 307.3446,-463.5247 310.278,-469.8804"/>
<g id="a_edge14&#45;headlabel"><a xlink:href="dir_000629_000020.html" target="_top" xlink:title="2">
<text text-anchor="middle" x="308.2041" y="-471.4646" font-family="Helvetica,sans-Serif" font-size="10.00" fill="#000000">2</text>
</a>
</g>
</g>
<!-- dir_184e1d06e85fb151746c3bdf717cc8ad&#45;&gt;dir_37c90836491b695b472bf98d1be8336b -->
<g id="edge15" class="edge">
<title>dir_184e1d06e85fb151746c3bdf717cc8ad&#45;&gt;dir_37c90836491b695b472bf98d1be8336b</title>
<path fill="none" stroke="#000000" d="M219.6685,-507.109C222.7756,-505.9316 225.921,-504.8655 229,-504 290.6669,-486.665 472.6275,-516.0404 515,-468 592.7534,-379.8459 460.5934,-242.726 398.9924,-186.9067"/>
<polygon fill="#000000" stroke="#000000" points="401.2839,-184.2605 391.4976,-180.2009 396.6163,-189.4772 401.2839,-184.2605"/>
<g id="a_edge15&#45;headlabel"><a xlink:href="dir_000629_000275.html" target="_top" xlink:title="3">
<text text-anchor="middle" x="405.8559" y="-182.0413" font-family="Helvetica,sans-Serif" font-size="10.00" fill="#000000">3</text>
</a>
</g>
</g>
<!-- dir_8ba487e25de5ee77e05e9dce7582cb98 -->
<g id="node9" class="node">
<title>dir_8ba487e25de5ee77e05e9dce7582cb98</title>
<g id="a_node9"><a xlink:href="dir_8ba487e25de5ee77e05e9dce7582cb98.html" target="_top" xlink:title="Algorithm">
<polygon fill="none" stroke="#ff0000" points="282.5,-36 217.5,-36 217.5,0 282.5,0 282.5,-36"/>
<text text-anchor="middle" x="250" y="-15.5" font-family="Helvetica,sans-Serif" font-size="10.00" fill="#000000">Algorithm</text>
</a>
</g>
</g>
<!-- dir_184e1d06e85fb151746c3bdf717cc8ad&#45;&gt;dir_8ba487e25de5ee77e05e9dce7582cb98 -->
<g id="edge16" class="edge">
<title>dir_184e1d06e85fb151746c3bdf717cc8ad&#45;&gt;dir_8ba487e25de5ee77e05e9dce7582cb98</title>
<path fill="none" stroke="#000000" d="M158.2132,-513.9766C104.6579,-497.952 0,-456.5835 0,-378 0,-378 0,-378 0,-162 0,-67.4747 135.8596,-34.0591 207.2721,-23.0239"/>
<polygon fill="#000000" stroke="#000000" points="207.9293,-26.465 217.3169,-21.5535 206.9154,-19.5389 207.9293,-26.465"/>
<g id="a_edge16&#45;headlabel"><a xlink:href="dir_000629_000000.html" target="_top" xlink:title="1">
<text text-anchor="middle" x="204.7838" y="-27.2949" font-family="Helvetica,sans-Serif" font-size="10.00" fill="#000000">1</text>
</a>
</g>
</g>
<!-- dir_bcbb2cf9a3d3d83e5515c82071a07177 -->
<g id="node11" class="node">
<title>dir_bcbb2cf9a3d3d83e5515c82071a07177</title>
<g id="a_node11"><a xlink:href="dir_bcbb2cf9a3d3d83e5515c82071a07177.html" target="_top" xlink:title="Framework">
<polygon fill="none" stroke="#ff0000" points="514.5,-108 443.5,-108 443.5,-72 514.5,-72 514.5,-108"/>
<text text-anchor="middle" x="479" y="-87.5" font-family="Helvetica,sans-Serif" font-size="10.00" fill="#000000">Framework</text>
</a>
</g>
</g>
<!-- dir_184e1d06e85fb151746c3bdf717cc8ad&#45;&gt;dir_bcbb2cf9a3d3d83e5515c82071a07177 -->
<g id="edge18" class="edge">
<title>dir_184e1d06e85fb151746c3bdf717cc8ad&#45;&gt;dir_bcbb2cf9a3d3d83e5515c82071a07177</title>
<path fill="none" stroke="#000000" d="M219.6599,-507.078C222.7687,-505.9068 225.9168,-504.8507 229,-504 444.5174,-444.5318 716,-601.5715 716,-378 716,-378 716,-378 716,-234 716,-145.502 593.8129,-109.851 524.905,-96.782"/>
<polygon fill="#000000" stroke="#000000" points="525.2011,-93.2789 514.7379,-94.9438 523.9556,-100.1672 525.2011,-93.2789"/>
<g id="a_edge18&#45;headlabel"><a xlink:href="dir_000629_000014.html" target="_top" xlink:title="38">
<text text-anchor="middle" x="529.2435" y="-88.6244" font-family="Helvetica,sans-Serif" font-size="10.00" fill="#000000">38</text>
</a>
</g>
</g>
<!-- dir_184e1d06e85fb151746c3bdf717cc8ad&#45;&gt;dir_2171f7ec022c5423887b07c69b2f5b48 -->
<g id="edge20" class="edge">
<title>dir_184e1d06e85fb151746c3bdf717cc8ad&#45;&gt;dir_2171f7ec022c5423887b07c69b2f5b48</title>
<path fill="none" stroke="#000000" d="M170.8424,-503.7286C162.451,-493.9911 153.3877,-481.2949 149,-468 135.9441,-428.4403 101.6603,-369.8152 151,-288 162.0278,-269.7136 181.63,-257.207 200.4983,-248.8745"/>
<polygon fill="#000000" stroke="#000000" points="202.0271,-252.0305 209.9539,-245.0008 199.3734,-245.553 202.0271,-252.0305"/>
<g id="a_edge20&#45;headlabel"><a xlink:href="dir_000629_000077.html" target="_top" xlink:title="25">
<text text-anchor="middle" x="199.7771" y="-253.5205" font-family="Helvetica,sans-Serif" font-size="10.00" fill="#000000">25</text>
</a>
</g>
</g>
<!-- dir_40b4a122691869ee86baf7f2711ed718&#45;&gt;dir_184e1d06e85fb151746c3bdf717cc8ad -->
<g id="edge2" class="edge">
<title>dir_40b4a122691869ee86baf7f2711ed718&#45;&gt;dir_184e1d06e85fb151746c3bdf717cc8ad</title>
<path fill="none" stroke="#000000" d="M451.8861,-456.1133C397.6198,-467.2118 278.2822,-490.7495 238,-504 235.1268,-504.9451 232.1823,-506.0303 229.2241,-507.1892"/>
<polygon fill="#000000" stroke="#000000" points="227.7196,-504.0234 219.8003,-511.0615 230.3802,-510.4981 227.7196,-504.0234"/>
<g id="a_edge2&#45;headlabel"><a xlink:href="dir_000727_000629.html" target="_top" xlink:title="4">
<text text-anchor="middle" x="229.9654" y="-497.531" font-family="Helvetica,sans-Serif" font-size="10.00" fill="#000000">4</text>
</a>
</g>
</g>
<!-- dir_40b4a122691869ee86baf7f2711ed718&#45;&gt;dir_4ab6b4cc6a7edbff49100e9123df213f -->
<g id="edge1" class="edge">
<title>dir_40b4a122691869ee86baf7f2711ed718&#45;&gt;dir_4ab6b4cc6a7edbff49100e9123df213f</title>
<path fill="none" stroke="#000000" d="M451.9693,-435.256C433.1781,-425.0062 407.8207,-411.1749 386.7363,-399.6744"/>
<polygon fill="#000000" stroke="#000000" points="388.1468,-396.4569 377.6919,-394.741 384.7948,-402.6022 388.1468,-396.4569"/>
<g id="a_edge1&#45;headlabel"><a xlink:href="dir_000727_000028.html" target="_top" xlink:title="12">
<text text-anchor="middle" x="392.6621" y="-393.1856" font-family="Helvetica,sans-Serif" font-size="10.00" fill="#000000">12</text>
</a>
</g>
</g>
<!-- dir_40b4a122691869ee86baf7f2711ed718&#45;&gt;dir_37c90836491b695b472bf98d1be8336b -->
<g id="edge3" class="edge">
<title>dir_40b4a122691869ee86baf7f2711ed718&#45;&gt;dir_37c90836491b695b472bf98d1be8336b</title>
<path fill="none" stroke="#000000" d="M472.1816,-431.9843C453.7154,-383.1929 402.6386,-248.2377 380.4809,-189.6927"/>
<polygon fill="#000000" stroke="#000000" points="383.629,-188.1225 376.8159,-180.0089 377.0822,-190.6004 383.629,-188.1225"/>
<g id="a_edge3&#45;headlabel"><a xlink:href="dir_000727_000275.html" target="_top" xlink:title="17">
<text text-anchor="middle" x="387.5568" y="-187.9794" font-family="Helvetica,sans-Serif" font-size="10.00" fill="#000000">17</text>
</a>
</g>
</g>
<!-- dir_40b4a122691869ee86baf7f2711ed718&#45;&gt;dir_8ba487e25de5ee77e05e9dce7582cb98 -->
<g id="edge4" class="edge">
<title>dir_40b4a122691869ee86baf7f2711ed718&#45;&gt;dir_8ba487e25de5ee77e05e9dce7582cb98</title>
<path fill="none" stroke="#000000" d="M506.1387,-445.2166C537.0319,-438.6243 587.6509,-424.2131 622,-396 658.4052,-366.0981 678,-353.1111 678,-306 678,-306 678,-306 678,-162 678,-81.2098 400.5873,-37.1703 292.443,-23.0717"/>
<polygon fill="#000000" stroke="#000000" points="292.8846,-19.5998 282.5209,-21.8006 291.995,-26.543 292.8846,-19.5998"/>
<g id="a_edge4&#45;headlabel"><a xlink:href="dir_000727_000000.html" target="_top" xlink:title="1">
<text text-anchor="middle" x="296.8108" y="-14.7402" font-family="Helvetica,sans-Serif" font-size="10.00" fill="#000000">1</text>
</a>
</g>
</g>
<!-- dir_40b4a122691869ee86baf7f2711ed718&#45;&gt;dir_bcbb2cf9a3d3d83e5515c82071a07177 -->
<g id="edge5" class="edge">
<title>dir_40b4a122691869ee86baf7f2711ed718&#45;&gt;dir_bcbb2cf9a3d3d83e5515c82071a07177</title>
<path fill="none" stroke="#000000" d="M506.3115,-440.1366C552.2455,-421.5876 640,-376.8758 640,-306 640,-306 640,-306 640,-234 640,-192.6022 643.5442,-174.9046 616,-144 592.5412,-117.6792 554.5986,-104.0457 524.5855,-97.0684"/>
<polygon fill="#000000" stroke="#000000" points="525.2562,-93.6327 514.7434,-94.9487 523.7823,-100.4758 525.2562,-93.6327"/>
<g id="a_edge5&#45;headlabel"><a xlink:href="dir_000727_000014.html" target="_top" xlink:title="146">
<text text-anchor="middle" x="529.368" y="-89.1139" font-family="Helvetica,sans-Serif" font-size="10.00" fill="#000000">146</text>
</a>
</g>
</g>
<!-- dir_40b4a122691869ee86baf7f2711ed718&#45;&gt;dir_2171f7ec022c5423887b07c69b2f5b48 -->
<g id="edge6" class="edge">
<title>dir_40b4a122691869ee86baf7f2711ed718&#45;&gt;dir_2171f7ec022c5423887b07c69b2f5b48</title>
<path fill="none" stroke="#000000" d="M468.145,-431.9898C448.0723,-399.8389 402.3901,-331.8351 350,-288 334.9338,-275.394 316.461,-264.4256 299.5103,-255.7277"/>
<polygon fill="#000000" stroke="#000000" points="300.7929,-252.4565 290.281,-251.1331 297.6733,-258.723 300.7929,-252.4565"/>
<g id="a_edge6&#45;headlabel"><a xlink:href="dir_000727_000077.html" target="_top" xlink:title="144">
<text text-anchor="middle" x="305.2761" y="-249.0167" font-family="Helvetica,sans-Serif" font-size="10.00" fill="#000000">144</text>
</a>
</g>
</g>
<!-- dir_4ab6b4cc6a7edbff49100e9123df213f&#45;&gt;dir_f511f1e9c03c071966ae594f00bbc5e0 -->
<g id="edge7" class="edge">
<title>dir_4ab6b4cc6a7edbff49100e9123df213f&#45;&gt;dir_f511f1e9c03c071966ae594f00bbc5e0</title>
<path fill="none" stroke="#000000" d="M324.8977,-359.8314C316.6348,-351.454 307.4665,-341.3531 299.7452,-332.1749"/>
<polygon fill="#000000" stroke="#000000" points="302.4341,-329.9341 293.3913,-324.4133 297.0175,-334.3683 302.4341,-329.9341"/>
<g id="a_edge7&#45;headlabel"><a xlink:href="dir_000028_000690.html" target="_top" xlink:title="3">
<text text-anchor="middle" x="306.908" y="-328.4171" font-family="Helvetica,sans-Serif" font-size="10.00" fill="#000000">3</text>
</a>
</g>
</g>
<!-- dir_4ab6b4cc6a7edbff49100e9123df213f&#45;&gt;dir_bcbb2cf9a3d3d83e5515c82071a07177 -->
<g id="edge8" class="edge">
<title>dir_4ab6b4cc6a7edbff49100e9123df213f&#45;&gt;dir_bcbb2cf9a3d3d83e5515c82071a07177</title>
<path fill="none" stroke="#000000" d="M351.7705,-359.9843C370.104,-310.9909 432.1616,-175.1186 462.5008,-116.9694"/>
<polygon fill="#000000" stroke="#000000" points="465.6603,-118.4823 467.2599,-108.0089 459.4781,-115.1988 465.6603,-118.4823"/>
<g id="a_edge8&#45;headlabel"><a xlink:href="dir_000028_000014.html" target="_top" xlink:title="2">
<text text-anchor="middle" x="466.4818" y="-120.4887" font-family="Helvetica,sans-Serif" font-size="10.00" fill="#000000">2</text>
</a>
</g>
</g>
<!-- dir_4ab6b4cc6a7edbff49100e9123df213f&#45;&gt;dir_2171f7ec022c5423887b07c69b2f5b48 -->
<g id="edge9" class="edge">
<title>dir_4ab6b4cc6a7edbff49100e9123df213f&#45;&gt;dir_2171f7ec022c5423887b07c69b2f5b48</title>
<path fill="none" stroke="#000000" d="M337.9215,-359.6878C332.3608,-340.4356 325.1526,-309.9508 310,-288 302.2267,-276.7391 291.3968,-266.7247 281.0087,-258.4711"/>
<polygon fill="#000000" stroke="#000000" points="282.9128,-255.5215 272.8392,-252.2392 278.6673,-261.0871 282.9128,-255.5215"/>
<g id="a_edge9&#45;headlabel"><a xlink:href="dir_000028_000077.html" target="_top" xlink:title="2">
<text text-anchor="middle" x="287.4928" y="-252.9442" font-family="Helvetica,sans-Serif" font-size="10.00" fill="#000000">2</text>
</a>
</g>
</g>
<!-- dir_6af676bf18881990e4083e191d0e63e0&#45;&gt;dir_4ab6b4cc6a7edbff49100e9123df213f -->
<g id="edge10" class="edge">
<title>dir_6af676bf18881990e4083e191d0e63e0&#45;&gt;dir_4ab6b4cc6a7edbff49100e9123df213f</title>
<path fill="none" stroke="#000000" d="M345.5047,-431.8314C345.7186,-424.131 345.9729,-414.9743 346.2106,-406.4166"/>
<polygon fill="#000000" stroke="#000000" points="349.7094,-406.5066 346.4885,-396.4133 342.7121,-406.3122 349.7094,-406.5066"/>
<g id="a_edge10&#45;headlabel"><a xlink:href="dir_000020_000028.html" target="_top" xlink:title="4">
<text text-anchor="middle" x="352.4479" y="-407.6787" font-family="Helvetica,sans-Serif" font-size="10.00" fill="#000000">4</text>
</a>
</g>
</g>
<!-- dir_6af676bf18881990e4083e191d0e63e0&#45;&gt;dir_bcbb2cf9a3d3d83e5515c82071a07177 -->
<g id="edge11" class="edge">
<title>dir_6af676bf18881990e4083e191d0e63e0&#45;&gt;dir_bcbb2cf9a3d3d83e5515c82071a07177</title>
<path fill="none" stroke="#000000" d="M361.2298,-431.9754C369.7062,-421.9099 379.7856,-408.8392 387,-396 437.3016,-306.4794 444.9168,-279.8208 469,-180 473.9085,-159.655 476.4162,-136.1317 477.6926,-118.2375"/>
<polygon fill="#000000" stroke="#000000" points="481.1917,-118.3603 478.3248,-108.1608 474.2055,-117.922 481.1917,-118.3603"/>
<g id="a_edge11&#45;headlabel"><a xlink:href="dir_000020_000014.html" target="_top" xlink:title="2">
<text text-anchor="middle" x="483.8005" y="-119.6256" font-family="Helvetica,sans-Serif" font-size="10.00" fill="#000000">2</text>
</a>
</g>
</g>
<!-- dir_37c90836491b695b472bf98d1be8336b&#45;&gt;dir_4ab6b4cc6a7edbff49100e9123df213f -->
<g id="edge21" class="edge">
<title>dir_37c90836491b695b472bf98d1be8336b&#45;&gt;dir_4ab6b4cc6a7edbff49100e9123df213f</title>
<path fill="none" stroke="#000000" d="M368.0679,-180.1451C364.0504,-217.8741 354.7723,-305.0083 349.982,-349.9956"/>
<polygon fill="#000000" stroke="#000000" points="346.5,-349.6411 348.9214,-359.9555 353.4607,-350.3823 346.5,-349.6411"/>
<g id="a_edge21&#45;headlabel"><a xlink:href="dir_000275_000028.html" target="_top" xlink:title="16">
<text text-anchor="middle" x="344.0572" y="-343.2661" font-family="Helvetica,sans-Serif" font-size="10.00" fill="#000000">16</text>
</a>
</g>
</g>
<!-- dir_37c90836491b695b472bf98d1be8336b&#45;&gt;dir_f511f1e9c03c071966ae594f00bbc5e0 -->
<g id="edge22" class="edge">
<title>dir_37c90836491b695b472bf98d1be8336b&#45;&gt;dir_f511f1e9c03c071966ae594f00bbc5e0</title>
<path fill="none" stroke="#000000" d="M364.3727,-180.1247C358.0753,-198.952 346.7855,-228.8411 332,-252 325.637,-261.9666 317.3939,-271.8492 309.4899,-280.3822"/>
<polygon fill="#000000" stroke="#000000" points="306.7743,-278.1577 302.3901,-287.8029 311.8322,-282.9969 306.7743,-278.1577"/>
<g id="a_edge22&#45;headlabel"><a xlink:href="dir_000275_000690.html" target="_top" xlink:title="14">
<text text-anchor="middle" x="307.2077" y="-271.0976" font-family="Helvetica,sans-Serif" font-size="10.00" fill="#000000">14</text>
</a>
</g>
</g>
<!-- dir_37c90836491b695b472bf98d1be8336b&#45;&gt;dir_bcbb2cf9a3d3d83e5515c82071a07177 -->
<g id="edge23" class="edge">
<title>dir_37c90836491b695b472bf98d1be8336b&#45;&gt;dir_bcbb2cf9a3d3d83e5515c82071a07177</title>
<path fill="none" stroke="#000000" d="M397.2241,-144.0171C411.14,-134.825 428.2524,-123.5213 443.2204,-113.6342"/>
<polygon fill="#000000" stroke="#000000" points="445.3302,-116.4353 451.7452,-108.0032 441.4721,-110.5945 445.3302,-116.4353"/>
<g id="a_edge23&#45;headlabel"><a xlink:href="dir_000275_000014.html" target="_top" xlink:title="1">
<text text-anchor="middle" x="443.8958" y="-118.2855" font-family="Helvetica,sans-Serif" font-size="10.00" fill="#000000">1</text>
</a>
</g>
</g>
<!-- dir_37c90836491b695b472bf98d1be8336b&#45;&gt;dir_2171f7ec022c5423887b07c69b2f5b48 -->
<g id="edge24" class="edge">
<title>dir_37c90836491b695b472bf98d1be8336b&#45;&gt;dir_2171f7ec022c5423887b07c69b2f5b48</title>
<path fill="none" stroke="#000000" d="M345.6804,-180.1628C331.0972,-189.4565 312.2053,-200.8724 295.0279,-210.7967"/>
<polygon fill="#000000" stroke="#000000" points="293.173,-207.8256 286.2335,-215.8314 296.6509,-213.9005 293.173,-207.8256"/>
<g id="a_edge24&#45;headlabel"><a xlink:href="dir_000275_000077.html" target="_top" xlink:title="12">
<text text-anchor="middle" x="294.882" y="-201.0756" font-family="Helvetica,sans-Serif" font-size="10.00" fill="#000000">12</text>
</a>
</g>
</g>
<!-- dir_8ba487e25de5ee77e05e9dce7582cb98&#45;&gt;dir_2171f7ec022c5423887b07c69b2f5b48 -->
<g id="edge25" class="edge">
<title>dir_8ba487e25de5ee77e05e9dce7582cb98&#45;&gt;dir_2171f7ec022c5423887b07c69b2f5b48</title>
<path fill="none" stroke="#000000" d="M253.9551,-36.1451C257.4006,-73.7945 257.6604,-160.6409 254.7346,-205.7103"/>
<polygon fill="#000000" stroke="#000000" points="251.2239,-205.7163 253.9459,-215.9555 258.2032,-206.2537 251.2239,-205.7163"/>
<g id="a_edge25&#45;headlabel"><a xlink:href="dir_000000_000077.html" target="_top" xlink:title="8">
<text text-anchor="middle" x="248.6688" y="-199.4144" font-family="Helvetica,sans-Serif" font-size="10.00" fill="#000000">8</text>
</a>
</g>
</g>
<!-- dir_f511f1e9c03c071966ae594f00bbc5e0&#45;&gt;dir_4ab6b4cc6a7edbff49100e9123df213f -->
<g id="edge31" class="edge">
<title>dir_f511f1e9c03c071966ae594f00bbc5e0&#45;&gt;dir_4ab6b4cc6a7edbff49100e9123df213f</title>
<path fill="none" stroke="#000000" d="M305.3434,-324.4133C313.54,-332.7389 322.6014,-342.7282 330.2458,-351.8144"/>
<polygon fill="#000000" stroke="#000000" points="327.7623,-354.3063 336.8025,-359.8314 333.1809,-349.8747 327.7623,-354.3063"/>
<g id="a_edge31&#45;headlabel"><a xlink:href="dir_000690_000028.html" target="_top" xlink:title="4">
<text text-anchor="middle" x="323.2888" y="-350.8213" font-family="Helvetica,sans-Serif" font-size="10.00" fill="#000000">4</text>
</a>
</g>
</g>
<!-- dir_f511f1e9c03c071966ae594f00bbc5e0&#45;&gt;dir_2171f7ec022c5423887b07c69b2f5b48 -->
<g id="edge32" class="edge">
<title>dir_f511f1e9c03c071966ae594f00bbc5e0&#45;&gt;dir_2171f7ec022c5423887b07c69b2f5b48</title>
<path fill="none" stroke="#000000" d="M268.7203,-287.8314C264.3465,-279.9617 259.8286,-270.5712 256.1721,-261.8533"/>
<polygon fill="#000000" stroke="#000000" points="259.3777,-260.4409 252.4634,-252.4133 252.8625,-263.0006 259.3777,-260.4409"/>
<g id="a_edge32&#45;headlabel"><a xlink:href="dir_000690_000077.html" target="_top" xlink:title="15">
<text text-anchor="middle" x="263.3347" y="-260.2484" font-family="Helvetica,sans-Serif" font-size="10.00" fill="#000000">15</text>
</a>
</g>
</g>
<!-- dir_bcbb2cf9a3d3d83e5515c82071a07177&#45;&gt;dir_4ab6b4cc6a7edbff49100e9123df213f -->
<g id="edge33" class="edge">
<title>dir_bcbb2cf9a3d3d83e5515c82071a07177&#45;&gt;dir_4ab6b4cc6a7edbff49100e9123df213f</title>
<path fill="none" stroke="#000000" d="M474.232,-108.0089C455.9026,-156.9943 393.8455,-292.8661 363.5034,-351.0225"/>
<polygon fill="#000000" stroke="#000000" points="360.3433,-349.5109 358.7438,-359.9843 366.5255,-352.7943 360.3433,-349.5109"/>
<g id="a_edge33&#45;headlabel"><a xlink:href="dir_000014_000028.html" target="_top" xlink:title="8">
<text text-anchor="middle" x="359.5217" y="-342.5045" font-family="Helvetica,sans-Serif" font-size="10.00" fill="#000000">8</text>
</a>
</g>
</g>
<!-- dir_bcbb2cf9a3d3d83e5515c82071a07177&#45;&gt;dir_8ba487e25de5ee77e05e9dce7582cb98 -->
<g id="edge34" class="edge">
<title>dir_bcbb2cf9a3d3d83e5515c82071a07177&#45;&gt;dir_8ba487e25de5ee77e05e9dce7582cb98</title>
<path fill="none" stroke="#000000" d="M443.2188,-78.75C402.3727,-65.9076 335.6224,-44.9206 292.2528,-31.2847"/>
<polygon fill="#000000" stroke="#000000" points="293.1563,-27.8999 282.5669,-28.2394 291.0567,-34.5777 293.1563,-27.8999"/>
<g id="a_edge34&#45;headlabel"><a xlink:href="dir_000014_000000.html" target="_top" xlink:title="1">
<text text-anchor="middle" x="297.437" y="-23.7695" font-family="Helvetica,sans-Serif" font-size="10.00" fill="#000000">1</text>
</a>
</g>
</g>
<!-- dir_bcbb2cf9a3d3d83e5515c82071a07177&#45;&gt;dir_2171f7ec022c5423887b07c69b2f5b48 -->
<g id="edge35" class="edge">
<title>dir_bcbb2cf9a3d3d83e5515c82071a07177&#45;&gt;dir_2171f7ec022c5423887b07c69b2f5b48</title>
<path fill="none" stroke="#000000" d="M443.4656,-100.3611C414.72,-108.9397 374.2877,-123.1333 343,-144 317.0572,-161.302 293.4013,-188.115 276.1859,-207.9783"/>
<polygon fill="#000000" stroke="#000000" points="273.3544,-205.9013 269.4479,-215.7496 278.6432,-210.4869 273.3544,-205.9013"/>
<g id="a_edge35&#45;headlabel"><a xlink:href="dir_000014_000077.html" target="_top" xlink:title="82">
<text text-anchor="middle" x="273.5639" y="-198.8254" font-family="Helvetica,sans-Serif" font-size="10.00" fill="#000000">82</text>
</a>
</g>
</g>
<!-- dir_2171f7ec022c5423887b07c69b2f5b48&#45;&gt;dir_09bf7f7c4011a5ccc426492db4dd0891 -->
<g id="edge43" class="edge">
<title>dir_2171f7ec022c5423887b07c69b2f5b48&#45;&gt;dir_09bf7f7c4011a5ccc426492db4dd0891</title>
<path fill="none" stroke="#000000" d="M234.0095,-252.0831C226.3462,-261.9629 217.9834,-274.8437 214,-288 207.6909,-308.8375 214.432,-332.7262 222.214,-350.6533"/>
<polygon fill="#000000" stroke="#000000" points="219.1547,-352.3731 226.5681,-359.9422 225.4929,-349.402 219.1547,-352.3731"/>
<g id="a_edge43&#45;headlabel"><a xlink:href="dir_000077_000142.html" target="_top" xlink:title="1">
<text text-anchor="middle" x="215.0582" y="-347.8233" font-family="Helvetica,sans-Serif" font-size="10.00" fill="#000000">1</text>
</a>
</g>
</g>
<!-- dir_2171f7ec022c5423887b07c69b2f5b48&#45;&gt;dir_4ab6b4cc6a7edbff49100e9123df213f -->
<g id="edge40" class="edge">
<title>dir_2171f7ec022c5423887b07c69b2f5b48&#45;&gt;dir_4ab6b4cc6a7edbff49100e9123df213f</title>
<path fill="none" stroke="#000000" d="M289.2497,-252.2392C303.3882,-261.4595 318.1486,-273.7288 328,-288 340.7258,-306.4353 347.8482,-330.8899 350.3447,-349.6546"/>
<polygon fill="#000000" stroke="#000000" points="346.8666,-350.0537 351.2751,-359.6878 353.8367,-349.4073 346.8666,-350.0537"/>
<g id="a_edge40&#45;headlabel"><a xlink:href="dir_000077_000028.html" target="_top" xlink:title="35">
<text text-anchor="middle" x="343.7077" y="-344.2366" font-family="Helvetica,sans-Serif" font-size="10.00" fill="#000000">35</text>
</a>
</g>
</g>
<!-- dir_2171f7ec022c5423887b07c69b2f5b48&#45;&gt;dir_37c90836491b695b472bf98d1be8336b -->
<g id="edge41" class="edge">
<title>dir_2171f7ec022c5423887b07c69b2f5b48&#45;&gt;dir_37c90836491b695b472bf98d1be8336b</title>
<path fill="none" stroke="#000000" d="M274.3287,-215.8314C291.4847,-204.8985 314.6004,-191.0302 333.8732,-180.1082"/>
<polygon fill="#000000" stroke="#000000" points="335.687,-183.104 342.7019,-175.164 332.2667,-176.9964 335.687,-183.104"/>
<g id="a_edge41&#45;headlabel"><a xlink:href="dir_000077_000275.html" target="_top" xlink:title="1">
<text text-anchor="middle" x="333.938" y="-184.8375" font-family="Helvetica,sans-Serif" font-size="10.00" fill="#000000">1</text>
</a>
</g>
</g>
<!-- dir_2171f7ec022c5423887b07c69b2f5b48&#45;&gt;dir_8ba487e25de5ee77e05e9dce7582cb98 -->
<g id="edge42" class="edge">
<title>dir_2171f7ec022c5423887b07c69b2f5b48&#45;&gt;dir_8ba487e25de5ee77e05e9dce7582cb98</title>
<path fill="none" stroke="#000000" d="M246.0541,-215.9555C242.5956,-178.3144 242.3363,-91.1867 245.2761,-46.1246"/>
<polygon fill="#000000" stroke="#000000" points="248.7664,-46.3844 246.0449,-36.1451 241.7871,-45.8467 248.7664,-46.3844"/>
<g id="a_edge42&#45;headlabel"><a xlink:href="dir_000077_000000.html" target="_top" xlink:title="2">
<text text-anchor="middle" x="251.3213" y="-47.6864" font-family="Helvetica,sans-Serif" font-size="10.00" fill="#000000">2</text>
</a>
</g>
</g>
<!-- dir_2171f7ec022c5423887b07c69b2f5b48&#45;&gt;dir_f511f1e9c03c071966ae594f00bbc5e0 -->
<g id="edge44" class="edge">
<title>dir_2171f7ec022c5423887b07c69b2f5b48&#45;&gt;dir_f511f1e9c03c071966ae594f00bbc5e0</title>
<path fill="none" stroke="#000000" d="M264.4154,-252.4133C268.7921,-260.3141 273.3025,-269.7132 276.941,-278.417"/>
<polygon fill="#000000" stroke="#000000" points="273.7216,-279.7944 280.6251,-287.8314 280.2402,-277.2435 273.7216,-279.7944"/>
<g id="a_edge44&#45;headlabel"><a xlink:href="dir_000077_000690.html" target="_top" xlink:title="18">
<text text-anchor="middle" x="269.7677" y="-274.9817" font-family="Helvetica,sans-Serif" font-size="10.00" fill="#000000">18</text>
</a>
</g>
</g>
<!-- dir_2171f7ec022c5423887b07c69b2f5b48&#45;&gt;dir_bcbb2cf9a3d3d83e5515c82071a07177 -->
<g id="edge45" class="edge">
<title>dir_2171f7ec022c5423887b07c69b2f5b48&#45;&gt;dir_bcbb2cf9a3d3d83e5515c82071a07177</title>
<path fill="none" stroke="#000000" d="M256.3556,-215.7496C268.9262,-195.684 295.4828,-163.6859 325,-144 357.8704,-122.0778 400.834,-107.5207 433.1493,-99.1022"/>
<polygon fill="#000000" stroke="#000000" points="434.3864,-102.4009 443.2409,-96.583 432.6909,-95.6093 434.3864,-102.4009"/>
<g id="a_edge45&#45;headlabel"><a xlink:href="dir_000077_000014.html" target="_top" xlink:title="12">
<text text-anchor="middle" x="431.5864" y="-103.5261" font-family="Helvetica,sans-Serif" font-size="10.00" fill="#000000">12</text>
</a>
</g>
</g>
</g>
</svg>
        <g id="navigator" transform="translate(0 0)" fill="#404254">
                <rect fill="#f2f5e9" fill-opacity="0.5" stroke="#606060" stroke-width=".5" x="0" y="0" width="60" height="60"/>
                <use id="zoomplus" xlink:href="#zoomPlus" x="17" y="9" onmousedown="handleZoom(evt,'in')"/>
                <use id="zoomminus" xlink:href="#zoomMin" x="42" y="9" onmousedown="handleZoom(evt,'out')"/>
                <use id="reset" xlink:href="#resetDef" x="30" y="36" onmousedown="handleReset()"/>
                <g id="arrowUp" xlink:href="#dirArrow" transform="translate(30 24)" onmousedown="handlePan(0,-1)">
                  <use xlink:href="#rim" fill="#404040">
                        <set attributeName="fill" to="#808080" begin="arrowUp.mouseover" end="arrowUp.mouseout"/>
                  </use>
                  <path fill="none" stroke="white" stroke-width="1.5" d="M0,-3.0v7 M-2.5,-0.5L0,-3.0L2.5,-0.5"/>
                </g>
                <g id="arrowRight" xlink:href="#dirArrow" transform="rotate(90) translate(36 -43)" onmousedown="handlePan(1,0)">
                  <use xlink:href="#rim" fill="#404040">
                        <set attributeName="fill" to="#808080" begin="arrowRight.mouseover" end="arrowRight.mouseout"/>
                  </use>
                  <path fill="none" stroke="white" stroke-width="1.5" d="M0,-3.0v7 M-2.5,-0.5L0,-3.0L2.5,-0.5"/>
                </g>
                <g id="arrowDown" xlink:href="#dirArrow" transform="rotate(180) translate(-30 -48)" onmousedown="handlePan(0,1)">
                  <use xlink:href="#rim" fill="#404040">
                        <set attributeName="fill" to="#808080" begin="arrowDown.mouseover" end="arrowDown.mouseout"/>
                  </use>
                  <path fill="none" stroke="white" stroke-width="1.5" d="M0,-3.0v7 M-2.5,-0.5L0,-3.0L2.5,-0.5"/>
                </g>
                <g id="arrowLeft" xlink:href="#dirArrow" transform="rotate(270) translate(-36 17)" onmousedown="handlePan(-1,0)">
                  <use xlink:href="#rim" fill="#404040">
                        <set attributeName="fill" to="#808080" begin="arrowLeft.mouseover" end="arrowLeft.mouseout"/>
                  </use>
                  <path fill="none" stroke="white" stroke-width="1.5" d="M0,-3.0v7 M-2.5,-0.5L0,-3.0L2.5,-0.5"/>
                </g>
        </g>
        <svg viewBox="0 0 15 15" width="100%" height="30px" preserveAspectRatio="xMaxYMin meet">
         <g id="arrow_out" transform="scale(0.3 0.3)">
          <a xlink:href="dir_69dd0583e11051991bf4c0cf23c50933_dep_org.svg" target="_base">
           <rect id="button" ry="5" rx="5" y="6" x="6" height="38" width="38"
                fill="#f2f5e9" fill-opacity="0.5" stroke="#606060" stroke-width="1.0"/>
           <path id="arrow"
             d="M 11.500037,31.436501 C 11.940474,20.09759 22.043105,11.32322 32.158766,21.979434 L 37.068811,17.246167 C 37.068811,17.246167 37.088388,32 37.088388,32 L 22.160133,31.978069 C 22.160133,31.978069 26.997745,27.140456 26.997745,27.140456 C 18.528582,18.264221 13.291696,25.230495 11.500037,31.436501 z"
             style="fill:#404040;"/>
          </a>
         </g>
        </svg>
</svg>
