<?xml version="1.0" encoding="UTF-8" standalone="no"?>
<!DOCTYPE svg PUBLIC "-//W3C//DTD SVG 1.1//EN"
 "http://www.w3.org/Graphics/SVG/1.1/DTD/svg11.dtd">
<!-- Generated by graphviz version 2.40.1 (20161225.0304)
 -->
<!-- Title: /home/travis/build/AliceO2Group/AliceO2/Detectors/CTF Pages: 1 -->
<svg width="553pt" height="519pt"
 viewBox="0.00 0.00 553.36 519.00" xmlns="http://www.w3.org/2000/svg" xmlns:xlink="http://www.w3.org/1999/xlink">
<g id="graph0" class="graph" transform="scale(1 1) rotate(0) translate(4 515)">
<title>/home/travis/build/AliceO2Group/AliceO2/Detectors/CTF</title>
<g id="clust1" class="cluster">
<title>clusterdir_051dca18e802f8e9474f2e30d29c04e0</title>
<g id="a_clust1"><a xlink:href="dir_051dca18e802f8e9474f2e30d29c04e0.html" target="_top" xlink:title="Detectors">
<polygon fill="#ddddee" stroke="#000000" points="255.3642,-416 255.3642,-503 493.3642,-503 493.3642,-416 255.3642,-416"/>
<text text-anchor="middle" x="374.3642" y="-491" font-family="Helvetica,sans-Serif" font-size="10.00" fill="#000000">Detectors</text>
</a>
</g>
</g>
<g id="clust2" class="cluster">
<title>clusterdir_22c28337d94ed0b7d4c6655ee55d3b27</title>
<g id="a_clust2"><a xlink:href="dir_22c28337d94ed0b7d4c6655ee55d3b27.html" target="_top">
<polygon fill="#eeeeff" stroke="#000000" points="263.3642,-424 263.3642,-476 485.3642,-476 485.3642,-424 263.3642,-424"/>
</a>
</g>
</g>
<!-- dir_22c28337d94ed0b7d4c6655ee55d3b27 -->
<g id="node1" class="node">
<title>dir_22c28337d94ed0b7d4c6655ee55d3b27</title>
<text text-anchor="middle" x="450.3642" y="-447.5" font-family="Helvetica,sans-Serif" font-size="10.00" fill="#000000">CTF</text>
</g>
<!-- dir_f34bb2841ccfd4447c7217216c5f7129 -->
<g id="node2" class="node">
<title>dir_f34bb2841ccfd4447c7217216c5f7129</title>
<g id="a_node2"><a xlink:href="dir_f34bb2841ccfd4447c7217216c5f7129.html" target="_top" xlink:title="test">
<polygon fill="#ffffff" stroke="#000000" points="325.3642,-468 271.3642,-468 271.3642,-432 325.3642,-432 325.3642,-468"/>
<text text-anchor="middle" x="298.3642" y="-447.5" font-family="Helvetica,sans-Serif" font-size="10.00" fill="#000000">test</text>
</a>
</g>
</g>
<!-- dir_d14e88a79bca429480864605ee348cef -->
<g id="node5" class="node">
<title>dir_d14e88a79bca429480864605ee348cef</title>
<g id="a_node5"><a xlink:href="dir_d14e88a79bca429480864605ee348cef.html" target="_top" xlink:title="FIT">
<polygon fill="none" stroke="#ff0000" points="286.3642,-396 232.3642,-396 232.3642,-360 286.3642,-360 286.3642,-396"/>
<text text-anchor="middle" x="259.3642" y="-375.5" font-family="Helvetica,sans-Serif" font-size="10.00" fill="#000000">FIT</text>
</a>
</g>
</g>
<!-- dir_f34bb2841ccfd4447c7217216c5f7129&#45;&gt;dir_d14e88a79bca429480864605ee348cef -->
<g id="edge14" class="edge">
<title>dir_f34bb2841ccfd4447c7217216c5f7129&#45;&gt;dir_d14e88a79bca429480864605ee348cef</title>
<path fill="none" stroke="#000000" d="M288.5228,-431.8314C284.1684,-423.7925 278.9544,-414.1666 274.1472,-405.2918"/>
<polygon fill="#000000" stroke="#000000" points="277.1784,-403.5392 269.338,-396.4133 271.0234,-406.8732 277.1784,-403.5392"/>
<g id="a_edge14&#45;headlabel"><a xlink:href="dir_000415_000163.html" target="_top" xlink:title="1">
<text text-anchor="middle" x="281.387" y="-402.8476" font-family="Helvetica,sans-Serif" font-size="10.00" fill="#000000">1</text>
</a>
</g>
</g>
<!-- dir_a597e8e061b11201a1dff411feb10d0b -->
<g id="node6" class="node">
<title>dir_a597e8e061b11201a1dff411feb10d0b</title>
<g id="a_node6"><a xlink:href="dir_a597e8e061b11201a1dff411feb10d0b.html" target="_top" xlink:title="TPC">
<polygon fill="none" stroke="#ff0000" points="458.3642,-180 404.3642,-180 404.3642,-144 458.3642,-144 458.3642,-180"/>
<text text-anchor="middle" x="431.3642" y="-159.5" font-family="Helvetica,sans-Serif" font-size="10.00" fill="#000000">TPC</text>
</a>
</g>
</g>
<!-- dir_f34bb2841ccfd4447c7217216c5f7129&#45;&gt;dir_a597e8e061b11201a1dff411feb10d0b -->
<g id="edge15" class="edge">
<title>dir_f34bb2841ccfd4447c7217216c5f7129&#45;&gt;dir_a597e8e061b11201a1dff411feb10d0b</title>
<path fill="none" stroke="#000000" d="M309.2007,-431.9499C329.4282,-397.7413 373.4921,-320.7327 402.3642,-252 410.8675,-231.7569 418.4016,-208.0994 423.658,-190.1209"/>
<polygon fill="#000000" stroke="#000000" points="427.0933,-190.8375 426.4798,-180.2604 420.3635,-188.9115 427.0933,-190.8375"/>
<g id="a_edge15&#45;headlabel"><a xlink:href="dir_000415_000050.html" target="_top" xlink:title="1">
<text text-anchor="middle" x="428.8341" y="-192.5745" font-family="Helvetica,sans-Serif" font-size="10.00" fill="#000000">1</text>
</a>
</g>
</g>
<!-- dir_1306292b77b40360479b729ac9ee7efe -->
<g id="node7" class="node">
<title>dir_1306292b77b40360479b729ac9ee7efe</title>
<g id="a_node7"><a xlink:href="dir_1306292b77b40360479b729ac9ee7efe.html" target="_top" xlink:title="ITSMFT">
<polygon fill="none" stroke="#ff0000" points="244.3642,-36 190.3642,-36 190.3642,0 244.3642,0 244.3642,-36"/>
<text text-anchor="middle" x="217.3642" y="-15.5" font-family="Helvetica,sans-Serif" font-size="10.00" fill="#000000">ITSMFT</text>
</a>
</g>
</g>
<!-- dir_f34bb2841ccfd4447c7217216c5f7129&#45;&gt;dir_1306292b77b40360479b729ac9ee7efe -->
<g id="edge16" class="edge">
<title>dir_f34bb2841ccfd4447c7217216c5f7129&#45;&gt;dir_1306292b77b40360479b729ac9ee7efe</title>
<path fill="none" stroke="#000000" d="M271.1287,-443.0839C197.5639,-423.6105 .3642,-365.83 .3642,-306 .3642,-306 .3642,-306 .3642,-162 .3642,-120.6022 -4.7292,-101.4509 24.3642,-72 46.0512,-50.0465 130.346,-32.5901 180.0743,-23.9389"/>
<polygon fill="#000000" stroke="#000000" points="180.8552,-27.3564 190.1262,-22.2281 179.6806,-20.4557 180.8552,-27.3564"/>
<g id="a_edge16&#45;headlabel"><a xlink:href="dir_000415_000044.html" target="_top" xlink:title="1">
<text text-anchor="middle" x="177.788" y="-28.2585" font-family="Helvetica,sans-Serif" font-size="10.00" fill="#000000">1</text>
</a>
</g>
</g>
<!-- dir_bcbb2cf9a3d3d83e5515c82071a07177 -->
<g id="node9" class="node">
<title>dir_bcbb2cf9a3d3d83e5515c82071a07177</title>
<g id="a_node9"><a xlink:href="dir_bcbb2cf9a3d3d83e5515c82071a07177.html" target="_top" xlink:title="Framework">
<polygon fill="none" stroke="#ff0000" points="364.8642,-252 293.8642,-252 293.8642,-216 364.8642,-216 364.8642,-252"/>
<text text-anchor="middle" x="329.3642" y="-231.5" font-family="Helvetica,sans-Serif" font-size="10.00" fill="#000000">Framework</text>
</a>
</g>
</g>
<!-- dir_f34bb2841ccfd4447c7217216c5f7129&#45;&gt;dir_bcbb2cf9a3d3d83e5515c82071a07177 -->
<g id="edge17" class="edge">
<title>dir_f34bb2841ccfd4447c7217216c5f7129&#45;&gt;dir_bcbb2cf9a3d3d83e5515c82071a07177</title>
<path fill="none" stroke="#000000" d="M301.2316,-431.6515C305.0399,-407.1351 311.9194,-362.3292 317.3642,-324 320.2833,-303.4505 323.3741,-280.2306 325.6878,-262.5236"/>
<polygon fill="#000000" stroke="#000000" points="329.2005,-262.652 327.0195,-252.2841 322.259,-261.7492 329.2005,-262.652"/>
<g id="a_edge17&#45;headlabel"><a xlink:href="dir_000415_000014.html" target="_top" xlink:title="3">
<text text-anchor="middle" x="331.5526" y="-264.0828" font-family="Helvetica,sans-Serif" font-size="10.00" fill="#000000">3</text>
</a>
</g>
</g>
<!-- dir_2171f7ec022c5423887b07c69b2f5b48 -->
<g id="node10" class="node">
<title>dir_2171f7ec022c5423887b07c69b2f5b48</title>
<g id="a_node10"><a xlink:href="dir_2171f7ec022c5423887b07c69b2f5b48.html" target="_top" xlink:title="DataFormats">
<polygon fill="none" stroke="#ff0000" points="334.3642,-108 254.3642,-108 254.3642,-72 334.3642,-72 334.3642,-108"/>
<text text-anchor="middle" x="294.3642" y="-87.5" font-family="Helvetica,sans-Serif" font-size="10.00" fill="#000000">DataFormats</text>
</a>
</g>
</g>
<!-- dir_f34bb2841ccfd4447c7217216c5f7129&#45;&gt;dir_2171f7ec022c5423887b07c69b2f5b48 -->
<g id="edge18" class="edge">
<title>dir_f34bb2841ccfd4447c7217216c5f7129&#45;&gt;dir_2171f7ec022c5423887b07c69b2f5b48</title>
<path fill="none" stroke="#000000" d="M271.028,-437.0281C254.6631,-427.8457 234.869,-413.9725 223.3642,-396 205.7887,-368.5442 212.4897,-356.4491 209.3642,-324 201.5161,-242.5208 207.2622,-214.7889 248.3642,-144 254.0813,-134.1535 261.6686,-124.376 269.0296,-115.902"/>
<polygon fill="#000000" stroke="#000000" points="271.8589,-117.9904 275.9493,-108.217 266.6569,-113.3065 271.8589,-117.9904"/>
<g id="a_edge18&#45;headlabel"><a xlink:href="dir_000415_000077.html" target="_top" xlink:title="10">
<text text-anchor="middle" x="271.5636" y="-120.0616" font-family="Helvetica,sans-Serif" font-size="10.00" fill="#000000">10</text>
</a>
</g>
</g>
<!-- dir_60bab4a80e8540917b3a9a0f6e3beabd -->
<g id="node3" class="node">
<title>dir_60bab4a80e8540917b3a9a0f6e3beabd</title>
<g id="a_node3"><a xlink:href="dir_60bab4a80e8540917b3a9a0f6e3beabd.html" target="_top" xlink:title="workflow">
<polygon fill="#ffffff" stroke="#ff0000" points="404.8642,-468 343.8642,-468 343.8642,-432 404.8642,-432 404.8642,-468"/>
<text text-anchor="middle" x="374.3642" y="-447.5" font-family="Helvetica,sans-Serif" font-size="10.00" fill="#000000">workflow</text>
</a>
</g>
</g>
<!-- dir_4ab6b4cc6a7edbff49100e9123df213f -->
<g id="node4" class="node">
<title>dir_4ab6b4cc6a7edbff49100e9123df213f</title>
<g id="a_node4"><a xlink:href="dir_4ab6b4cc6a7edbff49100e9123df213f.html" target="_top" xlink:title="Common">
<polygon fill="none" stroke="#ff0000" points="286.8642,-324 225.8642,-324 225.8642,-288 286.8642,-288 286.8642,-324"/>
<text text-anchor="middle" x="256.3642" y="-303.5" font-family="Helvetica,sans-Serif" font-size="10.00" fill="#000000">Common</text>
</a>
</g>
</g>
<!-- dir_60bab4a80e8540917b3a9a0f6e3beabd&#45;&gt;dir_4ab6b4cc6a7edbff49100e9123df213f -->
<g id="edge29" class="edge">
<title>dir_60bab4a80e8540917b3a9a0f6e3beabd&#45;&gt;dir_4ab6b4cc6a7edbff49100e9123df213f</title>
<path fill="none" stroke="#000000" d="M359.4194,-431.7623C338.7608,-406.5518 301.3601,-360.9103 277.7477,-332.0952"/>
<polygon fill="#000000" stroke="#000000" points="280.2331,-329.606 271.1876,-324.0896 274.8187,-334.0428 280.2331,-329.606"/>
<g id="a_edge29&#45;headlabel"><a xlink:href="dir_000416_000028.html" target="_top" xlink:title="2">
<text text-anchor="middle" x="284.7075" y="-328.0868" font-family="Helvetica,sans-Serif" font-size="10.00" fill="#000000">2</text>
</a>
</g>
</g>
<!-- dir_60bab4a80e8540917b3a9a0f6e3beabd&#45;&gt;dir_d14e88a79bca429480864605ee348cef -->
<g id="edge30" class="edge">
<title>dir_60bab4a80e8540917b3a9a0f6e3beabd&#45;&gt;dir_d14e88a79bca429480864605ee348cef</title>
<path fill="none" stroke="#000000" d="M354.7462,-431.7328C348.4767,-426.3391 341.3469,-420.6423 334.3642,-416 322.353,-408.0146 308.4402,-400.5323 295.8833,-394.3543"/>
<polygon fill="#000000" stroke="#000000" points="297.129,-391.07 286.5992,-389.8976 294.0996,-397.3805 297.129,-391.07"/>
<g id="a_edge30&#45;headlabel"><a xlink:href="dir_000416_000163.html" target="_top" xlink:title="1">
<text text-anchor="middle" x="301.5982" y="-387.5659" font-family="Helvetica,sans-Serif" font-size="10.00" fill="#000000">1</text>
</a>
</g>
</g>
<!-- dir_60bab4a80e8540917b3a9a0f6e3beabd&#45;&gt;dir_a597e8e061b11201a1dff411feb10d0b -->
<g id="edge31" class="edge">
<title>dir_60bab4a80e8540917b3a9a0f6e3beabd&#45;&gt;dir_a597e8e061b11201a1dff411feb10d0b</title>
<path fill="none" stroke="#000000" d="M388.7406,-431.6977C406.1215,-408.2923 434.4047,-365.7736 445.3642,-324 457.5449,-277.5712 451.436,-263.6144 445.3642,-216 444.2788,-207.4887 442.2679,-198.4011 440.1022,-190.1555"/>
<polygon fill="#000000" stroke="#000000" points="443.4005,-188.9542 437.334,-180.2681 436.6597,-190.8414 443.4005,-188.9542"/>
<g id="a_edge31&#45;headlabel"><a xlink:href="dir_000416_000050.html" target="_top" xlink:title="1">
<text text-anchor="middle" x="447.1037" y="-189.1502" font-family="Helvetica,sans-Serif" font-size="10.00" fill="#000000">1</text>
</a>
</g>
</g>
<!-- dir_60bab4a80e8540917b3a9a0f6e3beabd&#45;&gt;dir_1306292b77b40360479b729ac9ee7efe -->
<g id="edge32" class="edge">
<title>dir_60bab4a80e8540917b3a9a0f6e3beabd&#45;&gt;dir_1306292b77b40360479b729ac9ee7efe</title>
<path fill="none" stroke="#000000" d="M357.0866,-431.8482C350.511,-425.9332 342.6049,-419.8935 334.3642,-416 289.0405,-394.586 259.0532,-431.2006 223.3642,-396 127.6075,-301.5539 181.3081,-116.1035 206.5493,-45.8598"/>
<polygon fill="#000000" stroke="#000000" points="209.8775,-46.9499 210.0457,-36.3564 203.308,-44.5328 209.8775,-46.9499"/>
<g id="a_edge32&#45;headlabel"><a xlink:href="dir_000416_000044.html" target="_top" xlink:title="1">
<text text-anchor="middle" x="211.301" y="-48.8038" font-family="Helvetica,sans-Serif" font-size="10.00" fill="#000000">1</text>
</a>
</g>
</g>
<!-- dir_8ba487e25de5ee77e05e9dce7582cb98 -->
<g id="node8" class="node">
<title>dir_8ba487e25de5ee77e05e9dce7582cb98</title>
<g id="a_node8"><a xlink:href="dir_8ba487e25de5ee77e05e9dce7582cb98.html" target="_top" xlink:title="Algorithm">
<polygon fill="none" stroke="#ff0000" points="408.8642,-36 343.8642,-36 343.8642,0 408.8642,0 408.8642,-36"/>
<text text-anchor="middle" x="376.3642" y="-15.5" font-family="Helvetica,sans-Serif" font-size="10.00" fill="#000000">Algorithm</text>
</a>
</g>
</g>
<!-- dir_60bab4a80e8540917b3a9a0f6e3beabd&#45;&gt;dir_8ba487e25de5ee77e05e9dce7582cb98 -->
<g id="edge33" class="edge">
<title>dir_60bab4a80e8540917b3a9a0f6e3beabd&#45;&gt;dir_8ba487e25de5ee77e05e9dce7582cb98</title>
<path fill="none" stroke="#000000" d="M392.7878,-431.8139C399.2243,-426.1744 406.7523,-420.3145 414.3642,-416 438.4517,-402.3469 450.6928,-411.8942 473.3642,-396 515.3083,-366.5944 545.3642,-357.225 545.3642,-306 545.3642,-306 545.3642,-306 545.3642,-162 545.3642,-95.3683 468.3106,-53.0652 418.2616,-32.6158"/>
<polygon fill="#000000" stroke="#000000" points="419.5355,-29.3559 408.9491,-28.9336 416.9615,-35.8655 419.5355,-29.3559"/>
<g id="a_edge33&#45;headlabel"><a xlink:href="dir_000416_000000.html" target="_top" xlink:title="1">
<text text-anchor="middle" x="423.9223" y="-25.5372" font-family="Helvetica,sans-Serif" font-size="10.00" fill="#000000">1</text>
</a>
</g>
</g>
<!-- dir_60bab4a80e8540917b3a9a0f6e3beabd&#45;&gt;dir_bcbb2cf9a3d3d83e5515c82071a07177 -->
<g id="edge34" class="edge">
<title>dir_60bab4a80e8540917b3a9a0f6e3beabd&#45;&gt;dir_bcbb2cf9a3d3d83e5515c82071a07177</title>
<path fill="none" stroke="#000000" d="M370.6049,-431.9555C362.763,-394.3144 344.6114,-307.1867 335.2235,-262.1246"/>
<polygon fill="#000000" stroke="#000000" points="338.6104,-261.221 333.1444,-252.1451 331.7576,-262.6487 338.6104,-261.221"/>
<g id="a_edge34&#45;headlabel"><a xlink:href="dir_000416_000014.html" target="_top" xlink:title="22">
<text text-anchor="middle" x="342.1231" y="-261.661" font-family="Helvetica,sans-Serif" font-size="10.00" fill="#000000">22</text>
</a>
</g>
</g>
<!-- dir_60bab4a80e8540917b3a9a0f6e3beabd&#45;&gt;dir_2171f7ec022c5423887b07c69b2f5b48 -->
<g id="edge35" class="edge">
<title>dir_60bab4a80e8540917b3a9a0f6e3beabd&#45;&gt;dir_2171f7ec022c5423887b07c69b2f5b48</title>
<path fill="none" stroke="#000000" d="M395.8297,-431.7779C413.3311,-416.8929 435.4629,-397.9939 437.3642,-396 472.3339,-359.3255 507.3642,-356.6745 507.3642,-306 507.3642,-306 507.3642,-306 507.3642,-234 507.3642,-190.2273 500.0535,-173.1111 467.3642,-144 433.4292,-113.7795 382.7234,-100.4705 344.9695,-94.6099"/>
<polygon fill="#000000" stroke="#000000" points="345.0826,-91.0908 334.6891,-93.1465 344.0961,-98.0209 345.0826,-91.0908"/>
<g id="a_edge35&#45;headlabel"><a xlink:href="dir_000416_000077.html" target="_top" xlink:title="20">
<text text-anchor="middle" x="349.0415" y="-86.2863" font-family="Helvetica,sans-Serif" font-size="10.00" fill="#000000">20</text>
</a>
</g>
</g>
<!-- dir_4ab6b4cc6a7edbff49100e9123df213f&#45;&gt;dir_bcbb2cf9a3d3d83e5515c82071a07177 -->
<g id="edge1" class="edge">
<title>dir_4ab6b4cc6a7edbff49100e9123df213f&#45;&gt;dir_bcbb2cf9a3d3d83e5515c82071a07177</title>
<path fill="none" stroke="#000000" d="M268.8328,-287.8314C276.8036,-279.1337 287.3335,-268.5783 297.4201,-259.1265"/>
<polygon fill="#000000" stroke="#000000" points="300.0028,-261.5066 304.9973,-252.1628 295.266,-256.3526 300.0028,-261.5066"/>
<g id="a_edge1&#45;headlabel"><a xlink:href="dir_000028_000014.html" target="_top" xlink:title="2">
<text text-anchor="middle" x="299.2774" y="-263.5294" font-family="Helvetica,sans-Serif" font-size="10.00" fill="#000000">2</text>
</a>
</g>
</g>
<!-- dir_4ab6b4cc6a7edbff49100e9123df213f&#45;&gt;dir_2171f7ec022c5423887b07c69b2f5b48 -->
<g id="edge2" class="edge">
<title>dir_4ab6b4cc6a7edbff49100e9123df213f&#45;&gt;dir_2171f7ec022c5423887b07c69b2f5b48</title>
<path fill="none" stroke="#000000" d="M255.5928,-287.9555C258.763,-250.235 273.8887,-162.8188 284.7612,-117.8399"/>
<polygon fill="#000000" stroke="#000000" points="288.1542,-118.6984 287.2169,-108.1451 281.3685,-116.9795 288.1542,-118.6984"/>
<g id="a_edge2&#45;headlabel"><a xlink:href="dir_000028_000077.html" target="_top" xlink:title="2">
<text text-anchor="middle" x="290.024" y="-120.3801" font-family="Helvetica,sans-Serif" font-size="10.00" fill="#000000">2</text>
</a>
</g>
</g>
<!-- dir_d14e88a79bca429480864605ee348cef&#45;&gt;dir_4ab6b4cc6a7edbff49100e9123df213f -->
<g id="edge3" class="edge">
<title>dir_d14e88a79bca429480864605ee348cef&#45;&gt;dir_4ab6b4cc6a7edbff49100e9123df213f</title>
<path fill="none" stroke="#000000" d="M258.6071,-359.8314C258.2863,-352.131 257.9048,-342.9743 257.5482,-334.4166"/>
<polygon fill="#000000" stroke="#000000" points="261.0448,-334.2589 257.1314,-324.4133 254.0508,-334.5503 261.0448,-334.2589"/>
<g id="a_edge3&#45;headlabel"><a xlink:href="dir_000163_000028.html" target="_top" xlink:title="22">
<text text-anchor="middle" x="264.0311" y="-335.2322" font-family="Helvetica,sans-Serif" font-size="10.00" fill="#000000">22</text>
</a>
</g>
</g>
<!-- dir_d14e88a79bca429480864605ee348cef&#45;&gt;dir_bcbb2cf9a3d3d83e5515c82071a07177 -->
<g id="edge4" class="edge">
<title>dir_d14e88a79bca429480864605ee348cef&#45;&gt;dir_bcbb2cf9a3d3d83e5515c82071a07177</title>
<path fill="none" stroke="#000000" d="M273.1151,-359.6469C280.3336,-349.4851 288.9794,-336.4273 295.3642,-324 305.685,-303.9115 314.5885,-279.9359 320.6926,-261.7836"/>
<polygon fill="#000000" stroke="#000000" points="324.0773,-262.6942 323.8697,-252.1014 317.4263,-260.5117 324.0773,-262.6942"/>
<g id="a_edge4&#45;headlabel"><a xlink:href="dir_000163_000014.html" target="_top" xlink:title="72">
<text text-anchor="middle" x="325.6544" y="-264.4948" font-family="Helvetica,sans-Serif" font-size="10.00" fill="#000000">72</text>
</a>
</g>
</g>
<!-- dir_d14e88a79bca429480864605ee348cef&#45;&gt;dir_2171f7ec022c5423887b07c69b2f5b48 -->
<g id="edge5" class="edge">
<title>dir_d14e88a79bca429480864605ee348cef&#45;&gt;dir_2171f7ec022c5423887b07c69b2f5b48</title>
<path fill="none" stroke="#000000" d="M232.2928,-360.4476C222.1801,-350.713 212.1881,-337.802 207.3642,-324 202.0851,-308.896 204.3796,-303.7192 207.3642,-288 219.5309,-223.9204 252.0105,-154.06 273.9528,-116.8652"/>
<polygon fill="#000000" stroke="#000000" points="277.059,-118.4944 279.2855,-108.1361 271.0855,-114.845 277.059,-118.4944"/>
<g id="a_edge5&#45;headlabel"><a xlink:href="dir_000163_000077.html" target="_top" xlink:title="110">
<text text-anchor="middle" x="277.6079" y="-120.542" font-family="Helvetica,sans-Serif" font-size="10.00" fill="#000000">110</text>
</a>
</g>
</g>
<!-- dir_a597e8e061b11201a1dff411feb10d0b&#45;&gt;dir_4ab6b4cc6a7edbff49100e9123df213f -->
<g id="edge6" class="edge">
<title>dir_a597e8e061b11201a1dff411feb10d0b&#45;&gt;dir_4ab6b4cc6a7edbff49100e9123df213f</title>
<path fill="none" stroke="#000000" d="M423.5354,-180.0452C414.129,-199.927 396.6566,-231.7609 373.3642,-252 351.1008,-271.3449 320.7386,-285.0865 296.5235,-293.8655"/>
<polygon fill="#000000" stroke="#000000" points="295.1964,-290.6214 286.9019,-297.2132 297.4968,-297.2326 295.1964,-290.6214"/>
<g id="a_edge6&#45;headlabel"><a xlink:href="dir_000050_000028.html" target="_top" xlink:title="40">
<text text-anchor="middle" x="297.6584" y="-284.2586" font-family="Helvetica,sans-Serif" font-size="10.00" fill="#000000">40</text>
</a>
</g>
</g>
<!-- dir_a597e8e061b11201a1dff411feb10d0b&#45;&gt;dir_8ba487e25de5ee77e05e9dce7582cb98 -->
<g id="edge7" class="edge">
<title>dir_a597e8e061b11201a1dff411feb10d0b&#45;&gt;dir_8ba487e25de5ee77e05e9dce7582cb98</title>
<path fill="none" stroke="#000000" d="M424.3984,-143.7623C414.9347,-118.9846 397.9331,-74.4714 386.9035,-45.5939"/>
<polygon fill="#000000" stroke="#000000" points="390.1111,-44.1826 383.2734,-36.0896 383.5719,-46.6803 390.1111,-44.1826"/>
<g id="a_edge7&#45;headlabel"><a xlink:href="dir_000050_000000.html" target="_top" xlink:title="5">
<text text-anchor="middle" x="394.046" y="-44.0275" font-family="Helvetica,sans-Serif" font-size="10.00" fill="#000000">5</text>
</a>
</g>
</g>
<!-- dir_a597e8e061b11201a1dff411feb10d0b&#45;&gt;dir_bcbb2cf9a3d3d83e5515c82071a07177 -->
<g id="edge8" class="edge">
<title>dir_a597e8e061b11201a1dff411feb10d0b&#45;&gt;dir_bcbb2cf9a3d3d83e5515c82071a07177</title>
<path fill="none" stroke="#000000" d="M411.5853,-180.1628C399.5504,-189.2859 383.8748,-200.4541 369.4016,-210.2489"/>
<polygon fill="#000000" stroke="#000000" points="367.4216,-207.3624 361.0555,-215.8314 371.3134,-213.1809 367.4216,-207.3624"/>
<g id="a_edge8&#45;headlabel"><a xlink:href="dir_000050_000014.html" target="_top" xlink:title="103">
<text text-anchor="middle" x="368.8309" y="-200.504" font-family="Helvetica,sans-Serif" font-size="10.00" fill="#000000">103</text>
</a>
</g>
</g>
<!-- dir_a597e8e061b11201a1dff411feb10d0b&#45;&gt;dir_2171f7ec022c5423887b07c69b2f5b48 -->
<g id="edge9" class="edge">
<title>dir_a597e8e061b11201a1dff411feb10d0b&#45;&gt;dir_2171f7ec022c5423887b07c69b2f5b48</title>
<path fill="none" stroke="#000000" d="M404.2974,-147.7751C385.3286,-137.8061 359.57,-124.2688 337.7548,-112.8038"/>
<polygon fill="#000000" stroke="#000000" points="339.1584,-109.5876 328.6782,-108.0336 335.9019,-115.784 339.1584,-109.5876"/>
<g id="a_edge9&#45;headlabel"><a xlink:href="dir_000050_000077.html" target="_top" xlink:title="183">
<text text-anchor="middle" x="343.6612" y="-106.2465" font-family="Helvetica,sans-Serif" font-size="10.00" fill="#000000">183</text>
</a>
</g>
</g>
<!-- dir_1306292b77b40360479b729ac9ee7efe&#45;&gt;dir_4ab6b4cc6a7edbff49100e9123df213f -->
<g id="edge10" class="edge">
<title>dir_1306292b77b40360479b729ac9ee7efe&#45;&gt;dir_4ab6b4cc6a7edbff49100e9123df213f</title>
<path fill="none" stroke="#000000" d="M219.4965,-36.2843C221.6423,-54.4775 225.0935,-83.186 228.3642,-108 236.3675,-168.7205 246.6371,-239.7807 252.2488,-278.0949"/>
<polygon fill="#000000" stroke="#000000" points="248.7871,-278.6117 253.7024,-287.9974 255.7129,-277.595 248.7871,-278.6117"/>
<g id="a_edge10&#45;headlabel"><a xlink:href="dir_000044_000028.html" target="_top" xlink:title="79">
<text text-anchor="middle" x="245.456" y="-272.9675" font-family="Helvetica,sans-Serif" font-size="10.00" fill="#000000">79</text>
</a>
</g>
</g>
<!-- dir_1306292b77b40360479b729ac9ee7efe&#45;&gt;dir_bcbb2cf9a3d3d83e5515c82071a07177 -->
<g id="edge11" class="edge">
<title>dir_1306292b77b40360479b729ac9ee7efe&#45;&gt;dir_bcbb2cf9a3d3d83e5515c82071a07177</title>
<path fill="none" stroke="#000000" d="M228.148,-36.1581C234.876,-54.7523 243.028,-84.2181 254.3642,-108 271.7942,-144.5661 298.6716,-182.7592 315.3482,-207.3748"/>
<polygon fill="#000000" stroke="#000000" points="312.5201,-209.442 320.9942,-215.8013 318.3354,-205.5455 312.5201,-209.442"/>
<g id="a_edge11&#45;headlabel"><a xlink:href="dir_000044_000014.html" target="_top" xlink:title="105">
<text text-anchor="middle" x="308.1606" y="-205.5362" font-family="Helvetica,sans-Serif" font-size="10.00" fill="#000000">105</text>
</a>
</g>
</g>
<!-- dir_1306292b77b40360479b729ac9ee7efe&#45;&gt;dir_2171f7ec022c5423887b07c69b2f5b48 -->
<g id="edge12" class="edge">
<title>dir_1306292b77b40360479b729ac9ee7efe&#45;&gt;dir_2171f7ec022c5423887b07c69b2f5b48</title>
<path fill="none" stroke="#000000" d="M242.7401,-36.1628C252.7893,-44.7744 264.1248,-55.2081 273.6718,-64.5888"/>
<polygon fill="#000000" stroke="#000000" points="271.3492,-67.2166 280.8862,-71.8314 276.3086,-62.2765 271.3492,-67.2166"/>
<g id="a_edge12&#45;headlabel"><a xlink:href="dir_000044_000077.html" target="_top" xlink:title="236">
<text text-anchor="middle" x="266.8008" y="-64.1736" font-family="Helvetica,sans-Serif" font-size="10.00" fill="#000000">236</text>
</a>
</g>
</g>
<!-- dir_8ba487e25de5ee77e05e9dce7582cb98&#45;&gt;dir_2171f7ec022c5423887b07c69b2f5b48 -->
<g id="edge13" class="edge">
<title>dir_8ba487e25de5ee77e05e9dce7582cb98&#45;&gt;dir_2171f7ec022c5423887b07c69b2f5b48</title>
<path fill="none" stroke="#000000" d="M361.6306,-36.1628C352.3962,-45.0301 340.2592,-55.8295 328.7944,-65.4219"/>
<polygon fill="#000000" stroke="#000000" points="326.5046,-62.7735 321.0086,-71.8314 330.9536,-68.1778 326.5046,-62.7735"/>
<g id="a_edge13&#45;headlabel"><a xlink:href="dir_000000_000077.html" target="_top" xlink:title="8">
<text text-anchor="middle" x="327.4752" y="-55.7968" font-family="Helvetica,sans-Serif" font-size="10.00" fill="#000000">8</text>
</a>
</g>
</g>
<!-- dir_bcbb2cf9a3d3d83e5515c82071a07177&#45;&gt;dir_4ab6b4cc6a7edbff49100e9123df213f -->
<g id="edge19" class="edge">
<title>dir_bcbb2cf9a3d3d83e5515c82071a07177&#45;&gt;dir_4ab6b4cc6a7edbff49100e9123df213f</title>
<path fill="none" stroke="#000000" d="M316.6712,-252.4133C308.7139,-261.0787 298.2642,-271.5464 288.2561,-280.9223"/>
<polygon fill="#000000" stroke="#000000" points="285.7326,-278.4879 280.7375,-287.8314 290.469,-283.6422 285.7326,-278.4879"/>
<g id="a_edge19&#45;headlabel"><a xlink:href="dir_000014_000028.html" target="_top" xlink:title="8">
<text text-anchor="middle" x="286.4582" y="-271.4651" font-family="Helvetica,sans-Serif" font-size="10.00" fill="#000000">8</text>
</a>
</g>
</g>
<!-- dir_bcbb2cf9a3d3d83e5515c82071a07177&#45;&gt;dir_a597e8e061b11201a1dff411feb10d0b -->
<g id="edge20" class="edge">
<title>dir_bcbb2cf9a3d3d83e5515c82071a07177&#45;&gt;dir_a597e8e061b11201a1dff411feb10d0b</title>
<path fill="none" stroke="#000000" d="M349.1507,-215.8314C362.4125,-205.7785 380.0928,-193.2439 395.7137,-182.7999"/>
<polygon fill="#000000" stroke="#000000" points="397.719,-185.6701 404.1389,-177.2418 393.8643,-179.8269 397.719,-185.6701"/>
<g id="a_edge20&#45;headlabel"><a xlink:href="dir_000014_000050.html" target="_top" xlink:title="1">
<text text-anchor="middle" x="396.2819" y="-187.5194" font-family="Helvetica,sans-Serif" font-size="10.00" fill="#000000">1</text>
</a>
</g>
</g>
<!-- dir_bcbb2cf9a3d3d83e5515c82071a07177&#45;&gt;dir_1306292b77b40360479b729ac9ee7efe -->
<g id="edge21" class="edge">
<title>dir_bcbb2cf9a3d3d83e5515c82071a07177&#45;&gt;dir_1306292b77b40360479b729ac9ee7efe</title>
<path fill="none" stroke="#000000" d="M308.5493,-215.8013C287.4156,-192.1644 255.9347,-149.0567 236.3642,-108 226.8878,-88.1198 219.6366,-64.2677 216.1977,-46.1147"/>
<polygon fill="#000000" stroke="#000000" points="219.6425,-45.4898 214.6255,-36.1581 212.7281,-46.5817 219.6425,-45.4898"/>
<g id="a_edge21&#45;headlabel"><a xlink:href="dir_000014_000044.html" target="_top" xlink:title="1">
<text text-anchor="middle" x="223.0076" y="-46.0976" font-family="Helvetica,sans-Serif" font-size="10.00" fill="#000000">1</text>
</a>
</g>
</g>
<!-- dir_bcbb2cf9a3d3d83e5515c82071a07177&#45;&gt;dir_8ba487e25de5ee77e05e9dce7582cb98 -->
<g id="edge22" class="edge">
<title>dir_bcbb2cf9a3d3d83e5515c82071a07177&#45;&gt;dir_8ba487e25de5ee77e05e9dce7582cb98</title>
<path fill="none" stroke="#000000" d="M333.2905,-215.9555C341.4809,-178.3144 360.4393,-91.1867 370.2445,-46.1246"/>
<polygon fill="#000000" stroke="#000000" points="373.7097,-46.6606 372.4159,-36.1451 366.8697,-45.1722 373.7097,-46.6606"/>
<g id="a_edge22&#45;headlabel"><a xlink:href="dir_000014_000000.html" target="_top" xlink:title="1">
<text text-anchor="middle" x="375.7198" y="-48.2767" font-family="Helvetica,sans-Serif" font-size="10.00" fill="#000000">1</text>
</a>
</g>
</g>
<!-- dir_bcbb2cf9a3d3d83e5515c82071a07177&#45;&gt;dir_2171f7ec022c5423887b07c69b2f5b48 -->
<g id="edge23" class="edge">
<title>dir_bcbb2cf9a3d3d83e5515c82071a07177&#45;&gt;dir_2171f7ec022c5423887b07c69b2f5b48</title>
<path fill="none" stroke="#000000" d="M320.2582,-215.7623C311.7915,-191.0928 300.7741,-146.8598 295.6911,-117.9731"/>
<polygon fill="#000000" stroke="#000000" points="299.1452,-117.4075 294.1027,-108.0896 292.2339,-118.5183 299.1452,-117.4075"/>
<g id="a_edge23&#45;headlabel"><a xlink:href="dir_000014_000077.html" target="_top" xlink:title="82">
<text text-anchor="middle" x="302.5189" y="-118.006" font-family="Helvetica,sans-Serif" font-size="10.00" fill="#000000">82</text>
</a>
</g>
</g>
<!-- dir_2171f7ec022c5423887b07c69b2f5b48&#45;&gt;dir_4ab6b4cc6a7edbff49100e9123df213f -->
<g id="edge24" class="edge">
<title>dir_2171f7ec022c5423887b07c69b2f5b48&#45;&gt;dir_4ab6b4cc6a7edbff49100e9123df213f</title>
<path fill="none" stroke="#000000" d="M295.1271,-108.1451C291.9424,-145.8741 276.8668,-233.0083 266.0069,-277.9956"/>
<polygon fill="#000000" stroke="#000000" points="262.5467,-277.4022 263.4846,-287.9555 269.3325,-279.1208 262.5467,-277.4022"/>
<g id="a_edge24&#45;headlabel"><a xlink:href="dir_000077_000028.html" target="_top" xlink:title="35">
<text text-anchor="middle" x="260.6767" y="-270.7206" font-family="Helvetica,sans-Serif" font-size="10.00" fill="#000000">35</text>
</a>
</g>
</g>
<!-- dir_2171f7ec022c5423887b07c69b2f5b48&#45;&gt;dir_d14e88a79bca429480864605ee348cef -->
<g id="edge25" class="edge">
<title>dir_2171f7ec022c5423887b07c69b2f5b48&#45;&gt;dir_d14e88a79bca429480864605ee348cef</title>
<path fill="none" stroke="#000000" d="M289.751,-108.1361C275.6614,-142.1778 238.562,-218.49 225.3642,-288 222.3796,-303.7192 220.0851,-308.896 225.3642,-324 228.9228,-334.1818 235.2939,-343.8787 241.6691,-352.1732"/>
<polygon fill="#000000" stroke="#000000" points="238.9449,-354.3707 247.9416,-359.9663 244.398,-349.9817 238.9449,-354.3707"/>
<g id="a_edge25&#45;headlabel"><a xlink:href="dir_000077_000163.html" target="_top" xlink:title="1">
<text text-anchor="middle" x="234.4793" y="-350.8508" font-family="Helvetica,sans-Serif" font-size="10.00" fill="#000000">1</text>
</a>
</g>
</g>
<!-- dir_2171f7ec022c5423887b07c69b2f5b48&#45;&gt;dir_1306292b77b40360479b729ac9ee7efe -->
<g id="edge26" class="edge">
<title>dir_2171f7ec022c5423887b07c69b2f5b48&#45;&gt;dir_1306292b77b40360479b729ac9ee7efe</title>
<path fill="none" stroke="#000000" d="M268.9814,-71.8314C259.0084,-63.2848 247.7693,-52.9443 238.269,-43.6198"/>
<polygon fill="#000000" stroke="#000000" points="240.6205,-41.0212 231.0801,-36.4133 235.6646,-45.9649 240.6205,-41.0212"/>
<g id="a_edge26&#45;headlabel"><a xlink:href="dir_000077_000044.html" target="_top" xlink:title="1">
<text text-anchor="middle" x="245.1692" y="-39.0609" font-family="Helvetica,sans-Serif" font-size="10.00" fill="#000000">1</text>
</a>
</g>
</g>
<!-- dir_2171f7ec022c5423887b07c69b2f5b48&#45;&gt;dir_8ba487e25de5ee77e05e9dce7582cb98 -->
<g id="edge27" class="edge">
<title>dir_2171f7ec022c5423887b07c69b2f5b48&#45;&gt;dir_8ba487e25de5ee77e05e9dce7582cb98</title>
<path fill="none" stroke="#000000" d="M309.1038,-71.8314C318.3395,-62.9632 330.477,-52.1637 341.9414,-42.5718"/>
<polygon fill="#000000" stroke="#000000" points="344.2308,-45.2206 349.7269,-36.1628 339.7819,-39.8162 344.2308,-45.2206"/>
<g id="a_edge27&#45;headlabel"><a xlink:href="dir_000077_000000.html" target="_top" xlink:title="2">
<text text-anchor="middle" x="343.2601" y="-47.1972" font-family="Helvetica,sans-Serif" font-size="10.00" fill="#000000">2</text>
</a>
</g>
</g>
<!-- dir_2171f7ec022c5423887b07c69b2f5b48&#45;&gt;dir_bcbb2cf9a3d3d83e5515c82071a07177 -->
<g id="edge28" class="edge">
<title>dir_2171f7ec022c5423887b07c69b2f5b48&#45;&gt;dir_bcbb2cf9a3d3d83e5515c82071a07177</title>
<path fill="none" stroke="#000000" d="M303.4192,-108.0896C311.8757,-132.6805 322.8998,-176.905 328.0066,-205.8531"/>
<polygon fill="#000000" stroke="#000000" points="324.5571,-206.4471 329.6046,-215.7623 331.4678,-205.3326 324.5571,-206.4471"/>
<g id="a_edge28&#45;headlabel"><a xlink:href="dir_000077_000014.html" target="_top" xlink:title="12">
<text text-anchor="middle" x="321.1818" y="-200.8503" font-family="Helvetica,sans-Serif" font-size="10.00" fill="#000000">12</text>
</a>
</g>
</g>
</g>
</svg>
