<?xml version="1.0" encoding="UTF-8" standalone="no"?>
<!DOCTYPE svg PUBLIC "-//W3C//DTD SVG 1.1//EN"
 "http://www.w3.org/Graphics/SVG/1.1/DTD/svg11.dtd">
<!-- Generated by graphviz version 2.40.1 (20161225.0304)
 -->
<!-- Title: /home/travis/build/AliceO2Group/AliceO2/Analysis/Tutorials/src Pages: 1 -->
<svg width="227pt" height="439pt"
 viewBox="0.00 0.00 227.45 439.00" xmlns="http://www.w3.org/2000/svg" xmlns:xlink="http://www.w3.org/1999/xlink">
<g id="graph0" class="graph" transform="scale(1 1) rotate(0) translate(4 435)">
<title>/home/travis/build/AliceO2Group/AliceO2/Analysis/Tutorials/src</title>
<g id="clust1" class="cluster">
<title>clusterdir_6e355b58bf8669476ee36a32071bc3eb</title>
<g id="a_clust1"><a xlink:href="dir_6e355b58bf8669476ee36a32071bc3eb.html" target="_top" xlink:title="Tutorials">
<polygon fill="#ddddee" stroke="#000000" points="104,-352 104,-423 174,-423 174,-352 104,-352"/>
<text text-anchor="middle" x="139" y="-411" font-family="Helvetica,sans-Serif" font-size="10.00" fill="#000000">Tutorials</text>
</a>
</g>
</g>
<!-- dir_75e6eb4f8361c04b3062a7d58db1db64 -->
<g id="node1" class="node">
<title>dir_75e6eb4f8361c04b3062a7d58db1db64</title>
<g id="a_node1"><a xlink:href="dir_75e6eb4f8361c04b3062a7d58db1db64.html" target="_top" xlink:title="src">
<polygon fill="#eeeeff" stroke="#000000" points="166,-396 112,-396 112,-360 166,-360 166,-396"/>
<text text-anchor="middle" x="139" y="-375.5" font-family="Helvetica,sans-Serif" font-size="10.00" fill="#000000">src</text>
</a>
</g>
</g>
<!-- dir_6af676bf18881990e4083e191d0e63e0 -->
<g id="node2" class="node">
<title>dir_6af676bf18881990e4083e191d0e63e0</title>
<g id="a_node2"><a xlink:href="dir_6af676bf18881990e4083e191d0e63e0.html" target="_top" xlink:title="CCDB">
<polygon fill="none" stroke="#ff0000" points="196,-180 142,-180 142,-144 196,-144 196,-180"/>
<text text-anchor="middle" x="169" y="-159.5" font-family="Helvetica,sans-Serif" font-size="10.00" fill="#000000">CCDB</text>
</a>
</g>
</g>
<!-- dir_75e6eb4f8361c04b3062a7d58db1db64&#45;&gt;dir_6af676bf18881990e4083e191d0e63e0 -->
<g id="edge5" class="edge">
<title>dir_75e6eb4f8361c04b3062a7d58db1db64&#45;&gt;dir_6af676bf18881990e4083e191d0e63e0</title>
<path fill="none" stroke="#000000" d="M144.2205,-359.8322C150.9339,-335.5159 162.2882,-290.931 167,-252 169.4999,-231.3448 169.9406,-207.834 169.7878,-190.0231"/>
<polygon fill="#000000" stroke="#000000" points="173.2872,-189.9488 169.6347,-180.0035 166.288,-190.0558 173.2872,-189.9488"/>
<g id="a_edge5&#45;headlabel"><a xlink:href="dir_000019_000020.html" target="_top" xlink:title="1">
<text text-anchor="middle" x="176.1809" y="-190.9997" font-family="Helvetica,sans-Serif" font-size="10.00" fill="#000000">1</text>
</a>
</g>
</g>
<!-- dir_f41dd59f861c855ea21b0dc3111cb7b0 -->
<g id="node3" class="node">
<title>dir_f41dd59f861c855ea21b0dc3111cb7b0</title>
<g id="a_node3"><a xlink:href="dir_f41dd59f861c855ea21b0dc3111cb7b0.html" target="_top" xlink:title="DataModel">
<polygon fill="none" stroke="#ff0000" points="110.5,-324 41.5,-324 41.5,-288 110.5,-288 110.5,-324"/>
<text text-anchor="middle" x="76" y="-303.5" font-family="Helvetica,sans-Serif" font-size="10.00" fill="#000000">DataModel</text>
</a>
</g>
</g>
<!-- dir_75e6eb4f8361c04b3062a7d58db1db64&#45;&gt;dir_f41dd59f861c855ea21b0dc3111cb7b0 -->
<g id="edge6" class="edge">
<title>dir_75e6eb4f8361c04b3062a7d58db1db64&#45;&gt;dir_f41dd59f861c855ea21b0dc3111cb7b0</title>
<path fill="none" stroke="#000000" d="M123.1024,-359.8314C115.7722,-351.454 106.934,-341.3531 98.9031,-332.1749"/>
<polygon fill="#000000" stroke="#000000" points="101.3307,-329.6343 92.1116,-324.4133 96.0627,-334.2438 101.3307,-329.6343"/>
<g id="a_edge6&#45;headlabel"><a xlink:href="dir_000019_000009.html" target="_top" xlink:title="2">
<text text-anchor="middle" x="105.8345" y="-327.9698" font-family="Helvetica,sans-Serif" font-size="10.00" fill="#000000">2</text>
</a>
</g>
</g>
<!-- dir_8d04f135a1eb0fdc4d561ef87bbea216 -->
<g id="node4" class="node">
<title>dir_8d04f135a1eb0fdc4d561ef87bbea216</title>
<g id="a_node4"><a xlink:href="dir_8d04f135a1eb0fdc4d561ef87bbea216.html" target="_top" xlink:title="Core">
<polygon fill="none" stroke="#ff0000" points="158,-252 104,-252 104,-216 158,-216 158,-252"/>
<text text-anchor="middle" x="131" y="-231.5" font-family="Helvetica,sans-Serif" font-size="10.00" fill="#000000">Core</text>
</a>
</g>
</g>
<!-- dir_75e6eb4f8361c04b3062a7d58db1db64&#45;&gt;dir_8d04f135a1eb0fdc4d561ef87bbea216 -->
<g id="edge7" class="edge">
<title>dir_75e6eb4f8361c04b3062a7d58db1db64&#45;&gt;dir_8d04f135a1eb0fdc4d561ef87bbea216</title>
<path fill="none" stroke="#000000" d="M137.9868,-359.7623C136.6223,-335.201 134.1804,-291.2474 132.5752,-262.3541"/>
<polygon fill="#000000" stroke="#000000" points="136.0544,-261.88 132.005,-252.0896 129.0652,-262.2684 136.0544,-261.88"/>
<g id="a_edge7&#45;headlabel"><a xlink:href="dir_000019_000005.html" target="_top" xlink:title="3">
<text text-anchor="middle" x="139.0886" y="-262.8117" font-family="Helvetica,sans-Serif" font-size="10.00" fill="#000000">3</text>
</a>
</g>
</g>
<!-- dir_bcbb2cf9a3d3d83e5515c82071a07177 -->
<g id="node5" class="node">
<title>dir_bcbb2cf9a3d3d83e5515c82071a07177</title>
<g id="a_node5"><a xlink:href="dir_bcbb2cf9a3d3d83e5515c82071a07177.html" target="_top" xlink:title="Framework">
<polygon fill="none" stroke="#ff0000" points="143.5,-108 72.5,-108 72.5,-72 143.5,-72 143.5,-108"/>
<text text-anchor="middle" x="108" y="-87.5" font-family="Helvetica,sans-Serif" font-size="10.00" fill="#000000">Framework</text>
</a>
</g>
</g>
<!-- dir_75e6eb4f8361c04b3062a7d58db1db64&#45;&gt;dir_bcbb2cf9a3d3d83e5515c82071a07177 -->
<g id="edge8" class="edge">
<title>dir_75e6eb4f8361c04b3062a7d58db1db64&#45;&gt;dir_bcbb2cf9a3d3d83e5515c82071a07177</title>
<path fill="none" stroke="#000000" d="M153.2341,-359.7546C183.433,-318.6626 247.7799,-216.7779 205,-144 193.6686,-124.7229 172.6861,-111.8276 153.1271,-103.489"/>
<polygon fill="#000000" stroke="#000000" points="154.2746,-100.179 143.6883,-99.7535 151.6986,-106.6879 154.2746,-100.179"/>
<g id="a_edge8&#45;headlabel"><a xlink:href="dir_000019_000014.html" target="_top" xlink:title="53">
<text text-anchor="middle" x="158.6618" y="-96.3617" font-family="Helvetica,sans-Serif" font-size="10.00" fill="#000000">53</text>
</a>
</g>
</g>
<!-- dir_2171f7ec022c5423887b07c69b2f5b48 -->
<g id="node6" class="node">
<title>dir_2171f7ec022c5423887b07c69b2f5b48</title>
<g id="a_node6"><a xlink:href="dir_2171f7ec022c5423887b07c69b2f5b48.html" target="_top" xlink:title="DataFormats">
<polygon fill="none" stroke="#ff0000" points="110,-36 30,-36 30,0 110,0 110,-36"/>
<text text-anchor="middle" x="70" y="-15.5" font-family="Helvetica,sans-Serif" font-size="10.00" fill="#000000">DataFormats</text>
</a>
</g>
</g>
<!-- dir_75e6eb4f8361c04b3062a7d58db1db64&#45;&gt;dir_2171f7ec022c5423887b07c69b2f5b48 -->
<g id="edge9" class="edge">
<title>dir_75e6eb4f8361c04b3062a7d58db1db64&#45;&gt;dir_2171f7ec022c5423887b07c69b2f5b48</title>
<path fill="none" stroke="#000000" d="M111.6685,-370.5616C87.6067,-362.6965 53.1901,-348.0379 32,-324 3.9268,-292.154 0,-276.4532 0,-234 0,-234 0,-234 0,-162 0,-117.1595 27.7942,-71.6528 48.3548,-44.1238"/>
<polygon fill="#000000" stroke="#000000" points="51.1435,-46.239 54.4647,-36.1781 45.5944,-41.9719 51.1435,-46.239"/>
<g id="a_edge9&#45;headlabel"><a xlink:href="dir_000019_000077.html" target="_top" xlink:title="1">
<text text-anchor="middle" x="51.2031" y="-48.3192" font-family="Helvetica,sans-Serif" font-size="10.00" fill="#000000">1</text>
</a>
</g>
</g>
<!-- dir_6af676bf18881990e4083e191d0e63e0&#45;&gt;dir_bcbb2cf9a3d3d83e5515c82071a07177 -->
<g id="edge1" class="edge">
<title>dir_6af676bf18881990e4083e191d0e63e0&#45;&gt;dir_bcbb2cf9a3d3d83e5515c82071a07177</title>
<path fill="none" stroke="#000000" d="M153.6071,-143.8314C146.5096,-135.454 137.952,-125.3531 130.176,-116.1749"/>
<polygon fill="#000000" stroke="#000000" points="132.7348,-113.7807 123.6001,-108.4133 127.3939,-118.3056 132.7348,-113.7807"/>
<g id="a_edge1&#45;headlabel"><a xlink:href="dir_000020_000014.html" target="_top" xlink:title="2">
<text text-anchor="middle" x="137.2247" y="-112.1879" font-family="Helvetica,sans-Serif" font-size="10.00" fill="#000000">2</text>
</a>
</g>
</g>
<!-- dir_f41dd59f861c855ea21b0dc3111cb7b0&#45;&gt;dir_8d04f135a1eb0fdc4d561ef87bbea216 -->
<g id="edge2" class="edge">
<title>dir_f41dd59f861c855ea21b0dc3111cb7b0&#45;&gt;dir_8d04f135a1eb0fdc4d561ef87bbea216</title>
<path fill="none" stroke="#000000" d="M89.8788,-287.8314C96.2136,-279.5386 103.8384,-269.557 110.7926,-260.4533"/>
<polygon fill="#000000" stroke="#000000" points="113.6452,-262.4847 116.9343,-252.4133 108.0825,-258.2353 113.6452,-262.4847"/>
<g id="a_edge2&#45;headlabel"><a xlink:href="dir_000009_000005.html" target="_top" xlink:title="1">
<text text-anchor="middle" x="113.7195" y="-264.5647" font-family="Helvetica,sans-Serif" font-size="10.00" fill="#000000">1</text>
</a>
</g>
</g>
<!-- dir_f41dd59f861c855ea21b0dc3111cb7b0&#45;&gt;dir_bcbb2cf9a3d3d83e5515c82071a07177 -->
<g id="edge3" class="edge">
<title>dir_f41dd59f861c855ea21b0dc3111cb7b0&#45;&gt;dir_bcbb2cf9a3d3d83e5515c82071a07177</title>
<path fill="none" stroke="#000000" d="M78.6733,-287.9555C84.2497,-250.3144 97.1575,-163.1867 103.8334,-118.1246"/>
<polygon fill="#000000" stroke="#000000" points="107.3085,-118.5501 105.3118,-108.1451 100.3841,-117.5242 107.3085,-118.5501"/>
<g id="a_edge3&#45;headlabel"><a xlink:href="dir_000009_000014.html" target="_top" xlink:title="15">
<text text-anchor="middle" x="109.5904" y="-120.0219" font-family="Helvetica,sans-Serif" font-size="10.00" fill="#000000">15</text>
</a>
</g>
</g>
<!-- dir_f41dd59f861c855ea21b0dc3111cb7b0&#45;&gt;dir_2171f7ec022c5423887b07c69b2f5b48 -->
<g id="edge4" class="edge">
<title>dir_f41dd59f861c855ea21b0dc3111cb7b0&#45;&gt;dir_2171f7ec022c5423887b07c69b2f5b48</title>
<path fill="none" stroke="#000000" d="M73.5014,-287.7886C68.4254,-248.4087 57.811,-152.3942 63,-72 63.5395,-63.6422 64.5439,-54.6019 65.6268,-46.3525"/>
<polygon fill="#000000" stroke="#000000" points="69.0947,-46.825 67.0115,-36.437 62.162,-45.8568 69.0947,-46.825"/>
<g id="a_edge4&#45;headlabel"><a xlink:href="dir_000009_000077.html" target="_top" xlink:title="3">
<text text-anchor="middle" x="71.4096" y="-48.2778" font-family="Helvetica,sans-Serif" font-size="10.00" fill="#000000">3</text>
</a>
</g>
</g>
<!-- dir_8d04f135a1eb0fdc4d561ef87bbea216&#45;&gt;dir_6af676bf18881990e4083e191d0e63e0 -->
<g id="edge10" class="edge">
<title>dir_8d04f135a1eb0fdc4d561ef87bbea216&#45;&gt;dir_6af676bf18881990e4083e191d0e63e0</title>
<path fill="none" stroke="#000000" d="M140.589,-215.8314C144.8317,-207.7925 149.9121,-198.1666 154.596,-189.2918"/>
<polygon fill="#000000" stroke="#000000" points="157.7096,-190.8908 159.2819,-180.4133 151.5189,-187.6235 157.7096,-190.8908"/>
<g id="a_edge10&#45;headlabel"><a xlink:href="dir_000005_000020.html" target="_top" xlink:title="1">
<text text-anchor="middle" x="158.5428" y="-192.895" font-family="Helvetica,sans-Serif" font-size="10.00" fill="#000000">1</text>
</a>
</g>
</g>
<!-- dir_8d04f135a1eb0fdc4d561ef87bbea216&#45;&gt;dir_bcbb2cf9a3d3d83e5515c82071a07177 -->
<g id="edge11" class="edge">
<title>dir_8d04f135a1eb0fdc4d561ef87bbea216&#45;&gt;dir_bcbb2cf9a3d3d83e5515c82071a07177</title>
<path fill="none" stroke="#000000" d="M128.087,-215.7623C124.1468,-191.0928 117.0818,-146.8598 112.4679,-117.9731"/>
<polygon fill="#000000" stroke="#000000" points="115.9228,-117.4124 110.8893,-108.0896 109.0104,-118.5165 115.9228,-117.4124"/>
<g id="a_edge11&#45;headlabel"><a xlink:href="dir_000005_000014.html" target="_top" xlink:title="5">
<text text-anchor="middle" x="119.2934" y="-118.0142" font-family="Helvetica,sans-Serif" font-size="10.00" fill="#000000">5</text>
</a>
</g>
</g>
<!-- dir_bcbb2cf9a3d3d83e5515c82071a07177&#45;&gt;dir_2171f7ec022c5423887b07c69b2f5b48 -->
<g id="edge12" class="edge">
<title>dir_bcbb2cf9a3d3d83e5515c82071a07177&#45;&gt;dir_2171f7ec022c5423887b07c69b2f5b48</title>
<path fill="none" stroke="#000000" d="M92.4586,-71.8314C87.4854,-63.8771 82.2571,-54.369 77.9692,-45.5723"/>
<polygon fill="#000000" stroke="#000000" points="81.1105,-44.0262 73.7421,-36.4133 74.7547,-46.9596 81.1105,-44.0262"/>
<g id="a_edge12&#45;headlabel"><a xlink:href="dir_000014_000077.html" target="_top" xlink:title="82">
<text text-anchor="middle" x="85.1947" y="-43.6003" font-family="Helvetica,sans-Serif" font-size="10.00" fill="#000000">82</text>
</a>
</g>
</g>
<!-- dir_2171f7ec022c5423887b07c69b2f5b48&#45;&gt;dir_bcbb2cf9a3d3d83e5515c82071a07177 -->
<g id="edge13" class="edge">
<title>dir_2171f7ec022c5423887b07c69b2f5b48&#45;&gt;dir_bcbb2cf9a3d3d83e5515c82071a07177</title>
<path fill="none" stroke="#000000" d="M85.6941,-36.4133C90.6725,-44.3991 95.8936,-53.9155 100.1621,-62.6975"/>
<polygon fill="#000000" stroke="#000000" points="97.0048,-64.2089 104.3634,-71.8314 103.3643,-61.2837 97.0048,-64.2089"/>
<g id="a_edge13&#45;headlabel"><a xlink:href="dir_000077_000014.html" target="_top" xlink:title="12">
<text text-anchor="middle" x="92.9232" y="-59.6297" font-family="Helvetica,sans-Serif" font-size="10.00" fill="#000000">12</text>
</a>
</g>
</g>
</g>
</svg>
