<?xml version="1.0" encoding="UTF-8" standalone="no"?>
<!DOCTYPE svg PUBLIC "-//W3C//DTD SVG 1.1//EN"
 "http://www.w3.org/Graphics/SVG/1.1/DTD/svg11.dtd">
<!-- Generated by graphviz version 2.40.1 (20161225.0304)
 -->
<!-- Title: /home/travis/build/AliceO2Group/AliceO2/Detectors/FIT Pages: 1 -->
<svg width="501pt" height="375pt"
 viewBox="0.00 0.00 501.00 375.00" xmlns="http://www.w3.org/2000/svg" xmlns:xlink="http://www.w3.org/1999/xlink">
<g id="graph0" class="graph" transform="scale(1 1) rotate(0) translate(4 371)">
<title>/home/travis/build/AliceO2Group/AliceO2/Detectors/FIT</title>
<g id="clust1" class="cluster">
<title>clusterdir_051dca18e802f8e9474f2e30d29c04e0</title>
<g id="a_clust1"><a xlink:href="dir_051dca18e802f8e9474f2e30d29c04e0.html" target="_top" xlink:title="Detectors">
<polygon fill="#ddddee" stroke="#000000" points="105,-272 105,-359 485,-359 485,-272 105,-272"/>
<text text-anchor="middle" x="295" y="-347" font-family="Helvetica,sans-Serif" font-size="10.00" fill="#000000">Detectors</text>
</a>
</g>
</g>
<g id="clust2" class="cluster">
<title>clusterdir_d14e88a79bca429480864605ee348cef</title>
<g id="a_clust2"><a xlink:href="dir_d14e88a79bca429480864605ee348cef.html" target="_top">
<polygon fill="#eeeeff" stroke="#000000" points="113,-280 113,-332 477,-332 477,-280 113,-280"/>
</a>
</g>
</g>
<!-- dir_d14e88a79bca429480864605ee348cef -->
<g id="node1" class="node">
<title>dir_d14e88a79bca429480864605ee348cef</title>
<text text-anchor="middle" x="442" y="-303.5" font-family="Helvetica,sans-Serif" font-size="10.00" fill="#000000">FIT</text>
</g>
<!-- dir_e149fd8c00f4d2e1086cfbf4d58a065a -->
<g id="node2" class="node">
<title>dir_e149fd8c00f4d2e1086cfbf4d58a065a</title>
<g id="a_node2"><a xlink:href="dir_e149fd8c00f4d2e1086cfbf4d58a065a.html" target="_top" xlink:title="common">
<polygon fill="#ffffff" stroke="#ff0000" points="396.5,-324 337.5,-324 337.5,-288 396.5,-288 396.5,-324"/>
<text text-anchor="middle" x="367" y="-303.5" font-family="Helvetica,sans-Serif" font-size="10.00" fill="#000000">common</text>
</a>
</g>
</g>
<!-- dir_a5b1c90a9b4d60b6556bfe35a03caaa0 -->
<g id="node3" class="node">
<title>dir_a5b1c90a9b4d60b6556bfe35a03caaa0</title>
<g id="a_node3"><a xlink:href="dir_a5b1c90a9b4d60b6556bfe35a03caaa0.html" target="_top" xlink:title="FDD">
<polygon fill="#ffffff" stroke="#ff0000" points="247,-324 193,-324 193,-288 247,-288 247,-324"/>
<text text-anchor="middle" x="220" y="-303.5" font-family="Helvetica,sans-Serif" font-size="10.00" fill="#000000">FDD</text>
</a>
</g>
</g>
<!-- dir_4ab6b4cc6a7edbff49100e9123df213f -->
<g id="node6" class="node">
<title>dir_4ab6b4cc6a7edbff49100e9123df213f</title>
<g id="a_node6"><a xlink:href="dir_4ab6b4cc6a7edbff49100e9123df213f.html" target="_top" xlink:title="Common">
<polygon fill="none" stroke="#ff0000" points="263.5,-252 202.5,-252 202.5,-216 263.5,-216 263.5,-252"/>
<text text-anchor="middle" x="233" y="-231.5" font-family="Helvetica,sans-Serif" font-size="10.00" fill="#000000">Common</text>
</a>
</g>
</g>
<!-- dir_a5b1c90a9b4d60b6556bfe35a03caaa0&#45;&gt;dir_4ab6b4cc6a7edbff49100e9123df213f -->
<g id="edge18" class="edge">
<title>dir_a5b1c90a9b4d60b6556bfe35a03caaa0&#45;&gt;dir_4ab6b4cc6a7edbff49100e9123df213f</title>
<path fill="none" stroke="#000000" d="M223.2804,-287.8314C224.6708,-280.131 226.3241,-270.9743 227.8692,-262.4166"/>
<polygon fill="#000000" stroke="#000000" points="231.3428,-262.8761 229.6754,-252.4133 224.4542,-261.6322 231.3428,-262.8761"/>
<g id="a_edge18&#45;headlabel"><a xlink:href="dir_000164_000028.html" target="_top" xlink:title="5">
<text text-anchor="middle" x="233.4983" y="-264.4179" font-family="Helvetica,sans-Serif" font-size="10.00" fill="#000000">5</text>
</a>
</g>
</g>
<!-- dir_37c90836491b695b472bf98d1be8336b -->
<g id="node8" class="node">
<title>dir_37c90836491b695b472bf98d1be8336b</title>
<g id="a_node8"><a xlink:href="dir_37c90836491b695b472bf98d1be8336b.html" target="_top" xlink:title="Base">
<polygon fill="none" stroke="#ff0000" points="327,-36 273,-36 273,0 327,0 327,-36"/>
<text text-anchor="middle" x="300" y="-15.5" font-family="Helvetica,sans-Serif" font-size="10.00" fill="#000000">Base</text>
</a>
</g>
</g>
<!-- dir_a5b1c90a9b4d60b6556bfe35a03caaa0&#45;&gt;dir_37c90836491b695b472bf98d1be8336b -->
<g id="edge19" class="edge">
<title>dir_a5b1c90a9b4d60b6556bfe35a03caaa0&#45;&gt;dir_37c90836491b695b472bf98d1be8336b</title>
<path fill="none" stroke="#000000" d="M237.6872,-287.97C243.331,-282.5858 249.7408,-276.8349 256,-272 269.2728,-261.7474 279.4966,-266.456 288,-252 326.4595,-186.6178 315.257,-92.3284 306.3355,-45.9359"/>
<polygon fill="#000000" stroke="#000000" points="309.7384,-45.1054 304.3168,-36.0028 302.8786,-46.4996 309.7384,-45.1054"/>
<g id="a_edge19&#45;headlabel"><a xlink:href="dir_000164_000275.html" target="_top" xlink:title="1">
<text text-anchor="middle" x="313.2366" y="-45.5626" font-family="Helvetica,sans-Serif" font-size="10.00" fill="#000000">1</text>
</a>
</g>
</g>
<!-- dir_bcbb2cf9a3d3d83e5515c82071a07177 -->
<g id="node9" class="node">
<title>dir_bcbb2cf9a3d3d83e5515c82071a07177</title>
<g id="a_node9"><a xlink:href="dir_bcbb2cf9a3d3d83e5515c82071a07177.html" target="_top" xlink:title="Framework">
<polygon fill="none" stroke="#ff0000" points="177.5,-180 106.5,-180 106.5,-144 177.5,-144 177.5,-180"/>
<text text-anchor="middle" x="142" y="-159.5" font-family="Helvetica,sans-Serif" font-size="10.00" fill="#000000">Framework</text>
</a>
</g>
</g>
<!-- dir_a5b1c90a9b4d60b6556bfe35a03caaa0&#45;&gt;dir_bcbb2cf9a3d3d83e5515c82071a07177 -->
<g id="edge20" class="edge">
<title>dir_a5b1c90a9b4d60b6556bfe35a03caaa0&#45;&gt;dir_bcbb2cf9a3d3d83e5515c82071a07177</title>
<path fill="none" stroke="#000000" d="M210.1212,-287.7623C196.6414,-262.8764 172.3779,-218.0822 156.7423,-189.2165"/>
<polygon fill="#000000" stroke="#000000" points="159.639,-187.2155 151.7985,-180.0896 153.4839,-190.5496 159.639,-187.2155"/>
<g id="a_edge20&#45;headlabel"><a xlink:href="dir_000164_000014.html" target="_top" xlink:title="16">
<text text-anchor="middle" x="163.8475" y="-186.524" font-family="Helvetica,sans-Serif" font-size="10.00" fill="#000000">16</text>
</a>
</g>
</g>
<!-- dir_2171f7ec022c5423887b07c69b2f5b48 -->
<g id="node11" class="node">
<title>dir_2171f7ec022c5423887b07c69b2f5b48</title>
<g id="a_node11"><a xlink:href="dir_2171f7ec022c5423887b07c69b2f5b48.html" target="_top" xlink:title="DataFormats">
<polygon fill="none" stroke="#ff0000" points="234,-108 154,-108 154,-72 234,-72 234,-108"/>
<text text-anchor="middle" x="194" y="-87.5" font-family="Helvetica,sans-Serif" font-size="10.00" fill="#000000">DataFormats</text>
</a>
</g>
</g>
<!-- dir_a5b1c90a9b4d60b6556bfe35a03caaa0&#45;&gt;dir_2171f7ec022c5423887b07c69b2f5b48 -->
<g id="edge21" class="edge">
<title>dir_a5b1c90a9b4d60b6556bfe35a03caaa0&#45;&gt;dir_2171f7ec022c5423887b07c69b2f5b48</title>
<path fill="none" stroke="#000000" d="M239.0667,-287.9588C253.498,-274.0794 271.1486,-256.5294 273,-252 279.0538,-237.1895 275.8548,-231.7433 273,-216 266.9022,-182.3724 264.2305,-172.9076 246,-144 239.5027,-133.6974 230.8065,-123.7108 222.3873,-115.186"/>
<polygon fill="#000000" stroke="#000000" points="224.7248,-112.5767 215.1223,-108.0997 219.837,-117.5877 224.7248,-112.5767"/>
<g id="a_edge21&#45;headlabel"><a xlink:href="dir_000164_000077.html" target="_top" xlink:title="25">
<text text-anchor="middle" x="229.2805" y="-110.5541" font-family="Helvetica,sans-Serif" font-size="10.00" fill="#000000">25</text>
</a>
</g>
</g>
<!-- dir_732f729910dd598014f768fa2866f334 -->
<g id="node4" class="node">
<title>dir_732f729910dd598014f768fa2866f334</title>
<g id="a_node4"><a xlink:href="dir_732f729910dd598014f768fa2866f334.html" target="_top" xlink:title="FT0">
<polygon fill="#ffffff" stroke="#ff0000" points="175,-324 121,-324 121,-288 175,-288 175,-324"/>
<text text-anchor="middle" x="148" y="-303.5" font-family="Helvetica,sans-Serif" font-size="10.00" fill="#000000">FT0</text>
</a>
</g>
</g>
<!-- dir_732f729910dd598014f768fa2866f334&#45;&gt;dir_4ab6b4cc6a7edbff49100e9123df213f -->
<g id="edge12" class="edge">
<title>dir_732f729910dd598014f768fa2866f334&#45;&gt;dir_4ab6b4cc6a7edbff49100e9123df213f</title>
<path fill="none" stroke="#000000" d="M166.7392,-287.6487C172.2046,-282.4765 178.2541,-276.9211 184,-272 189.2738,-267.4832 195.0006,-262.8302 200.6174,-258.3964"/>
<polygon fill="#000000" stroke="#000000" points="202.9642,-261.0049 208.7023,-252.0985 198.6625,-255.4826 202.9642,-261.0049"/>
<g id="a_edge12&#45;headlabel"><a xlink:href="dir_000287_000028.html" target="_top" xlink:title="13">
<text text-anchor="middle" x="201.8732" y="-262.9538" font-family="Helvetica,sans-Serif" font-size="10.00" fill="#000000">13</text>
</a>
</g>
</g>
<!-- dir_b05a5fa85f84bfc9013183c9d87f9a36 -->
<g id="node7" class="node">
<title>dir_b05a5fa85f84bfc9013183c9d87f9a36</title>
<g id="a_node7"><a xlink:href="dir_b05a5fa85f84bfc9013183c9d87f9a36.html" target="_top" xlink:title="Utilities">
<polygon fill="none" stroke="#ff0000" points="153.5,-36 98.5,-36 98.5,0 153.5,0 153.5,-36"/>
<text text-anchor="middle" x="126" y="-15.5" font-family="Helvetica,sans-Serif" font-size="10.00" fill="#000000">Utilities</text>
</a>
</g>
</g>
<!-- dir_732f729910dd598014f768fa2866f334&#45;&gt;dir_b05a5fa85f84bfc9013183c9d87f9a36 -->
<g id="edge13" class="edge">
<title>dir_732f729910dd598014f768fa2866f334&#45;&gt;dir_b05a5fa85f84bfc9013183c9d87f9a36</title>
<path fill="none" stroke="#000000" d="M120.9407,-298.9752C97.8758,-291.4463 65.9949,-277.0506 50,-252 32.7374,-224.9641 46.1118,-212.0578 45,-180 44.4454,-164.0096 40.4912,-159.3516 45,-144 56.2096,-105.8333 82.9427,-68.2916 102.6459,-44.2546"/>
<polygon fill="#000000" stroke="#000000" points="105.5417,-46.2483 109.285,-36.3368 100.1778,-41.7507 105.5417,-46.2483"/>
<g id="a_edge13&#45;headlabel"><a xlink:href="dir_000287_000577.html" target="_top" xlink:title="1">
<text text-anchor="middle" x="105.4078" y="-48.327" font-family="Helvetica,sans-Serif" font-size="10.00" fill="#000000">1</text>
</a>
</g>
</g>
<!-- dir_732f729910dd598014f768fa2866f334&#45;&gt;dir_37c90836491b695b472bf98d1be8336b -->
<g id="edge14" class="edge">
<title>dir_732f729910dd598014f768fa2866f334&#45;&gt;dir_37c90836491b695b472bf98d1be8336b</title>
<path fill="none" stroke="#000000" d="M163.7127,-287.6549C169.5434,-281.8671 176.5623,-275.9571 184,-272 219.7917,-252.9578 245.894,-282.1483 273,-252 324.5822,-194.6286 314.8014,-94.7344 306.0862,-46.1485"/>
<polygon fill="#000000" stroke="#000000" points="309.5229,-45.4855 304.2096,-36.3193 302.6471,-46.7983 309.5229,-45.4855"/>
<g id="a_edge14&#45;headlabel"><a xlink:href="dir_000287_000275.html" target="_top" xlink:title="1">
<text text-anchor="middle" x="312.9858" y="-45.984" font-family="Helvetica,sans-Serif" font-size="10.00" fill="#000000">1</text>
</a>
</g>
</g>
<!-- dir_732f729910dd598014f768fa2866f334&#45;&gt;dir_bcbb2cf9a3d3d83e5515c82071a07177 -->
<g id="edge15" class="edge">
<title>dir_732f729910dd598014f768fa2866f334&#45;&gt;dir_bcbb2cf9a3d3d83e5515c82071a07177</title>
<path fill="none" stroke="#000000" d="M147.2401,-287.7623C146.2167,-263.201 144.3853,-219.2474 143.1814,-190.3541"/>
<polygon fill="#000000" stroke="#000000" points="146.6671,-189.9352 142.7537,-180.0896 139.6732,-190.2267 146.6671,-189.9352"/>
<g id="a_edge15&#45;headlabel"><a xlink:href="dir_000287_000014.html" target="_top" xlink:title="56">
<text text-anchor="middle" x="149.6535" y="-190.9085" font-family="Helvetica,sans-Serif" font-size="10.00" fill="#000000">56</text>
</a>
</g>
</g>
<!-- dir_26637d1bd82229bc9ed97f7e706be743 -->
<g id="node10" class="node">
<title>dir_26637d1bd82229bc9ed97f7e706be743</title>
<g id="a_node10"><a xlink:href="dir_26637d1bd82229bc9ed97f7e706be743.html" target="_top" xlink:title="Raw">
<polygon fill="none" stroke="#ff0000" points="54,-324 0,-324 0,-288 54,-288 54,-324"/>
<text text-anchor="middle" x="27" y="-303.5" font-family="Helvetica,sans-Serif" font-size="10.00" fill="#000000">Raw</text>
</a>
</g>
</g>
<!-- dir_732f729910dd598014f768fa2866f334&#45;&gt;dir_26637d1bd82229bc9ed97f7e706be743 -->
<g id="edge16" class="edge">
<title>dir_732f729910dd598014f768fa2866f334&#45;&gt;dir_26637d1bd82229bc9ed97f7e706be743</title>
<path fill="none" stroke="#000000" d="M120.9478,-306C102.1486,-306 83.3493,-306 64.5501,-306"/>
<polygon fill="#000000" stroke="#000000" points="64.4141,-302.5001 54.4141,-306 64.414,-309.5001 64.4141,-302.5001"/>
<g id="a_edge16&#45;headlabel"><a xlink:href="dir_000287_000581.html" target="_top" xlink:title="6">
<text text-anchor="middle" x="68.0087" y="-297.1607" font-family="Helvetica,sans-Serif" font-size="10.00" fill="#000000">6</text>
</a>
</g>
</g>
<!-- dir_732f729910dd598014f768fa2866f334&#45;&gt;dir_2171f7ec022c5423887b07c69b2f5b48 -->
<g id="edge17" class="edge">
<title>dir_732f729910dd598014f768fa2866f334&#45;&gt;dir_2171f7ec022c5423887b07c69b2f5b48</title>
<path fill="none" stroke="#000000" d="M120.86,-294.3683C103.5305,-285.4287 82.2708,-271.3221 71,-252 46.7641,-210.4512 37.2967,-184.0076 64,-144 81.78,-117.3615 115.4232,-103.8452 144.0293,-96.997"/>
<polygon fill="#000000" stroke="#000000" points="144.8794,-100.394 153.9032,-94.8423 143.3869,-93.5549 144.8794,-100.394"/>
<g id="a_edge17&#45;headlabel"><a xlink:href="dir_000287_000077.html" target="_top" xlink:title="77">
<text text-anchor="middle" x="141.9728" y="-101.4343" font-family="Helvetica,sans-Serif" font-size="10.00" fill="#000000">77</text>
</a>
</g>
</g>
<!-- dir_47779a59737632a3da2336a4e8799b86 -->
<g id="node5" class="node">
<title>dir_47779a59737632a3da2336a4e8799b86</title>
<g id="a_node5"><a xlink:href="dir_47779a59737632a3da2336a4e8799b86.html" target="_top" xlink:title="FV0">
<polygon fill="#ffffff" stroke="#ff0000" points="319,-324 265,-324 265,-288 319,-288 319,-324"/>
<text text-anchor="middle" x="292" y="-303.5" font-family="Helvetica,sans-Serif" font-size="10.00" fill="#000000">FV0</text>
</a>
</g>
</g>
<!-- dir_47779a59737632a3da2336a4e8799b86&#45;&gt;dir_4ab6b4cc6a7edbff49100e9123df213f -->
<g id="edge9" class="edge">
<title>dir_47779a59737632a3da2336a4e8799b86&#45;&gt;dir_4ab6b4cc6a7edbff49100e9123df213f</title>
<path fill="none" stroke="#000000" d="M277.1118,-287.8314C270.247,-279.454 261.9699,-269.3531 254.4489,-260.1749"/>
<polygon fill="#000000" stroke="#000000" points="257.1341,-257.9297 248.0886,-252.4133 251.7197,-262.3665 257.1341,-257.9297"/>
<g id="a_edge9&#45;headlabel"><a xlink:href="dir_000175_000028.html" target="_top" xlink:title="4">
<text text-anchor="middle" x="261.6085" y="-256.4104" font-family="Helvetica,sans-Serif" font-size="10.00" fill="#000000">4</text>
</a>
</g>
</g>
<!-- dir_47779a59737632a3da2336a4e8799b86&#45;&gt;dir_37c90836491b695b472bf98d1be8336b -->
<g id="edge10" class="edge">
<title>dir_47779a59737632a3da2336a4e8799b86&#45;&gt;dir_37c90836491b695b472bf98d1be8336b</title>
<path fill="none" stroke="#000000" d="M310.7165,-287.7811C316.4285,-282.5035 322.8325,-276.8588 329,-272 386.613,-226.6116 431.5007,-244.7237 466,-180 488.578,-137.6416 494.207,-110.8377 466,-72 450.7079,-50.9447 381.2305,-33.8377 337.1477,-24.857"/>
<polygon fill="#000000" stroke="#000000" points="337.5665,-21.3718 327.0761,-22.8559 336.2023,-28.2376 337.5665,-21.3718"/>
<g id="a_edge10&#45;headlabel"><a xlink:href="dir_000175_000275.html" target="_top" xlink:title="1">
<text text-anchor="middle" x="341.6455" y="-16.7874" font-family="Helvetica,sans-Serif" font-size="10.00" fill="#000000">1</text>
</a>
</g>
</g>
<!-- dir_47779a59737632a3da2336a4e8799b86&#45;&gt;dir_2171f7ec022c5423887b07c69b2f5b48 -->
<g id="edge11" class="edge">
<title>dir_47779a59737632a3da2336a4e8799b86&#45;&gt;dir_2171f7ec022c5423887b07c69b2f5b48</title>
<path fill="none" stroke="#000000" d="M294.3249,-287.8641C297.4493,-255.8118 299.5016,-188.3561 269,-144 260.8798,-132.1913 249.2957,-122.0492 237.6535,-113.8481"/>
<polygon fill="#000000" stroke="#000000" points="239.4768,-110.8573 229.2145,-108.2235 235.5945,-116.682 239.4768,-110.8573"/>
<g id="a_edge11&#45;headlabel"><a xlink:href="dir_000175_000077.html" target="_top" xlink:title="8">
<text text-anchor="middle" x="244.0426" y="-107.9882" font-family="Helvetica,sans-Serif" font-size="10.00" fill="#000000">8</text>
</a>
</g>
</g>
<!-- dir_4ab6b4cc6a7edbff49100e9123df213f&#45;&gt;dir_bcbb2cf9a3d3d83e5515c82071a07177 -->
<g id="edge1" class="edge">
<title>dir_4ab6b4cc6a7edbff49100e9123df213f&#45;&gt;dir_bcbb2cf9a3d3d83e5515c82071a07177</title>
<path fill="none" stroke="#000000" d="M204.0845,-215.8314C192.128,-207.0485 178.466,-196.3712 166.9526,-186.8489"/>
<polygon fill="#000000" stroke="#000000" points="168.9097,-183.9215 159.004,-180.1628 164.4037,-189.2784 168.9097,-183.9215"/>
<g id="a_edge1&#45;headlabel"><a xlink:href="dir_000028_000014.html" target="_top" xlink:title="2">
<text text-anchor="middle" x="173.4882" y="-181.5625" font-family="Helvetica,sans-Serif" font-size="10.00" fill="#000000">2</text>
</a>
</g>
</g>
<!-- dir_4ab6b4cc6a7edbff49100e9123df213f&#45;&gt;dir_2171f7ec022c5423887b07c69b2f5b48 -->
<g id="edge2" class="edge">
<title>dir_4ab6b4cc6a7edbff49100e9123df213f&#45;&gt;dir_2171f7ec022c5423887b07c69b2f5b48</title>
<path fill="none" stroke="#000000" d="M225.1933,-215.7161C221.6058,-197.2765 218.3702,-168.1603 211,-144 208.2942,-135.13 204.3211,-125.891 200.6708,-117.6151"/>
<polygon fill="#000000" stroke="#000000" points="203.8579,-116.1679 196.6293,-108.422 197.4498,-118.9851 203.8579,-116.1679"/>
<g id="a_edge2&#45;headlabel"><a xlink:href="dir_000028_000077.html" target="_top" xlink:title="2">
<text text-anchor="middle" x="207.9037" y="-115.8158" font-family="Helvetica,sans-Serif" font-size="10.00" fill="#000000">2</text>
</a>
</g>
</g>
<!-- dir_b05a5fa85f84bfc9013183c9d87f9a36&#45;&gt;dir_4ab6b4cc6a7edbff49100e9123df213f -->
<g id="edge3" class="edge">
<title>dir_b05a5fa85f84bfc9013183c9d87f9a36&#45;&gt;dir_4ab6b4cc6a7edbff49100e9123df213f</title>
<path fill="none" stroke="#000000" d="M126.4453,-36.1378C127.653,-55.2443 131.7263,-85.6086 145,-108 157.5371,-129.1487 171.7842,-124.6887 187,-144 202.0052,-163.044 214.2128,-187.7478 222.2718,-206.4546"/>
<polygon fill="#000000" stroke="#000000" points="219.1279,-208.0094 226.207,-215.892 225.5887,-205.3152 219.1279,-208.0094"/>
<g id="a_edge3&#45;headlabel"><a xlink:href="dir_000577_000028.html" target="_top" xlink:title="1">
<text text-anchor="middle" x="215.1239" y="-203.2844" font-family="Helvetica,sans-Serif" font-size="10.00" fill="#000000">1</text>
</a>
</g>
</g>
<!-- dir_b05a5fa85f84bfc9013183c9d87f9a36&#45;&gt;dir_bcbb2cf9a3d3d83e5515c82071a07177 -->
<g id="edge4" class="edge">
<title>dir_b05a5fa85f84bfc9013183c9d87f9a36&#45;&gt;dir_bcbb2cf9a3d3d83e5515c82071a07177</title>
<path fill="none" stroke="#000000" d="M118.8929,-36.1441C112.7089,-54.4749 105.6535,-83.5082 112,-108 114.3846,-117.2024 118.7146,-126.5062 123.3568,-134.7379"/>
<polygon fill="#000000" stroke="#000000" points="120.4854,-136.7541 128.6438,-143.5137 126.4813,-133.1418 120.4854,-136.7541"/>
<g id="a_edge4&#45;headlabel"><a xlink:href="dir_000577_000014.html" target="_top" xlink:title="33">
<text text-anchor="middle" x="116.1984" y="-132.6403" font-family="Helvetica,sans-Serif" font-size="10.00" fill="#000000">33</text>
</a>
</g>
</g>
<!-- dir_b05a5fa85f84bfc9013183c9d87f9a36&#45;&gt;dir_2171f7ec022c5423887b07c69b2f5b48 -->
<g id="edge5" class="edge">
<title>dir_b05a5fa85f84bfc9013183c9d87f9a36&#45;&gt;dir_2171f7ec022c5423887b07c69b2f5b48</title>
<path fill="none" stroke="#000000" d="M149.1056,-36.1628C157.9006,-44.6038 167.7127,-54.7956 175.9846,-64.0303"/>
<polygon fill="#000000" stroke="#000000" points="173.5806,-66.5987 182.7931,-71.8314 178.8545,-61.9958 173.5806,-66.5987"/>
<g id="a_edge5&#45;headlabel"><a xlink:href="dir_000577_000077.html" target="_top" xlink:title="48">
<text text-anchor="middle" x="169.0779" y="-63.2575" font-family="Helvetica,sans-Serif" font-size="10.00" fill="#000000">48</text>
</a>
</g>
</g>
<!-- dir_37c90836491b695b472bf98d1be8336b&#45;&gt;dir_4ab6b4cc6a7edbff49100e9123df213f -->
<g id="edge6" class="edge">
<title>dir_37c90836491b695b472bf98d1be8336b&#45;&gt;dir_4ab6b4cc6a7edbff49100e9123df213f</title>
<path fill="none" stroke="#000000" d="M294.3717,-36.1451C282.644,-73.9537 255.5268,-161.3762 241.5984,-206.2797"/>
<polygon fill="#000000" stroke="#000000" points="238.2169,-205.3675 238.5971,-215.9555 244.9027,-207.4413 238.2169,-205.3675"/>
<g id="a_edge6&#45;headlabel"><a xlink:href="dir_000275_000028.html" target="_top" xlink:title="16">
<text text-anchor="middle" x="236.57" y="-198.5931" font-family="Helvetica,sans-Serif" font-size="10.00" fill="#000000">16</text>
</a>
</g>
</g>
<!-- dir_37c90836491b695b472bf98d1be8336b&#45;&gt;dir_bcbb2cf9a3d3d83e5515c82071a07177 -->
<g id="edge7" class="edge">
<title>dir_37c90836491b695b472bf98d1be8336b&#45;&gt;dir_bcbb2cf9a3d3d83e5515c82071a07177</title>
<path fill="none" stroke="#000000" d="M291.9885,-36.1582C282.574,-55.8457 265.3578,-87.2297 243,-108 226.7994,-123.0503 205.6138,-135.2152 186.8318,-144.1613"/>
<polygon fill="#000000" stroke="#000000" points="185.1829,-141.067 177.5536,-148.4184 188.1022,-147.4293 185.1829,-141.067"/>
<g id="a_edge7&#45;headlabel"><a xlink:href="dir_000275_000014.html" target="_top" xlink:title="1">
<text text-anchor="middle" x="187.266" y="-134.4874" font-family="Helvetica,sans-Serif" font-size="10.00" fill="#000000">1</text>
</a>
</g>
</g>
<!-- dir_37c90836491b695b472bf98d1be8336b&#45;&gt;dir_2171f7ec022c5423887b07c69b2f5b48 -->
<g id="edge8" class="edge">
<title>dir_37c90836491b695b472bf98d1be8336b&#45;&gt;dir_2171f7ec022c5423887b07c69b2f5b48</title>
<path fill="none" stroke="#000000" d="M279.2121,-36.1628C266.6703,-45.2859 250.3743,-56.4541 235.3569,-66.2489"/>
<polygon fill="#000000" stroke="#000000" points="233.2077,-63.4702 226.7007,-71.8314 237.0016,-69.3529 233.2077,-63.4702"/>
<g id="a_edge8&#45;headlabel"><a xlink:href="dir_000275_000077.html" target="_top" xlink:title="12">
<text text-anchor="middle" x="234.6898" y="-56.6359" font-family="Helvetica,sans-Serif" font-size="10.00" fill="#000000">12</text>
</a>
</g>
</g>
<!-- dir_bcbb2cf9a3d3d83e5515c82071a07177&#45;&gt;dir_4ab6b4cc6a7edbff49100e9123df213f -->
<g id="edge22" class="edge">
<title>dir_bcbb2cf9a3d3d83e5515c82071a07177&#45;&gt;dir_4ab6b4cc6a7edbff49100e9123df213f</title>
<path fill="none" stroke="#000000" d="M170.9076,-180.1628C182.8634,-188.9449 196.5254,-199.622 208.0397,-209.1448"/>
<polygon fill="#000000" stroke="#000000" points="206.0835,-212.0729 215.9893,-215.8314 210.5894,-206.7159 206.0835,-212.0729"/>
<g id="a_edge22&#45;headlabel"><a xlink:href="dir_000014_000028.html" target="_top" xlink:title="8">
<text text-anchor="middle" x="201.505" y="-209.4319" font-family="Helvetica,sans-Serif" font-size="10.00" fill="#000000">8</text>
</a>
</g>
</g>
<!-- dir_bcbb2cf9a3d3d83e5515c82071a07177&#45;&gt;dir_2171f7ec022c5423887b07c69b2f5b48 -->
<g id="edge23" class="edge">
<title>dir_bcbb2cf9a3d3d83e5515c82071a07177&#45;&gt;dir_2171f7ec022c5423887b07c69b2f5b48</title>
<path fill="none" stroke="#000000" d="M149.1694,-143.8314C154.3505,-135.5386 161.3654,-125.557 168.3603,-116.4533"/>
<polygon fill="#000000" stroke="#000000" points="171.2625,-118.4262 174.7255,-108.4133 165.7742,-114.0812 171.2625,-118.4262"/>
<g id="a_edge23&#45;headlabel"><a xlink:href="dir_000014_000077.html" target="_top" xlink:title="82">
<text text-anchor="middle" x="171.2574" y="-120.5068" font-family="Helvetica,sans-Serif" font-size="10.00" fill="#000000">82</text>
</a>
</g>
</g>
<!-- dir_26637d1bd82229bc9ed97f7e706be743&#45;&gt;dir_4ab6b4cc6a7edbff49100e9123df213f -->
<g id="edge24" class="edge">
<title>dir_26637d1bd82229bc9ed97f7e706be743&#45;&gt;dir_4ab6b4cc6a7edbff49100e9123df213f</title>
<path fill="none" stroke="#000000" d="M54.0779,-294.0065C69.9373,-287.1754 90.4373,-278.6754 109,-272 136.6536,-262.0555 168.3411,-252.3737 192.7613,-245.2716"/>
<polygon fill="#000000" stroke="#000000" points="193.7727,-248.6227 202.4115,-242.4891 191.8333,-241.8967 193.7727,-248.6227"/>
<g id="a_edge24&#45;headlabel"><a xlink:href="dir_000581_000028.html" target="_top" xlink:title="10">
<text text-anchor="middle" x="191.1054" y="-249.8466" font-family="Helvetica,sans-Serif" font-size="10.00" fill="#000000">10</text>
</a>
</g>
</g>
<!-- dir_26637d1bd82229bc9ed97f7e706be743&#45;&gt;dir_bcbb2cf9a3d3d83e5515c82071a07177 -->
<g id="edge25" class="edge">
<title>dir_26637d1bd82229bc9ed97f7e706be743&#45;&gt;dir_bcbb2cf9a3d3d83e5515c82071a07177</title>
<path fill="none" stroke="#000000" d="M41.5648,-287.7623C61.6982,-262.5518 98.148,-216.9103 121.1601,-188.0952"/>
<polygon fill="#000000" stroke="#000000" points="124.048,-190.0877 127.5534,-180.0896 118.5782,-185.7195 124.048,-190.0877"/>
<g id="a_edge25&#45;headlabel"><a xlink:href="dir_000581_000014.html" target="_top" xlink:title="25">
<text text-anchor="middle" x="124.0234" y="-192.1683" font-family="Helvetica,sans-Serif" font-size="10.00" fill="#000000">25</text>
</a>
</g>
</g>
<!-- dir_26637d1bd82229bc9ed97f7e706be743&#45;&gt;dir_2171f7ec022c5423887b07c69b2f5b48 -->
<g id="edge26" class="edge">
<title>dir_26637d1bd82229bc9ed97f7e706be743&#45;&gt;dir_2171f7ec022c5423887b07c69b2f5b48</title>
<path fill="none" stroke="#000000" d="M23.3836,-287.9302C17.9698,-255.3823 11.656,-186.3584 45,-144 57.6153,-127.9742 105.5891,-112.4 143.7377,-102.1288"/>
<polygon fill="#000000" stroke="#000000" points="144.9184,-105.4373 153.6972,-99.5057 143.1355,-98.6681 144.9184,-105.4373"/>
<g id="a_edge26&#45;headlabel"><a xlink:href="dir_000581_000077.html" target="_top" xlink:title="15">
<text text-anchor="middle" x="142.1654" y="-106.5983" font-family="Helvetica,sans-Serif" font-size="10.00" fill="#000000">15</text>
</a>
</g>
</g>
<!-- dir_2171f7ec022c5423887b07c69b2f5b48&#45;&gt;dir_732f729910dd598014f768fa2866f334 -->
<g id="edge30" class="edge">
<title>dir_2171f7ec022c5423887b07c69b2f5b48&#45;&gt;dir_732f729910dd598014f768fa2866f334</title>
<path fill="none" stroke="#000000" d="M153.7926,-101.7401C133.2384,-110.0084 110.0674,-123.3666 98,-144 72.3554,-187.8483 104.0094,-246.1992 127.3625,-279.5723"/>
<polygon fill="#000000" stroke="#000000" points="124.6823,-281.839 133.3774,-287.8925 130.3551,-277.7379 124.6823,-281.839"/>
<g id="a_edge30&#45;headlabel"><a xlink:href="dir_000077_000287.html" target="_top" xlink:title="1">
<text text-anchor="middle" x="120.2754" y="-278.0893" font-family="Helvetica,sans-Serif" font-size="10.00" fill="#000000">1</text>
</a>
</g>
</g>
<!-- dir_2171f7ec022c5423887b07c69b2f5b48&#45;&gt;dir_4ab6b4cc6a7edbff49100e9123df213f -->
<g id="edge27" class="edge">
<title>dir_2171f7ec022c5423887b07c69b2f5b48&#45;&gt;dir_4ab6b4cc6a7edbff49100e9123df213f</title>
<path fill="none" stroke="#000000" d="M212.5837,-108.422C219.0176,-118.604 225.2354,-131.6591 229,-144 235.1323,-164.1021 238.4022,-187.6351 238.8628,-205.5946"/>
<polygon fill="#000000" stroke="#000000" points="235.3622,-205.6941 238.7988,-215.7161 242.3621,-205.7385 235.3622,-205.6941"/>
<g id="a_edge27&#45;headlabel"><a xlink:href="dir_000077_000028.html" target="_top" xlink:title="35">
<text text-anchor="middle" x="232.5457" y="-199.5816" font-family="Helvetica,sans-Serif" font-size="10.00" fill="#000000">35</text>
</a>
</g>
</g>
<!-- dir_2171f7ec022c5423887b07c69b2f5b48&#45;&gt;dir_b05a5fa85f84bfc9013183c9d87f9a36 -->
<g id="edge28" class="edge">
<title>dir_2171f7ec022c5423887b07c69b2f5b48&#45;&gt;dir_b05a5fa85f84bfc9013183c9d87f9a36</title>
<path fill="none" stroke="#000000" d="M170.8883,-71.8314C162.16,-63.454 152.4306,-53.3531 144.1994,-44.1749"/>
<polygon fill="#000000" stroke="#000000" points="146.631,-41.6386 137.4143,-36.4133 141.3608,-46.2457 146.631,-41.6386"/>
<g id="a_edge28&#45;headlabel"><a xlink:href="dir_000077_000577.html" target="_top" xlink:title="1">
<text text-anchor="middle" x="151.1344" y="-39.9762" font-family="Helvetica,sans-Serif" font-size="10.00" fill="#000000">1</text>
</a>
</g>
</g>
<!-- dir_2171f7ec022c5423887b07c69b2f5b48&#45;&gt;dir_37c90836491b695b472bf98d1be8336b -->
<g id="edge29" class="edge">
<title>dir_2171f7ec022c5423887b07c69b2f5b48&#45;&gt;dir_37c90836491b695b472bf98d1be8336b</title>
<path fill="none" stroke="#000000" d="M214.7959,-71.8314C228.8095,-61.6379 247.5078,-48.8928 263.8724,-38.3629"/>
<polygon fill="#000000" stroke="#000000" points="266.1132,-41.0861 272.6792,-32.7712 262.3611,-35.1767 266.1132,-41.0861"/>
<g id="a_edge29&#45;headlabel"><a xlink:href="dir_000077_000275.html" target="_top" xlink:title="1">
<text text-anchor="middle" x="264.6005" y="-42.9098" font-family="Helvetica,sans-Serif" font-size="10.00" fill="#000000">1</text>
</a>
</g>
</g>
<!-- dir_2171f7ec022c5423887b07c69b2f5b48&#45;&gt;dir_bcbb2cf9a3d3d83e5515c82071a07177 -->
<g id="edge31" class="edge">
<title>dir_2171f7ec022c5423887b07c69b2f5b48&#45;&gt;dir_bcbb2cf9a3d3d83e5515c82071a07177</title>
<path fill="none" stroke="#000000" d="M186.6775,-108.4133C181.4607,-116.7389 174.4281,-126.7282 167.4337,-135.8144"/>
<polygon fill="#000000" stroke="#000000" points="164.5469,-133.8218 161.0742,-143.8314 170.031,-138.1721 164.5469,-133.8218"/>
<g id="a_edge31&#45;headlabel"><a xlink:href="dir_000077_000014.html" target="_top" xlink:title="12">
<text text-anchor="middle" x="164.5564" y="-126.7412" font-family="Helvetica,sans-Serif" font-size="10.00" fill="#000000">12</text>
</a>
</g>
</g>
</g>
</svg>
