<?xml version="1.0" encoding="UTF-8" standalone="no"?>
<!DOCTYPE svg PUBLIC "-//W3C//DTD SVG 1.1//EN"
 "http://www.w3.org/Graphics/SVG/1.1/DTD/svg11.dtd">
<!-- Generated by graphviz version 2.40.1 (20161225.0304)
 -->
<!-- Title: /home/travis/build/AliceO2Group/AliceO2/Analysis/Tasks Pages: 1 -->
<!--zoomable 511 -->
<svg id="main" version="1.1" xmlns="http://www.w3.org/2000/svg" xmlns:xlink="http://www.w3.org/1999/xlink" xml:space="preserve" onload="init(evt)">
<style type="text/css"><![CDATA[
.edge:hover path { stroke: red; }
.edge:hover polygon { stroke: red; fill: red; }
]]></style>
<script type="text/javascript"><![CDATA[
var edges = document.getElementsByTagName('g');
if (edges && edges.length) {
  for (var i=0;i<edges.length;i++) {
    if (edges[i].id.substr(0,4)=='edge') {
      edges[i].setAttribute('class','edge');
    }
  }
}
]]></script>
        <defs>
                <circle id="rim" cx="0" cy="0" r="7"/>
                <circle id="rim2" cx="0" cy="0" r="3.5"/>
                <g id="zoomPlus">
                        <use xlink:href="#rim" fill="#404040">
                                <set attributeName="fill" to="#808080" begin="zoomplus.mouseover" end="zoomplus.mouseout"/>
                        </use>
                        <path d="M-4,0h8M0,-4v8" fill="none" stroke="white" stroke-width="1.5" pointer-events="none"/>
                </g>
                <g id="zoomMin">
                        <use xlink:href="#rim" fill="#404040">
                                <set attributeName="fill" to="#808080" begin="zoomminus.mouseover" end="zoomminus.mouseout"/>
                        </use>
                        <path d="M-4,0h8" fill="none" stroke="white" stroke-width="1.5" pointer-events="none"/>
                </g>
                <g id="dirArrow">
                        <path fill="none" stroke="white" stroke-width="1.5" d="M0,-3.0v7 M-2.5,-0.5L0,-3.0L2.5,-0.5"/>
                </g>
               <g id="resetDef">
                       <use xlink:href="#rim2" fill="#404040">
                               <set attributeName="fill" to="#808080" begin="reset.mouseover" end="reset.mouseout"/>
                       </use>
               </g>
        </defs>

<script type="text/javascript">
var viewWidth = 292;
var viewHeight = 511;
var sectionId = 'dynsection-0';
</script>
<script xlink:href="svgpan.js"/>
<svg id="graph" class="graph">
<g id="viewport">
<title>/home/travis/build/AliceO2Group/AliceO2/Analysis/Tasks</title>
<g id="clust1" class="cluster">
<title>clusterdir_19b17cb436010079e3d017a29cb7858f</title>
<g id="a_clust1"><a xlink:href="dir_19b17cb436010079e3d017a29cb7858f.html" target="_top" xlink:title="Analysis">
<polygon fill="#ddddee" stroke="#000000" points="68,-424 68,-495 138,-495 138,-424 68,-424"/>
<text text-anchor="middle" x="103" y="-483" font-family="Helvetica,sans-Serif" font-size="10.00" fill="#000000">Analysis</text>
</a>
</g>
</g>
<!-- dir_eff7324435ca3301414fec6c28c4adf5 -->
<g id="node1" class="node">
<title>dir_eff7324435ca3301414fec6c28c4adf5</title>
<g id="a_node1"><a xlink:href="dir_eff7324435ca3301414fec6c28c4adf5.html" target="_top" xlink:title="Tasks">
<polygon fill="#eeeeff" stroke="#000000" points="130,-468 76,-468 76,-432 130,-432 130,-468"/>
<text text-anchor="middle" x="103" y="-447.5" font-family="Helvetica,sans-Serif" font-size="10.00" fill="#000000">Tasks</text>
</a>
</g>
</g>
<!-- dir_6af676bf18881990e4083e191d0e63e0 -->
<g id="node2" class="node">
<title>dir_6af676bf18881990e4083e191d0e63e0</title>
<g id="a_node2"><a xlink:href="dir_6af676bf18881990e4083e191d0e63e0.html" target="_top" xlink:title="CCDB">
<polygon fill="none" stroke="#ff0000" points="120,-252 66,-252 66,-216 120,-216 120,-252"/>
<text text-anchor="middle" x="93" y="-231.5" font-family="Helvetica,sans-Serif" font-size="10.00" fill="#000000">CCDB</text>
</a>
</g>
</g>
<!-- dir_eff7324435ca3301414fec6c28c4adf5&#45;&gt;dir_6af676bf18881990e4083e191d0e63e0 -->
<g id="edge8" class="edge">
<title>dir_eff7324435ca3301414fec6c28c4adf5&#45;&gt;dir_6af676bf18881990e4083e191d0e63e0</title>
<path fill="none" stroke="#000000" d="M101.5972,-431.6497C99.7773,-407.1312 96.6417,-362.3232 95,-324 94.1192,-303.44 93.6154,-280.2204 93.3338,-262.5162"/>
<polygon fill="#000000" stroke="#000000" points="96.83,-262.227 93.1857,-252.2787 89.8308,-262.3283 96.83,-262.227"/>
<g id="a_edge8&#45;headlabel"><a xlink:href="dir_000017_000020.html" target="_top" xlink:title="3">
<text text-anchor="middle" x="99.7209" y="-263.2802" font-family="Helvetica,sans-Serif" font-size="10.00" fill="#000000">3</text>
</a>
</g>
</g>
<!-- dir_051dca18e802f8e9474f2e30d29c04e0 -->
<g id="node3" class="node">
<title>dir_051dca18e802f8e9474f2e30d29c04e0</title>
<g id="a_node3"><a xlink:href="dir_051dca18e802f8e9474f2e30d29c04e0.html" target="_top" xlink:title="Detectors">
<polygon fill="none" stroke="#ff0000" points="117,-108 53,-108 53,-72 117,-72 117,-108"/>
<text text-anchor="middle" x="85" y="-87.5" font-family="Helvetica,sans-Serif" font-size="10.00" fill="#000000">Detectors</text>
</a>
</g>
</g>
<!-- dir_eff7324435ca3301414fec6c28c4adf5&#45;&gt;dir_051dca18e802f8e9474f2e30d29c04e0 -->
<g id="edge9" class="edge">
<title>dir_eff7324435ca3301414fec6c28c4adf5&#45;&gt;dir_051dca18e802f8e9474f2e30d29c04e0</title>
<path fill="none" stroke="#000000" d="M88.5744,-431.6392C69.4249,-405.37 38,-354.8235 38,-306 38,-306 38,-306 38,-234 38,-191.6562 56.5932,-145.6118 70.3906,-117.273"/>
<polygon fill="#000000" stroke="#000000" points="73.6755,-118.5304 75.0325,-108.0228 67.4191,-115.3907 73.6755,-118.5304"/>
<g id="a_edge9&#45;headlabel"><a xlink:href="dir_000017_000040.html" target="_top" xlink:title="6">
<text text-anchor="middle" x="74.601" y="-120.5166" font-family="Helvetica,sans-Serif" font-size="10.00" fill="#000000">6</text>
</a>
</g>
</g>
<!-- dir_f41dd59f861c855ea21b0dc3111cb7b0 -->
<g id="node4" class="node">
<title>dir_f41dd59f861c855ea21b0dc3111cb7b0</title>
<g id="a_node4"><a xlink:href="dir_f41dd59f861c855ea21b0dc3111cb7b0.html" target="_top" xlink:title="DataModel">
<polygon fill="none" stroke="#ff0000" points="283.5,-396 214.5,-396 214.5,-360 283.5,-360 283.5,-396"/>
<text text-anchor="middle" x="249" y="-375.5" font-family="Helvetica,sans-Serif" font-size="10.00" fill="#000000">DataModel</text>
</a>
</g>
</g>
<!-- dir_eff7324435ca3301414fec6c28c4adf5&#45;&gt;dir_f41dd59f861c855ea21b0dc3111cb7b0 -->
<g id="edge10" class="edge">
<title>dir_eff7324435ca3301414fec6c28c4adf5&#45;&gt;dir_f41dd59f861c855ea21b0dc3111cb7b0</title>
<path fill="none" stroke="#000000" d="M130.1193,-436.6261C151.1788,-426.2406 180.8055,-411.6302 205.2138,-399.5932"/>
<polygon fill="#000000" stroke="#000000" points="206.8637,-402.6821 214.2843,-395.1201 203.7676,-396.404 206.8637,-402.6821"/>
<g id="a_edge10&#45;headlabel"><a xlink:href="dir_000017_000009.html" target="_top" xlink:title="40">
<text text-anchor="middle" x="204.8955" y="-404.3184" font-family="Helvetica,sans-Serif" font-size="10.00" fill="#000000">40</text>
</a>
</g>
</g>
<!-- dir_8d04f135a1eb0fdc4d561ef87bbea216 -->
<g id="node5" class="node">
<title>dir_8d04f135a1eb0fdc4d561ef87bbea216</title>
<g id="a_node5"><a xlink:href="dir_8d04f135a1eb0fdc4d561ef87bbea216.html" target="_top" xlink:title="Core">
<polygon fill="none" stroke="#ff0000" points="158,-324 104,-324 104,-288 158,-288 158,-324"/>
<text text-anchor="middle" x="131" y="-303.5" font-family="Helvetica,sans-Serif" font-size="10.00" fill="#000000">Core</text>
</a>
</g>
</g>
<!-- dir_eff7324435ca3301414fec6c28c4adf5&#45;&gt;dir_8d04f135a1eb0fdc4d561ef87bbea216 -->
<g id="edge11" class="edge">
<title>dir_eff7324435ca3301414fec6c28c4adf5&#45;&gt;dir_8d04f135a1eb0fdc4d561ef87bbea216</title>
<path fill="none" stroke="#000000" d="M106.5462,-431.7623C111.3431,-407.0928 119.9439,-362.8598 125.5608,-333.9731"/>
<polygon fill="#000000" stroke="#000000" points="129.0095,-334.5738 127.4826,-324.0896 122.1381,-333.2377 129.0095,-334.5738"/>
<g id="a_edge11&#45;headlabel"><a xlink:href="dir_000017_000005.html" target="_top" xlink:title="17">
<text text-anchor="middle" x="131.1105" y="-336.1443" font-family="Helvetica,sans-Serif" font-size="10.00" fill="#000000">17</text>
</a>
</g>
</g>
<!-- dir_bcbb2cf9a3d3d83e5515c82071a07177 -->
<g id="node6" class="node">
<title>dir_bcbb2cf9a3d3d83e5515c82071a07177</title>
<g id="a_node6"><a xlink:href="dir_bcbb2cf9a3d3d83e5515c82071a07177.html" target="_top" xlink:title="Framework">
<polygon fill="none" stroke="#ff0000" points="188.5,-180 117.5,-180 117.5,-144 188.5,-144 188.5,-180"/>
<text text-anchor="middle" x="153" y="-159.5" font-family="Helvetica,sans-Serif" font-size="10.00" fill="#000000">Framework</text>
</a>
</g>
</g>
<!-- dir_eff7324435ca3301414fec6c28c4adf5&#45;&gt;dir_bcbb2cf9a3d3d83e5515c82071a07177 -->
<g id="edge12" class="edge">
<title>dir_eff7324435ca3301414fec6c28c4adf5&#45;&gt;dir_bcbb2cf9a3d3d83e5515c82071a07177</title>
<path fill="none" stroke="#000000" d="M115.7449,-431.8813C131.4489,-408.3289 157.248,-365.3103 167,-324 177.8856,-277.8877 168.4803,-222.6073 160.711,-190.0003"/>
<polygon fill="#000000" stroke="#000000" points="164.0945,-189.1033 158.2738,-180.2507 157.3035,-190.801 164.0945,-189.1033"/>
<g id="a_edge12&#45;headlabel"><a xlink:href="dir_000017_000014.html" target="_top" xlink:title="79">
<text text-anchor="middle" x="167.7207" y="-189.4021" font-family="Helvetica,sans-Serif" font-size="10.00" fill="#000000">79</text>
</a>
</g>
</g>
<!-- dir_2171f7ec022c5423887b07c69b2f5b48 -->
<g id="node7" class="node">
<title>dir_2171f7ec022c5423887b07c69b2f5b48</title>
<g id="a_node7"><a xlink:href="dir_2171f7ec022c5423887b07c69b2f5b48.html" target="_top" xlink:title="DataFormats">
<polygon fill="none" stroke="#ff0000" points="159,-36 79,-36 79,0 159,0 159,-36"/>
<text text-anchor="middle" x="119" y="-15.5" font-family="Helvetica,sans-Serif" font-size="10.00" fill="#000000">DataFormats</text>
</a>
</g>
</g>
<!-- dir_eff7324435ca3301414fec6c28c4adf5&#45;&gt;dir_2171f7ec022c5423887b07c69b2f5b48 -->
<g id="edge13" class="edge">
<title>dir_eff7324435ca3301414fec6c28c4adf5&#45;&gt;dir_2171f7ec022c5423887b07c69b2f5b48</title>
<path fill="none" stroke="#000000" d="M78.3289,-431.8169C47.8573,-407.0584 0,-359.6361 0,-306 0,-306 0,-306 0,-162 0,-117.4756 15.2912,-106.0327 44,-72 53.7506,-60.4412 66.4874,-50.0741 78.6899,-41.5879"/>
<polygon fill="#000000" stroke="#000000" points="80.6442,-44.4915 87.0093,-36.0218 76.7516,-38.6736 80.6442,-44.4915"/>
<g id="a_edge13&#45;headlabel"><a xlink:href="dir_000017_000077.html" target="_top" xlink:title="7">
<text text-anchor="middle" x="79.2354" y="-46.3502" font-family="Helvetica,sans-Serif" font-size="10.00" fill="#000000">7</text>
</a>
</g>
</g>
<!-- dir_6af676bf18881990e4083e191d0e63e0&#45;&gt;dir_bcbb2cf9a3d3d83e5515c82071a07177 -->
<g id="edge1" class="edge">
<title>dir_6af676bf18881990e4083e191d0e63e0&#45;&gt;dir_bcbb2cf9a3d3d83e5515c82071a07177</title>
<path fill="none" stroke="#000000" d="M108.1405,-215.8314C115.1217,-207.454 123.5391,-197.3531 131.1876,-188.1749"/>
<polygon fill="#000000" stroke="#000000" points="133.9425,-190.3362 137.6556,-180.4133 128.5649,-185.8548 133.9425,-190.3362"/>
<g id="a_edge1&#45;headlabel"><a xlink:href="dir_000020_000014.html" target="_top" xlink:title="2">
<text text-anchor="middle" x="133.8225" y="-192.4152" font-family="Helvetica,sans-Serif" font-size="10.00" fill="#000000">2</text>
</a>
</g>
</g>
<!-- dir_051dca18e802f8e9474f2e30d29c04e0&#45;&gt;dir_6af676bf18881990e4083e191d0e63e0 -->
<g id="edge2" class="edge">
<title>dir_051dca18e802f8e9474f2e30d29c04e0&#45;&gt;dir_6af676bf18881990e4083e191d0e63e0</title>
<path fill="none" stroke="#000000" d="M86.005,-108.0896C87.3651,-132.5727 89.8065,-176.5174 91.4151,-205.4713"/>
<polygon fill="#000000" stroke="#000000" points="87.9374,-205.9719 91.9868,-215.7623 94.9266,-205.5835 87.9374,-205.9719"/>
<g id="a_edge2&#45;headlabel"><a xlink:href="dir_000040_000020.html" target="_top" xlink:title="29">
<text text-anchor="middle" x="84.9032" y="-200.0403" font-family="Helvetica,sans-Serif" font-size="10.00" fill="#000000">29</text>
</a>
</g>
</g>
<!-- dir_051dca18e802f8e9474f2e30d29c04e0&#45;&gt;dir_bcbb2cf9a3d3d83e5515c82071a07177 -->
<g id="edge3" class="edge">
<title>dir_051dca18e802f8e9474f2e30d29c04e0&#45;&gt;dir_bcbb2cf9a3d3d83e5515c82071a07177</title>
<path fill="none" stroke="#000000" d="M108.1056,-108.1628C116.9006,-116.6038 126.7127,-126.7956 134.9846,-136.0303"/>
<polygon fill="#000000" stroke="#000000" points="132.5806,-138.5987 141.7931,-143.8314 137.8545,-133.9958 132.5806,-138.5987"/>
<g id="a_edge3&#45;headlabel"><a xlink:href="dir_000040_000014.html" target="_top" xlink:title="809">
<text text-anchor="middle" x="128.0779" y="-135.2575" font-family="Helvetica,sans-Serif" font-size="10.00" fill="#000000">809</text>
</a>
</g>
</g>
<!-- dir_051dca18e802f8e9474f2e30d29c04e0&#45;&gt;dir_2171f7ec022c5423887b07c69b2f5b48 -->
<g id="edge4" class="edge">
<title>dir_051dca18e802f8e9474f2e30d29c04e0&#45;&gt;dir_2171f7ec022c5423887b07c69b2f5b48</title>
<path fill="none" stroke="#000000" d="M87.6272,-71.8314C90.64,-63.7925 94.9792,-54.1666 99.5409,-45.2918"/>
<polygon fill="#000000" stroke="#000000" points="102.6629,-46.8763 104.3288,-36.4133 96.5016,-43.5537 102.6629,-46.8763"/>
<g id="a_edge4&#45;headlabel"><a xlink:href="dir_000040_000077.html" target="_top" xlink:title="1093">
<text text-anchor="middle" x="103.4558" y="-48.8878" font-family="Helvetica,sans-Serif" font-size="10.00" fill="#000000">1093</text>
</a>
</g>
</g>
<!-- dir_f41dd59f861c855ea21b0dc3111cb7b0&#45;&gt;dir_8d04f135a1eb0fdc4d561ef87bbea216 -->
<g id="edge5" class="edge">
<title>dir_f41dd59f861c855ea21b0dc3111cb7b0&#45;&gt;dir_8d04f135a1eb0fdc4d561ef87bbea216</title>
<path fill="none" stroke="#000000" d="M219.2236,-359.8314C203.4394,-350.2003 183.9219,-338.2913 167.2608,-328.1252"/>
<polygon fill="#000000" stroke="#000000" points="168.6998,-324.9032 158.3403,-322.6822 165.0537,-330.8787 168.6998,-324.9032"/>
<g id="a_edge5&#45;headlabel"><a xlink:href="dir_000009_000005.html" target="_top" xlink:title="1">
<text text-anchor="middle" x="173.2471" y="-321.8517" font-family="Helvetica,sans-Serif" font-size="10.00" fill="#000000">1</text>
</a>
</g>
</g>
<!-- dir_f41dd59f861c855ea21b0dc3111cb7b0&#45;&gt;dir_bcbb2cf9a3d3d83e5515c82071a07177 -->
<g id="edge6" class="edge">
<title>dir_f41dd59f861c855ea21b0dc3111cb7b0&#45;&gt;dir_bcbb2cf9a3d3d83e5515c82071a07177</title>
<path fill="none" stroke="#000000" d="M246.0775,-359.7675C240.5491,-328.7076 226.6529,-264.2178 200,-216 194.5322,-206.1083 187.0184,-196.4302 179.602,-188.0621"/>
<polygon fill="#000000" stroke="#000000" points="181.9489,-185.4447 172.5913,-180.4763 176.8081,-190.1958 181.9489,-185.4447"/>
<g id="a_edge6&#45;headlabel"><a xlink:href="dir_000009_000014.html" target="_top" xlink:title="15">
<text text-anchor="middle" x="186.4738" y="-183.6575" font-family="Helvetica,sans-Serif" font-size="10.00" fill="#000000">15</text>
</a>
</g>
</g>
<!-- dir_f41dd59f861c855ea21b0dc3111cb7b0&#45;&gt;dir_2171f7ec022c5423887b07c69b2f5b48 -->
<g id="edge7" class="edge">
<title>dir_f41dd59f861c855ea21b0dc3111cb7b0&#45;&gt;dir_2171f7ec022c5423887b07c69b2f5b48</title>
<path fill="none" stroke="#000000" d="M251.6936,-359.862C255.5014,-332.6061 262,-279.434 262,-234 262,-234 262,-234 262,-162 262,-106.6911 208.2284,-65.0664 166.6317,-41.1409"/>
<polygon fill="#000000" stroke="#000000" points="168.1368,-37.9729 157.6979,-36.1617 164.7289,-44.0873 168.1368,-37.9729"/>
<g id="a_edge7&#45;headlabel"><a xlink:href="dir_000009_000077.html" target="_top" xlink:title="3">
<text text-anchor="middle" x="172.6589" y="-34.7427" font-family="Helvetica,sans-Serif" font-size="10.00" fill="#000000">3</text>
</a>
</g>
</g>
<!-- dir_8d04f135a1eb0fdc4d561ef87bbea216&#45;&gt;dir_6af676bf18881990e4083e191d0e63e0 -->
<g id="edge14" class="edge">
<title>dir_8d04f135a1eb0fdc4d561ef87bbea216&#45;&gt;dir_6af676bf18881990e4083e191d0e63e0</title>
<path fill="none" stroke="#000000" d="M121.411,-287.8314C117.1683,-279.7925 112.0879,-270.1666 107.404,-261.2918"/>
<polygon fill="#000000" stroke="#000000" points="110.4811,-259.6235 102.7181,-252.4133 104.2904,-262.8908 110.4811,-259.6235"/>
<g id="a_edge14&#45;headlabel"><a xlink:href="dir_000005_000020.html" target="_top" xlink:title="1">
<text text-anchor="middle" x="114.6699" y="-258.9772" font-family="Helvetica,sans-Serif" font-size="10.00" fill="#000000">1</text>
</a>
</g>
</g>
<!-- dir_8d04f135a1eb0fdc4d561ef87bbea216&#45;&gt;dir_bcbb2cf9a3d3d83e5515c82071a07177 -->
<g id="edge15" class="edge">
<title>dir_8d04f135a1eb0fdc4d561ef87bbea216&#45;&gt;dir_bcbb2cf9a3d3d83e5515c82071a07177</title>
<path fill="none" stroke="#000000" d="M133.7863,-287.7623C137.5387,-263.201 144.2539,-219.2474 148.6681,-190.3541"/>
<polygon fill="#000000" stroke="#000000" points="152.1858,-190.5035 150.2363,-180.0896 145.2661,-189.4463 152.1858,-190.5035"/>
<g id="a_edge15&#45;headlabel"><a xlink:href="dir_000005_000014.html" target="_top" xlink:title="5">
<text text-anchor="middle" x="154.4497" y="-191.9857" font-family="Helvetica,sans-Serif" font-size="10.00" fill="#000000">5</text>
</a>
</g>
</g>
<!-- dir_bcbb2cf9a3d3d83e5515c82071a07177&#45;&gt;dir_051dca18e802f8e9474f2e30d29c04e0 -->
<g id="edge16" class="edge">
<title>dir_bcbb2cf9a3d3d83e5515c82071a07177&#45;&gt;dir_051dca18e802f8e9474f2e30d29c04e0</title>
<path fill="none" stroke="#000000" d="M129.8883,-143.8314C121.16,-135.454 111.4306,-125.3531 103.1994,-116.1749"/>
<polygon fill="#000000" stroke="#000000" points="105.631,-113.6386 96.4143,-108.4133 100.3608,-118.2457 105.631,-113.6386"/>
<g id="a_edge16&#45;headlabel"><a xlink:href="dir_000014_000040.html" target="_top" xlink:title="4">
<text text-anchor="middle" x="110.1344" y="-111.9762" font-family="Helvetica,sans-Serif" font-size="10.00" fill="#000000">4</text>
</a>
</g>
</g>
<!-- dir_bcbb2cf9a3d3d83e5515c82071a07177&#45;&gt;dir_2171f7ec022c5423887b07c69b2f5b48 -->
<g id="edge17" class="edge">
<title>dir_bcbb2cf9a3d3d83e5515c82071a07177&#45;&gt;dir_2171f7ec022c5423887b07c69b2f5b48</title>
<path fill="none" stroke="#000000" d="M144.0207,-143.7623C135.7617,-119.201 125.109,-75.2474 120.1973,-46.3541"/>
<polygon fill="#000000" stroke="#000000" points="123.5975,-45.4386 118.6129,-36.0896 116.6794,-46.5065 123.5975,-45.4386"/>
<g id="a_edge17&#45;headlabel"><a xlink:href="dir_000014_000077.html" target="_top" xlink:title="82">
<text text-anchor="middle" x="126.9518" y="-46.058" font-family="Helvetica,sans-Serif" font-size="10.00" fill="#000000">82</text>
</a>
</g>
</g>
<!-- dir_2171f7ec022c5423887b07c69b2f5b48&#45;&gt;dir_051dca18e802f8e9474f2e30d29c04e0 -->
<g id="edge18" class="edge">
<title>dir_2171f7ec022c5423887b07c69b2f5b48&#45;&gt;dir_051dca18e802f8e9474f2e30d29c04e0</title>
<path fill="none" stroke="#000000" d="M116.2809,-36.4133C113.2414,-44.484 108.8866,-54.1182 104.3205,-62.9775"/>
<polygon fill="#000000" stroke="#000000" points="101.2107,-61.3703 99.532,-71.8314 107.3679,-64.7004 101.2107,-61.3703"/>
<g id="a_edge18&#45;headlabel"><a xlink:href="dir_000077_000040.html" target="_top" xlink:title="15">
<text text-anchor="middle" x="100.4232" y="-54.3579" font-family="Helvetica,sans-Serif" font-size="10.00" fill="#000000">15</text>
</a>
</g>
</g>
<!-- dir_2171f7ec022c5423887b07c69b2f5b48&#45;&gt;dir_bcbb2cf9a3d3d83e5515c82071a07177 -->
<g id="edge19" class="edge">
<title>dir_2171f7ec022c5423887b07c69b2f5b48&#45;&gt;dir_bcbb2cf9a3d3d83e5515c82071a07177</title>
<path fill="none" stroke="#000000" d="M127.9295,-36.0896C136.2151,-60.6805 146.9321,-104.905 151.8379,-133.8531"/>
<polygon fill="#000000" stroke="#000000" points="148.3828,-134.4131 153.367,-143.7623 155.3009,-133.3455 148.3828,-134.4131"/>
<g id="a_edge19&#45;headlabel"><a xlink:href="dir_000077_000014.html" target="_top" xlink:title="12">
<text text-anchor="middle" x="145.0286" y="-128.7935" font-family="Helvetica,sans-Serif" font-size="10.00" fill="#000000">12</text>
</a>
</g>
</g>
</g>
</svg>
        <g id="navigator" transform="translate(0 0)" fill="#404254">
                <rect fill="#f2f5e9" fill-opacity="0.5" stroke="#606060" stroke-width=".5" x="0" y="0" width="60" height="60"/>
                <use id="zoomplus" xlink:href="#zoomPlus" x="17" y="9" onmousedown="handleZoom(evt,'in')"/>
                <use id="zoomminus" xlink:href="#zoomMin" x="42" y="9" onmousedown="handleZoom(evt,'out')"/>
                <use id="reset" xlink:href="#resetDef" x="30" y="36" onmousedown="handleReset()"/>
                <g id="arrowUp" xlink:href="#dirArrow" transform="translate(30 24)" onmousedown="handlePan(0,-1)">
                  <use xlink:href="#rim" fill="#404040">
                        <set attributeName="fill" to="#808080" begin="arrowUp.mouseover" end="arrowUp.mouseout"/>
                  </use>
                  <path fill="none" stroke="white" stroke-width="1.5" d="M0,-3.0v7 M-2.5,-0.5L0,-3.0L2.5,-0.5"/>
                </g>
                <g id="arrowRight" xlink:href="#dirArrow" transform="rotate(90) translate(36 -43)" onmousedown="handlePan(1,0)">
                  <use xlink:href="#rim" fill="#404040">
                        <set attributeName="fill" to="#808080" begin="arrowRight.mouseover" end="arrowRight.mouseout"/>
                  </use>
                  <path fill="none" stroke="white" stroke-width="1.5" d="M0,-3.0v7 M-2.5,-0.5L0,-3.0L2.5,-0.5"/>
                </g>
                <g id="arrowDown" xlink:href="#dirArrow" transform="rotate(180) translate(-30 -48)" onmousedown="handlePan(0,1)">
                  <use xlink:href="#rim" fill="#404040">
                        <set attributeName="fill" to="#808080" begin="arrowDown.mouseover" end="arrowDown.mouseout"/>
                  </use>
                  <path fill="none" stroke="white" stroke-width="1.5" d="M0,-3.0v7 M-2.5,-0.5L0,-3.0L2.5,-0.5"/>
                </g>
                <g id="arrowLeft" xlink:href="#dirArrow" transform="rotate(270) translate(-36 17)" onmousedown="handlePan(-1,0)">
                  <use xlink:href="#rim" fill="#404040">
                        <set attributeName="fill" to="#808080" begin="arrowLeft.mouseover" end="arrowLeft.mouseout"/>
                  </use>
                  <path fill="none" stroke="white" stroke-width="1.5" d="M0,-3.0v7 M-2.5,-0.5L0,-3.0L2.5,-0.5"/>
                </g>
        </g>
        <svg viewBox="0 0 15 15" width="100%" height="30px" preserveAspectRatio="xMaxYMin meet">
         <g id="arrow_out" transform="scale(0.3 0.3)">
          <a xlink:href="dir_eff7324435ca3301414fec6c28c4adf5_dep_org.svg" target="_base">
           <rect id="button" ry="5" rx="5" y="6" x="6" height="38" width="38"
                fill="#f2f5e9" fill-opacity="0.5" stroke="#606060" stroke-width="1.0"/>
           <path id="arrow"
             d="M 11.500037,31.436501 C 11.940474,20.09759 22.043105,11.32322 32.158766,21.979434 L 37.068811,17.246167 C 37.068811,17.246167 37.088388,32 37.088388,32 L 22.160133,31.978069 C 22.160133,31.978069 26.997745,27.140456 26.997745,27.140456 C 18.528582,18.264221 13.291696,25.230495 11.500037,31.436501 z"
             style="fill:#404040;"/>
          </a>
         </g>
        </svg>
</svg>
