<?xml version="1.0" encoding="UTF-8" standalone="no"?>
<!DOCTYPE svg PUBLIC "-//W3C//DTD SVG 1.1//EN"
 "http://www.w3.org/Graphics/SVG/1.1/DTD/svg11.dtd">
<!-- Generated by graphviz version 2.40.1 (20161225.0304)
 -->
<!-- Title: /home/travis/build/AliceO2Group/AliceO2/Detectors/TRD/base Pages: 1 -->
<svg width="463pt" height="375pt"
 viewBox="0.00 0.00 463.49 375.00" xmlns="http://www.w3.org/2000/svg" xmlns:xlink="http://www.w3.org/1999/xlink">
<g id="graph0" class="graph" transform="scale(1 1) rotate(0) translate(4 371)">
<title>/home/travis/build/AliceO2Group/AliceO2/Detectors/TRD/base</title>
<g id="clust1" class="cluster">
<title>clusterdir_69dd0583e11051991bf4c0cf23c50933</title>
<g id="a_clust1"><a xlink:href="dir_69dd0583e11051991bf4c0cf23c50933.html" target="_top" xlink:title="TRD">
<polygon fill="#ddddee" stroke="#000000" points="8,-200 8,-359 238,-359 238,-200 8,-200"/>
<text text-anchor="middle" x="123" y="-347" font-family="Helvetica,sans-Serif" font-size="10.00" fill="#000000">TRD</text>
</a>
</g>
</g>
<g id="clust2" class="cluster">
<title>clusterdir_09bf7f7c4011a5ccc426492db4dd0891</title>
<g id="a_clust2"><a xlink:href="dir_09bf7f7c4011a5ccc426492db4dd0891.html" target="_top">
<polygon fill="#eeeeff" stroke="#000000" points="16,-208 16,-332 230,-332 230,-208 16,-208"/>
</a>
</g>
</g>
<!-- dir_09bf7f7c4011a5ccc426492db4dd0891 -->
<g id="node1" class="node">
<title>dir_09bf7f7c4011a5ccc426492db4dd0891</title>
<text text-anchor="middle" x="195" y="-303.5" font-family="Helvetica,sans-Serif" font-size="10.00" fill="#000000">base</text>
</g>
<!-- dir_8b3cc3395a6e7eccd58a8c5fa5ac689e -->
<g id="node2" class="node">
<title>dir_8b3cc3395a6e7eccd58a8c5fa5ac689e</title>
<g id="a_node2"><a xlink:href="dir_8b3cc3395a6e7eccd58a8c5fa5ac689e.html" target="_top" xlink:title="include">
<polygon fill="#ffffff" stroke="#ff0000" points="195,-252 141,-252 141,-216 195,-216 195,-252"/>
<text text-anchor="middle" x="168" y="-231.5" font-family="Helvetica,sans-Serif" font-size="10.00" fill="#000000">include</text>
</a>
</g>
</g>
<!-- dir_f511f1e9c03c071966ae594f00bbc5e0 -->
<g id="node8" class="node">
<title>dir_f511f1e9c03c071966ae594f00bbc5e0</title>
<g id="a_node8"><a xlink:href="dir_f511f1e9c03c071966ae594f00bbc5e0.html" target="_top" xlink:title="GPU">
<polygon fill="none" stroke="#ff0000" points="300,-252 246,-252 246,-216 300,-216 300,-252"/>
<text text-anchor="middle" x="273" y="-231.5" font-family="Helvetica,sans-Serif" font-size="10.00" fill="#000000">GPU</text>
</a>
</g>
</g>
<!-- dir_8b3cc3395a6e7eccd58a8c5fa5ac689e&#45;&gt;dir_f511f1e9c03c071966ae594f00bbc5e0 -->
<g id="edge1" class="edge">
<title>dir_8b3cc3395a6e7eccd58a8c5fa5ac689e&#45;&gt;dir_f511f1e9c03c071966ae594f00bbc5e0</title>
<path fill="none" stroke="#000000" d="M195.0703,-234C208.5739,-234 222.0774,-234 235.581,-234"/>
<polygon fill="#000000" stroke="#000000" points="235.9073,-237.5001 245.9073,-234 235.9072,-230.5001 235.9073,-237.5001"/>
<g id="a_edge1&#45;headlabel"><a xlink:href="dir_000143_000690.html" target="_top" xlink:title="8">
<text text-anchor="middle" x="232.3126" y="-237.8393" font-family="Helvetica,sans-Serif" font-size="10.00" fill="#000000">8</text>
</a>
</g>
</g>
<!-- dir_2171f7ec022c5423887b07c69b2f5b48 -->
<g id="node9" class="node">
<title>dir_2171f7ec022c5423887b07c69b2f5b48</title>
<g id="a_node9"><a xlink:href="dir_2171f7ec022c5423887b07c69b2f5b48.html" target="_top" xlink:title="DataFormats">
<polygon fill="none" stroke="#ff0000" points="255,-108 175,-108 175,-72 255,-72 255,-108"/>
<text text-anchor="middle" x="215" y="-87.5" font-family="Helvetica,sans-Serif" font-size="10.00" fill="#000000">DataFormats</text>
</a>
</g>
</g>
<!-- dir_8b3cc3395a6e7eccd58a8c5fa5ac689e&#45;&gt;dir_2171f7ec022c5423887b07c69b2f5b48 -->
<g id="edge2" class="edge">
<title>dir_8b3cc3395a6e7eccd58a8c5fa5ac689e&#45;&gt;dir_2171f7ec022c5423887b07c69b2f5b48</title>
<path fill="none" stroke="#000000" d="M166.5279,-215.7816C165.6766,-197.1395 166.1684,-167.6362 175,-144 178.6752,-134.164 184.7101,-124.5698 190.9914,-116.263"/>
<polygon fill="#000000" stroke="#000000" points="193.7517,-118.4154 197.2764,-108.424 188.2903,-114.0366 193.7517,-118.4154"/>
<g id="a_edge2&#45;headlabel"><a xlink:href="dir_000143_000077.html" target="_top" xlink:title="5">
<text text-anchor="middle" x="193.7183" y="-120.4959" font-family="Helvetica,sans-Serif" font-size="10.00" fill="#000000">5</text>
</a>
</g>
</g>
<!-- dir_bc3f0ff1fdf26bec79f7d00840858de9 -->
<g id="node3" class="node">
<title>dir_bc3f0ff1fdf26bec79f7d00840858de9</title>
<g id="a_node3"><a xlink:href="dir_bc3f0ff1fdf26bec79f7d00840858de9.html" target="_top" xlink:title="src">
<polygon fill="#ffffff" stroke="#000000" points="150,-324 96,-324 96,-288 150,-288 150,-324"/>
<text text-anchor="middle" x="123" y="-303.5" font-family="Helvetica,sans-Serif" font-size="10.00" fill="#000000">src</text>
</a>
</g>
</g>
<!-- dir_bc3f0ff1fdf26bec79f7d00840858de9&#45;&gt;dir_8b3cc3395a6e7eccd58a8c5fa5ac689e -->
<g id="edge6" class="edge">
<title>dir_bc3f0ff1fdf26bec79f7d00840858de9&#45;&gt;dir_8b3cc3395a6e7eccd58a8c5fa5ac689e</title>
<path fill="none" stroke="#000000" d="M134.3554,-287.8314C139.4326,-279.7079 145.5227,-269.9637 151.1176,-261.0118"/>
<polygon fill="#000000" stroke="#000000" points="154.1597,-262.7483 156.4917,-252.4133 148.2237,-259.0383 154.1597,-262.7483"/>
<g id="a_edge6&#45;headlabel"><a xlink:href="dir_000160_000143.html" target="_top" xlink:title="55">
<text text-anchor="middle" x="154.6623" y="-264.8013" font-family="Helvetica,sans-Serif" font-size="10.00" fill="#000000">55</text>
</a>
</g>
</g>
<!-- dir_4ab6b4cc6a7edbff49100e9123df213f -->
<g id="node5" class="node">
<title>dir_4ab6b4cc6a7edbff49100e9123df213f</title>
<g id="a_node5"><a xlink:href="dir_4ab6b4cc6a7edbff49100e9123df213f.html" target="_top" xlink:title="Common">
<polygon fill="none" stroke="#ff0000" points="372.5,-180 311.5,-180 311.5,-144 372.5,-144 372.5,-180"/>
<text text-anchor="middle" x="342" y="-159.5" font-family="Helvetica,sans-Serif" font-size="10.00" fill="#000000">Common</text>
</a>
</g>
</g>
<!-- dir_bc3f0ff1fdf26bec79f7d00840858de9&#45;&gt;dir_4ab6b4cc6a7edbff49100e9123df213f -->
<g id="edge7" class="edge">
<title>dir_bc3f0ff1fdf26bec79f7d00840858de9&#45;&gt;dir_4ab6b4cc6a7edbff49100e9123df213f</title>
<path fill="none" stroke="#000000" d="M150.1332,-291.2855C153.0726,-290.0396 156.0633,-288.9104 159,-288 214.7132,-270.7282 380.6879,-295.9824 419,-252 434.18,-234.5733 431.2014,-219.6278 419,-200 410.751,-186.7302 396.3493,-177.9565 382.2159,-172.2217"/>
<polygon fill="#000000" stroke="#000000" points="383.1471,-168.8364 372.5529,-168.719 380.7615,-175.4174 383.1471,-168.8364"/>
<g id="a_edge7&#45;headlabel"><a xlink:href="dir_000160_000028.html" target="_top" xlink:title="2">
<text text-anchor="middle" x="387.4941" y="-164.8921" font-family="Helvetica,sans-Serif" font-size="10.00" fill="#000000">2</text>
</a>
</g>
</g>
<!-- dir_6af676bf18881990e4083e191d0e63e0 -->
<g id="node6" class="node">
<title>dir_6af676bf18881990e4083e191d0e63e0</title>
<g id="a_node6"><a xlink:href="dir_6af676bf18881990e4083e191d0e63e0.html" target="_top" xlink:title="CCDB">
<polygon fill="none" stroke="#ff0000" points="410,-252 356,-252 356,-216 410,-216 410,-252"/>
<text text-anchor="middle" x="383" y="-231.5" font-family="Helvetica,sans-Serif" font-size="10.00" fill="#000000">CCDB</text>
</a>
</g>
</g>
<!-- dir_bc3f0ff1fdf26bec79f7d00840858de9&#45;&gt;dir_6af676bf18881990e4083e191d0e63e0 -->
<g id="edge8" class="edge">
<title>dir_bc3f0ff1fdf26bec79f7d00840858de9&#45;&gt;dir_6af676bf18881990e4083e191d0e63e0</title>
<path fill="none" stroke="#000000" d="M150.1887,-291.4559C153.1173,-290.1768 156.0903,-288.9932 159,-288 237.4478,-261.2222 262.9078,-276.8101 342,-252 343.4371,-251.5492 344.8916,-251.0635 346.3525,-250.5508"/>
<polygon fill="#000000" stroke="#000000" points="347.8908,-253.7094 355.9727,-246.8587 345.3826,-247.1742 347.8908,-253.7094"/>
<g id="a_edge8&#45;headlabel"><a xlink:href="dir_000160_000020.html" target="_top" xlink:title="1">
<text text-anchor="middle" x="345.5521" y="-255.1481" font-family="Helvetica,sans-Serif" font-size="10.00" fill="#000000">1</text>
</a>
</g>
</g>
<!-- dir_37c90836491b695b472bf98d1be8336b -->
<g id="node7" class="node">
<title>dir_37c90836491b695b472bf98d1be8336b</title>
<g id="a_node7"><a xlink:href="dir_37c90836491b695b472bf98d1be8336b.html" target="_top" xlink:title="Base">
<polygon fill="none" stroke="#ff0000" points="310,-36 256,-36 256,0 310,0 310,-36"/>
<text text-anchor="middle" x="283" y="-15.5" font-family="Helvetica,sans-Serif" font-size="10.00" fill="#000000">Base</text>
</a>
</g>
</g>
<!-- dir_bc3f0ff1fdf26bec79f7d00840858de9&#45;&gt;dir_37c90836491b695b472bf98d1be8336b -->
<g id="edge9" class="edge">
<title>dir_bc3f0ff1fdf26bec79f7d00840858de9&#45;&gt;dir_37c90836491b695b472bf98d1be8336b</title>
<path fill="none" stroke="#000000" d="M150.1246,-291.2575C153.0657,-290.0171 156.0591,-288.8968 159,-288 218.7956,-269.7658 396.7211,-298.9474 438,-252 499.7694,-181.7482 381.738,-85.2732 318.8311,-41.4084"/>
<polygon fill="#000000" stroke="#000000" points="320.5687,-38.3557 310.3449,-35.5762 316.6039,-44.1247 320.5687,-38.3557"/>
<g id="a_edge9&#45;headlabel"><a xlink:href="dir_000160_000275.html" target="_top" xlink:title="2">
<text text-anchor="middle" x="325.1393" y="-35.5517" font-family="Helvetica,sans-Serif" font-size="10.00" fill="#000000">2</text>
</a>
</g>
</g>
<!-- dir_bc3f0ff1fdf26bec79f7d00840858de9&#45;&gt;dir_2171f7ec022c5423887b07c69b2f5b48 -->
<g id="edge10" class="edge">
<title>dir_bc3f0ff1fdf26bec79f7d00840858de9&#45;&gt;dir_2171f7ec022c5423887b07c69b2f5b48</title>
<path fill="none" stroke="#000000" d="M122.2661,-287.9409C121.9069,-266.493 122.921,-229.863 132,-200 142.1023,-166.7712 167.4379,-135.8556 187.4812,-115.3152"/>
<polygon fill="#000000" stroke="#000000" points="189.9759,-117.7703 194.5881,-108.2321 185.0345,-112.8123 189.9759,-117.7703"/>
<g id="a_edge10&#45;headlabel"><a xlink:href="dir_000160_000077.html" target="_top" xlink:title="4">
<text text-anchor="middle" x="189.4342" y="-119.8188" font-family="Helvetica,sans-Serif" font-size="10.00" fill="#000000">4</text>
</a>
</g>
</g>
<!-- dir_270940edd87adfa91065c2834457a9a9 -->
<g id="node4" class="node">
<title>dir_270940edd87adfa91065c2834457a9a9</title>
<g id="a_node4"><a xlink:href="dir_270940edd87adfa91065c2834457a9a9.html" target="_top" xlink:title="test">
<polygon fill="#ffffff" stroke="#000000" points="78,-324 24,-324 24,-288 78,-288 78,-324"/>
<text text-anchor="middle" x="51" y="-303.5" font-family="Helvetica,sans-Serif" font-size="10.00" fill="#000000">test</text>
</a>
</g>
</g>
<!-- dir_270940edd87adfa91065c2834457a9a9&#45;&gt;dir_8b3cc3395a6e7eccd58a8c5fa5ac689e -->
<g id="edge14" class="edge">
<title>dir_270940edd87adfa91065c2834457a9a9&#45;&gt;dir_8b3cc3395a6e7eccd58a8c5fa5ac689e</title>
<path fill="none" stroke="#000000" d="M78.1362,-289.3008C94.1172,-279.4663 114.5316,-266.9036 131.8632,-256.238"/>
<polygon fill="#000000" stroke="#000000" points="133.9234,-259.0799 140.6056,-250.8581 130.2547,-253.1183 133.9234,-259.0799"/>
<g id="a_edge14&#45;headlabel"><a xlink:href="dir_000628_000143.html" target="_top" xlink:title="3">
<text text-anchor="middle" x="132.3501" y="-260.8819" font-family="Helvetica,sans-Serif" font-size="10.00" fill="#000000">3</text>
</a>
</g>
</g>
<!-- dir_270940edd87adfa91065c2834457a9a9&#45;&gt;dir_4ab6b4cc6a7edbff49100e9123df213f -->
<g id="edge15" class="edge">
<title>dir_270940edd87adfa91065c2834457a9a9&#45;&gt;dir_4ab6b4cc6a7edbff49100e9123df213f</title>
<path fill="none" stroke="#000000" d="M78.1553,-291.3554C81.0904,-290.0959 84.074,-288.9444 87,-288 182.1235,-257.2979 231.9133,-315.6298 309,-252 327.3616,-236.8438 335.5068,-210.5203 339.1198,-190.2442"/>
<polygon fill="#000000" stroke="#000000" points="342.5915,-190.6946 340.6262,-180.2836 335.6702,-189.6478 342.5915,-190.6946"/>
<g id="a_edge15&#45;headlabel"><a xlink:href="dir_000628_000028.html" target="_top" xlink:title="1">
<text text-anchor="middle" x="344.8614" y="-192.1733" font-family="Helvetica,sans-Serif" font-size="10.00" fill="#000000">1</text>
</a>
</g>
</g>
<!-- dir_270940edd87adfa91065c2834457a9a9&#45;&gt;dir_2171f7ec022c5423887b07c69b2f5b48 -->
<g id="edge16" class="edge">
<title>dir_270940edd87adfa91065c2834457a9a9&#45;&gt;dir_2171f7ec022c5423887b07c69b2f5b48</title>
<path fill="none" stroke="#000000" d="M57.1273,-287.9868C68.6372,-256.1268 95.9882,-188.9625 136,-144 146.3194,-132.4038 159.6301,-122.0788 172.3737,-113.6419"/>
<polygon fill="#000000" stroke="#000000" points="174.5063,-116.4333 181.0619,-108.1102 170.7467,-110.5286 174.5063,-116.4333"/>
<g id="a_edge16&#45;headlabel"><a xlink:href="dir_000628_000077.html" target="_top" xlink:title="2">
<text text-anchor="middle" x="172.999" y="-118.2589" font-family="Helvetica,sans-Serif" font-size="10.00" fill="#000000">2</text>
</a>
</g>
</g>
<!-- dir_4ab6b4cc6a7edbff49100e9123df213f&#45;&gt;dir_f511f1e9c03c071966ae594f00bbc5e0 -->
<g id="edge3" class="edge">
<title>dir_4ab6b4cc6a7edbff49100e9123df213f&#45;&gt;dir_f511f1e9c03c071966ae594f00bbc5e0</title>
<path fill="none" stroke="#000000" d="M330.33,-180.4133C322.9274,-188.9938 313.1792,-199.3414 303.7779,-208.6463"/>
<polygon fill="#000000" stroke="#000000" points="301.1092,-206.3586 296.364,-215.8314 305.9808,-211.3853 301.1092,-206.3586"/>
<g id="a_edge3&#45;headlabel"><a xlink:href="dir_000028_000690.html" target="_top" xlink:title="3">
<text text-anchor="middle" x="301.7145" y="-199.3181" font-family="Helvetica,sans-Serif" font-size="10.00" fill="#000000">3</text>
</a>
</g>
</g>
<!-- dir_4ab6b4cc6a7edbff49100e9123df213f&#45;&gt;dir_2171f7ec022c5423887b07c69b2f5b48 -->
<g id="edge4" class="edge">
<title>dir_4ab6b4cc6a7edbff49100e9123df213f&#45;&gt;dir_2171f7ec022c5423887b07c69b2f5b48</title>
<path fill="none" stroke="#000000" d="M311.4051,-147.7751C292.7607,-137.9397 268.9999,-124.6307 249.6782,-113.2656"/>
<polygon fill="#000000" stroke="#000000" points="251.2552,-110.1315 240.8702,-108.0336 247.6803,-116.1498 251.2552,-110.1315"/>
<g id="a_edge4&#45;headlabel"><a xlink:href="dir_000028_000077.html" target="_top" xlink:title="2">
<text text-anchor="middle" x="255.7957" y="-107.0261" font-family="Helvetica,sans-Serif" font-size="10.00" fill="#000000">2</text>
</a>
</g>
</g>
<!-- dir_6af676bf18881990e4083e191d0e63e0&#45;&gt;dir_4ab6b4cc6a7edbff49100e9123df213f -->
<g id="edge5" class="edge">
<title>dir_6af676bf18881990e4083e191d0e63e0&#45;&gt;dir_4ab6b4cc6a7edbff49100e9123df213f</title>
<path fill="none" stroke="#000000" d="M372.654,-215.8314C368.0763,-207.7925 362.5948,-198.1666 357.5412,-189.2918"/>
<polygon fill="#000000" stroke="#000000" points="360.4752,-187.3712 352.4853,-180.4133 354.3923,-190.8351 360.4752,-187.3712"/>
<g id="a_edge5&#45;headlabel"><a xlink:href="dir_000020_000028.html" target="_top" xlink:title="4">
<text text-anchor="middle" x="364.7212" y="-186.5899" font-family="Helvetica,sans-Serif" font-size="10.00" fill="#000000">4</text>
</a>
</g>
</g>
<!-- dir_37c90836491b695b472bf98d1be8336b&#45;&gt;dir_4ab6b4cc6a7edbff49100e9123df213f -->
<g id="edge11" class="edge">
<title>dir_37c90836491b695b472bf98d1be8336b&#45;&gt;dir_4ab6b4cc6a7edbff49100e9123df213f</title>
<path fill="none" stroke="#000000" d="M290.4117,-36.0896C300.5313,-60.7884 318.766,-105.2933 330.6233,-134.2331"/>
<polygon fill="#000000" stroke="#000000" points="327.4975,-135.8359 334.5276,-143.7623 333.9749,-133.1819 327.4975,-135.8359"/>
<g id="a_edge11&#45;headlabel"><a xlink:href="dir_000275_000028.html" target="_top" xlink:title="16">
<text text-anchor="middle" x="323.5074" y="-131.0861" font-family="Helvetica,sans-Serif" font-size="10.00" fill="#000000">16</text>
</a>
</g>
</g>
<!-- dir_37c90836491b695b472bf98d1be8336b&#45;&gt;dir_f511f1e9c03c071966ae594f00bbc5e0 -->
<g id="edge12" class="edge">
<title>dir_37c90836491b695b472bf98d1be8336b&#45;&gt;dir_f511f1e9c03c071966ae594f00bbc5e0</title>
<path fill="none" stroke="#000000" d="M282.16,-36.1451C280.4169,-73.7945 276.3963,-160.6409 274.3097,-205.7103"/>
<polygon fill="#000000" stroke="#000000" points="270.8017,-205.8043 273.8354,-215.9555 277.7942,-206.1281 270.8017,-205.8043"/>
<g id="a_edge12&#45;headlabel"><a xlink:href="dir_000275_000690.html" target="_top" xlink:title="14">
<text text-anchor="middle" x="268.1316" y="-199.5822" font-family="Helvetica,sans-Serif" font-size="10.00" fill="#000000">14</text>
</a>
</g>
</g>
<!-- dir_37c90836491b695b472bf98d1be8336b&#45;&gt;dir_2171f7ec022c5423887b07c69b2f5b48 -->
<g id="edge13" class="edge">
<title>dir_37c90836491b695b472bf98d1be8336b&#45;&gt;dir_2171f7ec022c5423887b07c69b2f5b48</title>
<path fill="none" stroke="#000000" d="M271.5857,-36.4133C264.3024,-44.9938 254.6978,-55.3414 245.4257,-64.6463"/>
<polygon fill="#000000" stroke="#000000" points="242.7926,-62.3266 238.1117,-71.8314 247.6981,-67.3202 242.7926,-62.3266"/>
<g id="a_edge13&#45;headlabel"><a xlink:href="dir_000275_000077.html" target="_top" xlink:title="12">
<text text-anchor="middle" x="243.3671" y="-55.2822" font-family="Helvetica,sans-Serif" font-size="10.00" fill="#000000">12</text>
</a>
</g>
</g>
<!-- dir_f511f1e9c03c071966ae594f00bbc5e0&#45;&gt;dir_4ab6b4cc6a7edbff49100e9123df213f -->
<g id="edge17" class="edge">
<title>dir_f511f1e9c03c071966ae594f00bbc5e0&#45;&gt;dir_4ab6b4cc6a7edbff49100e9123df213f</title>
<path fill="none" stroke="#000000" d="M284.4592,-215.8314C291.9468,-207.1337 301.8904,-196.5783 311.4519,-187.1265"/>
<polygon fill="#000000" stroke="#000000" points="313.8937,-189.634 318.6421,-180.1628 309.0238,-184.6057 313.8937,-189.634"/>
<g id="a_edge17&#45;headlabel"><a xlink:href="dir_000690_000028.html" target="_top" xlink:title="4">
<text text-anchor="middle" x="313.2869" y="-191.6743" font-family="Helvetica,sans-Serif" font-size="10.00" fill="#000000">4</text>
</a>
</g>
</g>
<!-- dir_f511f1e9c03c071966ae594f00bbc5e0&#45;&gt;dir_2171f7ec022c5423887b07c69b2f5b48 -->
<g id="edge18" class="edge">
<title>dir_f511f1e9c03c071966ae594f00bbc5e0&#45;&gt;dir_2171f7ec022c5423887b07c69b2f5b48</title>
<path fill="none" stroke="#000000" d="M260.9811,-215.7623C248.5741,-191.0928 230.4917,-146.8598 220.7949,-117.9731"/>
<polygon fill="#000000" stroke="#000000" points="224.0125,-116.5446 217.6278,-108.0896 217.3464,-118.6807 224.0125,-116.5446"/>
<g id="a_edge18&#45;headlabel"><a xlink:href="dir_000690_000077.html" target="_top" xlink:title="15">
<text text-anchor="middle" x="227.8132" y="-116.6013" font-family="Helvetica,sans-Serif" font-size="10.00" fill="#000000">15</text>
</a>
</g>
</g>
<!-- dir_2171f7ec022c5423887b07c69b2f5b48&#45;&gt;dir_8b3cc3395a6e7eccd58a8c5fa5ac689e -->
<g id="edge19" class="edge">
<title>dir_2171f7ec022c5423887b07c69b2f5b48&#45;&gt;dir_8b3cc3395a6e7eccd58a8c5fa5ac689e</title>
<path fill="none" stroke="#000000" d="M209.0957,-108.0896C201.0343,-132.7884 186.5084,-177.2933 177.0628,-206.2331"/>
<polygon fill="#000000" stroke="#000000" points="173.7282,-205.1698 173.9526,-215.7623 180.3827,-207.3418 173.7282,-205.1698"/>
<g id="a_edge19&#45;headlabel"><a xlink:href="dir_000077_000143.html" target="_top" xlink:title="1">
<text text-anchor="middle" x="172.1443" y="-198.3717" font-family="Helvetica,sans-Serif" font-size="10.00" fill="#000000">1</text>
</a>
</g>
</g>
<!-- dir_2171f7ec022c5423887b07c69b2f5b48&#45;&gt;dir_4ab6b4cc6a7edbff49100e9123df213f -->
<g id="edge20" class="edge">
<title>dir_2171f7ec022c5423887b07c69b2f5b48&#45;&gt;dir_4ab6b4cc6a7edbff49100e9123df213f</title>
<path fill="none" stroke="#000000" d="M252.989,-108.1628C270.1294,-117.3712 290.1874,-128.6631 306.9625,-138.5232"/>
<polygon fill="#000000" stroke="#000000" points="305.5192,-141.7366 315.9049,-143.8314 309.0924,-135.7172 305.5192,-141.7366"/>
<g id="a_edge20&#45;headlabel"><a xlink:href="dir_000077_000028.html" target="_top" xlink:title="35">
<text text-anchor="middle" x="300.9789" y="-139.8433" font-family="Helvetica,sans-Serif" font-size="10.00" fill="#000000">35</text>
</a>
</g>
</g>
<!-- dir_2171f7ec022c5423887b07c69b2f5b48&#45;&gt;dir_37c90836491b695b472bf98d1be8336b -->
<g id="edge21" class="edge">
<title>dir_2171f7ec022c5423887b07c69b2f5b48&#45;&gt;dir_37c90836491b695b472bf98d1be8336b</title>
<path fill="none" stroke="#000000" d="M226.2069,-71.8314C233.5015,-63.219 243.1788,-52.7851 252.5234,-43.4048"/>
<polygon fill="#000000" stroke="#000000" points="255.2141,-45.6679 259.8944,-36.1628 250.3082,-40.6746 255.2141,-45.6679"/>
<g id="a_edge21&#45;headlabel"><a xlink:href="dir_000077_000275.html" target="_top" xlink:title="1">
<text text-anchor="middle" x="254.6399" y="-47.7124" font-family="Helvetica,sans-Serif" font-size="10.00" fill="#000000">1</text>
</a>
</g>
</g>
<!-- dir_2171f7ec022c5423887b07c69b2f5b48&#45;&gt;dir_f511f1e9c03c071966ae594f00bbc5e0 -->
<g id="edge22" class="edge">
<title>dir_2171f7ec022c5423887b07c69b2f5b48&#45;&gt;dir_f511f1e9c03c071966ae594f00bbc5e0</title>
<path fill="none" stroke="#000000" d="M226.9444,-108.0896C239.3829,-132.7884 257.5751,-177.2933 267.2743,-206.2331"/>
<polygon fill="#000000" stroke="#000000" points="263.943,-207.3071 270.3274,-215.7623 270.6092,-205.1712 263.943,-207.3071"/>
<g id="a_edge22&#45;headlabel"><a xlink:href="dir_000077_000690.html" target="_top" xlink:title="18">
<text text-anchor="middle" x="260.1424" y="-202.2502" font-family="Helvetica,sans-Serif" font-size="10.00" fill="#000000">18</text>
</a>
</g>
</g>
</g>
</svg>
