<?xml version="1.0" encoding="UTF-8" standalone="no"?>
<!DOCTYPE svg PUBLIC "-//W3C//DTD SVG 1.1//EN"
 "http://www.w3.org/Graphics/SVG/1.1/DTD/svg11.dtd">
<!-- Generated by graphviz version 2.40.1 (20161225.0304)
 -->
<!-- Title: /home/travis/build/AliceO2Group/AliceO2/DataFormats/Detectors/TRD/include/DataFormatsTRD Pages: 1 -->
<svg width="140pt" height="223pt"
 viewBox="0.00 0.00 140.00 223.00" xmlns="http://www.w3.org/2000/svg" xmlns:xlink="http://www.w3.org/1999/xlink">
<g id="graph0" class="graph" transform="scale(1 1) rotate(0) translate(4 219)">
<title>/home/travis/build/AliceO2Group/AliceO2/DataFormats/Detectors/TRD/include/DataFormatsTRD</title>
<g id="clust1" class="cluster">
<title>clusterdir_37cb16e5a1a76e7ae4faac09696b430a</title>
<g id="a_clust1"><a xlink:href="dir_37cb16e5a1a76e7ae4faac09696b430a.html" target="_top" xlink:title="include">
<polygon fill="#ddddee" stroke="#000000" points="8,-136 8,-207 124,-207 124,-136 8,-136"/>
<text text-anchor="middle" x="66" y="-195" font-family="Helvetica,sans-Serif" font-size="10.00" fill="#000000">include</text>
</a>
</g>
</g>
<!-- dir_749c95cc3e4629ce3f5eb7a24ed74759 -->
<g id="node1" class="node">
<title>dir_749c95cc3e4629ce3f5eb7a24ed74759</title>
<g id="a_node1"><a xlink:href="dir_749c95cc3e4629ce3f5eb7a24ed74759.html" target="_top" xlink:title="DataFormatsTRD">
<polygon fill="#eeeeff" stroke="#000000" points="116,-180 16,-180 16,-144 116,-144 116,-180"/>
<text text-anchor="middle" x="66" y="-159.5" font-family="Helvetica,sans-Serif" font-size="10.00" fill="#000000">DataFormatsTRD</text>
</a>
</g>
</g>
<!-- dir_051dca18e802f8e9474f2e30d29c04e0 -->
<g id="node2" class="node">
<title>dir_051dca18e802f8e9474f2e30d29c04e0</title>
<g id="a_node2"><a xlink:href="dir_051dca18e802f8e9474f2e30d29c04e0.html" target="_top" xlink:title="Detectors">
<polygon fill="none" stroke="#ff0000" points="68,-108 4,-108 4,-72 68,-72 68,-108"/>
<text text-anchor="middle" x="36" y="-87.5" font-family="Helvetica,sans-Serif" font-size="10.00" fill="#000000">Detectors</text>
</a>
</g>
</g>
<!-- dir_749c95cc3e4629ce3f5eb7a24ed74759&#45;&gt;dir_051dca18e802f8e9474f2e30d29c04e0 -->
<g id="edge2" class="edge">
<title>dir_749c95cc3e4629ce3f5eb7a24ed74759&#45;&gt;dir_051dca18e802f8e9474f2e30d29c04e0</title>
<path fill="none" stroke="#000000" d="M58.4297,-143.8314C55.1507,-135.9617 51.238,-126.5712 47.6055,-117.8533"/>
<polygon fill="#000000" stroke="#000000" points="50.7492,-116.2979 43.6722,-108.4133 44.2876,-118.9902 50.7492,-116.2979"/>
<g id="a_edge2&#45;headlabel"><a xlink:href="dir_000147_000040.html" target="_top" xlink:title="1">
<text text-anchor="middle" x="54.7525" y="-116.024" font-family="Helvetica,sans-Serif" font-size="10.00" fill="#000000">1</text>
</a>
</g>
</g>
<!-- dir_7924ba4398ae4560cd37376e44666c6d -->
<g id="node3" class="node">
<title>dir_7924ba4398ae4560cd37376e44666c6d</title>
<g id="a_node3"><a xlink:href="dir_7924ba4398ae4560cd37376e44666c6d.html" target="_top" xlink:title="common">
<polygon fill="none" stroke="#ff0000" points="95.5,-36 36.5,-36 36.5,0 95.5,0 95.5,-36"/>
<text text-anchor="middle" x="66" y="-15.5" font-family="Helvetica,sans-Serif" font-size="10.00" fill="#000000">common</text>
</a>
</g>
</g>
<!-- dir_749c95cc3e4629ce3f5eb7a24ed74759&#45;&gt;dir_7924ba4398ae4560cd37376e44666c6d -->
<g id="edge3" class="edge">
<title>dir_749c95cc3e4629ce3f5eb7a24ed74759&#45;&gt;dir_7924ba4398ae4560cd37376e44666c6d</title>
<path fill="none" stroke="#000000" d="M70.6934,-143.6463C73.1071,-133.2631 75.7908,-119.9943 77,-108 78.6049,-92.0807 78.6049,-87.9193 77,-72 76.1498,-63.5665 74.5706,-54.5029 72.8689,-46.2554"/>
<polygon fill="#000000" stroke="#000000" points="76.2578,-45.3697 70.6934,-36.3537 69.4209,-46.8719 76.2578,-45.3697"/>
<g id="a_edge3&#45;headlabel"><a xlink:href="dir_000147_000078.html" target="_top" xlink:title="2">
<text text-anchor="middle" x="79.8023" y="-45.7713" font-family="Helvetica,sans-Serif" font-size="10.00" fill="#000000">2</text>
</a>
</g>
</g>
<!-- dir_051dca18e802f8e9474f2e30d29c04e0&#45;&gt;dir_7924ba4398ae4560cd37376e44666c6d -->
<g id="edge1" class="edge">
<title>dir_051dca18e802f8e9474f2e30d29c04e0&#45;&gt;dir_7924ba4398ae4560cd37376e44666c6d</title>
<path fill="none" stroke="#000000" d="M43.5703,-71.8314C46.8493,-63.9617 50.762,-54.5712 54.3945,-45.8533"/>
<polygon fill="#000000" stroke="#000000" points="57.7124,-46.9902 58.3278,-36.4133 51.2508,-44.2979 57.7124,-46.9902"/>
<g id="a_edge1&#45;headlabel"><a xlink:href="dir_000040_000078.html" target="_top" xlink:title="49">
<text text-anchor="middle" x="58.9507" y="-48.9003" font-family="Helvetica,sans-Serif" font-size="10.00" fill="#000000">49</text>
</a>
</g>
</g>
</g>
</svg>
