<?xml version="1.0" encoding="UTF-8" standalone="no"?>
<!DOCTYPE svg PUBLIC "-//W3C//DTD SVG 1.1//EN"
 "http://www.w3.org/Graphics/SVG/1.1/DTD/svg11.dtd">
<!-- Generated by graphviz version 2.40.1 (20161225.0304)
 -->
<!-- Title: /home/travis/build/AliceO2Group/AliceO2/Detectors/FIT/FT0/reconstruction/include/FT0Reconstruction Pages: 1 -->
<svg width="161pt" height="295pt"
 viewBox="0.00 0.00 160.50 295.00" xmlns="http://www.w3.org/2000/svg" xmlns:xlink="http://www.w3.org/1999/xlink">
<g id="graph0" class="graph" transform="scale(1 1) rotate(0) translate(4 291)">
<title>/home/travis/build/AliceO2Group/AliceO2/Detectors/FIT/FT0/reconstruction/include/FT0Reconstruction</title>
<g id="clust1" class="cluster">
<title>clusterdir_ee46b747e1abe6c555594e61ae5c8c00</title>
<g id="a_clust1"><a xlink:href="dir_ee46b747e1abe6c555594e61ae5c8c00.html" target="_top" xlink:title="include">
<polygon fill="#ddddee" stroke="#000000" points="22.5,-208 22.5,-279 144.5,-279 144.5,-208 22.5,-208"/>
<text text-anchor="middle" x="83.5" y="-267" font-family="Helvetica,sans-Serif" font-size="10.00" fill="#000000">include</text>
</a>
</g>
</g>
<!-- dir_edb12ba46d434384498464753fd13f73 -->
<g id="node1" class="node">
<title>dir_edb12ba46d434384498464753fd13f73</title>
<g id="a_node1"><a xlink:href="dir_edb12ba46d434384498464753fd13f73.html" target="_top" xlink:title="FT0Reconstruction">
<polygon fill="#eeeeff" stroke="#000000" points="136.5,-252 30.5,-252 30.5,-216 136.5,-216 136.5,-252"/>
<text text-anchor="middle" x="83.5" y="-231.5" font-family="Helvetica,sans-Serif" font-size="10.00" fill="#000000">FT0Reconstruction</text>
</a>
</g>
</g>
<!-- dir_b05a5fa85f84bfc9013183c9d87f9a36 -->
<g id="node2" class="node">
<title>dir_b05a5fa85f84bfc9013183c9d87f9a36</title>
<g id="a_node2"><a xlink:href="dir_b05a5fa85f84bfc9013183c9d87f9a36.html" target="_top" xlink:title="Utilities">
<polygon fill="none" stroke="#ff0000" points="55,-180 0,-180 0,-144 55,-144 55,-180"/>
<text text-anchor="middle" x="27.5" y="-159.5" font-family="Helvetica,sans-Serif" font-size="10.00" fill="#000000">Utilities</text>
</a>
</g>
</g>
<!-- dir_edb12ba46d434384498464753fd13f73&#45;&gt;dir_b05a5fa85f84bfc9013183c9d87f9a36 -->
<g id="edge1" class="edge">
<title>dir_edb12ba46d434384498464753fd13f73&#45;&gt;dir_b05a5fa85f84bfc9013183c9d87f9a36</title>
<path fill="none" stroke="#000000" d="M69.3688,-215.8314C62.9189,-207.5386 55.1555,-197.557 48.0748,-188.4533"/>
<polygon fill="#000000" stroke="#000000" points="50.7236,-186.158 41.8214,-180.4133 45.1981,-190.4556 50.7236,-186.158"/>
<g id="a_edge1&#45;headlabel"><a xlink:href="dir_000459_000577.html" target="_top" xlink:title="1">
<text text-anchor="middle" x="55.1716" y="-184.7523" font-family="Helvetica,sans-Serif" font-size="10.00" fill="#000000">1</text>
</a>
</g>
</g>
<!-- dir_63da1bf9cbb165deb85abc813a5acde9 -->
<g id="node3" class="node">
<title>dir_63da1bf9cbb165deb85abc813a5acde9</title>
<g id="a_node3"><a xlink:href="dir_63da1bf9cbb165deb85abc813a5acde9.html" target="_top" xlink:title="base">
<polygon fill="none" stroke="#ff0000" points="101.5,-36 47.5,-36 47.5,0 101.5,0 101.5,-36"/>
<text text-anchor="middle" x="74.5" y="-15.5" font-family="Helvetica,sans-Serif" font-size="10.00" fill="#000000">base</text>
</a>
</g>
</g>
<!-- dir_edb12ba46d434384498464753fd13f73&#45;&gt;dir_63da1bf9cbb165deb85abc813a5acde9 -->
<g id="edge2" class="edge">
<title>dir_edb12ba46d434384498464753fd13f73&#45;&gt;dir_63da1bf9cbb165deb85abc813a5acde9</title>
<path fill="none" stroke="#000000" d="M86.1864,-215.9211C90.1991,-185.8844 96.5701,-123.8687 89.5,-72 88.3228,-63.3639 86.1329,-54.1599 83.783,-45.8427"/>
<polygon fill="#000000" stroke="#000000" points="87.1257,-44.8042 80.8948,-36.2353 80.422,-46.8195 87.1257,-44.8042"/>
<g id="a_edge2&#45;headlabel"><a xlink:href="dir_000459_000336.html" target="_top" xlink:title="1">
<text text-anchor="middle" x="90.8795" y="-44.9292" font-family="Helvetica,sans-Serif" font-size="10.00" fill="#000000">1</text>
</a>
</g>
</g>
<!-- dir_2171f7ec022c5423887b07c69b2f5b48 -->
<g id="node4" class="node">
<title>dir_2171f7ec022c5423887b07c69b2f5b48</title>
<g id="a_node4"><a xlink:href="dir_2171f7ec022c5423887b07c69b2f5b48.html" target="_top" xlink:title="DataFormats">
<polygon fill="none" stroke="#ff0000" points="80.5,-108 .5,-108 .5,-72 80.5,-72 80.5,-108"/>
<text text-anchor="middle" x="40.5" y="-87.5" font-family="Helvetica,sans-Serif" font-size="10.00" fill="#000000">DataFormats</text>
</a>
</g>
</g>
<!-- dir_edb12ba46d434384498464753fd13f73&#45;&gt;dir_2171f7ec022c5423887b07c69b2f5b48 -->
<g id="edge3" class="edge">
<title>dir_edb12ba46d434384498464753fd13f73&#45;&gt;dir_2171f7ec022c5423887b07c69b2f5b48</title>
<path fill="none" stroke="#000000" d="M80.8088,-215.7786C77.8251,-197.3876 72.3709,-168.3085 64.5,-144 61.6379,-135.1608 57.7973,-125.8176 54.0287,-117.4332"/>
<polygon fill="#000000" stroke="#000000" points="57.0887,-115.7127 49.7007,-108.1188 50.7405,-118.6625 57.0887,-115.7127"/>
<g id="a_edge3&#45;headlabel"><a xlink:href="dir_000459_000077.html" target="_top" xlink:title="16">
<text text-anchor="middle" x="61.1782" y="-115.2762" font-family="Helvetica,sans-Serif" font-size="10.00" fill="#000000">16</text>
</a>
</g>
</g>
<!-- dir_b05a5fa85f84bfc9013183c9d87f9a36&#45;&gt;dir_2171f7ec022c5423887b07c69b2f5b48 -->
<g id="edge4" class="edge">
<title>dir_b05a5fa85f84bfc9013183c9d87f9a36&#45;&gt;dir_2171f7ec022c5423887b07c69b2f5b48</title>
<path fill="none" stroke="#000000" d="M24.8281,-143.8314C25.475,-136.0463 26.9319,-126.7729 28.8154,-118.1347"/>
<polygon fill="#000000" stroke="#000000" points="32.2169,-118.9591 31.1994,-108.4133 25.4183,-117.2919 32.2169,-118.9591"/>
<g id="a_edge4&#45;headlabel"><a xlink:href="dir_000577_000077.html" target="_top" xlink:title="48">
<text text-anchor="middle" x="34.1184" y="-120.6265" font-family="Helvetica,sans-Serif" font-size="10.00" fill="#000000">48</text>
</a>
</g>
</g>
<!-- dir_2171f7ec022c5423887b07c69b2f5b48&#45;&gt;dir_b05a5fa85f84bfc9013183c9d87f9a36 -->
<g id="edge5" class="edge">
<title>dir_2171f7ec022c5423887b07c69b2f5b48&#45;&gt;dir_b05a5fa85f84bfc9013183c9d87f9a36</title>
<path fill="none" stroke="#000000" d="M43.1514,-108.4133C42.4948,-116.1442 41.0496,-125.3097 39.187,-133.8545"/>
<polygon fill="#000000" stroke="#000000" points="35.7228,-133.2848 36.7328,-143.8314 42.5202,-134.9569 35.7228,-133.2848"/>
<g id="a_edge5&#45;headlabel"><a xlink:href="dir_000077_000577.html" target="_top" xlink:title="1">
<text text-anchor="middle" x="33.8243" y="-126.6161" font-family="Helvetica,sans-Serif" font-size="10.00" fill="#000000">1</text>
</a>
</g>
</g>
<!-- dir_2171f7ec022c5423887b07c69b2f5b48&#45;&gt;dir_63da1bf9cbb165deb85abc813a5acde9 -->
<g id="edge6" class="edge">
<title>dir_2171f7ec022c5423887b07c69b2f5b48&#45;&gt;dir_63da1bf9cbb165deb85abc813a5acde9</title>
<path fill="none" stroke="#000000" d="M49.0796,-71.8314C52.8358,-63.8771 57.3257,-54.369 61.4798,-45.5723"/>
<polygon fill="#000000" stroke="#000000" points="64.6996,-46.9503 65.8048,-36.4133 58.3699,-43.9612 64.6996,-46.9503"/>
<g id="a_edge6&#45;headlabel"><a xlink:href="dir_000077_000336.html" target="_top" xlink:title="1">
<text text-anchor="middle" x="65.7321" y="-48.9131" font-family="Helvetica,sans-Serif" font-size="10.00" fill="#000000">1</text>
</a>
</g>
</g>
</g>
</svg>
