<?xml version="1.0" encoding="UTF-8" standalone="no"?>
<!DOCTYPE svg PUBLIC "-//W3C//DTD SVG 1.1//EN"
 "http://www.w3.org/Graphics/SVG/1.1/DTD/svg11.dtd">
<!-- Generated by graphviz version 2.40.1 (20161225.0304)
 -->
<!-- Title: /home/travis/build/AliceO2Group/AliceO2/DataFormats/Detectors/FIT/FT0/include Pages: 1 -->
<!--zoomable 519 -->
<svg id="main" version="1.1" xmlns="http://www.w3.org/2000/svg" xmlns:xlink="http://www.w3.org/1999/xlink" xml:space="preserve" onload="init(evt)">
<style type="text/css"><![CDATA[
.edge:hover path { stroke: red; }
.edge:hover polygon { stroke: red; fill: red; }
]]></style>
<script type="text/javascript"><![CDATA[
var edges = document.getElementsByTagName('g');
if (edges && edges.length) {
  for (var i=0;i<edges.length;i++) {
    if (edges[i].id.substr(0,4)=='edge') {
      edges[i].setAttribute('class','edge');
    }
  }
}
]]></script>
        <defs>
                <circle id="rim" cx="0" cy="0" r="7"/>
                <circle id="rim2" cx="0" cy="0" r="3.5"/>
                <g id="zoomPlus">
                        <use xlink:href="#rim" fill="#404040">
                                <set attributeName="fill" to="#808080" begin="zoomplus.mouseover" end="zoomplus.mouseout"/>
                        </use>
                        <path d="M-4,0h8M0,-4v8" fill="none" stroke="white" stroke-width="1.5" pointer-events="none"/>
                </g>
                <g id="zoomMin">
                        <use xlink:href="#rim" fill="#404040">
                                <set attributeName="fill" to="#808080" begin="zoomminus.mouseover" end="zoomminus.mouseout"/>
                        </use>
                        <path d="M-4,0h8" fill="none" stroke="white" stroke-width="1.5" pointer-events="none"/>
                </g>
                <g id="dirArrow">
                        <path fill="none" stroke="white" stroke-width="1.5" d="M0,-3.0v7 M-2.5,-0.5L0,-3.0L2.5,-0.5"/>
                </g>
               <g id="resetDef">
                       <use xlink:href="#rim2" fill="#404040">
                               <set attributeName="fill" to="#808080" begin="reset.mouseover" end="reset.mouseout"/>
                       </use>
               </g>
        </defs>

<script type="text/javascript">
var viewWidth = 255;
var viewHeight = 519;
var sectionId = 'dynsection-0';
</script>
<script xlink:href="svgpan.js"/>
<svg id="graph" class="graph">
<g id="viewport">
<title>/home/travis/build/AliceO2Group/AliceO2/DataFormats/Detectors/FIT/FT0/include</title>
<g id="clust1" class="cluster">
<title>clusterdir_c4f8a341900d529ea5f1c2b568ba3222</title>
<g id="a_clust1"><a xlink:href="dir_c4f8a341900d529ea5f1c2b568ba3222.html" target="_top" xlink:title="FT0">
<polygon fill="#ddddee" stroke="#000000" points="33,-416 33,-503 234,-503 234,-416 33,-416"/>
<text text-anchor="middle" x="133.5" y="-491" font-family="Helvetica,sans-Serif" font-size="10.00" fill="#000000">FT0</text>
</a>
</g>
</g>
<g id="clust2" class="cluster">
<title>clusterdir_a6c44d6dafa1a8f18372aec58f930bca</title>
<g id="a_clust2"><a xlink:href="dir_a6c44d6dafa1a8f18372aec58f930bca.html" target="_top">
<polygon fill="#eeeeff" stroke="#000000" points="41,-424 41,-476 226,-476 226,-424 41,-424"/>
</a>
</g>
</g>
<!-- dir_a6c44d6dafa1a8f18372aec58f930bca -->
<g id="node1" class="node">
<title>dir_a6c44d6dafa1a8f18372aec58f930bca</title>
<text text-anchor="middle" x="191" y="-447.5" font-family="Helvetica,sans-Serif" font-size="10.00" fill="#000000">include</text>
</g>
<!-- dir_d95f5a1cd4ba3a2fb66db2b4665e50e5 -->
<g id="node2" class="node">
<title>dir_d95f5a1cd4ba3a2fb66db2b4665e50e5</title>
<g id="a_node2"><a xlink:href="dir_d95f5a1cd4ba3a2fb66db2b4665e50e5.html" target="_top" xlink:title="DataFormatsFT0">
<polygon fill="#ffffff" stroke="#000000" points="145.5,-468 48.5,-468 48.5,-432 145.5,-432 145.5,-468"/>
<text text-anchor="middle" x="97" y="-447.5" font-family="Helvetica,sans-Serif" font-size="10.00" fill="#000000">DataFormatsFT0</text>
</a>
</g>
</g>
<!-- dir_4ab6b4cc6a7edbff49100e9123df213f -->
<g id="node3" class="node">
<title>dir_4ab6b4cc6a7edbff49100e9123df213f</title>
<g id="a_node3"><a xlink:href="dir_4ab6b4cc6a7edbff49100e9123df213f.html" target="_top" xlink:title="Common">
<polygon fill="none" stroke="#ff0000" points="164.5,-252 103.5,-252 103.5,-216 164.5,-216 164.5,-252"/>
<text text-anchor="middle" x="134" y="-231.5" font-family="Helvetica,sans-Serif" font-size="10.00" fill="#000000">Common</text>
</a>
</g>
</g>
<!-- dir_d95f5a1cd4ba3a2fb66db2b4665e50e5&#45;&gt;dir_4ab6b4cc6a7edbff49100e9123df213f -->
<g id="edge1" class="edge">
<title>dir_d95f5a1cd4ba3a2fb66db2b4665e50e5&#45;&gt;dir_4ab6b4cc6a7edbff49100e9123df213f</title>
<path fill="none" stroke="#000000" d="M93.1156,-431.9448C87.3437,-401.4189 78.8173,-338.0464 95,-288 98.1688,-278.2001 103.8532,-268.6831 109.9191,-260.4383"/>
<polygon fill="#000000" stroke="#000000" points="112.8526,-262.3703 116.2892,-252.3483 107.3529,-258.0398 112.8526,-262.3703"/>
<g id="a_edge1&#45;headlabel"><a xlink:href="dir_000126_000028.html" target="_top" xlink:title="1">
<text text-anchor="middle" x="112.8596" y="-264.451" font-family="Helvetica,sans-Serif" font-size="10.00" fill="#000000">1</text>
</a>
</g>
</g>
<!-- dir_183e7c4434404fe9096e1bd8673e1fcf -->
<g id="node4" class="node">
<title>dir_183e7c4434404fe9096e1bd8673e1fcf</title>
<g id="a_node4"><a xlink:href="dir_183e7c4434404fe9096e1bd8673e1fcf.html" target="_top" xlink:title="Headers">
<polygon fill="none" stroke="#ff0000" points="137.5,-36 80.5,-36 80.5,0 137.5,0 137.5,-36"/>
<text text-anchor="middle" x="109" y="-15.5" font-family="Helvetica,sans-Serif" font-size="10.00" fill="#000000">Headers</text>
</a>
</g>
</g>
<!-- dir_d95f5a1cd4ba3a2fb66db2b4665e50e5&#45;&gt;dir_183e7c4434404fe9096e1bd8673e1fcf -->
<g id="edge2" class="edge">
<title>dir_d95f5a1cd4ba3a2fb66db2b4665e50e5&#45;&gt;dir_183e7c4434404fe9096e1bd8673e1fcf</title>
<path fill="none" stroke="#000000" d="M74.0124,-431.7169C45.3281,-406.6722 0,-358.7501 0,-306 0,-306 0,-306 0,-162 0,-111.9186 42.4327,-68.274 74.3479,-42.5303"/>
<polygon fill="#000000" stroke="#000000" points="76.893,-44.9832 82.6141,-36.0658 72.5808,-39.4691 76.893,-44.9832"/>
<g id="a_edge2&#45;headlabel"><a xlink:href="dir_000126_000081.html" target="_top" xlink:title="1">
<text text-anchor="middle" x="75.8105" y="-46.9341" font-family="Helvetica,sans-Serif" font-size="10.00" fill="#000000">1</text>
</a>
</g>
</g>
<!-- dir_047746f9f311f49446db9474b7431d0d -->
<g id="node5" class="node">
<title>dir_047746f9f311f49446db9474b7431d0d</title>
<g id="a_node5"><a xlink:href="dir_047746f9f311f49446db9474b7431d0d.html" target="_top" xlink:title="simulation">
<polygon fill="none" stroke="#ff0000" points="218,-396 150,-396 150,-360 218,-360 218,-396"/>
<text text-anchor="middle" x="184" y="-375.5" font-family="Helvetica,sans-Serif" font-size="10.00" fill="#000000">simulation</text>
</a>
</g>
</g>
<!-- dir_d95f5a1cd4ba3a2fb66db2b4665e50e5&#45;&gt;dir_047746f9f311f49446db9474b7431d0d -->
<g id="edge3" class="edge">
<title>dir_d95f5a1cd4ba3a2fb66db2b4665e50e5&#45;&gt;dir_047746f9f311f49446db9474b7431d0d</title>
<path fill="none" stroke="#000000" d="M118.9538,-431.8314C129.6695,-422.9632 142.7189,-412.1637 154.309,-402.5718"/>
<polygon fill="#000000" stroke="#000000" points="156.5808,-405.2349 162.0533,-396.1628 152.1178,-399.8422 156.5808,-405.2349"/>
<g id="a_edge3&#45;headlabel"><a xlink:href="dir_000126_000246.html" target="_top" xlink:title="3">
<text text-anchor="middle" x="155.6218" y="-407.2141" font-family="Helvetica,sans-Serif" font-size="10.00" fill="#000000">3</text>
</a>
</g>
</g>
<!-- dir_74593c7a91e03746ae2a516888bf9494 -->
<g id="node6" class="node">
<title>dir_74593c7a91e03746ae2a516888bf9494</title>
<g id="a_node6"><a xlink:href="dir_74593c7a91e03746ae2a516888bf9494.html" target="_top" xlink:title="Common">
<polygon fill="none" stroke="#ff0000" points="207.5,-180 146.5,-180 146.5,-144 207.5,-144 207.5,-180"/>
<text text-anchor="middle" x="177" y="-159.5" font-family="Helvetica,sans-Serif" font-size="10.00" fill="#000000">Common</text>
</a>
</g>
</g>
<!-- dir_d95f5a1cd4ba3a2fb66db2b4665e50e5&#45;&gt;dir_74593c7a91e03746ae2a516888bf9494 -->
<g id="edge4" class="edge">
<title>dir_d95f5a1cd4ba3a2fb66db2b4665e50e5&#45;&gt;dir_74593c7a91e03746ae2a516888bf9494</title>
<path fill="none" stroke="#000000" d="M124.5569,-431.8783C133.9461,-426.2431 144.6819,-420.3695 155,-416 185.5824,-403.049 206.9028,-422.4408 227,-396 274.4876,-333.5233 224.6657,-235.8342 195.2886,-188.92"/>
<polygon fill="#000000" stroke="#000000" points="198.0659,-186.7672 189.7207,-180.2396 192.1738,-190.5466 198.0659,-186.7672"/>
<g id="a_edge4&#45;headlabel"><a xlink:href="dir_000126_000088.html" target="_top" xlink:title="1">
<text text-anchor="middle" x="202.3965" y="-185.7599" font-family="Helvetica,sans-Serif" font-size="10.00" fill="#000000">1</text>
</a>
</g>
</g>
<!-- dir_7924ba4398ae4560cd37376e44666c6d -->
<g id="node7" class="node">
<title>dir_7924ba4398ae4560cd37376e44666c6d</title>
<g id="a_node7"><a xlink:href="dir_7924ba4398ae4560cd37376e44666c6d.html" target="_top" xlink:title="common">
<polygon fill="none" stroke="#ff0000" points="163.5,-324 104.5,-324 104.5,-288 163.5,-288 163.5,-324"/>
<text text-anchor="middle" x="134" y="-303.5" font-family="Helvetica,sans-Serif" font-size="10.00" fill="#000000">common</text>
</a>
</g>
</g>
<!-- dir_d95f5a1cd4ba3a2fb66db2b4665e50e5&#45;&gt;dir_7924ba4398ae4560cd37376e44666c6d -->
<g id="edge5" class="edge">
<title>dir_d95f5a1cd4ba3a2fb66db2b4665e50e5&#45;&gt;dir_7924ba4398ae4560cd37376e44666c6d</title>
<path fill="none" stroke="#000000" d="M101.6861,-431.7623C108.0248,-407.0928 119.3902,-362.8598 126.8125,-333.9731"/>
<polygon fill="#000000" stroke="#000000" points="130.2532,-334.6461 129.352,-324.0896 123.4734,-332.904 130.2532,-334.6461"/>
<g id="a_edge5&#45;headlabel"><a xlink:href="dir_000126_000078.html" target="_top" xlink:title="9">
<text text-anchor="middle" x="132.1086" y="-336.3341" font-family="Helvetica,sans-Serif" font-size="10.00" fill="#000000">9</text>
</a>
</g>
</g>
<!-- dir_bcbb2cf9a3d3d83e5515c82071a07177 -->
<g id="node8" class="node">
<title>dir_bcbb2cf9a3d3d83e5515c82071a07177</title>
<g id="a_node8"><a xlink:href="dir_bcbb2cf9a3d3d83e5515c82071a07177.html" target="_top" xlink:title="Framework">
<polygon fill="none" stroke="#ff0000" points="144.5,-108 73.5,-108 73.5,-72 144.5,-72 144.5,-108"/>
<text text-anchor="middle" x="109" y="-87.5" font-family="Helvetica,sans-Serif" font-size="10.00" fill="#000000">Framework</text>
</a>
</g>
</g>
<!-- dir_d95f5a1cd4ba3a2fb66db2b4665e50e5&#45;&gt;dir_bcbb2cf9a3d3d83e5515c82071a07177 -->
<g id="edge6" class="edge">
<title>dir_d95f5a1cd4ba3a2fb66db2b4665e50e5&#45;&gt;dir_bcbb2cf9a3d3d83e5515c82071a07177</title>
<path fill="none" stroke="#000000" d="M84.1979,-431.8796C66.8455,-405.4944 38,-354.3605 38,-306 38,-306 38,-306 38,-234 38,-189.0363 66.1913,-143.5617 87.0456,-116.0733"/>
<polygon fill="#000000" stroke="#000000" points="89.8448,-118.1755 93.2428,-108.1403 84.3284,-113.8661 89.8448,-118.1755"/>
<g id="a_edge6&#45;headlabel"><a xlink:href="dir_000126_000014.html" target="_top" xlink:title="1">
<text text-anchor="middle" x="89.8694" y="-120.256" font-family="Helvetica,sans-Serif" font-size="10.00" fill="#000000">1</text>
</a>
</g>
</g>
<!-- dir_4ab6b4cc6a7edbff49100e9123df213f&#45;&gt;dir_74593c7a91e03746ae2a516888bf9494 -->
<g id="edge7" class="edge">
<title>dir_4ab6b4cc6a7edbff49100e9123df213f&#45;&gt;dir_74593c7a91e03746ae2a516888bf9494</title>
<path fill="none" stroke="#000000" d="M138.8983,-215.8314C142.9582,-207.7079 148.5753,-197.9637 154.3085,-189.0118"/>
<polygon fill="#000000" stroke="#000000" points="157.4037,-190.6782 160.0272,-180.4133 151.575,-186.8017 157.4037,-190.6782"/>
<g id="a_edge7&#45;headlabel"><a xlink:href="dir_000028_000088.html" target="_top" xlink:title="1">
<text text-anchor="middle" x="157.7772" y="-192.7436" font-family="Helvetica,sans-Serif" font-size="10.00" fill="#000000">1</text>
</a>
</g>
</g>
<!-- dir_4ab6b4cc6a7edbff49100e9123df213f&#45;&gt;dir_bcbb2cf9a3d3d83e5515c82071a07177 -->
<g id="edge8" class="edge">
<title>dir_4ab6b4cc6a7edbff49100e9123df213f&#45;&gt;dir_bcbb2cf9a3d3d83e5515c82071a07177</title>
<path fill="none" stroke="#000000" d="M126.1606,-215.7623C119.4366,-191.201 111.5311,-147.2474 108.4252,-118.3541"/>
<polygon fill="#000000" stroke="#000000" points="111.8824,-117.7275 107.4823,-108.0896 104.9118,-118.3679 111.8824,-117.7275"/>
<g id="a_edge8&#45;headlabel"><a xlink:href="dir_000028_000014.html" target="_top" xlink:title="2">
<text text-anchor="middle" x="115.0385" y="-118.5474" font-family="Helvetica,sans-Serif" font-size="10.00" fill="#000000">2</text>
</a>
</g>
</g>
<!-- dir_047746f9f311f49446db9474b7431d0d&#45;&gt;dir_4ab6b4cc6a7edbff49100e9123df213f -->
<g id="edge9" class="edge">
<title>dir_047746f9f311f49446db9474b7431d0d&#45;&gt;dir_4ab6b4cc6a7edbff49100e9123df213f</title>
<path fill="none" stroke="#000000" d="M184.0885,-359.7811C183.6082,-341.1386 181.2455,-311.6349 172,-288 168.2186,-278.3334 162.3583,-268.7493 156.3627,-260.3988"/>
<polygon fill="#000000" stroke="#000000" points="158.9746,-258.0503 150.1471,-252.1914 153.3942,-262.2764 158.9746,-258.0503"/>
<g id="a_edge9&#45;headlabel"><a xlink:href="dir_000246_000028.html" target="_top" xlink:title="5">
<text text-anchor="middle" x="163.4081" y="-256.7018" font-family="Helvetica,sans-Serif" font-size="10.00" fill="#000000">5</text>
</a>
</g>
</g>
<!-- dir_047746f9f311f49446db9474b7431d0d&#45;&gt;dir_74593c7a91e03746ae2a516888bf9494 -->
<g id="edge10" class="edge">
<title>dir_047746f9f311f49446db9474b7431d0d&#45;&gt;dir_74593c7a91e03746ae2a516888bf9494</title>
<path fill="none" stroke="#000000" d="M186.9885,-359.563C188.5251,-349.1537 190.2328,-335.8866 191,-324 194.0222,-277.1764 187.2185,-222.8647 182.074,-190.5265"/>
<polygon fill="#000000" stroke="#000000" points="185.4917,-189.7409 180.4095,-180.4446 178.5852,-190.8812 185.4917,-189.7409"/>
<g id="a_edge10&#45;headlabel"><a xlink:href="dir_000246_000088.html" target="_top" xlink:title="6">
<text text-anchor="middle" x="188.8785" y="-190.325" font-family="Helvetica,sans-Serif" font-size="10.00" fill="#000000">6</text>
</a>
</g>
</g>
<!-- dir_047746f9f311f49446db9474b7431d0d&#45;&gt;dir_7924ba4398ae4560cd37376e44666c6d -->
<g id="edge11" class="edge">
<title>dir_047746f9f311f49446db9474b7431d0d&#45;&gt;dir_7924ba4398ae4560cd37376e44666c6d</title>
<path fill="none" stroke="#000000" d="M171.3829,-359.8314C165.6828,-351.6232 158.8337,-341.7606 152.5641,-332.7323"/>
<polygon fill="#000000" stroke="#000000" points="155.3658,-330.6306 146.787,-324.4133 149.6162,-334.6234 155.3658,-330.6306"/>
<g id="a_edge11&#45;headlabel"><a xlink:href="dir_000246_000078.html" target="_top" xlink:title="2">
<text text-anchor="middle" x="159.7482" y="-329.4636" font-family="Helvetica,sans-Serif" font-size="10.00" fill="#000000">2</text>
</a>
</g>
</g>
<!-- dir_74593c7a91e03746ae2a516888bf9494&#45;&gt;dir_4ab6b4cc6a7edbff49100e9123df213f -->
<g id="edge12" class="edge">
<title>dir_74593c7a91e03746ae2a516888bf9494&#45;&gt;dir_4ab6b4cc6a7edbff49100e9123df213f</title>
<path fill="none" stroke="#000000" d="M171.9792,-180.4133C167.8883,-188.569 162.2546,-198.3212 156.5191,-207.257"/>
<polygon fill="#000000" stroke="#000000" points="153.4378,-205.5693 150.8031,-215.8314 159.2622,-209.4522 153.4378,-205.5693"/>
<g id="a_edge12&#45;headlabel"><a xlink:href="dir_000088_000028.html" target="_top" xlink:title="5">
<text text-anchor="middle" x="153.0692" y="-198.5035" font-family="Helvetica,sans-Serif" font-size="10.00" fill="#000000">5</text>
</a>
</g>
</g>
<!-- dir_74593c7a91e03746ae2a516888bf9494&#45;&gt;dir_183e7c4434404fe9096e1bd8673e1fcf -->
<g id="edge13" class="edge">
<title>dir_74593c7a91e03746ae2a516888bf9494&#45;&gt;dir_183e7c4434404fe9096e1bd8673e1fcf</title>
<path fill="none" stroke="#000000" d="M174.488,-143.9449C171.3606,-125.1742 164.9146,-95.3308 153,-72 147.915,-62.0428 140.7642,-52.2346 133.7028,-43.7664"/>
<polygon fill="#000000" stroke="#000000" points="136.2346,-41.3442 127.0304,-36.097 130.9535,-45.9387 136.2346,-41.3442"/>
<g id="a_edge13&#45;headlabel"><a xlink:href="dir_000088_000081.html" target="_top" xlink:title="1">
<text text-anchor="middle" x="140.736" y="-39.6925" font-family="Helvetica,sans-Serif" font-size="10.00" fill="#000000">1</text>
</a>
</g>
</g>
<!-- dir_74593c7a91e03746ae2a516888bf9494&#45;&gt;dir_bcbb2cf9a3d3d83e5515c82071a07177 -->
<g id="edge14" class="edge">
<title>dir_74593c7a91e03746ae2a516888bf9494&#45;&gt;dir_bcbb2cf9a3d3d83e5515c82071a07177</title>
<path fill="none" stroke="#000000" d="M159.8407,-143.8314C151.8489,-135.3694 142.1962,-125.1489 133.4584,-115.8971"/>
<polygon fill="#000000" stroke="#000000" points="135.8011,-113.2802 126.3903,-108.4133 130.712,-118.0866 135.8011,-113.2802"/>
<g id="a_edge14&#45;headlabel"><a xlink:href="dir_000088_000014.html" target="_top" xlink:title="2">
<text text-anchor="middle" x="140.3334" y="-111.444" font-family="Helvetica,sans-Serif" font-size="10.00" fill="#000000">2</text>
</a>
</g>
</g>
<!-- dir_7924ba4398ae4560cd37376e44666c6d&#45;&gt;dir_4ab6b4cc6a7edbff49100e9123df213f -->
<g id="edge15" class="edge">
<title>dir_7924ba4398ae4560cd37376e44666c6d&#45;&gt;dir_4ab6b4cc6a7edbff49100e9123df213f</title>
<path fill="none" stroke="#000000" d="M134,-287.8314C134,-280.131 134,-270.9743 134,-262.4166"/>
<polygon fill="#000000" stroke="#000000" points="137.5001,-262.4132 134,-252.4133 130.5001,-262.4133 137.5001,-262.4132"/>
<g id="a_edge15&#45;headlabel"><a xlink:href="dir_000078_000028.html" target="_top" xlink:title="2">
<text text-anchor="middle" x="140.3393" y="-263.5079" font-family="Helvetica,sans-Serif" font-size="10.00" fill="#000000">2</text>
</a>
</g>
</g>
<!-- dir_bcbb2cf9a3d3d83e5515c82071a07177&#45;&gt;dir_4ab6b4cc6a7edbff49100e9123df213f -->
<g id="edge16" class="edge">
<title>dir_bcbb2cf9a3d3d83e5515c82071a07177&#45;&gt;dir_4ab6b4cc6a7edbff49100e9123df213f</title>
<path fill="none" stroke="#000000" d="M116.7988,-108.0896C123.518,-132.5727 131.4308,-176.5174 134.556,-205.4713"/>
<polygon fill="#000000" stroke="#000000" points="131.1016,-206.1268 135.5069,-215.7623 138.0719,-205.4827 131.1016,-206.1268"/>
<g id="a_edge16&#45;headlabel"><a xlink:href="dir_000014_000028.html" target="_top" xlink:title="8">
<text text-anchor="middle" x="127.9437" y="-200.3086" font-family="Helvetica,sans-Serif" font-size="10.00" fill="#000000">8</text>
</a>
</g>
</g>
<!-- dir_bcbb2cf9a3d3d83e5515c82071a07177&#45;&gt;dir_183e7c4434404fe9096e1bd8673e1fcf -->
<g id="edge17" class="edge">
<title>dir_bcbb2cf9a3d3d83e5515c82071a07177&#45;&gt;dir_183e7c4434404fe9096e1bd8673e1fcf</title>
<path fill="none" stroke="#000000" d="M109,-71.8314C109,-64.131 109,-54.9743 109,-46.4166"/>
<polygon fill="#000000" stroke="#000000" points="112.5001,-46.4132 109,-36.4133 105.5001,-46.4133 112.5001,-46.4132"/>
<g id="a_edge17&#45;headlabel"><a xlink:href="dir_000014_000081.html" target="_top" xlink:title="73">
<text text-anchor="middle" x="115.3393" y="-47.5079" font-family="Helvetica,sans-Serif" font-size="10.00" fill="#000000">73</text>
</a>
</g>
</g>
</g>
</svg>
        <g id="navigator" transform="translate(0 0)" fill="#404254">
                <rect fill="#f2f5e9" fill-opacity="0.5" stroke="#606060" stroke-width=".5" x="0" y="0" width="60" height="60"/>
                <use id="zoomplus" xlink:href="#zoomPlus" x="17" y="9" onmousedown="handleZoom(evt,'in')"/>
                <use id="zoomminus" xlink:href="#zoomMin" x="42" y="9" onmousedown="handleZoom(evt,'out')"/>
                <use id="reset" xlink:href="#resetDef" x="30" y="36" onmousedown="handleReset()"/>
                <g id="arrowUp" xlink:href="#dirArrow" transform="translate(30 24)" onmousedown="handlePan(0,-1)">
                  <use xlink:href="#rim" fill="#404040">
                        <set attributeName="fill" to="#808080" begin="arrowUp.mouseover" end="arrowUp.mouseout"/>
                  </use>
                  <path fill="none" stroke="white" stroke-width="1.5" d="M0,-3.0v7 M-2.5,-0.5L0,-3.0L2.5,-0.5"/>
                </g>
                <g id="arrowRight" xlink:href="#dirArrow" transform="rotate(90) translate(36 -43)" onmousedown="handlePan(1,0)">
                  <use xlink:href="#rim" fill="#404040">
                        <set attributeName="fill" to="#808080" begin="arrowRight.mouseover" end="arrowRight.mouseout"/>
                  </use>
                  <path fill="none" stroke="white" stroke-width="1.5" d="M0,-3.0v7 M-2.5,-0.5L0,-3.0L2.5,-0.5"/>
                </g>
                <g id="arrowDown" xlink:href="#dirArrow" transform="rotate(180) translate(-30 -48)" onmousedown="handlePan(0,1)">
                  <use xlink:href="#rim" fill="#404040">
                        <set attributeName="fill" to="#808080" begin="arrowDown.mouseover" end="arrowDown.mouseout"/>
                  </use>
                  <path fill="none" stroke="white" stroke-width="1.5" d="M0,-3.0v7 M-2.5,-0.5L0,-3.0L2.5,-0.5"/>
                </g>
                <g id="arrowLeft" xlink:href="#dirArrow" transform="rotate(270) translate(-36 17)" onmousedown="handlePan(-1,0)">
                  <use xlink:href="#rim" fill="#404040">
                        <set attributeName="fill" to="#808080" begin="arrowLeft.mouseover" end="arrowLeft.mouseout"/>
                  </use>
                  <path fill="none" stroke="white" stroke-width="1.5" d="M0,-3.0v7 M-2.5,-0.5L0,-3.0L2.5,-0.5"/>
                </g>
        </g>
        <svg viewBox="0 0 15 15" width="100%" height="30px" preserveAspectRatio="xMaxYMin meet">
         <g id="arrow_out" transform="scale(0.3 0.3)">
          <a xlink:href="dir_a6c44d6dafa1a8f18372aec58f930bca_dep_org.svg" target="_base">
           <rect id="button" ry="5" rx="5" y="6" x="6" height="38" width="38"
                fill="#f2f5e9" fill-opacity="0.5" stroke="#606060" stroke-width="1.0"/>
           <path id="arrow"
             d="M 11.500037,31.436501 C 11.940474,20.09759 22.043105,11.32322 32.158766,21.979434 L 37.068811,17.246167 C 37.068811,17.246167 37.088388,32 37.088388,32 L 22.160133,31.978069 C 22.160133,31.978069 26.997745,27.140456 26.997745,27.140456 C 18.528582,18.264221 13.291696,25.230495 11.500037,31.436501 z"
             style="fill:#404040;"/>
          </a>
         </g>
        </svg>
</svg>
