<?xml version="1.0" encoding="UTF-8" standalone="no"?>
<!DOCTYPE svg PUBLIC "-//W3C//DTD SVG 1.1//EN"
 "http://www.w3.org/Graphics/SVG/1.1/DTD/svg11.dtd">
<!-- Generated by graphviz version 2.40.1 (20161225.0304)
 -->
<!-- Title: /home/travis/build/AliceO2Group/AliceO2/DataFormats/Detectors/FIT/FT0 Pages: 1 -->
<svg width="524pt" height="519pt"
 viewBox="0.00 0.00 524.00 519.00" xmlns="http://www.w3.org/2000/svg" xmlns:xlink="http://www.w3.org/1999/xlink">
<g id="graph0" class="graph" transform="scale(1 1) rotate(0) translate(4 515)">
<title>/home/travis/build/AliceO2Group/AliceO2/DataFormats/Detectors/FIT/FT0</title>
<g id="clust1" class="cluster">
<title>clusterdir_6f689773863a160ed4e9bc61c1008ba5</title>
<g id="a_clust1"><a xlink:href="dir_6f689773863a160ed4e9bc61c1008ba5.html" target="_top" xlink:title="FIT">
<polygon fill="#ddddee" stroke="#000000" points="283,-344 283,-503 441,-503 441,-344 283,-344"/>
<text text-anchor="middle" x="362" y="-491" font-family="Helvetica,sans-Serif" font-size="10.00" fill="#000000">FIT</text>
</a>
</g>
</g>
<g id="clust2" class="cluster">
<title>clusterdir_c4f8a341900d529ea5f1c2b568ba3222</title>
<g id="a_clust2"><a xlink:href="dir_c4f8a341900d529ea5f1c2b568ba3222.html" target="_top">
<polygon fill="#eeeeff" stroke="#000000" points="291,-352 291,-476 433,-476 433,-352 291,-352"/>
</a>
</g>
</g>
<!-- dir_c4f8a341900d529ea5f1c2b568ba3222 -->
<g id="node1" class="node">
<title>dir_c4f8a341900d529ea5f1c2b568ba3222</title>
<text text-anchor="middle" x="398" y="-447.5" font-family="Helvetica,sans-Serif" font-size="10.00" fill="#000000">FT0</text>
</g>
<!-- dir_a6c44d6dafa1a8f18372aec58f930bca -->
<g id="node2" class="node">
<title>dir_a6c44d6dafa1a8f18372aec58f930bca</title>
<g id="a_node2"><a xlink:href="dir_a6c44d6dafa1a8f18372aec58f930bca.html" target="_top" xlink:title="include">
<polygon fill="#ffffff" stroke="#ff0000" points="389,-396 335,-396 335,-360 389,-360 389,-396"/>
<text text-anchor="middle" x="362" y="-375.5" font-family="Helvetica,sans-Serif" font-size="10.00" fill="#000000">include</text>
</a>
</g>
</g>
<!-- dir_4ab6b4cc6a7edbff49100e9123df213f -->
<g id="node4" class="node">
<title>dir_4ab6b4cc6a7edbff49100e9123df213f</title>
<g id="a_node4"><a xlink:href="dir_4ab6b4cc6a7edbff49100e9123df213f.html" target="_top" xlink:title="Common">
<polygon fill="none" stroke="#ff0000" points="203.5,-396 142.5,-396 142.5,-360 203.5,-360 203.5,-396"/>
<text text-anchor="middle" x="173" y="-375.5" font-family="Helvetica,sans-Serif" font-size="10.00" fill="#000000">Common</text>
</a>
</g>
</g>
<!-- dir_a6c44d6dafa1a8f18372aec58f930bca&#45;&gt;dir_4ab6b4cc6a7edbff49100e9123df213f -->
<g id="edge18" class="edge">
<title>dir_a6c44d6dafa1a8f18372aec58f930bca&#45;&gt;dir_4ab6b4cc6a7edbff49100e9123df213f</title>
<path fill="none" stroke="#000000" d="M334.7816,-378C294.4825,-378 254.1834,-378 213.8842,-378"/>
<polygon fill="#000000" stroke="#000000" points="213.6387,-374.5001 203.6387,-378 213.6386,-381.5001 213.6387,-374.5001"/>
<g id="a_edge18&#45;headlabel"><a xlink:href="dir_000125_000028.html" target="_top" xlink:title="1">
<text text-anchor="middle" x="217.2333" y="-369.1607" font-family="Helvetica,sans-Serif" font-size="10.00" fill="#000000">1</text>
</a>
</g>
</g>
<!-- dir_183e7c4434404fe9096e1bd8673e1fcf -->
<g id="node6" class="node">
<title>dir_183e7c4434404fe9096e1bd8673e1fcf</title>
<g id="a_node6"><a xlink:href="dir_183e7c4434404fe9096e1bd8673e1fcf.html" target="_top" xlink:title="Headers">
<polygon fill="none" stroke="#ff0000" points="338.5,-108 281.5,-108 281.5,-72 338.5,-72 338.5,-108"/>
<text text-anchor="middle" x="310" y="-87.5" font-family="Helvetica,sans-Serif" font-size="10.00" fill="#000000">Headers</text>
</a>
</g>
</g>
<!-- dir_a6c44d6dafa1a8f18372aec58f930bca&#45;&gt;dir_183e7c4434404fe9096e1bd8673e1fcf -->
<g id="edge19" class="edge">
<title>dir_a6c44d6dafa1a8f18372aec58f930bca&#45;&gt;dir_183e7c4434404fe9096e1bd8673e1fcf</title>
<path fill="none" stroke="#000000" d="M387.5052,-359.9627C398.4753,-350.6284 410.1145,-338.2089 416,-324 446.6147,-250.0896 457.8024,-212.2097 416,-144 401.3635,-120.1174 372.4841,-106.3838 348.5613,-98.7488"/>
<polygon fill="#000000" stroke="#000000" points="349.2494,-95.3029 338.6681,-95.8382 347.2737,-102.0183 349.2494,-95.3029"/>
<g id="a_edge19&#45;headlabel"><a xlink:href="dir_000125_000081.html" target="_top" xlink:title="1">
<text text-anchor="middle" x="353.4992" y="-91.0936" font-family="Helvetica,sans-Serif" font-size="10.00" fill="#000000">1</text>
</a>
</g>
</g>
<!-- dir_047746f9f311f49446db9474b7431d0d -->
<g id="node7" class="node">
<title>dir_047746f9f311f49446db9474b7431d0d</title>
<g id="a_node7"><a xlink:href="dir_047746f9f311f49446db9474b7431d0d.html" target="_top" xlink:title="simulation">
<polygon fill="none" stroke="#ff0000" points="225,-108 157,-108 157,-72 225,-72 225,-108"/>
<text text-anchor="middle" x="191" y="-87.5" font-family="Helvetica,sans-Serif" font-size="10.00" fill="#000000">simulation</text>
</a>
</g>
</g>
<!-- dir_a6c44d6dafa1a8f18372aec58f930bca&#45;&gt;dir_047746f9f311f49446db9474b7431d0d -->
<g id="edge20" class="edge">
<title>dir_a6c44d6dafa1a8f18372aec58f930bca&#45;&gt;dir_047746f9f311f49446db9474b7431d0d</title>
<path fill="none" stroke="#000000" d="M369.2439,-359.8366C372.9712,-349.513 377.1188,-336.2403 379,-324 386.4035,-275.8285 387.2802,-256.3869 360,-216 328.2341,-168.9724 272.9429,-132.686 234.2821,-111.3833"/>
<polygon fill="#000000" stroke="#000000" points="235.788,-108.2189 225.3252,-106.551 232.4642,-114.3795 235.788,-108.2189"/>
<g id="a_edge20&#45;headlabel"><a xlink:href="dir_000125_000246.html" target="_top" xlink:title="3">
<text text-anchor="middle" x="240.2996" y="-104.9268" font-family="Helvetica,sans-Serif" font-size="10.00" fill="#000000">3</text>
</a>
</g>
</g>
<!-- dir_74593c7a91e03746ae2a516888bf9494 -->
<g id="node8" class="node">
<title>dir_74593c7a91e03746ae2a516888bf9494</title>
<g id="a_node8"><a xlink:href="dir_74593c7a91e03746ae2a516888bf9494.html" target="_top" xlink:title="Common">
<polygon fill="none" stroke="#ff0000" points="203.5,-324 142.5,-324 142.5,-288 203.5,-288 203.5,-324"/>
<text text-anchor="middle" x="173" y="-303.5" font-family="Helvetica,sans-Serif" font-size="10.00" fill="#000000">Common</text>
</a>
</g>
</g>
<!-- dir_a6c44d6dafa1a8f18372aec58f930bca&#45;&gt;dir_74593c7a91e03746ae2a516888bf9494 -->
<g id="edge21" class="edge">
<title>dir_a6c44d6dafa1a8f18372aec58f930bca&#45;&gt;dir_74593c7a91e03746ae2a516888bf9494</title>
<path fill="none" stroke="#000000" d="M334.9209,-367.6842C303.0637,-355.5481 249.8765,-335.2863 213.2025,-321.3152"/>
<polygon fill="#000000" stroke="#000000" points="214.3842,-318.0201 203.7933,-317.7308 211.8922,-324.5615 214.3842,-318.0201"/>
<g id="a_edge21&#45;headlabel"><a xlink:href="dir_000125_000088.html" target="_top" xlink:title="1">
<text text-anchor="middle" x="218.7541" y="-314.1464" font-family="Helvetica,sans-Serif" font-size="10.00" fill="#000000">1</text>
</a>
</g>
</g>
<!-- dir_7924ba4398ae4560cd37376e44666c6d -->
<g id="node9" class="node">
<title>dir_7924ba4398ae4560cd37376e44666c6d</title>
<g id="a_node9"><a xlink:href="dir_7924ba4398ae4560cd37376e44666c6d.html" target="_top" xlink:title="common">
<polygon fill="none" stroke="#ff0000" points="282.5,-36 223.5,-36 223.5,0 282.5,0 282.5,-36"/>
<text text-anchor="middle" x="253" y="-15.5" font-family="Helvetica,sans-Serif" font-size="10.00" fill="#000000">common</text>
</a>
</g>
</g>
<!-- dir_a6c44d6dafa1a8f18372aec58f930bca&#45;&gt;dir_7924ba4398ae4560cd37376e44666c6d -->
<g id="edge22" class="edge">
<title>dir_a6c44d6dafa1a8f18372aec58f930bca&#45;&gt;dir_7924ba4398ae4560cd37376e44666c6d</title>
<path fill="none" stroke="#000000" d="M389.2989,-362.7898C404.5652,-353.2198 423.0652,-339.7198 436,-324 464.0468,-289.9145 478,-278.1412 478,-234 478,-234 478,-234 478,-162 478,-75.0556 357.3383,-38.2278 292.7378,-24.7411"/>
<polygon fill="#000000" stroke="#000000" points="293.37,-21.2983 282.8783,-22.7729 291.9996,-28.1629 293.37,-21.2983"/>
<g id="a_edge22&#45;headlabel"><a xlink:href="dir_000125_000078.html" target="_top" xlink:title="9">
<text text-anchor="middle" x="297.4508" y="-16.7176" font-family="Helvetica,sans-Serif" font-size="10.00" fill="#000000">9</text>
</a>
</g>
</g>
<!-- dir_bcbb2cf9a3d3d83e5515c82071a07177 -->
<g id="node10" class="node">
<title>dir_bcbb2cf9a3d3d83e5515c82071a07177</title>
<g id="a_node10"><a xlink:href="dir_bcbb2cf9a3d3d83e5515c82071a07177.html" target="_top" xlink:title="Framework">
<polygon fill="none" stroke="#ff0000" points="327.5,-252 256.5,-252 256.5,-216 327.5,-216 327.5,-252"/>
<text text-anchor="middle" x="292" y="-231.5" font-family="Helvetica,sans-Serif" font-size="10.00" fill="#000000">Framework</text>
</a>
</g>
</g>
<!-- dir_a6c44d6dafa1a8f18372aec58f930bca&#45;&gt;dir_bcbb2cf9a3d3d83e5515c82071a07177 -->
<g id="edge23" class="edge">
<title>dir_a6c44d6dafa1a8f18372aec58f930bca&#45;&gt;dir_bcbb2cf9a3d3d83e5515c82071a07177</title>
<path fill="none" stroke="#000000" d="M353.1345,-359.7623C341.0372,-334.8764 319.2622,-290.0822 305.2302,-261.2165"/>
<polygon fill="#000000" stroke="#000000" points="308.3133,-259.5531 300.7936,-252.0896 302.0178,-262.6135 308.3133,-259.5531"/>
<g id="a_edge23&#45;headlabel"><a xlink:href="dir_000125_000014.html" target="_top" xlink:title="1">
<text text-anchor="middle" x="312.4384" y="-259.0447" font-family="Helvetica,sans-Serif" font-size="10.00" fill="#000000">1</text>
</a>
</g>
</g>
<!-- dir_37a1a8f97d1457be251c095a70339024 -->
<g id="node3" class="node">
<title>dir_37a1a8f97d1457be251c095a70339024</title>
<g id="a_node3"><a xlink:href="dir_37a1a8f97d1457be251c095a70339024.html" target="_top" xlink:title="src">
<polygon fill="#ffffff" stroke="#000000" points="353,-468 299,-468 299,-432 353,-432 353,-468"/>
<text text-anchor="middle" x="326" y="-447.5" font-family="Helvetica,sans-Serif" font-size="10.00" fill="#000000">src</text>
</a>
</g>
</g>
<!-- dir_37a1a8f97d1457be251c095a70339024&#45;&gt;dir_a6c44d6dafa1a8f18372aec58f930bca -->
<g id="edge2" class="edge">
<title>dir_37a1a8f97d1457be251c095a70339024&#45;&gt;dir_a6c44d6dafa1a8f18372aec58f930bca</title>
<path fill="none" stroke="#000000" d="M335.0843,-431.8314C339.0615,-423.8771 343.8155,-414.369 348.2139,-405.5723"/>
<polygon fill="#000000" stroke="#000000" points="351.4517,-406.9228 352.7934,-396.4133 345.1907,-403.7923 351.4517,-406.9228"/>
<g id="a_edge2&#45;headlabel"><a xlink:href="dir_000156_000125.html" target="_top" xlink:title="9">
<text text-anchor="middle" x="352.3837" y="-408.9077" font-family="Helvetica,sans-Serif" font-size="10.00" fill="#000000">9</text>
</a>
</g>
</g>
<!-- dir_051dca18e802f8e9474f2e30d29c04e0 -->
<g id="node5" class="node">
<title>dir_051dca18e802f8e9474f2e30d29c04e0</title>
<g id="a_node5"><a xlink:href="dir_051dca18e802f8e9474f2e30d29c04e0.html" target="_top" xlink:title="Detectors">
<polygon fill="none" stroke="#ff0000" points="244,-180 180,-180 180,-144 244,-144 244,-180"/>
<text text-anchor="middle" x="212" y="-159.5" font-family="Helvetica,sans-Serif" font-size="10.00" fill="#000000">Detectors</text>
</a>
</g>
</g>
<!-- dir_37a1a8f97d1457be251c095a70339024&#45;&gt;dir_051dca18e802f8e9474f2e30d29c04e0 -->
<g id="edge1" class="edge">
<title>dir_37a1a8f97d1457be251c095a70339024&#45;&gt;dir_051dca18e802f8e9474f2e30d29c04e0</title>
<path fill="none" stroke="#000000" d="M298.7419,-446.1925C250.7649,-438.901 154.2853,-421.4021 133,-396 81.5048,-334.5452 101.3821,-283.275 145,-216 152.3832,-204.6123 162.9634,-194.5067 173.5419,-186.2073"/>
<polygon fill="#000000" stroke="#000000" points="175.649,-189.002 181.578,-180.2215 171.4675,-183.3882 175.649,-189.002"/>
<g id="a_edge1&#45;headlabel"><a xlink:href="dir_000156_000040.html" target="_top" xlink:title="1">
<text text-anchor="middle" x="174.4624" y="-190.9263" font-family="Helvetica,sans-Serif" font-size="10.00" fill="#000000">1</text>
</a>
</g>
</g>
<!-- dir_37a1a8f97d1457be251c095a70339024&#45;&gt;dir_7924ba4398ae4560cd37376e44666c6d -->
<g id="edge3" class="edge">
<title>dir_37a1a8f97d1457be251c095a70339024&#45;&gt;dir_7924ba4398ae4560cd37376e44666c6d</title>
<path fill="none" stroke="#000000" d="M353.2224,-436.2421C405.7591,-408.7826 516,-346.3547 516,-306 516,-306 516,-306 516,-162 516,-61.5282 366.5054,-30.7026 292.9351,-21.6158"/>
<polygon fill="#000000" stroke="#000000" points="292.9941,-18.0993 282.6582,-20.4271 292.1898,-25.053 292.9941,-18.0993"/>
<g id="a_edge3&#45;headlabel"><a xlink:href="dir_000156_000078.html" target="_top" xlink:title="2">
<text text-anchor="middle" x="296.8911" y="-13.1918" font-family="Helvetica,sans-Serif" font-size="10.00" fill="#000000">2</text>
</a>
</g>
</g>
<!-- dir_37a1a8f97d1457be251c095a70339024&#45;&gt;dir_bcbb2cf9a3d3d83e5515c82071a07177 -->
<g id="edge4" class="edge">
<title>dir_37a1a8f97d1457be251c095a70339024&#45;&gt;dir_bcbb2cf9a3d3d83e5515c82071a07177</title>
<path fill="none" stroke="#000000" d="M323.1597,-431.9555C317.2347,-394.3144 303.5201,-307.1867 296.427,-262.1246"/>
<polygon fill="#000000" stroke="#000000" points="299.8686,-261.4792 294.8562,-252.1451 292.9538,-262.5677 299.8686,-261.4792"/>
<g id="a_edge4&#45;headlabel"><a xlink:href="dir_000156_000014.html" target="_top" xlink:title="3">
<text text-anchor="middle" x="303.2322" y="-262.0886" font-family="Helvetica,sans-Serif" font-size="10.00" fill="#000000">3</text>
</a>
</g>
</g>
<!-- dir_4ab6b4cc6a7edbff49100e9123df213f&#45;&gt;dir_74593c7a91e03746ae2a516888bf9494 -->
<g id="edge5" class="edge">
<title>dir_4ab6b4cc6a7edbff49100e9123df213f&#45;&gt;dir_74593c7a91e03746ae2a516888bf9494</title>
<path fill="none" stroke="#000000" d="M167.0476,-359.8314C166.2972,-352.131 166.0763,-342.9743 166.3849,-334.4166"/>
<polygon fill="#000000" stroke="#000000" points="169.8792,-334.6161 167.024,-324.4133 162.8935,-334.1697 169.8792,-334.6161"/>
<g id="a_edge5&#45;headlabel"><a xlink:href="dir_000028_000088.html" target="_top" xlink:title="1">
<text text-anchor="middle" x="172.4836" y="-335.8844" font-family="Helvetica,sans-Serif" font-size="10.00" fill="#000000">1</text>
</a>
</g>
</g>
<!-- dir_4ab6b4cc6a7edbff49100e9123df213f&#45;&gt;dir_bcbb2cf9a3d3d83e5515c82071a07177 -->
<g id="edge6" class="edge">
<title>dir_4ab6b4cc6a7edbff49100e9123df213f&#45;&gt;dir_bcbb2cf9a3d3d83e5515c82071a07177</title>
<path fill="none" stroke="#000000" d="M183.3983,-359.7623C201.7857,-334.4436 239.5242,-288.5182 265.4266,-259.7251"/>
<polygon fill="#000000" stroke="#000000" points="268.2384,-261.8361 272.3927,-252.0896 263.0672,-257.1182 268.2384,-261.8361"/>
<g id="a_edge6&#45;headlabel"><a xlink:href="dir_000028_000014.html" target="_top" xlink:title="2">
<text text-anchor="middle" x="267.9133" y="-263.9052" font-family="Helvetica,sans-Serif" font-size="10.00" fill="#000000">2</text>
</a>
</g>
</g>
<!-- dir_051dca18e802f8e9474f2e30d29c04e0&#45;&gt;dir_a6c44d6dafa1a8f18372aec58f930bca -->
<g id="edge10" class="edge">
<title>dir_051dca18e802f8e9474f2e30d29c04e0&#45;&gt;dir_a6c44d6dafa1a8f18372aec58f930bca</title>
<path fill="none" stroke="#000000" d="M244.2738,-166.9858C273.2281,-173.2409 314.5182,-186.9163 337,-216 366.9683,-254.7685 367.9328,-314.674 365.3522,-349.7437"/>
<polygon fill="#000000" stroke="#000000" points="361.8593,-349.51 364.4657,-359.7792 368.8321,-350.126 361.8593,-349.51"/>
<g id="a_edge10&#45;headlabel"><a xlink:href="dir_000040_000125.html" target="_top" xlink:title="53">
<text text-anchor="middle" x="359.3472" y="-343.1795" font-family="Helvetica,sans-Serif" font-size="10.00" fill="#000000">53</text>
</a>
</g>
</g>
<!-- dir_051dca18e802f8e9474f2e30d29c04e0&#45;&gt;dir_4ab6b4cc6a7edbff49100e9123df213f -->
<g id="edge7" class="edge">
<title>dir_051dca18e802f8e9474f2e30d29c04e0&#45;&gt;dir_4ab6b4cc6a7edbff49100e9123df213f</title>
<path fill="none" stroke="#000000" d="M196.0292,-180.0098C176.7161,-203.1134 145.2732,-245.3208 133,-288 128.5781,-303.3768 127.9856,-308.8061 133,-324 136.2908,-333.9712 142.2116,-343.6056 148.5064,-351.9076"/>
<polygon fill="#000000" stroke="#000000" points="145.828,-354.1616 154.8424,-359.7286 151.2672,-349.7552 145.828,-354.1616"/>
<g id="a_edge7&#45;headlabel"><a xlink:href="dir_000040_000028.html" target="_top" xlink:title="276">
<text text-anchor="middle" x="141.3592" y="-350.6558" font-family="Helvetica,sans-Serif" font-size="10.00" fill="#000000">276</text>
</a>
</g>
</g>
<!-- dir_051dca18e802f8e9474f2e30d29c04e0&#45;&gt;dir_183e7c4434404fe9096e1bd8673e1fcf -->
<g id="edge8" class="edge">
<title>dir_051dca18e802f8e9474f2e30d29c04e0&#45;&gt;dir_183e7c4434404fe9096e1bd8673e1fcf</title>
<path fill="none" stroke="#000000" d="M236.7295,-143.8314C248.9162,-134.8779 263.7823,-123.9558 276.9312,-114.2955"/>
<polygon fill="#000000" stroke="#000000" points="279.2918,-116.9042 285.2784,-108.1628 275.1473,-111.263 279.2918,-116.9042"/>
<g id="a_edge8&#45;headlabel"><a xlink:href="dir_000040_000081.html" target="_top" xlink:title="88">
<text text-anchor="middle" x="278.0761" y="-118.8206" font-family="Helvetica,sans-Serif" font-size="10.00" fill="#000000">88</text>
</a>
</g>
</g>
<!-- dir_051dca18e802f8e9474f2e30d29c04e0&#45;&gt;dir_047746f9f311f49446db9474b7431d0d -->
<g id="edge9" class="edge">
<title>dir_051dca18e802f8e9474f2e30d29c04e0&#45;&gt;dir_047746f9f311f49446db9474b7431d0d</title>
<path fill="none" stroke="#000000" d="M200.7484,-143.8314C197.752,-136.131 194.8605,-126.9743 192.6731,-118.4166"/>
<polygon fill="#000000" stroke="#000000" points="196.0281,-117.3862 190.3945,-108.4133 189.2029,-118.9409 196.0281,-117.3862"/>
<g id="a_edge9&#45;headlabel"><a xlink:href="dir_000040_000246.html" target="_top" xlink:title="256">
<text text-anchor="middle" x="199.5947" y="-117.7605" font-family="Helvetica,sans-Serif" font-size="10.00" fill="#000000">256</text>
</a>
</g>
</g>
<!-- dir_051dca18e802f8e9474f2e30d29c04e0&#45;&gt;dir_74593c7a91e03746ae2a516888bf9494 -->
<g id="edge11" class="edge">
<title>dir_051dca18e802f8e9474f2e30d29c04e0&#45;&gt;dir_74593c7a91e03746ae2a516888bf9494</title>
<path fill="none" stroke="#000000" d="M207.1007,-180.0896C200.4407,-204.6805 188.4632,-248.905 180.6231,-277.8531"/>
<polygon fill="#000000" stroke="#000000" points="177.1753,-277.1951 177.9394,-287.7623 183.9319,-279.025 177.1753,-277.1951"/>
<g id="a_edge11&#45;headlabel"><a xlink:href="dir_000040_000088.html" target="_top" xlink:title="65">
<text text-anchor="middle" x="175.3744" y="-270.4832" font-family="Helvetica,sans-Serif" font-size="10.00" fill="#000000">65</text>
</a>
</g>
</g>
<!-- dir_051dca18e802f8e9474f2e30d29c04e0&#45;&gt;dir_7924ba4398ae4560cd37376e44666c6d -->
<g id="edge12" class="edge">
<title>dir_051dca18e802f8e9474f2e30d29c04e0&#45;&gt;dir_7924ba4398ae4560cd37376e44666c6d</title>
<path fill="none" stroke="#000000" d="M220.3656,-143.8016C224.8736,-133.467 230.2615,-120.195 234,-108 240.2311,-87.6744 245.1196,-64.1504 248.3768,-46.2509"/>
<polygon fill="#000000" stroke="#000000" points="251.8645,-46.6254 250.1477,-36.1706 244.9701,-45.4142 251.8645,-46.6254"/>
<g id="a_edge12&#45;headlabel"><a xlink:href="dir_000040_000078.html" target="_top" xlink:title="49">
<text text-anchor="middle" x="254.0391" y="-48.1571" font-family="Helvetica,sans-Serif" font-size="10.00" fill="#000000">49</text>
</a>
</g>
</g>
<!-- dir_051dca18e802f8e9474f2e30d29c04e0&#45;&gt;dir_bcbb2cf9a3d3d83e5515c82071a07177 -->
<g id="edge13" class="edge">
<title>dir_051dca18e802f8e9474f2e30d29c04e0&#45;&gt;dir_bcbb2cf9a3d3d83e5515c82071a07177</title>
<path fill="none" stroke="#000000" d="M238.1327,-180.1628C248.6438,-188.8596 260.5441,-199.4149 270.5435,-208.8672"/>
<polygon fill="#000000" stroke="#000000" points="268.1372,-211.409 277.765,-215.8314 272.9964,-206.3703 268.1372,-211.409"/>
<g id="a_edge13&#45;headlabel"><a xlink:href="dir_000040_000014.html" target="_top" xlink:title="809">
<text text-anchor="middle" x="263.5789" y="-208.4575" font-family="Helvetica,sans-Serif" font-size="10.00" fill="#000000">809</text>
</a>
</g>
</g>
<!-- dir_047746f9f311f49446db9474b7431d0d&#45;&gt;dir_4ab6b4cc6a7edbff49100e9123df213f -->
<g id="edge14" class="edge">
<title>dir_047746f9f311f49446db9474b7431d0d&#45;&gt;dir_4ab6b4cc6a7edbff49100e9123df213f</title>
<path fill="none" stroke="#000000" d="M180.3456,-108.0168C174.6058,-118.2945 167.7487,-131.5702 163,-144 139.4176,-205.7276 134.2877,-222.4429 126,-288 123.9933,-303.8737 120.3921,-309.015 126,-324 129.8954,-334.4089 136.8041,-344.1348 144.1456,-352.3848"/>
<polygon fill="#000000" stroke="#000000" points="141.7986,-354.9952 151.2328,-359.8165 146.8643,-350.1642 141.7986,-354.9952"/>
<g id="a_edge14&#45;headlabel"><a xlink:href="dir_000246_000028.html" target="_top" xlink:title="5">
<text text-anchor="middle" x="137.2631" y="-351.8533" font-family="Helvetica,sans-Serif" font-size="10.00" fill="#000000">5</text>
</a>
</g>
</g>
<!-- dir_047746f9f311f49446db9474b7431d0d&#45;&gt;dir_051dca18e802f8e9474f2e30d29c04e0 -->
<g id="edge15" class="edge">
<title>dir_047746f9f311f49446db9474b7431d0d&#45;&gt;dir_051dca18e802f8e9474f2e30d29c04e0</title>
<path fill="none" stroke="#000000" d="M202.3465,-108.4133C205.3406,-116.1442 208.2236,-125.3097 210.396,-133.8545"/>
<polygon fill="#000000" stroke="#000000" points="207.0328,-134.8502 212.6532,-143.8314 213.8602,-133.3055 207.0328,-134.8502"/>
<g id="a_edge15&#45;headlabel"><a xlink:href="dir_000246_000040.html" target="_top" xlink:title="1">
<text text-anchor="middle" x="203.4703" y="-129.4707" font-family="Helvetica,sans-Serif" font-size="10.00" fill="#000000">1</text>
</a>
</g>
</g>
<!-- dir_047746f9f311f49446db9474b7431d0d&#45;&gt;dir_74593c7a91e03746ae2a516888bf9494 -->
<g id="edge16" class="edge">
<title>dir_047746f9f311f49446db9474b7431d0d&#45;&gt;dir_74593c7a91e03746ae2a516888bf9494</title>
<path fill="none" stroke="#000000" d="M182.4849,-108.0406C178.1021,-118.3258 173.2224,-131.6009 171,-144 162.7075,-190.2658 166.0934,-245.1595 169.4446,-277.7027"/>
<polygon fill="#000000" stroke="#000000" points="165.9872,-278.2816 170.5629,-287.8374 172.9449,-277.5139 165.9872,-278.2816"/>
<g id="a_edge16&#45;headlabel"><a xlink:href="dir_000246_000088.html" target="_top" xlink:title="6">
<text text-anchor="middle" x="162.7709" y="-272.5201" font-family="Helvetica,sans-Serif" font-size="10.00" fill="#000000">6</text>
</a>
</g>
</g>
<!-- dir_047746f9f311f49446db9474b7431d0d&#45;&gt;dir_7924ba4398ae4560cd37376e44666c6d -->
<g id="edge17" class="edge">
<title>dir_047746f9f311f49446db9474b7431d0d&#45;&gt;dir_7924ba4398ae4560cd37376e44666c6d</title>
<path fill="none" stroke="#000000" d="M206.6452,-71.8314C213.8591,-63.454 222.557,-53.3531 230.4605,-44.1749"/>
<polygon fill="#000000" stroke="#000000" points="233.2711,-46.2748 237.1441,-36.4133 227.9667,-41.7071 233.2711,-46.2748"/>
<g id="a_edge17&#45;headlabel"><a xlink:href="dir_000246_000078.html" target="_top" xlink:title="2">
<text text-anchor="middle" x="233.077" y="-48.3514" font-family="Helvetica,sans-Serif" font-size="10.00" fill="#000000">2</text>
</a>
</g>
</g>
<!-- dir_74593c7a91e03746ae2a516888bf9494&#45;&gt;dir_4ab6b4cc6a7edbff49100e9123df213f -->
<g id="edge24" class="edge">
<title>dir_74593c7a91e03746ae2a516888bf9494&#45;&gt;dir_4ab6b4cc6a7edbff49100e9123df213f</title>
<path fill="none" stroke="#000000" d="M178.976,-324.4133C179.7071,-332.0593 179.9203,-341.1084 179.6155,-349.5726"/>
<polygon fill="#000000" stroke="#000000" points="176.1048,-349.6264 178.9524,-359.8314 183.0902,-350.078 176.1048,-349.6264"/>
<g id="a_edge24&#45;headlabel"><a xlink:href="dir_000088_000028.html" target="_top" xlink:title="5">
<text text-anchor="middle" x="173.5032" y="-343.3562" font-family="Helvetica,sans-Serif" font-size="10.00" fill="#000000">5</text>
</a>
</g>
</g>
<!-- dir_74593c7a91e03746ae2a516888bf9494&#45;&gt;dir_183e7c4434404fe9096e1bd8673e1fcf -->
<g id="edge25" class="edge">
<title>dir_74593c7a91e03746ae2a516888bf9494&#45;&gt;dir_183e7c4434404fe9096e1bd8673e1fcf</title>
<path fill="none" stroke="#000000" d="M184.6655,-287.6412C200.2488,-263.1134 228.7161,-218.295 253,-180 266.4108,-158.8516 281.5805,-134.8978 292.8972,-117.0221"/>
<polygon fill="#000000" stroke="#000000" points="296.0427,-118.5968 298.4341,-108.2754 290.1281,-114.8527 296.0427,-118.5968"/>
<g id="a_edge25&#45;headlabel"><a xlink:href="dir_000088_000081.html" target="_top" xlink:title="1">
<text text-anchor="middle" x="296.5191" y="-120.6526" font-family="Helvetica,sans-Serif" font-size="10.00" fill="#000000">1</text>
</a>
</g>
</g>
<!-- dir_74593c7a91e03746ae2a516888bf9494&#45;&gt;dir_bcbb2cf9a3d3d83e5515c82071a07177 -->
<g id="edge26" class="edge">
<title>dir_74593c7a91e03746ae2a516888bf9494&#45;&gt;dir_bcbb2cf9a3d3d83e5515c82071a07177</title>
<path fill="none" stroke="#000000" d="M203.0287,-287.8314C218.2496,-278.6221 236.9128,-267.3301 253.2083,-257.4706"/>
<polygon fill="#000000" stroke="#000000" points="255.2369,-260.3341 261.9809,-252.1628 251.6132,-254.345 255.2369,-260.3341"/>
<g id="a_edge26&#45;headlabel"><a xlink:href="dir_000088_000014.html" target="_top" xlink:title="2">
<text text-anchor="middle" x="253.6312" y="-262.1241" font-family="Helvetica,sans-Serif" font-size="10.00" fill="#000000">2</text>
</a>
</g>
</g>
<!-- dir_7924ba4398ae4560cd37376e44666c6d&#45;&gt;dir_4ab6b4cc6a7edbff49100e9123df213f -->
<g id="edge27" class="edge">
<title>dir_7924ba4398ae4560cd37376e44666c6d&#45;&gt;dir_4ab6b4cc6a7edbff49100e9123df213f</title>
<path fill="none" stroke="#000000" d="M223.4825,-20.9538C156.7439,-29.4254 0,-60.1621 0,-162 0,-234 0,-234 0,-234 0,-302.8348 81.9066,-345.119 133.0039,-364.8006"/>
<polygon fill="#000000" stroke="#000000" points="131.8765,-368.1155 142.4693,-368.3254 134.3194,-361.5556 131.8765,-368.1155"/>
<g id="a_edge27&#45;headlabel"><a xlink:href="dir_000078_000028.html" target="_top" xlink:title="2">
<text text-anchor="middle" x="127.5171" y="-367.0219" font-family="Helvetica,sans-Serif" font-size="10.00" fill="#000000">2</text>
</a>
</g>
</g>
<!-- dir_bcbb2cf9a3d3d83e5515c82071a07177&#45;&gt;dir_4ab6b4cc6a7edbff49100e9123df213f -->
<g id="edge28" class="edge">
<title>dir_bcbb2cf9a3d3d83e5515c82071a07177&#45;&gt;dir_4ab6b4cc6a7edbff49100e9123df213f</title>
<path fill="none" stroke="#000000" d="M281.7092,-252.0896C263.3975,-277.3276 225.6738,-323.2462 199.7253,-352.1061"/>
<polygon fill="#000000" stroke="#000000" points="196.8958,-350.0146 192.7446,-359.7623 202.0685,-354.7308 196.8958,-350.0146"/>
<g id="a_edge28&#45;headlabel"><a xlink:href="dir_000014_000028.html" target="_top" xlink:title="8">
<text text-anchor="middle" x="197.2195" y="-342.9454" font-family="Helvetica,sans-Serif" font-size="10.00" fill="#000000">8</text>
</a>
</g>
</g>
<!-- dir_bcbb2cf9a3d3d83e5515c82071a07177&#45;&gt;dir_051dca18e802f8e9474f2e30d29c04e0 -->
<g id="edge29" class="edge">
<title>dir_bcbb2cf9a3d3d83e5515c82071a07177&#45;&gt;dir_051dca18e802f8e9474f2e30d29c04e0</title>
<path fill="none" stroke="#000000" d="M265.8602,-215.8314C255.3486,-207.1337 243.4483,-196.5783 233.4498,-187.1265"/>
<polygon fill="#000000" stroke="#000000" points="235.8568,-184.5853 226.2291,-180.1628 230.9975,-189.624 235.8568,-184.5853"/>
<g id="a_edge29&#45;headlabel"><a xlink:href="dir_000014_000040.html" target="_top" xlink:title="4">
<text text-anchor="middle" x="240.4151" y="-182.5369" font-family="Helvetica,sans-Serif" font-size="10.00" fill="#000000">4</text>
</a>
</g>
</g>
<!-- dir_bcbb2cf9a3d3d83e5515c82071a07177&#45;&gt;dir_183e7c4434404fe9096e1bd8673e1fcf -->
<g id="edge30" class="edge">
<title>dir_bcbb2cf9a3d3d83e5515c82071a07177&#45;&gt;dir_183e7c4434404fe9096e1bd8673e1fcf</title>
<path fill="none" stroke="#000000" d="M294.2797,-215.7623C297.3499,-191.201 302.8441,-147.2474 306.4557,-118.3541"/>
<polygon fill="#000000" stroke="#000000" points="309.9713,-118.4465 307.7388,-108.0896 303.0254,-117.5782 309.9713,-118.4465"/>
<g id="a_edge30&#45;headlabel"><a xlink:href="dir_000014_000081.html" target="_top" xlink:title="73">
<text text-anchor="middle" x="312.3429" y="-119.8655" font-family="Helvetica,sans-Serif" font-size="10.00" fill="#000000">73</text>
</a>
</g>
</g>
</g>
</svg>
