<?xml version="1.0" encoding="UTF-8" standalone="no"?>
<!DOCTYPE svg PUBLIC "-//W3C//DTD SVG 1.1//EN"
 "http://www.w3.org/Graphics/SVG/1.1/DTD/svg11.dtd">
<!-- Generated by graphviz version 2.40.1 (20161225.0304)
 -->
<!-- Title: /home/travis/build/AliceO2Group/AliceO2/Detectors/TRD/base/test Pages: 1 -->
<svg width="133pt" height="295pt"
 viewBox="0.00 0.00 133.00 295.00" xmlns="http://www.w3.org/2000/svg" xmlns:xlink="http://www.w3.org/1999/xlink">
<g id="graph0" class="graph" transform="scale(1 1) rotate(0) translate(4 291)">
<title>/home/travis/build/AliceO2Group/AliceO2/Detectors/TRD/base/test</title>
<g id="clust1" class="cluster">
<title>clusterdir_09bf7f7c4011a5ccc426492db4dd0891</title>
<g id="a_clust1"><a xlink:href="dir_09bf7f7c4011a5ccc426492db4dd0891.html" target="_top" xlink:title="base">
<polygon fill="#ddddee" stroke="#000000" points="47,-208 47,-279 117,-279 117,-208 47,-208"/>
<text text-anchor="middle" x="82" y="-267" font-family="Helvetica,sans-Serif" font-size="10.00" fill="#000000">base</text>
</a>
</g>
</g>
<!-- dir_270940edd87adfa91065c2834457a9a9 -->
<g id="node1" class="node">
<title>dir_270940edd87adfa91065c2834457a9a9</title>
<g id="a_node1"><a xlink:href="dir_270940edd87adfa91065c2834457a9a9.html" target="_top" xlink:title="test">
<polygon fill="#eeeeff" stroke="#000000" points="109,-252 55,-252 55,-216 109,-216 109,-252"/>
<text text-anchor="middle" x="82" y="-231.5" font-family="Helvetica,sans-Serif" font-size="10.00" fill="#000000">test</text>
</a>
</g>
</g>
<!-- dir_8b3cc3395a6e7eccd58a8c5fa5ac689e -->
<g id="node2" class="node">
<title>dir_8b3cc3395a6e7eccd58a8c5fa5ac689e</title>
<g id="a_node2"><a xlink:href="dir_8b3cc3395a6e7eccd58a8c5fa5ac689e.html" target="_top" xlink:title="include">
<polygon fill="none" stroke="#ff0000" points="54,-180 0,-180 0,-144 54,-144 54,-180"/>
<text text-anchor="middle" x="27" y="-159.5" font-family="Helvetica,sans-Serif" font-size="10.00" fill="#000000">include</text>
</a>
</g>
</g>
<!-- dir_270940edd87adfa91065c2834457a9a9&#45;&gt;dir_8b3cc3395a6e7eccd58a8c5fa5ac689e -->
<g id="edge3" class="edge">
<title>dir_270940edd87adfa91065c2834457a9a9&#45;&gt;dir_8b3cc3395a6e7eccd58a8c5fa5ac689e</title>
<path fill="none" stroke="#000000" d="M68.1212,-215.8314C61.7864,-207.5386 54.1616,-197.557 47.2074,-188.4533"/>
<polygon fill="#000000" stroke="#000000" points="49.9175,-186.2353 41.0657,-180.4133 44.3548,-190.4847 49.9175,-186.2353"/>
<g id="a_edge3&#45;headlabel"><a xlink:href="dir_000628_000143.html" target="_top" xlink:title="3">
<text text-anchor="middle" x="54.3558" y="-184.8683" font-family="Helvetica,sans-Serif" font-size="10.00" fill="#000000">3</text>
</a>
</g>
</g>
<!-- dir_4ab6b4cc6a7edbff49100e9123df213f -->
<g id="node3" class="node">
<title>dir_4ab6b4cc6a7edbff49100e9123df213f</title>
<g id="a_node3"><a xlink:href="dir_4ab6b4cc6a7edbff49100e9123df213f.html" target="_top" xlink:title="Common">
<polygon fill="none" stroke="#ff0000" points="70.5,-36 9.5,-36 9.5,0 70.5,0 70.5,-36"/>
<text text-anchor="middle" x="40" y="-15.5" font-family="Helvetica,sans-Serif" font-size="10.00" fill="#000000">Common</text>
</a>
</g>
</g>
<!-- dir_270940edd87adfa91065c2834457a9a9&#45;&gt;dir_4ab6b4cc6a7edbff49100e9123df213f -->
<g id="edge4" class="edge">
<title>dir_270940edd87adfa91065c2834457a9a9&#45;&gt;dir_4ab6b4cc6a7edbff49100e9123df213f</title>
<path fill="none" stroke="#000000" d="M87.3837,-215.7407C95.4856,-184.914 107.9602,-121.1099 89,-72 84.8808,-61.3306 77.5664,-51.4665 69.8251,-43.1681"/>
<polygon fill="#000000" stroke="#000000" points="72.2181,-40.6113 62.675,-36.0091 67.2652,-45.558 72.2181,-40.6113"/>
<g id="a_edge4&#45;headlabel"><a xlink:href="dir_000628_000028.html" target="_top" xlink:title="1">
<text text-anchor="middle" x="76.7672" y="-38.6483" font-family="Helvetica,sans-Serif" font-size="10.00" fill="#000000">1</text>
</a>
</g>
</g>
<!-- dir_2171f7ec022c5423887b07c69b2f5b48 -->
<g id="node4" class="node">
<title>dir_2171f7ec022c5423887b07c69b2f5b48</title>
<g id="a_node4"><a xlink:href="dir_2171f7ec022c5423887b07c69b2f5b48.html" target="_top" xlink:title="DataFormats">
<polygon fill="none" stroke="#ff0000" points="80,-108 0,-108 0,-72 80,-72 80,-108"/>
<text text-anchor="middle" x="40" y="-87.5" font-family="Helvetica,sans-Serif" font-size="10.00" fill="#000000">DataFormats</text>
</a>
</g>
</g>
<!-- dir_270940edd87adfa91065c2834457a9a9&#45;&gt;dir_2171f7ec022c5423887b07c69b2f5b48 -->
<g id="edge5" class="edge">
<title>dir_270940edd87adfa91065c2834457a9a9&#45;&gt;dir_2171f7ec022c5423887b07c69b2f5b48</title>
<path fill="none" stroke="#000000" d="M79.2289,-215.8041C76.183,-197.433 70.6815,-168.369 63,-144 60.2257,-135.1986 56.5359,-125.8665 52.9255,-117.4806"/>
<polygon fill="#000000" stroke="#000000" points="56.0428,-115.8765 48.7834,-108.1595 49.6459,-118.7191 56.0428,-115.8765"/>
<g id="a_edge5&#45;headlabel"><a xlink:href="dir_000628_000077.html" target="_top" xlink:title="2">
<text text-anchor="middle" x="60.0971" y="-115.5084" font-family="Helvetica,sans-Serif" font-size="10.00" fill="#000000">2</text>
</a>
</g>
</g>
<!-- dir_8b3cc3395a6e7eccd58a8c5fa5ac689e&#45;&gt;dir_2171f7ec022c5423887b07c69b2f5b48 -->
<g id="edge1" class="edge">
<title>dir_8b3cc3395a6e7eccd58a8c5fa5ac689e&#45;&gt;dir_2171f7ec022c5423887b07c69b2f5b48</title>
<path fill="none" stroke="#000000" d="M24.3281,-143.8314C24.975,-136.0463 26.4319,-126.7729 28.3154,-118.1347"/>
<polygon fill="#000000" stroke="#000000" points="31.7169,-118.9591 30.6994,-108.4133 24.9183,-117.2919 31.7169,-118.9591"/>
<g id="a_edge1&#45;headlabel"><a xlink:href="dir_000143_000077.html" target="_top" xlink:title="5">
<text text-anchor="middle" x="33.6184" y="-120.6265" font-family="Helvetica,sans-Serif" font-size="10.00" fill="#000000">5</text>
</a>
</g>
</g>
<!-- dir_4ab6b4cc6a7edbff49100e9123df213f&#45;&gt;dir_2171f7ec022c5423887b07c69b2f5b48 -->
<g id="edge2" class="edge">
<title>dir_4ab6b4cc6a7edbff49100e9123df213f&#45;&gt;dir_2171f7ec022c5423887b07c69b2f5b48</title>
<path fill="none" stroke="#000000" d="M45.976,-36.4133C46.7071,-44.0593 46.9203,-53.1084 46.6155,-61.5726"/>
<polygon fill="#000000" stroke="#000000" points="43.1048,-61.6264 45.9524,-71.8314 50.0902,-62.078 43.1048,-61.6264"/>
<g id="a_edge2&#45;headlabel"><a xlink:href="dir_000028_000077.html" target="_top" xlink:title="2">
<text text-anchor="middle" x="40.5032" y="-55.3562" font-family="Helvetica,sans-Serif" font-size="10.00" fill="#000000">2</text>
</a>
</g>
</g>
<!-- dir_2171f7ec022c5423887b07c69b2f5b48&#45;&gt;dir_8b3cc3395a6e7eccd58a8c5fa5ac689e -->
<g id="edge6" class="edge">
<title>dir_2171f7ec022c5423887b07c69b2f5b48&#45;&gt;dir_8b3cc3395a6e7eccd58a8c5fa5ac689e</title>
<path fill="none" stroke="#000000" d="M42.6514,-108.4133C41.9948,-116.1442 40.5496,-125.3097 38.687,-133.8545"/>
<polygon fill="#000000" stroke="#000000" points="35.2228,-133.2848 36.2328,-143.8314 42.0202,-134.9569 35.2228,-133.2848"/>
<g id="a_edge6&#45;headlabel"><a xlink:href="dir_000077_000143.html" target="_top" xlink:title="1">
<text text-anchor="middle" x="33.3243" y="-126.6161" font-family="Helvetica,sans-Serif" font-size="10.00" fill="#000000">1</text>
</a>
</g>
</g>
<!-- dir_2171f7ec022c5423887b07c69b2f5b48&#45;&gt;dir_4ab6b4cc6a7edbff49100e9123df213f -->
<g id="edge7" class="edge">
<title>dir_2171f7ec022c5423887b07c69b2f5b48&#45;&gt;dir_4ab6b4cc6a7edbff49100e9123df213f</title>
<path fill="none" stroke="#000000" d="M34.0476,-71.8314C33.2972,-64.131 33.0763,-54.9743 33.3849,-46.4166"/>
<polygon fill="#000000" stroke="#000000" points="36.8792,-46.6161 34.024,-36.4133 29.8935,-46.1697 36.8792,-46.6161"/>
<g id="a_edge7&#45;headlabel"><a xlink:href="dir_000077_000028.html" target="_top" xlink:title="35">
<text text-anchor="middle" x="39.4836" y="-47.8844" font-family="Helvetica,sans-Serif" font-size="10.00" fill="#000000">35</text>
</a>
</g>
</g>
</g>
</svg>
