<?xml version="1.0" encoding="UTF-8" standalone="no"?>
<!DOCTYPE svg PUBLIC "-//W3C//DTD SVG 1.1//EN"
 "http://www.w3.org/Graphics/SVG/1.1/DTD/svg11.dtd">
<!-- Generated by graphviz version 2.40.1 (20161225.0304)
 -->
<!-- Title: /home/travis/build/AliceO2Group/AliceO2/Detectors/CTF/workflow/src Pages: 1 -->
<!--zoomable 511 -->
<svg id="main" version="1.1" xmlns="http://www.w3.org/2000/svg" xmlns:xlink="http://www.w3.org/1999/xlink" xml:space="preserve" onload="init(evt)">
<style type="text/css"><![CDATA[
.edge:hover path { stroke: red; }
.edge:hover polygon { stroke: red; fill: red; }
]]></style>
<script type="text/javascript"><![CDATA[
var edges = document.getElementsByTagName('g');
if (edges && edges.length) {
  for (var i=0;i<edges.length;i++) {
    if (edges[i].id.substr(0,4)=='edge') {
      edges[i].setAttribute('class','edge');
    }
  }
}
]]></script>
        <defs>
                <circle id="rim" cx="0" cy="0" r="7"/>
                <circle id="rim2" cx="0" cy="0" r="3.5"/>
                <g id="zoomPlus">
                        <use xlink:href="#rim" fill="#404040">
                                <set attributeName="fill" to="#808080" begin="zoomplus.mouseover" end="zoomplus.mouseout"/>
                        </use>
                        <path d="M-4,0h8M0,-4v8" fill="none" stroke="white" stroke-width="1.5" pointer-events="none"/>
                </g>
                <g id="zoomMin">
                        <use xlink:href="#rim" fill="#404040">
                                <set attributeName="fill" to="#808080" begin="zoomminus.mouseover" end="zoomminus.mouseout"/>
                        </use>
                        <path d="M-4,0h8" fill="none" stroke="white" stroke-width="1.5" pointer-events="none"/>
                </g>
                <g id="dirArrow">
                        <path fill="none" stroke="white" stroke-width="1.5" d="M0,-3.0v7 M-2.5,-0.5L0,-3.0L2.5,-0.5"/>
                </g>
               <g id="resetDef">
                       <use xlink:href="#rim2" fill="#404040">
                               <set attributeName="fill" to="#808080" begin="reset.mouseover" end="reset.mouseout"/>
                       </use>
               </g>
        </defs>

<script type="text/javascript">
var viewWidth = 530;
var viewHeight = 511;
var sectionId = 'dynsection-0';
</script>
<script xlink:href="svgpan.js"/>
<svg id="graph" class="graph">
<g id="viewport">
<title>/home/travis/build/AliceO2Group/AliceO2/Detectors/CTF/workflow/src</title>
<g id="clust1" class="cluster">
<title>clusterdir_60bab4a80e8540917b3a9a0f6e3beabd</title>
<g id="a_clust1"><a xlink:href="dir_60bab4a80e8540917b3a9a0f6e3beabd.html" target="_top" xlink:title="workflow">
<polygon fill="#ddddee" stroke="#000000" points="274,-424 274,-495 344,-495 344,-424 274,-424"/>
<text text-anchor="middle" x="309" y="-483" font-family="Helvetica,sans-Serif" font-size="10.00" fill="#000000">workflow</text>
</a>
</g>
</g>
<!-- dir_0975f3a41b875e2b4566cea931b99e77 -->
<g id="node1" class="node">
<title>dir_0975f3a41b875e2b4566cea931b99e77</title>
<g id="a_node1"><a xlink:href="dir_0975f3a41b875e2b4566cea931b99e77.html" target="_top" xlink:title="src">
<polygon fill="#eeeeff" stroke="#000000" points="336,-468 282,-468 282,-432 336,-432 336,-468"/>
<text text-anchor="middle" x="309" y="-447.5" font-family="Helvetica,sans-Serif" font-size="10.00" fill="#000000">src</text>
</a>
</g>
</g>
<!-- dir_f880e19344c61eaaaff98e6bc913348a -->
<g id="node2" class="node">
<title>dir_f880e19344c61eaaaff98e6bc913348a</title>
<g id="a_node2"><a xlink:href="dir_f880e19344c61eaaaff98e6bc913348a.html" target="_top" xlink:title="include">
<polygon fill="none" stroke="#ff0000" points="364,-396 310,-396 310,-360 364,-360 364,-396"/>
<text text-anchor="middle" x="337" y="-375.5" font-family="Helvetica,sans-Serif" font-size="10.00" fill="#000000">include</text>
</a>
</g>
</g>
<!-- dir_0975f3a41b875e2b4566cea931b99e77&#45;&gt;dir_f880e19344c61eaaaff98e6bc913348a -->
<g id="edge5" class="edge">
<title>dir_0975f3a41b875e2b4566cea931b99e77&#45;&gt;dir_f880e19344c61eaaaff98e6bc913348a</title>
<path fill="none" stroke="#000000" d="M316.0656,-431.8314C319.126,-423.9617 322.7779,-414.5712 326.1682,-405.8533"/>
<polygon fill="#000000" stroke="#000000" points="329.4768,-407.0019 329.8393,-396.4133 322.9527,-404.4647 329.4768,-407.0019"/>
<g id="a_edge5&#45;headlabel"><a xlink:href="dir_000419_000417.html" target="_top" xlink:title="4">
<text text-anchor="middle" x="330.8202" y="-408.8812" font-family="Helvetica,sans-Serif" font-size="10.00" fill="#000000">4</text>
</a>
</g>
</g>
<!-- dir_4ab6b4cc6a7edbff49100e9123df213f -->
<g id="node3" class="node">
<title>dir_4ab6b4cc6a7edbff49100e9123df213f</title>
<g id="a_node3"><a xlink:href="dir_4ab6b4cc6a7edbff49100e9123df213f.html" target="_top" xlink:title="Common">
<polygon fill="none" stroke="#ff0000" points="171.5,-180 110.5,-180 110.5,-144 171.5,-144 171.5,-180"/>
<text text-anchor="middle" x="141" y="-159.5" font-family="Helvetica,sans-Serif" font-size="10.00" fill="#000000">Common</text>
</a>
</g>
</g>
<!-- dir_0975f3a41b875e2b4566cea931b99e77&#45;&gt;dir_4ab6b4cc6a7edbff49100e9123df213f -->
<g id="edge6" class="edge">
<title>dir_0975f3a41b875e2b4566cea931b99e77&#45;&gt;dir_4ab6b4cc6a7edbff49100e9123df213f</title>
<path fill="none" stroke="#000000" d="M281.8899,-432.607C250.5828,-411.0297 199.9436,-371.2543 173,-324 148.9108,-281.7518 142.6957,-224.359 141.2438,-190.4449"/>
<polygon fill="#000000" stroke="#000000" points="144.7377,-190.1921 140.9232,-180.3077 137.7412,-190.4134 144.7377,-190.1921"/>
<g id="a_edge6&#45;headlabel"><a xlink:href="dir_000419_000028.html" target="_top" xlink:title="2">
<text text-anchor="middle" x="147.6891" y="-191.1952" font-family="Helvetica,sans-Serif" font-size="10.00" fill="#000000">2</text>
</a>
</g>
</g>
<!-- dir_d14e88a79bca429480864605ee348cef -->
<g id="node4" class="node">
<title>dir_d14e88a79bca429480864605ee348cef</title>
<g id="a_node4"><a xlink:href="dir_d14e88a79bca429480864605ee348cef.html" target="_top" xlink:title="FIT">
<polygon fill="none" stroke="#ff0000" points="295,-36 241,-36 241,0 295,0 295,-36"/>
<text text-anchor="middle" x="268" y="-15.5" font-family="Helvetica,sans-Serif" font-size="10.00" fill="#000000">FIT</text>
</a>
</g>
</g>
<!-- dir_0975f3a41b875e2b4566cea931b99e77&#45;&gt;dir_d14e88a79bca429480864605ee348cef -->
<g id="edge7" class="edge">
<title>dir_0975f3a41b875e2b4566cea931b99e77&#45;&gt;dir_d14e88a79bca429480864605ee348cef</title>
<path fill="none" stroke="#000000" d="M336.3438,-441.6644C385.5625,-424.7716 484,-381.5432 484,-306 484,-306 484,-306 484,-162 484,-77.0416 366.882,-39.1229 305.126,-25.0341"/>
<polygon fill="#000000" stroke="#000000" points="305.8733,-21.6149 295.3565,-22.8986 304.3785,-28.4534 305.8733,-21.6149"/>
<g id="a_edge7&#45;headlabel"><a xlink:href="dir_000419_000163.html" target="_top" xlink:title="1">
<text text-anchor="middle" x="309.9913" y="-17.1086" font-family="Helvetica,sans-Serif" font-size="10.00" fill="#000000">1</text>
</a>
</g>
</g>
<!-- dir_a597e8e061b11201a1dff411feb10d0b -->
<g id="node5" class="node">
<title>dir_a597e8e061b11201a1dff411feb10d0b</title>
<g id="a_node5"><a xlink:href="dir_a597e8e061b11201a1dff411feb10d0b.html" target="_top" xlink:title="TPC">
<polygon fill="none" stroke="#ff0000" points="326,-252 272,-252 272,-216 326,-216 326,-252"/>
<text text-anchor="middle" x="299" y="-231.5" font-family="Helvetica,sans-Serif" font-size="10.00" fill="#000000">TPC</text>
</a>
</g>
</g>
<!-- dir_0975f3a41b875e2b4566cea931b99e77&#45;&gt;dir_a597e8e061b11201a1dff411feb10d0b -->
<g id="edge8" class="edge">
<title>dir_0975f3a41b875e2b4566cea931b99e77&#45;&gt;dir_a597e8e061b11201a1dff411feb10d0b</title>
<path fill="none" stroke="#000000" d="M305.6419,-431.576C303.9037,-421.1709 301.9509,-407.9035 301,-396 297.2573,-349.1462 297.5486,-294.4322 298.2022,-262.0847"/>
<polygon fill="#000000" stroke="#000000" points="301.7028,-262.0932 298.4324,-252.0158 294.7046,-261.9331 301.7028,-262.0932"/>
<g id="a_edge8&#45;headlabel"><a xlink:href="dir_000419_000050.html" target="_top" xlink:title="1">
<text text-anchor="middle" x="304.4593" y="-263.2517" font-family="Helvetica,sans-Serif" font-size="10.00" fill="#000000">1</text>
</a>
</g>
</g>
<!-- dir_1306292b77b40360479b729ac9ee7efe -->
<g id="node6" class="node">
<title>dir_1306292b77b40360479b729ac9ee7efe</title>
<g id="a_node6"><a xlink:href="dir_1306292b77b40360479b729ac9ee7efe.html" target="_top" xlink:title="ITSMFT">
<polygon fill="none" stroke="#ff0000" points="125,-36 71,-36 71,0 125,0 125,-36"/>
<text text-anchor="middle" x="98" y="-15.5" font-family="Helvetica,sans-Serif" font-size="10.00" fill="#000000">ITSMFT</text>
</a>
</g>
</g>
<!-- dir_0975f3a41b875e2b4566cea931b99e77&#45;&gt;dir_1306292b77b40360479b729ac9ee7efe -->
<g id="edge9" class="edge">
<title>dir_0975f3a41b875e2b4566cea931b99e77&#45;&gt;dir_1306292b77b40360479b729ac9ee7efe</title>
<path fill="none" stroke="#000000" d="M281.8491,-443.5423C206.4474,-424.8247 0,-367.9224 0,-306 0,-306 0,-306 0,-162 0,-113.6274 38.2626,-69.4833 66.9712,-43.1696"/>
<polygon fill="#000000" stroke="#000000" points="69.6269,-45.4918 74.7754,-36.2319 64.9761,-40.2601 69.6269,-45.4918"/>
<g id="a_edge9&#45;headlabel"><a xlink:href="dir_000419_000044.html" target="_top" xlink:title="1">
<text text-anchor="middle" x="68.8268" y="-47.502" font-family="Helvetica,sans-Serif" font-size="10.00" fill="#000000">1</text>
</a>
</g>
</g>
<!-- dir_8ba487e25de5ee77e05e9dce7582cb98 -->
<g id="node7" class="node">
<title>dir_8ba487e25de5ee77e05e9dce7582cb98</title>
<g id="a_node7"><a xlink:href="dir_8ba487e25de5ee77e05e9dce7582cb98.html" target="_top" xlink:title="Algorithm">
<polygon fill="none" stroke="#ff0000" points="440.5,-36 375.5,-36 375.5,0 440.5,0 440.5,-36"/>
<text text-anchor="middle" x="408" y="-15.5" font-family="Helvetica,sans-Serif" font-size="10.00" fill="#000000">Algorithm</text>
</a>
</g>
</g>
<!-- dir_0975f3a41b875e2b4566cea931b99e77&#45;&gt;dir_8ba487e25de5ee77e05e9dce7582cb98 -->
<g id="edge10" class="edge">
<title>dir_0975f3a41b875e2b4566cea931b99e77&#45;&gt;dir_8ba487e25de5ee77e05e9dce7582cb98</title>
<path fill="none" stroke="#000000" d="M336.41,-444.8794C393.9379,-432.38 522,-394.6044 522,-306 522,-306 522,-306 522,-162 522,-111.147 477.7553,-67.7674 444.3936,-42.2861"/>
<polygon fill="#000000" stroke="#000000" points="446.2982,-39.3413 436.1798,-36.1998 442.1307,-44.9655 446.2982,-39.3413"/>
<g id="a_edge10&#45;headlabel"><a xlink:href="dir_000419_000000.html" target="_top" xlink:title="1">
<text text-anchor="middle" x="450.8767" y="-36.7001" font-family="Helvetica,sans-Serif" font-size="10.00" fill="#000000">1</text>
</a>
</g>
</g>
<!-- dir_bcbb2cf9a3d3d83e5515c82071a07177 -->
<g id="node8" class="node">
<title>dir_bcbb2cf9a3d3d83e5515c82071a07177</title>
<g id="a_node8"><a xlink:href="dir_bcbb2cf9a3d3d83e5515c82071a07177.html" target="_top" xlink:title="Framework">
<polygon fill="none" stroke="#ff0000" points="253.5,-324 182.5,-324 182.5,-288 253.5,-288 253.5,-324"/>
<text text-anchor="middle" x="218" y="-303.5" font-family="Helvetica,sans-Serif" font-size="10.00" fill="#000000">Framework</text>
</a>
</g>
</g>
<!-- dir_0975f3a41b875e2b4566cea931b99e77&#45;&gt;dir_bcbb2cf9a3d3d83e5515c82071a07177 -->
<g id="edge11" class="edge">
<title>dir_0975f3a41b875e2b4566cea931b99e77&#45;&gt;dir_bcbb2cf9a3d3d83e5515c82071a07177</title>
<path fill="none" stroke="#000000" d="M294.2908,-431.9758C286.1651,-421.6957 276.1063,-408.4202 268,-396 254.606,-375.4782 241.2176,-351.1238 231.6703,-332.9281"/>
<polygon fill="#000000" stroke="#000000" points="234.763,-331.2889 227.0482,-324.0271 228.5506,-334.5149 234.763,-331.2889"/>
<g id="a_edge11&#45;headlabel"><a xlink:href="dir_000419_000014.html" target="_top" xlink:title="18">
<text text-anchor="middle" x="238.9393" y="-330.6706" font-family="Helvetica,sans-Serif" font-size="10.00" fill="#000000">18</text>
</a>
</g>
</g>
<!-- dir_2171f7ec022c5423887b07c69b2f5b48 -->
<g id="node9" class="node">
<title>dir_2171f7ec022c5423887b07c69b2f5b48</title>
<g id="a_node9"><a xlink:href="dir_2171f7ec022c5423887b07c69b2f5b48.html" target="_top" xlink:title="DataFormats">
<polygon fill="none" stroke="#ff0000" points="308,-108 228,-108 228,-72 308,-72 308,-108"/>
<text text-anchor="middle" x="268" y="-87.5" font-family="Helvetica,sans-Serif" font-size="10.00" fill="#000000">DataFormats</text>
</a>
</g>
</g>
<!-- dir_0975f3a41b875e2b4566cea931b99e77&#45;&gt;dir_2171f7ec022c5423887b07c69b2f5b48 -->
<g id="edge12" class="edge">
<title>dir_0975f3a41b875e2b4566cea931b99e77&#45;&gt;dir_2171f7ec022c5423887b07c69b2f5b48</title>
<path fill="none" stroke="#000000" d="M336.1093,-434.9972C349.9042,-425.7409 365.3425,-412.4801 373,-396 379.7421,-381.4899 374.1575,-375.9581 373,-360 365.906,-262.1957 381.7289,-226.0317 328,-144 320.9213,-133.1925 311.1602,-123.1662 301.5665,-114.7598"/>
<polygon fill="#000000" stroke="#000000" points="303.524,-111.834 293.6097,-108.098 299.0303,-117.2012 303.524,-111.834"/>
<g id="a_edge12&#45;headlabel"><a xlink:href="dir_000419_000077.html" target="_top" xlink:title="18">
<text text-anchor="middle" x="308.1028" y="-109.4646" font-family="Helvetica,sans-Serif" font-size="10.00" fill="#000000">18</text>
</a>
</g>
</g>
<!-- dir_f880e19344c61eaaaff98e6bc913348a&#45;&gt;dir_bcbb2cf9a3d3d83e5515c82071a07177 -->
<g id="edge1" class="edge">
<title>dir_f880e19344c61eaaaff98e6bc913348a&#45;&gt;dir_bcbb2cf9a3d3d83e5515c82071a07177</title>
<path fill="none" stroke="#000000" d="M309.9971,-361.6621C294.2304,-352.1226 274.0721,-339.926 256.6459,-329.3824"/>
<polygon fill="#000000" stroke="#000000" points="258.1877,-326.2245 247.82,-324.0423 254.564,-332.2136 258.1877,-326.2245"/>
<g id="a_edge1&#45;headlabel"><a xlink:href="dir_000417_000014.html" target="_top" xlink:title="4">
<text text-anchor="middle" x="262.7329" y="-323.156" font-family="Helvetica,sans-Serif" font-size="10.00" fill="#000000">4</text>
</a>
</g>
</g>
<!-- dir_f880e19344c61eaaaff98e6bc913348a&#45;&gt;dir_2171f7ec022c5423887b07c69b2f5b48 -->
<g id="edge2" class="edge">
<title>dir_f880e19344c61eaaaff98e6bc913348a&#45;&gt;dir_2171f7ec022c5423887b07c69b2f5b48</title>
<path fill="none" stroke="#000000" d="M339.4627,-359.6753C342.9544,-329.2851 347.6146,-266.7729 335,-216 325.7956,-178.9529 303.4005,-140.8579 287.027,-116.3965"/>
<polygon fill="#000000" stroke="#000000" points="289.8375,-114.3059 281.3027,-108.0284 284.06,-118.2582 289.8375,-114.3059"/>
<g id="a_edge2&#45;headlabel"><a xlink:href="dir_000417_000077.html" target="_top" xlink:title="2">
<text text-anchor="middle" x="294.2104" y="-113.1697" font-family="Helvetica,sans-Serif" font-size="10.00" fill="#000000">2</text>
</a>
</g>
</g>
<!-- dir_4ab6b4cc6a7edbff49100e9123df213f&#45;&gt;dir_bcbb2cf9a3d3d83e5515c82071a07177 -->
<g id="edge3" class="edge">
<title>dir_4ab6b4cc6a7edbff49100e9123df213f&#45;&gt;dir_bcbb2cf9a3d3d83e5515c82071a07177</title>
<path fill="none" stroke="#000000" d="M152.4042,-180.0154C159.989,-198.7536 169.6606,-228.5708 183,-252 188.4748,-261.6159 195.657,-271.2564 202.2157,-279.6756"/>
<polygon fill="#000000" stroke="#000000" points="199.5474,-281.9446 208.4802,-287.6415 205.0497,-277.6174 199.5474,-281.9446"/>
<g id="a_edge3&#45;headlabel"><a xlink:href="dir_000028_000014.html" target="_top" xlink:title="2">
<text text-anchor="middle" x="195.0935" y="-278.3742" font-family="Helvetica,sans-Serif" font-size="10.00" fill="#000000">2</text>
</a>
</g>
</g>
<!-- dir_4ab6b4cc6a7edbff49100e9123df213f&#45;&gt;dir_2171f7ec022c5423887b07c69b2f5b48 -->
<g id="edge4" class="edge">
<title>dir_4ab6b4cc6a7edbff49100e9123df213f&#45;&gt;dir_2171f7ec022c5423887b07c69b2f5b48</title>
<path fill="none" stroke="#000000" d="M167.0951,-143.8314C182.5838,-134.5368 202.5861,-123.1208 220.7275,-113.1971"/>
<polygon fill="#000000" stroke="#000000" points="222.8888,-116.0067 230.011,-108.1628 219.5518,-109.8532 222.8888,-116.0067"/>
<g id="a_edge4&#45;headlabel"><a xlink:href="dir_000028_000077.html" target="_top" xlink:title="2">
<text text-anchor="middle" x="221.0824" y="-117.7161" font-family="Helvetica,sans-Serif" font-size="10.00" fill="#000000">2</text>
</a>
</g>
</g>
<!-- dir_d14e88a79bca429480864605ee348cef&#45;&gt;dir_4ab6b4cc6a7edbff49100e9123df213f -->
<g id="edge13" class="edge">
<title>dir_d14e88a79bca429480864605ee348cef&#45;&gt;dir_4ab6b4cc6a7edbff49100e9123df213f</title>
<path fill="none" stroke="#000000" d="M240.9842,-31.0446C223.5717,-40.5075 201.3911,-54.6642 186,-72 169.8767,-90.1605 157.9946,-115.1369 150.502,-134.1716"/>
<polygon fill="#000000" stroke="#000000" points="147.1309,-133.1926 146.8884,-143.7847 153.6833,-135.6557 147.1309,-133.1926"/>
<g id="a_edge13&#45;headlabel"><a xlink:href="dir_000163_000028.html" target="_top" xlink:title="22">
<text text-anchor="middle" x="145.738" y="-126.3289" font-family="Helvetica,sans-Serif" font-size="10.00" fill="#000000">22</text>
</a>
</g>
</g>
<!-- dir_d14e88a79bca429480864605ee348cef&#45;&gt;dir_bcbb2cf9a3d3d83e5515c82071a07177 -->
<g id="edge14" class="edge">
<title>dir_d14e88a79bca429480864605ee348cef&#45;&gt;dir_bcbb2cf9a3d3d83e5515c82071a07177</title>
<path fill="none" stroke="#000000" d="M245.3509,-36.0192C235.2433,-45.5152 224.4099,-58.076 219,-72 191.8264,-141.9389 203.3415,-232.7593 211.8647,-277.9276"/>
<polygon fill="#000000" stroke="#000000" points="208.4589,-278.7471 213.8354,-287.8763 215.3255,-277.3868 208.4589,-278.7471"/>
<g id="a_edge14&#45;headlabel"><a xlink:href="dir_000163_000014.html" target="_top" xlink:title="72">
<text text-anchor="middle" x="204.9754" y="-273.2726" font-family="Helvetica,sans-Serif" font-size="10.00" fill="#000000">72</text>
</a>
</g>
</g>
<!-- dir_d14e88a79bca429480864605ee348cef&#45;&gt;dir_2171f7ec022c5423887b07c69b2f5b48 -->
<g id="edge15" class="edge">
<title>dir_d14e88a79bca429480864605ee348cef&#45;&gt;dir_2171f7ec022c5423887b07c69b2f5b48</title>
<path fill="none" stroke="#000000" d="M273.976,-36.4133C274.7071,-44.0593 274.9203,-53.1084 274.6155,-61.5726"/>
<polygon fill="#000000" stroke="#000000" points="271.1048,-61.6264 273.9524,-71.8314 278.0902,-62.078 271.1048,-61.6264"/>
<g id="a_edge15&#45;headlabel"><a xlink:href="dir_000163_000077.html" target="_top" xlink:title="110">
<text text-anchor="middle" x="268.5032" y="-55.3562" font-family="Helvetica,sans-Serif" font-size="10.00" fill="#000000">110</text>
</a>
</g>
</g>
<!-- dir_a597e8e061b11201a1dff411feb10d0b&#45;&gt;dir_4ab6b4cc6a7edbff49100e9123df213f -->
<g id="edge16" class="edge">
<title>dir_a597e8e061b11201a1dff411feb10d0b&#45;&gt;dir_4ab6b4cc6a7edbff49100e9123df213f</title>
<path fill="none" stroke="#000000" d="M271.8388,-221.6228C246.7894,-210.2078 209.2903,-193.1196 180.8504,-180.1597"/>
<polygon fill="#000000" stroke="#000000" points="182.1351,-176.8989 171.584,-175.937 179.2323,-183.2687 182.1351,-176.8989"/>
<g id="a_edge16&#45;headlabel"><a xlink:href="dir_000050_000028.html" target="_top" xlink:title="40">
<text text-anchor="middle" x="186.5834" y="-173.3057" font-family="Helvetica,sans-Serif" font-size="10.00" fill="#000000">40</text>
</a>
</g>
</g>
<!-- dir_a597e8e061b11201a1dff411feb10d0b&#45;&gt;dir_8ba487e25de5ee77e05e9dce7582cb98 -->
<g id="edge17" class="edge">
<title>dir_a597e8e061b11201a1dff411feb10d0b&#45;&gt;dir_8ba487e25de5ee77e05e9dce7582cb98</title>
<path fill="none" stroke="#000000" d="M308.1058,-215.9555C327.2208,-178.0762 371.6254,-90.0818 394.2367,-45.274"/>
<polygon fill="#000000" stroke="#000000" points="397.4629,-46.6496 398.8435,-36.1451 391.2135,-43.4959 397.4629,-46.6496"/>
<g id="a_edge17&#45;headlabel"><a xlink:href="dir_000050_000000.html" target="_top" xlink:title="5">
<text text-anchor="middle" x="398.3784" y="-48.6379" font-family="Helvetica,sans-Serif" font-size="10.00" fill="#000000">5</text>
</a>
</g>
</g>
<!-- dir_a597e8e061b11201a1dff411feb10d0b&#45;&gt;dir_bcbb2cf9a3d3d83e5515c82071a07177 -->
<g id="edge18" class="edge">
<title>dir_a597e8e061b11201a1dff411feb10d0b&#45;&gt;dir_bcbb2cf9a3d3d83e5515c82071a07177</title>
<path fill="none" stroke="#000000" d="M284.5186,-252.1628C275.4075,-261.0301 263.4204,-271.8295 252.0889,-281.4219"/>
<polygon fill="#000000" stroke="#000000" points="249.8368,-278.7426 244.3921,-287.8314 254.3163,-284.1217 249.8368,-278.7426"/>
<g id="a_edge18&#45;headlabel"><a xlink:href="dir_000050_000014.html" target="_top" xlink:title="103">
<text text-anchor="middle" x="250.7822" y="-271.7605" font-family="Helvetica,sans-Serif" font-size="10.00" fill="#000000">103</text>
</a>
</g>
</g>
<!-- dir_a597e8e061b11201a1dff411feb10d0b&#45;&gt;dir_2171f7ec022c5423887b07c69b2f5b48 -->
<g id="edge19" class="edge">
<title>dir_a597e8e061b11201a1dff411feb10d0b&#45;&gt;dir_2171f7ec022c5423887b07c69b2f5b48</title>
<path fill="none" stroke="#000000" d="M295.0738,-215.7623C289.763,-191.0928 280.2406,-146.8598 274.022,-117.9731"/>
<polygon fill="#000000" stroke="#000000" points="277.4205,-117.129 271.8943,-108.0896 270.5773,-118.6023 277.4205,-117.129"/>
<g id="a_edge19&#45;headlabel"><a xlink:href="dir_000050_000077.html" target="_top" xlink:title="183">
<text text-anchor="middle" x="280.9527" y="-117.5456" font-family="Helvetica,sans-Serif" font-size="10.00" fill="#000000">183</text>
</a>
</g>
</g>
<!-- dir_1306292b77b40360479b729ac9ee7efe&#45;&gt;dir_4ab6b4cc6a7edbff49100e9123df213f -->
<g id="edge20" class="edge">
<title>dir_1306292b77b40360479b729ac9ee7efe&#45;&gt;dir_4ab6b4cc6a7edbff49100e9123df213f</title>
<path fill="none" stroke="#000000" d="M103.4018,-36.0896C110.7449,-60.6805 123.9508,-104.905 132.595,-133.8531"/>
<polygon fill="#000000" stroke="#000000" points="129.339,-135.1818 135.554,-143.7623 136.0464,-133.1789 129.339,-135.1818"/>
<g id="a_edge20&#45;headlabel"><a xlink:href="dir_000044_000028.html" target="_top" xlink:title="79">
<text text-anchor="middle" x="125.59" y="-130.0499" font-family="Helvetica,sans-Serif" font-size="10.00" fill="#000000">79</text>
</a>
</g>
</g>
<!-- dir_1306292b77b40360479b729ac9ee7efe&#45;&gt;dir_bcbb2cf9a3d3d83e5515c82071a07177 -->
<g id="edge21" class="edge">
<title>dir_1306292b77b40360479b729ac9ee7efe&#45;&gt;dir_bcbb2cf9a3d3d83e5515c82071a07177</title>
<path fill="none" stroke="#000000" d="M100.3511,-36.1038C99.3036,-66.7015 93.127,-130.1768 110,-180 124.4048,-222.5349 162.2831,-258.5902 189.246,-281.0929"/>
<polygon fill="#000000" stroke="#000000" points="187.2726,-284.0009 197.2253,-287.6335 191.7103,-278.5872 187.2726,-284.0009"/>
<g id="a_edge21&#45;headlabel"><a xlink:href="dir_000044_000014.html" target="_top" xlink:title="105">
<text text-anchor="middle" x="182.6927" y="-281.418" font-family="Helvetica,sans-Serif" font-size="10.00" fill="#000000">105</text>
</a>
</g>
</g>
<!-- dir_1306292b77b40360479b729ac9ee7efe&#45;&gt;dir_2171f7ec022c5423887b07c69b2f5b48 -->
<g id="edge22" class="edge">
<title>dir_1306292b77b40360479b729ac9ee7efe&#45;&gt;dir_2171f7ec022c5423887b07c69b2f5b48</title>
<path fill="none" stroke="#000000" d="M125.0444,-27.4474C151.0788,-37.6348 190.7354,-54.211 221.7359,-67.7407"/>
<polygon fill="#000000" stroke="#000000" points="220.4908,-71.0165 231.0542,-71.8314 223.3045,-64.6069 220.4908,-71.0165"/>
<g id="a_edge22&#45;headlabel"><a xlink:href="dir_000044_000077.html" target="_top" xlink:title="236">
<text text-anchor="middle" x="216.0581" y="-69.6714" font-family="Helvetica,sans-Serif" font-size="10.00" fill="#000000">236</text>
</a>
</g>
</g>
<!-- dir_8ba487e25de5ee77e05e9dce7582cb98&#45;&gt;dir_2171f7ec022c5423887b07c69b2f5b48 -->
<g id="edge23" class="edge">
<title>dir_8ba487e25de5ee77e05e9dce7582cb98&#45;&gt;dir_2171f7ec022c5423887b07c69b2f5b48</title>
<path fill="none" stroke="#000000" d="M378.5976,-36.1832C360.8234,-45.8059 337.807,-57.6996 317.3408,-67.8567"/>
<polygon fill="#000000" stroke="#000000" points="315.5688,-64.8279 308.1449,-72.3868 318.6622,-71.1073 315.5688,-64.8279"/>
<g id="a_edge23&#45;headlabel"><a xlink:href="dir_000000_000077.html" target="_top" xlink:title="8">
<text text-anchor="middle" x="317.5387" y="-58.1925" font-family="Helvetica,sans-Serif" font-size="10.00" fill="#000000">8</text>
</a>
</g>
</g>
<!-- dir_bcbb2cf9a3d3d83e5515c82071a07177&#45;&gt;dir_4ab6b4cc6a7edbff49100e9123df213f -->
<g id="edge24" class="edge">
<title>dir_bcbb2cf9a3d3d83e5515c82071a07177&#45;&gt;dir_4ab6b4cc6a7edbff49100e9123df213f</title>
<path fill="none" stroke="#000000" d="M192.4284,-287.6415C182.6348,-277.6862 172.2997,-264.8212 165,-252 153.8491,-232.4147 145.2612,-208.3654 140.9774,-190.0556"/>
<polygon fill="#000000" stroke="#000000" points="144.3621,-189.1328 138.9656,-180.0154 137.4985,-190.5081 144.3621,-189.1328"/>
<g id="a_edge24&#45;headlabel"><a xlink:href="dir_000014_000028.html" target="_top" xlink:title="8">
<text text-anchor="middle" x="147.8522" y="-189.5996" font-family="Helvetica,sans-Serif" font-size="10.00" fill="#000000">8</text>
</a>
</g>
</g>
<!-- dir_bcbb2cf9a3d3d83e5515c82071a07177&#45;&gt;dir_a597e8e061b11201a1dff411feb10d0b -->
<g id="edge25" class="edge">
<title>dir_bcbb2cf9a3d3d83e5515c82071a07177&#45;&gt;dir_a597e8e061b11201a1dff411feb10d0b</title>
<path fill="none" stroke="#000000" d="M232.4873,-287.8314C241.5998,-278.9632 253.5873,-268.1637 264.9185,-258.5718"/>
<polygon fill="#000000" stroke="#000000" points="267.1701,-261.2515 272.615,-252.1628 262.6908,-255.8723 267.1701,-261.2515"/>
<g id="a_edge25&#45;headlabel"><a xlink:href="dir_000014_000050.html" target="_top" xlink:title="1">
<text text-anchor="middle" x="266.2247" y="-263.2335" font-family="Helvetica,sans-Serif" font-size="10.00" fill="#000000">1</text>
</a>
</g>
</g>
<!-- dir_bcbb2cf9a3d3d83e5515c82071a07177&#45;&gt;dir_1306292b77b40360479b729ac9ee7efe -->
<g id="edge26" class="edge">
<title>dir_bcbb2cf9a3d3d83e5515c82071a07177&#45;&gt;dir_1306292b77b40360479b729ac9ee7efe</title>
<path fill="none" stroke="#000000" d="M184.4196,-287.8287C152.6394,-266.2158 107.9428,-227.0765 92,-180 76.7747,-135.0423 80.3171,-78.9688 87.0783,-45.9653"/>
<polygon fill="#000000" stroke="#000000" points="90.5156,-46.6362 89.3669,-36.1038 83.6968,-45.0537 90.5156,-46.6362"/>
<g id="a_edge26&#45;headlabel"><a xlink:href="dir_000014_000044.html" target="_top" xlink:title="1">
<text text-anchor="middle" x="92.4688" y="-48.2796" font-family="Helvetica,sans-Serif" font-size="10.00" fill="#000000">1</text>
</a>
</g>
</g>
<!-- dir_bcbb2cf9a3d3d83e5515c82071a07177&#45;&gt;dir_8ba487e25de5ee77e05e9dce7582cb98 -->
<g id="edge27" class="edge">
<title>dir_bcbb2cf9a3d3d83e5515c82071a07177&#45;&gt;dir_8ba487e25de5ee77e05e9dce7582cb98</title>
<path fill="none" stroke="#000000" d="M253.6635,-297.5411C279.4622,-289.7173 313.4431,-275.6379 335,-252 388.9853,-192.8032 403.0484,-94.1234 406.7109,-46.0461"/>
<polygon fill="#000000" stroke="#000000" points="410.2046,-46.2554 407.3762,-36.0451 403.22,-45.7907 410.2046,-46.2554"/>
<g id="a_edge27&#45;headlabel"><a xlink:href="dir_000014_000000.html" target="_top" xlink:title="1">
<text text-anchor="middle" x="412.7991" y="-47.5306" font-family="Helvetica,sans-Serif" font-size="10.00" fill="#000000">1</text>
</a>
</g>
</g>
<!-- dir_bcbb2cf9a3d3d83e5515c82071a07177&#45;&gt;dir_2171f7ec022c5423887b07c69b2f5b48 -->
<g id="edge28" class="edge">
<title>dir_bcbb2cf9a3d3d83e5515c82071a07177&#45;&gt;dir_2171f7ec022c5423887b07c69b2f5b48</title>
<path fill="none" stroke="#000000" d="M218.2311,-287.9555C223.4969,-250.235 243.479,-162.8188 256.8504,-117.8399"/>
<polygon fill="#000000" stroke="#000000" points="260.2377,-118.7326 259.8446,-108.1451 253.5495,-116.6669 260.2377,-118.7326"/>
<g id="a_edge28&#45;headlabel"><a xlink:href="dir_000014_000077.html" target="_top" xlink:title="82">
<text text-anchor="middle" x="261.8899" y="-120.505" font-family="Helvetica,sans-Serif" font-size="10.00" fill="#000000">82</text>
</a>
</g>
</g>
<!-- dir_2171f7ec022c5423887b07c69b2f5b48&#45;&gt;dir_4ab6b4cc6a7edbff49100e9123df213f -->
<g id="edge29" class="edge">
<title>dir_2171f7ec022c5423887b07c69b2f5b48&#45;&gt;dir_4ab6b4cc6a7edbff49100e9123df213f</title>
<path fill="none" stroke="#000000" d="M242.1298,-108.0336C224.3738,-118.6953 200.6115,-132.184 180.5285,-143.0088"/>
<polygon fill="#000000" stroke="#000000" points="178.7701,-139.9798 171.5949,-147.7751 182.0652,-146.1558 178.7701,-139.9798"/>
<g id="a_edge29&#45;headlabel"><a xlink:href="dir_000077_000028.html" target="_top" xlink:title="35">
<text text-anchor="middle" x="180.6051" y="-133.2828" font-family="Helvetica,sans-Serif" font-size="10.00" fill="#000000">35</text>
</a>
</g>
</g>
<!-- dir_2171f7ec022c5423887b07c69b2f5b48&#45;&gt;dir_d14e88a79bca429480864605ee348cef -->
<g id="edge30" class="edge">
<title>dir_2171f7ec022c5423887b07c69b2f5b48&#45;&gt;dir_d14e88a79bca429480864605ee348cef</title>
<path fill="none" stroke="#000000" d="M262.0476,-71.8314C261.2972,-64.131 261.0763,-54.9743 261.3849,-46.4166"/>
<polygon fill="#000000" stroke="#000000" points="264.8792,-46.6161 262.024,-36.4133 257.8935,-46.1697 264.8792,-46.6161"/>
<g id="a_edge30&#45;headlabel"><a xlink:href="dir_000077_000163.html" target="_top" xlink:title="1">
<text text-anchor="middle" x="267.4836" y="-47.8844" font-family="Helvetica,sans-Serif" font-size="10.00" fill="#000000">1</text>
</a>
</g>
</g>
<!-- dir_2171f7ec022c5423887b07c69b2f5b48&#45;&gt;dir_1306292b77b40360479b729ac9ee7efe -->
<g id="edge31" class="edge">
<title>dir_2171f7ec022c5423887b07c69b2f5b48&#45;&gt;dir_1306292b77b40360479b729ac9ee7efe</title>
<path fill="none" stroke="#000000" d="M227.617,-75.256C199.2351,-63.8472 161.7032,-48.0011 134.2721,-35.8709"/>
<polygon fill="#000000" stroke="#000000" points="135.581,-32.6224 125.0222,-31.7486 132.7315,-39.0162 135.581,-32.6224"/>
<g id="a_edge31&#45;headlabel"><a xlink:href="dir_000077_000044.html" target="_top" xlink:title="1">
<text text-anchor="middle" x="140.02" y="-28.9922" font-family="Helvetica,sans-Serif" font-size="10.00" fill="#000000">1</text>
</a>
</g>
</g>
<!-- dir_2171f7ec022c5423887b07c69b2f5b48&#45;&gt;dir_8ba487e25de5ee77e05e9dce7582cb98 -->
<g id="edge32" class="edge">
<title>dir_2171f7ec022c5423887b07c69b2f5b48&#45;&gt;dir_8ba487e25de5ee77e05e9dce7582cb98</title>
<path fill="none" stroke="#000000" d="M297.3755,-71.8314C317.304,-61.0417 343.8312,-47.393 365.9642,-36.5389"/>
<polygon fill="#000000" stroke="#000000" points="367.6849,-39.5941 375.1488,-32.0747 364.6248,-33.2984 367.6849,-39.5941"/>
<g id="a_edge32&#45;headlabel"><a xlink:href="dir_000077_000000.html" target="_top" xlink:title="2">
<text text-anchor="middle" x="365.6932" y="-41.2191" font-family="Helvetica,sans-Serif" font-size="10.00" fill="#000000">2</text>
</a>
</g>
</g>
<!-- dir_2171f7ec022c5423887b07c69b2f5b48&#45;&gt;dir_bcbb2cf9a3d3d83e5515c82071a07177 -->
<g id="edge33" class="edge">
<title>dir_2171f7ec022c5423887b07c69b2f5b48&#45;&gt;dir_bcbb2cf9a3d3d83e5515c82071a07177</title>
<path fill="none" stroke="#000000" d="M267.7549,-108.1451C262.4629,-145.9537 242.4736,-233.3762 229.114,-278.2797"/>
<polygon fill="#000000" stroke="#000000" points="225.7326,-277.3678 226.1229,-287.9555 232.4203,-279.4353 225.7326,-277.3678"/>
<g id="a_edge33&#45;headlabel"><a xlink:href="dir_000077_000014.html" target="_top" xlink:title="12">
<text text-anchor="middle" x="224.0816" y="-270.595" font-family="Helvetica,sans-Serif" font-size="10.00" fill="#000000">12</text>
</a>
</g>
</g>
</g>
</svg>
        <g id="navigator" transform="translate(0 0)" fill="#404254">
                <rect fill="#f2f5e9" fill-opacity="0.5" stroke="#606060" stroke-width=".5" x="0" y="0" width="60" height="60"/>
                <use id="zoomplus" xlink:href="#zoomPlus" x="17" y="9" onmousedown="handleZoom(evt,'in')"/>
                <use id="zoomminus" xlink:href="#zoomMin" x="42" y="9" onmousedown="handleZoom(evt,'out')"/>
                <use id="reset" xlink:href="#resetDef" x="30" y="36" onmousedown="handleReset()"/>
                <g id="arrowUp" xlink:href="#dirArrow" transform="translate(30 24)" onmousedown="handlePan(0,-1)">
                  <use xlink:href="#rim" fill="#404040">
                        <set attributeName="fill" to="#808080" begin="arrowUp.mouseover" end="arrowUp.mouseout"/>
                  </use>
                  <path fill="none" stroke="white" stroke-width="1.5" d="M0,-3.0v7 M-2.5,-0.5L0,-3.0L2.5,-0.5"/>
                </g>
                <g id="arrowRight" xlink:href="#dirArrow" transform="rotate(90) translate(36 -43)" onmousedown="handlePan(1,0)">
                  <use xlink:href="#rim" fill="#404040">
                        <set attributeName="fill" to="#808080" begin="arrowRight.mouseover" end="arrowRight.mouseout"/>
                  </use>
                  <path fill="none" stroke="white" stroke-width="1.5" d="M0,-3.0v7 M-2.5,-0.5L0,-3.0L2.5,-0.5"/>
                </g>
                <g id="arrowDown" xlink:href="#dirArrow" transform="rotate(180) translate(-30 -48)" onmousedown="handlePan(0,1)">
                  <use xlink:href="#rim" fill="#404040">
                        <set attributeName="fill" to="#808080" begin="arrowDown.mouseover" end="arrowDown.mouseout"/>
                  </use>
                  <path fill="none" stroke="white" stroke-width="1.5" d="M0,-3.0v7 M-2.5,-0.5L0,-3.0L2.5,-0.5"/>
                </g>
                <g id="arrowLeft" xlink:href="#dirArrow" transform="rotate(270) translate(-36 17)" onmousedown="handlePan(-1,0)">
                  <use xlink:href="#rim" fill="#404040">
                        <set attributeName="fill" to="#808080" begin="arrowLeft.mouseover" end="arrowLeft.mouseout"/>
                  </use>
                  <path fill="none" stroke="white" stroke-width="1.5" d="M0,-3.0v7 M-2.5,-0.5L0,-3.0L2.5,-0.5"/>
                </g>
        </g>
        <svg viewBox="0 0 15 15" width="100%" height="30px" preserveAspectRatio="xMaxYMin meet">
         <g id="arrow_out" transform="scale(0.3 0.3)">
          <a xlink:href="dir_0975f3a41b875e2b4566cea931b99e77_dep_org.svg" target="_base">
           <rect id="button" ry="5" rx="5" y="6" x="6" height="38" width="38"
                fill="#f2f5e9" fill-opacity="0.5" stroke="#606060" stroke-width="1.0"/>
           <path id="arrow"
             d="M 11.500037,31.436501 C 11.940474,20.09759 22.043105,11.32322 32.158766,21.979434 L 37.068811,17.246167 C 37.068811,17.246167 37.088388,32 37.088388,32 L 22.160133,31.978069 C 22.160133,31.978069 26.997745,27.140456 26.997745,27.140456 C 18.528582,18.264221 13.291696,25.230495 11.500037,31.436501 z"
             style="fill:#404040;"/>
          </a>
         </g>
        </svg>
</svg>
