<?xml version="1.0" encoding="UTF-8" standalone="no"?>
<!DOCTYPE svg PUBLIC "-//W3C//DTD SVG 1.1//EN"
 "http://www.w3.org/Graphics/SVG/1.1/DTD/svg11.dtd">
<!-- Generated by graphviz version 2.40.1 (20161225.0304)
 -->
<!-- Title: /home/travis/build/AliceO2Group/AliceO2/Detectors/TRD/base/src Pages: 1 -->
<svg width="236pt" height="367pt"
 viewBox="0.00 0.00 236.00 367.00" xmlns="http://www.w3.org/2000/svg" xmlns:xlink="http://www.w3.org/1999/xlink">
<g id="graph0" class="graph" transform="scale(1 1) rotate(0) translate(4 363)">
<title>/home/travis/build/AliceO2Group/AliceO2/Detectors/TRD/base/src</title>
<g id="clust1" class="cluster">
<title>clusterdir_09bf7f7c4011a5ccc426492db4dd0891</title>
<g id="a_clust1"><a xlink:href="dir_09bf7f7c4011a5ccc426492db4dd0891.html" target="_top" xlink:title="base">
<polygon fill="#ddddee" stroke="#000000" points="73,-280 73,-351 143,-351 143,-280 73,-280"/>
<text text-anchor="middle" x="108" y="-339" font-family="Helvetica,sans-Serif" font-size="10.00" fill="#000000">base</text>
</a>
</g>
</g>
<!-- dir_bc3f0ff1fdf26bec79f7d00840858de9 -->
<g id="node1" class="node">
<title>dir_bc3f0ff1fdf26bec79f7d00840858de9</title>
<g id="a_node1"><a xlink:href="dir_bc3f0ff1fdf26bec79f7d00840858de9.html" target="_top" xlink:title="src">
<polygon fill="#eeeeff" stroke="#000000" points="135,-324 81,-324 81,-288 135,-288 135,-324"/>
<text text-anchor="middle" x="108" y="-303.5" font-family="Helvetica,sans-Serif" font-size="10.00" fill="#000000">src</text>
</a>
</g>
</g>
<!-- dir_8b3cc3395a6e7eccd58a8c5fa5ac689e -->
<g id="node2" class="node">
<title>dir_8b3cc3395a6e7eccd58a8c5fa5ac689e</title>
<g id="a_node2"><a xlink:href="dir_8b3cc3395a6e7eccd58a8c5fa5ac689e.html" target="_top" xlink:title="include">
<polygon fill="none" stroke="#ff0000" points="80,-252 26,-252 26,-216 80,-216 80,-252"/>
<text text-anchor="middle" x="53" y="-231.5" font-family="Helvetica,sans-Serif" font-size="10.00" fill="#000000">include</text>
</a>
</g>
</g>
<!-- dir_bc3f0ff1fdf26bec79f7d00840858de9&#45;&gt;dir_8b3cc3395a6e7eccd58a8c5fa5ac689e -->
<g id="edge4" class="edge">
<title>dir_bc3f0ff1fdf26bec79f7d00840858de9&#45;&gt;dir_8b3cc3395a6e7eccd58a8c5fa5ac689e</title>
<path fill="none" stroke="#000000" d="M94.1212,-287.8314C87.7864,-279.5386 80.1616,-269.557 73.2074,-260.4533"/>
<polygon fill="#000000" stroke="#000000" points="75.9175,-258.2353 67.0657,-252.4133 70.3548,-262.4847 75.9175,-258.2353"/>
<g id="a_edge4&#45;headlabel"><a xlink:href="dir_000160_000143.html" target="_top" xlink:title="55">
<text text-anchor="middle" x="80.3558" y="-256.8683" font-family="Helvetica,sans-Serif" font-size="10.00" fill="#000000">55</text>
</a>
</g>
</g>
<!-- dir_4ab6b4cc6a7edbff49100e9123df213f -->
<g id="node3" class="node">
<title>dir_4ab6b4cc6a7edbff49100e9123df213f</title>
<g id="a_node3"><a xlink:href="dir_4ab6b4cc6a7edbff49100e9123df213f.html" target="_top" xlink:title="Common">
<polygon fill="none" stroke="#ff0000" points="121.5,-36 60.5,-36 60.5,0 121.5,0 121.5,-36"/>
<text text-anchor="middle" x="91" y="-15.5" font-family="Helvetica,sans-Serif" font-size="10.00" fill="#000000">Common</text>
</a>
</g>
</g>
<!-- dir_bc3f0ff1fdf26bec79f7d00840858de9&#45;&gt;dir_4ab6b4cc6a7edbff49100e9123df213f -->
<g id="edge5" class="edge">
<title>dir_bc3f0ff1fdf26bec79f7d00840858de9&#45;&gt;dir_4ab6b4cc6a7edbff49100e9123df213f</title>
<path fill="none" stroke="#000000" d="M113.9021,-287.9094C125.9858,-247.967 150.5043,-149.6296 127,-72 124.0436,-62.2355 118.6748,-52.6229 112.97,-44.2762"/>
<polygon fill="#000000" stroke="#000000" points="115.7129,-42.0973 106.9905,-36.0831 110.0586,-46.2239 115.7129,-42.0973"/>
<g id="a_edge5&#45;headlabel"><a xlink:href="dir_000160_000028.html" target="_top" xlink:title="2">
<text text-anchor="middle" x="120.1253" y="-40.827" font-family="Helvetica,sans-Serif" font-size="10.00" fill="#000000">2</text>
</a>
</g>
</g>
<!-- dir_6af676bf18881990e4083e191d0e63e0 -->
<g id="node4" class="node">
<title>dir_6af676bf18881990e4083e191d0e63e0</title>
<g id="a_node4"><a xlink:href="dir_6af676bf18881990e4083e191d0e63e0.html" target="_top" xlink:title="CCDB">
<polygon fill="none" stroke="#ff0000" points="228,-252 174,-252 174,-216 228,-216 228,-252"/>
<text text-anchor="middle" x="201" y="-231.5" font-family="Helvetica,sans-Serif" font-size="10.00" fill="#000000">CCDB</text>
</a>
</g>
</g>
<!-- dir_bc3f0ff1fdf26bec79f7d00840858de9&#45;&gt;dir_6af676bf18881990e4083e191d0e63e0 -->
<g id="edge6" class="edge">
<title>dir_bc3f0ff1fdf26bec79f7d00840858de9&#45;&gt;dir_6af676bf18881990e4083e191d0e63e0</title>
<path fill="none" stroke="#000000" d="M131.4678,-287.8314C143.0327,-278.8779 157.1404,-267.9558 169.6183,-258.2955"/>
<polygon fill="#000000" stroke="#000000" points="171.775,-261.0521 177.5397,-252.1628 167.4898,-255.5171 171.775,-261.0521"/>
<g id="a_edge6&#45;headlabel"><a xlink:href="dir_000160_000020.html" target="_top" xlink:title="1">
<text text-anchor="middle" x="170.6708" y="-262.9977" font-family="Helvetica,sans-Serif" font-size="10.00" fill="#000000">1</text>
</a>
</g>
</g>
<!-- dir_37c90836491b695b472bf98d1be8336b -->
<g id="node5" class="node">
<title>dir_37c90836491b695b472bf98d1be8336b</title>
<g id="a_node5"><a xlink:href="dir_37c90836491b695b472bf98d1be8336b.html" target="_top" xlink:title="Base">
<polygon fill="none" stroke="#ff0000" points="118,-108 64,-108 64,-72 118,-72 118,-108"/>
<text text-anchor="middle" x="91" y="-87.5" font-family="Helvetica,sans-Serif" font-size="10.00" fill="#000000">Base</text>
</a>
</g>
</g>
<!-- dir_bc3f0ff1fdf26bec79f7d00840858de9&#45;&gt;dir_37c90836491b695b472bf98d1be8336b -->
<g id="edge7" class="edge">
<title>dir_bc3f0ff1fdf26bec79f7d00840858de9&#45;&gt;dir_37c90836491b695b472bf98d1be8336b</title>
<path fill="none" stroke="#000000" d="M106.5798,-287.9555C103.6173,-250.3144 96.7601,-163.1867 93.2135,-118.1246"/>
<polygon fill="#000000" stroke="#000000" points="96.702,-117.8396 92.4281,-108.1451 89.7236,-118.3889 96.702,-117.8396"/>
<g id="a_edge7&#45;headlabel"><a xlink:href="dir_000160_000275.html" target="_top" xlink:title="2">
<text text-anchor="middle" x="99.8145" y="-118.7004" font-family="Helvetica,sans-Serif" font-size="10.00" fill="#000000">2</text>
</a>
</g>
</g>
<!-- dir_2171f7ec022c5423887b07c69b2f5b48 -->
<g id="node6" class="node">
<title>dir_2171f7ec022c5423887b07c69b2f5b48</title>
<g id="a_node6"><a xlink:href="dir_2171f7ec022c5423887b07c69b2f5b48.html" target="_top" xlink:title="DataFormats">
<polygon fill="none" stroke="#ff0000" points="80,-180 0,-180 0,-144 80,-144 80,-180"/>
<text text-anchor="middle" x="40" y="-159.5" font-family="Helvetica,sans-Serif" font-size="10.00" fill="#000000">DataFormats</text>
</a>
</g>
</g>
<!-- dir_bc3f0ff1fdf26bec79f7d00840858de9&#45;&gt;dir_2171f7ec022c5423887b07c69b2f5b48 -->
<g id="edge8" class="edge">
<title>dir_bc3f0ff1fdf26bec79f7d00840858de9&#45;&gt;dir_2171f7ec022c5423887b07c69b2f5b48</title>
<path fill="none" stroke="#000000" d="M80.6953,-298.0514C59.1494,-290.1773 30.5443,-275.7867 17,-252 5.9409,-232.5779 13.596,-207.8086 22.9443,-189.1735"/>
<polygon fill="#000000" stroke="#000000" points="26.0605,-190.7689 27.7454,-180.3089 19.9053,-187.4352 26.0605,-190.7689"/>
<g id="a_edge8&#45;headlabel"><a xlink:href="dir_000160_000077.html" target="_top" xlink:title="4">
<text text-anchor="middle" x="26.8453" y="-192.7819" font-family="Helvetica,sans-Serif" font-size="10.00" fill="#000000">4</text>
</a>
</g>
</g>
<!-- dir_8b3cc3395a6e7eccd58a8c5fa5ac689e&#45;&gt;dir_2171f7ec022c5423887b07c69b2f5b48 -->
<g id="edge1" class="edge">
<title>dir_8b3cc3395a6e7eccd58a8c5fa5ac689e&#45;&gt;dir_2171f7ec022c5423887b07c69b2f5b48</title>
<path fill="none" stroke="#000000" d="M43.7672,-215.8314C41.6264,-208.131 39.7522,-198.9743 38.5157,-190.4166"/>
<polygon fill="#000000" stroke="#000000" points="41.9839,-189.9403 37.3486,-180.4133 35.0311,-190.7515 41.9839,-189.9403"/>
<g id="a_edge1&#45;headlabel"><a xlink:href="dir_000143_000077.html" target="_top" xlink:title="5">
<text text-anchor="middle" x="45.2206" y="-190.6817" font-family="Helvetica,sans-Serif" font-size="10.00" fill="#000000">5</text>
</a>
</g>
</g>
<!-- dir_4ab6b4cc6a7edbff49100e9123df213f&#45;&gt;dir_2171f7ec022c5423887b07c69b2f5b48 -->
<g id="edge2" class="edge">
<title>dir_4ab6b4cc6a7edbff49100e9123df213f&#45;&gt;dir_2171f7ec022c5423887b07c69b2f5b48</title>
<path fill="none" stroke="#000000" d="M83.9162,-36.39C77.468,-46.3538 69.055,-59.217 64,-72 56.1601,-91.8253 52.4177,-115.6801 49.3235,-133.8482"/>
<polygon fill="#000000" stroke="#000000" points="45.8562,-133.3562 47.5506,-143.8147 52.748,-134.5823 45.8562,-133.3562"/>
<g id="a_edge2&#45;headlabel"><a xlink:href="dir_000028_000077.html" target="_top" xlink:title="2">
<text text-anchor="middle" x="43.6903" y="-126.8199" font-family="Helvetica,sans-Serif" font-size="10.00" fill="#000000">2</text>
</a>
</g>
</g>
<!-- dir_6af676bf18881990e4083e191d0e63e0&#45;&gt;dir_4ab6b4cc6a7edbff49100e9123df213f -->
<g id="edge3" class="edge">
<title>dir_6af676bf18881990e4083e191d0e63e0&#45;&gt;dir_4ab6b4cc6a7edbff49100e9123df213f</title>
<path fill="none" stroke="#000000" d="M200.1944,-215.9603C198.0119,-184.3492 189.9262,-117.9456 160,-72 152.3257,-60.2177 141.1973,-49.9036 130.1097,-41.5336"/>
<polygon fill="#000000" stroke="#000000" points="131.8674,-38.4878 121.6968,-35.5199 127.7967,-44.1825 131.8674,-38.4878"/>
<g id="a_edge3&#45;headlabel"><a xlink:href="dir_000020_000028.html" target="_top" xlink:title="4">
<text text-anchor="middle" x="136.4428" y="-35.7684" font-family="Helvetica,sans-Serif" font-size="10.00" fill="#000000">4</text>
</a>
</g>
</g>
<!-- dir_37c90836491b695b472bf98d1be8336b&#45;&gt;dir_4ab6b4cc6a7edbff49100e9123df213f -->
<g id="edge9" class="edge">
<title>dir_37c90836491b695b472bf98d1be8336b&#45;&gt;dir_4ab6b4cc6a7edbff49100e9123df213f</title>
<path fill="none" stroke="#000000" d="M91,-71.8314C91,-64.131 91,-54.9743 91,-46.4166"/>
<polygon fill="#000000" stroke="#000000" points="94.5001,-46.4132 91,-36.4133 87.5001,-46.4133 94.5001,-46.4132"/>
<g id="a_edge9&#45;headlabel"><a xlink:href="dir_000275_000028.html" target="_top" xlink:title="16">
<text text-anchor="middle" x="97.3393" y="-47.5079" font-family="Helvetica,sans-Serif" font-size="10.00" fill="#000000">16</text>
</a>
</g>
</g>
<!-- dir_37c90836491b695b472bf98d1be8336b&#45;&gt;dir_2171f7ec022c5423887b07c69b2f5b48 -->
<g id="edge10" class="edge">
<title>dir_37c90836491b695b472bf98d1be8336b&#45;&gt;dir_2171f7ec022c5423887b07c69b2f5b48</title>
<path fill="none" stroke="#000000" d="M83.9333,-108.4133C78.832,-116.7389 71.9383,-126.7282 65.07,-135.8144"/>
<polygon fill="#000000" stroke="#000000" points="62.2085,-133.7924 58.8218,-143.8314 67.7297,-138.0955 62.2085,-133.7924"/>
<g id="a_edge10&#45;headlabel"><a xlink:href="dir_000275_000077.html" target="_top" xlink:title="12">
<text text-anchor="middle" x="62.1787" y="-126.7118" font-family="Helvetica,sans-Serif" font-size="10.00" fill="#000000">12</text>
</a>
</g>
</g>
<!-- dir_2171f7ec022c5423887b07c69b2f5b48&#45;&gt;dir_8b3cc3395a6e7eccd58a8c5fa5ac689e -->
<g id="edge11" class="edge">
<title>dir_2171f7ec022c5423887b07c69b2f5b48&#45;&gt;dir_8b3cc3395a6e7eccd58a8c5fa5ac689e</title>
<path fill="none" stroke="#000000" d="M49.3006,-180.4133C51.4357,-188.1442 53.3003,-197.3097 54.5233,-205.8545"/>
<polygon fill="#000000" stroke="#000000" points="51.0511,-206.2973 55.6719,-215.8314 58.0051,-205.4966 51.0511,-206.2973"/>
<g id="a_edge11&#45;headlabel"><a xlink:href="dir_000077_000143.html" target="_top" xlink:title="1">
<text text-anchor="middle" x="47.8194" y="-200.551" font-family="Helvetica,sans-Serif" font-size="10.00" fill="#000000">1</text>
</a>
</g>
</g>
<!-- dir_2171f7ec022c5423887b07c69b2f5b48&#45;&gt;dir_4ab6b4cc6a7edbff49100e9123df213f -->
<g id="edge12" class="edge">
<title>dir_2171f7ec022c5423887b07c69b2f5b48&#45;&gt;dir_4ab6b4cc6a7edbff49100e9123df213f</title>
<path fill="none" stroke="#000000" d="M34.028,-143.8147C33.1065,-125.199 36.6215,-95.7162 46,-72 49.7912,-62.4128 55.4714,-52.7804 61.6167,-44.3599"/>
<polygon fill="#000000" stroke="#000000" points="64.4495,-46.4194 67.8644,-36.39 58.9404,-42.1008 64.4495,-46.4194"/>
<g id="a_edge12&#45;headlabel"><a xlink:href="dir_000077_000028.html" target="_top" xlink:title="35">
<text text-anchor="middle" x="64.4664" y="-48.5" font-family="Helvetica,sans-Serif" font-size="10.00" fill="#000000">35</text>
</a>
</g>
</g>
<!-- dir_2171f7ec022c5423887b07c69b2f5b48&#45;&gt;dir_37c90836491b695b472bf98d1be8336b -->
<g id="edge13" class="edge">
<title>dir_2171f7ec022c5423887b07c69b2f5b48&#45;&gt;dir_37c90836491b695b472bf98d1be8336b</title>
<path fill="none" stroke="#000000" d="M46.9171,-143.8314C51.9829,-135.5386 58.8592,-125.557 65.7277,-116.4533"/>
<polygon fill="#000000" stroke="#000000" points="68.6045,-118.4556 71.9813,-108.4133 63.079,-114.1579 68.6045,-118.4556"/>
<g id="a_edge13&#45;headlabel"><a xlink:href="dir_000077_000275.html" target="_top" xlink:title="1">
<text text-anchor="middle" x="68.6388" y="-120.5361" font-family="Helvetica,sans-Serif" font-size="10.00" fill="#000000">1</text>
</a>
</g>
</g>
</g>
</svg>
