<?xml version="1.0" encoding="UTF-8" standalone="no"?>
<!DOCTYPE svg PUBLIC "-//W3C//DTD SVG 1.1//EN"
 "http://www.w3.org/Graphics/SVG/1.1/DTD/svg11.dtd">
<!-- Generated by graphviz version 2.40.1 (20161225.0304)
 -->
<!-- Title: /home/travis/build/AliceO2Group/AliceO2/DataFormats/Detectors/FIT Pages: 1 -->
<!--zoomable 474 -->
<svg id="main" version="1.1" xmlns="http://www.w3.org/2000/svg" xmlns:xlink="http://www.w3.org/1999/xlink" xml:space="preserve" onload="init(evt)">
<style type="text/css"><![CDATA[
.edge:hover path { stroke: red; }
.edge:hover polygon { stroke: red; fill: red; }
]]></style>
<script type="text/javascript"><![CDATA[
var edges = document.getElementsByTagName('g');
if (edges && edges.length) {
  for (var i=0;i<edges.length;i++) {
    if (edges[i].id.substr(0,4)=='edge') {
      edges[i].setAttribute('class','edge');
    }
  }
}
]]></script>
        <defs>
                <circle id="rim" cx="0" cy="0" r="7"/>
                <circle id="rim2" cx="0" cy="0" r="3.5"/>
                <g id="zoomPlus">
                        <use xlink:href="#rim" fill="#404040">
                                <set attributeName="fill" to="#808080" begin="zoomplus.mouseover" end="zoomplus.mouseout"/>
                        </use>
                        <path d="M-4,0h8M0,-4v8" fill="none" stroke="white" stroke-width="1.5" pointer-events="none"/>
                </g>
                <g id="zoomMin">
                        <use xlink:href="#rim" fill="#404040">
                                <set attributeName="fill" to="#808080" begin="zoomminus.mouseover" end="zoomminus.mouseout"/>
                        </use>
                        <path d="M-4,0h8" fill="none" stroke="white" stroke-width="1.5" pointer-events="none"/>
                </g>
                <g id="dirArrow">
                        <path fill="none" stroke="white" stroke-width="1.5" d="M0,-3.0v7 M-2.5,-0.5L0,-3.0L2.5,-0.5"/>
                </g>
               <g id="resetDef">
                       <use xlink:href="#rim2" fill="#404040">
                               <set attributeName="fill" to="#808080" begin="reset.mouseover" end="reset.mouseout"/>
                       </use>
               </g>
        </defs>

<script type="text/javascript">
var viewWidth = 714;
var viewHeight = 474;
var sectionId = 'dynsection-0';
</script>
<script xlink:href="svgpan.js"/>
<svg id="graph" class="graph">
<g id="viewport">
<title>/home/travis/build/AliceO2Group/AliceO2/DataFormats/Detectors/FIT</title>
<g id="clust1" class="cluster">
<title>clusterdir_2801adc79bf3c286b1b479858d2cade4</title>
<g id="a_clust1"><a xlink:href="dir_2801adc79bf3c286b1b479858d2cade4.html" target="_top" xlink:title="Detectors">
<polygon fill="#ddddee" stroke="#000000" points="115,-344 115,-431 417,-431 417,-344 115,-344"/>
<text text-anchor="middle" x="266" y="-419" font-family="Helvetica,sans-Serif" font-size="10.00" fill="#000000">Detectors</text>
</a>
</g>
</g>
<g id="clust2" class="cluster">
<title>clusterdir_6f689773863a160ed4e9bc61c1008ba5</title>
<g id="a_clust2"><a xlink:href="dir_6f689773863a160ed4e9bc61c1008ba5.html" target="_top">
<polygon fill="#eeeeff" stroke="#000000" points="123,-352 123,-404 409,-404 409,-352 123,-352"/>
</a>
</g>
</g>
<!-- dir_6f689773863a160ed4e9bc61c1008ba5 -->
<g id="node1" class="node">
<title>dir_6f689773863a160ed4e9bc61c1008ba5</title>
<text text-anchor="middle" x="374" y="-375.5" font-family="Helvetica,sans-Serif" font-size="10.00" fill="#000000">FIT</text>
</g>
<!-- dir_a5e2f96db9c63d5e1b2e8bbeecdeca98 -->
<g id="node2" class="node">
<title>dir_a5e2f96db9c63d5e1b2e8bbeecdeca98</title>
<g id="a_node2"><a xlink:href="dir_a5e2f96db9c63d5e1b2e8bbeecdeca98.html" target="_top" xlink:title="FDD">
<polygon fill="#ffffff" stroke="#ff0000" points="185,-396 131,-396 131,-360 185,-360 185,-396"/>
<text text-anchor="middle" x="158" y="-375.5" font-family="Helvetica,sans-Serif" font-size="10.00" fill="#000000">FDD</text>
</a>
</g>
</g>
<!-- dir_4ab6b4cc6a7edbff49100e9123df213f -->
<g id="node5" class="node">
<title>dir_4ab6b4cc6a7edbff49100e9123df213f</title>
<g id="a_node5"><a xlink:href="dir_4ab6b4cc6a7edbff49100e9123df213f.html" target="_top" xlink:title="Common">
<polygon fill="none" stroke="#ff0000" points="541.5,-396 480.5,-396 480.5,-360 541.5,-360 541.5,-396"/>
<text text-anchor="middle" x="511" y="-375.5" font-family="Helvetica,sans-Serif" font-size="10.00" fill="#000000">Common</text>
</a>
</g>
</g>
<!-- dir_a5e2f96db9c63d5e1b2e8bbeecdeca98&#45;&gt;dir_4ab6b4cc6a7edbff49100e9123df213f -->
<g id="edge12" class="edge">
<title>dir_a5e2f96db9c63d5e1b2e8bbeecdeca98&#45;&gt;dir_4ab6b4cc6a7edbff49100e9123df213f</title>
<path fill="none" stroke="#000000" d="M163.7294,-396.0384C170.2342,-413.1355 182.6695,-437.8155 203,-449 242.1354,-470.5297 361.2359,-461.8975 404,-449 434.0155,-439.9474 463.3421,-419.4161 483.6795,-402.7487"/>
<polygon fill="#000000" stroke="#000000" points="486.1571,-405.238 491.552,-396.1196 481.6482,-399.8835 486.1571,-405.238"/>
<g id="a_edge12&#45;headlabel"><a xlink:href="dir_000121_000028.html" target="_top" xlink:title="1">
<text text-anchor="middle" x="485.2362" y="-407.2252" font-family="Helvetica,sans-Serif" font-size="10.00" fill="#000000">1</text>
</a>
</g>
</g>
<!-- dir_047746f9f311f49446db9474b7431d0d -->
<g id="node8" class="node">
<title>dir_047746f9f311f49446db9474b7431d0d</title>
<g id="a_node8"><a xlink:href="dir_047746f9f311f49446db9474b7431d0d.html" target="_top" xlink:title="simulation">
<polygon fill="none" stroke="#ff0000" points="293,-108 225,-108 225,-72 293,-72 293,-108"/>
<text text-anchor="middle" x="259" y="-87.5" font-family="Helvetica,sans-Serif" font-size="10.00" fill="#000000">simulation</text>
</a>
</g>
</g>
<!-- dir_a5e2f96db9c63d5e1b2e8bbeecdeca98&#45;&gt;dir_047746f9f311f49446db9474b7431d0d -->
<g id="edge13" class="edge">
<title>dir_a5e2f96db9c63d5e1b2e8bbeecdeca98&#45;&gt;dir_047746f9f311f49446db9474b7431d0d</title>
<path fill="none" stroke="#000000" d="M146.6783,-359.8214C121.9418,-317.5386 69.0551,-211.0907 118,-144 129.8267,-127.7887 177.9407,-111.6533 214.7072,-101.3016"/>
<polygon fill="#000000" stroke="#000000" points="216.0247,-104.5692 224.7368,-98.54 214.1664,-97.8203 216.0247,-104.5692"/>
<g id="a_edge13&#45;headlabel"><a xlink:href="dir_000121_000246.html" target="_top" xlink:title="2">
<text text-anchor="middle" x="213.3128" y="-105.7607" font-family="Helvetica,sans-Serif" font-size="10.00" fill="#000000">2</text>
</a>
</g>
</g>
<!-- dir_7924ba4398ae4560cd37376e44666c6d -->
<g id="node10" class="node">
<title>dir_7924ba4398ae4560cd37376e44666c6d</title>
<g id="a_node10"><a xlink:href="dir_7924ba4398ae4560cd37376e44666c6d.html" target="_top" xlink:title="common">
<polygon fill="none" stroke="#ff0000" points="319.5,-36 260.5,-36 260.5,0 319.5,0 319.5,-36"/>
<text text-anchor="middle" x="290" y="-15.5" font-family="Helvetica,sans-Serif" font-size="10.00" fill="#000000">common</text>
</a>
</g>
</g>
<!-- dir_a5e2f96db9c63d5e1b2e8bbeecdeca98&#45;&gt;dir_7924ba4398ae4560cd37376e44666c6d -->
<g id="edge14" class="edge">
<title>dir_a5e2f96db9c63d5e1b2e8bbeecdeca98&#45;&gt;dir_7924ba4398ae4560cd37376e44666c6d</title>
<path fill="none" stroke="#000000" d="M130.8388,-367.8369C85.6643,-348.9665 0,-303.9595 0,-234 0,-234 0,-234 0,-162 0,-51.5815 170.7405,-25.8313 250.2007,-19.8263"/>
<polygon fill="#000000" stroke="#000000" points="250.591,-23.3078 260.3278,-19.131 250.1115,-16.3243 250.591,-23.3078"/>
<g id="a_edge14&#45;headlabel"><a xlink:href="dir_000121_000078.html" target="_top" xlink:title="4">
<text text-anchor="middle" x="247.1993" y="-23.8865" font-family="Helvetica,sans-Serif" font-size="10.00" fill="#000000">4</text>
</a>
</g>
</g>
<!-- dir_c4f8a341900d529ea5f1c2b568ba3222 -->
<g id="node3" class="node">
<title>dir_c4f8a341900d529ea5f1c2b568ba3222</title>
<g id="a_node3"><a xlink:href="dir_c4f8a341900d529ea5f1c2b568ba3222.html" target="_top" xlink:title="FT0">
<polygon fill="#ffffff" stroke="#ff0000" points="329,-396 275,-396 275,-360 329,-360 329,-396"/>
<text text-anchor="middle" x="302" y="-375.5" font-family="Helvetica,sans-Serif" font-size="10.00" fill="#000000">FT0</text>
</a>
</g>
</g>
<!-- dir_c4f8a341900d529ea5f1c2b568ba3222&#45;&gt;dir_4ab6b4cc6a7edbff49100e9123df213f -->
<g id="edge26" class="edge">
<title>dir_c4f8a341900d529ea5f1c2b568ba3222&#45;&gt;dir_4ab6b4cc6a7edbff49100e9123df213f</title>
<path fill="none" stroke="#000000" d="M307.7294,-396.0384C314.2342,-413.1355 326.6695,-437.8155 347,-449 369.1962,-461.2109 379.7458,-456.315 404,-449 434.0155,-439.9474 463.3421,-419.4161 483.6795,-402.7487"/>
<polygon fill="#000000" stroke="#000000" points="486.1571,-405.238 491.552,-396.1196 481.6482,-399.8835 486.1571,-405.238"/>
<g id="a_edge26&#45;headlabel"><a xlink:href="dir_000124_000028.html" target="_top" xlink:title="1">
<text text-anchor="middle" x="485.2362" y="-407.2252" font-family="Helvetica,sans-Serif" font-size="10.00" fill="#000000">1</text>
</a>
</g>
</g>
<!-- dir_051dca18e802f8e9474f2e30d29c04e0 -->
<g id="node6" class="node">
<title>dir_051dca18e802f8e9474f2e30d29c04e0</title>
<g id="a_node6"><a xlink:href="dir_051dca18e802f8e9474f2e30d29c04e0.html" target="_top" xlink:title="Detectors">
<polygon fill="none" stroke="#ff0000" points="352,-180 288,-180 288,-144 352,-144 352,-180"/>
<text text-anchor="middle" x="320" y="-159.5" font-family="Helvetica,sans-Serif" font-size="10.00" fill="#000000">Detectors</text>
</a>
</g>
</g>
<!-- dir_c4f8a341900d529ea5f1c2b568ba3222&#45;&gt;dir_051dca18e802f8e9474f2e30d29c04e0 -->
<g id="edge27" class="edge">
<title>dir_c4f8a341900d529ea5f1c2b568ba3222&#45;&gt;dir_051dca18e802f8e9474f2e30d29c04e0</title>
<path fill="none" stroke="#000000" d="M303.5037,-359.9555C306.6405,-322.3144 313.9011,-235.1867 317.6563,-190.1246"/>
<polygon fill="#000000" stroke="#000000" points="321.1453,-190.4012 318.4879,-180.1451 314.1695,-189.8198 321.1453,-190.4012"/>
<g id="a_edge27&#45;headlabel"><a xlink:href="dir_000124_000040.html" target="_top" xlink:title="1">
<text text-anchor="middle" x="323.6763" y="-191.7192" font-family="Helvetica,sans-Serif" font-size="10.00" fill="#000000">1</text>
</a>
</g>
</g>
<!-- dir_183e7c4434404fe9096e1bd8673e1fcf -->
<g id="node7" class="node">
<title>dir_183e7c4434404fe9096e1bd8673e1fcf</title>
<g id="a_node7"><a xlink:href="dir_183e7c4434404fe9096e1bd8673e1fcf.html" target="_top" xlink:title="Headers">
<polygon fill="none" stroke="#ff0000" points="509.5,-108 452.5,-108 452.5,-72 509.5,-72 509.5,-108"/>
<text text-anchor="middle" x="481" y="-87.5" font-family="Helvetica,sans-Serif" font-size="10.00" fill="#000000">Headers</text>
</a>
</g>
</g>
<!-- dir_c4f8a341900d529ea5f1c2b568ba3222&#45;&gt;dir_183e7c4434404fe9096e1bd8673e1fcf -->
<g id="edge28" class="edge">
<title>dir_c4f8a341900d529ea5f1c2b568ba3222&#45;&gt;dir_183e7c4434404fe9096e1bd8673e1fcf</title>
<path fill="none" stroke="#000000" d="M321.2526,-359.9105C334.392,-347.3492 350.3934,-331.5616 356,-324 407.0065,-255.2076 449.8614,-162.9016 469.4981,-117.5293"/>
<polygon fill="#000000" stroke="#000000" points="472.8294,-118.641 473.5486,-108.0706 466.3946,-115.8855 472.8294,-118.641"/>
<g id="a_edge28&#45;headlabel"><a xlink:href="dir_000124_000081.html" target="_top" xlink:title="1">
<text text-anchor="middle" x="474.0245" y="-120.5631" font-family="Helvetica,sans-Serif" font-size="10.00" fill="#000000">1</text>
</a>
</g>
</g>
<!-- dir_c4f8a341900d529ea5f1c2b568ba3222&#45;&gt;dir_047746f9f311f49446db9474b7431d0d -->
<g id="edge29" class="edge">
<title>dir_c4f8a341900d529ea5f1c2b568ba3222&#45;&gt;dir_047746f9f311f49446db9474b7431d0d</title>
<path fill="none" stroke="#000000" d="M293.3023,-359.8971C288.6904,-349.5924 283.3092,-336.3185 280,-324 260.5946,-251.7636 258.2148,-162.9457 258.4262,-118.3683"/>
<polygon fill="#000000" stroke="#000000" points="261.9268,-118.3113 258.5233,-108.2781 254.9272,-118.2439 261.9268,-118.3113"/>
<g id="a_edge29&#45;headlabel"><a xlink:href="dir_000124_000246.html" target="_top" xlink:title="3">
<text text-anchor="middle" x="264.7315" y="-119.433" font-family="Helvetica,sans-Serif" font-size="10.00" fill="#000000">3</text>
</a>
</g>
</g>
<!-- dir_74593c7a91e03746ae2a516888bf9494 -->
<g id="node9" class="node">
<title>dir_74593c7a91e03746ae2a516888bf9494</title>
<g id="a_node9"><a xlink:href="dir_74593c7a91e03746ae2a516888bf9494.html" target="_top" xlink:title="Common">
<polygon fill="none" stroke="#ff0000" points="507.5,-324 446.5,-324 446.5,-288 507.5,-288 507.5,-324"/>
<text text-anchor="middle" x="477" y="-303.5" font-family="Helvetica,sans-Serif" font-size="10.00" fill="#000000">Common</text>
</a>
</g>
</g>
<!-- dir_c4f8a341900d529ea5f1c2b568ba3222&#45;&gt;dir_74593c7a91e03746ae2a516888bf9494 -->
<g id="edge30" class="edge">
<title>dir_c4f8a341900d529ea5f1c2b568ba3222&#45;&gt;dir_74593c7a91e03746ae2a516888bf9494</title>
<path fill="none" stroke="#000000" d="M317.3317,-359.9608C323.2292,-354.0563 330.3876,-347.9945 338,-344 375.8221,-324.1535 391.1331,-336.4213 432,-324 433.4592,-323.5565 434.9373,-323.0855 436.4244,-322.5933"/>
<polygon fill="#000000" stroke="#000000" points="438.0104,-325.7443 446.2627,-319.0998 435.668,-319.1478 438.0104,-325.7443"/>
<g id="a_edge30&#45;headlabel"><a xlink:href="dir_000124_000088.html" target="_top" xlink:title="1">
<text text-anchor="middle" x="435.573" y="-327.1227" font-family="Helvetica,sans-Serif" font-size="10.00" fill="#000000">1</text>
</a>
</g>
</g>
<!-- dir_c4f8a341900d529ea5f1c2b568ba3222&#45;&gt;dir_7924ba4398ae4560cd37376e44666c6d -->
<g id="edge31" class="edge">
<title>dir_c4f8a341900d529ea5f1c2b568ba3222&#45;&gt;dir_7924ba4398ae4560cd37376e44666c6d</title>
<path fill="none" stroke="#000000" d="M312.9549,-359.7648C335.2447,-320.3386 382.0511,-224.2395 361,-144 351.2392,-106.7954 327.737,-68.9997 310.4339,-44.6422"/>
<polygon fill="#000000" stroke="#000000" points="313.085,-42.3365 304.3764,-36.3023 307.4213,-46.4502 313.085,-42.3365"/>
<g id="a_edge31&#45;headlabel"><a xlink:href="dir_000124_000078.html" target="_top" xlink:title="11">
<text text-anchor="middle" x="317.4947" y="-41.0763" font-family="Helvetica,sans-Serif" font-size="10.00" fill="#000000">11</text>
</a>
</g>
</g>
<!-- dir_bcbb2cf9a3d3d83e5515c82071a07177 -->
<g id="node11" class="node">
<title>dir_bcbb2cf9a3d3d83e5515c82071a07177</title>
<g id="a_node11"><a xlink:href="dir_bcbb2cf9a3d3d83e5515c82071a07177.html" target="_top" xlink:title="Framework">
<polygon fill="none" stroke="#ff0000" points="555.5,-252 484.5,-252 484.5,-216 555.5,-216 555.5,-252"/>
<text text-anchor="middle" x="520" y="-231.5" font-family="Helvetica,sans-Serif" font-size="10.00" fill="#000000">Framework</text>
</a>
</g>
</g>
<!-- dir_c4f8a341900d529ea5f1c2b568ba3222&#45;&gt;dir_bcbb2cf9a3d3d83e5515c82071a07177 -->
<g id="edge32" class="edge">
<title>dir_c4f8a341900d529ea5f1c2b568ba3222&#45;&gt;dir_bcbb2cf9a3d3d83e5515c82071a07177</title>
<path fill="none" stroke="#000000" d="M318.3639,-359.8124C324.1423,-354.1728 330.9639,-348.3132 338,-344 360.532,-330.1877 370.9913,-337.0027 394,-324 415.9974,-311.5688 417.6439,-302.9683 438,-288 452.2155,-277.547 468.3422,-266.7182 482.5101,-257.5267"/>
<polygon fill="#000000" stroke="#000000" points="484.5299,-260.389 491.0439,-252.0332 480.7409,-254.5031 484.5299,-260.389"/>
<g id="a_edge32&#45;headlabel"><a xlink:href="dir_000124_000014.html" target="_top" xlink:title="4">
<text text-anchor="middle" x="483.0442" y="-262.222" font-family="Helvetica,sans-Serif" font-size="10.00" fill="#000000">4</text>
</a>
</g>
</g>
<!-- dir_f4f1e38aba3110f726ddf74e738f6d97 -->
<g id="node4" class="node">
<title>dir_f4f1e38aba3110f726ddf74e738f6d97</title>
<g id="a_node4"><a xlink:href="dir_f4f1e38aba3110f726ddf74e738f6d97.html" target="_top" xlink:title="FV0">
<polygon fill="#ffffff" stroke="#ff0000" points="257,-396 203,-396 203,-360 257,-360 257,-396"/>
<text text-anchor="middle" x="230" y="-375.5" font-family="Helvetica,sans-Serif" font-size="10.00" fill="#000000">FV0</text>
</a>
</g>
</g>
<!-- dir_f4f1e38aba3110f726ddf74e738f6d97&#45;&gt;dir_4ab6b4cc6a7edbff49100e9123df213f -->
<g id="edge33" class="edge">
<title>dir_f4f1e38aba3110f726ddf74e738f6d97&#45;&gt;dir_4ab6b4cc6a7edbff49100e9123df213f</title>
<path fill="none" stroke="#000000" d="M235.7294,-396.0384C242.2342,-413.1355 254.6695,-437.8155 275,-449 325.2335,-476.6352 349.1088,-465.555 404,-449 434.0155,-439.9474 463.3421,-419.4161 483.6795,-402.7487"/>
<polygon fill="#000000" stroke="#000000" points="486.1571,-405.238 491.552,-396.1196 481.6482,-399.8835 486.1571,-405.238"/>
<g id="a_edge33&#45;headlabel"><a xlink:href="dir_000191_000028.html" target="_top" xlink:title="1">
<text text-anchor="middle" x="485.2362" y="-407.2252" font-family="Helvetica,sans-Serif" font-size="10.00" fill="#000000">1</text>
</a>
</g>
</g>
<!-- dir_f4f1e38aba3110f726ddf74e738f6d97&#45;&gt;dir_047746f9f311f49446db9474b7431d0d -->
<g id="edge34" class="edge">
<title>dir_f4f1e38aba3110f726ddf74e738f6d97&#45;&gt;dir_047746f9f311f49446db9474b7431d0d</title>
<path fill="none" stroke="#000000" d="M210.7362,-359.9188C197.5911,-347.3616 181.5877,-331.5756 176,-324 127.4663,-258.1994 93.4986,-212.592 138,-144 154.8751,-117.9896 187.5212,-104.3993 214.6541,-97.3608"/>
<polygon fill="#000000" stroke="#000000" points="215.8149,-100.6828 224.7388,-94.9718 214.2013,-93.8713 215.8149,-100.6828"/>
<g id="a_edge34&#45;headlabel"><a xlink:href="dir_000191_000246.html" target="_top" xlink:title="1">
<text text-anchor="middle" x="212.9716" y="-101.7741" font-family="Helvetica,sans-Serif" font-size="10.00" fill="#000000">1</text>
</a>
</g>
</g>
<!-- dir_f4f1e38aba3110f726ddf74e738f6d97&#45;&gt;dir_7924ba4398ae4560cd37376e44666c6d -->
<g id="edge35" class="edge">
<title>dir_f4f1e38aba3110f726ddf74e738f6d97&#45;&gt;dir_7924ba4398ae4560cd37376e44666c6d</title>
<path fill="none" stroke="#000000" d="M223.2995,-359.805C206.2543,-310.3125 166.0047,-170.3744 216,-72 223.625,-56.9966 237.5904,-45.17 251.3516,-36.4575"/>
<polygon fill="#000000" stroke="#000000" points="253.4625,-39.2758 260.2965,-31.1797 249.9053,-33.247 253.4625,-39.2758"/>
<g id="a_edge35&#45;headlabel"><a xlink:href="dir_000191_000078.html" target="_top" xlink:title="2">
<text text-anchor="middle" x="251.8094" y="-41.0478" font-family="Helvetica,sans-Serif" font-size="10.00" fill="#000000">2</text>
</a>
</g>
</g>
<!-- dir_4ab6b4cc6a7edbff49100e9123df213f&#45;&gt;dir_74593c7a91e03746ae2a516888bf9494 -->
<g id="edge1" class="edge">
<title>dir_4ab6b4cc6a7edbff49100e9123df213f&#45;&gt;dir_74593c7a91e03746ae2a516888bf9494</title>
<path fill="none" stroke="#000000" d="M496.468,-359.8314C491.9848,-351.9617 487.3365,-342.5712 483.559,-333.8533"/>
<polygon fill="#000000" stroke="#000000" points="486.7291,-332.3575 479.7191,-324.4133 480.245,-334.9951 486.7291,-332.3575"/>
<g id="a_edge1&#45;headlabel"><a xlink:href="dir_000028_000088.html" target="_top" xlink:title="1">
<text text-anchor="middle" x="490.7134" y="-332.1175" font-family="Helvetica,sans-Serif" font-size="10.00" fill="#000000">1</text>
</a>
</g>
</g>
<!-- dir_4ab6b4cc6a7edbff49100e9123df213f&#45;&gt;dir_bcbb2cf9a3d3d83e5515c82071a07177 -->
<g id="edge2" class="edge">
<title>dir_4ab6b4cc6a7edbff49100e9123df213f&#45;&gt;dir_bcbb2cf9a3d3d83e5515c82071a07177</title>
<path fill="none" stroke="#000000" d="M505.4821,-359.5381C505.6783,-349.1211 507.1451,-335.8544 508,-324 509.4806,-303.4682 510.2318,-280.2477 511.8368,-262.5361"/>
<polygon fill="#000000" stroke="#000000" points="515.349,-262.6154 512.9607,-252.2933 508.3908,-261.8519 515.349,-262.6154"/>
<g id="a_edge2&#45;headlabel"><a xlink:href="dir_000028_000014.html" target="_top" xlink:title="2">
<text text-anchor="middle" x="517.7794" y="-263.9982" font-family="Helvetica,sans-Serif" font-size="10.00" fill="#000000">2</text>
</a>
</g>
</g>
<!-- dir_051dca18e802f8e9474f2e30d29c04e0&#45;&gt;dir_a5e2f96db9c63d5e1b2e8bbeecdeca98 -->
<g id="edge5" class="edge">
<title>dir_051dca18e802f8e9474f2e30d29c04e0&#45;&gt;dir_a5e2f96db9c63d5e1b2e8bbeecdeca98</title>
<path fill="none" stroke="#000000" d="M297.376,-180.2289C285.797,-190.1487 271.8871,-203.0211 261,-216 224.3501,-259.6917 190.6779,-317.3507 172.3763,-350.7862"/>
<polygon fill="#000000" stroke="#000000" points="169.102,-349.4828 167.4178,-359.9429 175.2574,-352.8161 169.102,-349.4828"/>
<g id="a_edge5&#45;headlabel"><a xlink:href="dir_000040_000121.html" target="_top" xlink:title="16">
<text text-anchor="middle" x="168.3169" y="-342.4699" font-family="Helvetica,sans-Serif" font-size="10.00" fill="#000000">16</text>
</a>
</g>
</g>
<!-- dir_051dca18e802f8e9474f2e30d29c04e0&#45;&gt;dir_c4f8a341900d529ea5f1c2b568ba3222 -->
<g id="edge10" class="edge">
<title>dir_051dca18e802f8e9474f2e30d29c04e0&#45;&gt;dir_c4f8a341900d529ea5f1c2b568ba3222</title>
<path fill="none" stroke="#000000" d="M306.6438,-180.4863C300.2492,-190.4765 293.282,-203.3343 290,-216 278.1269,-261.8199 286.9799,-317.1913 294.4859,-349.8956"/>
<polygon fill="#000000" stroke="#000000" points="291.0982,-350.7775 296.8476,-359.6766 297.9026,-349.1344 291.0982,-350.7775"/>
<g id="a_edge10&#45;headlabel"><a xlink:href="dir_000040_000124.html" target="_top" xlink:title="53">
<text text-anchor="middle" x="287.4946" y="-345.4497" font-family="Helvetica,sans-Serif" font-size="10.00" fill="#000000">53</text>
</a>
</g>
</g>
<!-- dir_051dca18e802f8e9474f2e30d29c04e0&#45;&gt;dir_f4f1e38aba3110f726ddf74e738f6d97 -->
<g id="edge11" class="edge">
<title>dir_051dca18e802f8e9474f2e30d29c04e0&#45;&gt;dir_f4f1e38aba3110f726ddf74e738f6d97</title>
<path fill="none" stroke="#000000" d="M303.8772,-180.458C295.8123,-190.4405 286.4266,-203.2999 280,-216 257.575,-260.3158 242.9893,-316.5937 235.6513,-349.811"/>
<polygon fill="#000000" stroke="#000000" points="232.1965,-349.2297 233.5227,-359.7412 239.041,-350.6969 232.1965,-349.2297"/>
<g id="a_edge11&#45;headlabel"><a xlink:href="dir_000040_000191.html" target="_top" xlink:title="3">
<text text-anchor="middle" x="230.1736" y="-342.6198" font-family="Helvetica,sans-Serif" font-size="10.00" fill="#000000">3</text>
</a>
</g>
</g>
<!-- dir_051dca18e802f8e9474f2e30d29c04e0&#45;&gt;dir_4ab6b4cc6a7edbff49100e9123df213f -->
<g id="edge3" class="edge">
<title>dir_051dca18e802f8e9474f2e30d29c04e0&#45;&gt;dir_4ab6b4cc6a7edbff49100e9123df213f</title>
<path fill="none" stroke="#000000" d="M352.4267,-164.2488C412.7897,-169.1821 538.6716,-183.2367 565,-216 597.4418,-256.3709 560.4604,-317.0826 533.6977,-351.5741"/>
<polygon fill="#000000" stroke="#000000" points="530.6724,-349.7534 527.1623,-359.7499 536.1401,-354.1242 530.6724,-349.7534"/>
<g id="a_edge3&#45;headlabel"><a xlink:href="dir_000040_000028.html" target="_top" xlink:title="276">
<text text-anchor="middle" x="530.699" y="-342.6728" font-family="Helvetica,sans-Serif" font-size="10.00" fill="#000000">276</text>
</a>
</g>
</g>
<!-- dir_051dca18e802f8e9474f2e30d29c04e0&#45;&gt;dir_183e7c4434404fe9096e1bd8673e1fcf -->
<g id="edge4" class="edge">
<title>dir_051dca18e802f8e9474f2e30d29c04e0&#45;&gt;dir_183e7c4434404fe9096e1bd8673e1fcf</title>
<path fill="none" stroke="#000000" d="M352.1938,-147.6028C378.3796,-135.8924 415.3869,-119.3425 443.0195,-106.9851"/>
<polygon fill="#000000" stroke="#000000" points="444.6695,-110.0813 452.3694,-102.8038 441.8118,-103.6912 444.6695,-110.0813"/>
<g id="a_edge4&#45;headlabel"><a xlink:href="dir_000040_000081.html" target="_top" xlink:title="88">
<text text-anchor="middle" x="442.5472" y="-111.6406" font-family="Helvetica,sans-Serif" font-size="10.00" fill="#000000">88</text>
</a>
</g>
</g>
<!-- dir_051dca18e802f8e9474f2e30d29c04e0&#45;&gt;dir_047746f9f311f49446db9474b7431d0d -->
<g id="edge6" class="edge">
<title>dir_051dca18e802f8e9474f2e30d29c04e0&#45;&gt;dir_047746f9f311f49446db9474b7431d0d</title>
<path fill="none" stroke="#000000" d="M298.6547,-143.8314C290.8208,-135.5386 282.1701,-125.557 274.8774,-116.4533"/>
<polygon fill="#000000" stroke="#000000" points="277.5263,-114.1581 268.6241,-108.4133 272.0007,-118.4556 277.5263,-114.1581"/>
<g id="a_edge6&#45;headlabel"><a xlink:href="dir_000040_000246.html" target="_top" xlink:title="256">
<text text-anchor="middle" x="281.9743" y="-112.7524" font-family="Helvetica,sans-Serif" font-size="10.00" fill="#000000">256</text>
</a>
</g>
</g>
<!-- dir_051dca18e802f8e9474f2e30d29c04e0&#45;&gt;dir_74593c7a91e03746ae2a516888bf9494 -->
<g id="edge7" class="edge">
<title>dir_051dca18e802f8e9474f2e30d29c04e0&#45;&gt;dir_74593c7a91e03746ae2a516888bf9494</title>
<path fill="none" stroke="#000000" d="M339.7227,-180.0896C367.4744,-205.5434 418.1606,-252.0326 449.5711,-280.8423"/>
<polygon fill="#000000" stroke="#000000" points="447.3804,-283.5823 457.1158,-287.7623 452.112,-278.4235 447.3804,-283.5823"/>
<g id="a_edge7&#45;headlabel"><a xlink:href="dir_000040_000088.html" target="_top" xlink:title="65">
<text text-anchor="middle" x="442.8122" y="-280.745" font-family="Helvetica,sans-Serif" font-size="10.00" fill="#000000">65</text>
</a>
</g>
</g>
<!-- dir_051dca18e802f8e9474f2e30d29c04e0&#45;&gt;dir_7924ba4398ae4560cd37376e44666c6d -->
<g id="edge8" class="edge">
<title>dir_051dca18e802f8e9474f2e30d29c04e0&#45;&gt;dir_7924ba4398ae4560cd37376e44666c6d</title>
<path fill="none" stroke="#000000" d="M316.4594,-143.7051C312.9091,-125.504 307.2327,-96.7895 302,-72 300.2427,-63.6752 298.2646,-54.645 296.4289,-46.3948"/>
<polygon fill="#000000" stroke="#000000" points="299.8078,-45.4668 294.2072,-36.4733 292.977,-46.9965 299.8078,-45.4668"/>
<g id="a_edge8&#45;headlabel"><a xlink:href="dir_000040_000078.html" target="_top" xlink:title="49">
<text text-anchor="middle" x="303.3639" y="-45.8541" font-family="Helvetica,sans-Serif" font-size="10.00" fill="#000000">49</text>
</a>
</g>
</g>
<!-- dir_051dca18e802f8e9474f2e30d29c04e0&#45;&gt;dir_bcbb2cf9a3d3d83e5515c82071a07177 -->
<g id="edge9" class="edge">
<title>dir_051dca18e802f8e9474f2e30d29c04e0&#45;&gt;dir_bcbb2cf9a3d3d83e5515c82071a07177</title>
<path fill="none" stroke="#000000" d="M352.1091,-171.8274C385.291,-183.0156 437.1466,-201.5424 474.5076,-215.4673"/>
<polygon fill="#000000" stroke="#000000" points="473.5603,-218.8499 484.1526,-219.0816 476.0166,-212.295 473.5603,-218.8499"/>
<g id="a_edge9&#45;headlabel"><a xlink:href="dir_000040_000014.html" target="_top" xlink:title="809">
<text text-anchor="middle" x="469.198" y="-217.7473" font-family="Helvetica,sans-Serif" font-size="10.00" fill="#000000">809</text>
</a>
</g>
</g>
<!-- dir_047746f9f311f49446db9474b7431d0d&#45;&gt;dir_4ab6b4cc6a7edbff49100e9123df213f -->
<g id="edge15" class="edge">
<title>dir_047746f9f311f49446db9474b7431d0d&#45;&gt;dir_4ab6b4cc6a7edbff49100e9123df213f</title>
<path fill="none" stroke="#000000" d="M293.187,-98.0541C369.6649,-116.8352 550.5607,-165.7669 585,-216 612.2361,-255.7265 599.1329,-281.7523 576,-324 569.7175,-335.4738 559.9261,-345.5058 549.8323,-353.7084"/>
<polygon fill="#000000" stroke="#000000" points="547.561,-351.0389 541.7337,-359.8872 551.807,-356.6041 547.561,-351.0389"/>
<g id="a_edge15&#45;headlabel"><a xlink:href="dir_000246_000028.html" target="_top" xlink:title="5">
<text text-anchor="middle" x="548.6967" y="-344.1012" font-family="Helvetica,sans-Serif" font-size="10.00" fill="#000000">5</text>
</a>
</g>
</g>
<!-- dir_047746f9f311f49446db9474b7431d0d&#45;&gt;dir_051dca18e802f8e9474f2e30d29c04e0 -->
<g id="edge16" class="edge">
<title>dir_047746f9f311f49446db9474b7431d0d&#45;&gt;dir_051dca18e802f8e9474f2e30d29c04e0</title>
<path fill="none" stroke="#000000" d="M280.5761,-108.4133C288.4259,-116.7389 297.071,-126.7282 304.3369,-135.8144"/>
<polygon fill="#000000" stroke="#000000" points="301.6631,-138.0778 310.5595,-143.8314 307.1928,-133.7857 301.6631,-138.0778"/>
<g id="a_edge16&#45;headlabel"><a xlink:href="dir_000246_000040.html" target="_top" xlink:title="1">
<text text-anchor="middle" x="297.2161" y="-134.4791" font-family="Helvetica,sans-Serif" font-size="10.00" fill="#000000">1</text>
</a>
</g>
</g>
<!-- dir_047746f9f311f49446db9474b7431d0d&#45;&gt;dir_74593c7a91e03746ae2a516888bf9494 -->
<g id="edge17" class="edge">
<title>dir_047746f9f311f49446db9474b7431d0d&#45;&gt;dir_74593c7a91e03746ae2a516888bf9494</title>
<path fill="none" stroke="#000000" d="M259.4006,-108.3232C260.615,-127.5845 264.8555,-158.0769 279,-180 316.327,-237.8548 390.6461,-274.2309 436.8582,-292.276"/>
<polygon fill="#000000" stroke="#000000" points="435.6781,-295.5717 446.2693,-295.8495 438.1631,-289.0275 435.6781,-295.5717"/>
<g id="a_edge17&#45;headlabel"><a xlink:href="dir_000246_000088.html" target="_top" xlink:title="6">
<text text-anchor="middle" x="431.3098" y="-294.45" font-family="Helvetica,sans-Serif" font-size="10.00" fill="#000000">6</text>
</a>
</g>
</g>
<!-- dir_047746f9f311f49446db9474b7431d0d&#45;&gt;dir_7924ba4398ae4560cd37376e44666c6d -->
<g id="edge18" class="edge">
<title>dir_047746f9f311f49446db9474b7431d0d&#45;&gt;dir_7924ba4398ae4560cd37376e44666c6d</title>
<path fill="none" stroke="#000000" d="M266.8226,-71.8314C270.2109,-63.9617 274.2541,-54.5712 278.0076,-45.8533"/>
<polygon fill="#000000" stroke="#000000" points="281.3321,-46.9822 282.0721,-36.4133 274.9027,-44.214 281.3321,-46.9822"/>
<g id="a_edge18&#45;headlabel"><a xlink:href="dir_000246_000078.html" target="_top" xlink:title="2">
<text text-anchor="middle" x="282.5185" y="-48.9066" font-family="Helvetica,sans-Serif" font-size="10.00" fill="#000000">2</text>
</a>
</g>
</g>
<!-- dir_74593c7a91e03746ae2a516888bf9494&#45;&gt;dir_4ab6b4cc6a7edbff49100e9123df213f -->
<g id="edge19" class="edge">
<title>dir_74593c7a91e03746ae2a516888bf9494&#45;&gt;dir_4ab6b4cc6a7edbff49100e9123df213f</title>
<path fill="none" stroke="#000000" d="M491.6712,-324.4133C496.1576,-332.3141 500.7985,-341.7132 504.5579,-350.417"/>
<polygon fill="#000000" stroke="#000000" points="501.3734,-351.8778 508.3728,-359.8314 507.861,-349.2489 501.3734,-351.8778"/>
<g id="a_edge19&#45;headlabel"><a xlink:href="dir_000088_000028.html" target="_top" xlink:title="5">
<text text-anchor="middle" x="497.3921" y="-347.1125" font-family="Helvetica,sans-Serif" font-size="10.00" fill="#000000">5</text>
</a>
</g>
</g>
<!-- dir_74593c7a91e03746ae2a516888bf9494&#45;&gt;dir_183e7c4434404fe9096e1bd8673e1fcf -->
<g id="edge20" class="edge">
<title>dir_74593c7a91e03746ae2a516888bf9494&#45;&gt;dir_183e7c4434404fe9096e1bd8673e1fcf</title>
<path fill="none" stroke="#000000" d="M507.7174,-296.0964C527.9343,-287.794 552.8323,-273.7424 565,-252 591.7539,-204.1935 544.038,-147.0559 510.2506,-115.0056"/>
<polygon fill="#000000" stroke="#000000" points="512.5819,-112.3944 502.8618,-108.1791 507.8317,-117.536 512.5819,-112.3944"/>
<g id="a_edge20&#45;headlabel"><a xlink:href="dir_000088_000081.html" target="_top" xlink:title="1">
<text text-anchor="middle" x="517.1489" y="-110.2483" font-family="Helvetica,sans-Serif" font-size="10.00" fill="#000000">1</text>
</a>
</g>
</g>
<!-- dir_74593c7a91e03746ae2a516888bf9494&#45;&gt;dir_bcbb2cf9a3d3d83e5515c82071a07177 -->
<g id="edge21" class="edge">
<title>dir_74593c7a91e03746ae2a516888bf9494&#45;&gt;dir_bcbb2cf9a3d3d83e5515c82071a07177</title>
<path fill="none" stroke="#000000" d="M487.8507,-287.8314C492.7023,-279.7079 498.5217,-269.9637 503.868,-261.0118"/>
<polygon fill="#000000" stroke="#000000" points="506.8806,-262.7933 509.0032,-252.4133 500.8708,-259.2041 506.8806,-262.7933"/>
<g id="a_edge21&#45;headlabel"><a xlink:href="dir_000088_000014.html" target="_top" xlink:title="2">
<text text-anchor="middle" x="507.4752" y="-264.8352" font-family="Helvetica,sans-Serif" font-size="10.00" fill="#000000">2</text>
</a>
</g>
</g>
<!-- dir_7924ba4398ae4560cd37376e44666c6d&#45;&gt;dir_4ab6b4cc6a7edbff49100e9123df213f -->
<g id="edge22" class="edge">
<title>dir_7924ba4398ae4560cd37376e44666c6d&#45;&gt;dir_4ab6b4cc6a7edbff49100e9123df213f</title>
<path fill="none" stroke="#000000" d="M319.5842,-21.708C414.6231,-34.4344 706,-80.1278 706,-162 706,-234 706,-234 706,-234 706,-310.027 608.8939,-350.4621 551.7328,-367.6782"/>
<polygon fill="#000000" stroke="#000000" points="550.5274,-364.3835 541.8983,-370.5308 552.4775,-371.1064 550.5274,-364.3835"/>
<g id="a_edge22&#45;headlabel"><a xlink:href="dir_000078_000028.html" target="_top" xlink:title="2">
<text text-anchor="middle" x="553.1888" y="-358.1553" font-family="Helvetica,sans-Serif" font-size="10.00" fill="#000000">2</text>
</a>
</g>
</g>
<!-- dir_bcbb2cf9a3d3d83e5515c82071a07177&#45;&gt;dir_4ab6b4cc6a7edbff49100e9123df213f -->
<g id="edge23" class="edge">
<title>dir_bcbb2cf9a3d3d83e5515c82071a07177&#45;&gt;dir_4ab6b4cc6a7edbff49100e9123df213f</title>
<path fill="none" stroke="#000000" d="M526.648,-252.2933C528.5122,-270.4933 527.7879,-299.2068 526,-324 525.3989,-332.3351 524.4953,-341.3685 523.1975,-349.6185"/>
<polygon fill="#000000" stroke="#000000" points="519.7405,-349.064 521.3359,-359.5381 526.6204,-350.3552 519.7405,-349.064"/>
<g id="a_edge23&#45;headlabel"><a xlink:href="dir_000014_000028.html" target="_top" xlink:title="8">
<text text-anchor="middle" x="517.6129" y="-342.5074" font-family="Helvetica,sans-Serif" font-size="10.00" fill="#000000">8</text>
</a>
</g>
</g>
<!-- dir_bcbb2cf9a3d3d83e5515c82071a07177&#45;&gt;dir_051dca18e802f8e9474f2e30d29c04e0 -->
<g id="edge24" class="edge">
<title>dir_bcbb2cf9a3d3d83e5515c82071a07177&#45;&gt;dir_051dca18e802f8e9474f2e30d29c04e0</title>
<path fill="none" stroke="#000000" d="M484.1523,-222.9078C449.8351,-211.2615 398.2614,-192.7938 362.0417,-179.2443"/>
<polygon fill="#000000" stroke="#000000" points="362.8522,-175.8097 352.2602,-175.5628 360.3864,-182.361 362.8522,-175.8097"/>
<g id="a_edge24&#45;headlabel"><a xlink:href="dir_000014_000040.html" target="_top" xlink:title="4">
<text text-anchor="middle" x="367.2165" y="-171.9185" font-family="Helvetica,sans-Serif" font-size="10.00" fill="#000000">4</text>
</a>
</g>
</g>
<!-- dir_bcbb2cf9a3d3d83e5515c82071a07177&#45;&gt;dir_183e7c4434404fe9096e1bd8673e1fcf -->
<g id="edge25" class="edge">
<title>dir_bcbb2cf9a3d3d83e5515c82071a07177&#45;&gt;dir_183e7c4434404fe9096e1bd8673e1fcf</title>
<path fill="none" stroke="#000000" d="M515.0606,-215.7623C508.3793,-191.0928 496.3995,-146.8598 488.576,-117.9731"/>
<polygon fill="#000000" stroke="#000000" points="491.8918,-116.8269 485.8993,-108.0896 485.1352,-118.6569 491.8918,-116.8269"/>
<g id="a_edge25&#45;headlabel"><a xlink:href="dir_000014_000081.html" target="_top" xlink:title="73">
<text text-anchor="middle" x="495.5719" y="-117.0543" font-family="Helvetica,sans-Serif" font-size="10.00" fill="#000000">73</text>
</a>
</g>
</g>
</g>
</svg>
        <g id="navigator" transform="translate(0 0)" fill="#404254">
                <rect fill="#f2f5e9" fill-opacity="0.5" stroke="#606060" stroke-width=".5" x="0" y="0" width="60" height="60"/>
                <use id="zoomplus" xlink:href="#zoomPlus" x="17" y="9" onmousedown="handleZoom(evt,'in')"/>
                <use id="zoomminus" xlink:href="#zoomMin" x="42" y="9" onmousedown="handleZoom(evt,'out')"/>
                <use id="reset" xlink:href="#resetDef" x="30" y="36" onmousedown="handleReset()"/>
                <g id="arrowUp" xlink:href="#dirArrow" transform="translate(30 24)" onmousedown="handlePan(0,-1)">
                  <use xlink:href="#rim" fill="#404040">
                        <set attributeName="fill" to="#808080" begin="arrowUp.mouseover" end="arrowUp.mouseout"/>
                  </use>
                  <path fill="none" stroke="white" stroke-width="1.5" d="M0,-3.0v7 M-2.5,-0.5L0,-3.0L2.5,-0.5"/>
                </g>
                <g id="arrowRight" xlink:href="#dirArrow" transform="rotate(90) translate(36 -43)" onmousedown="handlePan(1,0)">
                  <use xlink:href="#rim" fill="#404040">
                        <set attributeName="fill" to="#808080" begin="arrowRight.mouseover" end="arrowRight.mouseout"/>
                  </use>
                  <path fill="none" stroke="white" stroke-width="1.5" d="M0,-3.0v7 M-2.5,-0.5L0,-3.0L2.5,-0.5"/>
                </g>
                <g id="arrowDown" xlink:href="#dirArrow" transform="rotate(180) translate(-30 -48)" onmousedown="handlePan(0,1)">
                  <use xlink:href="#rim" fill="#404040">
                        <set attributeName="fill" to="#808080" begin="arrowDown.mouseover" end="arrowDown.mouseout"/>
                  </use>
                  <path fill="none" stroke="white" stroke-width="1.5" d="M0,-3.0v7 M-2.5,-0.5L0,-3.0L2.5,-0.5"/>
                </g>
                <g id="arrowLeft" xlink:href="#dirArrow" transform="rotate(270) translate(-36 17)" onmousedown="handlePan(-1,0)">
                  <use xlink:href="#rim" fill="#404040">
                        <set attributeName="fill" to="#808080" begin="arrowLeft.mouseover" end="arrowLeft.mouseout"/>
                  </use>
                  <path fill="none" stroke="white" stroke-width="1.5" d="M0,-3.0v7 M-2.5,-0.5L0,-3.0L2.5,-0.5"/>
                </g>
        </g>
        <svg viewBox="0 0 15 15" width="100%" height="30px" preserveAspectRatio="xMaxYMin meet">
         <g id="arrow_out" transform="scale(0.3 0.3)">
          <a xlink:href="dir_6f689773863a160ed4e9bc61c1008ba5_dep_org.svg" target="_base">
           <rect id="button" ry="5" rx="5" y="6" x="6" height="38" width="38"
                fill="#f2f5e9" fill-opacity="0.5" stroke="#606060" stroke-width="1.0"/>
           <path id="arrow"
             d="M 11.500037,31.436501 C 11.940474,20.09759 22.043105,11.32322 32.158766,21.979434 L 37.068811,17.246167 C 37.068811,17.246167 37.088388,32 37.088388,32 L 22.160133,31.978069 C 22.160133,31.978069 26.997745,27.140456 26.997745,27.140456 C 18.528582,18.264221 13.291696,25.230495 11.500037,31.436501 z"
             style="fill:#404040;"/>
          </a>
         </g>
        </svg>
</svg>
