<?xml version="1.0" encoding="UTF-8" standalone="no"?>
<!DOCTYPE svg PUBLIC "-//W3C//DTD SVG 1.1//EN"
 "http://www.w3.org/Graphics/SVG/1.1/DTD/svg11.dtd">
<!-- Generated by graphviz version 2.40.1 (20161225.0304)
 -->
<!-- Title: /home/travis/build/AliceO2Group/AliceO2/Detectors/FIT/FT0/workflow Pages: 1 -->
<svg width="323pt" height="447pt"
 viewBox="0.00 0.00 322.69 447.00" xmlns="http://www.w3.org/2000/svg" xmlns:xlink="http://www.w3.org/1999/xlink">
<g id="graph0" class="graph" transform="scale(1 1) rotate(0) translate(4 443)">
<title>/home/travis/build/AliceO2Group/AliceO2/Detectors/FIT/FT0/workflow</title>
<g id="clust1" class="cluster">
<title>clusterdir_732f729910dd598014f768fa2866f334</title>
<g id="a_clust1"><a xlink:href="dir_732f729910dd598014f768fa2866f334.html" target="_top" xlink:title="FT0">
<polygon fill="#ddddee" stroke="#000000" points="88,-272 88,-431 254,-431 254,-272 88,-272"/>
<text text-anchor="middle" x="171" y="-419" font-family="Helvetica,sans-Serif" font-size="10.00" fill="#000000">FT0</text>
</a>
</g>
</g>
<g id="clust2" class="cluster">
<title>clusterdir_db2620e5be5f5f7bc69e8ed28a3729c7</title>
<g id="a_clust2"><a xlink:href="dir_db2620e5be5f5f7bc69e8ed28a3729c7.html" target="_top">
<polygon fill="#eeeeff" stroke="#000000" points="96,-280 96,-404 246,-404 246,-280 96,-280"/>
</a>
</g>
</g>
<!-- dir_db2620e5be5f5f7bc69e8ed28a3729c7 -->
<g id="node1" class="node">
<title>dir_db2620e5be5f5f7bc69e8ed28a3729c7</title>
<text text-anchor="middle" x="207" y="-375.5" font-family="Helvetica,sans-Serif" font-size="10.00" fill="#000000">workflow</text>
</g>
<!-- dir_ddefa1c93b06b88863ed284983804d8f -->
<g id="node2" class="node">
<title>dir_ddefa1c93b06b88863ed284983804d8f</title>
<g id="a_node2"><a xlink:href="dir_ddefa1c93b06b88863ed284983804d8f.html" target="_top" xlink:title="include">
<polygon fill="#ffffff" stroke="#ff0000" points="158,-324 104,-324 104,-288 158,-288 158,-324"/>
<text text-anchor="middle" x="131" y="-303.5" font-family="Helvetica,sans-Serif" font-size="10.00" fill="#000000">include</text>
</a>
</g>
</g>
<!-- dir_e62a450b26de845460eb308fa2db0683 -->
<g id="node4" class="node">
<title>dir_e62a450b26de845460eb308fa2db0683</title>
<g id="a_node4"><a xlink:href="dir_e62a450b26de845460eb308fa2db0683.html" target="_top" xlink:title="raw">
<polygon fill="none" stroke="#ff0000" points="120,-252 66,-252 66,-216 120,-216 120,-252"/>
<text text-anchor="middle" x="93" y="-231.5" font-family="Helvetica,sans-Serif" font-size="10.00" fill="#000000">raw</text>
</a>
</g>
</g>
<!-- dir_ddefa1c93b06b88863ed284983804d8f&#45;&gt;dir_e62a450b26de845460eb308fa2db0683 -->
<g id="edge12" class="edge">
<title>dir_ddefa1c93b06b88863ed284983804d8f&#45;&gt;dir_e62a450b26de845460eb308fa2db0683</title>
<path fill="none" stroke="#000000" d="M121.411,-287.8314C117.1683,-279.7925 112.0879,-270.1666 107.404,-261.2918"/>
<polygon fill="#000000" stroke="#000000" points="110.4811,-259.6235 102.7181,-252.4133 104.2904,-262.8908 110.4811,-259.6235"/>
<g id="a_edge12&#45;headlabel"><a xlink:href="dir_000397_000453.html" target="_top" xlink:title="3">
<text text-anchor="middle" x="114.6699" y="-258.9772" font-family="Helvetica,sans-Serif" font-size="10.00" fill="#000000">3</text>
</a>
</g>
</g>
<!-- dir_ca639a046a87a9287b3468a6ba2bbef1 -->
<g id="node6" class="node">
<title>dir_ca639a046a87a9287b3468a6ba2bbef1</title>
<g id="a_node6"><a xlink:href="dir_ca639a046a87a9287b3468a6ba2bbef1.html" target="_top" xlink:title="reconstruction">
<polygon fill="none" stroke="#ff0000" points="300,-252 214,-252 214,-216 300,-216 300,-252"/>
<text text-anchor="middle" x="257" y="-231.5" font-family="Helvetica,sans-Serif" font-size="10.00" fill="#000000">reconstruction</text>
</a>
</g>
</g>
<!-- dir_ddefa1c93b06b88863ed284983804d8f&#45;&gt;dir_ca639a046a87a9287b3468a6ba2bbef1 -->
<g id="edge13" class="edge">
<title>dir_ddefa1c93b06b88863ed284983804d8f&#45;&gt;dir_ca639a046a87a9287b3468a6ba2bbef1</title>
<path fill="none" stroke="#000000" d="M158.0302,-290.5542C175.0096,-280.8517 197.2312,-268.1536 216.3155,-257.2483"/>
<polygon fill="#000000" stroke="#000000" points="218.1673,-260.2213 225.1133,-252.221 214.6943,-254.1436 218.1673,-260.2213"/>
<g id="a_edge13&#45;headlabel"><a xlink:href="dir_000397_000457.html" target="_top" xlink:title="1">
<text text-anchor="middle" x="216.455" y="-261.9698" font-family="Helvetica,sans-Serif" font-size="10.00" fill="#000000">1</text>
</a>
</g>
</g>
<!-- dir_bcbb2cf9a3d3d83e5515c82071a07177 -->
<g id="node7" class="node">
<title>dir_bcbb2cf9a3d3d83e5515c82071a07177</title>
<g id="a_node7"><a xlink:href="dir_bcbb2cf9a3d3d83e5515c82071a07177.html" target="_top" xlink:title="Framework">
<polygon fill="none" stroke="#ff0000" points="165.5,-36 94.5,-36 94.5,0 165.5,0 165.5,-36"/>
<text text-anchor="middle" x="130" y="-15.5" font-family="Helvetica,sans-Serif" font-size="10.00" fill="#000000">Framework</text>
</a>
</g>
</g>
<!-- dir_ddefa1c93b06b88863ed284983804d8f&#45;&gt;dir_bcbb2cf9a3d3d83e5515c82071a07177 -->
<g id="edge14" class="edge">
<title>dir_ddefa1c93b06b88863ed284983804d8f&#45;&gt;dir_bcbb2cf9a3d3d83e5515c82071a07177</title>
<path fill="none" stroke="#000000" d="M103.9239,-294.2385C87.0719,-285.3174 66.7996,-271.2824 57,-252 20.9394,-181.0445 76.5346,-88.8674 109.1076,-44.3507"/>
<polygon fill="#000000" stroke="#000000" points="112.0906,-46.2062 115.2813,-36.1032 106.4867,-42.0113 112.0906,-46.2062"/>
<g id="a_edge14&#45;headlabel"><a xlink:href="dir_000397_000014.html" target="_top" xlink:title="33">
<text text-anchor="middle" x="112.2095" y="-48.2853" font-family="Helvetica,sans-Serif" font-size="10.00" fill="#000000">33</text>
</a>
</g>
</g>
<!-- dir_2171f7ec022c5423887b07c69b2f5b48 -->
<g id="node8" class="node">
<title>dir_2171f7ec022c5423887b07c69b2f5b48</title>
<g id="a_node8"><a xlink:href="dir_2171f7ec022c5423887b07c69b2f5b48.html" target="_top" xlink:title="DataFormats">
<polygon fill="none" stroke="#ff0000" points="189,-180 109,-180 109,-144 189,-144 189,-180"/>
<text text-anchor="middle" x="149" y="-159.5" font-family="Helvetica,sans-Serif" font-size="10.00" fill="#000000">DataFormats</text>
</a>
</g>
</g>
<!-- dir_ddefa1c93b06b88863ed284983804d8f&#45;&gt;dir_2171f7ec022c5423887b07c69b2f5b48 -->
<g id="edge15" class="edge">
<title>dir_ddefa1c93b06b88863ed284983804d8f&#45;&gt;dir_2171f7ec022c5423887b07c69b2f5b48</title>
<path fill="none" stroke="#000000" d="M133.2797,-287.7623C136.3499,-263.201 141.8441,-219.2474 145.4557,-190.3541"/>
<polygon fill="#000000" stroke="#000000" points="148.9713,-190.4465 146.7388,-180.0896 142.0254,-189.5782 148.9713,-190.4465"/>
<g id="a_edge15&#45;headlabel"><a xlink:href="dir_000397_000077.html" target="_top" xlink:title="6">
<text text-anchor="middle" x="151.3429" y="-191.8655" font-family="Helvetica,sans-Serif" font-size="10.00" fill="#000000">6</text>
</a>
</g>
</g>
<!-- dir_653475d871d0e907f9d0ff42c790e616 -->
<g id="node3" class="node">
<title>dir_653475d871d0e907f9d0ff42c790e616</title>
<g id="a_node3"><a xlink:href="dir_653475d871d0e907f9d0ff42c790e616.html" target="_top" xlink:title="src">
<polygon fill="#ffffff" stroke="#000000" points="158,-396 104,-396 104,-360 158,-360 158,-396"/>
<text text-anchor="middle" x="131" y="-375.5" font-family="Helvetica,sans-Serif" font-size="10.00" fill="#000000">src</text>
</a>
</g>
</g>
<!-- dir_653475d871d0e907f9d0ff42c790e616&#45;&gt;dir_ddefa1c93b06b88863ed284983804d8f -->
<g id="edge4" class="edge">
<title>dir_653475d871d0e907f9d0ff42c790e616&#45;&gt;dir_ddefa1c93b06b88863ed284983804d8f</title>
<path fill="none" stroke="#000000" d="M131,-359.8314C131,-352.131 131,-342.9743 131,-334.4166"/>
<polygon fill="#000000" stroke="#000000" points="134.5001,-334.4132 131,-324.4133 127.5001,-334.4133 134.5001,-334.4132"/>
<g id="a_edge4&#45;headlabel"><a xlink:href="dir_000411_000397.html" target="_top" xlink:title="20">
<text text-anchor="middle" x="137.3393" y="-335.5079" font-family="Helvetica,sans-Serif" font-size="10.00" fill="#000000">20</text>
</a>
</g>
</g>
<!-- dir_4ab6b4cc6a7edbff49100e9123df213f -->
<g id="node5" class="node">
<title>dir_4ab6b4cc6a7edbff49100e9123df213f</title>
<g id="a_node5"><a xlink:href="dir_4ab6b4cc6a7edbff49100e9123df213f.html" target="_top" xlink:title="Common">
<polygon fill="none" stroke="#ff0000" points="228.5,-108 167.5,-108 167.5,-72 228.5,-72 228.5,-108"/>
<text text-anchor="middle" x="198" y="-87.5" font-family="Helvetica,sans-Serif" font-size="10.00" fill="#000000">Common</text>
</a>
</g>
</g>
<!-- dir_653475d871d0e907f9d0ff42c790e616&#45;&gt;dir_4ab6b4cc6a7edbff49100e9123df213f -->
<g id="edge2" class="edge">
<title>dir_653475d871d0e907f9d0ff42c790e616&#45;&gt;dir_4ab6b4cc6a7edbff49100e9123df213f</title>
<path fill="none" stroke="#000000" d="M158.4564,-364.3389C183.7489,-351.5714 219.2285,-333.1451 232,-324 270.0936,-296.7229 290.3469,-294.9793 309,-252 332.2386,-198.4552 274.7495,-144.0737 234.1158,-113.9227"/>
<polygon fill="#000000" stroke="#000000" points="236.1432,-111.0696 225.9894,-108.0443 232.0404,-116.7412 236.1432,-111.0696"/>
<g id="a_edge2&#45;headlabel"><a xlink:href="dir_000411_000028.html" target="_top" xlink:title="4">
<text text-anchor="middle" x="240.7198" y="-108.3759" font-family="Helvetica,sans-Serif" font-size="10.00" fill="#000000">4</text>
</a>
</g>
</g>
<!-- dir_653475d871d0e907f9d0ff42c790e616&#45;&gt;dir_ca639a046a87a9287b3468a6ba2bbef1 -->
<g id="edge3" class="edge">
<title>dir_653475d871d0e907f9d0ff42c790e616&#45;&gt;dir_ca639a046a87a9287b3468a6ba2bbef1</title>
<path fill="none" stroke="#000000" d="M158.0225,-360.1718C171.5578,-350.456 187.6482,-337.646 200,-324 217.3069,-304.8797 232.6713,-279.8867 243.0745,-261.0914"/>
<polygon fill="#000000" stroke="#000000" points="246.2295,-262.615 247.9079,-252.1539 240.0723,-259.285 246.2295,-262.615"/>
<g id="a_edge3&#45;headlabel"><a xlink:href="dir_000411_000457.html" target="_top" xlink:title="2">
<text text-anchor="middle" x="247.0171" y="-264.6274" font-family="Helvetica,sans-Serif" font-size="10.00" fill="#000000">2</text>
</a>
</g>
</g>
<!-- dir_653475d871d0e907f9d0ff42c790e616&#45;&gt;dir_bcbb2cf9a3d3d83e5515c82071a07177 -->
<g id="edge5" class="edge">
<title>dir_653475d871d0e907f9d0ff42c790e616&#45;&gt;dir_bcbb2cf9a3d3d83e5515c82071a07177</title>
<path fill="none" stroke="#000000" d="M103.8567,-363.9146C65.486,-341.8281 0,-295.1728 0,-234 0,-234 0,-234 0,-162 0,-108.6808 49.7133,-66.239 87.6552,-41.6114"/>
<polygon fill="#000000" stroke="#000000" points="89.9198,-44.3218 96.5218,-36.0354 86.1933,-38.3962 89.9198,-44.3218"/>
<g id="a_edge5&#45;headlabel"><a xlink:href="dir_000411_000014.html" target="_top" xlink:title="19">
<text text-anchor="middle" x="88.3884" y="-46.1389" font-family="Helvetica,sans-Serif" font-size="10.00" fill="#000000">19</text>
</a>
</g>
</g>
<!-- dir_653475d871d0e907f9d0ff42c790e616&#45;&gt;dir_2171f7ec022c5423887b07c69b2f5b48 -->
<g id="edge6" class="edge">
<title>dir_653475d871d0e907f9d0ff42c790e616&#45;&gt;dir_2171f7ec022c5423887b07c69b2f5b48</title>
<path fill="none" stroke="#000000" d="M146.9905,-359.9169C154.6538,-350.0371 163.0166,-337.1563 167,-324 180.7631,-278.5435 168.743,-223.059 158.8313,-190.2337"/>
<polygon fill="#000000" stroke="#000000" points="162.0776,-188.8911 155.7227,-180.4138 155.404,-191.0038 162.0776,-188.8911"/>
<g id="a_edge6&#45;headlabel"><a xlink:href="dir_000411_000077.html" target="_top" xlink:title="9">
<text text-anchor="middle" x="165.8692" y="-188.9613" font-family="Helvetica,sans-Serif" font-size="10.00" fill="#000000">9</text>
</a>
</g>
</g>
<!-- dir_e62a450b26de845460eb308fa2db0683&#45;&gt;dir_2171f7ec022c5423887b07c69b2f5b48 -->
<g id="edge1" class="edge">
<title>dir_e62a450b26de845460eb308fa2db0683&#45;&gt;dir_2171f7ec022c5423887b07c69b2f5b48</title>
<path fill="none" stroke="#000000" d="M107.1312,-215.8314C113.5811,-207.5386 121.3445,-197.557 128.4252,-188.4533"/>
<polygon fill="#000000" stroke="#000000" points="131.3019,-190.4556 134.6786,-180.4133 125.7764,-186.158 131.3019,-190.4556"/>
<g id="a_edge1&#45;headlabel"><a xlink:href="dir_000453_000077.html" target="_top" xlink:title="10">
<text text-anchor="middle" x="131.3362" y="-192.5361" font-family="Helvetica,sans-Serif" font-size="10.00" fill="#000000">10</text>
</a>
</g>
</g>
<!-- dir_4ab6b4cc6a7edbff49100e9123df213f&#45;&gt;dir_bcbb2cf9a3d3d83e5515c82071a07177 -->
<g id="edge7" class="edge">
<title>dir_4ab6b4cc6a7edbff49100e9123df213f&#45;&gt;dir_bcbb2cf9a3d3d83e5515c82071a07177</title>
<path fill="none" stroke="#000000" d="M174.8883,-71.8314C166.16,-63.454 156.4306,-53.3531 148.1994,-44.1749"/>
<polygon fill="#000000" stroke="#000000" points="150.631,-41.6386 141.4143,-36.4133 145.3608,-46.2457 150.631,-41.6386"/>
<g id="a_edge7&#45;headlabel"><a xlink:href="dir_000028_000014.html" target="_top" xlink:title="2">
<text text-anchor="middle" x="155.1344" y="-39.9762" font-family="Helvetica,sans-Serif" font-size="10.00" fill="#000000">2</text>
</a>
</g>
</g>
<!-- dir_4ab6b4cc6a7edbff49100e9123df213f&#45;&gt;dir_2171f7ec022c5423887b07c69b2f5b48 -->
<g id="edge8" class="edge">
<title>dir_4ab6b4cc6a7edbff49100e9123df213f&#45;&gt;dir_2171f7ec022c5423887b07c69b2f5b48</title>
<path fill="none" stroke="#000000" d="M191.4448,-108.4133C186.5748,-116.7389 179.9585,-126.7282 173.3427,-135.8144"/>
<polygon fill="#000000" stroke="#000000" points="170.5275,-133.7346 167.3172,-143.8314 176.1232,-137.9403 170.5275,-133.7346"/>
<g id="a_edge8&#45;headlabel"><a xlink:href="dir_000028_000077.html" target="_top" xlink:title="2">
<text text-anchor="middle" x="170.4175" y="-126.6553" font-family="Helvetica,sans-Serif" font-size="10.00" fill="#000000">2</text>
</a>
</g>
</g>
<!-- dir_ca639a046a87a9287b3468a6ba2bbef1&#45;&gt;dir_4ab6b4cc6a7edbff49100e9123df213f -->
<g id="edge9" class="edge">
<title>dir_ca639a046a87a9287b3468a6ba2bbef1&#45;&gt;dir_4ab6b4cc6a7edbff49100e9123df213f</title>
<path fill="none" stroke="#000000" d="M249.5276,-215.7623C239.3757,-190.9846 221.1376,-146.4714 209.3058,-117.5939"/>
<polygon fill="#000000" stroke="#000000" points="212.4418,-116.0161 205.4117,-108.0896 205.9644,-118.67 212.4418,-116.0161"/>
<g id="a_edge9&#45;headlabel"><a xlink:href="dir_000457_000028.html" target="_top" xlink:title="3">
<text text-anchor="middle" x="216.4319" y="-115.7659" font-family="Helvetica,sans-Serif" font-size="10.00" fill="#000000">3</text>
</a>
</g>
</g>
<!-- dir_ca639a046a87a9287b3468a6ba2bbef1&#45;&gt;dir_bcbb2cf9a3d3d83e5515c82071a07177 -->
<g id="edge10" class="edge">
<title>dir_ca639a046a87a9287b3468a6ba2bbef1&#45;&gt;dir_bcbb2cf9a3d3d83e5515c82071a07177</title>
<path fill="none" stroke="#000000" d="M260.0603,-215.7766C264.4266,-183.5873 268.827,-115.9241 238,-72 223.2088,-50.9247 197.7501,-37.6422 175.2648,-29.5261"/>
<polygon fill="#000000" stroke="#000000" points="176.1161,-26.1199 165.5221,-26.2539 173.8874,-32.7557 176.1161,-26.1199"/>
<g id="a_edge10&#45;headlabel"><a xlink:href="dir_000457_000014.html" target="_top" xlink:title="2">
<text text-anchor="middle" x="180.4276" y="-22.0728" font-family="Helvetica,sans-Serif" font-size="10.00" fill="#000000">2</text>
</a>
</g>
</g>
<!-- dir_ca639a046a87a9287b3468a6ba2bbef1&#45;&gt;dir_2171f7ec022c5423887b07c69b2f5b48 -->
<g id="edge11" class="edge">
<title>dir_ca639a046a87a9287b3468a6ba2bbef1&#45;&gt;dir_2171f7ec022c5423887b07c69b2f5b48</title>
<path fill="none" stroke="#000000" d="M229.747,-215.8314C216.0611,-206.7074 199.3085,-195.539 184.6173,-185.7449"/>
<polygon fill="#000000" stroke="#000000" points="186.5062,-182.7977 176.2442,-180.1628 182.6233,-188.6221 186.5062,-182.7977"/>
<g id="a_edge11&#45;headlabel"><a xlink:href="dir_000457_000077.html" target="_top" xlink:title="26">
<text text-anchor="middle" x="191.072" y="-179.9292" font-family="Helvetica,sans-Serif" font-size="10.00" fill="#000000">26</text>
</a>
</g>
</g>
<!-- dir_bcbb2cf9a3d3d83e5515c82071a07177&#45;&gt;dir_4ab6b4cc6a7edbff49100e9123df213f -->
<g id="edge16" class="edge">
<title>dir_bcbb2cf9a3d3d83e5515c82071a07177&#45;&gt;dir_4ab6b4cc6a7edbff49100e9123df213f</title>
<path fill="none" stroke="#000000" d="M153.1056,-36.1628C161.9006,-44.6038 171.7127,-54.7956 179.9846,-64.0303"/>
<polygon fill="#000000" stroke="#000000" points="177.5806,-66.5987 186.7931,-71.8314 182.8545,-61.9958 177.5806,-66.5987"/>
<g id="a_edge16&#45;headlabel"><a xlink:href="dir_000014_000028.html" target="_top" xlink:title="8">
<text text-anchor="middle" x="173.0779" y="-63.2575" font-family="Helvetica,sans-Serif" font-size="10.00" fill="#000000">8</text>
</a>
</g>
</g>
<!-- dir_bcbb2cf9a3d3d83e5515c82071a07177&#45;&gt;dir_2171f7ec022c5423887b07c69b2f5b48 -->
<g id="edge17" class="edge">
<title>dir_bcbb2cf9a3d3d83e5515c82071a07177&#45;&gt;dir_2171f7ec022c5423887b07c69b2f5b48</title>
<path fill="none" stroke="#000000" d="M137.0451,-36.0896C142.7441,-60.5727 148.8259,-104.5174 150.7447,-133.4713"/>
<polygon fill="#000000" stroke="#000000" points="147.2645,-133.9525 151.2668,-143.7623 154.2556,-133.5978 147.2645,-133.9525"/>
<g id="a_edge17&#45;headlabel"><a xlink:href="dir_000014_000077.html" target="_top" xlink:title="82">
<text text-anchor="middle" x="144.2469" y="-128.0063" font-family="Helvetica,sans-Serif" font-size="10.00" fill="#000000">82</text>
</a>
</g>
</g>
<!-- dir_2171f7ec022c5423887b07c69b2f5b48&#45;&gt;dir_4ab6b4cc6a7edbff49100e9123df213f -->
<g id="edge18" class="edge">
<title>dir_2171f7ec022c5423887b07c69b2f5b48&#45;&gt;dir_4ab6b4cc6a7edbff49100e9123df213f</title>
<path fill="none" stroke="#000000" d="M155.4124,-143.8314C160.2479,-135.5386 166.8469,-125.557 173.4626,-116.4533"/>
<polygon fill="#000000" stroke="#000000" points="176.2926,-118.5133 179.4927,-108.4133 170.6926,-114.3132 176.2926,-118.5133"/>
<g id="a_edge18&#45;headlabel"><a xlink:href="dir_000077_000028.html" target="_top" xlink:title="35">
<text text-anchor="middle" x="176.4072" y="-120.5925" font-family="Helvetica,sans-Serif" font-size="10.00" fill="#000000">35</text>
</a>
</g>
</g>
<!-- dir_2171f7ec022c5423887b07c69b2f5b48&#45;&gt;dir_bcbb2cf9a3d3d83e5515c82071a07177 -->
<g id="edge19" class="edge">
<title>dir_2171f7ec022c5423887b07c69b2f5b48&#45;&gt;dir_bcbb2cf9a3d3d83e5515c82071a07177</title>
<path fill="none" stroke="#000000" d="M141.9205,-143.7623C136.2199,-119.201 130.1457,-75.2474 128.2437,-46.3541"/>
<polygon fill="#000000" stroke="#000000" points="131.7255,-45.9016 127.7285,-36.0896 124.7343,-46.2525 131.7255,-45.9016"/>
<g id="a_edge19&#45;headlabel"><a xlink:href="dir_000077_000014.html" target="_top" xlink:title="12">
<text text-anchor="middle" x="134.7413" y="-46.8494" font-family="Helvetica,sans-Serif" font-size="10.00" fill="#000000">12</text>
</a>
</g>
</g>
</g>
</svg>
