<?xml version="1.0" encoding="UTF-8" standalone="no"?>
<!DOCTYPE svg PUBLIC "-//W3C//DTD SVG 1.1//EN"
 "http://www.w3.org/Graphics/SVG/1.1/DTD/svg11.dtd">
<!-- Generated by graphviz version 2.40.1 (20161225.0304)
 -->
<!-- Title: /home/travis/build/AliceO2Group/AliceO2/Analysis Pages: 1 -->
<svg width="412pt" height="420pt"
 viewBox="0.00 0.00 412.00 420.00" xmlns="http://www.w3.org/2000/svg" xmlns:xlink="http://www.w3.org/1999/xlink">
<g id="graph0" class="graph" transform="scale(1 1) rotate(0) translate(4 416)">
<title>/home/travis/build/AliceO2Group/AliceO2/Analysis</title>
<g id="clust1" class="cluster">
<title>clusterdir_19b17cb436010079e3d017a29cb7858f</title>
<g id="a_clust1"><a xlink:href="dir_19b17cb436010079e3d017a29cb7858f.html" target="_top">
<polygon fill="#eeeeff" stroke="#000000" points="174,-208 174,-404 396,-404 396,-208 174,-208"/>
</a>
</g>
</g>
<!-- dir_19b17cb436010079e3d017a29cb7858f -->
<g id="node1" class="node">
<title>dir_19b17cb436010079e3d017a29cb7858f</title>
<text text-anchor="middle" x="359" y="-375.5" font-family="Helvetica,sans-Serif" font-size="10.00" fill="#000000">Analysis</text>
</g>
<!-- dir_8d04f135a1eb0fdc4d561ef87bbea216 -->
<g id="node2" class="node">
<title>dir_8d04f135a1eb0fdc4d561ef87bbea216</title>
<g id="a_node2"><a xlink:href="dir_8d04f135a1eb0fdc4d561ef87bbea216.html" target="_top" xlink:title="Core">
<polygon fill="#ffffff" stroke="#ff0000" points="238,-252 184,-252 184,-216 238,-216 238,-252"/>
<text text-anchor="middle" x="211" y="-231.5" font-family="Helvetica,sans-Serif" font-size="10.00" fill="#000000">Core</text>
</a>
</g>
</g>
<!-- dir_6af676bf18881990e4083e191d0e63e0 -->
<g id="node7" class="node">
<title>dir_6af676bf18881990e4083e191d0e63e0</title>
<g id="a_node7"><a xlink:href="dir_6af676bf18881990e4083e191d0e63e0.html" target="_top" xlink:title="CCDB">
<polygon fill="none" stroke="#ff0000" points="164,-324 110,-324 110,-288 164,-288 164,-324"/>
<text text-anchor="middle" x="137" y="-303.5" font-family="Helvetica,sans-Serif" font-size="10.00" fill="#000000">CCDB</text>
</a>
</g>
</g>
<!-- dir_8d04f135a1eb0fdc4d561ef87bbea216&#45;&gt;dir_6af676bf18881990e4083e191d0e63e0 -->
<g id="edge24" class="edge">
<title>dir_8d04f135a1eb0fdc4d561ef87bbea216&#45;&gt;dir_6af676bf18881990e4083e191d0e63e0</title>
<path fill="none" stroke="#000000" d="M192.3326,-252.1628C183.4819,-260.7744 172.7584,-271.2081 163.117,-280.5888"/>
<polygon fill="#000000" stroke="#000000" points="160.3999,-278.3492 155.6733,-287.8314 165.2814,-283.3663 160.3999,-278.3492"/>
<g id="a_edge24&#45;headlabel"><a xlink:href="dir_000005_000020.html" target="_top" xlink:title="1">
<text text-anchor="middle" x="160.9962" y="-271.3076" font-family="Helvetica,sans-Serif" font-size="10.00" fill="#000000">1</text>
</a>
</g>
</g>
<!-- dir_bcbb2cf9a3d3d83e5515c82071a07177 -->
<g id="node9" class="node">
<title>dir_bcbb2cf9a3d3d83e5515c82071a07177</title>
<g id="a_node9"><a xlink:href="dir_bcbb2cf9a3d3d83e5515c82071a07177.html" target="_top" xlink:title="Framework">
<polygon fill="none" stroke="#ff0000" points="246.5,-180 175.5,-180 175.5,-144 246.5,-144 246.5,-180"/>
<text text-anchor="middle" x="211" y="-159.5" font-family="Helvetica,sans-Serif" font-size="10.00" fill="#000000">Framework</text>
</a>
</g>
</g>
<!-- dir_8d04f135a1eb0fdc4d561ef87bbea216&#45;&gt;dir_bcbb2cf9a3d3d83e5515c82071a07177 -->
<g id="edge25" class="edge">
<title>dir_8d04f135a1eb0fdc4d561ef87bbea216&#45;&gt;dir_bcbb2cf9a3d3d83e5515c82071a07177</title>
<path fill="none" stroke="#000000" d="M211,-215.8314C211,-208.131 211,-198.9743 211,-190.4166"/>
<polygon fill="#000000" stroke="#000000" points="214.5001,-190.4132 211,-180.4133 207.5001,-190.4133 214.5001,-190.4132"/>
<g id="a_edge25&#45;headlabel"><a xlink:href="dir_000005_000014.html" target="_top" xlink:title="5">
<text text-anchor="middle" x="217.3393" y="-191.5079" font-family="Helvetica,sans-Serif" font-size="10.00" fill="#000000">5</text>
</a>
</g>
</g>
<!-- dir_f41dd59f861c855ea21b0dc3111cb7b0 -->
<g id="node3" class="node">
<title>dir_f41dd59f861c855ea21b0dc3111cb7b0</title>
<g id="a_node3"><a xlink:href="dir_f41dd59f861c855ea21b0dc3111cb7b0.html" target="_top" xlink:title="DataModel">
<polygon fill="#ffffff" stroke="#ff0000" points="271.5,-324 202.5,-324 202.5,-288 271.5,-288 271.5,-324"/>
<text text-anchor="middle" x="237" y="-303.5" font-family="Helvetica,sans-Serif" font-size="10.00" fill="#000000">DataModel</text>
</a>
</g>
</g>
<!-- dir_f41dd59f861c855ea21b0dc3111cb7b0&#45;&gt;dir_8d04f135a1eb0fdc4d561ef87bbea216 -->
<g id="edge15" class="edge">
<title>dir_f41dd59f861c855ea21b0dc3111cb7b0&#45;&gt;dir_8d04f135a1eb0fdc4d561ef87bbea216</title>
<path fill="none" stroke="#000000" d="M230.4391,-287.8314C227.5973,-279.9617 224.2063,-270.5712 221.0581,-261.8533"/>
<polygon fill="#000000" stroke="#000000" points="224.3377,-260.63 217.6492,-252.4133 217.7538,-263.0076 224.3377,-260.63"/>
<g id="a_edge15&#45;headlabel"><a xlink:href="dir_000009_000005.html" target="_top" xlink:title="1">
<text text-anchor="middle" x="228.229" y="-260.5466" font-family="Helvetica,sans-Serif" font-size="10.00" fill="#000000">1</text>
</a>
</g>
</g>
<!-- dir_4ab6b4cc6a7edbff49100e9123df213f -->
<g id="node6" class="node">
<title>dir_4ab6b4cc6a7edbff49100e9123df213f</title>
<g id="a_node6"><a xlink:href="dir_4ab6b4cc6a7edbff49100e9123df213f.html" target="_top" xlink:title="Common">
<polygon fill="none" stroke="#ff0000" points="127.5,-252 66.5,-252 66.5,-216 127.5,-216 127.5,-252"/>
<text text-anchor="middle" x="97" y="-231.5" font-family="Helvetica,sans-Serif" font-size="10.00" fill="#000000">Common</text>
</a>
</g>
</g>
<!-- dir_f41dd59f861c855ea21b0dc3111cb7b0&#45;&gt;dir_4ab6b4cc6a7edbff49100e9123df213f -->
<g id="edge14" class="edge">
<title>dir_f41dd59f861c855ea21b0dc3111cb7b0&#45;&gt;dir_4ab6b4cc6a7edbff49100e9123df213f</title>
<path fill="none" stroke="#000000" d="M202.3932,-288.2022C182.5916,-278.0186 157.6623,-265.1977 137.0209,-254.5822"/>
<polygon fill="#000000" stroke="#000000" points="138.3661,-251.3383 127.8725,-249.8773 135.1647,-257.5633 138.3661,-251.3383"/>
<g id="a_edge14&#45;headlabel"><a xlink:href="dir_000009_000028.html" target="_top" xlink:title="1">
<text text-anchor="middle" x="142.8613" y="-247.9573" font-family="Helvetica,sans-Serif" font-size="10.00" fill="#000000">1</text>
</a>
</g>
</g>
<!-- dir_f41dd59f861c855ea21b0dc3111cb7b0&#45;&gt;dir_bcbb2cf9a3d3d83e5515c82071a07177 -->
<g id="edge16" class="edge">
<title>dir_f41dd59f861c855ea21b0dc3111cb7b0&#45;&gt;dir_bcbb2cf9a3d3d83e5515c82071a07177</title>
<path fill="none" stroke="#000000" d="M243.3792,-287.7671C249.385,-267.6773 256.1981,-234.6775 247,-208 244.6458,-201.1721 240.8153,-194.5831 236.5121,-188.6285"/>
<polygon fill="#000000" stroke="#000000" points="238.9437,-186.0622 229.9861,-180.4043 233.4604,-190.4133 238.9437,-186.0622"/>
<g id="a_edge16&#45;headlabel"><a xlink:href="dir_000009_000014.html" target="_top" xlink:title="15">
<text text-anchor="middle" x="243.4022" y="-184.6131" font-family="Helvetica,sans-Serif" font-size="10.00" fill="#000000">15</text>
</a>
</g>
</g>
<!-- dir_2171f7ec022c5423887b07c69b2f5b48 -->
<g id="node10" class="node">
<title>dir_2171f7ec022c5423887b07c69b2f5b48</title>
<g id="a_node10"><a xlink:href="dir_2171f7ec022c5423887b07c69b2f5b48.html" target="_top" xlink:title="DataFormats">
<polygon fill="none" stroke="#ff0000" points="253,-108 173,-108 173,-72 253,-72 253,-108"/>
<text text-anchor="middle" x="213" y="-87.5" font-family="Helvetica,sans-Serif" font-size="10.00" fill="#000000">DataFormats</text>
</a>
</g>
</g>
<!-- dir_f41dd59f861c855ea21b0dc3111cb7b0&#45;&gt;dir_2171f7ec022c5423887b07c69b2f5b48 -->
<g id="edge17" class="edge">
<title>dir_f41dd59f861c855ea21b0dc3111cb7b0&#45;&gt;dir_2171f7ec022c5423887b07c69b2f5b48</title>
<path fill="none" stroke="#000000" d="M248.3196,-287.7678C253.9396,-277.6415 260.1294,-264.5789 263,-252 273.7016,-205.1049 274.3189,-188.4758 256,-144 251.8923,-134.0271 245.3582,-124.3921 238.6114,-116.0902"/>
<polygon fill="#000000" stroke="#000000" points="241.0537,-113.5626 231.8758,-108.2694 235.7496,-118.1307 241.0537,-113.5626"/>
<g id="a_edge17&#45;headlabel"><a xlink:href="dir_000009_000077.html" target="_top" xlink:title="3">
<text text-anchor="middle" x="245.5508" y="-111.9334" font-family="Helvetica,sans-Serif" font-size="10.00" fill="#000000">3</text>
</a>
</g>
</g>
<!-- dir_eff7324435ca3301414fec6c28c4adf5 -->
<g id="node4" class="node">
<title>dir_eff7324435ca3301414fec6c28c4adf5</title>
<g id="a_node4"><a xlink:href="dir_eff7324435ca3301414fec6c28c4adf5.html" target="_top" xlink:title="Tasks">
<polygon fill="#ffffff" stroke="#000000" points="236,-396 182,-396 182,-360 236,-360 236,-396"/>
<text text-anchor="middle" x="209" y="-375.5" font-family="Helvetica,sans-Serif" font-size="10.00" fill="#000000">Tasks</text>
</a>
</g>
</g>
<!-- dir_eff7324435ca3301414fec6c28c4adf5&#45;&gt;dir_8d04f135a1eb0fdc4d561ef87bbea216 -->
<g id="edge21" class="edge">
<title>dir_eff7324435ca3301414fec6c28c4adf5&#45;&gt;dir_8d04f135a1eb0fdc4d561ef87bbea216</title>
<path fill="none" stroke="#000000" d="M202.6052,-359.7647C199.3154,-349.4187 195.6558,-336.1474 194,-324 191.839,-308.1466 191.5695,-303.8143 194,-288 195.3374,-279.2979 197.8204,-270.074 200.4834,-261.759"/>
<polygon fill="#000000" stroke="#000000" points="203.8406,-262.7579 203.7561,-252.1634 197.2154,-260.4982 203.8406,-262.7579"/>
<g id="a_edge21&#45;headlabel"><a xlink:href="dir_000017_000005.html" target="_top" xlink:title="17">
<text text-anchor="middle" x="205.3676" y="-264.5766" font-family="Helvetica,sans-Serif" font-size="10.00" fill="#000000">17</text>
</a>
</g>
</g>
<!-- dir_eff7324435ca3301414fec6c28c4adf5&#45;&gt;dir_f41dd59f861c855ea21b0dc3111cb7b0 -->
<g id="edge20" class="edge">
<title>dir_eff7324435ca3301414fec6c28c4adf5&#45;&gt;dir_f41dd59f861c855ea21b0dc3111cb7b0</title>
<path fill="none" stroke="#000000" d="M216.0656,-359.8314C219.126,-351.9617 222.7779,-342.5712 226.1682,-333.8533"/>
<polygon fill="#000000" stroke="#000000" points="229.4768,-335.0019 229.8393,-324.4133 222.9527,-332.4647 229.4768,-335.0019"/>
<g id="a_edge20&#45;headlabel"><a xlink:href="dir_000017_000009.html" target="_top" xlink:title="40">
<text text-anchor="middle" x="230.8202" y="-336.8812" font-family="Helvetica,sans-Serif" font-size="10.00" fill="#000000">40</text>
</a>
</g>
</g>
<!-- dir_eff7324435ca3301414fec6c28c4adf5&#45;&gt;dir_6af676bf18881990e4083e191d0e63e0 -->
<g id="edge18" class="edge">
<title>dir_eff7324435ca3301414fec6c28c4adf5&#45;&gt;dir_6af676bf18881990e4083e191d0e63e0</title>
<path fill="none" stroke="#000000" d="M190.8314,-359.8314C182.2848,-351.2848 171.9443,-340.9443 162.6198,-331.6198"/>
<polygon fill="#000000" stroke="#000000" points="164.9592,-329.0095 155.4133,-324.4133 160.0095,-333.9592 164.9592,-329.0095"/>
<g id="a_edge18&#45;headlabel"><a xlink:href="dir_000017_000020.html" target="_top" xlink:title="3">
<text text-anchor="middle" x="169.5087" y="-327.0436" font-family="Helvetica,sans-Serif" font-size="10.00" fill="#000000">3</text>
</a>
</g>
</g>
<!-- dir_051dca18e802f8e9474f2e30d29c04e0 -->
<g id="node8" class="node">
<title>dir_051dca18e802f8e9474f2e30d29c04e0</title>
<g id="a_node8"><a xlink:href="dir_051dca18e802f8e9474f2e30d29c04e0.html" target="_top" xlink:title="Detectors">
<polygon fill="none" stroke="#ff0000" points="168,-36 104,-36 104,0 168,0 168,-36"/>
<text text-anchor="middle" x="136" y="-15.5" font-family="Helvetica,sans-Serif" font-size="10.00" fill="#000000">Detectors</text>
</a>
</g>
</g>
<!-- dir_eff7324435ca3301414fec6c28c4adf5&#45;&gt;dir_051dca18e802f8e9474f2e30d29c04e0 -->
<g id="edge19" class="edge">
<title>dir_eff7324435ca3301414fec6c28c4adf5&#45;&gt;dir_051dca18e802f8e9474f2e30d29c04e0</title>
<path fill="none" stroke="#000000" d="M181.6769,-372.6096C125.025,-359.6747 0,-321.2455 0,-234 0,-234 0,-234 0,-162 0,-106.0535 54.9299,-63.0571 94.9707,-39.1471"/>
<polygon fill="#000000" stroke="#000000" points="96.8696,-42.092 103.7699,-34.0523 93.3621,-36.0342 96.8696,-42.092"/>
<g id="a_edge19&#45;headlabel"><a xlink:href="dir_000017_000040.html" target="_top" xlink:title="6">
<text text-anchor="middle" x="95.1815" y="-43.8502" font-family="Helvetica,sans-Serif" font-size="10.00" fill="#000000">6</text>
</a>
</g>
</g>
<!-- dir_eff7324435ca3301414fec6c28c4adf5&#45;&gt;dir_bcbb2cf9a3d3d83e5515c82071a07177 -->
<g id="edge22" class="edge">
<title>dir_eff7324435ca3301414fec6c28c4adf5&#45;&gt;dir_bcbb2cf9a3d3d83e5515c82071a07177</title>
<path fill="none" stroke="#000000" d="M236.1658,-361.315C254.4285,-349.4519 276.0387,-333.9226 281,-324 294.8678,-296.2644 267.0756,-214.8937 263,-208 258.4588,-200.3189 252.1955,-193.2334 245.5858,-187.0414"/>
<polygon fill="#000000" stroke="#000000" points="247.585,-184.1407 237.75,-180.2009 242.9815,-189.414 247.585,-184.1407"/>
<g id="a_edge22&#45;headlabel"><a xlink:href="dir_000017_000014.html" target="_top" xlink:title="79">
<text text-anchor="middle" x="252.1602" y="-181.8657" font-family="Helvetica,sans-Serif" font-size="10.00" fill="#000000">79</text>
</a>
</g>
</g>
<!-- dir_eff7324435ca3301414fec6c28c4adf5&#45;&gt;dir_2171f7ec022c5423887b07c69b2f5b48 -->
<g id="edge23" class="edge">
<title>dir_eff7324435ca3301414fec6c28c4adf5&#45;&gt;dir_2171f7ec022c5423887b07c69b2f5b48</title>
<path fill="none" stroke="#000000" d="M236.4479,-362.7545C260.6546,-349.0262 292.608,-330.0976 296,-324 316.6609,-286.8587 328.2089,-241.5063 275,-144 268.9103,-132.8405 259.5537,-122.9099 249.9403,-114.7039"/>
<polygon fill="#000000" stroke="#000000" points="251.8603,-111.757 241.8708,-108.2273 247.4788,-117.2162 251.8603,-111.757"/>
<g id="a_edge23&#45;headlabel"><a xlink:href="dir_000017_000077.html" target="_top" xlink:title="7">
<text text-anchor="middle" x="256.4409" y="-109.2927" font-family="Helvetica,sans-Serif" font-size="10.00" fill="#000000">7</text>
</a>
</g>
</g>
<!-- dir_6e355b58bf8669476ee36a32071bc3eb -->
<g id="node5" class="node">
<title>dir_6e355b58bf8669476ee36a32071bc3eb</title>
<g id="a_node5"><a xlink:href="dir_6e355b58bf8669476ee36a32071bc3eb.html" target="_top" xlink:title="Tutorials">
<polygon fill="#ffffff" stroke="#ff0000" points="312,-396 254,-396 254,-360 312,-360 312,-396"/>
<text text-anchor="middle" x="283" y="-375.5" font-family="Helvetica,sans-Serif" font-size="10.00" fill="#000000">Tutorials</text>
</a>
</g>
</g>
<!-- dir_6e355b58bf8669476ee36a32071bc3eb&#45;&gt;dir_8d04f135a1eb0fdc4d561ef87bbea216 -->
<g id="edge3" class="edge">
<title>dir_6e355b58bf8669476ee36a32071bc3eb&#45;&gt;dir_8d04f135a1eb0fdc4d561ef87bbea216</title>
<path fill="none" stroke="#000000" d="M286.9495,-359.9987C290.1599,-341.0062 292.4912,-310.7361 281,-288 273.5601,-273.2795 260.0318,-261.4023 246.8376,-252.5752"/>
<polygon fill="#000000" stroke="#000000" points="248.6152,-249.5587 238.2826,-247.2157 244.8988,-255.4908 248.6152,-249.5587"/>
<g id="a_edge3&#45;headlabel"><a xlink:href="dir_000018_000005.html" target="_top" xlink:title="3">
<text text-anchor="middle" x="253.1687" y="-246.561" font-family="Helvetica,sans-Serif" font-size="10.00" fill="#000000">3</text>
</a>
</g>
</g>
<!-- dir_6e355b58bf8669476ee36a32071bc3eb&#45;&gt;dir_f41dd59f861c855ea21b0dc3111cb7b0 -->
<g id="edge2" class="edge">
<title>dir_6e355b58bf8669476ee36a32071bc3eb&#45;&gt;dir_f41dd59f861c855ea21b0dc3111cb7b0</title>
<path fill="none" stroke="#000000" d="M271.3923,-359.8314C266.2022,-351.7079 259.9768,-341.9637 254.2575,-333.0118"/>
<polygon fill="#000000" stroke="#000000" points="257.0974,-330.9559 248.764,-324.4133 251.1985,-334.7246 257.0974,-330.9559"/>
<g id="a_edge2&#45;headlabel"><a xlink:href="dir_000018_000009.html" target="_top" xlink:title="2">
<text text-anchor="middle" x="261.4253" y="-329.9564" font-family="Helvetica,sans-Serif" font-size="10.00" fill="#000000">2</text>
</a>
</g>
</g>
<!-- dir_6e355b58bf8669476ee36a32071bc3eb&#45;&gt;dir_6af676bf18881990e4083e191d0e63e0 -->
<g id="edge1" class="edge">
<title>dir_6e355b58bf8669476ee36a32071bc3eb&#45;&gt;dir_6af676bf18881990e4083e191d0e63e0</title>
<path fill="none" stroke="#000000" d="M253.9001,-364.1931C228.2053,-351.9886 192.4547,-334.972 173.3992,-325.5905"/>
<polygon fill="#000000" stroke="#000000" points="174.8203,-322.3879 164.3111,-321.0433 171.688,-328.648 174.8203,-322.3879"/>
<g id="a_edge1&#45;headlabel"><a xlink:href="dir_000018_000020.html" target="_top" xlink:title="1">
<text text-anchor="middle" x="179.3054" y="-318.9572" font-family="Helvetica,sans-Serif" font-size="10.00" fill="#000000">1</text>
</a>
</g>
</g>
<!-- dir_6e355b58bf8669476ee36a32071bc3eb&#45;&gt;dir_bcbb2cf9a3d3d83e5515c82071a07177 -->
<g id="edge4" class="edge">
<title>dir_6e355b58bf8669476ee36a32071bc3eb&#45;&gt;dir_bcbb2cf9a3d3d83e5515c82071a07177</title>
<path fill="none" stroke="#000000" d="M289.1238,-359.814C299.1003,-326.597 314.8322,-255.1936 284,-208 276.9533,-197.2139 266.4017,-188.4832 255.4957,-181.6442"/>
<polygon fill="#000000" stroke="#000000" points="257.1397,-178.5517 246.7334,-176.5619 253.6276,-184.6068 257.1397,-178.5517"/>
<g id="a_edge4&#45;headlabel"><a xlink:href="dir_000018_000014.html" target="_top" xlink:title="53">
<text text-anchor="middle" x="261.6737" y="-175.3991" font-family="Helvetica,sans-Serif" font-size="10.00" fill="#000000">53</text>
</a>
</g>
</g>
<!-- dir_6e355b58bf8669476ee36a32071bc3eb&#45;&gt;dir_2171f7ec022c5423887b07c69b2f5b48 -->
<g id="edge5" class="edge">
<title>dir_6e355b58bf8669476ee36a32071bc3eb&#45;&gt;dir_2171f7ec022c5423887b07c69b2f5b48</title>
<path fill="none" stroke="#000000" d="M297.7459,-359.6636C304.8861,-349.7144 312.8045,-336.8481 317,-324 333.0184,-274.9457 331.5531,-258.7115 322,-208 316.3467,-177.9903 316.3422,-167.6309 297,-144 287.0013,-131.7843 273.4885,-121.4269 260.2263,-113.1513"/>
<polygon fill="#000000" stroke="#000000" points="261.9711,-110.1168 251.5868,-108.015 258.3939,-116.1338 261.9711,-110.1168"/>
<g id="a_edge5&#45;headlabel"><a xlink:href="dir_000018_000077.html" target="_top" xlink:title="1">
<text text-anchor="middle" x="266.5118" y="-107.0131" font-family="Helvetica,sans-Serif" font-size="10.00" fill="#000000">1</text>
</a>
</g>
</g>
<!-- dir_4ab6b4cc6a7edbff49100e9123df213f&#45;&gt;dir_bcbb2cf9a3d3d83e5515c82071a07177 -->
<g id="edge6" class="edge">
<title>dir_4ab6b4cc6a7edbff49100e9123df213f&#45;&gt;dir_bcbb2cf9a3d3d83e5515c82071a07177</title>
<path fill="none" stroke="#000000" d="M119.8146,-215.8314C133.4985,-206.6221 151.2374,-195.3301 167.4655,-185.4706"/>
<polygon fill="#000000" stroke="#000000" points="169.5249,-188.3163 176.2904,-180.1628 165.917,-182.3177 169.5249,-188.3163"/>
<g id="a_edge6&#45;headlabel"><a xlink:href="dir_000028_000014.html" target="_top" xlink:title="2">
<text text-anchor="middle" x="167.9079" y="-190.1021" font-family="Helvetica,sans-Serif" font-size="10.00" fill="#000000">2</text>
</a>
</g>
</g>
<!-- dir_4ab6b4cc6a7edbff49100e9123df213f&#45;&gt;dir_2171f7ec022c5423887b07c69b2f5b48 -->
<g id="edge7" class="edge">
<title>dir_4ab6b4cc6a7edbff49100e9123df213f&#45;&gt;dir_2171f7ec022c5423887b07c69b2f5b48</title>
<path fill="none" stroke="#000000" d="M103.9098,-215.8851C115.6591,-197.577 138.0039,-168.561 158,-144 165.5774,-134.6928 174.0518,-124.6463 182.1387,-115.7721"/>
<polygon fill="#000000" stroke="#000000" points="184.8332,-118.0152 189.1133,-108.3233 179.7234,-113.2307 184.8332,-118.0152"/>
<g id="a_edge7&#45;headlabel"><a xlink:href="dir_000028_000077.html" target="_top" xlink:title="2">
<text text-anchor="middle" x="184.4488" y="-120.0797" font-family="Helvetica,sans-Serif" font-size="10.00" fill="#000000">2</text>
</a>
</g>
</g>
<!-- dir_6af676bf18881990e4083e191d0e63e0&#45;&gt;dir_4ab6b4cc6a7edbff49100e9123df213f -->
<g id="edge8" class="edge">
<title>dir_6af676bf18881990e4083e191d0e63e0&#45;&gt;dir_4ab6b4cc6a7edbff49100e9123df213f</title>
<path fill="none" stroke="#000000" d="M126.9063,-287.8314C122.4403,-279.7925 117.0925,-270.1666 112.1621,-261.2918"/>
<polygon fill="#000000" stroke="#000000" points="115.1456,-259.4551 107.2296,-252.4133 109.0265,-262.8546 115.1456,-259.4551"/>
<g id="a_edge8&#45;headlabel"><a xlink:href="dir_000020_000028.html" target="_top" xlink:title="4">
<text text-anchor="middle" x="119.3732" y="-258.7185" font-family="Helvetica,sans-Serif" font-size="10.00" fill="#000000">4</text>
</a>
</g>
</g>
<!-- dir_6af676bf18881990e4083e191d0e63e0&#45;&gt;dir_bcbb2cf9a3d3d83e5515c82071a07177 -->
<g id="edge9" class="edge">
<title>dir_6af676bf18881990e4083e191d0e63e0&#45;&gt;dir_bcbb2cf9a3d3d83e5515c82071a07177</title>
<path fill="none" stroke="#000000" d="M140.8164,-287.7333C145.5966,-267.3235 155.0271,-233.7669 170,-208 174.0815,-200.9761 179.3492,-194.0716 184.7403,-187.8338"/>
<polygon fill="#000000" stroke="#000000" points="187.4227,-190.0862 191.5549,-180.3303 182.2408,-185.38 187.4227,-190.0862"/>
<g id="a_edge9&#45;headlabel"><a xlink:href="dir_000020_000014.html" target="_top" xlink:title="2">
<text text-anchor="middle" x="187.1079" y="-192.156" font-family="Helvetica,sans-Serif" font-size="10.00" fill="#000000">2</text>
</a>
</g>
</g>
<!-- dir_051dca18e802f8e9474f2e30d29c04e0&#45;&gt;dir_4ab6b4cc6a7edbff49100e9123df213f -->
<g id="edge10" class="edge">
<title>dir_051dca18e802f8e9474f2e30d29c04e0&#45;&gt;dir_4ab6b4cc6a7edbff49100e9123df213f</title>
<path fill="none" stroke="#000000" d="M132.7238,-36.1451C125.9116,-73.8741 110.1791,-161.0083 102.0564,-205.9956"/>
<polygon fill="#000000" stroke="#000000" points="98.5906,-205.4927 100.258,-215.9555 105.4793,-206.7365 98.5906,-205.4927"/>
<g id="a_edge10&#45;headlabel"><a xlink:href="dir_000040_000028.html" target="_top" xlink:title="276">
<text text-anchor="middle" x="96.4352" y="-198.9508" font-family="Helvetica,sans-Serif" font-size="10.00" fill="#000000">276</text>
</a>
</g>
</g>
<!-- dir_051dca18e802f8e9474f2e30d29c04e0&#45;&gt;dir_6af676bf18881990e4083e191d0e63e0 -->
<g id="edge11" class="edge">
<title>dir_051dca18e802f8e9474f2e30d29c04e0&#45;&gt;dir_6af676bf18881990e4083e191d0e63e0</title>
<path fill="none" stroke="#000000" d="M125.6041,-36.102C107.3674,-69.0188 70.2866,-141.4378 57,-208 53.172,-227.1772 47.8221,-234.7319 57,-252 66.3561,-269.6035 84.2936,-282.5077 100.8159,-291.2786"/>
<polygon fill="#000000" stroke="#000000" points="99.2723,-294.4198 109.7858,-295.7297 102.3838,-288.1494 99.2723,-294.4198"/>
<g id="a_edge11&#45;headlabel"><a xlink:href="dir_000040_000020.html" target="_top" xlink:title="29">
<text text-anchor="middle" x="94.7903" y="-292.8654" font-family="Helvetica,sans-Serif" font-size="10.00" fill="#000000">29</text>
</a>
</g>
</g>
<!-- dir_051dca18e802f8e9474f2e30d29c04e0&#45;&gt;dir_bcbb2cf9a3d3d83e5515c82071a07177 -->
<g id="edge12" class="edge">
<title>dir_051dca18e802f8e9474f2e30d29c04e0&#45;&gt;dir_bcbb2cf9a3d3d83e5515c82071a07177</title>
<path fill="none" stroke="#000000" d="M146.0481,-36.1283C152.3022,-54.9587 160.084,-84.8501 173,-108 178.5986,-118.0345 186.2833,-127.8642 193.3934,-136.3282"/>
<polygon fill="#000000" stroke="#000000" points="190.7862,-138.6647 199.9472,-143.9869 196.1047,-134.1134 190.7862,-138.6647"/>
<g id="a_edge12&#45;headlabel"><a xlink:href="dir_000040_000014.html" target="_top" xlink:title="809">
<text text-anchor="middle" x="186.2918" y="-135.2796" font-family="Helvetica,sans-Serif" font-size="10.00" fill="#000000">809</text>
</a>
</g>
</g>
<!-- dir_051dca18e802f8e9474f2e30d29c04e0&#45;&gt;dir_2171f7ec022c5423887b07c69b2f5b48 -->
<g id="edge13" class="edge">
<title>dir_051dca18e802f8e9474f2e30d29c04e0&#45;&gt;dir_2171f7ec022c5423887b07c69b2f5b48</title>
<path fill="none" stroke="#000000" d="M161.376,-36.1628C171.4251,-44.7744 182.7606,-55.2081 192.3077,-64.5888"/>
<polygon fill="#000000" stroke="#000000" points="189.985,-67.2166 199.522,-71.8314 194.9444,-62.2765 189.985,-67.2166"/>
<g id="a_edge13&#45;headlabel"><a xlink:href="dir_000040_000077.html" target="_top" xlink:title="1093">
<text text-anchor="middle" x="185.4367" y="-64.1736" font-family="Helvetica,sans-Serif" font-size="10.00" fill="#000000">1093</text>
</a>
</g>
</g>
<!-- dir_bcbb2cf9a3d3d83e5515c82071a07177&#45;&gt;dir_4ab6b4cc6a7edbff49100e9123df213f -->
<g id="edge26" class="edge">
<title>dir_bcbb2cf9a3d3d83e5515c82071a07177&#45;&gt;dir_4ab6b4cc6a7edbff49100e9123df213f</title>
<path fill="none" stroke="#000000" d="M188.3665,-180.0467C173.5261,-190.0405 153.8619,-202.5154 136.5301,-212.9516"/>
<polygon fill="#000000" stroke="#000000" points="134.5186,-210.0758 127.7171,-218.1993 138.0999,-216.0903 134.5186,-210.0758"/>
<g id="a_edge26&#45;headlabel"><a xlink:href="dir_000014_000028.html" target="_top" xlink:title="8">
<text text-anchor="middle" x="136.1545" y="-203.2972" font-family="Helvetica,sans-Serif" font-size="10.00" fill="#000000">8</text>
</a>
</g>
</g>
<!-- dir_bcbb2cf9a3d3d83e5515c82071a07177&#45;&gt;dir_051dca18e802f8e9474f2e30d29c04e0 -->
<g id="edge27" class="edge">
<title>dir_bcbb2cf9a3d3d83e5515c82071a07177&#45;&gt;dir_051dca18e802f8e9474f2e30d29c04e0</title>
<path fill="none" stroke="#000000" d="M183.8954,-143.9869C173.4084,-134.1262 162.3878,-121.2415 155,-108 144.203,-88.6482 136.9938,-64.5854 133.9301,-46.211"/>
<polygon fill="#000000" stroke="#000000" points="137.3786,-45.5891 132.6095,-36.1283 130.4379,-46.4982 137.3786,-45.5891"/>
<g id="a_edge27&#45;headlabel"><a xlink:href="dir_000014_000040.html" target="_top" xlink:title="4">
<text text-anchor="middle" x="140.6606" y="-46.2846" font-family="Helvetica,sans-Serif" font-size="10.00" fill="#000000">4</text>
</a>
</g>
</g>
<!-- dir_bcbb2cf9a3d3d83e5515c82071a07177&#45;&gt;dir_2171f7ec022c5423887b07c69b2f5b48 -->
<g id="edge28" class="edge">
<title>dir_bcbb2cf9a3d3d83e5515c82071a07177&#45;&gt;dir_2171f7ec022c5423887b07c69b2f5b48</title>
<path fill="none" stroke="#000000" d="M205.5523,-143.8314C205.0158,-136.131 205.0492,-126.9743 205.5956,-118.4166"/>
<polygon fill="#000000" stroke="#000000" points="209.085,-118.691 206.5125,-108.4133 202.1142,-118.052 209.085,-118.691"/>
<g id="a_edge28&#45;headlabel"><a xlink:href="dir_000014_000077.html" target="_top" xlink:title="82">
<text text-anchor="middle" x="211.5844" y="-120.0298" font-family="Helvetica,sans-Serif" font-size="10.00" fill="#000000">82</text>
</a>
</g>
</g>
<!-- dir_2171f7ec022c5423887b07c69b2f5b48&#45;&gt;dir_4ab6b4cc6a7edbff49100e9123df213f -->
<g id="edge29" class="edge">
<title>dir_2171f7ec022c5423887b07c69b2f5b48&#45;&gt;dir_4ab6b4cc6a7edbff49100e9123df213f</title>
<path fill="none" stroke="#000000" d="M204.9671,-108.3233C197.0936,-118.697 185.7971,-131.9664 176,-144 158.6596,-165.299 139.553,-189.9482 124.2557,-208.0593"/>
<polygon fill="#000000" stroke="#000000" points="121.3895,-206.024 117.5153,-215.8851 126.6934,-210.5923 121.3895,-206.024"/>
<g id="a_edge29&#45;headlabel"><a xlink:href="dir_000077_000028.html" target="_top" xlink:title="35">
<text text-anchor="middle" x="121.5841" y="-198.9475" font-family="Helvetica,sans-Serif" font-size="10.00" fill="#000000">35</text>
</a>
</g>
</g>
<!-- dir_2171f7ec022c5423887b07c69b2f5b48&#45;&gt;dir_051dca18e802f8e9474f2e30d29c04e0 -->
<g id="edge30" class="edge">
<title>dir_2171f7ec022c5423887b07c69b2f5b48&#45;&gt;dir_051dca18e802f8e9474f2e30d29c04e0</title>
<path fill="none" stroke="#000000" d="M187.6173,-71.8314C177.6442,-63.2848 166.4051,-52.9443 156.9048,-43.6198"/>
<polygon fill="#000000" stroke="#000000" points="159.2563,-41.0212 149.716,-36.4133 154.3004,-45.9649 159.2563,-41.0212"/>
<g id="a_edge30&#45;headlabel"><a xlink:href="dir_000077_000040.html" target="_top" xlink:title="15">
<text text-anchor="middle" x="163.805" y="-39.0609" font-family="Helvetica,sans-Serif" font-size="10.00" fill="#000000">15</text>
</a>
</g>
</g>
<!-- dir_2171f7ec022c5423887b07c69b2f5b48&#45;&gt;dir_bcbb2cf9a3d3d83e5515c82071a07177 -->
<g id="edge31" class="edge">
<title>dir_2171f7ec022c5423887b07c69b2f5b48&#45;&gt;dir_bcbb2cf9a3d3d83e5515c82071a07177</title>
<path fill="none" stroke="#000000" d="M218.4645,-108.4133C218.989,-116.1442 218.9441,-125.3097 218.3869,-133.8545"/>
<polygon fill="#000000" stroke="#000000" points="214.9003,-133.5497 217.4571,-143.8314 221.8701,-134.1993 214.9003,-133.5497"/>
<g id="a_edge31&#45;headlabel"><a xlink:href="dir_000077_000014.html" target="_top" xlink:title="12">
<text text-anchor="middle" x="212.4067" y="-127.2071" font-family="Helvetica,sans-Serif" font-size="10.00" fill="#000000">12</text>
</a>
</g>
</g>
</g>
</svg>
