<?xml version="1.0" encoding="UTF-8" standalone="no"?>
<!DOCTYPE svg PUBLIC "-//W3C//DTD SVG 1.1//EN"
 "http://www.w3.org/Graphics/SVG/1.1/DTD/svg11.dtd">
<!-- Generated by graphviz version 2.40.1 (20161225.0304)
 -->
<!-- Title: /home/travis/build/AliceO2Group/AliceO2/Analysis/DataModel Pages: 1 -->
<svg width="258pt" height="375pt"
 viewBox="0.00 0.00 257.55 375.00" xmlns="http://www.w3.org/2000/svg" xmlns:xlink="http://www.w3.org/1999/xlink">
<g id="graph0" class="graph" transform="scale(1 1) rotate(0) translate(4 371)">
<title>/home/travis/build/AliceO2Group/AliceO2/Analysis/DataModel</title>
<g id="clust1" class="cluster">
<title>clusterdir_19b17cb436010079e3d017a29cb7858f</title>
<g id="a_clust1"><a xlink:href="dir_19b17cb436010079e3d017a29cb7858f.html" target="_top" xlink:title="Analysis">
<polygon fill="#ddddee" stroke="#000000" points="67.5528,-200 67.5528,-359 241.5528,-359 241.5528,-200 67.5528,-200"/>
<text text-anchor="middle" x="154.5528" y="-347" font-family="Helvetica,sans-Serif" font-size="10.00" fill="#000000">Analysis</text>
</a>
</g>
</g>
<g id="clust2" class="cluster">
<title>clusterdir_f41dd59f861c855ea21b0dc3111cb7b0</title>
<g id="a_clust2"><a xlink:href="dir_f41dd59f861c855ea21b0dc3111cb7b0.html" target="_top">
<polygon fill="#eeeeff" stroke="#000000" points="75.5528,-208 75.5528,-332 233.5528,-332 233.5528,-208 75.5528,-208"/>
</a>
</g>
</g>
<!-- dir_f41dd59f861c855ea21b0dc3111cb7b0 -->
<g id="node1" class="node">
<title>dir_f41dd59f861c855ea21b0dc3111cb7b0</title>
<text text-anchor="middle" x="190.5528" y="-303.5" font-family="Helvetica,sans-Serif" font-size="10.00" fill="#000000">DataModel</text>
</g>
<!-- dir_7683e4c5aa7478ea0e5a46a41c8497b7 -->
<g id="node2" class="node">
<title>dir_7683e4c5aa7478ea0e5a46a41c8497b7</title>
<g id="a_node2"><a xlink:href="dir_7683e4c5aa7478ea0e5a46a41c8497b7.html" target="_top" xlink:title="include">
<polygon fill="#ffffff" stroke="#ff0000" points="137.5528,-252 83.5528,-252 83.5528,-216 137.5528,-216 137.5528,-252"/>
<text text-anchor="middle" x="110.5528" y="-231.5" font-family="Helvetica,sans-Serif" font-size="10.00" fill="#000000">include</text>
</a>
</g>
</g>
<!-- dir_4ab6b4cc6a7edbff49100e9123df213f -->
<g id="node4" class="node">
<title>dir_4ab6b4cc6a7edbff49100e9123df213f</title>
<g id="a_node4"><a xlink:href="dir_4ab6b4cc6a7edbff49100e9123df213f.html" target="_top" xlink:title="Common">
<polygon fill="none" stroke="#ff0000" points="82.0528,-180 21.0528,-180 21.0528,-144 82.0528,-144 82.0528,-180"/>
<text text-anchor="middle" x="51.5528" y="-159.5" font-family="Helvetica,sans-Serif" font-size="10.00" fill="#000000">Common</text>
</a>
</g>
</g>
<!-- dir_7683e4c5aa7478ea0e5a46a41c8497b7&#45;&gt;dir_4ab6b4cc6a7edbff49100e9123df213f -->
<g id="edge5" class="edge">
<title>dir_7683e4c5aa7478ea0e5a46a41c8497b7&#45;&gt;dir_4ab6b4cc6a7edbff49100e9123df213f</title>
<path fill="none" stroke="#000000" d="M95.6646,-215.8314C88.7998,-207.454 80.5227,-197.3531 73.0017,-188.1749"/>
<polygon fill="#000000" stroke="#000000" points="75.6868,-185.9297 66.6414,-180.4133 70.2725,-190.3665 75.6868,-185.9297"/>
<g id="a_edge5&#45;headlabel"><a xlink:href="dir_000010_000028.html" target="_top" xlink:title="1">
<text text-anchor="middle" x="80.1613" y="-184.4104" font-family="Helvetica,sans-Serif" font-size="10.00" fill="#000000">1</text>
</a>
</g>
</g>
<!-- dir_8d04f135a1eb0fdc4d561ef87bbea216 -->
<g id="node5" class="node">
<title>dir_8d04f135a1eb0fdc4d561ef87bbea216</title>
<g id="a_node5"><a xlink:href="dir_8d04f135a1eb0fdc4d561ef87bbea216.html" target="_top" xlink:title="Core">
<polygon fill="none" stroke="#ff0000" points="192.5528,-180 138.5528,-180 138.5528,-144 192.5528,-144 192.5528,-180"/>
<text text-anchor="middle" x="165.5528" y="-159.5" font-family="Helvetica,sans-Serif" font-size="10.00" fill="#000000">Core</text>
</a>
</g>
</g>
<!-- dir_7683e4c5aa7478ea0e5a46a41c8497b7&#45;&gt;dir_8d04f135a1eb0fdc4d561ef87bbea216 -->
<g id="edge6" class="edge">
<title>dir_7683e4c5aa7478ea0e5a46a41c8497b7&#45;&gt;dir_8d04f135a1eb0fdc4d561ef87bbea216</title>
<path fill="none" stroke="#000000" d="M124.4316,-215.8314C130.7663,-207.5386 138.3911,-197.557 145.3453,-188.4533"/>
<polygon fill="#000000" stroke="#000000" points="148.198,-190.4847 151.4871,-180.4133 142.6353,-186.2353 148.198,-190.4847"/>
<g id="a_edge6&#45;headlabel"><a xlink:href="dir_000010_000005.html" target="_top" xlink:title="1">
<text text-anchor="middle" x="148.2722" y="-192.5647" font-family="Helvetica,sans-Serif" font-size="10.00" fill="#000000">1</text>
</a>
</g>
</g>
<!-- dir_bcbb2cf9a3d3d83e5515c82071a07177 -->
<g id="node6" class="node">
<title>dir_bcbb2cf9a3d3d83e5515c82071a07177</title>
<g id="a_node6"><a xlink:href="dir_bcbb2cf9a3d3d83e5515c82071a07177.html" target="_top" xlink:title="Framework">
<polygon fill="none" stroke="#ff0000" points="154.0528,-108 83.0528,-108 83.0528,-72 154.0528,-72 154.0528,-108"/>
<text text-anchor="middle" x="118.5528" y="-87.5" font-family="Helvetica,sans-Serif" font-size="10.00" fill="#000000">Framework</text>
</a>
</g>
</g>
<!-- dir_7683e4c5aa7478ea0e5a46a41c8497b7&#45;&gt;dir_bcbb2cf9a3d3d83e5515c82071a07177 -->
<g id="edge7" class="edge">
<title>dir_7683e4c5aa7478ea0e5a46a41c8497b7&#45;&gt;dir_bcbb2cf9a3d3d83e5515c82071a07177</title>
<path fill="none" stroke="#000000" d="M111.566,-215.7623C112.9305,-191.201 115.3723,-147.2474 116.9775,-118.3541"/>
<polygon fill="#000000" stroke="#000000" points="120.4876,-118.2684 117.5478,-108.0896 113.4984,-117.88 120.4876,-118.2684"/>
<g id="a_edge7&#45;headlabel"><a xlink:href="dir_000010_000014.html" target="_top" xlink:title="14">
<text text-anchor="middle" x="123.1232" y="-119.5149" font-family="Helvetica,sans-Serif" font-size="10.00" fill="#000000">14</text>
</a>
</g>
</g>
<!-- dir_2171f7ec022c5423887b07c69b2f5b48 -->
<g id="node7" class="node">
<title>dir_2171f7ec022c5423887b07c69b2f5b48</title>
<g id="a_node7"><a xlink:href="dir_2171f7ec022c5423887b07c69b2f5b48.html" target="_top" xlink:title="DataFormats">
<polygon fill="none" stroke="#ff0000" points="85.5528,-36 5.5528,-36 5.5528,0 85.5528,0 85.5528,-36"/>
<text text-anchor="middle" x="45.5528" y="-15.5" font-family="Helvetica,sans-Serif" font-size="10.00" fill="#000000">DataFormats</text>
</a>
</g>
</g>
<!-- dir_7683e4c5aa7478ea0e5a46a41c8497b7&#45;&gt;dir_2171f7ec022c5423887b07c69b2f5b48 -->
<g id="edge8" class="edge">
<title>dir_7683e4c5aa7478ea0e5a46a41c8497b7&#45;&gt;dir_2171f7ec022c5423887b07c69b2f5b48</title>
<path fill="none" stroke="#000000" d="M83.2573,-227.4609C59.643,-220.2013 26.9434,-205.9261 11.5528,-180 -13.656,-137.5347 10.299,-79.0837 28.7729,-45.243"/>
<polygon fill="#000000" stroke="#000000" points="31.9077,-46.8103 33.7928,-36.3845 25.8175,-43.3592 31.9077,-46.8103"/>
<g id="a_edge8&#45;headlabel"><a xlink:href="dir_000010_000077.html" target="_top" xlink:title="3">
<text text-anchor="middle" x="32.6057" y="-48.8375" font-family="Helvetica,sans-Serif" font-size="10.00" fill="#000000">3</text>
</a>
</g>
</g>
<!-- dir_11c44d21aa48687fb93b207a13bbbfe3 -->
<g id="node3" class="node">
<title>dir_11c44d21aa48687fb93b207a13bbbfe3</title>
<g id="a_node3"><a xlink:href="dir_11c44d21aa48687fb93b207a13bbbfe3.html" target="_top" xlink:title="src">
<polygon fill="#ffffff" stroke="#000000" points="137.5528,-324 83.5528,-324 83.5528,-288 137.5528,-288 137.5528,-324"/>
<text text-anchor="middle" x="110.5528" y="-303.5" font-family="Helvetica,sans-Serif" font-size="10.00" fill="#000000">src</text>
</a>
</g>
</g>
<!-- dir_11c44d21aa48687fb93b207a13bbbfe3&#45;&gt;dir_7683e4c5aa7478ea0e5a46a41c8497b7 -->
<g id="edge1" class="edge">
<title>dir_11c44d21aa48687fb93b207a13bbbfe3&#45;&gt;dir_7683e4c5aa7478ea0e5a46a41c8497b7</title>
<path fill="none" stroke="#000000" d="M110.5528,-287.8314C110.5528,-280.131 110.5528,-270.9743 110.5528,-262.4166"/>
<polygon fill="#000000" stroke="#000000" points="114.0529,-262.4132 110.5528,-252.4133 107.0529,-262.4133 114.0529,-262.4132"/>
<g id="a_edge1&#45;headlabel"><a xlink:href="dir_000013_000010.html" target="_top" xlink:title="4">
<text text-anchor="middle" x="116.892" y="-263.5079" font-family="Helvetica,sans-Serif" font-size="10.00" fill="#000000">4</text>
</a>
</g>
</g>
<!-- dir_11c44d21aa48687fb93b207a13bbbfe3&#45;&gt;dir_bcbb2cf9a3d3d83e5515c82071a07177 -->
<g id="edge2" class="edge">
<title>dir_11c44d21aa48687fb93b207a13bbbfe3&#45;&gt;dir_bcbb2cf9a3d3d83e5515c82071a07177</title>
<path fill="none" stroke="#000000" d="M129.6837,-287.6722C151.9412,-264.8886 187.4393,-223.6469 201.5528,-180 206.4755,-164.7761 209.1814,-158.0643 201.5528,-144 193.2039,-128.6078 178.3587,-116.9154 163.5085,-108.4153"/>
<polygon fill="#000000" stroke="#000000" points="164.7925,-105.1341 154.3196,-103.5308 161.5068,-111.3151 164.7925,-105.1341"/>
<g id="a_edge2&#45;headlabel"><a xlink:href="dir_000013_000014.html" target="_top" xlink:title="1">
<text text-anchor="middle" x="169.2992" y="-101.8141" font-family="Helvetica,sans-Serif" font-size="10.00" fill="#000000">1</text>
</a>
</g>
</g>
<!-- dir_4ab6b4cc6a7edbff49100e9123df213f&#45;&gt;dir_bcbb2cf9a3d3d83e5515c82071a07177 -->
<g id="edge3" class="edge">
<title>dir_4ab6b4cc6a7edbff49100e9123df213f&#45;&gt;dir_bcbb2cf9a3d3d83e5515c82071a07177</title>
<path fill="none" stroke="#000000" d="M62.5073,-143.8314C69.6823,-135.219 79.2146,-124.7851 88.429,-115.4048"/>
<polygon fill="#000000" stroke="#000000" points="91.0845,-117.6998 95.6994,-108.1628 86.1444,-112.7403 91.0845,-117.6998"/>
<g id="a_edge3&#45;headlabel"><a xlink:href="dir_000028_000014.html" target="_top" xlink:title="2">
<text text-anchor="middle" x="90.5415" y="-119.7481" font-family="Helvetica,sans-Serif" font-size="10.00" fill="#000000">2</text>
</a>
</g>
</g>
<!-- dir_4ab6b4cc6a7edbff49100e9123df213f&#45;&gt;dir_2171f7ec022c5423887b07c69b2f5b48 -->
<g id="edge4" class="edge">
<title>dir_4ab6b4cc6a7edbff49100e9123df213f&#45;&gt;dir_2171f7ec022c5423887b07c69b2f5b48</title>
<path fill="none" stroke="#000000" d="M46.1197,-143.7623C42.6365,-119.201 40.5303,-75.2474 41.2367,-46.3541"/>
<polygon fill="#000000" stroke="#000000" points="44.7448,-46.2218 41.6482,-36.0896 37.7504,-45.9414 44.7448,-46.2218"/>
<g id="a_edge4&#45;headlabel"><a xlink:href="dir_000028_000077.html" target="_top" xlink:title="2">
<text text-anchor="middle" x="47.4379" y="-47.4272" font-family="Helvetica,sans-Serif" font-size="10.00" fill="#000000">2</text>
</a>
</g>
</g>
<!-- dir_8d04f135a1eb0fdc4d561ef87bbea216&#45;&gt;dir_bcbb2cf9a3d3d83e5515c82071a07177 -->
<g id="edge9" class="edge">
<title>dir_8d04f135a1eb0fdc4d561ef87bbea216&#45;&gt;dir_bcbb2cf9a3d3d83e5515c82071a07177</title>
<path fill="none" stroke="#000000" d="M153.6927,-143.8314C148.3898,-135.7079 142.0291,-125.9637 136.1854,-117.0118"/>
<polygon fill="#000000" stroke="#000000" points="138.9696,-114.8739 130.5725,-108.4133 133.108,-118.7003 138.9696,-114.8739"/>
<g id="a_edge9&#45;headlabel"><a xlink:href="dir_000005_000014.html" target="_top" xlink:title="5">
<text text-anchor="middle" x="143.312" y="-113.8319" font-family="Helvetica,sans-Serif" font-size="10.00" fill="#000000">5</text>
</a>
</g>
</g>
<!-- dir_bcbb2cf9a3d3d83e5515c82071a07177&#45;&gt;dir_4ab6b4cc6a7edbff49100e9123df213f -->
<g id="edge10" class="edge">
<title>dir_bcbb2cf9a3d3d83e5515c82071a07177&#45;&gt;dir_4ab6b4cc6a7edbff49100e9123df213f</title>
<path fill="none" stroke="#000000" d="M107.3942,-108.4133C100.23,-116.9938 90.7692,-127.3414 81.6263,-136.6463"/>
<polygon fill="#000000" stroke="#000000" points="79.0276,-134.2947 74.4121,-143.8314 83.9673,-139.2545 79.0276,-134.2947"/>
<g id="a_edge10&#45;headlabel"><a xlink:href="dir_000014_000028.html" target="_top" xlink:title="8">
<text text-anchor="middle" x="79.5709" y="-127.2464" font-family="Helvetica,sans-Serif" font-size="10.00" fill="#000000">8</text>
</a>
</g>
</g>
<!-- dir_bcbb2cf9a3d3d83e5515c82071a07177&#45;&gt;dir_2171f7ec022c5423887b07c69b2f5b48 -->
<g id="edge11" class="edge">
<title>dir_bcbb2cf9a3d3d83e5515c82071a07177&#45;&gt;dir_2171f7ec022c5423887b07c69b2f5b48</title>
<path fill="none" stroke="#000000" d="M94.1794,-71.8314C84.7752,-63.3694 74.2276,-53.1489 65.3015,-43.8971"/>
<polygon fill="#000000" stroke="#000000" points="67.6524,-41.2884 58.2458,-36.4133 62.5591,-46.0904 67.6524,-41.2884"/>
<g id="a_edge11&#45;headlabel"><a xlink:href="dir_000014_000077.html" target="_top" xlink:title="82">
<text text-anchor="middle" x="72.1841" y="-39.4561" font-family="Helvetica,sans-Serif" font-size="10.00" fill="#000000">82</text>
</a>
</g>
</g>
<!-- dir_2171f7ec022c5423887b07c69b2f5b48&#45;&gt;dir_4ab6b4cc6a7edbff49100e9123df213f -->
<g id="edge12" class="edge">
<title>dir_2171f7ec022c5423887b07c69b2f5b48&#45;&gt;dir_4ab6b4cc6a7edbff49100e9123df213f</title>
<path fill="none" stroke="#000000" d="M50.9648,-36.0896C54.4535,-60.5727 56.5681,-104.5174 55.873,-133.4713"/>
<polygon fill="#000000" stroke="#000000" points="52.364,-133.6318 55.466,-143.7623 59.3585,-133.9084 52.364,-133.6318"/>
<g id="a_edge12&#45;headlabel"><a xlink:href="dir_000077_000028.html" target="_top" xlink:title="35">
<text text-anchor="middle" x="49.6689" y="-127.4278" font-family="Helvetica,sans-Serif" font-size="10.00" fill="#000000">35</text>
</a>
</g>
</g>
<!-- dir_2171f7ec022c5423887b07c69b2f5b48&#45;&gt;dir_bcbb2cf9a3d3d83e5515c82071a07177 -->
<g id="edge13" class="edge">
<title>dir_2171f7ec022c5423887b07c69b2f5b48&#45;&gt;dir_bcbb2cf9a3d3d83e5515c82071a07177</title>
<path fill="none" stroke="#000000" d="M69.9197,-36.1628C79.3956,-44.6891 90.0334,-55.0016 99.0035,-64.3099"/>
<polygon fill="#000000" stroke="#000000" points="96.6812,-66.9492 106.0842,-71.8314 101.7781,-62.151 96.6812,-66.9492"/>
<g id="a_edge13&#45;headlabel"><a xlink:href="dir_000077_000014.html" target="_top" xlink:title="12">
<text text-anchor="middle" x="92.15" y="-63.778" font-family="Helvetica,sans-Serif" font-size="10.00" fill="#000000">12</text>
</a>
</g>
</g>
</g>
</svg>
