<?xml version="1.0" encoding="UTF-8" standalone="no"?>
<!DOCTYPE svg PUBLIC "-//W3C//DTD SVG 1.1//EN"
 "http://www.w3.org/Graphics/SVG/1.1/DTD/svg11.dtd">
<!-- Generated by graphviz version 2.40.1 (20161225.0304)
 -->
<!-- Title: /home/travis/build/AliceO2Group/AliceO2/Detectors/TRD/workflow/include/TRDWorkflow Pages: 1 -->
<svg width="262pt" height="367pt"
 viewBox="0.00 0.00 261.59 367.00" xmlns="http://www.w3.org/2000/svg" xmlns:xlink="http://www.w3.org/1999/xlink">
<g id="graph0" class="graph" transform="scale(1 1) rotate(0) translate(4 363)">
<title>/home/travis/build/AliceO2Group/AliceO2/Detectors/TRD/workflow/include/TRDWorkflow</title>
<g id="clust1" class="cluster">
<title>clusterdir_11da180be91271a1ebdaa9322b1ad99a</title>
<g id="a_clust1"><a xlink:href="dir_11da180be91271a1ebdaa9322b1ad99a.html" target="_top" xlink:title="include">
<polygon fill="#ddddee" stroke="#000000" points="61.5897,-280 61.5897,-351 159.5897,-351 159.5897,-280 61.5897,-280"/>
<text text-anchor="middle" x="110.5897" y="-339" font-family="Helvetica,sans-Serif" font-size="10.00" fill="#000000">include</text>
</a>
</g>
</g>
<!-- dir_7d5b62515dd8f18807c7024eba340a33 -->
<g id="node1" class="node">
<title>dir_7d5b62515dd8f18807c7024eba340a33</title>
<g id="a_node1"><a xlink:href="dir_7d5b62515dd8f18807c7024eba340a33.html" target="_top" xlink:title="TRDWorkflow">
<polygon fill="#eeeeff" stroke="#000000" points="151.5897,-324 69.5897,-324 69.5897,-288 151.5897,-288 151.5897,-324"/>
<text text-anchor="middle" x="110.5897" y="-303.5" font-family="Helvetica,sans-Serif" font-size="10.00" fill="#000000">TRDWorkflow</text>
</a>
</g>
</g>
<!-- dir_6af676bf18881990e4083e191d0e63e0 -->
<g id="node2" class="node">
<title>dir_6af676bf18881990e4083e191d0e63e0</title>
<g id="a_node2"><a xlink:href="dir_6af676bf18881990e4083e191d0e63e0.html" target="_top" xlink:title="CCDB">
<polygon fill="none" stroke="#ff0000" points="82.5897,-252 28.5897,-252 28.5897,-216 82.5897,-216 82.5897,-252"/>
<text text-anchor="middle" x="55.5897" y="-231.5" font-family="Helvetica,sans-Serif" font-size="10.00" fill="#000000">CCDB</text>
</a>
</g>
</g>
<!-- dir_7d5b62515dd8f18807c7024eba340a33&#45;&gt;dir_6af676bf18881990e4083e191d0e63e0 -->
<g id="edge5" class="edge">
<title>dir_7d5b62515dd8f18807c7024eba340a33&#45;&gt;dir_6af676bf18881990e4083e191d0e63e0</title>
<path fill="none" stroke="#000000" d="M96.7109,-287.8314C90.3761,-279.5386 82.7513,-269.557 75.7971,-260.4533"/>
<polygon fill="#000000" stroke="#000000" points="78.5072,-258.2353 69.6554,-252.4133 72.9445,-262.4847 78.5072,-258.2353"/>
<g id="a_edge5&#45;headlabel"><a xlink:href="dir_000631_000020.html" target="_top" xlink:title="1">
<text text-anchor="middle" x="82.9455" y="-256.8683" font-family="Helvetica,sans-Serif" font-size="10.00" fill="#000000">1</text>
</a>
</g>
</g>
<!-- dir_09bf7f7c4011a5ccc426492db4dd0891 -->
<g id="node3" class="node">
<title>dir_09bf7f7c4011a5ccc426492db4dd0891</title>
<g id="a_node3"><a xlink:href="dir_09bf7f7c4011a5ccc426492db4dd0891.html" target="_top" xlink:title="base">
<polygon fill="none" stroke="#ff0000" points="124.5897,-36 70.5897,-36 70.5897,0 124.5897,0 124.5897,-36"/>
<text text-anchor="middle" x="97.5897" y="-15.5" font-family="Helvetica,sans-Serif" font-size="10.00" fill="#000000">base</text>
</a>
</g>
</g>
<!-- dir_7d5b62515dd8f18807c7024eba340a33&#45;&gt;dir_09bf7f7c4011a5ccc426492db4dd0891 -->
<g id="edge6" class="edge">
<title>dir_7d5b62515dd8f18807c7024eba340a33&#45;&gt;dir_09bf7f7c4011a5ccc426492db4dd0891</title>
<path fill="none" stroke="#000000" d="M69.1193,-292.2645C50.4882,-283.7825 30.316,-270.8378 19.5897,-252 -.1689,-217.2997 -18.4508,-177.2465 36.5897,-72 42.7443,-60.2314 52.5906,-49.8312 62.5925,-41.3787"/>
<polygon fill="#000000" stroke="#000000" points="64.9301,-43.9916 70.5796,-35.0287 60.5739,-38.5123 64.9301,-43.9916"/>
<g id="a_edge6&#45;headlabel"><a xlink:href="dir_000631_000142.html" target="_top" xlink:title="7">
<text text-anchor="middle" x="63.8834" y="-45.951" font-family="Helvetica,sans-Serif" font-size="10.00" fill="#000000">7</text>
</a>
</g>
</g>
<!-- dir_bcbb2cf9a3d3d83e5515c82071a07177 -->
<g id="node4" class="node">
<title>dir_bcbb2cf9a3d3d83e5515c82071a07177</title>
<g id="a_node4"><a xlink:href="dir_bcbb2cf9a3d3d83e5515c82071a07177.html" target="_top" xlink:title="Framework">
<polygon fill="none" stroke="#ff0000" points="129.0897,-180 58.0897,-180 58.0897,-144 129.0897,-144 129.0897,-180"/>
<text text-anchor="middle" x="93.5897" y="-159.5" font-family="Helvetica,sans-Serif" font-size="10.00" fill="#000000">Framework</text>
</a>
</g>
</g>
<!-- dir_7d5b62515dd8f18807c7024eba340a33&#45;&gt;dir_bcbb2cf9a3d3d83e5515c82071a07177 -->
<g id="edge7" class="edge">
<title>dir_7d5b62515dd8f18807c7024eba340a33&#45;&gt;dir_bcbb2cf9a3d3d83e5515c82071a07177</title>
<path fill="none" stroke="#000000" d="M108.4366,-287.7623C105.537,-263.201 100.3481,-219.2474 96.937,-190.3541"/>
<polygon fill="#000000" stroke="#000000" points="100.3736,-189.6103 95.7253,-180.0896 93.4219,-190.431 100.3736,-189.6103"/>
<g id="a_edge7&#45;headlabel"><a xlink:href="dir_000631_000014.html" target="_top" xlink:title="8">
<text text-anchor="middle" x="103.6147" y="-190.3473" font-family="Helvetica,sans-Serif" font-size="10.00" fill="#000000">8</text>
</a>
</g>
</g>
<!-- dir_5cb2a8e9fdbe67a11efb4176f60bf3d6 -->
<g id="node5" class="node">
<title>dir_5cb2a8e9fdbe67a11efb4176f60bf3d6</title>
<g id="a_node5"><a xlink:href="dir_5cb2a8e9fdbe67a11efb4176f60bf3d6.html" target="_top" xlink:title="simulation">
<polygon fill="none" stroke="#ff0000" points="253.5897,-180 185.5897,-180 185.5897,-144 253.5897,-144 253.5897,-180"/>
<text text-anchor="middle" x="219.5897" y="-159.5" font-family="Helvetica,sans-Serif" font-size="10.00" fill="#000000">simulation</text>
</a>
</g>
</g>
<!-- dir_7d5b62515dd8f18807c7024eba340a33&#45;&gt;dir_5cb2a8e9fdbe67a11efb4176f60bf3d6 -->
<g id="edge8" class="edge">
<title>dir_7d5b62515dd8f18807c7024eba340a33&#45;&gt;dir_5cb2a8e9fdbe67a11efb4176f60bf3d6</title>
<path fill="none" stroke="#000000" d="M134.7445,-287.9956C146.7806,-278.2332 160.988,-265.4347 171.5897,-252 186.8164,-232.7043 199.6425,-207.8743 208.1947,-189.184"/>
<polygon fill="#000000" stroke="#000000" points="211.3995,-190.591 212.2675,-180.0318 205.0041,-187.745 211.3995,-190.591"/>
<g id="a_edge8&#45;headlabel"><a xlink:href="dir_000631_000306.html" target="_top" xlink:title="2">
<text text-anchor="middle" x="212.5321" y="-192.5294" font-family="Helvetica,sans-Serif" font-size="10.00" fill="#000000">2</text>
</a>
</g>
</g>
<!-- dir_2171f7ec022c5423887b07c69b2f5b48 -->
<g id="node6" class="node">
<title>dir_2171f7ec022c5423887b07c69b2f5b48</title>
<g id="a_node6"><a xlink:href="dir_2171f7ec022c5423887b07c69b2f5b48.html" target="_top" xlink:title="DataFormats">
<polygon fill="none" stroke="#ff0000" points="137.5897,-108 57.5897,-108 57.5897,-72 137.5897,-72 137.5897,-108"/>
<text text-anchor="middle" x="97.5897" y="-87.5" font-family="Helvetica,sans-Serif" font-size="10.00" fill="#000000">DataFormats</text>
</a>
</g>
</g>
<!-- dir_7d5b62515dd8f18807c7024eba340a33&#45;&gt;dir_2171f7ec022c5423887b07c69b2f5b48 -->
<g id="edge9" class="edge">
<title>dir_7d5b62515dd8f18807c7024eba340a33&#45;&gt;dir_2171f7ec022c5423887b07c69b2f5b48</title>
<path fill="none" stroke="#000000" d="M119.2701,-287.5832C132.4262,-257.0605 154.2107,-194.3622 137.5897,-144 134.2989,-134.0288 128.3781,-124.3944 122.0832,-116.0924"/>
<polygon fill="#000000" stroke="#000000" points="124.7617,-113.8384 115.7472,-108.2714 119.3225,-118.2448 124.7617,-113.8384"/>
<g id="a_edge9&#45;headlabel"><a xlink:href="dir_000631_000077.html" target="_top" xlink:title="4">
<text text-anchor="middle" x="129.2305" y="-112.3442" font-family="Helvetica,sans-Serif" font-size="10.00" fill="#000000">4</text>
</a>
</g>
</g>
<!-- dir_6af676bf18881990e4083e191d0e63e0&#45;&gt;dir_bcbb2cf9a3d3d83e5515c82071a07177 -->
<g id="edge1" class="edge">
<title>dir_6af676bf18881990e4083e191d0e63e0&#45;&gt;dir_bcbb2cf9a3d3d83e5515c82071a07177</title>
<path fill="none" stroke="#000000" d="M65.1787,-215.8314C69.4214,-207.7925 74.5018,-198.1666 79.1857,-189.2918"/>
<polygon fill="#000000" stroke="#000000" points="82.2993,-190.8908 83.8716,-180.4133 76.1086,-187.6235 82.2993,-190.8908"/>
<g id="a_edge1&#45;headlabel"><a xlink:href="dir_000020_000014.html" target="_top" xlink:title="2">
<text text-anchor="middle" x="83.1325" y="-192.895" font-family="Helvetica,sans-Serif" font-size="10.00" fill="#000000">2</text>
</a>
</g>
</g>
<!-- dir_09bf7f7c4011a5ccc426492db4dd0891&#45;&gt;dir_6af676bf18881990e4083e191d0e63e0 -->
<g id="edge2" class="edge">
<title>dir_09bf7f7c4011a5ccc426492db4dd0891&#45;&gt;dir_6af676bf18881990e4083e191d0e63e0</title>
<path fill="none" stroke="#000000" d="M74.9147,-36.0091C64.8009,-45.5028 53.9699,-58.0645 48.5897,-72 31.4811,-116.314 39.9674,-172.5924 47.7406,-205.8104"/>
<polygon fill="#000000" stroke="#000000" points="44.3995,-206.8787 50.206,-215.7407 51.1933,-205.192 44.3995,-206.8787"/>
<g id="a_edge2&#45;headlabel"><a xlink:href="dir_000142_000020.html" target="_top" xlink:title="1">
<text text-anchor="middle" x="40.7779" y="-201.5741" font-family="Helvetica,sans-Serif" font-size="10.00" fill="#000000">1</text>
</a>
</g>
</g>
<!-- dir_09bf7f7c4011a5ccc426492db4dd0891&#45;&gt;dir_2171f7ec022c5423887b07c69b2f5b48 -->
<g id="edge3" class="edge">
<title>dir_09bf7f7c4011a5ccc426492db4dd0891&#45;&gt;dir_2171f7ec022c5423887b07c69b2f5b48</title>
<path fill="none" stroke="#000000" d="M103.5657,-36.4133C104.2968,-44.0593 104.51,-53.1084 104.2052,-61.5726"/>
<polygon fill="#000000" stroke="#000000" points="100.6945,-61.6264 103.5421,-71.8314 107.6799,-62.078 100.6945,-61.6264"/>
<g id="a_edge3&#45;headlabel"><a xlink:href="dir_000142_000077.html" target="_top" xlink:title="11">
<text text-anchor="middle" x="98.0929" y="-55.3562" font-family="Helvetica,sans-Serif" font-size="10.00" fill="#000000">11</text>
</a>
</g>
</g>
<!-- dir_bcbb2cf9a3d3d83e5515c82071a07177&#45;&gt;dir_2171f7ec022c5423887b07c69b2f5b48 -->
<g id="edge4" class="edge">
<title>dir_bcbb2cf9a3d3d83e5515c82071a07177&#45;&gt;dir_2171f7ec022c5423887b07c69b2f5b48</title>
<path fill="none" stroke="#000000" d="M88.6467,-143.8314C88.324,-136.131 88.6118,-126.9743 89.3959,-118.4166"/>
<polygon fill="#000000" stroke="#000000" points="92.8799,-118.7578 90.5907,-108.4133 85.9293,-117.9276 92.8799,-118.7578"/>
<g id="a_edge4&#45;headlabel"><a xlink:href="dir_000014_000077.html" target="_top" xlink:title="82">
<text text-anchor="middle" x="95.2729" y="-120.1638" font-family="Helvetica,sans-Serif" font-size="10.00" fill="#000000">82</text>
</a>
</g>
</g>
<!-- dir_5cb2a8e9fdbe67a11efb4176f60bf3d6&#45;&gt;dir_09bf7f7c4011a5ccc426492db4dd0891 -->
<g id="edge10" class="edge">
<title>dir_5cb2a8e9fdbe67a11efb4176f60bf3d6&#45;&gt;dir_09bf7f7c4011a5ccc426492db4dd0891</title>
<path fill="none" stroke="#000000" d="M205.3356,-143.8293C190.8272,-125.4777 167.5523,-96.4286 146.5897,-72 138.5557,-62.6376 129.5376,-52.5779 121.4489,-43.7086"/>
<polygon fill="#000000" stroke="#000000" points="123.9655,-41.2743 114.628,-36.2682 118.8056,-46.0046 123.9655,-41.2743"/>
<g id="a_edge10&#45;headlabel"><a xlink:href="dir_000306_000142.html" target="_top" xlink:title="31">
<text text-anchor="middle" x="128.4874" y="-39.5053" font-family="Helvetica,sans-Serif" font-size="10.00" fill="#000000">31</text>
</a>
</g>
</g>
<!-- dir_5cb2a8e9fdbe67a11efb4176f60bf3d6&#45;&gt;dir_2171f7ec022c5423887b07c69b2f5b48 -->
<g id="edge11" class="edge">
<title>dir_5cb2a8e9fdbe67a11efb4176f60bf3d6&#45;&gt;dir_2171f7ec022c5423887b07c69b2f5b48</title>
<path fill="none" stroke="#000000" d="M188.8039,-143.8314C173.1994,-134.6221 154.0657,-123.3301 137.3593,-113.4706"/>
<polygon fill="#000000" stroke="#000000" points="138.7566,-110.2312 128.3656,-108.1628 135.1988,-116.2596 138.7566,-110.2312"/>
<g id="a_edge11&#45;headlabel"><a xlink:href="dir_000306_000077.html" target="_top" xlink:title="7">
<text text-anchor="middle" x="143.2953" y="-107.1129" font-family="Helvetica,sans-Serif" font-size="10.00" fill="#000000">7</text>
</a>
</g>
</g>
<!-- dir_2171f7ec022c5423887b07c69b2f5b48&#45;&gt;dir_09bf7f7c4011a5ccc426492db4dd0891 -->
<g id="edge12" class="edge">
<title>dir_2171f7ec022c5423887b07c69b2f5b48&#45;&gt;dir_09bf7f7c4011a5ccc426492db4dd0891</title>
<path fill="none" stroke="#000000" d="M91.6373,-71.8314C90.8869,-64.131 90.666,-54.9743 90.9746,-46.4166"/>
<polygon fill="#000000" stroke="#000000" points="94.4689,-46.6161 91.6137,-36.4133 87.4831,-46.1697 94.4689,-46.6161"/>
<g id="a_edge12&#45;headlabel"><a xlink:href="dir_000077_000142.html" target="_top" xlink:title="1">
<text text-anchor="middle" x="97.0733" y="-47.8844" font-family="Helvetica,sans-Serif" font-size="10.00" fill="#000000">1</text>
</a>
</g>
</g>
<!-- dir_2171f7ec022c5423887b07c69b2f5b48&#45;&gt;dir_bcbb2cf9a3d3d83e5515c82071a07177 -->
<g id="edge13" class="edge">
<title>dir_2171f7ec022c5423887b07c69b2f5b48&#45;&gt;dir_bcbb2cf9a3d3d83e5515c82071a07177</title>
<path fill="none" stroke="#000000" d="M102.5427,-108.4133C102.8525,-116.1442 102.553,-125.3097 101.7585,-133.8545"/>
<polygon fill="#000000" stroke="#000000" points="98.2779,-133.4834 100.5514,-143.8314 105.2272,-134.3241 98.2779,-133.4834"/>
<g id="a_edge13&#45;headlabel"><a xlink:href="dir_000077_000014.html" target="_top" xlink:title="12">
<text text-anchor="middle" x="95.8908" y="-127.0738" font-family="Helvetica,sans-Serif" font-size="10.00" fill="#000000">12</text>
</a>
</g>
</g>
</g>
</svg>
