<?xml version="1.0" encoding="UTF-8" standalone="no"?>
<!DOCTYPE svg PUBLIC "-//W3C//DTD SVG 1.1//EN"
 "http://www.w3.org/Graphics/SVG/1.1/DTD/svg11.dtd">
<!-- Generated by graphviz version 2.40.1 (20161225.0304)
 -->
<!-- Title: /home/travis/build/AliceO2Group/AliceO2/Detectors/TRD/base/include Pages: 1 -->
<svg width="257pt" height="178pt"
 viewBox="0.00 0.00 257.00 177.88" xmlns="http://www.w3.org/2000/svg" xmlns:xlink="http://www.w3.org/1999/xlink">
<g id="graph0" class="graph" transform="scale(1 1) rotate(0) translate(4 173.8774)">
<title>/home/travis/build/AliceO2Group/AliceO2/Detectors/TRD/base/include</title>
<g id="clust1" class="cluster">
<title>clusterdir_09bf7f7c4011a5ccc426492db4dd0891</title>
<g id="a_clust1"><a xlink:href="dir_09bf7f7c4011a5ccc426492db4dd0891.html" target="_top" xlink:title="base">
<polygon fill="#ddddee" stroke="#000000" points="8,-56 8,-143 174,-143 174,-56 8,-56"/>
<text text-anchor="middle" x="91" y="-131" font-family="Helvetica,sans-Serif" font-size="10.00" fill="#000000">base</text>
</a>
</g>
</g>
<g id="clust2" class="cluster">
<title>clusterdir_8b3cc3395a6e7eccd58a8c5fa5ac689e</title>
<g id="a_clust2"><a xlink:href="dir_8b3cc3395a6e7eccd58a8c5fa5ac689e.html" target="_top">
<polygon fill="#eeeeff" stroke="#000000" points="16,-64 16,-116 166,-116 166,-64 16,-64"/>
</a>
</g>
</g>
<!-- dir_8b3cc3395a6e7eccd58a8c5fa5ac689e -->
<g id="node1" class="node">
<title>dir_8b3cc3395a6e7eccd58a8c5fa5ac689e</title>
<text text-anchor="middle" x="131" y="-87.5" font-family="Helvetica,sans-Serif" font-size="10.00" fill="#000000">include</text>
</g>
<!-- dir_d35f133129df7406fd86f50aa0224173 -->
<g id="node2" class="node">
<title>dir_d35f133129df7406fd86f50aa0224173</title>
<g id="a_node2"><a xlink:href="dir_d35f133129df7406fd86f50aa0224173.html" target="_top" xlink:title="TRDBase">
<polygon fill="#ffffff" stroke="#000000" points="85.5,-108 24.5,-108 24.5,-72 85.5,-72 85.5,-108"/>
<text text-anchor="middle" x="55" y="-87.5" font-family="Helvetica,sans-Serif" font-size="10.00" fill="#000000">TRDBase</text>
</a>
</g>
</g>
<!-- dir_f511f1e9c03c071966ae594f00bbc5e0 -->
<g id="node3" class="node">
<title>dir_f511f1e9c03c071966ae594f00bbc5e0</title>
<g id="a_node3"><a xlink:href="dir_f511f1e9c03c071966ae594f00bbc5e0.html" target="_top" xlink:title="GPU">
<polygon fill="none" stroke="#ff0000" points="236,-108 182,-108 182,-72 236,-72 236,-108"/>
<text text-anchor="middle" x="209" y="-87.5" font-family="Helvetica,sans-Serif" font-size="10.00" fill="#000000">GPU</text>
</a>
</g>
</g>
<!-- dir_d35f133129df7406fd86f50aa0224173&#45;&gt;dir_f511f1e9c03c071966ae594f00bbc5e0 -->
<g id="edge1" class="edge">
<title>dir_d35f133129df7406fd86f50aa0224173&#45;&gt;dir_f511f1e9c03c071966ae594f00bbc5e0</title>
<path fill="none" stroke="#000000" d="M61.692,-108.0888C69.1192,-125.2242 82.9148,-149.9326 104,-161 126.4311,-172.7738 138.6257,-172.8814 161,-161 178.3031,-151.8116 190.5051,-133.2922 198.2759,-117.4712"/>
<polygon fill="#000000" stroke="#000000" points="201.5944,-118.6286 202.5477,-108.0767 195.2223,-115.7311 201.5944,-118.6286"/>
<g id="a_edge1&#45;headlabel"><a xlink:href="dir_000144_000690.html" target="_top" xlink:title="8">
<text text-anchor="middle" x="202.6912" y="-120.5761" font-family="Helvetica,sans-Serif" font-size="10.00" fill="#000000">8</text>
</a>
</g>
</g>
<!-- dir_2171f7ec022c5423887b07c69b2f5b48 -->
<g id="node4" class="node">
<title>dir_2171f7ec022c5423887b07c69b2f5b48</title>
<g id="a_node4"><a xlink:href="dir_2171f7ec022c5423887b07c69b2f5b48.html" target="_top" xlink:title="DataFormats">
<polygon fill="none" stroke="#ff0000" points="249,-36 169,-36 169,0 249,0 249,-36"/>
<text text-anchor="middle" x="209" y="-15.5" font-family="Helvetica,sans-Serif" font-size="10.00" fill="#000000">DataFormats</text>
</a>
</g>
</g>
<!-- dir_d35f133129df7406fd86f50aa0224173&#45;&gt;dir_2171f7ec022c5423887b07c69b2f5b48 -->
<g id="edge2" class="edge">
<title>dir_d35f133129df7406fd86f50aa0224173&#45;&gt;dir_2171f7ec022c5423887b07c69b2f5b48</title>
<path fill="none" stroke="#000000" d="M64.8854,-71.7912C70.8465,-66.1502 78.3772,-60.2952 86,-56 108.5036,-43.32 135.9055,-34.0166 159.2221,-27.7896"/>
<polygon fill="#000000" stroke="#000000" points="160.1155,-31.1739 168.9386,-25.3084 158.3835,-24.3915 160.1155,-31.1739"/>
<g id="a_edge2&#45;headlabel"><a xlink:href="dir_000144_000077.html" target="_top" xlink:title="5">
<text text-anchor="middle" x="157.3351" y="-32.3142" font-family="Helvetica,sans-Serif" font-size="10.00" fill="#000000">5</text>
</a>
</g>
</g>
<!-- dir_f511f1e9c03c071966ae594f00bbc5e0&#45;&gt;dir_2171f7ec022c5423887b07c69b2f5b48 -->
<g id="edge3" class="edge">
<title>dir_f511f1e9c03c071966ae594f00bbc5e0&#45;&gt;dir_2171f7ec022c5423887b07c69b2f5b48</title>
<path fill="none" stroke="#000000" d="M203.0476,-71.8314C202.2972,-64.131 202.0763,-54.9743 202.3849,-46.4166"/>
<polygon fill="#000000" stroke="#000000" points="205.8792,-46.6161 203.024,-36.4133 198.8935,-46.1697 205.8792,-46.6161"/>
<g id="a_edge3&#45;headlabel"><a xlink:href="dir_000690_000077.html" target="_top" xlink:title="15">
<text text-anchor="middle" x="208.4836" y="-47.8844" font-family="Helvetica,sans-Serif" font-size="10.00" fill="#000000">15</text>
</a>
</g>
</g>
<!-- dir_2171f7ec022c5423887b07c69b2f5b48&#45;&gt;dir_d35f133129df7406fd86f50aa0224173 -->
<g id="edge4" class="edge">
<title>dir_2171f7ec022c5423887b07c69b2f5b48&#45;&gt;dir_d35f133129df7406fd86f50aa0224173</title>
<path fill="none" stroke="#000000" d="M168.9374,-29.6562C148.7215,-35.8226 124.3566,-44.5298 104,-56 99.2358,-58.6845 94.5075,-61.9783 89.9442,-65.4483"/>
<polygon fill="#000000" stroke="#000000" points="87.602,-62.8386 81.9362,-71.7912 91.9483,-68.3258 87.602,-62.8386"/>
<g id="a_edge4&#45;headlabel"><a xlink:href="dir_000077_000144.html" target="_top" xlink:title="1">
<text text-anchor="middle" x="88.6569" y="-55.8811" font-family="Helvetica,sans-Serif" font-size="10.00" fill="#000000">1</text>
</a>
</g>
</g>
<!-- dir_2171f7ec022c5423887b07c69b2f5b48&#45;&gt;dir_f511f1e9c03c071966ae594f00bbc5e0 -->
<g id="edge5" class="edge">
<title>dir_2171f7ec022c5423887b07c69b2f5b48&#45;&gt;dir_f511f1e9c03c071966ae594f00bbc5e0</title>
<path fill="none" stroke="#000000" d="M214.976,-36.4133C215.7071,-44.0593 215.9203,-53.1084 215.6155,-61.5726"/>
<polygon fill="#000000" stroke="#000000" points="212.1048,-61.6264 214.9524,-71.8314 219.0902,-62.078 212.1048,-61.6264"/>
<g id="a_edge5&#45;headlabel"><a xlink:href="dir_000077_000690.html" target="_top" xlink:title="18">
<text text-anchor="middle" x="209.5032" y="-55.3562" font-family="Helvetica,sans-Serif" font-size="10.00" fill="#000000">18</text>
</a>
</g>
</g>
</g>
</svg>
