<?xml version="1.0" encoding="UTF-8" standalone="no"?>
<!DOCTYPE svg PUBLIC "-//W3C//DTD SVG 1.1//EN"
 "http://www.w3.org/Graphics/SVG/1.1/DTD/svg11.dtd">
<!-- Generated by graphviz version 2.40.1 (20161225.0304)
 -->
<!-- Title: Graphical Class Hierarchy Pages: 1 -->
<svg width="500pt" height="1535pt"
 viewBox="0.00 0.00 500.00 1535.00" xmlns="http://www.w3.org/2000/svg" xmlns:xlink="http://www.w3.org/1999/xlink">
<g id="graph0" class="graph" transform="scale(1 1) rotate(0) translate(4 1531)">
<title>Graphical Class Hierarchy</title>
<!-- Node1804 -->
<g id="node1" class="node">
<title>Node1804</title>
<polygon fill="none" stroke="#bfbfbf" points="0,-696 0,-715 65,-715 65,-696 0,-696"/>
<text text-anchor="middle" x="32.5" y="-703" font-family="Helvetica,sans-Serif" font-size="10.00" fill="#000000">exception</text>
</g>
<!-- Node0 -->
<g id="node2" class="node">
<title>Node0</title>
<g id="a_node2"><a xlink:href="de/df2/classnlohmann_1_1detail_1_1exception.html" target="_top" xlink:title="general exception of the basic_json class ">
<polygon fill="none" stroke="#000000" points="133,-1404 133,-1423 286,-1423 286,-1404 133,-1404"/>
<text text-anchor="middle" x="209.5" y="-1411" font-family="Helvetica,sans-Serif" font-size="10.00" fill="#000000">nlohmann::detail::exception</text>
</a>
</g>
</g>
<!-- Node1804&#45;&gt;Node0 -->
<g id="edge1" class="edge">
<title>Node1804&#45;&gt;Node0</title>
<path fill="none" stroke="#191970" d="M33.0665,-725.3208C36.3248,-832.9387 54.1963,-1344.0847 101,-1394.5 109.5222,-1403.6798 120.7863,-1409.406 132.8313,-1412.8448"/>
<polygon fill="#191970" stroke="#191970" points="36.5616,-725.0982 32.7679,-715.2059 29.5647,-725.3049 36.5616,-725.0982"/>
</g>
<!-- Node1811 -->
<g id="node8" class="node">
<title>Node1811</title>
<g id="a_node8"><a xlink:href="d5/dfa/classo2_1_1emcal_1_1AltroDecoderError.html" target="_top" xlink:title="Error handling of the ALTRO Decoder. ">
<polygon fill="none" stroke="#000000" points="130.5,-1366 130.5,-1385 288.5,-1385 288.5,-1366 130.5,-1366"/>
<text text-anchor="middle" x="209.5" y="-1373" font-family="Helvetica,sans-Serif" font-size="10.00" fill="#000000">o2::emcal::AltroDecoderError</text>
</a>
</g>
</g>
<!-- Node1804&#45;&gt;Node1811 -->
<g id="edge7" class="edge">
<title>Node1804&#45;&gt;Node1811</title>
<path fill="none" stroke="#191970" d="M33.2047,-725.4854C37.0623,-829.7186 57.0748,-1308.0416 101,-1355.5 108.9365,-1364.0749 119.2512,-1369.6989 130.36,-1373.2914"/>
<polygon fill="#191970" stroke="#191970" points="36.6985,-725.2492 32.8385,-715.3826 29.7031,-725.5028 36.6985,-725.2492"/>
</g>
<!-- Node1812 -->
<g id="node9" class="node">
<title>Node1812</title>
<g id="a_node9"><a xlink:href="d4/d61/classo2_1_1emcal_1_1AnalysisCluster_1_1CellOutOfRangeException.html" target="_top" xlink:title="Exception handling non&#45;existing cell indices. ">
<polygon fill="none" stroke="#000000" points="135,-1316.5 135,-1346.5 284,-1346.5 284,-1316.5 135,-1316.5"/>
<text text-anchor="start" x="143" y="-1334.5" font-family="Helvetica,sans-Serif" font-size="10.00" fill="#000000">o2::emcal::AnalysisCluster</text>
<text text-anchor="middle" x="209.5" y="-1323.5" font-family="Helvetica,sans-Serif" font-size="10.00" fill="#000000">::CellOutOfRangeException</text>
</a>
</g>
</g>
<!-- Node1804&#45;&gt;Node1812 -->
<g id="edge8" class="edge">
<title>Node1804&#45;&gt;Node1812</title>
<path fill="none" stroke="#191970" d="M33.4091,-725.1633C38.1448,-823.835 61.3033,-1262.0447 101,-1306.5 109.9482,-1316.5209 122.0347,-1322.9433 134.8959,-1326.9826"/>
<polygon fill="#191970" stroke="#191970" points="36.901,-724.9091 32.9333,-715.0852 29.9088,-725.2392 36.901,-724.9091"/>
</g>
<!-- Node1813 -->
<g id="node10" class="node">
<title>Node1813</title>
<g id="a_node10"><a xlink:href="d3/d23/classo2_1_1emcal_1_1CalibDB_1_1ObjectNotFoundException.html" target="_top" xlink:title="Handling errors due to objects not found in the CCDB. ">
<polygon fill="none" stroke="#000000" points="135,-1267.5 135,-1297.5 284,-1297.5 284,-1267.5 135,-1267.5"/>
<text text-anchor="start" x="143" y="-1285.5" font-family="Helvetica,sans-Serif" font-size="10.00" fill="#000000">o2::emcal::CalibDB</text>
<text text-anchor="middle" x="209.5" y="-1274.5" font-family="Helvetica,sans-Serif" font-size="10.00" fill="#000000">::ObjectNotFoundException</text>
</a>
</g>
</g>
<!-- Node1804&#45;&gt;Node1813 -->
<g id="edge9" class="edge">
<title>Node1804&#45;&gt;Node1813</title>
<path fill="none" stroke="#191970" d="M33.6259,-725.304C39.1412,-819.2429 64.5228,-1217.0579 101,-1257.5 109.9981,-1267.4761 122.1074,-1273.8781 134.9753,-1277.9113"/>
<polygon fill="#191970" stroke="#191970" points="37.1122,-724.9646 33.0401,-715.1836 30.1239,-725.3691 37.1122,-724.9646"/>
</g>
<!-- Node1814 -->
<g id="node11" class="node">
<title>Node1814</title>
<g id="a_node11"><a xlink:href="de/df6/classo2_1_1emcal_1_1CalibDB_1_1TypeMismatchException.html" target="_top" xlink:title="Class handling errors of wrong type of a query result. ">
<polygon fill="none" stroke="#000000" points="139.5,-1218.5 139.5,-1248.5 279.5,-1248.5 279.5,-1218.5 139.5,-1218.5"/>
<text text-anchor="start" x="147.5" y="-1236.5" font-family="Helvetica,sans-Serif" font-size="10.00" fill="#000000">o2::emcal::CalibDB</text>
<text text-anchor="middle" x="209.5" y="-1225.5" font-family="Helvetica,sans-Serif" font-size="10.00" fill="#000000">::TypeMismatchException</text>
</a>
</g>
</g>
<!-- Node1804&#45;&gt;Node1814 -->
<g id="edge10" class="edge">
<title>Node1804&#45;&gt;Node1814</title>
<path fill="none" stroke="#191970" d="M33.8689,-725.1982C40.1937,-813.7222 67.701,-1172.02 101,-1208.5 111.0346,-1219.4932 124.8487,-1226.1351 139.2609,-1230.0486"/>
<polygon fill="#191970" stroke="#191970" points="37.356,-724.8909 33.1606,-715.1622 30.3734,-725.3838 37.356,-724.8909"/>
</g>
<!-- Node1815 -->
<g id="node12" class="node">
<title>Node1815</title>
<g id="a_node12"><a xlink:href="d5/d6b/classo2_1_1emcal_1_1Channel_1_1HardwareAddressError.html" target="_top" xlink:title="Handling of uninitialized hardware addresses. ">
<polygon fill="none" stroke="#000000" points="143.5,-1169.5 143.5,-1199.5 275.5,-1199.5 275.5,-1169.5 143.5,-1169.5"/>
<text text-anchor="start" x="151.5" y="-1187.5" font-family="Helvetica,sans-Serif" font-size="10.00" fill="#000000">o2::emcal::Channel</text>
<text text-anchor="middle" x="209.5" y="-1176.5" font-family="Helvetica,sans-Serif" font-size="10.00" fill="#000000">::HardwareAddressError</text>
</a>
</g>
</g>
<!-- Node1804&#45;&gt;Node1815 -->
<g id="edge11" class="edge">
<title>Node1804&#45;&gt;Node1815</title>
<path fill="none" stroke="#191970" d="M34.1611,-725.0801C41.361,-807.9365 70.868,-1126.9632 101,-1159.5 112.0329,-1171.4135 127.5073,-1178.2004 143.3205,-1181.9424"/>
<polygon fill="#191970" stroke="#191970" points="37.6392,-724.6739 33.2954,-715.0105 30.6649,-725.2735 37.6392,-724.6739"/>
</g>
<!-- Node1816 -->
<g id="node13" class="node">
<title>Node1816</title>
<g id="a_node13"><a xlink:href="d6/d4e/classo2_1_1emcal_1_1ClusterFactory_1_1CellIndexRangeException.html" target="_top" xlink:title="o2::emcal::ClusterFactory\l\&lt; InputType \&gt;::CellIndexRangeException">
<polygon fill="none" stroke="#000000" points="101,-1120.5 101,-1150.5 318,-1150.5 318,-1120.5 101,-1120.5"/>
<text text-anchor="start" x="109" y="-1138.5" font-family="Helvetica,sans-Serif" font-size="10.00" fill="#000000">o2::emcal::ClusterFactory</text>
<text text-anchor="middle" x="209.5" y="-1127.5" font-family="Helvetica,sans-Serif" font-size="10.00" fill="#000000">&lt; InputType &gt;::CellIndexRangeException</text>
</a>
</g>
</g>
<!-- Node1804&#45;&gt;Node1816 -->
<g id="edge12" class="edge">
<title>Node1804&#45;&gt;Node1816</title>
<path fill="none" stroke="#191970" d="M33.0446,-725.5576C35.4615,-799.2735 47.6015,-1053.8592 101,-1110.5 104.5802,-1114.2976 108.6122,-1117.5723 112.9607,-1120.392"/>
<polygon fill="#191970" stroke="#191970" points="36.5363,-725.2271 32.7354,-715.3376 29.5395,-725.4389 36.5363,-725.2271"/>
</g>
<!-- Node1817 -->
<g id="node14" class="node">
<title>Node1817</title>
<g id="a_node14"><a xlink:href="d2/dd3/classo2_1_1emcal_1_1ClusterFactory_1_1ClusterRangeException.html" target="_top" xlink:title="o2::emcal::ClusterFactory\l\&lt; InputType \&gt;::ClusterRangeException">
<polygon fill="none" stroke="#000000" points="106.5,-1071.5 106.5,-1101.5 312.5,-1101.5 312.5,-1071.5 106.5,-1071.5"/>
<text text-anchor="start" x="114.5" y="-1089.5" font-family="Helvetica,sans-Serif" font-size="10.00" fill="#000000">o2::emcal::ClusterFactory</text>
<text text-anchor="middle" x="209.5" y="-1078.5" font-family="Helvetica,sans-Serif" font-size="10.00" fill="#000000">&lt; InputType &gt;::ClusterRangeException</text>
</a>
</g>
</g>
<!-- Node1804&#45;&gt;Node1817 -->
<g id="edge13" class="edge">
<title>Node1804&#45;&gt;Node1817</title>
<path fill="none" stroke="#191970" d="M33.5385,-725.2707C37.4885,-792.7596 53.8159,-1012.5679 101,-1061.5 104.6228,-1065.257 108.6884,-1068.4997 113.0629,-1071.2946"/>
<polygon fill="#191970" stroke="#191970" points="37.0255,-724.939 32.9736,-715.1496 30.0364,-725.3291 37.0255,-724.939"/>
</g>
<!-- Node1818 -->
<g id="node15" class="node">
<title>Node1818</title>
<g id="a_node15"><a xlink:href="dc/d28/classo2_1_1emcal_1_1DMAOutputStream_1_1OutputFileException.html" target="_top" xlink:title="o2::emcal::DMAOutputStream\l::OutputFileException">
<polygon fill="none" stroke="#000000" points="129,-1022.5 129,-1052.5 290,-1052.5 290,-1022.5 129,-1022.5"/>
<text text-anchor="start" x="137" y="-1040.5" font-family="Helvetica,sans-Serif" font-size="10.00" fill="#000000">o2::emcal::DMAOutputStream</text>
<text text-anchor="middle" x="209.5" y="-1029.5" font-family="Helvetica,sans-Serif" font-size="10.00" fill="#000000">::OutputFileException</text>
</a>
</g>
</g>
<!-- Node1804&#45;&gt;Node1818 -->
<g id="edge14" class="edge">
<title>Node1804&#45;&gt;Node1818</title>
<path fill="none" stroke="#191970" d="M34.1969,-725.2663C39.8524,-786.4798 60.0594,-971.2746 101,-1012.5 108.7641,-1020.3181 118.4497,-1025.8941 128.8162,-1029.8388"/>
<polygon fill="#191970" stroke="#191970" points="37.6595,-724.6909 33.2831,-715.0423 30.6873,-725.3142 37.6595,-724.6909"/>
</g>
<!-- Node1819 -->
<g id="node16" class="node">
<title>Node1819</title>
<g id="a_node16"><a xlink:href="d1/d3a/classo2_1_1emcal_1_1EventHandler_1_1InteractionRecordInvalidException.html" target="_top" xlink:title="Error handling in case the interaction records from various sources do not match. ...">
<polygon fill="none" stroke="#000000" points="127.5,-962 127.5,-1003 291.5,-1003 291.5,-962 127.5,-962"/>
<text text-anchor="start" x="135.5" y="-991" font-family="Helvetica,sans-Serif" font-size="10.00" fill="#000000">o2::emcal::EventHandler</text>
<text text-anchor="start" x="135.5" y="-980" font-family="Helvetica,sans-Serif" font-size="10.00" fill="#000000">&lt; CellInputType &gt;::Interaction</text>
<text text-anchor="middle" x="209.5" y="-969" font-family="Helvetica,sans-Serif" font-size="10.00" fill="#000000">RecordInvalidException</text>
</a>
</g>
</g>
<!-- Node1804&#45;&gt;Node1819 -->
<g id="edge15" class="edge">
<title>Node1804&#45;&gt;Node1819</title>
<path fill="none" stroke="#191970" d="M35.3974,-725.0289C43.5607,-777.5088 68.3006,-919.8258 101,-952.5 108.4654,-959.9596 117.6089,-965.607 127.3906,-969.8749"/>
<polygon fill="#191970" stroke="#191970" points="38.8369,-724.3659 33.8716,-715.0066 31.9166,-725.4195 38.8369,-724.3659"/>
</g>
<!-- Node1820 -->
<g id="node17" class="node">
<title>Node1820</title>
<g id="a_node17"><a xlink:href="d8/db5/classo2_1_1emcal_1_1EventHandler_1_1NotInitializedException.html" target="_top" xlink:title="Exception handling unitialized event handler. ">
<polygon fill="none" stroke="#000000" points="121.5,-902 121.5,-943 297.5,-943 297.5,-902 121.5,-902"/>
<text text-anchor="start" x="129.5" y="-931" font-family="Helvetica,sans-Serif" font-size="10.00" fill="#000000">o2::emcal::EventHandler</text>
<text text-anchor="start" x="129.5" y="-920" font-family="Helvetica,sans-Serif" font-size="10.00" fill="#000000">&lt; CellInputType &gt;::NotInitialized</text>
<text text-anchor="middle" x="209.5" y="-909" font-family="Helvetica,sans-Serif" font-size="10.00" fill="#000000">Exception</text>
</a>
</g>
</g>
<!-- Node1804&#45;&gt;Node1820 -->
<g id="edge16" class="edge">
<title>Node1804&#45;&gt;Node1820</title>
<path fill="none" stroke="#191970" d="M34.0572,-725.5225C38.1019,-763.5188 52.3118,-846.3133 101,-891.5 107.0309,-897.0972 114.0034,-901.6922 121.4461,-905.4633"/>
<polygon fill="#191970" stroke="#191970" points="37.5137,-724.8923 33.1013,-715.26 30.5439,-725.5415 37.5137,-724.8923"/>
</g>
<!-- Node1821 -->
<g id="node18" class="node">
<title>Node1821</title>
<g id="a_node18"><a xlink:href="d1/dd3/classo2_1_1emcal_1_1EventHandler_1_1RangeException.html" target="_top" xlink:title="Exception handling errors due to exceeding the range of triggers handled by the handler. ">
<polygon fill="none" stroke="#000000" points="114.5,-852.5 114.5,-882.5 304.5,-882.5 304.5,-852.5 114.5,-852.5"/>
<text text-anchor="start" x="122.5" y="-870.5" font-family="Helvetica,sans-Serif" font-size="10.00" fill="#000000">o2::emcal::EventHandler</text>
<text text-anchor="middle" x="209.5" y="-859.5" font-family="Helvetica,sans-Serif" font-size="10.00" fill="#000000">&lt; CellInputType &gt;::RangeException</text>
</a>
</g>
</g>
<!-- Node1804&#45;&gt;Node1821 -->
<g id="edge17" class="edge">
<title>Node1804&#45;&gt;Node1821</title>
<path fill="none" stroke="#191970" d="M36.7464,-725.3908C44.2559,-755.5373 62.8303,-812.4578 101,-842.5 105.9367,-846.3855 111.3686,-849.6874 117.0905,-852.4912"/>
<polygon fill="#191970" stroke="#191970" points="40.0649,-724.208 34.3922,-715.2597 33.2465,-725.7924 40.0649,-724.208"/>
</g>
<!-- Node1822 -->
<g id="node19" class="node">
<title>Node1822</title>
<g id="a_node19"><a xlink:href="d8/d3d/classo2_1_1emcal_1_1InvalidCellIDException.html" target="_top" xlink:title="Exception handling non&#45;existing cell IDs. ">
<polygon fill="none" stroke="#000000" points="119,-814 119,-833 300,-833 300,-814 119,-814"/>
<text text-anchor="middle" x="209.5" y="-821" font-family="Helvetica,sans-Serif" font-size="10.00" fill="#000000">o2::emcal::InvalidCellIDException</text>
</a>
</g>
</g>
<!-- Node1804&#45;&gt;Node1822 -->
<g id="edge18" class="edge">
<title>Node1804&#45;&gt;Node1822</title>
<path fill="none" stroke="#191970" d="M40.2961,-724.4524C50.6501,-747.0954 71.1733,-784.318 101,-803.5 107.6857,-807.7997 115.0551,-811.2309 122.7108,-813.9623"/>
<polygon fill="#191970" stroke="#191970" points="43.4633,-722.9591 36.2575,-715.192 37.0469,-725.7574 43.4633,-722.9591"/>
</g>
<!-- Node1823 -->
<g id="node20" class="node">
<title>Node1823</title>
<g id="a_node20"><a xlink:href="d0/da5/classo2_1_1emcal_1_1InvalidChanneltypeException.html" target="_top" xlink:title="Error handling invalid channel types. ">
<polygon fill="none" stroke="#000000" points="127,-764.5 127,-794.5 292,-794.5 292,-764.5 127,-764.5"/>
<text text-anchor="start" x="135" y="-782.5" font-family="Helvetica,sans-Serif" font-size="10.00" fill="#000000">o2::emcal::InvalidChanneltype</text>
<text text-anchor="middle" x="209.5" y="-771.5" font-family="Helvetica,sans-Serif" font-size="10.00" fill="#000000">Exception</text>
</a>
</g>
</g>
<!-- Node1804&#45;&gt;Node1823 -->
<g id="edge19" class="edge">
<title>Node1804&#45;&gt;Node1823</title>
<path fill="none" stroke="#191970" d="M51.074,-721.8909C64.1881,-732.6503 82.6312,-746.2153 101,-754.5 109.5462,-758.3545 118.7485,-761.6458 128.0516,-764.449"/>
<polygon fill="#191970" stroke="#191970" points="53.1785,-719.087 43.28,-715.3093 48.6622,-724.4353 53.1785,-719.087"/>
</g>
<!-- Node1824 -->
<g id="node21" class="node">
<title>Node1824</title>
<g id="a_node21"><a xlink:href="d0/d03/classo2_1_1emcal_1_1InvalidModuleException.html" target="_top" xlink:title="Error Handling when an invalid module ID (outside the limits) is called. ">
<polygon fill="none" stroke="#000000" points="140,-715.5 140,-745.5 279,-745.5 279,-715.5 140,-715.5"/>
<text text-anchor="start" x="148" y="-733.5" font-family="Helvetica,sans-Serif" font-size="10.00" fill="#000000">o2::emcal::InvalidModule</text>
<text text-anchor="middle" x="209.5" y="-722.5" font-family="Helvetica,sans-Serif" font-size="10.00" fill="#000000">Exception</text>
</a>
</g>
</g>
<!-- Node1804&#45;&gt;Node1824 -->
<g id="edge20" class="edge">
<title>Node1804&#45;&gt;Node1824</title>
<path fill="none" stroke="#191970" d="M75.379,-711.5564C94.707,-714.2863 118.0306,-717.5806 139.7702,-720.6512"/>
<polygon fill="#191970" stroke="#191970" points="75.7688,-708.0767 65.3775,-710.1437 74.7897,-715.008 75.7688,-708.0767"/>
</g>
<!-- Node1825 -->
<g id="node22" class="node">
<title>Node1825</title>
<g id="a_node22"><a xlink:href="d9/d6a/classo2_1_1emcal_1_1InvalidPositionException.html" target="_top" xlink:title="Exception handling errors due to positions not in the EMCAL area. ">
<polygon fill="none" stroke="#000000" points="138,-666.5 138,-696.5 281,-696.5 281,-666.5 138,-666.5"/>
<text text-anchor="start" x="146" y="-684.5" font-family="Helvetica,sans-Serif" font-size="10.00" fill="#000000">o2::emcal::InvalidPosition</text>
<text text-anchor="middle" x="209.5" y="-673.5" font-family="Helvetica,sans-Serif" font-size="10.00" fill="#000000">Exception</text>
</a>
</g>
</g>
<!-- Node1804&#45;&gt;Node1825 -->
<g id="edge21" class="edge">
<title>Node1804&#45;&gt;Node1825</title>
<path fill="none" stroke="#191970" d="M75.3905,-699.6843C94.1707,-697.1379 116.7216,-694.0801 137.9259,-691.205"/>
<polygon fill="#191970" stroke="#191970" points="74.8165,-696.23 65.3775,-701.042 75.7572,-703.1666 74.8165,-696.23"/>
</g>
<!-- Node1826 -->
<g id="node23" class="node">
<title>Node1826</title>
<g id="a_node23"><a xlink:href="d8/d89/classo2_1_1emcal_1_1InvalidSupermoduleTypeException.html" target="_top" xlink:title="Exception handling improper or uninitialized supermodule types. ">
<polygon fill="none" stroke="#000000" points="125.5,-617.5 125.5,-647.5 293.5,-647.5 293.5,-617.5 125.5,-617.5"/>
<text text-anchor="start" x="133.5" y="-635.5" font-family="Helvetica,sans-Serif" font-size="10.00" fill="#000000">o2::emcal::InvalidSupermodule</text>
<text text-anchor="middle" x="209.5" y="-624.5" font-family="Helvetica,sans-Serif" font-size="10.00" fill="#000000">TypeException</text>
</a>
</g>
</g>
<!-- Node1804&#45;&gt;Node1826 -->
<g id="edge22" class="edge">
<title>Node1804&#45;&gt;Node1826</title>
<path fill="none" stroke="#191970" d="M51.0509,-689.0576C64.1547,-678.2753 82.5951,-664.704 101,-656.5 108.7532,-653.044 117.0464,-650.067 125.4649,-647.5065"/>
<polygon fill="#191970" stroke="#191970" points="48.6308,-686.5206 43.2644,-695.6559 53.1563,-691.8611 48.6308,-686.5206"/>
</g>
<!-- Node1827 -->
<g id="node24" class="node">
<title>Node1827</title>
<g id="a_node24"><a xlink:href="df/d5f/classo2_1_1emcal_1_1Mapper_1_1AddressNotFoundException.html" target="_top" xlink:title="Error handling requests for unknown hardware addresses. ">
<polygon fill="none" stroke="#000000" points="134.5,-568.5 134.5,-598.5 284.5,-598.5 284.5,-568.5 134.5,-568.5"/>
<text text-anchor="start" x="142.5" y="-586.5" font-family="Helvetica,sans-Serif" font-size="10.00" fill="#000000">o2::emcal::Mapper::</text>
<text text-anchor="middle" x="209.5" y="-575.5" font-family="Helvetica,sans-Serif" font-size="10.00" fill="#000000">AddressNotFoundException</text>
</a>
</g>
</g>
<!-- Node1804&#45;&gt;Node1827 -->
<g id="edge23" class="edge">
<title>Node1804&#45;&gt;Node1827</title>
<path fill="none" stroke="#191970" d="M40.4104,-686.7219C50.8792,-664.2539 71.5176,-627.207 101,-607.5 111.0243,-600.7994 122.6211,-595.9401 134.425,-592.4223"/>
<polygon fill="#191970" stroke="#191970" points="37.192,-685.3455 36.3208,-695.9045 43.5865,-688.1935 37.192,-685.3455"/>
</g>
<!-- Node1828 -->
<g id="node25" class="node">
<title>Node1828</title>
<g id="a_node25"><a xlink:href="d7/dd2/classo2_1_1emcal_1_1Mapper_1_1AddressRangeException.html" target="_top" xlink:title="o2::emcal::Mapper::\lAddressRangeException">
<polygon fill="none" stroke="#000000" points="142.5,-519.5 142.5,-549.5 276.5,-549.5 276.5,-519.5 142.5,-519.5"/>
<text text-anchor="start" x="150.5" y="-537.5" font-family="Helvetica,sans-Serif" font-size="10.00" fill="#000000">o2::emcal::Mapper::</text>
<text text-anchor="middle" x="209.5" y="-526.5" font-family="Helvetica,sans-Serif" font-size="10.00" fill="#000000">AddressRangeException</text>
</a>
</g>
</g>
<!-- Node1804&#45;&gt;Node1828 -->
<g id="edge24" class="edge">
<title>Node1804&#45;&gt;Node1828</title>
<path fill="none" stroke="#191970" d="M35.8955,-685.9216C42.49,-654.0663 60.1407,-591.2861 101,-558.5 112.8118,-549.022 127.5818,-543.1001 142.385,-539.4444"/>
<polygon fill="#191970" stroke="#191970" points="32.4472,-685.3199 34.0041,-695.7997 39.3223,-686.6363 32.4472,-685.3199"/>
</g>
<!-- Node1829 -->
<g id="node26" class="node">
<title>Node1829</title>
<g id="a_node26"><a xlink:href="da/d7b/classo2_1_1emcal_1_1Mapper_1_1ChannelNotFoundException.html" target="_top" xlink:title="Exception handling invalid channel ID. ">
<polygon fill="none" stroke="#000000" points="134,-470.5 134,-500.5 285,-500.5 285,-470.5 134,-470.5"/>
<text text-anchor="start" x="142" y="-488.5" font-family="Helvetica,sans-Serif" font-size="10.00" fill="#000000">o2::emcal::Mapper::</text>
<text text-anchor="middle" x="209.5" y="-477.5" font-family="Helvetica,sans-Serif" font-size="10.00" fill="#000000">ChannelNotFoundException</text>
</a>
</g>
</g>
<!-- Node1804&#45;&gt;Node1829 -->
<g id="edge25" class="edge">
<title>Node1804&#45;&gt;Node1829</title>
<path fill="none" stroke="#191970" d="M36.8806,-685.5564C47.1407,-640.6304 73.9161,-533.5499 101,-509.5 110.3045,-501.2378 121.8081,-495.6154 133.8119,-491.8271"/>
<polygon fill="#191970" stroke="#191970" points="33.4125,-685.027 34.6379,-695.5507 40.2426,-686.5598 33.4125,-685.027"/>
</g>
<!-- Node1830 -->
<g id="node27" class="node">
<title>Node1830</title>
<g id="a_node27"><a xlink:href="d1/d91/classo2_1_1emcal_1_1Mapper_1_1FileFormatException.html" target="_top" xlink:title="Error handling for invalid file format. ">
<polygon fill="none" stroke="#000000" points="151.5,-421.5 151.5,-451.5 267.5,-451.5 267.5,-421.5 151.5,-421.5"/>
<text text-anchor="start" x="159.5" y="-439.5" font-family="Helvetica,sans-Serif" font-size="10.00" fill="#000000">o2::emcal::Mapper::</text>
<text text-anchor="middle" x="209.5" y="-428.5" font-family="Helvetica,sans-Serif" font-size="10.00" fill="#000000">FileFormatException</text>
</a>
</g>
</g>
<!-- Node1804&#45;&gt;Node1830 -->
<g id="edge26" class="edge">
<title>Node1804&#45;&gt;Node1830</title>
<path fill="none" stroke="#191970" d="M35.3853,-685.6833C43.4361,-633.1108 67.7548,-491.9672 101,-460.5 114.5207,-447.7024 133.2653,-441.1427 151.3741,-437.9366"/>
<polygon fill="#191970" stroke="#191970" points="31.898,-685.3389 33.8788,-695.7469 38.8208,-686.3753 31.898,-685.3389"/>
</g>
<!-- Node1831 -->
<g id="node28" class="node">
<title>Node1831</title>
<g id="a_node28"><a xlink:href="d5/d59/classo2_1_1emcal_1_1Mapper_1_1InitStatusException.html" target="_top" xlink:title="Error handling requests to not properly initialized mapping object. ">
<polygon fill="none" stroke="#000000" points="153,-372.5 153,-402.5 266,-402.5 266,-372.5 153,-372.5"/>
<text text-anchor="start" x="161" y="-390.5" font-family="Helvetica,sans-Serif" font-size="10.00" fill="#000000">o2::emcal::Mapper::</text>
<text text-anchor="middle" x="209.5" y="-379.5" font-family="Helvetica,sans-Serif" font-size="10.00" fill="#000000">InitStatusException</text>
</a>
</g>
</g>
<!-- Node1804&#45;&gt;Node1831 -->
<g id="edge27" class="edge">
<title>Node1804&#45;&gt;Node1831</title>
<path fill="none" stroke="#191970" d="M34.3875,-685.7631C40.475,-626.2954 61.5268,-450.5329 101,-411.5 114.6493,-398.0029 134.079,-391.3722 152.7339,-388.3091"/>
<polygon fill="#191970" stroke="#191970" points="30.9018,-685.4471 33.396,-695.7441 37.8675,-686.1391 30.9018,-685.4471"/>
</g>
<!-- Node1832 -->
<g id="node29" class="node">
<title>Node1832</title>
<g id="a_node29"><a xlink:href="d7/d93/classo2_1_1emcal_1_1MappingHandler_1_1DDLInvalid.html" target="_top" xlink:title="Error handling for invalid DDL IDs (not in range for EMCAL) ">
<polygon fill="none" stroke="#000000" points="134.5,-323.5 134.5,-353.5 284.5,-353.5 284.5,-323.5 134.5,-323.5"/>
<text text-anchor="start" x="142.5" y="-341.5" font-family="Helvetica,sans-Serif" font-size="10.00" fill="#000000">o2::emcal::MappingHandler</text>
<text text-anchor="middle" x="209.5" y="-330.5" font-family="Helvetica,sans-Serif" font-size="10.00" fill="#000000">::DDLInvalid</text>
</a>
</g>
</g>
<!-- Node1804&#45;&gt;Node1832 -->
<g id="edge28" class="edge">
<title>Node1804&#45;&gt;Node1832</title>
<path fill="none" stroke="#191970" d="M33.6878,-685.5918C38.0381,-619.5355 55.3,-409.1502 101,-362.5 110.1129,-353.1977 121.9633,-347.1323 134.4742,-343.2437"/>
<polygon fill="#191970" stroke="#191970" points="30.1766,-685.6621 33.0405,-695.8625 37.1627,-686.1025 30.1766,-685.6621"/>
</g>
<!-- Node1833 -->
<g id="node30" class="node">
<title>Node1833</title>
<g id="a_node30"><a xlink:href="db/df9/classo2_1_1emcal_1_1RawDecodingError.html" target="_top" xlink:title="Error handling of the raw readerThe following error types are defined: ">
<polygon fill="none" stroke="#000000" points="129,-285 129,-304 290,-304 290,-285 129,-285"/>
<text text-anchor="middle" x="209.5" y="-292" font-family="Helvetica,sans-Serif" font-size="10.00" fill="#000000">o2::emcal::RawDecodingError</text>
</a>
</g>
</g>
<!-- Node1804&#45;&gt;Node1833 -->
<g id="edge29" class="edge">
<title>Node1804&#45;&gt;Node1833</title>
<path fill="none" stroke="#191970" d="M33.0651,-685.5449C35.5358,-613.2813 47.7926,-366.7265 101,-313.5 108.7739,-305.7233 118.5294,-300.4815 128.9841,-297.0282"/>
<polygon fill="#191970" stroke="#191970" points="29.5546,-685.8245 32.738,-695.9297 36.5512,-686.0449 29.5546,-685.8245"/>
</g>
<!-- Node1834 -->
<g id="node31" class="node">
<title>Node1834</title>
<g id="a_node31"><a xlink:href="de/dcc/classo2_1_1emcal_1_1RawOutputPageHandler_1_1LinkIDException.html" target="_top" xlink:title="Exception handling invalid link IDs (outside the range of EMCAL links) ">
<polygon fill="none" stroke="#000000" points="135.5,-235.5 135.5,-265.5 283.5,-265.5 283.5,-235.5 135.5,-235.5"/>
<text text-anchor="start" x="143.5" y="-253.5" font-family="Helvetica,sans-Serif" font-size="10.00" fill="#000000">o2::emcal::RawOutputPage</text>
<text text-anchor="middle" x="209.5" y="-242.5" font-family="Helvetica,sans-Serif" font-size="10.00" fill="#000000">Handler::LinkIDException</text>
</a>
</g>
</g>
<!-- Node1804&#45;&gt;Node1834 -->
<g id="edge30" class="edge">
<title>Node1804&#45;&gt;Node1834</title>
<path fill="none" stroke="#191970" d="M32.8223,-685.6972C34.4748,-609.4644 44.3212,-336.1998 101,-275.5 110.1689,-265.6806 122.3562,-259.3503 135.2473,-255.3382"/>
<polygon fill="#191970" stroke="#191970" points="29.3206,-685.7588 32.6274,-695.8243 36.3193,-685.8936 29.3206,-685.7588"/>
</g>
<!-- Node1835 -->
<g id="node32" class="node">
<title>Node1835</title>
<g id="a_node32"><a xlink:href="d6/d82/classo2_1_1emcal_1_1RCUTrailer_1_1Error.html" target="_top" xlink:title="Error handling of the. ">
<polygon fill="none" stroke="#000000" points="149,-186.5 149,-216.5 270,-216.5 270,-186.5 149,-186.5"/>
<text text-anchor="start" x="157" y="-204.5" font-family="Helvetica,sans-Serif" font-size="10.00" fill="#000000">o2::emcal::RCUTrailer</text>
<text text-anchor="middle" x="209.5" y="-193.5" font-family="Helvetica,sans-Serif" font-size="10.00" fill="#000000">::Error</text>
</a>
</g>
</g>
<!-- Node1804&#45;&gt;Node1835 -->
<g id="edge31" class="edge">
<title>Node1804&#45;&gt;Node1835</title>
<path fill="none" stroke="#191970" d="M33.9889,-685.8854C40.6792,-600.0191 69.033,-259.9917 101,-225.5 113.3271,-212.1994 131.2301,-205.4305 148.9523,-202.19"/>
<polygon fill="#191970" stroke="#191970" points="30.4987,-685.6241 33.2204,-695.8633 37.478,-686.1617 30.4987,-685.6241"/>
</g>
<!-- Node1836 -->
<g id="node33" class="node">
<title>Node1836</title>
<g id="a_node33"><a xlink:href="d1/d37/classo2_1_1emcal_1_1RowColException.html" target="_top" xlink:title="Handling error for invalid positions in row&#45;column space. ">
<polygon fill="none" stroke="#000000" points="132,-148 132,-167 287,-167 287,-148 132,-148"/>
<text text-anchor="middle" x="209.5" y="-155" font-family="Helvetica,sans-Serif" font-size="10.00" fill="#000000">o2::emcal::RowColException</text>
</a>
</g>
</g>
<!-- Node1804&#45;&gt;Node1836 -->
<g id="edge32" class="edge">
<title>Node1804&#45;&gt;Node1836</title>
<path fill="none" stroke="#191970" d="M33.6952,-685.6191C39.3926,-593.8582 65.0149,-214.1264 101,-176.5 109.3931,-167.7241 120.2982,-162.1328 131.9526,-158.6863"/>
<polygon fill="#191970" stroke="#191970" points="30.1919,-685.5681 33.0743,-695.7633 37.1788,-685.9958 30.1919,-685.5681"/>
</g>
<!-- Node1837 -->
<g id="node34" class="node">
<title>Node1837</title>
<g id="a_node34"><a xlink:href="d5/d7d/classo2_1_1emcal_1_1SupermoduleIndexException.html" target="_top" xlink:title="Handling error due to invalid supermodule. ">
<polygon fill="none" stroke="#000000" points="128.5,-98.5 128.5,-128.5 290.5,-128.5 290.5,-98.5 128.5,-98.5"/>
<text text-anchor="start" x="136.5" y="-116.5" font-family="Helvetica,sans-Serif" font-size="10.00" fill="#000000">o2::emcal::SupermoduleIndex</text>
<text text-anchor="middle" x="209.5" y="-105.5" font-family="Helvetica,sans-Serif" font-size="10.00" fill="#000000">Exception</text>
</a>
</g>
</g>
<!-- Node1804&#45;&gt;Node1837 -->
<g id="edge33" class="edge">
<title>Node1804&#45;&gt;Node1837</title>
<path fill="none" stroke="#191970" d="M33.5712,-685.4532C38.8749,-589.5084 63.5755,-180.1274 101,-138.5 108.4311,-130.2343 117.9978,-124.4205 128.3658,-120.3742"/>
<polygon fill="#191970" stroke="#191970" points="30.0702,-685.3786 33.021,-695.5542 37.0598,-685.7594 30.0702,-685.3786"/>
</g>
<!-- Node1838 -->
<g id="node35" class="node">
<title>Node1838</title>
<g id="a_node35"><a xlink:href="d3/d0a/classo2_1_1phos_1_1CalibDB_1_1ObjectNotFoundException.html" target="_top" xlink:title="Handling errors due to objects not found in the CCDB. ">
<polygon fill="none" stroke="#000000" points="138,-49.5 138,-79.5 281,-79.5 281,-49.5 138,-49.5"/>
<text text-anchor="start" x="146" y="-67.5" font-family="Helvetica,sans-Serif" font-size="10.00" fill="#000000">o2::phos::CalibDB::</text>
<text text-anchor="middle" x="209.5" y="-56.5" font-family="Helvetica,sans-Serif" font-size="10.00" fill="#000000">ObjectNotFoundException</text>
</a>
</g>
</g>
<!-- Node1804&#45;&gt;Node1838 -->
<g id="edge34" class="edge">
<title>Node1804&#45;&gt;Node1838</title>
<path fill="none" stroke="#191970" d="M33.3501,-685.6156C37.8331,-584.8983 60.0851,-134.0507 101,-88.5 110.6688,-77.7357 123.9849,-71.2187 137.9813,-67.3842"/>
<polygon fill="#191970" stroke="#191970" points="29.8513,-685.5136 32.9109,-695.657 36.8446,-685.8195 29.8513,-685.5136"/>
</g>
<!-- Node1839 -->
<g id="node36" class="node">
<title>Node1839</title>
<g id="a_node36"><a xlink:href="db/d00/classo2_1_1phos_1_1CalibDB_1_1TypeMismatchException.html" target="_top" xlink:title="Class handling errors of wrong type of a query result. ">
<polygon fill="none" stroke="#000000" points="142.5,-.5 142.5,-30.5 276.5,-30.5 276.5,-.5 142.5,-.5"/>
<text text-anchor="start" x="150.5" y="-18.5" font-family="Helvetica,sans-Serif" font-size="10.00" fill="#000000">o2::phos::CalibDB::</text>
<text text-anchor="middle" x="209.5" y="-7.5" font-family="Helvetica,sans-Serif" font-size="10.00" fill="#000000">TypeMismatchException</text>
</a>
</g>
</g>
<!-- Node1804&#45;&gt;Node1839 -->
<g id="edge35" class="edge">
<title>Node1804&#45;&gt;Node1839</title>
<path fill="none" stroke="#191970" d="M33.1756,-685.7239C36.9476,-580.4774 56.8417,-89.0626 101,-39.5 111.6519,-27.5444 126.802,-20.8185 142.4138,-17.1878"/>
<polygon fill="#191970" stroke="#191970" points="29.6718,-685.7718 32.8189,-695.8885 36.6675,-686.0174 29.6718,-685.7718"/>
</g>
<!-- Node1 -->
<g id="node3" class="node">
<title>Node1</title>
<g id="a_node3"><a xlink:href="d4/d5f/classnlohmann_1_1detail_1_1invalid__iterator.html" target="_top" xlink:title="exception indicating errors with iterators ">
<polygon fill="none" stroke="#000000" points="354,-1496.5 354,-1526.5 492,-1526.5 492,-1496.5 354,-1496.5"/>
<text text-anchor="start" x="362" y="-1514.5" font-family="Helvetica,sans-Serif" font-size="10.00" fill="#000000">nlohmann::detail::invalid</text>
<text text-anchor="middle" x="423" y="-1503.5" font-family="Helvetica,sans-Serif" font-size="10.00" fill="#000000">_iterator</text>
</a>
</g>
</g>
<!-- Node0&#45;&gt;Node1 -->
<g id="edge2" class="edge">
<title>Node0&#45;&gt;Node1</title>
<path fill="none" stroke="#191970" d="M235.3899,-1428.1423C263.9096,-1443.9424 311.3906,-1469.2831 354,-1487.5 361.2304,-1490.5912 369.0058,-1493.5929 376.6381,-1496.367"/>
<polygon fill="#191970" stroke="#191970" points="236.9179,-1424.987 226.4793,-1423.1738 233.5088,-1431.1008 236.9179,-1424.987"/>
</g>
<!-- Node2 -->
<g id="node4" class="node">
<title>Node2</title>
<g id="a_node4"><a xlink:href="d5/d1b/classnlohmann_1_1detail_1_1other__error.html" target="_top" xlink:title="exception indicating other library errors ">
<polygon fill="none" stroke="#000000" points="357.5,-1447.5 357.5,-1477.5 488.5,-1477.5 488.5,-1447.5 357.5,-1447.5"/>
<text text-anchor="start" x="365.5" y="-1465.5" font-family="Helvetica,sans-Serif" font-size="10.00" fill="#000000">nlohmann::detail::other</text>
<text text-anchor="middle" x="423" y="-1454.5" font-family="Helvetica,sans-Serif" font-size="10.00" fill="#000000">_error</text>
</a>
</g>
</g>
<!-- Node0&#45;&gt;Node2 -->
<g id="edge3" class="edge">
<title>Node0&#45;&gt;Node2</title>
<path fill="none" stroke="#191970" d="M260.8287,-1425.2804C289.7961,-1431.9286 326.2975,-1440.306 357.3323,-1447.4287"/>
<polygon fill="#191970" stroke="#191970" points="261.4476,-1421.8315 250.9181,-1423.0058 259.8817,-1428.6541 261.4476,-1421.8315"/>
</g>
<!-- Node3 -->
<g id="node5" class="node">
<title>Node3</title>
<g id="a_node5"><a xlink:href="d2/d67/classnlohmann_1_1detail_1_1out__of__range.html" target="_top" xlink:title="exception indicating access out of the defined range ">
<polygon fill="none" stroke="#000000" points="362.5,-1398.5 362.5,-1428.5 483.5,-1428.5 483.5,-1398.5 362.5,-1398.5"/>
<text text-anchor="start" x="370.5" y="-1416.5" font-family="Helvetica,sans-Serif" font-size="10.00" fill="#000000">nlohmann::detail::out</text>
<text text-anchor="middle" x="423" y="-1405.5" font-family="Helvetica,sans-Serif" font-size="10.00" fill="#000000">_of_range</text>
</a>
</g>
</g>
<!-- Node0&#45;&gt;Node3 -->
<g id="edge4" class="edge">
<title>Node0&#45;&gt;Node3</title>
<path fill="none" stroke="#191970" d="M296.3437,-1413.5C318.4665,-1413.5 341.7717,-1413.5 362.2752,-1413.5"/>
<polygon fill="#191970" stroke="#191970" points="296.2768,-1410.0001 286.2768,-1413.5 296.2767,-1417.0001 296.2768,-1410.0001"/>
</g>
<!-- Node4 -->
<g id="node6" class="node">
<title>Node4</title>
<g id="a_node6"><a xlink:href="d5/d1a/classnlohmann_1_1detail_1_1parse__error.html" target="_top" xlink:title="exception indicating a parse error ">
<polygon fill="none" stroke="#000000" points="357,-1349.5 357,-1379.5 489,-1379.5 489,-1349.5 357,-1349.5"/>
<text text-anchor="start" x="365" y="-1367.5" font-family="Helvetica,sans-Serif" font-size="10.00" fill="#000000">nlohmann::detail::parse</text>
<text text-anchor="middle" x="423" y="-1356.5" font-family="Helvetica,sans-Serif" font-size="10.00" fill="#000000">_error</text>
</a>
</g>
</g>
<!-- Node0&#45;&gt;Node4 -->
<g id="edge5" class="edge">
<title>Node0&#45;&gt;Node4</title>
<path fill="none" stroke="#191970" d="M280.5091,-1402.1689C293.0462,-1399.8544 305.9407,-1397.2706 318,-1394.5 336.5696,-1390.2337 356.7415,-1384.6936 374.3958,-1379.5373"/>
<polygon fill="#191970" stroke="#191970" points="279.7733,-1398.745 270.554,-1403.9657 281.0167,-1405.6337 279.7733,-1398.745"/>
</g>
<!-- Node5 -->
<g id="node7" class="node">
<title>Node5</title>
<g id="a_node7"><a xlink:href="da/d1c/classnlohmann_1_1detail_1_1type__error.html" target="_top" xlink:title="exception indicating executing a member function with a wrong type ">
<polygon fill="none" stroke="#000000" points="359.5,-1300.5 359.5,-1330.5 486.5,-1330.5 486.5,-1300.5 359.5,-1300.5"/>
<text text-anchor="start" x="367.5" y="-1318.5" font-family="Helvetica,sans-Serif" font-size="10.00" fill="#000000">nlohmann::detail::type</text>
<text text-anchor="middle" x="423" y="-1307.5" font-family="Helvetica,sans-Serif" font-size="10.00" fill="#000000">_error</text>
</a>
</g>
</g>
<!-- Node0&#45;&gt;Node5 -->
<g id="edge6" class="edge">
<title>Node0&#45;&gt;Node5</title>
<path fill="none" stroke="#191970" d="M295.7714,-1405.2536C303.632,-1402.5047 311.187,-1398.9861 318,-1394.5 342.4007,-1378.4333 330.9737,-1357.4812 354,-1339.5 358.3984,-1336.0653 363.3231,-1333.1023 368.4634,-1330.5503"/>
<polygon fill="#191970" stroke="#191970" points="294.5914,-1401.9547 286.0611,-1408.2384 296.6481,-1408.6457 294.5914,-1401.9547"/>
</g>
</g>
</svg>
