<?xml version="1.0" encoding="UTF-8" standalone="no"?>
<!DOCTYPE svg PUBLIC "-//W3C//DTD SVG 1.1//EN"
 "http://www.w3.org/Graphics/SVG/1.1/DTD/svg11.dtd">
<!-- Generated by graphviz version 2.40.1 (20161225.0304)
 -->
<!-- Title: Graphical Class Hierarchy Pages: 1 -->
<svg width="466pt" height="634pt"
 viewBox="0.00 0.00 466.00 633.50" xmlns="http://www.w3.org/2000/svg" xmlns:xlink="http://www.w3.org/1999/xlink">
<g id="graph0" class="graph" transform="scale(1 1) rotate(0) translate(4 629.5)">
<title>Graphical Class Hierarchy</title>
<!-- Node2809 -->
<g id="node1" class="node">
<title>Node2809</title>
<polygon fill="none" stroke="#bfbfbf" points="0,-306 0,-325 58,-325 58,-306 0,-306"/>
<text text-anchor="middle" x="29" y="-313" font-family="Helvetica,sans-Serif" font-size="10.00" fill="#000000">TNamed</text>
</g>
<!-- Node0 -->
<g id="node2" class="node">
<title>Node0</title>
<g id="a_node2"><a xlink:href="dc/def/classAliTPCPoissonSolver.html" target="_top" xlink:title="AliTPCPoissonSolver">
<polygon fill="none" stroke="#000000" points="116,-606 116,-625 232,-625 232,-606 116,-606"/>
<text text-anchor="middle" x="174" y="-613" font-family="Helvetica,sans-Serif" font-size="10.00" fill="#000000">AliTPCPoissonSolver</text>
</a>
</g>
</g>
<!-- Node2809&#45;&gt;Node0 -->
<g id="edge1" class="edge">
<title>Node2809&#45;&gt;Node0</title>
<path fill="none" stroke="#191970" d="M30.872,-335.0737C36.7612,-392.5343 56.7664,-559.0475 94,-596.5 100.0387,-602.5742 107.6413,-606.8448 115.743,-609.8236"/>
<polygon fill="#191970" stroke="#191970" points="34.3533,-334.711 29.8814,-325.1061 27.3876,-335.4033 34.3533,-334.711"/>
</g>
<!-- Node2811 -->
<g id="node3" class="node">
<title>Node2811</title>
<g id="a_node3"><a xlink:href="de/df4/classAnalysisCut.html" target="_top" xlink:title="AnalysisCut">
<polygon fill="none" stroke="#000000" points="137,-568 137,-587 211,-587 211,-568 137,-568"/>
<text text-anchor="middle" x="174" y="-575" font-family="Helvetica,sans-Serif" font-size="10.00" fill="#000000">AnalysisCut</text>
</a>
</g>
</g>
<!-- Node2809&#45;&gt;Node2811 -->
<g id="edge2" class="edge">
<title>Node2809&#45;&gt;Node2811</title>
<path fill="none" stroke="#191970" d="M31.6394,-335.118C39.0323,-387.1686 61.5466,-526.9489 94,-558.5 105.2589,-569.4459 121.6127,-574.4932 136.6042,-576.69"/>
<polygon fill="#191970" stroke="#191970" points="35.0983,-334.5794 30.2584,-325.1547 28.1646,-335.5406 35.0983,-334.5794"/>
</g>
<!-- Node2813 -->
<g id="node5" class="node">
<title>Node2813</title>
<g id="a_node5"><a xlink:href="d8/d8f/classCorrelationContainer.html" target="_top" xlink:title="CorrelationContainer">
<polygon fill="none" stroke="#000000" points="115,-530 115,-549 233,-549 233,-530 115,-530"/>
<text text-anchor="middle" x="174" y="-537" font-family="Helvetica,sans-Serif" font-size="10.00" fill="#000000">CorrelationContainer</text>
</a>
</g>
</g>
<!-- Node2809&#45;&gt;Node2813 -->
<g id="edge4" class="edge">
<title>Node2809&#45;&gt;Node2813</title>
<path fill="none" stroke="#191970" d="M32.6632,-335.0554C41.6836,-381.164 66.262,-494.7388 94,-520.5 99.9622,-526.0373 107.2354,-530.0507 114.9402,-532.9443"/>
<polygon fill="#191970" stroke="#191970" points="36.0773,-334.2747 30.7562,-325.1131 29.2026,-335.5934 36.0773,-334.2747"/>
</g>
<!-- Node2814 -->
<g id="node6" class="node">
<title>Node2814</title>
<g id="a_node6"><a xlink:href="d7/d2c/classHistogramManager.html" target="_top" xlink:title="HistogramManager">
<polygon fill="none" stroke="#000000" points="119,-492 119,-511 229,-511 229,-492 119,-492"/>
<text text-anchor="middle" x="174" y="-499" font-family="Helvetica,sans-Serif" font-size="10.00" fill="#000000">HistogramManager</text>
</a>
</g>
</g>
<!-- Node2809&#45;&gt;Node2814 -->
<g id="edge5" class="edge">
<title>Node2809&#45;&gt;Node2814</title>
<path fill="none" stroke="#191970" d="M30.8168,-335.1179C35.1492,-370.19 49.3263,-443.6019 94,-482.5 101.1056,-488.6869 109.8647,-492.9466 118.9525,-495.8615"/>
<polygon fill="#191970" stroke="#191970" points="34.2955,-334.731 29.7299,-325.1703 27.3369,-335.4914 34.2955,-334.731"/>
</g>
<!-- Node2815 -->
<g id="node7" class="node">
<title>Node2815</title>
<g id="a_node7"><a xlink:href="d2/d97/classo2_1_1cpv_1_1GeometryParams.html" target="_top" xlink:title="o2::cpv::GeometryParams">
<polygon fill="none" stroke="#000000" points="103,-454 103,-473 245,-473 245,-454 103,-454"/>
<text text-anchor="middle" x="174" y="-461" font-family="Helvetica,sans-Serif" font-size="10.00" fill="#000000">o2::cpv::GeometryParams</text>
</a>
</g>
</g>
<!-- Node2809&#45;&gt;Node2815 -->
<g id="edge6" class="edge">
<title>Node2809&#45;&gt;Node2815</title>
<path fill="none" stroke="#191970" d="M33.2996,-334.9946C40.6417,-363.5402 58.3867,-416.3653 94,-444.5 98.8166,-448.3052 104.2723,-451.3681 110.0163,-453.8308"/>
<polygon fill="#191970" stroke="#191970" points="36.6442,-333.9327 30.9082,-325.0249 29.8373,-335.5655 36.6442,-333.9327"/>
</g>
<!-- Node2816 -->
<g id="node8" class="node">
<title>Node2816</title>
<g id="a_node8"><a xlink:href="dc/d50/classo2_1_1detectors_1_1AlignParam.html" target="_top" xlink:title="o2::detectors::AlignParam">
<polygon fill="none" stroke="#000000" points="103,-416 103,-435 245,-435 245,-416 103,-416"/>
<text text-anchor="middle" x="174" y="-423" font-family="Helvetica,sans-Serif" font-size="10.00" fill="#000000">o2::detectors::AlignParam</text>
</a>
</g>
</g>
<!-- Node2809&#45;&gt;Node2816 -->
<g id="edge7" class="edge">
<title>Node2809&#45;&gt;Node2816</title>
<path fill="none" stroke="#191970" d="M37.4015,-334.3953C47.6953,-355.309 67.1374,-388.4414 94,-406.5 99.8051,-410.4025 106.3188,-413.5072 113.0572,-415.9764"/>
<polygon fill="#191970" stroke="#191970" points="40.5139,-332.7892 33.0906,-325.2297 34.1795,-335.7684 40.5139,-332.7892"/>
</g>
<!-- Node2817 -->
<g id="node9" class="node">
<title>Node2817</title>
<g id="a_node9"><a xlink:href="db/d53/classo2_1_1field_1_1MagneticWrapperChebyshev.html" target="_top" xlink:title="o2::field::MagneticWrapper\lChebyshev">
<polygon fill="none" stroke="#000000" points="101,-366.5 101,-396.5 247,-396.5 247,-366.5 101,-366.5"/>
<text text-anchor="start" x="109" y="-384.5" font-family="Helvetica,sans-Serif" font-size="10.00" fill="#000000">o2::field::MagneticWrapper</text>
<text text-anchor="middle" x="174" y="-373.5" font-family="Helvetica,sans-Serif" font-size="10.00" fill="#000000">Chebyshev</text>
</a>
</g>
</g>
<!-- Node2809&#45;&gt;Node2817 -->
<g id="edge8" class="edge">
<title>Node2809&#45;&gt;Node2817</title>
<path fill="none" stroke="#191970" d="M50.1224,-330.7985C62.465,-339.2246 78.6009,-349.3852 94,-356.5 101.9257,-360.1619 110.5308,-363.4806 119.0614,-366.4157"/>
<polygon fill="#191970" stroke="#191970" points="52.0734,-327.892 41.8702,-325.0378 48.0665,-333.6318 52.0734,-327.892"/>
</g>
<!-- Node2818 -->
<g id="node10" class="node">
<title>Node2818</title>
<g id="a_node10"><a xlink:href="da/dd1/classo2_1_1math__utils_1_1Chebyshev3D.html" target="_top" xlink:title="o2::math_utils::Chebyshev3D">
<polygon fill="none" stroke="#000000" points="94,-328 94,-347 254,-347 254,-328 94,-328"/>
<text text-anchor="middle" x="174" y="-335" font-family="Helvetica,sans-Serif" font-size="10.00" fill="#000000">o2::math_utils::Chebyshev3D</text>
</a>
</g>
</g>
<!-- Node2809&#45;&gt;Node2818 -->
<g id="edge9" class="edge">
<title>Node2809&#45;&gt;Node2818</title>
<path fill="none" stroke="#191970" d="M68.4661,-321.488C81.6402,-323.4868 96.6653,-325.7665 111.1652,-327.9664"/>
<polygon fill="#191970" stroke="#191970" points="68.7548,-317.9918 58.3429,-319.952 67.7047,-324.9126 68.7548,-317.9918"/>
</g>
<!-- Node2819 -->
<g id="node11" class="node">
<title>Node2819</title>
<g id="a_node11"><a xlink:href="df/d49/classo2_1_1math__utils_1_1Chebyshev3DCalc.html" target="_top" xlink:title="o2::math_utils::Chebyshev3\lDCalc">
<polygon fill="none" stroke="#000000" points="98,-278.5 98,-308.5 250,-308.5 250,-278.5 98,-278.5"/>
<text text-anchor="start" x="106" y="-296.5" font-family="Helvetica,sans-Serif" font-size="10.00" fill="#000000">o2::math_utils::Chebyshev3</text>
<text text-anchor="middle" x="174" y="-285.5" font-family="Helvetica,sans-Serif" font-size="10.00" fill="#000000">DCalc</text>
</a>
</g>
</g>
<!-- Node2809&#45;&gt;Node2819 -->
<g id="edge10" class="edge">
<title>Node2809&#45;&gt;Node2819</title>
<path fill="none" stroke="#191970" d="M68.3215,-309.534C77.5418,-308.135 87.6749,-306.5976 97.9037,-305.0456"/>
<polygon fill="#191970" stroke="#191970" points="67.7047,-306.0874 58.3429,-311.048 68.7548,-313.0082 67.7047,-306.0874"/>
</g>
<!-- Node2820 -->
<g id="node12" class="node">
<title>Node2820</title>
<g id="a_node12"><a xlink:href="d8/db1/classo2_1_1mft_1_1Geometry.html" target="_top" xlink:title="o2::mft::Geometry">
<polygon fill="none" stroke="#000000" points="120.5,-240 120.5,-259 227.5,-259 227.5,-240 120.5,-240"/>
<text text-anchor="middle" x="174" y="-247" font-family="Helvetica,sans-Serif" font-size="10.00" fill="#000000">o2::mft::Geometry</text>
</a>
</g>
</g>
<!-- Node2809&#45;&gt;Node2820 -->
<g id="edge11" class="edge">
<title>Node2809&#45;&gt;Node2820</title>
<path fill="none" stroke="#191970" d="M47.5037,-299.5764C59.9223,-289.6308 77.0546,-277.2802 94,-269.5 103.2375,-265.2588 113.5046,-261.8317 123.5197,-259.0934"/>
<polygon fill="#191970" stroke="#191970" points="45.2104,-296.9309 39.7194,-305.9918 49.6624,-302.3328 45.2104,-296.9309"/>
</g>
<!-- Node2821 -->
<g id="node13" class="node">
<title>Node2821</title>
<g id="a_node13"><a xlink:href="d6/daf/classo2_1_1mft_1_1HalfDetector.html" target="_top" xlink:title="o2::mft::HalfDetector">
<polygon fill="none" stroke="#000000" points="114,-202 114,-221 234,-221 234,-202 114,-202"/>
<text text-anchor="middle" x="174" y="-209" font-family="Helvetica,sans-Serif" font-size="10.00" fill="#000000">o2::mft::HalfDetector</text>
</a>
</g>
</g>
<!-- Node2809&#45;&gt;Node2821 -->
<g id="edge12" class="edge">
<title>Node2809&#45;&gt;Node2821</title>
<path fill="none" stroke="#191970" d="M38.1992,-296.9716C48.8948,-277.3954 68.4031,-247.1085 94,-230.5 99.9876,-226.6149 106.6881,-223.5227 113.5946,-221.0618"/>
<polygon fill="#191970" stroke="#191970" points="35.0838,-295.3763 33.546,-305.859 41.2852,-298.6233 35.0838,-295.3763"/>
</g>
<!-- Node2822 -->
<g id="node14" class="node">
<title>Node2822</title>
<g id="a_node14"><a xlink:href="d6/d53/classo2_1_1mft_1_1HalfDisk.html" target="_top" xlink:title="o2::mft::HalfDisk">
<polygon fill="none" stroke="#000000" points="124,-164 124,-183 224,-183 224,-164 124,-164"/>
<text text-anchor="middle" x="174" y="-171" font-family="Helvetica,sans-Serif" font-size="10.00" fill="#000000">o2::mft::HalfDisk</text>
</a>
</g>
</g>
<!-- Node2809&#45;&gt;Node2822 -->
<g id="edge13" class="edge">
<title>Node2809&#45;&gt;Node2822</title>
<path fill="none" stroke="#191970" d="M33.9033,-295.7266C41.7764,-268.2365 59.9286,-218.8837 94,-192.5 102.578,-185.8575 113.1136,-181.4844 123.6884,-178.6188"/>
<polygon fill="#191970" stroke="#191970" points="30.4312,-295.1614 31.2198,-305.7269 37.192,-296.9757 30.4312,-295.1614"/>
</g>
<!-- Node2823 -->
<g id="node15" class="node">
<title>Node2823</title>
<g id="a_node15"><a xlink:href="d6/d35/classo2_1_1mft_1_1Ladder.html" target="_top" xlink:title="o2::mft::Ladder">
<polygon fill="none" stroke="#000000" points="128.5,-126 128.5,-145 219.5,-145 219.5,-126 128.5,-126"/>
<text text-anchor="middle" x="174" y="-133" font-family="Helvetica,sans-Serif" font-size="10.00" fill="#000000">o2::mft::Ladder</text>
</a>
</g>
</g>
<!-- Node2809&#45;&gt;Node2823 -->
<g id="edge14" class="edge">
<title>Node2809&#45;&gt;Node2823</title>
<path fill="none" stroke="#191970" d="M31.1744,-295.6427C36.0104,-261.4525 50.8752,-191.5768 94,-154.5 103.5256,-146.3103 115.9555,-141.5059 128.1674,-138.7271"/>
<polygon fill="#191970" stroke="#191970" points="27.6759,-295.4102 29.8925,-305.7706 34.6205,-296.2892 27.6759,-295.4102"/>
</g>
<!-- Node2824 -->
<g id="node16" class="node">
<title>Node2824</title>
<g id="a_node16"><a xlink:href="d5/db8/classo2_1_1mft_1_1VSegmentation.html" target="_top" xlink:title="o2::mft::VSegmentation">
<polygon fill="none" stroke="#000000" points="107.5,-88 107.5,-107 240.5,-107 240.5,-88 107.5,-88"/>
<text text-anchor="middle" x="174" y="-95" font-family="Helvetica,sans-Serif" font-size="10.00" fill="#000000">o2::mft::VSegmentation</text>
</a>
</g>
</g>
<!-- Node2809&#45;&gt;Node2824 -->
<g id="edge15" class="edge">
<title>Node2809&#45;&gt;Node2824</title>
<path fill="none" stroke="#191970" d="M32.8666,-295.9178C42.1637,-250.7722 67.0092,-141.3504 94,-116.5 98.0958,-112.729 102.8003,-109.6661 107.833,-107.1829"/>
<polygon fill="#191970" stroke="#191970" points="29.3956,-295.425 30.8461,-305.92 36.257,-296.8111 29.3956,-295.425"/>
</g>
<!-- Node2829 -->
<g id="node21" class="node">
<title>Node2829</title>
<g id="a_node21"><a xlink:href="d4/d4b/classo2_1_1phos_1_1GeometryParams.html" target="_top" xlink:title="o2::phos::GeometryParams">
<polygon fill="none" stroke="#000000" points="99.5,-50 99.5,-69 248.5,-69 248.5,-50 99.5,-50"/>
<text text-anchor="middle" x="174" y="-57" font-family="Helvetica,sans-Serif" font-size="10.00" fill="#000000">o2::phos::GeometryParams</text>
</a>
</g>
</g>
<!-- Node2809&#45;&gt;Node2829 -->
<g id="edge20" class="edge">
<title>Node2809&#45;&gt;Node2829</title>
<path fill="none" stroke="#191970" d="M31.8094,-295.6955C39.4787,-244.4016 62.3347,-109.0912 94,-78.5 97.9014,-74.731 102.4072,-71.6622 107.2521,-69.1689"/>
<polygon fill="#191970" stroke="#191970" points="28.3142,-295.4095 30.3327,-305.8102 35.2407,-296.4208 28.3142,-295.4095"/>
</g>
<!-- Node2830 -->
<g id="node22" class="node">
<title>Node2830</title>
<g id="a_node22"><a xlink:href="d2/d46/classStepTHnBase.html" target="_top" xlink:title="StepTHnBase">
<polygon fill="none" stroke="#000000" points="133,-9 133,-28 215,-28 215,-9 133,-9"/>
<text text-anchor="middle" x="174" y="-16" font-family="Helvetica,sans-Serif" font-size="10.00" fill="#000000">StepTHnBase</text>
</a>
</g>
</g>
<!-- Node2809&#45;&gt;Node2830 -->
<g id="edge21" class="edge">
<title>Node2809&#45;&gt;Node2830</title>
<path fill="none" stroke="#191970" d="M31.0755,-295.6697C37.4042,-238.9226 58.2371,-77.5839 94,-40.5 104.0992,-30.0278 118.6819,-24.3944 132.6383,-21.4118"/>
<polygon fill="#191970" stroke="#191970" points="27.5719,-295.5152 29.9739,-305.8342 34.5311,-296.2695 27.5719,-295.5152"/>
</g>
<!-- Node2812 -->
<g id="node4" class="node">
<title>Node2812</title>
<g id="a_node4"><a xlink:href="db/d7a/classAnalysisCompositeCut.html" target="_top" xlink:title="AnalysisCompositeCut">
<polygon fill="none" stroke="#000000" points="310.5,-568 310.5,-587 437.5,-587 437.5,-568 310.5,-568"/>
<text text-anchor="middle" x="374" y="-575" font-family="Helvetica,sans-Serif" font-size="10.00" fill="#000000">AnalysisCompositeCut</text>
</a>
</g>
</g>
<!-- Node2811&#45;&gt;Node2812 -->
<g id="edge3" class="edge">
<title>Node2811&#45;&gt;Node2812</title>
<path fill="none" stroke="#191970" d="M221.341,-577.5C247.9226,-577.5 281.4497,-577.5 310.3086,-577.5"/>
<polygon fill="#191970" stroke="#191970" points="221.1498,-574.0001 211.1497,-577.5 221.1497,-581.0001 221.1498,-574.0001"/>
</g>
<!-- Node2825 -->
<g id="node17" class="node">
<title>Node2825</title>
<g id="a_node17"><a xlink:href="d1/d8e/classo2_1_1mft_1_1ChipSegmentation.html" target="_top" xlink:title="o2::mft::ChipSegmentation">
<polygon fill="none" stroke="#000000" points="300,-164 300,-183 448,-183 448,-164 300,-164"/>
<text text-anchor="middle" x="374" y="-171" font-family="Helvetica,sans-Serif" font-size="10.00" fill="#000000">o2::mft::ChipSegmentation</text>
</a>
</g>
</g>
<!-- Node2824&#45;&gt;Node2825 -->
<g id="edge16" class="edge">
<title>Node2824&#45;&gt;Node2825</title>
<path fill="none" stroke="#191970" d="M241.7902,-110.5746C246.0295,-112.3098 250.1387,-114.2748 254,-116.5 274.1569,-128.1161 269.7811,-142.9922 290,-154.5 296.7571,-158.3459 304.235,-161.4133 311.862,-163.8598"/>
<polygon fill="#191970" stroke="#191970" points="242.9416,-107.269 232.3477,-107.1311 240.5433,-113.8454 242.9416,-107.269"/>
</g>
<!-- Node2826 -->
<g id="node18" class="node">
<title>Node2826</title>
<g id="a_node18"><a xlink:href="d2/ddf/classo2_1_1mft_1_1HalfDiskSegmentation.html" target="_top" xlink:title="o2::mft::HalfDiskSegmentation">
<polygon fill="none" stroke="#000000" points="290,-126 290,-145 458,-145 458,-126 290,-126"/>
<text text-anchor="middle" x="374" y="-133" font-family="Helvetica,sans-Serif" font-size="10.00" fill="#000000">o2::mft::HalfDiskSegmentation</text>
</a>
</g>
</g>
<!-- Node2824&#45;&gt;Node2826 -->
<g id="edge17" class="edge">
<title>Node2824&#45;&gt;Node2826</title>
<path fill="none" stroke="#191970" d="M234.0954,-108.9181C262.7118,-114.3552 296.5434,-120.7832 323.7691,-125.9561"/>
<polygon fill="#191970" stroke="#191970" points="234.6879,-105.4682 224.2103,-107.04 233.3812,-112.3451 234.6879,-105.4682"/>
</g>
<!-- Node2827 -->
<g id="node19" class="node">
<title>Node2827</title>
<g id="a_node19"><a xlink:href="d2/da0/classo2_1_1mft_1_1HalfSegmentation.html" target="_top" xlink:title="o2::mft::HalfSegmentation">
<polygon fill="none" stroke="#000000" points="301,-88 301,-107 447,-107 447,-88 301,-88"/>
<text text-anchor="middle" x="374" y="-95" font-family="Helvetica,sans-Serif" font-size="10.00" fill="#000000">o2::mft::HalfSegmentation</text>
</a>
</g>
</g>
<!-- Node2824&#45;&gt;Node2827 -->
<g id="edge18" class="edge">
<title>Node2824&#45;&gt;Node2827</title>
<path fill="none" stroke="#191970" d="M250.7071,-97.5C267.1567,-97.5 284.4968,-97.5 300.8092,-97.5"/>
<polygon fill="#191970" stroke="#191970" points="250.5971,-94.0001 240.5971,-97.5 250.5971,-101.0001 250.5971,-94.0001"/>
</g>
<!-- Node2828 -->
<g id="node20" class="node">
<title>Node2828</title>
<g id="a_node20"><a xlink:href="df/dc2/classo2_1_1mft_1_1LadderSegmentation.html" target="_top" xlink:title="o2::mft::LadderSegmentation">
<polygon fill="none" stroke="#000000" points="294.5,-50 294.5,-69 453.5,-69 453.5,-50 294.5,-50"/>
<text text-anchor="middle" x="374" y="-57" font-family="Helvetica,sans-Serif" font-size="10.00" fill="#000000">o2::mft::LadderSegmentation</text>
</a>
</g>
</g>
<!-- Node2824&#45;&gt;Node2828 -->
<g id="edge19" class="edge">
<title>Node2824&#45;&gt;Node2828</title>
<path fill="none" stroke="#191970" d="M234.0954,-86.0819C262.7118,-80.6448 296.5434,-74.2168 323.7691,-69.0439"/>
<polygon fill="#191970" stroke="#191970" points="233.3812,-82.6549 224.2103,-87.96 234.6879,-89.5318 233.3812,-82.6549"/>
</g>
<!-- Node2831 -->
<g id="node23" class="node">
<title>Node2831</title>
<g id="a_node23"><a xlink:href="d7/ddd/classStepTHn.html" target="_top" xlink:title="StepTHn\&lt; TemplateArray,\l TemplateType \&gt;">
<polygon fill="none" stroke="#000000" points="302.5,-.5 302.5,-30.5 445.5,-30.5 445.5,-.5 302.5,-.5"/>
<text text-anchor="start" x="310.5" y="-18.5" font-family="Helvetica,sans-Serif" font-size="10.00" fill="#000000">StepTHn&lt; TemplateArray,</text>
<text text-anchor="middle" x="374" y="-7.5" font-family="Helvetica,sans-Serif" font-size="10.00" fill="#000000"> TemplateType &gt;</text>
</a>
</g>
</g>
<!-- Node2830&#45;&gt;Node2831 -->
<g id="edge22" class="edge">
<title>Node2830&#45;&gt;Node2831</title>
<path fill="none" stroke="#191970" d="M225.4841,-17.7277C248.8521,-17.3772 276.885,-16.9567 302.2699,-16.576"/>
<polygon fill="#191970" stroke="#191970" points="225.3865,-14.2287 215.4401,-17.8784 225.4915,-21.2279 225.3865,-14.2287"/>
</g>
</g>
</svg>
