<?xml version="1.0" encoding="UTF-8" standalone="no"?>
<!DOCTYPE svg PUBLIC "-//W3C//DTD SVG 1.1//EN"
 "http://www.w3.org/Graphics/SVG/1.1/DTD/svg11.dtd">
<!-- Generated by graphviz version 2.40.1 (20161225.0304)
 -->
<!-- Title: o2::framework::DataProcessingDevice Pages: 1 -->
<svg width="301pt" height="358pt"
 viewBox="0.00 0.00 300.50 358.00" xmlns="http://www.w3.org/2000/svg" xmlns:xlink="http://www.w3.org/1999/xlink">
<g id="graph0" class="graph" transform="scale(1 1) rotate(0) translate(4 354)">
<title>o2::framework::DataProcessingDevice</title>
<!-- Node2 -->
<g id="node1" class="node">
<title>Node2</title>
<polygon fill="#bfbfbf" stroke="#000000" points="21.5,-.5 21.5,-233.5 191.5,-233.5 191.5,-.5 21.5,-.5"/>
<text text-anchor="start" x="29.5" y="-221.5" font-family="Helvetica,sans-Serif" font-size="10.00" fill="#000000">o2::framework::DataProcessing</text>
<text text-anchor="middle" x="106.5" y="-210.5" font-family="Helvetica,sans-Serif" font-size="10.00" fill="#000000">Device</text>
<polyline fill="none" stroke="#000000" points="21.5,-203.5 191.5,-203.5 "/>
<text text-anchor="middle" x="106.5" y="-191.5" font-family="Helvetica,sans-Serif" font-size="10.00" fill="#000000"> </text>
<polyline fill="none" stroke="#000000" points="21.5,-184.5 191.5,-184.5 "/>
<text text-anchor="start" x="29.5" y="-172.5" font-family="Helvetica,sans-Serif" font-size="10.00" fill="#000000">+ DataProcessingDevice()</text>
<text text-anchor="start" x="29.5" y="-161.5" font-family="Helvetica,sans-Serif" font-size="10.00" fill="#000000">+ Init()</text>
<text text-anchor="start" x="29.5" y="-150.5" font-family="Helvetica,sans-Serif" font-size="10.00" fill="#000000">+ InitTask()</text>
<text text-anchor="start" x="29.5" y="-139.5" font-family="Helvetica,sans-Serif" font-size="10.00" fill="#000000">+ PreRun()</text>
<text text-anchor="start" x="29.5" y="-128.5" font-family="Helvetica,sans-Serif" font-size="10.00" fill="#000000">+ PostRun()</text>
<text text-anchor="start" x="29.5" y="-117.5" font-family="Helvetica,sans-Serif" font-size="10.00" fill="#000000">+ Reset()</text>
<text text-anchor="start" x="29.5" y="-106.5" font-family="Helvetica,sans-Serif" font-size="10.00" fill="#000000">+ ResetTask()</text>
<text text-anchor="start" x="29.5" y="-95.5" font-family="Helvetica,sans-Serif" font-size="10.00" fill="#000000">+ ConditionalRun()</text>
<text text-anchor="start" x="29.5" y="-84.5" font-family="Helvetica,sans-Serif" font-size="10.00" fill="#000000">+ SetErrorPolicy()</text>
<text text-anchor="start" x="29.5" y="-73.5" font-family="Helvetica,sans-Serif" font-size="10.00" fill="#000000">+ bindService()</text>
<text text-anchor="start" x="29.5" y="-62.5" font-family="Helvetica,sans-Serif" font-size="10.00" fill="#000000">+ doRun()</text>
<text text-anchor="start" x="29.5" y="-51.5" font-family="Helvetica,sans-Serif" font-size="10.00" fill="#000000">+ doPrepare()</text>
<text text-anchor="start" x="29.5" y="-40.5" font-family="Helvetica,sans-Serif" font-size="10.00" fill="#000000">+ handleData()</text>
<text text-anchor="start" x="29.5" y="-29.5" font-family="Helvetica,sans-Serif" font-size="10.00" fill="#000000">+ tryDispatchComputation()</text>
<text text-anchor="start" x="29.5" y="-18.5" font-family="Helvetica,sans-Serif" font-size="10.00" fill="#000000"># error()</text>
<text text-anchor="start" x="29.5" y="-7.5" font-family="Helvetica,sans-Serif" font-size="10.00" fill="#000000"># fillContext()</text>
</g>
<!-- Node3 -->
<g id="node2" class="node">
<title>Node3</title>
<g id="a_node2"><a xlink:href="../../db/dfe/classFairMQDevice.html" target="_top" xlink:title="{FairMQDevice\n||}">
<polygon fill="none" stroke="#000000" points="0,-287 0,-344 83,-344 83,-287 0,-287"/>
<text text-anchor="middle" x="41.5" y="-332" font-family="Helvetica,sans-Serif" font-size="10.00" fill="#000000">FairMQDevice</text>
<polyline fill="none" stroke="#000000" points="0,-325 83,-325 "/>
<text text-anchor="middle" x="41.5" y="-313" font-family="Helvetica,sans-Serif" font-size="10.00" fill="#000000"> </text>
<polyline fill="none" stroke="#000000" points="0,-306 83,-306 "/>
<text text-anchor="middle" x="41.5" y="-294" font-family="Helvetica,sans-Serif" font-size="10.00" fill="#000000"> </text>
</a>
</g>
</g>
<!-- Node3&#45;&gt;Node2 -->
<g id="edge1" class="edge">
<title>Node3&#45;&gt;Node2</title>
<path fill="none" stroke="#191970" d="M54.1306,-276.928C58.2958,-264.2082 63.1675,-249.3309 68.2322,-233.8639"/>
<polygon fill="none" stroke="#191970" points="50.7374,-276.0437 50.9516,-286.6364 57.3898,-278.2221 50.7374,-276.0437"/>
</g>
<!-- Node4 -->
<g id="node3" class="node">
<title>Node4</title>
<polygon fill="none" stroke="#bfbfbf" points="101,-281.5 101,-349.5 244,-349.5 244,-281.5 101,-281.5"/>
<text text-anchor="start" x="109" y="-337.5" font-family="Helvetica,sans-Serif" font-size="10.00" fill="#000000">vector&lt; o2::framework</text>
<text text-anchor="middle" x="172.5" y="-326.5" font-family="Helvetica,sans-Serif" font-size="10.00" fill="#000000">::DataProcessorContext &gt;</text>
<polyline fill="none" stroke="#bfbfbf" points="101,-319.5 244,-319.5 "/>
<text text-anchor="middle" x="172.5" y="-307.5" font-family="Helvetica,sans-Serif" font-size="10.00" fill="#000000"> </text>
<polyline fill="none" stroke="#bfbfbf" points="101,-300.5 244,-300.5 "/>
<text text-anchor="middle" x="172.5" y="-288.5" font-family="Helvetica,sans-Serif" font-size="10.00" fill="#000000"> </text>
</g>
<!-- Node4&#45;&gt;Node2 -->
<g id="edge2" class="edge">
<title>Node4&#45;&gt;Node2</title>
<path fill="none" stroke="#404040" d="M161.1542,-281.3766C157.648,-270.8314 153.5578,-258.5299 149.2218,-245.489"/>
<polygon fill="none" stroke="#404040" points="149.1427,-245.251 143.4539,-240.8195 145.3565,-233.8639 151.0453,-238.2954 149.1427,-245.251"/>
<text text-anchor="middle" x="223.5" y="-255" font-family="Helvetica,sans-Serif" font-size="10.00" fill="#000000"> +mDataProcessorContexes</text>
</g>
</g>
</svg>
