<?xml version="1.0" encoding="UTF-8" standalone="no"?>
<!DOCTYPE svg PUBLIC "-//W3C//DTD SVG 1.1//EN"
 "http://www.w3.org/Graphics/SVG/1.1/DTD/svg11.dtd">
<!-- Generated by graphviz version 2.40.1 (20161225.0304)
 -->
<!-- Title: TableMaker Pages: 1 -->
<!--zoomable 816 -->
<svg id="main" version="1.1" xmlns="http://www.w3.org/2000/svg" xmlns:xlink="http://www.w3.org/1999/xlink" xml:space="preserve" onload="init(evt)">
<style type="text/css"><![CDATA[
.edge:hover path { stroke: red; }
.edge:hover polygon { stroke: red; fill: red; }
]]></style>
<script type="text/javascript"><![CDATA[
var edges = document.getElementsByTagName('g');
if (edges && edges.length) {
  for (var i=0;i<edges.length;i++) {
    if (edges[i].id.substr(0,4)=='edge') {
      edges[i].setAttribute('class','edge');
    }
  }
}
]]></script>
        <defs>
                <circle id="rim" cx="0" cy="0" r="7"/>
                <circle id="rim2" cx="0" cy="0" r="3.5"/>
                <g id="zoomPlus">
                        <use xlink:href="#rim" fill="#404040">
                                <set attributeName="fill" to="#808080" begin="zoomplus.mouseover" end="zoomplus.mouseout"/>
                        </use>
                        <path d="M-4,0h8M0,-4v8" fill="none" stroke="white" stroke-width="1.5" pointer-events="none"/>
                </g>
                <g id="zoomMin">
                        <use xlink:href="#rim" fill="#404040">
                                <set attributeName="fill" to="#808080" begin="zoomminus.mouseover" end="zoomminus.mouseout"/>
                        </use>
                        <path d="M-4,0h8" fill="none" stroke="white" stroke-width="1.5" pointer-events="none"/>
                </g>
                <g id="dirArrow">
                        <path fill="none" stroke="white" stroke-width="1.5" d="M0,-3.0v7 M-2.5,-0.5L0,-3.0L2.5,-0.5"/>
                </g>
               <g id="resetDef">
                       <use xlink:href="#rim2" fill="#404040">
                               <set attributeName="fill" to="#808080" begin="reset.mouseover" end="reset.mouseout"/>
                       </use>
               </g>
        </defs>

<script type="text/javascript">
var viewWidth = 2110;
var viewHeight = 816;
var sectionId = 'dynsection-0';
</script>
<script xlink:href="../../svgpan.js"/>
<svg id="graph" class="graph">
<g id="viewport">
<title>TableMaker</title>
<!-- Node1 -->
<g id="node1" class="node">
<title>Node1</title>
<polygon fill="#bfbfbf" stroke="#000000" points="765.5,-.5 765.5,-79.5 888.5,-79.5 888.5,-.5 765.5,-.5"/>
<text text-anchor="middle" x="827" y="-67.5" font-family="Helvetica,sans-Serif" font-size="10.00" fill="#000000">TableMaker</text>
<polyline fill="none" stroke="#000000" points="765.5,-60.5 888.5,-60.5 "/>
<text text-anchor="middle" x="827" y="-48.5" font-family="Helvetica,sans-Serif" font-size="10.00" fill="#000000"> </text>
<polyline fill="none" stroke="#000000" points="765.5,-41.5 888.5,-41.5 "/>
<text text-anchor="start" x="773.5" y="-29.5" font-family="Helvetica,sans-Serif" font-size="10.00" fill="#000000">+ init()</text>
<text text-anchor="start" x="773.5" y="-18.5" font-family="Helvetica,sans-Serif" font-size="10.00" fill="#000000">+ process()</text>
<text text-anchor="start" x="773.5" y="-7.5" font-family="Helvetica,sans-Serif" font-size="10.00" fill="#000000">+ DefineHistograms()</text>
</g>
<!-- Node2 -->
<g id="node2" class="node">
<title>Node2</title>
<g id="a_node2"><a xlink:href="../../d6/d86/structo2_1_1framework_1_1Produces.html" target="_top" xlink:title="{o2::framework::Produces\l\&lt; ReducedTracksBarrelCov \&gt;\n||}">
<polygon fill="none" stroke="#000000" points="314.5,-188 314.5,-256 473.5,-256 473.5,-188 314.5,-188"/>
<text text-anchor="start" x="322.5" y="-244" font-family="Helvetica,sans-Serif" font-size="10.00" fill="#000000">o2::framework::Produces</text>
<text text-anchor="middle" x="394" y="-233" font-family="Helvetica,sans-Serif" font-size="10.00" fill="#000000">&lt; ReducedTracksBarrelCov &gt;</text>
<polyline fill="none" stroke="#000000" points="314.5,-226 473.5,-226 "/>
<text text-anchor="middle" x="394" y="-214" font-family="Helvetica,sans-Serif" font-size="10.00" fill="#000000"> </text>
<polyline fill="none" stroke="#000000" points="314.5,-207 473.5,-207 "/>
<text text-anchor="middle" x="394" y="-195" font-family="Helvetica,sans-Serif" font-size="10.00" fill="#000000"> </text>
</a>
</g>
</g>
<!-- Node2&#45;&gt;Node1 -->
<g id="edge1" class="edge">
<title>Node2&#45;&gt;Node1</title>
<path fill="none" stroke="#404040" d="M424.673,-187.9937C440.8643,-171.4231 461.7482,-152.0857 483,-138 565.986,-82.9968 679.9499,-58.4504 753.5427,-47.7854"/>
<polygon fill="none" stroke="#404040" points="753.5601,-47.783 758.9521,-42.9948 765.4458,-46.1304 760.0538,-50.9186 753.5601,-47.783"/>
<text text-anchor="middle" x="594.5" y="-106.5" font-family="Helvetica,sans-Serif" font-size="10.00" fill="#000000"> +trackBarrelCov</text>
</g>
<!-- Node3 -->
<g id="node3" class="node">
<title>Node3</title>
<g id="a_node3"><a xlink:href="../../d6/d86/structo2_1_1framework_1_1Produces.html" target="_top" xlink:title="{o2::framework::Produces\&lt; T \&gt;\n||}">
<polygon fill="none" stroke="#000000" points="539.5,-403 539.5,-460 706.5,-460 706.5,-403 539.5,-403"/>
<text text-anchor="middle" x="623" y="-448" font-family="Helvetica,sans-Serif" font-size="10.00" fill="#000000">o2::framework::Produces&lt; T &gt;</text>
<polyline fill="none" stroke="#000000" points="539.5,-441 706.5,-441 "/>
<text text-anchor="middle" x="623" y="-429" font-family="Helvetica,sans-Serif" font-size="10.00" fill="#000000"> </text>
<polyline fill="none" stroke="#000000" points="539.5,-422 706.5,-422 "/>
<text text-anchor="middle" x="623" y="-410" font-family="Helvetica,sans-Serif" font-size="10.00" fill="#000000"> </text>
</a>
</g>
</g>
<!-- Node3&#45;&gt;Node2 -->
<g id="edge2" class="edge">
<title>Node3&#45;&gt;Node2</title>
<path fill="none" stroke="#ffa500" d="M529.7381,-410.8375C487.0888,-396.5956 439.7616,-373.1119 411,-335 394.09,-312.5927 390.6797,-280.4328 391.0119,-256.1472"/>
<polygon fill="#ffa500" stroke="#ffa500" points="528.7333,-414.1908 539.3245,-413.9126 530.8715,-407.5253 528.7333,-414.1908"/>
<text text-anchor="middle" x="484" y="-327" font-family="Helvetica,sans-Serif" font-size="10.00" fill="#000000"> &lt; ReducedTracksBarrelCov &gt;</text>
</g>
<!-- Node4 -->
<g id="node4" class="node">
<title>Node4</title>
<g id="a_node4"><a xlink:href="../../d6/d86/structo2_1_1framework_1_1Produces.html" target="_top" xlink:title="{o2::framework::Produces\l\&lt; ReducedMuons \&gt;\n||}">
<polygon fill="none" stroke="#000000" points="492,-188 492,-256 630,-256 630,-188 492,-188"/>
<text text-anchor="start" x="500" y="-244" font-family="Helvetica,sans-Serif" font-size="10.00" fill="#000000">o2::framework::Produces</text>
<text text-anchor="middle" x="561" y="-233" font-family="Helvetica,sans-Serif" font-size="10.00" fill="#000000">&lt; ReducedMuons &gt;</text>
<polyline fill="none" stroke="#000000" points="492,-226 630,-226 "/>
<text text-anchor="middle" x="561" y="-214" font-family="Helvetica,sans-Serif" font-size="10.00" fill="#000000"> </text>
<polyline fill="none" stroke="#000000" points="492,-207 630,-207 "/>
<text text-anchor="middle" x="561" y="-195" font-family="Helvetica,sans-Serif" font-size="10.00" fill="#000000"> </text>
</a>
</g>
</g>
<!-- Node3&#45;&gt;Node4 -->
<g id="edge4" class="edge">
<title>Node3&#45;&gt;Node4</title>
<path fill="none" stroke="#ffa500" d="M593.1999,-394.162C581.4229,-377.1432 569.2294,-356.1072 563,-335 555.4466,-309.4066 555.3543,-279.1146 556.9274,-256.3394"/>
<polygon fill="#ffa500" stroke="#ffa500" points="590.6232,-396.5759 599.2867,-402.6746 596.3174,-392.5044 590.6232,-396.5759"/>
<text text-anchor="middle" x="612.5" y="-327" font-family="Helvetica,sans-Serif" font-size="10.00" fill="#000000"> &lt; ReducedMuons &gt;</text>
</g>
<!-- Node5 -->
<g id="node5" class="node">
<title>Node5</title>
<g id="a_node5"><a xlink:href="../../d6/d86/structo2_1_1framework_1_1Produces.html" target="_top" xlink:title="{o2::framework::Produces\l\&lt; ReducedEventsVtxCov \&gt;\n||}">
<polygon fill="none" stroke="#000000" points="648.5,-188 648.5,-256 797.5,-256 797.5,-188 648.5,-188"/>
<text text-anchor="start" x="656.5" y="-244" font-family="Helvetica,sans-Serif" font-size="10.00" fill="#000000">o2::framework::Produces</text>
<text text-anchor="middle" x="723" y="-233" font-family="Helvetica,sans-Serif" font-size="10.00" fill="#000000">&lt; ReducedEventsVtxCov &gt;</text>
<polyline fill="none" stroke="#000000" points="648.5,-226 797.5,-226 "/>
<text text-anchor="middle" x="723" y="-214" font-family="Helvetica,sans-Serif" font-size="10.00" fill="#000000"> </text>
<polyline fill="none" stroke="#000000" points="648.5,-207 797.5,-207 "/>
<text text-anchor="middle" x="723" y="-195" font-family="Helvetica,sans-Serif" font-size="10.00" fill="#000000"> </text>
</a>
</g>
</g>
<!-- Node3&#45;&gt;Node5 -->
<g id="edge6" class="edge">
<title>Node3&#45;&gt;Node5</title>
<path fill="none" stroke="#ffa500" d="M641.2134,-393.343C659.8931,-354.209 688.6847,-293.8905 706.6536,-256.2457"/>
<polygon fill="#ffa500" stroke="#ffa500" points="637.844,-392.2769 636.6949,-402.8092 644.1613,-395.2923 637.844,-392.2769"/>
<text text-anchor="middle" x="741" y="-327" font-family="Helvetica,sans-Serif" font-size="10.00" fill="#000000"> &lt; ReducedEventsVtxCov &gt;</text>
</g>
<!-- Node6 -->
<g id="node6" class="node">
<title>Node6</title>
<g id="a_node6"><a xlink:href="../../d6/d86/structo2_1_1framework_1_1Produces.html" target="_top" xlink:title="{o2::framework::Produces\l\&lt; ReducedMuonsExtended \&gt;\n||}">
<polygon fill="none" stroke="#000000" points="815,-188 815,-256 973,-256 973,-188 815,-188"/>
<text text-anchor="start" x="823" y="-244" font-family="Helvetica,sans-Serif" font-size="10.00" fill="#000000">o2::framework::Produces</text>
<text text-anchor="middle" x="894" y="-233" font-family="Helvetica,sans-Serif" font-size="10.00" fill="#000000">&lt; ReducedMuonsExtended &gt;</text>
<polyline fill="none" stroke="#000000" points="815,-226 973,-226 "/>
<text text-anchor="middle" x="894" y="-214" font-family="Helvetica,sans-Serif" font-size="10.00" fill="#000000"> </text>
<polyline fill="none" stroke="#000000" points="815,-207 973,-207 "/>
<text text-anchor="middle" x="894" y="-195" font-family="Helvetica,sans-Serif" font-size="10.00" fill="#000000"> </text>
</a>
</g>
</g>
<!-- Node3&#45;&gt;Node6 -->
<g id="edge8" class="edge">
<title>Node3&#45;&gt;Node6</title>
<path fill="none" stroke="#ffa500" d="M708.503,-398.6739C743.245,-382.7552 782.3355,-361.3255 813,-335 838.9147,-312.7522 860.9283,-280.5754 875.4359,-256.2429"/>
<polygon fill="#ffa500" stroke="#ffa500" points="706.9888,-395.5171 699.3025,-402.809 709.8584,-401.9019 706.9888,-395.5171"/>
<text text-anchor="middle" x="895.5" y="-327" font-family="Helvetica,sans-Serif" font-size="10.00" fill="#000000"> &lt; ReducedMuonsExtended &gt;</text>
</g>
<!-- Node7 -->
<g id="node7" class="node">
<title>Node7</title>
<g id="a_node7"><a xlink:href="../../d6/d86/structo2_1_1framework_1_1Produces.html" target="_top" xlink:title="{o2::framework::Produces\l\&lt; ReducedEventsExtended \&gt;\n||}">
<polygon fill="none" stroke="#000000" points="990.5,-188 990.5,-256 1149.5,-256 1149.5,-188 990.5,-188"/>
<text text-anchor="start" x="998.5" y="-244" font-family="Helvetica,sans-Serif" font-size="10.00" fill="#000000">o2::framework::Produces</text>
<text text-anchor="middle" x="1070" y="-233" font-family="Helvetica,sans-Serif" font-size="10.00" fill="#000000">&lt; ReducedEventsExtended &gt;</text>
<polyline fill="none" stroke="#000000" points="990.5,-226 1149.5,-226 "/>
<text text-anchor="middle" x="1070" y="-214" font-family="Helvetica,sans-Serif" font-size="10.00" fill="#000000"> </text>
<polyline fill="none" stroke="#000000" points="990.5,-207 1149.5,-207 "/>
<text text-anchor="middle" x="1070" y="-195" font-family="Helvetica,sans-Serif" font-size="10.00" fill="#000000"> </text>
</a>
</g>
</g>
<!-- Node3&#45;&gt;Node7 -->
<g id="edge10" class="edge">
<title>Node3&#45;&gt;Node7</title>
<path fill="none" stroke="#ffa500" d="M717.0294,-420.645C790.9375,-408.6914 894.0664,-384.194 972,-335 1003.731,-314.9704 1030.8642,-281.5498 1048.4803,-256.2368"/>
<polygon fill="#ffa500" stroke="#ffa500" points="716.1369,-417.2422 706.8002,-422.2498 717.2219,-424.1576 716.1369,-417.2422"/>
<text text-anchor="middle" x="1058" y="-327" font-family="Helvetica,sans-Serif" font-size="10.00" fill="#000000"> &lt; ReducedEventsExtended &gt;</text>
</g>
<!-- Node8 -->
<g id="node8" class="node">
<title>Node8</title>
<g id="a_node8"><a xlink:href="../../d6/d86/structo2_1_1framework_1_1Produces.html" target="_top" xlink:title="{o2::framework::Produces\l\&lt; ReducedTracks \&gt;\n||}">
<polygon fill="none" stroke="#000000" points="1168,-188 1168,-256 1306,-256 1306,-188 1168,-188"/>
<text text-anchor="start" x="1176" y="-244" font-family="Helvetica,sans-Serif" font-size="10.00" fill="#000000">o2::framework::Produces</text>
<text text-anchor="middle" x="1237" y="-233" font-family="Helvetica,sans-Serif" font-size="10.00" fill="#000000">&lt; ReducedTracks &gt;</text>
<polyline fill="none" stroke="#000000" points="1168,-226 1306,-226 "/>
<text text-anchor="middle" x="1237" y="-214" font-family="Helvetica,sans-Serif" font-size="10.00" fill="#000000"> </text>
<polyline fill="none" stroke="#000000" points="1168,-207 1306,-207 "/>
<text text-anchor="middle" x="1237" y="-195" font-family="Helvetica,sans-Serif" font-size="10.00" fill="#000000"> </text>
</a>
</g>
</g>
<!-- Node3&#45;&gt;Node8 -->
<g id="edge12" class="edge">
<title>Node3&#45;&gt;Node8</title>
<path fill="none" stroke="#ffa500" d="M716.7016,-421.1015C844.2556,-405.7239 1064.7269,-374.4375 1135,-335 1168.6486,-316.1163 1197.0929,-282.0179 1215.3247,-256.201"/>
<polygon fill="#ffa500" stroke="#ffa500" points="716.0616,-417.653 706.5479,-422.3157 716.8928,-424.6035 716.0616,-417.653"/>
<text text-anchor="middle" x="1197" y="-327" font-family="Helvetica,sans-Serif" font-size="10.00" fill="#000000"> &lt; ReducedTracks &gt;</text>
</g>
<!-- Node9 -->
<g id="node9" class="node">
<title>Node9</title>
<g id="a_node9"><a xlink:href="../../d6/d86/structo2_1_1framework_1_1Produces.html" target="_top" xlink:title="{o2::framework::Produces\l\&lt; ReducedTracksBarrel \&gt;\n||}">
<polygon fill="none" stroke="#000000" points="0,-188 0,-256 140,-256 140,-188 0,-188"/>
<text text-anchor="start" x="8" y="-244" font-family="Helvetica,sans-Serif" font-size="10.00" fill="#000000">o2::framework::Produces</text>
<text text-anchor="middle" x="70" y="-233" font-family="Helvetica,sans-Serif" font-size="10.00" fill="#000000">&lt; ReducedTracksBarrel &gt;</text>
<polyline fill="none" stroke="#000000" points="0,-226 140,-226 "/>
<text text-anchor="middle" x="70" y="-214" font-family="Helvetica,sans-Serif" font-size="10.00" fill="#000000"> </text>
<polyline fill="none" stroke="#000000" points="0,-207 140,-207 "/>
<text text-anchor="middle" x="70" y="-195" font-family="Helvetica,sans-Serif" font-size="10.00" fill="#000000"> </text>
</a>
</g>
</g>
<!-- Node3&#45;&gt;Node9 -->
<g id="edge14" class="edge">
<title>Node3&#45;&gt;Node9</title>
<path fill="none" stroke="#ffa500" d="M529.2721,-419.7191C412.1933,-403.6951 219.8385,-372.6658 159,-335 128.0006,-315.808 103.4121,-281.7529 88.0048,-256.0302"/>
<polygon fill="#ffa500" stroke="#ffa500" points="528.9323,-423.2049 539.3122,-421.0817 529.8738,-416.2685 528.9323,-423.2049"/>
<text text-anchor="middle" x="222.5" y="-327" font-family="Helvetica,sans-Serif" font-size="10.00" fill="#000000"> &lt; ReducedTracksBarrel &gt;</text>
</g>
<!-- Node10 -->
<g id="node10" class="node">
<title>Node10</title>
<g id="a_node10"><a xlink:href="../../d6/d86/structo2_1_1framework_1_1Produces.html" target="_top" xlink:title="{o2::framework::Produces\l\&lt; ReducedEvents \&gt;\n||}">
<polygon fill="none" stroke="#000000" points="158,-188 158,-256 296,-256 296,-188 158,-188"/>
<text text-anchor="start" x="166" y="-244" font-family="Helvetica,sans-Serif" font-size="10.00" fill="#000000">o2::framework::Produces</text>
<text text-anchor="middle" x="227" y="-233" font-family="Helvetica,sans-Serif" font-size="10.00" fill="#000000">&lt; ReducedEvents &gt;</text>
<polyline fill="none" stroke="#000000" points="158,-226 296,-226 "/>
<text text-anchor="middle" x="227" y="-214" font-family="Helvetica,sans-Serif" font-size="10.00" fill="#000000"> </text>
<polyline fill="none" stroke="#000000" points="158,-207 296,-207 "/>
<text text-anchor="middle" x="227" y="-195" font-family="Helvetica,sans-Serif" font-size="10.00" fill="#000000"> </text>
</a>
</g>
</g>
<!-- Node3&#45;&gt;Node10 -->
<g id="edge16" class="edge">
<title>Node3&#45;&gt;Node10</title>
<path fill="none" stroke="#ffa500" d="M529.2208,-420.8589C460.4778,-409.1621 367.8689,-384.9002 301,-335 273.8424,-314.734 253.7663,-281.3438 241.4299,-256.1022"/>
<polygon fill="#ffa500" stroke="#ffa500" points="528.7491,-424.3282 539.1841,-422.495 529.8835,-417.4207 528.7491,-424.3282"/>
<text text-anchor="middle" x="351" y="-327" font-family="Helvetica,sans-Serif" font-size="10.00" fill="#000000"> &lt; ReducedEvents &gt;</text>
</g>
<!-- Node4&#45;&gt;Node1 -->
<g id="edge3" class="edge">
<title>Node4&#45;&gt;Node1</title>
<path fill="none" stroke="#404040" d="M590.3487,-187.8209C604.653,-171.9601 622.5129,-153.2805 640,-138 663.0319,-117.8745 669.4345,-113.1585 696,-98 714.3296,-87.5409 734.8994,-77.6436 754.2109,-69.0846"/>
<polygon fill="none" stroke="#404040" points="754.4081,-68.9987 758.311,-62.9351 765.4093,-64.2057 761.5064,-70.2693 754.4081,-68.9987"/>
<text text-anchor="middle" x="729" y="-106.5" font-family="Helvetica,sans-Serif" font-size="10.00" fill="#000000"> +muonBasic</text>
</g>
<!-- Node5&#45;&gt;Node1 -->
<g id="edge5" class="edge">
<title>Node5&#45;&gt;Node1</title>
<path fill="none" stroke="#404040" d="M735.1377,-187.8007C744.9538,-162.1362 760.0636,-126.6422 778,-98 779.7436,-95.2157 781.6121,-92.4239 783.5646,-89.6523"/>
<polygon fill="none" stroke="#404040" points="783.7658,-89.3819 784.1388,-82.1804 790.9297,-79.7549 790.5568,-86.9564 783.7658,-89.3819"/>
<text text-anchor="middle" x="815.5" y="-106.5" font-family="Helvetica,sans-Serif" font-size="10.00" fill="#000000"> +eventVtxCov</text>
</g>
<!-- Node6&#45;&gt;Node1 -->
<g id="edge7" class="edge">
<title>Node6&#45;&gt;Node1</title>
<path fill="none" stroke="#404040" d="M885.6967,-187.9962C879.0902,-162.7446 868.9833,-127.6863 857,-98 856.0552,-95.6593 855.0477,-93.2871 853.9957,-90.9064"/>
<polygon fill="none" stroke="#404040" points="853.8849,-90.6685 847.7247,-86.9199 848.8157,-79.7918 854.9759,-83.5404 853.8849,-90.6685"/>
<text text-anchor="middle" x="906.5" y="-106.5" font-family="Helvetica,sans-Serif" font-size="10.00" fill="#000000"> +muonExtended</text>
</g>
<!-- Node7&#45;&gt;Node1 -->
<g id="edge9" class="edge">
<title>Node7&#45;&gt;Node1</title>
<path fill="none" stroke="#404040" d="M1043.8724,-187.7838C1021.8966,-160.7545 988.4574,-123.4699 953,-98 936.8032,-86.3655 917.9003,-76.1889 899.7368,-67.7444"/>
<polygon fill="none" stroke="#404040" points="899.4972,-67.6367 892.3843,-68.8225 888.5539,-62.7128 895.6668,-61.527 899.4972,-67.6367"/>
<text text-anchor="middle" x="1020.5" y="-106.5" font-family="Helvetica,sans-Serif" font-size="10.00" fill="#000000"> +eventExtended</text>
</g>
<!-- Node8&#45;&gt;Node1 -->
<g id="edge11" class="edge">
<title>Node8&#45;&gt;Node1</title>
<path fill="none" stroke="#404040" d="M1210.8486,-187.7546C1196.8447,-171.123 1178.488,-151.8033 1159,-138 1081.1153,-82.8345 972.0943,-58.399 900.5423,-47.7964"/>
<polygon fill="none" stroke="#404040" points="900.395,-47.7756 893.8931,-50.8942 888.5137,-46.0919 895.0156,-42.9733 900.395,-47.7756"/>
<text text-anchor="middle" x="1158.5" y="-106.5" font-family="Helvetica,sans-Serif" font-size="10.00" fill="#000000"> +trackBasic</text>
</g>
<!-- Node9&#45;&gt;Node1 -->
<g id="edge13" class="edge">
<title>Node9&#45;&gt;Node1</title>
<path fill="none" stroke="#404040" d="M94.8258,-187.9802C108.9644,-170.7879 128.021,-150.8929 149,-138 202.6781,-105.0115 223.2058,-110.2903 285,-98 450.6171,-65.0603 648.6775,-49.8615 753.4935,-43.6752"/>
<polygon fill="none" stroke="#404040" points="753.5173,-43.6739 759.2767,-39.3348 765.4973,-42.9823 759.7379,-47.3215 753.5173,-43.6739"/>
<text text-anchor="middle" x="318" y="-106.5" font-family="Helvetica,sans-Serif" font-size="10.00" fill="#000000"> +trackBarrel</text>
</g>
<!-- Node10&#45;&gt;Node1 -->
<g id="edge15" class="edge">
<title>Node10&#45;&gt;Node1</title>
<path fill="none" stroke="#404040" d="M250.826,-187.9496C264.718,-170.5309 283.6844,-150.4343 305,-138 380.1535,-94.1598 628.1709,-61.6998 753.3517,-47.6654"/>
<polygon fill="none" stroke="#404040" points="753.5107,-47.6478 759.0332,-43.0107 765.4376,-46.3249 759.9151,-50.962 753.5107,-47.6478"/>
<text text-anchor="middle" x="444" y="-106.5" font-family="Helvetica,sans-Serif" font-size="10.00" fill="#000000"> +event</text>
</g>
<!-- Node11 -->
<g id="node11" class="node">
<title>Node11</title>
<g id="a_node11"><a xlink:href="../../d4/d79/structo2_1_1framework_1_1OutputObj.html" target="_top" xlink:title="{o2::framework::OutputObj\l\&lt; HistogramManager \&gt;\n||+ spec()\l+ OutputObj()\l+ OutputObj()\l+ setObject()\l+ setObject()\l+ setObject()\l+ setHash()\l+ operator&#45;\&gt;()\l+ operator*()\l+ ref()\l}">
<polygon fill="none" stroke="#000000" points="1393.5,-138.5 1393.5,-305.5 1536.5,-305.5 1536.5,-138.5 1393.5,-138.5"/>
<text text-anchor="start" x="1401.5" y="-293.5" font-family="Helvetica,sans-Serif" font-size="10.00" fill="#000000">o2::framework::OutputObj</text>
<text text-anchor="middle" x="1465" y="-282.5" font-family="Helvetica,sans-Serif" font-size="10.00" fill="#000000">&lt; HistogramManager &gt;</text>
<polyline fill="none" stroke="#000000" points="1393.5,-275.5 1536.5,-275.5 "/>
<text text-anchor="middle" x="1465" y="-263.5" font-family="Helvetica,sans-Serif" font-size="10.00" fill="#000000"> </text>
<polyline fill="none" stroke="#000000" points="1393.5,-256.5 1536.5,-256.5 "/>
<text text-anchor="start" x="1401.5" y="-244.5" font-family="Helvetica,sans-Serif" font-size="10.00" fill="#000000">+ spec()</text>
<text text-anchor="start" x="1401.5" y="-233.5" font-family="Helvetica,sans-Serif" font-size="10.00" fill="#000000">+ OutputObj()</text>
<text text-anchor="start" x="1401.5" y="-222.5" font-family="Helvetica,sans-Serif" font-size="10.00" fill="#000000">+ OutputObj()</text>
<text text-anchor="start" x="1401.5" y="-211.5" font-family="Helvetica,sans-Serif" font-size="10.00" fill="#000000">+ setObject()</text>
<text text-anchor="start" x="1401.5" y="-200.5" font-family="Helvetica,sans-Serif" font-size="10.00" fill="#000000">+ setObject()</text>
<text text-anchor="start" x="1401.5" y="-189.5" font-family="Helvetica,sans-Serif" font-size="10.00" fill="#000000">+ setObject()</text>
<text text-anchor="start" x="1401.5" y="-178.5" font-family="Helvetica,sans-Serif" font-size="10.00" fill="#000000">+ setHash()</text>
<text text-anchor="start" x="1401.5" y="-167.5" font-family="Helvetica,sans-Serif" font-size="10.00" fill="#000000">+ operator&#45;&gt;()</text>
<text text-anchor="start" x="1401.5" y="-156.5" font-family="Helvetica,sans-Serif" font-size="10.00" fill="#000000">+ operator*()</text>
<text text-anchor="start" x="1401.5" y="-145.5" font-family="Helvetica,sans-Serif" font-size="10.00" fill="#000000">+ ref()</text>
</a>
</g>
</g>
<!-- Node11&#45;&gt;Node1 -->
<g id="edge17" class="edge">
<title>Node11&#45;&gt;Node1</title>
<path fill="none" stroke="#404040" d="M1393.1902,-178.1126C1368.8716,-164.2493 1341.2223,-149.5495 1315,-138 1176.5935,-77.0397 999.3497,-53.6274 901.0592,-44.9152"/>
<polygon fill="none" stroke="#404040" points="900.8465,-44.8972 894.528,-48.3722 888.89,-43.8763 895.2086,-40.4012 900.8465,-44.8972"/>
<text text-anchor="middle" x="1292.5" y="-106.5" font-family="Helvetica,sans-Serif" font-size="10.00" fill="#000000"> +fHistMan</text>
</g>
<!-- Node12 -->
<g id="node12" class="node">
<title>Node12</title>
<polygon fill="none" stroke="#bfbfbf" points="1918,-403 1918,-460 2102,-460 2102,-403 1918,-403"/>
<text text-anchor="middle" x="2010" y="-448" font-family="Helvetica,sans-Serif" font-size="10.00" fill="#000000">shared_ptr&lt; HistogramManager &gt;</text>
<polyline fill="none" stroke="#bfbfbf" points="1918,-441 2102,-441 "/>
<text text-anchor="middle" x="2010" y="-429" font-family="Helvetica,sans-Serif" font-size="10.00" fill="#000000"> </text>
<polyline fill="none" stroke="#bfbfbf" points="1918,-422 2102,-422 "/>
<text text-anchor="middle" x="2010" y="-410" font-family="Helvetica,sans-Serif" font-size="10.00" fill="#000000"> </text>
</g>
<!-- Node12&#45;&gt;Node11 -->
<g id="edge18" class="edge">
<title>Node12&#45;&gt;Node11</title>
<path fill="none" stroke="#404040" d="M1985.4683,-402.7148C1961.5204,-376.9055 1922.5554,-340.6229 1880,-324 1813.9425,-298.1968 1631.4326,-333.3732 1547.869,-305.5111"/>
<polygon fill="none" stroke="#404040" points="1547.6844,-305.4384 1540.6356,-306.9599 1536.5201,-301.0385 1543.5689,-299.517 1547.6844,-305.4384"/>
<text text-anchor="middle" x="1921" y="-327" font-family="Helvetica,sans-Serif" font-size="10.00" fill="#000000"> +object</text>
</g>
<!-- Node13 -->
<g id="node13" class="node">
<title>Node13</title>
<polygon fill="none" stroke="#bfbfbf" points="1395.5,-585 1395.5,-642 1534.5,-642 1534.5,-585 1395.5,-585"/>
<text text-anchor="middle" x="1465" y="-630" font-family="Helvetica,sans-Serif" font-size="10.00" fill="#000000">OutputObjHandlingPolicy</text>
<polyline fill="none" stroke="#bfbfbf" points="1395.5,-623 1534.5,-623 "/>
<text text-anchor="middle" x="1465" y="-611" font-family="Helvetica,sans-Serif" font-size="10.00" fill="#000000"> </text>
<polyline fill="none" stroke="#bfbfbf" points="1395.5,-604 1534.5,-604 "/>
<text text-anchor="middle" x="1465" y="-592" font-family="Helvetica,sans-Serif" font-size="10.00" fill="#000000"> </text>
</g>
<!-- Node13&#45;&gt;Node11 -->
<g id="edge19" class="edge">
<title>Node13&#45;&gt;Node11</title>
<path fill="none" stroke="#404040" d="M1465,-584.7121C1465,-529.2251 1465,-405.2313 1465,-317.7164"/>
<polygon fill="none" stroke="#404040" points="1465.0001,-317.6207 1461,-311.6207 1465,-305.6207 1469,-311.6207 1465.0001,-317.6207"/>
<text text-anchor="middle" x="1485.5" y="-429" font-family="Helvetica,sans-Serif" font-size="10.00" fill="#000000"> +policy</text>
</g>
<!-- Node20 -->
<g id="node20" class="node">
<title>Node20</title>
<g id="a_node20"><a xlink:href="../../d4/d79/structo2_1_1framework_1_1OutputObj.html" target="_top" xlink:title="{o2::framework::OutputObj\&lt; T \&gt;\n||+ OutputObj()\l+ OutputObj()\l+ setObject()\l+ setObject()\l+ setObject()\l+ setHash()\l+ spec()\l+ operator&#45;\&gt;()\l+ operator*()\l+ ref()\l}">
<polygon fill="none" stroke="#000000" points="1524,-353.5 1524,-509.5 1696,-509.5 1696,-353.5 1524,-353.5"/>
<text text-anchor="middle" x="1610" y="-497.5" font-family="Helvetica,sans-Serif" font-size="10.00" fill="#000000">o2::framework::OutputObj&lt; T &gt;</text>
<polyline fill="none" stroke="#000000" points="1524,-490.5 1696,-490.5 "/>
<text text-anchor="middle" x="1610" y="-478.5" font-family="Helvetica,sans-Serif" font-size="10.00" fill="#000000"> </text>
<polyline fill="none" stroke="#000000" points="1524,-471.5 1696,-471.5 "/>
<text text-anchor="start" x="1532" y="-459.5" font-family="Helvetica,sans-Serif" font-size="10.00" fill="#000000">+ OutputObj()</text>
<text text-anchor="start" x="1532" y="-448.5" font-family="Helvetica,sans-Serif" font-size="10.00" fill="#000000">+ OutputObj()</text>
<text text-anchor="start" x="1532" y="-437.5" font-family="Helvetica,sans-Serif" font-size="10.00" fill="#000000">+ setObject()</text>
<text text-anchor="start" x="1532" y="-426.5" font-family="Helvetica,sans-Serif" font-size="10.00" fill="#000000">+ setObject()</text>
<text text-anchor="start" x="1532" y="-415.5" font-family="Helvetica,sans-Serif" font-size="10.00" fill="#000000">+ setObject()</text>
<text text-anchor="start" x="1532" y="-404.5" font-family="Helvetica,sans-Serif" font-size="10.00" fill="#000000">+ setHash()</text>
<text text-anchor="start" x="1532" y="-393.5" font-family="Helvetica,sans-Serif" font-size="10.00" fill="#000000">+ spec()</text>
<text text-anchor="start" x="1532" y="-382.5" font-family="Helvetica,sans-Serif" font-size="10.00" fill="#000000">+ operator&#45;&gt;()</text>
<text text-anchor="start" x="1532" y="-371.5" font-family="Helvetica,sans-Serif" font-size="10.00" fill="#000000">+ operator*()</text>
<text text-anchor="start" x="1532" y="-360.5" font-family="Helvetica,sans-Serif" font-size="10.00" fill="#000000">+ ref()</text>
</a>
</g>
</g>
<!-- Node13&#45;&gt;Node20 -->
<g id="edge29" class="edge">
<title>Node13&#45;&gt;Node20</title>
<path fill="none" stroke="#404040" d="M1487.9757,-584.6616C1502.2162,-566.7873 1521.3397,-542.784 1540.2172,-519.0894"/>
<polygon fill="none" stroke="#404040" points="1540.2324,-519.0704 1540.8426,-511.8851 1547.7099,-509.6849 1547.0996,-516.8701 1540.2324,-519.0704"/>
<text text-anchor="middle" x="1548.5" y="-531" font-family="Helvetica,sans-Serif" font-size="10.00" fill="#000000"> +policy</text>
</g>
<!-- Node14 -->
<g id="node14" class="node">
<title>Node14</title>
<g id="a_node14"><a xlink:href="../../d3/d87/classuint32__t.html" target="_top" xlink:title="{uint32_t\n||}">
<polygon fill="none" stroke="#000000" points="1321,-585 1321,-642 1377,-642 1377,-585 1321,-585"/>
<text text-anchor="middle" x="1349" y="-630" font-family="Helvetica,sans-Serif" font-size="10.00" fill="#000000">uint32_t</text>
<polyline fill="none" stroke="#000000" points="1321,-623 1377,-623 "/>
<text text-anchor="middle" x="1349" y="-611" font-family="Helvetica,sans-Serif" font-size="10.00" fill="#000000"> </text>
<polyline fill="none" stroke="#000000" points="1321,-604 1377,-604 "/>
<text text-anchor="middle" x="1349" y="-592" font-family="Helvetica,sans-Serif" font-size="10.00" fill="#000000"> </text>
</a>
</g>
</g>
<!-- Node14&#45;&gt;Node11 -->
<g id="edge20" class="edge">
<title>Node14&#45;&gt;Node11</title>
<path fill="none" stroke="#404040" d="M1350.693,-584.9731C1354.2683,-536.2087 1364.7311,-434.2204 1393,-353 1397.2127,-340.8964 1402.4793,-328.5878 1408.2364,-316.6036"/>
<polygon fill="none" stroke="#404040" points="1408.311,-316.4533 1407.3951,-309.3006 1413.6454,-305.7042 1414.5612,-312.8569 1408.311,-316.4533"/>
<text text-anchor="middle" x="1427" y="-429" font-family="Helvetica,sans-Serif" font-size="10.00" fill="#000000"> +mTaskHash</text>
</g>
<!-- Node14&#45;&gt;Node20 -->
<g id="edge28" class="edge">
<title>Node14&#45;&gt;Node20</title>
<path fill="none" stroke="#404040" d="M1363.8728,-584.8949C1370.0196,-575.0995 1377.862,-564.6841 1387,-557 1411.2114,-536.6407 1422.3973,-539.1522 1452,-528 1477.2577,-518.4847 1486.0998,-522.5408 1510,-510 1511.0047,-509.4728 1512.0094,-508.9352 1513.0136,-508.3877"/>
<polygon fill="none" stroke="#404040" points="1513.3554,-508.1897 1516.5415,-501.7206 1523.7384,-502.1735 1520.5523,-508.6426 1513.3554,-508.1897"/>
<text text-anchor="middle" x="1486" y="-531" font-family="Helvetica,sans-Serif" font-size="10.00" fill="#000000"> +mTaskHash</text>
</g>
<!-- Node15 -->
<g id="node15" class="node">
<title>Node15</title>
<polygon fill="none" stroke="#bfbfbf" points="1671.5,-734 1671.5,-791 1700.5,-791 1700.5,-734 1671.5,-734"/>
<text text-anchor="middle" x="1686" y="-779" font-family="Helvetica,sans-Serif" font-size="10.00" fill="#000000">int</text>
<polyline fill="none" stroke="#bfbfbf" points="1671.5,-772 1700.5,-772 "/>
<text text-anchor="middle" x="1686" y="-760" font-family="Helvetica,sans-Serif" font-size="10.00" fill="#000000"> </text>
<polyline fill="none" stroke="#bfbfbf" points="1671.5,-753 1700.5,-753 "/>
<text text-anchor="middle" x="1686" y="-741" font-family="Helvetica,sans-Serif" font-size="10.00" fill="#000000"> </text>
</g>
<!-- Node15&#45;&gt;Node11 -->
<g id="edge21" class="edge">
<title>Node15&#45;&gt;Node11</title>
<path fill="none" stroke="#404040" d="M1671.2498,-761.2126C1607.6447,-755.3296 1357.9708,-728.7257 1312,-670 1224.3966,-558.0904 1290.4193,-480.1047 1354,-353 1362.559,-335.8896 1373.803,-319.1249 1385.8478,-303.608"/>
<polygon fill="none" stroke="#404040" points="1385.9422,-303.4898 1386.5634,-296.3055 1393.434,-294.1158 1392.8128,-301.3001 1385.9422,-303.4898"/>
<text text-anchor="middle" x="1291" y="-531" font-family="Helvetica,sans-Serif" font-size="10.00" fill="#000000"> +label</text>
</g>
<!-- Node17 -->
<g id="node17" class="node">
<title>Node17</title>
<g id="a_node17"><a xlink:href="../../da/d96/structo2_1_1framework_1_1InputSpec.html" target="_top" xlink:title="{o2::framework::InputSpec\n||+ InputSpec()\l+ InputSpec()\l+ InputSpec()\l+ InputSpec()\l+ InputSpec()\l+ operator==()\l}">
<polygon fill="none" stroke="#000000" points="1796,-557.5 1796,-669.5 1938,-669.5 1938,-557.5 1796,-557.5"/>
<text text-anchor="middle" x="1867" y="-657.5" font-family="Helvetica,sans-Serif" font-size="10.00" fill="#000000">o2::framework::InputSpec</text>
<polyline fill="none" stroke="#000000" points="1796,-650.5 1938,-650.5 "/>
<text text-anchor="middle" x="1867" y="-638.5" font-family="Helvetica,sans-Serif" font-size="10.00" fill="#000000"> </text>
<polyline fill="none" stroke="#000000" points="1796,-631.5 1938,-631.5 "/>
<text text-anchor="start" x="1804" y="-619.5" font-family="Helvetica,sans-Serif" font-size="10.00" fill="#000000">+ InputSpec()</text>
<text text-anchor="start" x="1804" y="-608.5" font-family="Helvetica,sans-Serif" font-size="10.00" fill="#000000">+ InputSpec()</text>
<text text-anchor="start" x="1804" y="-597.5" font-family="Helvetica,sans-Serif" font-size="10.00" fill="#000000">+ InputSpec()</text>
<text text-anchor="start" x="1804" y="-586.5" font-family="Helvetica,sans-Serif" font-size="10.00" fill="#000000">+ InputSpec()</text>
<text text-anchor="start" x="1804" y="-575.5" font-family="Helvetica,sans-Serif" font-size="10.00" fill="#000000">+ InputSpec()</text>
<text text-anchor="start" x="1804" y="-564.5" font-family="Helvetica,sans-Serif" font-size="10.00" fill="#000000">+ operator==()</text>
</a>
</g>
</g>
<!-- Node15&#45;&gt;Node17 -->
<g id="edge26" class="edge">
<title>Node15&#45;&gt;Node17</title>
<path fill="none" stroke="#404040" d="M1700.506,-750.5586C1719.9058,-734.5886 1755.7473,-705.0837 1789.2201,-677.5287"/>
<polygon fill="none" stroke="#404040" points="1789.3181,-677.4481 1791.4082,-670.5465 1798.5827,-669.8214 1796.4927,-676.723 1789.3181,-677.4481"/>
<text text-anchor="middle" x="1800" y="-691" font-family="Helvetica,sans-Serif" font-size="10.00" fill="#000000"> +binding</text>
</g>
<!-- Node15&#45;&gt;Node20 -->
<g id="edge30" class="edge">
<title>Node15&#45;&gt;Node20</title>
<path fill="none" stroke="#404040" d="M1684.4233,-733.8324C1681.7258,-693.7328 1674.8909,-618.8627 1659,-557 1655.9571,-545.1541 1652.113,-532.9116 1647.9219,-520.9286"/>
<polygon fill="none" stroke="#404040" points="1647.8857,-520.8282 1642.0865,-516.5423 1643.8122,-509.5407 1649.6114,-513.8266 1647.8857,-520.8282"/>
<text text-anchor="middle" x="1696" y="-611" font-family="Helvetica,sans-Serif" font-size="10.00" fill="#000000"> +label</text>
</g>
<!-- Node16 -->
<g id="node16" class="node">
<title>Node16</title>
<polygon fill="none" stroke="#bfbfbf" points="1740,-585 1740,-642 1778,-642 1778,-585 1740,-585"/>
<text text-anchor="middle" x="1759" y="-630" font-family="Helvetica,sans-Serif" font-size="10.00" fill="#000000">bool</text>
<polyline fill="none" stroke="#bfbfbf" points="1740,-623 1778,-623 "/>
<text text-anchor="middle" x="1759" y="-611" font-family="Helvetica,sans-Serif" font-size="10.00" fill="#000000"> </text>
<polyline fill="none" stroke="#bfbfbf" points="1740,-604 1778,-604 "/>
<text text-anchor="middle" x="1759" y="-592" font-family="Helvetica,sans-Serif" font-size="10.00" fill="#000000"> </text>
</g>
<!-- Node16&#45;&gt;Node11 -->
<g id="edge22" class="edge">
<title>Node16&#45;&gt;Node11</title>
<path fill="none" stroke="#404040" d="M1760.166,-584.7853C1760.8187,-533.4763 1755.5663,-424.7224 1705,-353 1664.6951,-295.8323 1616.6144,-335.3574 1547.921,-305.9677"/>
<polygon fill="none" stroke="#404040" points="1547.5519,-305.7921 1540.4151,-306.8246 1536.7171,-300.6338 1543.854,-299.6014 1547.5519,-305.7921"/>
<text text-anchor="middle" x="1787" y="-429" font-family="Helvetica,sans-Serif" font-size="10.00" fill="#000000"> +isdangling</text>
</g>
<!-- Node16&#45;&gt;Node20 -->
<g id="edge32" class="edge">
<title>Node16&#45;&gt;Node20</title>
<path fill="none" stroke="#404040" d="M1746.3053,-584.888C1741.027,-575.2044 1734.1983,-564.8631 1726,-557 1713.6602,-545.1647 1705.0439,-550.0545 1692,-539 1684.8231,-532.9177 1677.8836,-526.1051 1671.283,-518.9399"/>
<polygon fill="none" stroke="#404040" points="1671.0629,-518.6911 1664.0913,-516.848 1663.1113,-509.7038 1670.0829,-511.5469 1671.0629,-518.6911"/>
<text text-anchor="middle" x="1723" y="-531" font-family="Helvetica,sans-Serif" font-size="10.00" fill="#000000"> +isdangling</text>
</g>
<!-- Node17&#45;&gt;Node11 -->
<g id="edge23" class="edge">
<title>Node17&#45;&gt;Node11</title>
<path fill="none" stroke="#404040" d="M1873.8936,-557.3263C1877.7606,-498.5202 1873.7605,-407.3298 1822,-353 1781.3476,-310.3297 1620.0009,-331.2665 1547.8428,-305.5072"/>
<polygon fill="none" stroke="#404040" points="1547.7006,-305.4468 1540.6139,-306.7805 1536.6571,-300.7519 1543.7438,-299.4182 1547.7006,-305.4468"/>
<text text-anchor="middle" x="1891" y="-429" font-family="Helvetica,sans-Serif" font-size="10.00" fill="#000000"> +spec</text>
</g>
<!-- Node17&#45;&gt;Node20 -->
<g id="edge33" class="edge">
<title>Node17&#45;&gt;Node20</title>
<path fill="none" stroke="#404040" d="M1797.3258,-557.3915C1784.4015,-547.4018 1770.9055,-537.2422 1758,-528 1741.5309,-516.2058 1723.7099,-504.0749 1706.3305,-492.5658"/>
<polygon fill="none" stroke="#404040" points="1706.1839,-492.4693 1698.9728,-492.5095 1696.1623,-485.8686 1703.3733,-485.8284 1706.1839,-492.4693"/>
<text text-anchor="middle" x="1787" y="-531" font-family="Helvetica,sans-Serif" font-size="10.00" fill="#000000"> +spec</text>
</g>
<!-- Node18 -->
<g id="node18" class="node">
<title>Node18</title>
<polygon fill="none" stroke="#bfbfbf" points="1934,-734 1934,-791 2022,-791 2022,-734 1934,-734"/>
<text text-anchor="middle" x="1978" y="-779" font-family="Helvetica,sans-Serif" font-size="10.00" fill="#000000">enum Lifetime</text>
<polyline fill="none" stroke="#bfbfbf" points="1934,-772 2022,-772 "/>
<text text-anchor="middle" x="1978" y="-760" font-family="Helvetica,sans-Serif" font-size="10.00" fill="#000000"> </text>
<polyline fill="none" stroke="#bfbfbf" points="1934,-753 2022,-753 "/>
<text text-anchor="middle" x="1978" y="-741" font-family="Helvetica,sans-Serif" font-size="10.00" fill="#000000"> </text>
</g>
<!-- Node18&#45;&gt;Node17 -->
<g id="edge24" class="edge">
<title>Node18&#45;&gt;Node17</title>
<path fill="none" stroke="#404040" d="M1956.5981,-733.7713C1945.0639,-718.2885 1930.3218,-698.4995 1916.1409,-679.4639"/>
<polygon fill="none" stroke="#404040" points="1915.9653,-679.2281 1909.1731,-676.8062 1908.7963,-669.6049 1915.5885,-672.0269 1915.9653,-679.2281"/>
<text text-anchor="middle" x="1954" y="-691" font-family="Helvetica,sans-Serif" font-size="10.00" fill="#000000"> +lifetime</text>
</g>
<!-- Node19 -->
<g id="node19" class="node">
<title>Node19</title>
<polygon fill="none" stroke="#bfbfbf" points="1752,-717.5 1752,-807.5 1916,-807.5 1916,-717.5 1752,-717.5"/>
<text text-anchor="start" x="1760" y="-795.5" font-family="Helvetica,sans-Serif" font-size="10.00" fill="#000000">variant&lt; o2::framework</text>
<text text-anchor="start" x="1760" y="-784.5" font-family="Helvetica,sans-Serif" font-size="10.00" fill="#000000">::ConcreteDataMatcher,</text>
<text text-anchor="start" x="1760" y="-773.5" font-family="Helvetica,sans-Serif" font-size="10.00" fill="#000000"> o2::framework::data_matcher</text>
<text text-anchor="middle" x="1834" y="-762.5" font-family="Helvetica,sans-Serif" font-size="10.00" fill="#000000">::DataDescriptorMatcher &gt;</text>
<polyline fill="none" stroke="#bfbfbf" points="1752,-755.5 1916,-755.5 "/>
<text text-anchor="middle" x="1834" y="-743.5" font-family="Helvetica,sans-Serif" font-size="10.00" fill="#000000"> </text>
<polyline fill="none" stroke="#bfbfbf" points="1752,-736.5 1916,-736.5 "/>
<text text-anchor="middle" x="1834" y="-724.5" font-family="Helvetica,sans-Serif" font-size="10.00" fill="#000000"> </text>
</g>
<!-- Node19&#45;&gt;Node17 -->
<g id="edge25" class="edge">
<title>Node19&#45;&gt;Node17</title>
<path fill="none" stroke="#404040" d="M1843.9906,-717.3907C1846.4947,-706.0845 1849.237,-693.7027 1851.9282,-681.5514"/>
<polygon fill="none" stroke="#404040" points="1851.9968,-681.2414 1849.3889,-674.5184 1854.5917,-669.5254 1857.1996,-676.2484 1851.9968,-681.2414"/>
<text text-anchor="middle" x="1876" y="-691" font-family="Helvetica,sans-Serif" font-size="10.00" fill="#000000"> +matcher</text>
</g>
<!-- Node20&#45;&gt;Node11 -->
<g id="edge27" class="edge">
<title>Node20&#45;&gt;Node11</title>
<path fill="none" stroke="#ffa500" d="M1550.1404,-345.0133C1541.1446,-332.0158 1531.8808,-318.6313 1522.9264,-305.6937"/>
<polygon fill="#ffa500" stroke="#ffa500" points="1547.4383,-347.2592 1556.0074,-353.4899 1553.1942,-343.2754 1547.4383,-347.2592"/>
<text text-anchor="middle" x="1600.5" y="-327" font-family="Helvetica,sans-Serif" font-size="10.00" fill="#000000"> &lt; HistogramManager &gt;</text>
</g>
<!-- Node21 -->
<g id="node21" class="node">
<title>Node21</title>
<polygon fill="none" stroke="#bfbfbf" points="1552.5,-585 1552.5,-642 1649.5,-642 1649.5,-585 1552.5,-585"/>
<text text-anchor="middle" x="1601" y="-630" font-family="Helvetica,sans-Serif" font-size="10.00" fill="#000000">shared_ptr&lt; T &gt;</text>
<polyline fill="none" stroke="#bfbfbf" points="1552.5,-623 1649.5,-623 "/>
<text text-anchor="middle" x="1601" y="-611" font-family="Helvetica,sans-Serif" font-size="10.00" fill="#000000"> </text>
<polyline fill="none" stroke="#bfbfbf" points="1552.5,-604 1649.5,-604 "/>
<text text-anchor="middle" x="1601" y="-592" font-family="Helvetica,sans-Serif" font-size="10.00" fill="#000000"> </text>
</g>
<!-- Node21&#45;&gt;Node20 -->
<g id="edge31" class="edge">
<title>Node21&#45;&gt;Node20</title>
<path fill="none" stroke="#404040" d="M1600.8275,-584.9851C1600.8534,-568.3551 1601.1034,-546.9801 1602,-528 1602.0968,-525.9508 1602.2026,-523.8777 1602.3162,-521.7877"/>
<polygon fill="none" stroke="#404040" points="1602.3239,-521.6582 1598.692,-515.4285 1603.0456,-509.6799 1606.6775,-515.9096 1602.3239,-521.6582"/>
<text text-anchor="middle" x="1623" y="-531" font-family="Helvetica,sans-Serif" font-size="10.00" fill="#000000"> +object</text>
</g>
<!-- Node22 -->
<g id="node22" class="node">
<title>Node22</title>
<polygon fill="none" stroke="#bfbfbf" points="1555,-193.5 1555,-250.5 1599,-250.5 1599,-193.5 1555,-193.5"/>
<text text-anchor="middle" x="1577" y="-238.5" font-family="Helvetica,sans-Serif" font-size="10.00" fill="#000000">static</text>
<polyline fill="none" stroke="#bfbfbf" points="1555,-231.5 1599,-231.5 "/>
<text text-anchor="middle" x="1577" y="-219.5" font-family="Helvetica,sans-Serif" font-size="10.00" fill="#000000"> </text>
<polyline fill="none" stroke="#bfbfbf" points="1555,-212.5 1599,-212.5 "/>
<text text-anchor="middle" x="1577" y="-200.5" font-family="Helvetica,sans-Serif" font-size="10.00" fill="#000000"> </text>
</g>
<!-- Node22&#45;&gt;Node1 -->
<g id="edge34" class="edge">
<title>Node22&#45;&gt;Node1</title>
<path fill="none" stroke="#404040" d="M1573.7107,-193.2922C1570.0497,-174.7778 1562.319,-151.6829 1546,-138 1497.0364,-96.9456 1074.1042,-59.4126 900.6982,-45.6043"/>
<polygon fill="none" stroke="#404040" points="900.6154,-45.5979 894.3186,-49.1122 888.6528,-44.6514 894.9496,-41.1371 900.6154,-45.5979"/>
<text text-anchor="middle" x="1540.5" y="-112" font-family="Helvetica,sans-Serif" font-size="10.00" fill="#000000"> +fgTrackFillMap</text>
<text text-anchor="middle" x="1540.5" y="-101" font-family="Helvetica,sans-Serif" font-size="10.00" fill="#000000">+fgEventFillMap</text>
</g>
</g>
</svg>
        <g id="navigator" transform="translate(0 0)" fill="#404254">
                <rect fill="#f2f5e9" fill-opacity="0.5" stroke="#606060" stroke-width=".5" x="0" y="0" width="60" height="60"/>
                <use id="zoomplus" xlink:href="#zoomPlus" x="17" y="9" onmousedown="handleZoom(evt,'in')"/>
                <use id="zoomminus" xlink:href="#zoomMin" x="42" y="9" onmousedown="handleZoom(evt,'out')"/>
                <use id="reset" xlink:href="#resetDef" x="30" y="36" onmousedown="handleReset()"/>
                <g id="arrowUp" xlink:href="#dirArrow" transform="translate(30 24)" onmousedown="handlePan(0,-1)">
                  <use xlink:href="#rim" fill="#404040">
                        <set attributeName="fill" to="#808080" begin="arrowUp.mouseover" end="arrowUp.mouseout"/>
                  </use>
                  <path fill="none" stroke="white" stroke-width="1.5" d="M0,-3.0v7 M-2.5,-0.5L0,-3.0L2.5,-0.5"/>
                </g>
                <g id="arrowRight" xlink:href="#dirArrow" transform="rotate(90) translate(36 -43)" onmousedown="handlePan(1,0)">
                  <use xlink:href="#rim" fill="#404040">
                        <set attributeName="fill" to="#808080" begin="arrowRight.mouseover" end="arrowRight.mouseout"/>
                  </use>
                  <path fill="none" stroke="white" stroke-width="1.5" d="M0,-3.0v7 M-2.5,-0.5L0,-3.0L2.5,-0.5"/>
                </g>
                <g id="arrowDown" xlink:href="#dirArrow" transform="rotate(180) translate(-30 -48)" onmousedown="handlePan(0,1)">
                  <use xlink:href="#rim" fill="#404040">
                        <set attributeName="fill" to="#808080" begin="arrowDown.mouseover" end="arrowDown.mouseout"/>
                  </use>
                  <path fill="none" stroke="white" stroke-width="1.5" d="M0,-3.0v7 M-2.5,-0.5L0,-3.0L2.5,-0.5"/>
                </g>
                <g id="arrowLeft" xlink:href="#dirArrow" transform="rotate(270) translate(-36 17)" onmousedown="handlePan(-1,0)">
                  <use xlink:href="#rim" fill="#404040">
                        <set attributeName="fill" to="#808080" begin="arrowLeft.mouseover" end="arrowLeft.mouseout"/>
                  </use>
                  <path fill="none" stroke="white" stroke-width="1.5" d="M0,-3.0v7 M-2.5,-0.5L0,-3.0L2.5,-0.5"/>
                </g>
        </g>
        <svg viewBox="0 0 15 15" width="100%" height="30px" preserveAspectRatio="xMaxYMin meet">
         <g id="arrow_out" transform="scale(0.3 0.3)">
          <a xlink:href="structTableMaker__coll__graph_org.svg" target="_base">
           <rect id="button" ry="5" rx="5" y="6" x="6" height="38" width="38"
                fill="#f2f5e9" fill-opacity="0.5" stroke="#606060" stroke-width="1.0"/>
           <path id="arrow"
             d="M 11.500037,31.436501 C 11.940474,20.09759 22.043105,11.32322 32.158766,21.979434 L 37.068811,17.246167 C 37.068811,17.246167 37.088388,32 37.088388,32 L 22.160133,31.978069 C 22.160133,31.978069 26.997745,27.140456 26.997745,27.140456 C 18.528582,18.264221 13.291696,25.230495 11.500037,31.436501 z"
             style="fill:#404040;"/>
          </a>
         </g>
        </svg>
</svg>
