<?xml version="1.0" encoding="UTF-8" standalone="no"?>
<!DOCTYPE svg PUBLIC "-//W3C//DTD SVG 1.1//EN"
 "http://www.w3.org/Graphics/SVG/1.1/DTD/svg11.dtd">
<!-- Generated by graphviz version 2.40.1 (20161225.0304)
 -->
<!-- Title: /home/travis/build/AliceO2Group/AliceO2/DataFormats/Detectors/TRD/include/DataFormatsTRD/RawData.h Pages: 1 -->
<svg width="410pt" height="128pt"
 viewBox="0.00 0.00 409.50 128.00" xmlns="http://www.w3.org/2000/svg" xmlns:xlink="http://www.w3.org/1999/xlink">
<g id="graph0" class="graph" transform="scale(1 1) rotate(0) translate(4 124)">
<title>/home/travis/build/AliceO2Group/AliceO2/DataFormats/Detectors/TRD/include/DataFormatsTRD/RawData.h</title>
<!-- Node0 -->
<g id="node1" class="node">
<title>Node0</title>
<polygon fill="#bfbfbf" stroke="#000000" points="91.5,-56.5 91.5,-119.5 255.5,-119.5 255.5,-56.5 91.5,-56.5"/>
<text text-anchor="start" x="99.5" y="-107.5" font-family="Helvetica,sans-Serif" font-size="10.00" fill="#000000">/home/travis/build</text>
<text text-anchor="start" x="99.5" y="-96.5" font-family="Helvetica,sans-Serif" font-size="10.00" fill="#000000">/AliceO2Group/AliceO2</text>
<text text-anchor="start" x="99.5" y="-85.5" font-family="Helvetica,sans-Serif" font-size="10.00" fill="#000000">/DataFormats/Detectors</text>
<text text-anchor="start" x="99.5" y="-74.5" font-family="Helvetica,sans-Serif" font-size="10.00" fill="#000000">/TRD/include/DataFormatsTRD</text>
<text text-anchor="middle" x="173.5" y="-63.5" font-family="Helvetica,sans-Serif" font-size="10.00" fill="#000000">/RawData.h</text>
</g>
<!-- Node1 -->
<g id="node2" class="node">
<title>Node1</title>
<polygon fill="none" stroke="#bfbfbf" points="0,-.5 0,-19.5 49,-19.5 49,-.5 0,-.5"/>
<text text-anchor="middle" x="24.5" y="-7.5" font-family="Helvetica,sans-Serif" font-size="10.00" fill="#000000">iosfwd</text>
</g>
<!-- Node0&#45;&gt;Node1 -->
<g id="edge1" class="edge">
<title>Node0&#45;&gt;Node1</title>
<path fill="none" stroke="#191970" d="M113.3255,-56.4992C91.9271,-45.2974 68.8902,-33.2378 51.6401,-24.2076"/>
<polygon fill="#191970" stroke="#191970" points="53.182,-21.0642 42.6993,-19.5271 49.9355,-27.2659 53.182,-21.0642"/>
</g>
<!-- Node2 -->
<g id="node3" class="node">
<title>Node2</title>
<polygon fill="none" stroke="#bfbfbf" points="67.5,-.5 67.5,-19.5 127.5,-19.5 127.5,-.5 67.5,-.5"/>
<text text-anchor="middle" x="97.5" y="-7.5" font-family="Helvetica,sans-Serif" font-size="10.00" fill="#000000">iostream</text>
</g>
<!-- Node0&#45;&gt;Node2 -->
<g id="edge2" class="edge">
<title>Node0&#45;&gt;Node2</title>
<path fill="none" stroke="#191970" d="M142.5879,-56.2744C132.7711,-46.1993 122.3001,-35.4527 113.9221,-26.8543"/>
<polygon fill="#191970" stroke="#191970" points="116.3808,-24.3623 106.8953,-19.6426 111.3672,-29.2474 116.3808,-24.3623"/>
</g>
<!-- Node3 -->
<g id="node4" class="node">
<title>Node3</title>
<polygon fill="none" stroke="#bfbfbf" points="145.5,-.5 145.5,-19.5 201.5,-19.5 201.5,-.5 145.5,-.5"/>
<text text-anchor="middle" x="173.5" y="-7.5" font-family="Helvetica,sans-Serif" font-size="10.00" fill="#000000">iomanip</text>
</g>
<!-- Node0&#45;&gt;Node3 -->
<g id="edge3" class="edge">
<title>Node0&#45;&gt;Node3</title>
<path fill="none" stroke="#191970" d="M173.5,-56.2744C173.5,-47.3302 173.5,-37.8568 173.5,-29.8269"/>
<polygon fill="#191970" stroke="#191970" points="177.0001,-29.6425 173.5,-19.6426 170.0001,-29.6426 177.0001,-29.6425"/>
</g>
<!-- Node4 -->
<g id="node5" class="node">
<title>Node4</title>
<polygon fill="none" stroke="#bfbfbf" points="220,-.5 220,-19.5 275,-19.5 275,-.5 220,-.5"/>
<text text-anchor="middle" x="247.5" y="-7.5" font-family="Helvetica,sans-Serif" font-size="10.00" fill="#000000">fstream</text>
</g>
<!-- Node0&#45;&gt;Node4 -->
<g id="edge4" class="edge">
<title>Node0&#45;&gt;Node4</title>
<path fill="none" stroke="#191970" d="M203.5986,-56.2744C213.0595,-46.3021 223.1445,-35.672 231.2597,-27.1182"/>
<polygon fill="#191970" stroke="#191970" points="234.0084,-29.3061 238.3519,-19.6426 228.9302,-24.4883 234.0084,-29.3061"/>
</g>
<!-- Node5 -->
<g id="node6" class="node">
<title>Node5</title>
<polygon fill="none" stroke="#bfbfbf" points="293.5,-.5 293.5,-19.5 401.5,-19.5 401.5,-.5 293.5,-.5"/>
<text text-anchor="middle" x="347.5" y="-7.5" font-family="Helvetica,sans-Serif" font-size="10.00" fill="#000000">fairlogger/Logger.h</text>
</g>
<!-- Node0&#45;&gt;Node5 -->
<g id="edge5" class="edge">
<title>Node0&#45;&gt;Node5</title>
<path fill="none" stroke="#191970" d="M243.7709,-56.4992C269.2223,-45.09 296.6588,-32.7909 316.9183,-23.7091"/>
<polygon fill="#191970" stroke="#191970" points="318.5538,-26.8115 326.2472,-19.5271 315.6903,-20.424 318.5538,-26.8115"/>
</g>
</g>
</svg>
