<?xml version="1.0" encoding="UTF-8" standalone="no"?>
<!DOCTYPE svg PUBLIC "-//W3C//DTD SVG 1.1//EN"
 "http://www.w3.org/Graphics/SVG/1.1/DTD/svg11.dtd">
<!-- Generated by graphviz version 2.40.1 (20161225.0304)
 -->
<!-- Title: /home/travis/build/AliceO2Group/AliceO2/Analysis/Core/include/Analysis/TriggerAliases.h Pages: 1 -->
<svg width="2017pt" height="239pt"
 viewBox="0.00 0.00 2016.50 239.00" xmlns="http://www.w3.org/2000/svg" xmlns:xlink="http://www.w3.org/1999/xlink">
<g id="graph0" class="graph" transform="scale(1 1) rotate(0) translate(4 235)">
<title>/home/travis/build/AliceO2Group/AliceO2/Analysis/Core/include/Analysis/TriggerAliases.h</title>
<!-- Node5 -->
<g id="node1" class="node">
<title>Node5</title>
<polygon fill="#bfbfbf" stroke="#000000" points="897,-178.5 897,-230.5 1038,-230.5 1038,-178.5 897,-178.5"/>
<text text-anchor="start" x="905" y="-218.5" font-family="Helvetica,sans-Serif" font-size="10.00" fill="#000000">/home/travis/build</text>
<text text-anchor="start" x="905" y="-207.5" font-family="Helvetica,sans-Serif" font-size="10.00" fill="#000000">/AliceO2Group/AliceO2</text>
<text text-anchor="start" x="905" y="-196.5" font-family="Helvetica,sans-Serif" font-size="10.00" fill="#000000">/Analysis/Core/include</text>
<text text-anchor="middle" x="967.5" y="-185.5" font-family="Helvetica,sans-Serif" font-size="10.00" fill="#000000">/Analysis/TriggerAliases.h</text>
</g>
<!-- Node6 -->
<g id="node2" class="node">
<title>Node6</title>
<g id="a_node2"><a xlink:href="../../dd/df9/TriggerAliases_8cxx.html" target="_top" xlink:title="/home/travis/build\l/AliceO2Group/AliceO2\l/Analysis/Core/src/TriggerAliases.cxx">
<polygon fill="none" stroke="#000000" points="692,-95 692,-136 887,-136 887,-95 692,-95"/>
<text text-anchor="start" x="700" y="-124" font-family="Helvetica,sans-Serif" font-size="10.00" fill="#000000">/home/travis/build</text>
<text text-anchor="start" x="700" y="-113" font-family="Helvetica,sans-Serif" font-size="10.00" fill="#000000">/AliceO2Group/AliceO2</text>
<text text-anchor="middle" x="789.5" y="-102" font-family="Helvetica,sans-Serif" font-size="10.00" fill="#000000">/Analysis/Core/src/TriggerAliases.cxx</text>
</a>
</g>
</g>
<!-- Node5&#45;&gt;Node6 -->
<g id="edge1" class="edge">
<title>Node5&#45;&gt;Node6</title>
<path fill="none" stroke="#191970" d="M906.0292,-173.7646C881.0874,-161.2937 852.9461,-147.2231 830.5673,-136.0336"/>
<polygon fill="#191970" stroke="#191970" points="904.5473,-176.9367 915.0569,-178.2784 907.6779,-170.6757 904.5473,-176.9367"/>
</g>
<!-- Node7 -->
<g id="node3" class="node">
<title>Node7</title>
<g id="a_node3"><a xlink:href="../../d2/d47/EventSelection_8h.html" target="_top" xlink:title="/home/travis/build\l/AliceO2Group/AliceO2\l/Analysis/DataModel/include\l/Analysis/EventSelection.h">
<polygon fill="none" stroke="#000000" points="943,-89.5 943,-141.5 1098,-141.5 1098,-89.5 943,-89.5"/>
<text text-anchor="start" x="951" y="-129.5" font-family="Helvetica,sans-Serif" font-size="10.00" fill="#000000">/home/travis/build</text>
<text text-anchor="start" x="951" y="-118.5" font-family="Helvetica,sans-Serif" font-size="10.00" fill="#000000">/AliceO2Group/AliceO2</text>
<text text-anchor="start" x="951" y="-107.5" font-family="Helvetica,sans-Serif" font-size="10.00" fill="#000000">/Analysis/DataModel/include</text>
<text text-anchor="middle" x="1020.5" y="-96.5" font-family="Helvetica,sans-Serif" font-size="10.00" fill="#000000">/Analysis/EventSelection.h</text>
</a>
</g>
</g>
<!-- Node5&#45;&gt;Node7 -->
<g id="edge2" class="edge">
<title>Node5&#45;&gt;Node7</title>
<path fill="none" stroke="#191970" d="M988.3046,-169.5639C993.8651,-160.2264 999.7768,-150.2993 1004.9965,-141.5341"/>
<polygon fill="#191970" stroke="#191970" points="985.2245,-167.8957 983.1151,-178.2784 991.2388,-171.4773 985.2245,-167.8957"/>
</g>
<!-- Node11 -->
<g id="node7" class="node">
<title>Node11</title>
<g id="a_node7"><a xlink:href="../../d9/df1/eventSelection_8cxx.html" target="_top" xlink:title="/home/travis/build\l/AliceO2Group/AliceO2\l/Analysis/Tasks/eventSelection.cxx">
<polygon fill="none" stroke="#000000" points="0,-6 0,-47 187,-47 187,-6 0,-6"/>
<text text-anchor="start" x="8" y="-35" font-family="Helvetica,sans-Serif" font-size="10.00" fill="#000000">/home/travis/build</text>
<text text-anchor="start" x="8" y="-24" font-family="Helvetica,sans-Serif" font-size="10.00" fill="#000000">/AliceO2Group/AliceO2</text>
<text text-anchor="middle" x="93.5" y="-13" font-family="Helvetica,sans-Serif" font-size="10.00" fill="#000000">/Analysis/Tasks/eventSelection.cxx</text>
</a>
</g>
</g>
<!-- Node5&#45;&gt;Node11 -->
<g id="edge14" class="edge">
<title>Node5&#45;&gt;Node11</title>
<path fill="none" stroke="#191970" d="M947.9827,-169.6787C929.5709,-137.4436 903.6182,-93.7829 895.5,-89 828.4948,-49.5232 273.3772,-64.7477 196.5,-53 186.4612,-51.466 175.9816,-49.3679 165.7141,-47.019"/>
<polygon fill="#191970" stroke="#191970" points="944.9702,-171.4617 952.9547,-178.4259 951.0558,-168.0026 944.9702,-171.4617"/>
</g>
<!-- Node17 -->
<g id="node13" class="node">
<title>Node17</title>
<g id="a_node13"><a xlink:href="../../d9/d14/tableMaker_8cxx.html" target="_top" xlink:title="/home/travis/build\l/AliceO2Group/AliceO2\l/Analysis/Tasks/tableMaker.cxx">
<polygon fill="none" stroke="#000000" points="1840.5,-6 1840.5,-47 2008.5,-47 2008.5,-6 1840.5,-6"/>
<text text-anchor="start" x="1848.5" y="-35" font-family="Helvetica,sans-Serif" font-size="10.00" fill="#000000">/home/travis/build</text>
<text text-anchor="start" x="1848.5" y="-24" font-family="Helvetica,sans-Serif" font-size="10.00" fill="#000000">/AliceO2Group/AliceO2</text>
<text text-anchor="middle" x="1924.5" y="-13" font-family="Helvetica,sans-Serif" font-size="10.00" fill="#000000">/Analysis/Tasks/tableMaker.cxx</text>
</a>
</g>
</g>
<!-- Node5&#45;&gt;Node17 -->
<g id="edge15" class="edge">
<title>Node5&#45;&gt;Node17</title>
<path fill="none" stroke="#191970" d="M1048.5641,-193.1632C1202.2606,-171.0338 1546.2047,-118.473 1831.5,-53 1839.2725,-51.2163 1847.3624,-49.1821 1855.3844,-47.0519"/>
<polygon fill="#191970" stroke="#191970" points="1047.6752,-189.7548 1038.2739,-194.6401 1048.6698,-196.6838 1047.6752,-189.7548"/>
</g>
<!-- Node8 -->
<g id="node4" class="node">
<title>Node8</title>
<g id="a_node4"><a xlink:href="../../d5/d75/centralityQa_8cxx.html" target="_top" xlink:title="/home/travis/build\l/AliceO2Group/AliceO2\l/Analysis/Tasks/centralityQa.cxx">
<polygon fill="none" stroke="#000000" points="205.5,-6 205.5,-47 379.5,-47 379.5,-6 205.5,-6"/>
<text text-anchor="start" x="213.5" y="-35" font-family="Helvetica,sans-Serif" font-size="10.00" fill="#000000">/home/travis/build</text>
<text text-anchor="start" x="213.5" y="-24" font-family="Helvetica,sans-Serif" font-size="10.00" fill="#000000">/AliceO2Group/AliceO2</text>
<text text-anchor="middle" x="292.5" y="-13" font-family="Helvetica,sans-Serif" font-size="10.00" fill="#000000">/Analysis/Tasks/centralityQa.cxx</text>
</a>
</g>
</g>
<!-- Node7&#45;&gt;Node8 -->
<g id="edge3" class="edge">
<title>Node7&#45;&gt;Node8</title>
<path fill="none" stroke="#191970" d="M932.9793,-89.8232C931.4777,-89.5349 929.9837,-89.2601 928.5,-89 691.5789,-47.4743 625.6483,-93.2081 388.5,-53 379.2948,-51.4393 369.7015,-49.3579 360.2935,-47.0449"/>
<polygon fill="#191970" stroke="#191970" points="932.4699,-93.2922 942.9737,-91.9061 933.8982,-86.4394 932.4699,-93.2922"/>
</g>
<!-- Node9 -->
<g id="node5" class="node">
<title>Node9</title>
<g id="a_node5"><a xlink:href="../../df/d59/correlationsCollection_8cxx.html" target="_top" xlink:title="/home/travis/build\l/AliceO2Group/AliceO2\l/Analysis/Tasks/correlations\lCollection.cxx">
<polygon fill="none" stroke="#000000" points="397.5,-.5 397.5,-52.5 549.5,-52.5 549.5,-.5 397.5,-.5"/>
<text text-anchor="start" x="405.5" y="-40.5" font-family="Helvetica,sans-Serif" font-size="10.00" fill="#000000">/home/travis/build</text>
<text text-anchor="start" x="405.5" y="-29.5" font-family="Helvetica,sans-Serif" font-size="10.00" fill="#000000">/AliceO2Group/AliceO2</text>
<text text-anchor="start" x="405.5" y="-18.5" font-family="Helvetica,sans-Serif" font-size="10.00" fill="#000000">/Analysis/Tasks/correlations</text>
<text text-anchor="middle" x="473.5" y="-7.5" font-family="Helvetica,sans-Serif" font-size="10.00" fill="#000000">Collection.cxx</text>
</a>
</g>
</g>
<!-- Node7&#45;&gt;Node9 -->
<g id="edge4" class="edge">
<title>Node7&#45;&gt;Node9</title>
<path fill="none" stroke="#191970" d="M932.9678,-89.8861C931.4697,-89.5784 929.9796,-89.2826 928.5,-89 766.2125,-58.0039 720.4406,-85.7601 558.5,-53 555.6214,-52.4177 552.7019,-51.7758 549.7633,-51.0864"/>
<polygon fill="#191970" stroke="#191970" points="932.4246,-93.3501 942.9426,-92.0762 933.9258,-86.513 932.4246,-93.3501"/>
</g>
<!-- Node10 -->
<g id="node6" class="node">
<title>Node10</title>
<g id="a_node6"><a xlink:href="../../d4/d39/correlationsMixed_8cxx.html" target="_top" xlink:title="/home/travis/build\l/AliceO2Group/AliceO2\l/Analysis/Tasks/correlations\lMixed.cxx">
<polygon fill="none" stroke="#000000" points="567.5,-.5 567.5,-52.5 719.5,-52.5 719.5,-.5 567.5,-.5"/>
<text text-anchor="start" x="575.5" y="-40.5" font-family="Helvetica,sans-Serif" font-size="10.00" fill="#000000">/home/travis/build</text>
<text text-anchor="start" x="575.5" y="-29.5" font-family="Helvetica,sans-Serif" font-size="10.00" fill="#000000">/AliceO2Group/AliceO2</text>
<text text-anchor="start" x="575.5" y="-18.5" font-family="Helvetica,sans-Serif" font-size="10.00" fill="#000000">/Analysis/Tasks/correlations</text>
<text text-anchor="middle" x="643.5" y="-7.5" font-family="Helvetica,sans-Serif" font-size="10.00" fill="#000000">Mixed.cxx</text>
</a>
</g>
</g>
<!-- Node7&#45;&gt;Node10 -->
<g id="edge5" class="edge">
<title>Node7&#45;&gt;Node10</title>
<path fill="none" stroke="#191970" d="M932.9324,-90.0529C931.4453,-89.6937 929.9669,-89.3423 928.5,-89 840.546,-68.4737 816.2254,-74.4822 728.5,-53 725.6474,-52.3014 722.7499,-51.5606 719.8301,-50.7876"/>
<polygon fill="#191970" stroke="#191970" points="932.297,-93.5016 942.8469,-92.5272 933.992,-86.7099 932.297,-93.5016"/>
</g>
<!-- Node7&#45;&gt;Node11 -->
<g id="edge6" class="edge">
<title>Node7&#45;&gt;Node11</title>
<path fill="none" stroke="#191970" d="M932.9855,-89.7871C931.4819,-89.5099 929.9859,-89.2471 928.5,-89 607.1865,-35.5641 518.5456,-101.8307 196.5,-53 186.4594,-51.4776 175.9789,-49.3861 165.7109,-47.0405"/>
<polygon fill="#191970" stroke="#191970" points="932.4953,-93.2587 942.9904,-91.8084 933.8816,-86.3973 932.4953,-93.2587"/>
</g>
<!-- Node12 -->
<g id="node8" class="node">
<title>Node12</title>
<g id="a_node8"><a xlink:href="../../dd/d91/eventSelectionQa_8cxx.html" target="_top" xlink:title="/home/travis/build\l/AliceO2Group/AliceO2\l/Analysis/Tasks/eventSelection\lQa.cxx">
<polygon fill="none" stroke="#000000" points="738,-.5 738,-52.5 905,-52.5 905,-.5 738,-.5"/>
<text text-anchor="start" x="746" y="-40.5" font-family="Helvetica,sans-Serif" font-size="10.00" fill="#000000">/home/travis/build</text>
<text text-anchor="start" x="746" y="-29.5" font-family="Helvetica,sans-Serif" font-size="10.00" fill="#000000">/AliceO2Group/AliceO2</text>
<text text-anchor="start" x="746" y="-18.5" font-family="Helvetica,sans-Serif" font-size="10.00" fill="#000000">/Analysis/Tasks/eventSelection</text>
<text text-anchor="middle" x="821.5" y="-7.5" font-family="Helvetica,sans-Serif" font-size="10.00" fill="#000000">Qa.cxx</text>
</a>
</g>
</g>
<!-- Node7&#45;&gt;Node12 -->
<g id="edge7" class="edge">
<title>Node7&#45;&gt;Node12</title>
<path fill="none" stroke="#191970" d="M952.8542,-85.2464C929.1469,-74.6436 902.7424,-62.8346 879.8609,-52.6011"/>
<polygon fill="#191970" stroke="#191970" points="951.5805,-88.5107 962.138,-89.3984 954.4384,-82.1207 951.5805,-88.5107"/>
</g>
<!-- Node13 -->
<g id="node9" class="node">
<title>Node13</title>
<g id="a_node9"><a xlink:href="../../d3/db8/invMassAnalysis_8cxx.html" target="_top" xlink:title="/home/travis/build\l/AliceO2Group/AliceO2\l/Analysis/Tasks/invMassAnalysis.cxx">
<polygon fill="none" stroke="#000000" points="923,-6 923,-47 1118,-47 1118,-6 923,-6"/>
<text text-anchor="start" x="931" y="-35" font-family="Helvetica,sans-Serif" font-size="10.00" fill="#000000">/home/travis/build</text>
<text text-anchor="start" x="931" y="-24" font-family="Helvetica,sans-Serif" font-size="10.00" fill="#000000">/AliceO2Group/AliceO2</text>
<text text-anchor="middle" x="1020.5" y="-13" font-family="Helvetica,sans-Serif" font-size="10.00" fill="#000000">/Analysis/Tasks/invMassAnalysis.cxx</text>
</a>
</g>
</g>
<!-- Node7&#45;&gt;Node13 -->
<g id="edge8" class="edge">
<title>Node7&#45;&gt;Node13</title>
<path fill="none" stroke="#191970" d="M1020.5,-79.1335C1020.5,-68.2443 1020.5,-56.6825 1020.5,-47.1771"/>
<polygon fill="#191970" stroke="#191970" points="1017.0001,-79.2784 1020.5,-89.2784 1024.0001,-79.2785 1017.0001,-79.2784"/>
</g>
<!-- Node14 -->
<g id="node10" class="node">
<title>Node14</title>
<g id="a_node10"><a xlink:href="../../d3/d6a/multiplicityQa_8cxx.html" target="_top" xlink:title="/home/travis/build\l/AliceO2Group/AliceO2\l/Analysis/Tasks/multiplicity\lQa.cxx">
<polygon fill="none" stroke="#000000" points="1136,-.5 1136,-52.5 1285,-52.5 1285,-.5 1136,-.5"/>
<text text-anchor="start" x="1144" y="-40.5" font-family="Helvetica,sans-Serif" font-size="10.00" fill="#000000">/home/travis/build</text>
<text text-anchor="start" x="1144" y="-29.5" font-family="Helvetica,sans-Serif" font-size="10.00" fill="#000000">/AliceO2Group/AliceO2</text>
<text text-anchor="start" x="1144" y="-18.5" font-family="Helvetica,sans-Serif" font-size="10.00" fill="#000000">/Analysis/Tasks/multiplicity</text>
<text text-anchor="middle" x="1210.5" y="-7.5" font-family="Helvetica,sans-Serif" font-size="10.00" fill="#000000">Qa.cxx</text>
</a>
</g>
</g>
<!-- Node7&#45;&gt;Node14 -->
<g id="edge9" class="edge">
<title>Node7&#45;&gt;Node14</title>
<path fill="none" stroke="#191970" d="M1085.387,-85.1055C1107.9446,-74.5391 1133.0285,-62.7893 1154.7785,-52.6011"/>
<polygon fill="#191970" stroke="#191970" points="1083.7935,-81.987 1076.2225,-89.3984 1086.7629,-88.326 1083.7935,-81.987"/>
</g>
<!-- Node15 -->
<g id="node11" class="node">
<title>Node15</title>
<g id="a_node11"><a xlink:href="../../d4/d23/multiplicityTable_8cxx.html" target="_top" xlink:title="/home/travis/build\l/AliceO2Group/AliceO2\l/Analysis/Tasks/multiplicity\lTable.cxx">
<polygon fill="none" stroke="#000000" points="1303,-.5 1303,-52.5 1452,-52.5 1452,-.5 1303,-.5"/>
<text text-anchor="start" x="1311" y="-40.5" font-family="Helvetica,sans-Serif" font-size="10.00" fill="#000000">/home/travis/build</text>
<text text-anchor="start" x="1311" y="-29.5" font-family="Helvetica,sans-Serif" font-size="10.00" fill="#000000">/AliceO2Group/AliceO2</text>
<text text-anchor="start" x="1311" y="-18.5" font-family="Helvetica,sans-Serif" font-size="10.00" fill="#000000">/Analysis/Tasks/multiplicity</text>
<text text-anchor="middle" x="1377.5" y="-7.5" font-family="Helvetica,sans-Serif" font-size="10.00" fill="#000000">Table.cxx</text>
</a>
</g>
</g>
<!-- Node7&#45;&gt;Node15 -->
<g id="edge10" class="edge">
<title>Node7&#45;&gt;Node15</title>
<path fill="none" stroke="#191970" d="M1108.1264,-97.319C1161.8908,-85.699 1231.9914,-69.7139 1293.5,-53 1296.5989,-52.1579 1299.7547,-51.2757 1302.9371,-50.3655"/>
<polygon fill="#191970" stroke="#191970" points="1107.3231,-93.9117 1098.2832,-99.4371 1108.7958,-100.755 1107.3231,-93.9117"/>
</g>
<!-- Node16 -->
<g id="node12" class="node">
<title>Node16</title>
<g id="a_node12"><a xlink:href="../../d4/d5e/reducedEventAnalysis_8cxx.html" target="_top" xlink:title="/home/travis/build\l/AliceO2Group/AliceO2\l/Analysis/Tasks/reducedEvent\lAnalysis.cxx">
<polygon fill="none" stroke="#000000" points="1470,-.5 1470,-52.5 1631,-52.5 1631,-.5 1470,-.5"/>
<text text-anchor="start" x="1478" y="-40.5" font-family="Helvetica,sans-Serif" font-size="10.00" fill="#000000">/home/travis/build</text>
<text text-anchor="start" x="1478" y="-29.5" font-family="Helvetica,sans-Serif" font-size="10.00" fill="#000000">/AliceO2Group/AliceO2</text>
<text text-anchor="start" x="1478" y="-18.5" font-family="Helvetica,sans-Serif" font-size="10.00" fill="#000000">/Analysis/Tasks/reducedEvent</text>
<text text-anchor="middle" x="1550.5" y="-7.5" font-family="Helvetica,sans-Serif" font-size="10.00" fill="#000000">Analysis.cxx</text>
</a>
</g>
</g>
<!-- Node7&#45;&gt;Node16 -->
<g id="edge11" class="edge">
<title>Node7&#45;&gt;Node16</title>
<path fill="none" stroke="#191970" d="M1108.503,-106.9231C1198.0089,-97.2909 1340.3841,-79.4601 1461.5,-53 1464.1775,-52.415 1466.892,-51.7909 1469.6265,-51.1354"/>
<polygon fill="#191970" stroke="#191970" points="1107.9671,-103.4603 1098.3943,-108.0003 1108.7089,-110.4209 1107.9671,-103.4603"/>
</g>
<!-- Node7&#45;&gt;Node17 -->
<g id="edge12" class="edge">
<title>Node7&#45;&gt;Node17</title>
<path fill="none" stroke="#191970" d="M1108.2574,-110.9685C1288.4332,-101.2987 1694.6322,-77.5173 1831.5,-53 1840.3411,-51.4163 1849.5487,-49.3371 1858.5833,-47.0388"/>
<polygon fill="#191970" stroke="#191970" points="1107.8223,-107.4866 1098.0235,-111.5156 1108.1961,-114.4766 1107.8223,-107.4866"/>
</g>
<!-- Node18 -->
<g id="node14" class="node">
<title>Node18</title>
<g id="a_node14"><a xlink:href="../../d2/d9d/upcAnalysis_8cxx.html" target="_top" xlink:title="/home/travis/build\l/AliceO2Group/AliceO2\l/Analysis/Tasks/upcAnalysis.cxx">
<polygon fill="none" stroke="#000000" points="1649,-6 1649,-47 1822,-47 1822,-6 1649,-6"/>
<text text-anchor="start" x="1657" y="-35" font-family="Helvetica,sans-Serif" font-size="10.00" fill="#000000">/home/travis/build</text>
<text text-anchor="start" x="1657" y="-24" font-family="Helvetica,sans-Serif" font-size="10.00" fill="#000000">/AliceO2Group/AliceO2</text>
<text text-anchor="middle" x="1735.5" y="-13" font-family="Helvetica,sans-Serif" font-size="10.00" fill="#000000">/Analysis/Tasks/upcAnalysis.cxx</text>
</a>
</g>
</g>
<!-- Node7&#45;&gt;Node18 -->
<g id="edge13" class="edge">
<title>Node7&#45;&gt;Node18</title>
<path fill="none" stroke="#191970" d="M1108.7399,-111.375C1229.5968,-104.644 1453.0058,-88.3302 1640.5,-53 1649.2498,-51.3512 1658.3647,-49.2789 1667.3353,-47.0231"/>
<polygon fill="#191970" stroke="#191970" points="1108.2308,-107.8975 1098.4372,-111.9394 1108.6137,-114.8871 1108.2308,-107.8975"/>
</g>
</g>
</svg>
