<?xml version="1.0" encoding="UTF-8" standalone="no"?>
<!DOCTYPE svg PUBLIC "-//W3C//DTD SVG 1.1//EN"
 "http://www.w3.org/Graphics/SVG/1.1/DTD/svg11.dtd">
<!-- Generated by graphviz version 2.40.1 (20161225.0304)
 -->
<!-- Title: /home/travis/build/AliceO2Group/AliceO2/Framework/Core/include/Framework/CommonServices.h Pages: 1 -->
<svg width="606pt" height="240pt"
 viewBox="0.00 0.00 606.00 240.00" xmlns="http://www.w3.org/2000/svg" xmlns:xlink="http://www.w3.org/1999/xlink">
<g id="graph0" class="graph" transform="scale(1 1) rotate(0) translate(4 236)">
<title>/home/travis/build/AliceO2Group/AliceO2/Framework/Core/include/Framework/CommonServices.h</title>
<!-- Node0 -->
<g id="node1" class="node">
<title>Node0</title>
<polygon fill="#bfbfbf" stroke="#000000" points="196,-179.5 196,-231.5 367,-231.5 367,-179.5 196,-179.5"/>
<text text-anchor="start" x="204" y="-219.5" font-family="Helvetica,sans-Serif" font-size="10.00" fill="#000000">/home/travis/build</text>
<text text-anchor="start" x="204" y="-208.5" font-family="Helvetica,sans-Serif" font-size="10.00" fill="#000000">/AliceO2Group/AliceO2</text>
<text text-anchor="start" x="204" y="-197.5" font-family="Helvetica,sans-Serif" font-size="10.00" fill="#000000">/Framework/Core/include</text>
<text text-anchor="middle" x="281.5" y="-186.5" font-family="Helvetica,sans-Serif" font-size="10.00" fill="#000000">/Framework/CommonServices.h</text>
</g>
<!-- Node1 -->
<g id="node2" class="node">
<title>Node1</title>
<g id="a_node2"><a xlink:href="../../d4/d61/ServiceSpec_8h.html" target="_top" xlink:title="Framework/ServiceSpec.h">
<polygon fill="none" stroke="#000000" points="98.5,-123.5 98.5,-142.5 240.5,-142.5 240.5,-123.5 98.5,-123.5"/>
<text text-anchor="middle" x="169.5" y="-130.5" font-family="Helvetica,sans-Serif" font-size="10.00" fill="#000000">Framework/ServiceSpec.h</text>
</a>
</g>
</g>
<!-- Node0&#45;&gt;Node1 -->
<g id="edge1" class="edge">
<title>Node0&#45;&gt;Node1</title>
<path fill="none" stroke="#191970" d="M241.0654,-179.3258C224.8232,-168.8119 206.6833,-157.0696 192.7306,-148.0377"/>
<polygon fill="#191970" stroke="#191970" points="194.525,-145.03 184.2284,-142.534 190.7212,-150.9063 194.525,-145.03"/>
</g>
<!-- Node6 -->
<g id="node7" class="node">
<title>Node6</title>
<g id="a_node7"><a xlink:href="../../d2/d9a/TypeIdHelpers_8h.html" target="_top" xlink:title="Framework/TypeIdHelpers.h">
<polygon fill="none" stroke="#000000" points="318.5,-123.5 318.5,-142.5 470.5,-142.5 470.5,-123.5 318.5,-123.5"/>
<text text-anchor="middle" x="394.5" y="-130.5" font-family="Helvetica,sans-Serif" font-size="10.00" fill="#000000">Framework/TypeIdHelpers.h</text>
</a>
</g>
</g>
<!-- Node0&#45;&gt;Node6 -->
<g id="edge6" class="edge">
<title>Node0&#45;&gt;Node6</title>
<path fill="none" stroke="#191970" d="M322.2956,-179.3258C338.6828,-168.8119 356.9847,-157.0696 371.0619,-148.0377"/>
<polygon fill="#191970" stroke="#191970" points="373.1135,-150.8799 379.6401,-142.534 369.3334,-144.9883 373.1135,-150.8799"/>
</g>
<!-- Node2 -->
<g id="node3" class="node">
<title>Node2</title>
<polygon fill="none" stroke="#bfbfbf" points="0,-62 0,-81 65,-81 65,-62 0,-62"/>
<text text-anchor="middle" x="32.5" y="-69" font-family="Helvetica,sans-Serif" font-size="10.00" fill="#000000">functional</text>
</g>
<!-- Node1&#45;&gt;Node2 -->
<g id="edge2" class="edge">
<title>Node1&#45;&gt;Node2</title>
<path fill="none" stroke="#191970" d="M148.0938,-123.3906C125.2717,-113.1457 88.9321,-96.8326 63.0943,-85.2339"/>
<polygon fill="#191970" stroke="#191970" points="64.3123,-81.9443 53.7559,-81.0419 61.4455,-88.3303 64.3123,-81.9443"/>
</g>
<!-- Node3 -->
<g id="node4" class="node">
<title>Node3</title>
<polygon fill="none" stroke="#bfbfbf" points="83.5,-62 83.5,-81 127.5,-81 127.5,-62 83.5,-62"/>
<text text-anchor="middle" x="105.5" y="-69" font-family="Helvetica,sans-Serif" font-size="10.00" fill="#000000">string</text>
</g>
<!-- Node1&#45;&gt;Node3 -->
<g id="edge3" class="edge">
<title>Node1&#45;&gt;Node3</title>
<path fill="none" stroke="#191970" d="M159.5,-123.3906C149.7881,-114.0581 134.8361,-99.6902 123.1259,-88.4374"/>
<polygon fill="#191970" stroke="#191970" points="125.2766,-85.65 115.641,-81.2449 120.4264,-90.6974 125.2766,-85.65"/>
</g>
<!-- Node4 -->
<g id="node5" class="node">
<title>Node4</title>
<polygon fill="none" stroke="#bfbfbf" points="146,-62 146,-81 193,-81 193,-62 146,-62"/>
<text text-anchor="middle" x="169.5" y="-69" font-family="Helvetica,sans-Serif" font-size="10.00" fill="#000000">vector</text>
</g>
<!-- Node1&#45;&gt;Node4 -->
<g id="edge4" class="edge">
<title>Node1&#45;&gt;Node4</title>
<path fill="none" stroke="#191970" d="M169.5,-123.3906C169.5,-114.8657 169.5,-102.1392 169.5,-91.4235"/>
<polygon fill="#191970" stroke="#191970" points="173.0001,-91.2448 169.5,-81.2449 166.0001,-91.2449 173.0001,-91.2448"/>
</g>
<!-- Node5 -->
<g id="node6" class="node">
<title>Node5</title>
<polygon fill="none" stroke="#bfbfbf" points="211,-56.5 211,-86.5 340,-86.5 340,-56.5 211,-56.5"/>
<text text-anchor="start" x="219" y="-74.5" font-family="Helvetica,sans-Serif" font-size="10.00" fill="#000000">boost/program_options</text>
<text text-anchor="middle" x="275.5" y="-63.5" font-family="Helvetica,sans-Serif" font-size="10.00" fill="#000000">/variables_map.hpp</text>
</g>
<!-- Node1&#45;&gt;Node5 -->
<g id="edge5" class="edge">
<title>Node1&#45;&gt;Node5</title>
<path fill="none" stroke="#191970" d="M186.0625,-123.3906C200.674,-114.9132 222.4467,-102.2809 240.8512,-91.6028"/>
<polygon fill="#191970" stroke="#191970" points="242.6763,-94.5904 249.5695,-86.5446 239.1634,-88.5357 242.6763,-94.5904"/>
</g>
<!-- Node7 -->
<g id="node8" class="node">
<title>Node7</title>
<polygon fill="none" stroke="#bfbfbf" points="358,-62 358,-81 431,-81 431,-62 358,-62"/>
<text text-anchor="middle" x="394.5" y="-69" font-family="Helvetica,sans-Serif" font-size="10.00" fill="#000000">string_view</text>
</g>
<!-- Node6&#45;&gt;Node7 -->
<g id="edge7" class="edge">
<title>Node6&#45;&gt;Node7</title>
<path fill="none" stroke="#191970" d="M394.5,-123.3906C394.5,-114.8657 394.5,-102.1392 394.5,-91.4235"/>
<polygon fill="#191970" stroke="#191970" points="398.0001,-91.2448 394.5,-81.2449 391.0001,-91.2449 398.0001,-91.2448"/>
</g>
<!-- Node8 -->
<g id="node9" class="node">
<title>Node8</title>
<g id="a_node9"><a xlink:href="../../db/dff/StringHelpers_8h.html" target="_top" xlink:title="Framework/StringHelpers.h">
<polygon fill="none" stroke="#000000" points="449,-62 449,-81 598,-81 598,-62 449,-62"/>
<text text-anchor="middle" x="523.5" y="-69" font-family="Helvetica,sans-Serif" font-size="10.00" fill="#000000">Framework/StringHelpers.h</text>
</a>
</g>
</g>
<!-- Node6&#45;&gt;Node8 -->
<g id="edge8" class="edge">
<title>Node6&#45;&gt;Node8</title>
<path fill="none" stroke="#191970" d="M414.6563,-123.3906C436.051,-113.1908 470.062,-96.9763 494.3702,-85.3875"/>
<polygon fill="#191970" stroke="#191970" points="495.9648,-88.5047 503.4853,-81.0419 492.9524,-82.186 495.9648,-88.5047"/>
</g>
<!-- Node9 -->
<g id="node10" class="node">
<title>Node9</title>
<polygon fill="none" stroke="#bfbfbf" points="498.5,-.5 498.5,-19.5 548.5,-19.5 548.5,-.5 498.5,-.5"/>
<text text-anchor="middle" x="523.5" y="-7.5" font-family="Helvetica,sans-Serif" font-size="10.00" fill="#000000">cstdint</text>
</g>
<!-- Node8&#45;&gt;Node9 -->
<g id="edge9" class="edge">
<title>Node8&#45;&gt;Node9</title>
<path fill="none" stroke="#191970" d="M523.5,-61.8906C523.5,-53.3657 523.5,-40.6392 523.5,-29.9235"/>
<polygon fill="#191970" stroke="#191970" points="527.0001,-29.7448 523.5,-19.7449 520.0001,-29.7449 527.0001,-29.7448"/>
</g>
</g>
</svg>
