<?xml version="1.0" encoding="UTF-8" standalone="no"?>
<!DOCTYPE svg PUBLIC "-//W3C//DTD SVG 1.1//EN"
 "http://www.w3.org/Graphics/SVG/1.1/DTD/svg11.dtd">
<!-- Generated by graphviz version 2.40.1 (20161225.0304)
 -->
<!-- Title: /home/travis/build/AliceO2Group/AliceO2/Analysis/DataModel/src/PIDTOF.cxx Pages: 1 -->
<svg width="410pt" height="240pt"
 viewBox="0.00 0.00 409.63 240.00" xmlns="http://www.w3.org/2000/svg" xmlns:xlink="http://www.w3.org/1999/xlink">
<g id="graph0" class="graph" transform="scale(1 1) rotate(0) translate(4 236)">
<title>/home/travis/build/AliceO2Group/AliceO2/Analysis/DataModel/src/PIDTOF.cxx</title>
<!-- Node0 -->
<g id="node1" class="node">
<title>Node0</title>
<polygon fill="#bfbfbf" stroke="#000000" points="27.1308,-179.5 27.1308,-231.5 161.1308,-231.5 161.1308,-179.5 27.1308,-179.5"/>
<text text-anchor="start" x="35.1308" y="-219.5" font-family="Helvetica,sans-Serif" font-size="10.00" fill="#000000">/home/travis/build</text>
<text text-anchor="start" x="35.1308" y="-208.5" font-family="Helvetica,sans-Serif" font-size="10.00" fill="#000000">/AliceO2Group/AliceO2</text>
<text text-anchor="start" x="35.1308" y="-197.5" font-family="Helvetica,sans-Serif" font-size="10.00" fill="#000000">/Analysis/DataModel/src</text>
<text text-anchor="middle" x="94.1308" y="-186.5" font-family="Helvetica,sans-Serif" font-size="10.00" fill="#000000">/PIDTOF.cxx</text>
</g>
<!-- Node1 -->
<g id="node2" class="node">
<title>Node1</title>
<g id="a_node2"><a xlink:href="../../d9/d66/PIDTOF_8h.html" target="_top" xlink:title="PID/PIDTOF.h">
<polygon fill="none" stroke="#000000" points="54.6308,-123.5 54.6308,-142.5 133.6308,-142.5 133.6308,-123.5 54.6308,-123.5"/>
<text text-anchor="middle" x="94.1308" y="-130.5" font-family="Helvetica,sans-Serif" font-size="10.00" fill="#000000">PID/PIDTOF.h</text>
</a>
</g>
</g>
<!-- Node0&#45;&gt;Node1 -->
<g id="edge1" class="edge">
<title>Node0&#45;&gt;Node1</title>
<path fill="none" stroke="#191970" d="M94.1308,-179.3258C94.1308,-170.5142 94.1308,-160.8397 94.1308,-152.621"/>
<polygon fill="#191970" stroke="#191970" points="97.6309,-152.534 94.1308,-142.534 90.6309,-152.534 97.6309,-152.534"/>
</g>
<!-- Node2 -->
<g id="node3" class="node">
<title>Node2</title>
<polygon fill="none" stroke="#bfbfbf" points="37.6308,-.5 37.6308,-19.5 96.6308,-19.5 96.6308,-.5 37.6308,-.5"/>
<text text-anchor="middle" x="67.1308" y="-7.5" font-family="Helvetica,sans-Serif" font-size="10.00" fill="#000000">Rtypes.h</text>
</g>
<!-- Node1&#45;&gt;Node2 -->
<g id="edge2" class="edge">
<title>Node1&#45;&gt;Node2</title>
<path fill="none" stroke="#191970" d="M56.0332,-123.4497C37.2362,-116.6063 16.256,-105.2734 5.1308,-87 -2.034,-75.2317 -1.0628,-68.3072 5.1308,-56 11.8044,-42.7387 24.31,-32.3415 36.3515,-24.8125"/>
<polygon fill="#191970" stroke="#191970" points="38.4509,-27.6422 45.3649,-19.6143 34.9537,-21.5783 38.4509,-27.6422"/>
</g>
<!-- Node3 -->
<g id="node4" class="node">
<title>Node3</title>
<polygon fill="none" stroke="#bfbfbf" points="14.1308,-62 14.1308,-81 70.1308,-81 70.1308,-62 14.1308,-62"/>
<text text-anchor="middle" x="42.1308" y="-69" font-family="Helvetica,sans-Serif" font-size="10.00" fill="#000000">TMath.h</text>
</g>
<!-- Node1&#45;&gt;Node3 -->
<g id="edge3" class="edge">
<title>Node1&#45;&gt;Node3</title>
<path fill="none" stroke="#191970" d="M86.0058,-123.3906C78.2666,-114.2376 66.432,-100.2409 57.0036,-89.09"/>
<polygon fill="#191970" stroke="#191970" points="59.4997,-86.6213 50.3703,-81.2449 54.1543,-91.1409 59.4997,-86.6213"/>
</g>
<!-- Node4 -->
<g id="node5" class="node">
<title>Node4</title>
<g id="a_node5"><a xlink:href="../../dd/da4/Logger_8h.html" target="_top" xlink:title="Framework/Logger.h">
<polygon fill="none" stroke="#000000" points="88.6308,-62 88.6308,-81 203.6308,-81 203.6308,-62 88.6308,-62"/>
<text text-anchor="middle" x="146.1308" y="-69" font-family="Helvetica,sans-Serif" font-size="10.00" fill="#000000">Framework/Logger.h</text>
</a>
</g>
</g>
<!-- Node1&#45;&gt;Node4 -->
<g id="edge4" class="edge">
<title>Node1&#45;&gt;Node4</title>
<path fill="none" stroke="#191970" d="M102.2558,-123.3906C109.9949,-114.2376 121.8295,-100.2409 131.2579,-89.09"/>
<polygon fill="#191970" stroke="#191970" points="134.1072,-91.1409 137.8912,-81.2449 128.7618,-86.6213 134.1072,-91.1409"/>
</g>
<!-- Node5 -->
<g id="node6" class="node">
<title>Node5</title>
<g id="a_node6"><a xlink:href="../../d5/d08/DataFormats_2Reconstruction_2include_2ReconstructionDataFormats_2PID_8h.html" target="_top" xlink:title="ReconstructionDataFormats\l/PID.h">
<polygon fill="none" stroke="#000000" points="222.1308,-56.5 222.1308,-86.5 374.1308,-86.5 374.1308,-56.5 222.1308,-56.5"/>
<text text-anchor="start" x="230.1308" y="-74.5" font-family="Helvetica,sans-Serif" font-size="10.00" fill="#000000">ReconstructionDataFormats</text>
<text text-anchor="middle" x="298.1308" y="-63.5" font-family="Helvetica,sans-Serif" font-size="10.00" fill="#000000">/PID.h</text>
</a>
</g>
</g>
<!-- Node1&#45;&gt;Node5 -->
<g id="edge5" class="edge">
<title>Node1&#45;&gt;Node5</title>
<path fill="none" stroke="#191970" d="M126.0058,-123.3906C156.0432,-114.3352 201.8062,-100.539 238.5964,-89.4479"/>
<polygon fill="#191970" stroke="#191970" points="239.6626,-92.7821 248.2267,-86.5446 237.6421,-86.08 239.6626,-92.7821"/>
</g>
<!-- Node5&#45;&gt;Node2 -->
<g id="edge6" class="edge">
<title>Node5&#45;&gt;Node2</title>
<path fill="none" stroke="#191970" d="M241.6218,-56.4554C199.7449,-45.3063 143.7252,-30.392 106.5862,-20.5044"/>
<polygon fill="#191970" stroke="#191970" points="107.203,-17.0467 96.6391,-17.8561 105.4021,-23.8111 107.203,-17.0467"/>
</g>
<!-- Node6 -->
<g id="node7" class="node">
<title>Node6</title>
<g id="a_node7"><a xlink:href="../../d3/d9d/PhysicsConstants_8h.html" target="_top" xlink:title="Header to collect physics constants. ">
<polygon fill="none" stroke="#000000" points="194.6308,-.5 194.6308,-19.5 401.6308,-19.5 401.6308,-.5 194.6308,-.5"/>
<text text-anchor="middle" x="298.1308" y="-7.5" font-family="Helvetica,sans-Serif" font-size="10.00" fill="#000000">CommonConstants/PhysicsConstants.h</text>
</a>
</g>
</g>
<!-- Node5&#45;&gt;Node6 -->
<g id="edge7" class="edge">
<title>Node5&#45;&gt;Node6</title>
<path fill="none" stroke="#191970" d="M298.1308,-56.2977C298.1308,-48.3834 298.1308,-38.6043 298.1308,-30.0759"/>
<polygon fill="#191970" stroke="#191970" points="301.6309,-29.8469 298.1308,-19.8469 294.6309,-29.847 301.6309,-29.8469"/>
</g>
</g>
</svg>
