<?xml version="1.0" encoding="UTF-8" standalone="no"?>
<!DOCTYPE svg PUBLIC "-//W3C//DTD SVG 1.1//EN"
 "http://www.w3.org/Graphics/SVG/1.1/DTD/svg11.dtd">
<!-- Generated by graphviz version 2.40.1 (20161225.0304)
 -->
<!-- Title: DTask Pages: 1 -->
<svg width="879pt" height="816pt"
 viewBox="0.00 0.00 879.00 816.00" xmlns="http://www.w3.org/2000/svg" xmlns:xlink="http://www.w3.org/1999/xlink">
<g id="graph0" class="graph" transform="scale(1 1) rotate(0) translate(4 812)">
<title>DTask</title>
<!-- Node1 -->
<g id="node1" class="node">
<title>Node1</title>
<polygon fill="#bfbfbf" stroke="#000000" points="277.5,-.5 277.5,-90.5 350.5,-90.5 350.5,-.5 277.5,-.5"/>
<text text-anchor="middle" x="314" y="-78.5" font-family="Helvetica,sans-Serif" font-size="10.00" fill="#000000">DTask</text>
<polyline fill="none" stroke="#000000" points="277.5,-71.5 350.5,-71.5 "/>
<text text-anchor="middle" x="314" y="-59.5" font-family="Helvetica,sans-Serif" font-size="10.00" fill="#000000"> </text>
<polyline fill="none" stroke="#000000" points="277.5,-52.5 350.5,-52.5 "/>
<text text-anchor="start" x="285.5" y="-40.5" font-family="Helvetica,sans-Serif" font-size="10.00" fill="#000000">+ process()</text>
<text text-anchor="start" x="285.5" y="-29.5" font-family="Helvetica,sans-Serif" font-size="10.00" fill="#000000">+ init()</text>
<text text-anchor="start" x="285.5" y="-18.5" font-family="Helvetica,sans-Serif" font-size="10.00" fill="#000000">+ process()</text>
<text text-anchor="start" x="285.5" y="-7.5" font-family="Helvetica,sans-Serif" font-size="10.00" fill="#000000">+ process()</text>
</g>
<!-- Node2 -->
<g id="node2" class="node">
<title>Node2</title>
<g id="a_node2"><a xlink:href="../../d4/d79/structo2_1_1framework_1_1OutputObj.html" target="_top" xlink:title="{o2::framework::OutputObj\l\&lt; TList \&gt;\n||+ spec()\l+ OutputObj()\l+ OutputObj()\l+ setObject()\l+ setObject()\l+ setObject()\l+ setHash()\l+ operator&#45;\&gt;()\l+ operator*()\l+ ref()\l}">
<polygon fill="none" stroke="#000000" points="242.5,-138.5 242.5,-305.5 385.5,-305.5 385.5,-138.5 242.5,-138.5"/>
<text text-anchor="start" x="250.5" y="-293.5" font-family="Helvetica,sans-Serif" font-size="10.00" fill="#000000">o2::framework::OutputObj</text>
<text text-anchor="middle" x="314" y="-282.5" font-family="Helvetica,sans-Serif" font-size="10.00" fill="#000000">&lt; TList &gt;</text>
<polyline fill="none" stroke="#000000" points="242.5,-275.5 385.5,-275.5 "/>
<text text-anchor="middle" x="314" y="-263.5" font-family="Helvetica,sans-Serif" font-size="10.00" fill="#000000"> </text>
<polyline fill="none" stroke="#000000" points="242.5,-256.5 385.5,-256.5 "/>
<text text-anchor="start" x="250.5" y="-244.5" font-family="Helvetica,sans-Serif" font-size="10.00" fill="#000000">+ spec()</text>
<text text-anchor="start" x="250.5" y="-233.5" font-family="Helvetica,sans-Serif" font-size="10.00" fill="#000000">+ OutputObj()</text>
<text text-anchor="start" x="250.5" y="-222.5" font-family="Helvetica,sans-Serif" font-size="10.00" fill="#000000">+ OutputObj()</text>
<text text-anchor="start" x="250.5" y="-211.5" font-family="Helvetica,sans-Serif" font-size="10.00" fill="#000000">+ setObject()</text>
<text text-anchor="start" x="250.5" y="-200.5" font-family="Helvetica,sans-Serif" font-size="10.00" fill="#000000">+ setObject()</text>
<text text-anchor="start" x="250.5" y="-189.5" font-family="Helvetica,sans-Serif" font-size="10.00" fill="#000000">+ setObject()</text>
<text text-anchor="start" x="250.5" y="-178.5" font-family="Helvetica,sans-Serif" font-size="10.00" fill="#000000">+ setHash()</text>
<text text-anchor="start" x="250.5" y="-167.5" font-family="Helvetica,sans-Serif" font-size="10.00" fill="#000000">+ operator&#45;&gt;()</text>
<text text-anchor="start" x="250.5" y="-156.5" font-family="Helvetica,sans-Serif" font-size="10.00" fill="#000000">+ operator*()</text>
<text text-anchor="start" x="250.5" y="-145.5" font-family="Helvetica,sans-Serif" font-size="10.00" fill="#000000">+ ref()</text>
</a>
</g>
</g>
<!-- Node2&#45;&gt;Node1 -->
<g id="edge1" class="edge">
<title>Node2&#45;&gt;Node1</title>
<path fill="none" stroke="#404040" d="M314,-138.4019C314,-126.4902 314,-114.4651 314,-103.198"/>
<polygon fill="none" stroke="#404040" points="314.0001,-102.8457 310,-96.8457 314,-90.8457 318,-96.8456 314.0001,-102.8457"/>
<text text-anchor="middle" x="327.5" y="-112" font-family="Helvetica,sans-Serif" font-size="10.00" fill="#000000"> +list</text>
</g>
<!-- Node3 -->
<g id="node3" class="node">
<title>Node3</title>
<polygon fill="none" stroke="#bfbfbf" points="0,-403 0,-460 114,-460 114,-403 0,-403"/>
<text text-anchor="middle" x="57" y="-448" font-family="Helvetica,sans-Serif" font-size="10.00" fill="#000000">shared_ptr&lt; TList &gt;</text>
<polyline fill="none" stroke="#bfbfbf" points="0,-441 114,-441 "/>
<text text-anchor="middle" x="57" y="-429" font-family="Helvetica,sans-Serif" font-size="10.00" fill="#000000"> </text>
<polyline fill="none" stroke="#bfbfbf" points="0,-422 114,-422 "/>
<text text-anchor="middle" x="57" y="-410" font-family="Helvetica,sans-Serif" font-size="10.00" fill="#000000"> </text>
</g>
<!-- Node3&#45;&gt;Node2 -->
<g id="edge2" class="edge">
<title>Node3&#45;&gt;Node2</title>
<path fill="none" stroke="#404040" d="M58.1134,-402.8118C60.4499,-379.1667 67.1699,-346.0492 86,-324 122.9428,-280.7417 181.8946,-255.0334 230.5982,-240.2478"/>
<polygon fill="none" stroke="#404040" points="230.8958,-240.1612 235.5398,-234.6446 242.4183,-236.8095 237.7743,-242.3262 230.8958,-240.1612"/>
<text text-anchor="middle" x="107" y="-327" font-family="Helvetica,sans-Serif" font-size="10.00" fill="#000000"> +object</text>
</g>
<!-- Node4 -->
<g id="node4" class="node">
<title>Node4</title>
<polygon fill="none" stroke="#bfbfbf" points="244.5,-585 244.5,-642 383.5,-642 383.5,-585 244.5,-585"/>
<text text-anchor="middle" x="314" y="-630" font-family="Helvetica,sans-Serif" font-size="10.00" fill="#000000">OutputObjHandlingPolicy</text>
<polyline fill="none" stroke="#bfbfbf" points="244.5,-623 383.5,-623 "/>
<text text-anchor="middle" x="314" y="-611" font-family="Helvetica,sans-Serif" font-size="10.00" fill="#000000"> </text>
<polyline fill="none" stroke="#bfbfbf" points="244.5,-604 383.5,-604 "/>
<text text-anchor="middle" x="314" y="-592" font-family="Helvetica,sans-Serif" font-size="10.00" fill="#000000"> </text>
</g>
<!-- Node4&#45;&gt;Node2 -->
<g id="edge3" class="edge">
<title>Node4&#45;&gt;Node2</title>
<path fill="none" stroke="#404040" d="M314,-584.7121C314,-529.2251 314,-405.2313 314,-317.7164"/>
<polygon fill="none" stroke="#404040" points="314.0001,-317.6207 310,-311.6207 314,-305.6207 318,-311.6207 314.0001,-317.6207"/>
<text text-anchor="middle" x="334.5" y="-429" font-family="Helvetica,sans-Serif" font-size="10.00" fill="#000000"> +policy</text>
</g>
<!-- Node11 -->
<g id="node11" class="node">
<title>Node11</title>
<g id="a_node11"><a xlink:href="../../d4/d79/structo2_1_1framework_1_1OutputObj.html" target="_top" xlink:title="{o2::framework::OutputObj\&lt; T \&gt;\n||+ OutputObj()\l+ OutputObj()\l+ setObject()\l+ setObject()\l+ setObject()\l+ setHash()\l+ spec()\l+ operator&#45;\&gt;()\l+ operator*()\l+ ref()\l}">
<polygon fill="none" stroke="#000000" points="373,-353.5 373,-509.5 545,-509.5 545,-353.5 373,-353.5"/>
<text text-anchor="middle" x="459" y="-497.5" font-family="Helvetica,sans-Serif" font-size="10.00" fill="#000000">o2::framework::OutputObj&lt; T &gt;</text>
<polyline fill="none" stroke="#000000" points="373,-490.5 545,-490.5 "/>
<text text-anchor="middle" x="459" y="-478.5" font-family="Helvetica,sans-Serif" font-size="10.00" fill="#000000"> </text>
<polyline fill="none" stroke="#000000" points="373,-471.5 545,-471.5 "/>
<text text-anchor="start" x="381" y="-459.5" font-family="Helvetica,sans-Serif" font-size="10.00" fill="#000000">+ OutputObj()</text>
<text text-anchor="start" x="381" y="-448.5" font-family="Helvetica,sans-Serif" font-size="10.00" fill="#000000">+ OutputObj()</text>
<text text-anchor="start" x="381" y="-437.5" font-family="Helvetica,sans-Serif" font-size="10.00" fill="#000000">+ setObject()</text>
<text text-anchor="start" x="381" y="-426.5" font-family="Helvetica,sans-Serif" font-size="10.00" fill="#000000">+ setObject()</text>
<text text-anchor="start" x="381" y="-415.5" font-family="Helvetica,sans-Serif" font-size="10.00" fill="#000000">+ setObject()</text>
<text text-anchor="start" x="381" y="-404.5" font-family="Helvetica,sans-Serif" font-size="10.00" fill="#000000">+ setHash()</text>
<text text-anchor="start" x="381" y="-393.5" font-family="Helvetica,sans-Serif" font-size="10.00" fill="#000000">+ spec()</text>
<text text-anchor="start" x="381" y="-382.5" font-family="Helvetica,sans-Serif" font-size="10.00" fill="#000000">+ operator&#45;&gt;()</text>
<text text-anchor="start" x="381" y="-371.5" font-family="Helvetica,sans-Serif" font-size="10.00" fill="#000000">+ operator*()</text>
<text text-anchor="start" x="381" y="-360.5" font-family="Helvetica,sans-Serif" font-size="10.00" fill="#000000">+ ref()</text>
</a>
</g>
</g>
<!-- Node4&#45;&gt;Node11 -->
<g id="edge13" class="edge">
<title>Node4&#45;&gt;Node11</title>
<path fill="none" stroke="#404040" d="M336.9757,-584.6616C351.2162,-566.7873 370.3397,-542.784 389.2172,-519.0894"/>
<polygon fill="none" stroke="#404040" points="389.2324,-519.0704 389.8426,-511.8851 396.7099,-509.6849 396.0996,-516.8701 389.2324,-519.0704"/>
<text text-anchor="middle" x="398.5" y="-531" font-family="Helvetica,sans-Serif" font-size="10.00" fill="#000000"> +policy</text>
</g>
<!-- Node5 -->
<g id="node5" class="node">
<title>Node5</title>
<g id="a_node5"><a xlink:href="../../d3/d87/classuint32__t.html" target="_top" xlink:title="{uint32_t\n||}">
<polygon fill="none" stroke="#000000" points="170,-585 170,-642 226,-642 226,-585 170,-585"/>
<text text-anchor="middle" x="198" y="-630" font-family="Helvetica,sans-Serif" font-size="10.00" fill="#000000">uint32_t</text>
<polyline fill="none" stroke="#000000" points="170,-623 226,-623 "/>
<text text-anchor="middle" x="198" y="-611" font-family="Helvetica,sans-Serif" font-size="10.00" fill="#000000"> </text>
<polyline fill="none" stroke="#000000" points="170,-604 226,-604 "/>
<text text-anchor="middle" x="198" y="-592" font-family="Helvetica,sans-Serif" font-size="10.00" fill="#000000"> </text>
</a>
</g>
</g>
<!-- Node5&#45;&gt;Node2 -->
<g id="edge4" class="edge">
<title>Node5&#45;&gt;Node2</title>
<path fill="none" stroke="#404040" d="M199.693,-584.9731C203.2683,-536.2087 213.7311,-434.2204 242,-353 246.2127,-340.8964 251.4793,-328.5878 257.2364,-316.6036"/>
<polygon fill="none" stroke="#404040" points="257.311,-316.4533 256.3951,-309.3006 262.6454,-305.7042 263.5612,-312.8569 257.311,-316.4533"/>
<text text-anchor="middle" x="276" y="-429" font-family="Helvetica,sans-Serif" font-size="10.00" fill="#000000"> +mTaskHash</text>
</g>
<!-- Node5&#45;&gt;Node11 -->
<g id="edge12" class="edge">
<title>Node5&#45;&gt;Node11</title>
<path fill="none" stroke="#404040" d="M212.3033,-584.8319C218.2703,-575.0301 225.9405,-564.6268 235,-557 259.8225,-536.103 271.6004,-539.3449 302,-528 326.8897,-518.7114 335.506,-522.402 359,-510 360.0034,-509.4703 361.0068,-508.9303 362.0098,-508.3805"/>
<polygon fill="none" stroke="#404040" points="362.3521,-508.1813 365.5258,-501.7062 372.7236,-502.1454 369.5498,-508.6205 362.3521,-508.1813"/>
<text text-anchor="middle" x="336" y="-531" font-family="Helvetica,sans-Serif" font-size="10.00" fill="#000000"> +mTaskHash</text>
</g>
<!-- Node6 -->
<g id="node6" class="node">
<title>Node6</title>
<polygon fill="none" stroke="#bfbfbf" points="520.5,-734 520.5,-791 549.5,-791 549.5,-734 520.5,-734"/>
<text text-anchor="middle" x="535" y="-779" font-family="Helvetica,sans-Serif" font-size="10.00" fill="#000000">int</text>
<polyline fill="none" stroke="#bfbfbf" points="520.5,-772 549.5,-772 "/>
<text text-anchor="middle" x="535" y="-760" font-family="Helvetica,sans-Serif" font-size="10.00" fill="#000000"> </text>
<polyline fill="none" stroke="#bfbfbf" points="520.5,-753 549.5,-753 "/>
<text text-anchor="middle" x="535" y="-741" font-family="Helvetica,sans-Serif" font-size="10.00" fill="#000000"> </text>
</g>
<!-- Node6&#45;&gt;Node2 -->
<g id="edge5" class="edge">
<title>Node6&#45;&gt;Node2</title>
<path fill="none" stroke="#404040" d="M520.2498,-761.2126C456.6447,-755.3296 206.9708,-728.7257 161,-670 73.3602,-558.0439 140.6766,-480.2991 204,-353 212.246,-336.4231 222.9995,-320.1509 234.5501,-305.0181"/>
<polygon fill="none" stroke="#404040" points="234.8177,-304.678 235.3837,-297.4891 242.2372,-295.2466 241.6713,-302.4354 234.8177,-304.678"/>
<text text-anchor="middle" x="142" y="-531" font-family="Helvetica,sans-Serif" font-size="10.00" fill="#000000"> +label</text>
</g>
<!-- Node8 -->
<g id="node8" class="node">
<title>Node8</title>
<g id="a_node8"><a xlink:href="../../da/d96/structo2_1_1framework_1_1InputSpec.html" target="_top" xlink:title="{o2::framework::InputSpec\n||+ InputSpec()\l+ InputSpec()\l+ InputSpec()\l+ InputSpec()\l+ InputSpec()\l+ operator==()\l}">
<polygon fill="none" stroke="#000000" points="645,-557.5 645,-669.5 787,-669.5 787,-557.5 645,-557.5"/>
<text text-anchor="middle" x="716" y="-657.5" font-family="Helvetica,sans-Serif" font-size="10.00" fill="#000000">o2::framework::InputSpec</text>
<polyline fill="none" stroke="#000000" points="645,-650.5 787,-650.5 "/>
<text text-anchor="middle" x="716" y="-638.5" font-family="Helvetica,sans-Serif" font-size="10.00" fill="#000000"> </text>
<polyline fill="none" stroke="#000000" points="645,-631.5 787,-631.5 "/>
<text text-anchor="start" x="653" y="-619.5" font-family="Helvetica,sans-Serif" font-size="10.00" fill="#000000">+ InputSpec()</text>
<text text-anchor="start" x="653" y="-608.5" font-family="Helvetica,sans-Serif" font-size="10.00" fill="#000000">+ InputSpec()</text>
<text text-anchor="start" x="653" y="-597.5" font-family="Helvetica,sans-Serif" font-size="10.00" fill="#000000">+ InputSpec()</text>
<text text-anchor="start" x="653" y="-586.5" font-family="Helvetica,sans-Serif" font-size="10.00" fill="#000000">+ InputSpec()</text>
<text text-anchor="start" x="653" y="-575.5" font-family="Helvetica,sans-Serif" font-size="10.00" fill="#000000">+ InputSpec()</text>
<text text-anchor="start" x="653" y="-564.5" font-family="Helvetica,sans-Serif" font-size="10.00" fill="#000000">+ operator==()</text>
</a>
</g>
</g>
<!-- Node6&#45;&gt;Node8 -->
<g id="edge10" class="edge">
<title>Node6&#45;&gt;Node8</title>
<path fill="none" stroke="#404040" d="M549.506,-750.5586C568.9058,-734.5886 604.7473,-705.0837 638.2201,-677.5287"/>
<polygon fill="none" stroke="#404040" points="638.3181,-677.4481 640.4082,-670.5465 647.5827,-669.8214 645.4927,-676.723 638.3181,-677.4481"/>
<text text-anchor="middle" x="649" y="-691" font-family="Helvetica,sans-Serif" font-size="10.00" fill="#000000"> +binding</text>
</g>
<!-- Node6&#45;&gt;Node11 -->
<g id="edge14" class="edge">
<title>Node6&#45;&gt;Node11</title>
<path fill="none" stroke="#404040" d="M533.1829,-733.8483C530.1719,-693.7675 522.8344,-618.9194 507,-557 503.978,-545.1826 500.1879,-532.9569 496.0697,-520.9826"/>
<polygon fill="none" stroke="#404040" points="496.0444,-520.9112 490.2696,-516.5924 492.035,-509.6008 497.8098,-513.9195 496.0444,-520.9112"/>
<text text-anchor="middle" x="544" y="-611" font-family="Helvetica,sans-Serif" font-size="10.00" fill="#000000"> +label</text>
</g>
<!-- Node7 -->
<g id="node7" class="node">
<title>Node7</title>
<polygon fill="none" stroke="#bfbfbf" points="589,-585 589,-642 627,-642 627,-585 589,-585"/>
<text text-anchor="middle" x="608" y="-630" font-family="Helvetica,sans-Serif" font-size="10.00" fill="#000000">bool</text>
<polyline fill="none" stroke="#bfbfbf" points="589,-623 627,-623 "/>
<text text-anchor="middle" x="608" y="-611" font-family="Helvetica,sans-Serif" font-size="10.00" fill="#000000"> </text>
<polyline fill="none" stroke="#bfbfbf" points="589,-604 627,-604 "/>
<text text-anchor="middle" x="608" y="-592" font-family="Helvetica,sans-Serif" font-size="10.00" fill="#000000"> </text>
</g>
<!-- Node7&#45;&gt;Node2 -->
<g id="edge6" class="edge">
<title>Node7&#45;&gt;Node2</title>
<path fill="none" stroke="#404040" d="M609.9822,-584.9693C612.044,-532.9905 609.1082,-421.887 554,-353 513.8726,-302.8395 449.1081,-269.105 396.9649,-248.4467"/>
<polygon fill="none" stroke="#404040" points="396.9032,-248.423 389.8664,-249.9987 385.7054,-244.1091 392.7423,-242.5335 396.9032,-248.423"/>
<text text-anchor="middle" x="638" y="-429" font-family="Helvetica,sans-Serif" font-size="10.00" fill="#000000"> +isdangling</text>
</g>
<!-- Node7&#45;&gt;Node11 -->
<g id="edge16" class="edge">
<title>Node7&#45;&gt;Node11</title>
<path fill="none" stroke="#404040" d="M595.2506,-584.9446C589.9672,-575.2664 583.1492,-564.914 575,-557 563.015,-545.3608 554.7096,-549.8433 542,-539 534.811,-532.8666 527.8386,-526.0189 521.1913,-518.8308"/>
<polygon fill="none" stroke="#404040" points="520.93,-518.5371 513.9533,-516.7135 512.9533,-509.572 519.93,-511.3957 520.93,-518.5371"/>
<text text-anchor="middle" x="573" y="-531" font-family="Helvetica,sans-Serif" font-size="10.00" fill="#000000"> +isdangling</text>
</g>
<!-- Node8&#45;&gt;Node2 -->
<g id="edge7" class="edge">
<title>Node8&#45;&gt;Node2</title>
<path fill="none" stroke="#404040" d="M722.0218,-557.3148C725.0401,-499.5726 720.4692,-410.2522 673,-353 604.8894,-270.8524 480.6535,-240.2178 397.7029,-228.7936"/>
<polygon fill="none" stroke="#404040" points="397.6754,-228.7902 391.21,-231.9835 385.7755,-227.2437 392.241,-224.0503 397.6754,-228.7902"/>
<text text-anchor="middle" x="739" y="-429" font-family="Helvetica,sans-Serif" font-size="10.00" fill="#000000"> +spec</text>
</g>
<!-- Node8&#45;&gt;Node11 -->
<g id="edge17" class="edge">
<title>Node8&#45;&gt;Node11</title>
<path fill="none" stroke="#404040" d="M647.029,-557.3198C634.2168,-547.3374 620.8258,-537.1988 608,-528 591.2517,-515.988 573.0858,-503.6666 555.3859,-492.017"/>
<polygon fill="none" stroke="#404040" points="555.0741,-491.8131 547.8632,-491.8752 545.0325,-485.243 552.2433,-485.1808 555.0741,-491.8131"/>
<text text-anchor="middle" x="637" y="-531" font-family="Helvetica,sans-Serif" font-size="10.00" fill="#000000"> +spec</text>
</g>
<!-- Node9 -->
<g id="node9" class="node">
<title>Node9</title>
<polygon fill="none" stroke="#bfbfbf" points="783,-734 783,-791 871,-791 871,-734 783,-734"/>
<text text-anchor="middle" x="827" y="-779" font-family="Helvetica,sans-Serif" font-size="10.00" fill="#000000">enum Lifetime</text>
<polyline fill="none" stroke="#bfbfbf" points="783,-772 871,-772 "/>
<text text-anchor="middle" x="827" y="-760" font-family="Helvetica,sans-Serif" font-size="10.00" fill="#000000"> </text>
<polyline fill="none" stroke="#bfbfbf" points="783,-753 871,-753 "/>
<text text-anchor="middle" x="827" y="-741" font-family="Helvetica,sans-Serif" font-size="10.00" fill="#000000"> </text>
</g>
<!-- Node9&#45;&gt;Node8 -->
<g id="edge8" class="edge">
<title>Node9&#45;&gt;Node8</title>
<path fill="none" stroke="#404040" d="M805.5981,-733.7713C794.0639,-718.2885 779.3218,-698.4995 765.1409,-679.4639"/>
<polygon fill="none" stroke="#404040" points="764.9653,-679.2281 758.1731,-676.8062 757.7963,-669.6049 764.5885,-672.0269 764.9653,-679.2281"/>
<text text-anchor="middle" x="803" y="-691" font-family="Helvetica,sans-Serif" font-size="10.00" fill="#000000"> +lifetime</text>
</g>
<!-- Node10 -->
<g id="node10" class="node">
<title>Node10</title>
<polygon fill="none" stroke="#bfbfbf" points="601,-717.5 601,-807.5 765,-807.5 765,-717.5 601,-717.5"/>
<text text-anchor="start" x="609" y="-795.5" font-family="Helvetica,sans-Serif" font-size="10.00" fill="#000000">variant&lt; o2::framework</text>
<text text-anchor="start" x="609" y="-784.5" font-family="Helvetica,sans-Serif" font-size="10.00" fill="#000000">::ConcreteDataMatcher,</text>
<text text-anchor="start" x="609" y="-773.5" font-family="Helvetica,sans-Serif" font-size="10.00" fill="#000000"> o2::framework::data_matcher</text>
<text text-anchor="middle" x="683" y="-762.5" font-family="Helvetica,sans-Serif" font-size="10.00" fill="#000000">::DataDescriptorMatcher &gt;</text>
<polyline fill="none" stroke="#bfbfbf" points="601,-755.5 765,-755.5 "/>
<text text-anchor="middle" x="683" y="-743.5" font-family="Helvetica,sans-Serif" font-size="10.00" fill="#000000"> </text>
<polyline fill="none" stroke="#bfbfbf" points="601,-736.5 765,-736.5 "/>
<text text-anchor="middle" x="683" y="-724.5" font-family="Helvetica,sans-Serif" font-size="10.00" fill="#000000"> </text>
</g>
<!-- Node10&#45;&gt;Node8 -->
<g id="edge9" class="edge">
<title>Node10&#45;&gt;Node8</title>
<path fill="none" stroke="#404040" d="M692.9906,-717.3907C695.4947,-706.0845 698.237,-693.7027 700.9282,-681.5514"/>
<polygon fill="none" stroke="#404040" points="700.9968,-681.2414 698.3889,-674.5184 703.5917,-669.5254 706.1996,-676.2484 700.9968,-681.2414"/>
<text text-anchor="middle" x="725" y="-691" font-family="Helvetica,sans-Serif" font-size="10.00" fill="#000000"> +matcher</text>
</g>
<!-- Node11&#45;&gt;Node2 -->
<g id="edge11" class="edge">
<title>Node11&#45;&gt;Node2</title>
<path fill="none" stroke="#ffa500" d="M399.1404,-345.0133C390.1446,-332.0158 380.8808,-318.6313 371.9264,-305.6937"/>
<polygon fill="#ffa500" stroke="#ffa500" points="396.4383,-347.2592 405.0074,-353.4899 402.1942,-343.2754 396.4383,-347.2592"/>
<text text-anchor="middle" x="415.5" y="-327" font-family="Helvetica,sans-Serif" font-size="10.00" fill="#000000"> &lt; TList &gt;</text>
</g>
<!-- Node12 -->
<g id="node12" class="node">
<title>Node12</title>
<polygon fill="none" stroke="#bfbfbf" points="401.5,-585 401.5,-642 498.5,-642 498.5,-585 401.5,-585"/>
<text text-anchor="middle" x="450" y="-630" font-family="Helvetica,sans-Serif" font-size="10.00" fill="#000000">shared_ptr&lt; T &gt;</text>
<polyline fill="none" stroke="#bfbfbf" points="401.5,-623 498.5,-623 "/>
<text text-anchor="middle" x="450" y="-611" font-family="Helvetica,sans-Serif" font-size="10.00" fill="#000000"> </text>
<polyline fill="none" stroke="#bfbfbf" points="401.5,-604 498.5,-604 "/>
<text text-anchor="middle" x="450" y="-592" font-family="Helvetica,sans-Serif" font-size="10.00" fill="#000000"> </text>
</g>
<!-- Node12&#45;&gt;Node11 -->
<g id="edge15" class="edge">
<title>Node12&#45;&gt;Node11</title>
<path fill="none" stroke="#404040" d="M450.3175,-584.9875C450.59,-568.3584 451.09,-546.9834 452,-528 452.0981,-525.9525 452.2028,-523.881 452.3132,-521.7923"/>
<polygon fill="none" stroke="#404040" points="452.32,-521.6716 448.6675,-515.454 453.002,-509.691 456.6545,-515.9086 452.32,-521.6716"/>
<text text-anchor="middle" x="473" y="-531" font-family="Helvetica,sans-Serif" font-size="10.00" fill="#000000"> +object</text>
</g>
</g>
</svg>
