<?xml version="1.0" encoding="UTF-8" standalone="no"?>
<!DOCTYPE svg PUBLIC "-//W3C//DTD SVG 1.1//EN"
 "http://www.w3.org/Graphics/SVG/1.1/DTD/svg11.dtd">
<!-- Generated by graphviz version 2.40.1 (20161225.0304)
 -->
<!-- Title: o2::mch::Digit::Time Pages: 1 -->
<svg width="270pt" height="204pt"
 viewBox="0.00 0.00 269.50 204.00" xmlns="http://www.w3.org/2000/svg" xmlns:xlink="http://www.w3.org/1999/xlink">
<g id="graph0" class="graph" transform="scale(1 1) rotate(0) translate(4 200)">
<title>o2::mch::Digit::Time</title>
<!-- Node1 -->
<g id="node1" class="node">
<title>Node1</title>
<polygon fill="#bfbfbf" stroke="#000000" points="44,-.5 44,-57.5 160,-57.5 160,-.5 44,-.5"/>
<text text-anchor="middle" x="102" y="-45.5" font-family="Helvetica,sans-Serif" font-size="10.00" fill="#000000">o2::mch::Digit::Time</text>
<polyline fill="none" stroke="#000000" points="44,-38.5 160,-38.5 "/>
<text text-anchor="middle" x="102" y="-26.5" font-family="Helvetica,sans-Serif" font-size="10.00" fill="#000000"> </text>
<polyline fill="none" stroke="#000000" points="44,-19.5 160,-19.5 "/>
<text text-anchor="start" x="52" y="-7.5" font-family="Helvetica,sans-Serif" font-size="10.00" fill="#000000">+ getBXTime()</text>
</g>
<!-- Node2 -->
<g id="node2" class="node">
<title>Node2</title>
<g id="a_node2"><a xlink:href="../../d6/d30/classuint64__t.html" target="_top" xlink:title="{uint64_t\n||}">
<polygon fill="none" stroke="#000000" points="0,-138.5 0,-195.5 56,-195.5 56,-138.5 0,-138.5"/>
<text text-anchor="middle" x="28" y="-183.5" font-family="Helvetica,sans-Serif" font-size="10.00" fill="#000000">uint64_t</text>
<polyline fill="none" stroke="#000000" points="0,-176.5 56,-176.5 "/>
<text text-anchor="middle" x="28" y="-164.5" font-family="Helvetica,sans-Serif" font-size="10.00" fill="#000000"> </text>
<polyline fill="none" stroke="#000000" points="0,-157.5 56,-157.5 "/>
<text text-anchor="middle" x="28" y="-145.5" font-family="Helvetica,sans-Serif" font-size="10.00" fill="#000000"> </text>
</a>
</g>
</g>
<!-- Node2&#45;&gt;Node1 -->
<g id="edge1" class="edge">
<title>Node2&#45;&gt;Node1</title>
<path fill="none" stroke="#404040" d="M36.9163,-138.0937C43.1984,-119.6737 52.524,-95.6626 64,-76 65.6537,-73.1666 67.4703,-70.3242 69.3853,-67.5173"/>
<polygon fill="none" stroke="#404040" points="69.5592,-67.2791 69.867,-60.0746 76.6358,-57.5877 76.328,-64.7922 69.5592,-67.2791"/>
<text text-anchor="middle" x="81" y="-95.5" font-family="Helvetica,sans-Serif" font-size="10.00" fill="#000000"> +time</text>
</g>
<!-- Node3 -->
<g id="node3" class="node">
<title>Node3</title>
<g id="a_node3"><a xlink:href="../../d3/d87/classuint32__t.html" target="_top" xlink:title="{uint32_t\n||}">
<polygon fill="none" stroke="#000000" points="74,-138.5 74,-195.5 130,-195.5 130,-138.5 74,-138.5"/>
<text text-anchor="middle" x="102" y="-183.5" font-family="Helvetica,sans-Serif" font-size="10.00" fill="#000000">uint32_t</text>
<polyline fill="none" stroke="#000000" points="74,-176.5 130,-176.5 "/>
<text text-anchor="middle" x="102" y="-164.5" font-family="Helvetica,sans-Serif" font-size="10.00" fill="#000000"> </text>
<polyline fill="none" stroke="#000000" points="74,-157.5 130,-157.5 "/>
<text text-anchor="middle" x="102" y="-145.5" font-family="Helvetica,sans-Serif" font-size="10.00" fill="#000000"> </text>
</a>
</g>
</g>
<!-- Node3&#45;&gt;Node1 -->
<g id="edge2" class="edge">
<title>Node3&#45;&gt;Node1</title>
<path fill="none" stroke="#404040" d="M102,-138.4063C102,-118.5153 102,-91.7072 102,-69.6065"/>
<polygon fill="none" stroke="#404040" points="102.0001,-69.5571 98,-63.5571 102,-57.5571 106,-63.557 102.0001,-69.5571"/>
<text text-anchor="middle" x="142" y="-112" font-family="Helvetica,sans-Serif" font-size="10.00" fill="#000000"> +reserved</text>
<text text-anchor="middle" x="142" y="-101" font-family="Helvetica,sans-Serif" font-size="10.00" fill="#000000">+orbit</text>
<text text-anchor="middle" x="142" y="-90" font-family="Helvetica,sans-Serif" font-size="10.00" fill="#000000">+sampaTime</text>
<text text-anchor="middle" x="142" y="-79" font-family="Helvetica,sans-Serif" font-size="10.00" fill="#000000">+bunchCrossing</text>
</g>
<!-- Node4 -->
<g id="node4" class="node">
<title>Node4</title>
<polygon fill="none" stroke="#bfbfbf" points="148.5,-138.5 148.5,-195.5 261.5,-195.5 261.5,-138.5 148.5,-138.5"/>
<text text-anchor="middle" x="205" y="-183.5" font-family="Helvetica,sans-Serif" font-size="10.00" fill="#000000">anonymous:+@230</text>
<polyline fill="none" stroke="#bfbfbf" points="148.5,-176.5 261.5,-176.5 "/>
<text text-anchor="middle" x="205" y="-164.5" font-family="Helvetica,sans-Serif" font-size="10.00" fill="#000000"> </text>
<polyline fill="none" stroke="#bfbfbf" points="148.5,-157.5 261.5,-157.5 "/>
<text text-anchor="middle" x="205" y="-145.5" font-family="Helvetica,sans-Serif" font-size="10.00" fill="#000000"> </text>
</g>
<!-- Node4&#45;&gt;Node1 -->
<g id="edge3" class="edge">
<title>Node4&#45;&gt;Node1</title>
<path fill="none" stroke="#404040" d="M203.8372,-138.279C201.7602,-119.0153 196.4153,-93.9762 183,-76 179.2669,-70.9977 174.8318,-66.4388 169.9893,-62.3027"/>
<polygon fill="none" stroke="#404040" points="169.7882,-62.1491 162.592,-61.6855 160.2521,-54.8646 167.4483,-55.3281 169.7882,-62.1491"/>
<text text-anchor="middle" x="220" y="-95.5" font-family="Helvetica,sans-Serif" font-size="10.00" fill="#000000"> +@230</text>
</g>
</g>
</svg>
