<?xml version="1.0" encoding="UTF-8" standalone="no"?>
<!DOCTYPE svg PUBLIC "-//W3C//DTD SVG 1.1//EN"
 "http://www.w3.org/Graphics/SVG/1.1/DTD/svg11.dtd">
<!-- Generated by graphviz version 2.40.1 (20161225.0304)
 -->
<!-- Title: /home/travis/build/AliceO2Group/AliceO2/DataFormats/Detectors/Common/include/DetectorsCommonDataFormats/EncodedBlocks.h Pages: 1 -->
<svg width="2155pt" height="361pt"
 viewBox="0.00 0.00 2154.50 361.00" xmlns="http://www.w3.org/2000/svg" xmlns:xlink="http://www.w3.org/1999/xlink">
<g id="graph0" class="graph" transform="scale(1 1) rotate(0) translate(4 357)">
<title>/home/travis/build/AliceO2Group/AliceO2/DataFormats/Detectors/Common/include/DetectorsCommonDataFormats/EncodedBlocks.h</title>
<!-- Node30 -->
<g id="node1" class="node">
<title>Node30</title>
<polygon fill="#bfbfbf" stroke="#000000" points="688,-289.5 688,-352.5 885,-352.5 885,-289.5 688,-289.5"/>
<text text-anchor="start" x="696" y="-340.5" font-family="Helvetica,sans-Serif" font-size="10.00" fill="#000000">/home/travis/build</text>
<text text-anchor="start" x="696" y="-329.5" font-family="Helvetica,sans-Serif" font-size="10.00" fill="#000000">/AliceO2Group/AliceO2</text>
<text text-anchor="start" x="696" y="-318.5" font-family="Helvetica,sans-Serif" font-size="10.00" fill="#000000">/DataFormats/Detectors</text>
<text text-anchor="start" x="696" y="-307.5" font-family="Helvetica,sans-Serif" font-size="10.00" fill="#000000">/Common/include/DetectorsCommon</text>
<text text-anchor="middle" x="786.5" y="-296.5" font-family="Helvetica,sans-Serif" font-size="10.00" fill="#000000">DataFormats/EncodedBlocks.h</text>
</g>
<!-- Node31 -->
<g id="node2" class="node">
<title>Node31</title>
<g id="a_node2"><a xlink:href="../../d2/dd6/EncodedBlocks_8cxx.html" target="_top" xlink:title="/home/travis/build\l/AliceO2Group/AliceO2\l/DataFormats/Detectors\l/Common/src/EncodedBlocks.cxx">
<polygon fill="none" stroke="#000000" points="297.5,-195 297.5,-247 475.5,-247 475.5,-195 297.5,-195"/>
<text text-anchor="start" x="305.5" y="-235" font-family="Helvetica,sans-Serif" font-size="10.00" fill="#000000">/home/travis/build</text>
<text text-anchor="start" x="305.5" y="-224" font-family="Helvetica,sans-Serif" font-size="10.00" fill="#000000">/AliceO2Group/AliceO2</text>
<text text-anchor="start" x="305.5" y="-213" font-family="Helvetica,sans-Serif" font-size="10.00" fill="#000000">/DataFormats/Detectors</text>
<text text-anchor="middle" x="386.5" y="-202" font-family="Helvetica,sans-Serif" font-size="10.00" fill="#000000">/Common/src/EncodedBlocks.cxx</text>
</a>
</g>
</g>
<!-- Node30&#45;&gt;Node31 -->
<g id="edge1" class="edge">
<title>Node30&#45;&gt;Node31</title>
<path fill="none" stroke="#191970" d="M678.1111,-299.1782C620.3129,-286.8931 548.1782,-270.5237 484.5,-253 477.77,-251.148 470.8161,-249.1175 463.8627,-247.0061"/>
<polygon fill="#191970" stroke="#191970" points="677.486,-302.6234 687.9939,-301.2688 678.9347,-295.7749 677.486,-302.6234"/>
</g>
<!-- Node32 -->
<g id="node3" class="node">
<title>Node32</title>
<g id="a_node3"><a xlink:href="../../d1/d77/FIT_2FT0_2include_2DataFormatsFT0_2CTF_8h.html" target="_top" xlink:title="/home/travis/build\l/AliceO2Group/AliceO2\l/DataFormats/Detectors\l/FIT/FT0/include/DataFormatsFT0/CTF.h">
<polygon fill="none" stroke="#000000" points="493.5,-195 493.5,-247 697.5,-247 697.5,-195 493.5,-195"/>
<text text-anchor="start" x="501.5" y="-235" font-family="Helvetica,sans-Serif" font-size="10.00" fill="#000000">/home/travis/build</text>
<text text-anchor="start" x="501.5" y="-224" font-family="Helvetica,sans-Serif" font-size="10.00" fill="#000000">/AliceO2Group/AliceO2</text>
<text text-anchor="start" x="501.5" y="-213" font-family="Helvetica,sans-Serif" font-size="10.00" fill="#000000">/DataFormats/Detectors</text>
<text text-anchor="middle" x="595.5" y="-202" font-family="Helvetica,sans-Serif" font-size="10.00" fill="#000000">/FIT/FT0/include/DataFormatsFT0/CTF.h</text>
</a>
</g>
</g>
<!-- Node30&#45;&gt;Node32 -->
<g id="edge2" class="edge">
<title>Node30&#45;&gt;Node32</title>
<path fill="none" stroke="#191970" d="M717.3411,-284.7911C693.553,-272.3367 667.3995,-258.6437 645.4423,-247.1478"/>
<polygon fill="#191970" stroke="#191970" points="715.8459,-287.959 726.3286,-289.4966 719.0928,-281.7575 715.8459,-287.959"/>
</g>
<!-- Node34 -->
<g id="node5" class="node">
<title>Node34</title>
<g id="a_node5"><a xlink:href="../../d8/d12/CTFReaderSpec_8cxx.html" target="_top" xlink:title="/home/travis/build\l/AliceO2Group/AliceO2\l/Detectors/CTF/workflow\l/src/CTFReaderSpec.cxx">
<polygon fill="none" stroke="#000000" points="603,-95 603,-147 738,-147 738,-95 603,-95"/>
<text text-anchor="start" x="611" y="-135" font-family="Helvetica,sans-Serif" font-size="10.00" fill="#000000">/home/travis/build</text>
<text text-anchor="start" x="611" y="-124" font-family="Helvetica,sans-Serif" font-size="10.00" fill="#000000">/AliceO2Group/AliceO2</text>
<text text-anchor="start" x="611" y="-113" font-family="Helvetica,sans-Serif" font-size="10.00" fill="#000000">/Detectors/CTF/workflow</text>
<text text-anchor="middle" x="670.5" y="-102" font-family="Helvetica,sans-Serif" font-size="10.00" fill="#000000">/src/CTFReaderSpec.cxx</text>
</a>
</g>
</g>
<!-- Node30&#45;&gt;Node34 -->
<g id="edge31" class="edge">
<title>Node30&#45;&gt;Node34</title>
<path fill="none" stroke="#191970" d="M761.2942,-280.8204C755.6919,-271.7168 749.8351,-262.0614 744.5,-253 723.1728,-216.7767 699.5983,-174.27 684.9166,-147.4839"/>
<polygon fill="#191970" stroke="#191970" points="758.3268,-282.6766 766.5621,-289.3423 764.281,-278.9959 758.3268,-282.6766"/>
</g>
<!-- Node35 -->
<g id="node6" class="node">
<title>Node35</title>
<g id="a_node6"><a xlink:href="../../d4/dd7/CTFWriterSpec_8cxx.html" target="_top" xlink:title="/home/travis/build\l/AliceO2Group/AliceO2\l/Detectors/CTF/workflow\l/src/CTFWriterSpec.cxx">
<polygon fill="none" stroke="#000000" points="1012,-95 1012,-147 1147,-147 1147,-95 1012,-95"/>
<text text-anchor="start" x="1020" y="-135" font-family="Helvetica,sans-Serif" font-size="10.00" fill="#000000">/home/travis/build</text>
<text text-anchor="start" x="1020" y="-124" font-family="Helvetica,sans-Serif" font-size="10.00" fill="#000000">/AliceO2Group/AliceO2</text>
<text text-anchor="start" x="1020" y="-113" font-family="Helvetica,sans-Serif" font-size="10.00" fill="#000000">/Detectors/CTF/workflow</text>
<text text-anchor="middle" x="1079.5" y="-102" font-family="Helvetica,sans-Serif" font-size="10.00" fill="#000000">/src/CTFWriterSpec.cxx</text>
</a>
</g>
</g>
<!-- Node30&#45;&gt;Node35 -->
<g id="edge32" class="edge">
<title>Node30&#45;&gt;Node35</title>
<path fill="none" stroke="#191970" d="M892.2458,-285.4224C913.0428,-276.3201 934.0989,-265.5011 952.5,-253 996.2978,-223.2452 1036.8462,-176.3578 1059.8452,-147.2101"/>
<polygon fill="#191970" stroke="#191970" points="890.8638,-282.2067 883.0396,-289.3504 893.6109,-288.6451 890.8638,-282.2067"/>
</g>
<!-- Node41 -->
<g id="node12" class="node">
<title>Node41</title>
<g id="a_node12"><a xlink:href="../../dc/d8e/ITSMFT_2common_2include_2DataFormatsITSMFT_2CTF_8h.html" target="_top" xlink:title="/home/travis/build\l/AliceO2Group/AliceO2\l/DataFormats/Detectors\l/ITSMFT/common/include\l/DataFormatsITSMFT/CTF.h">
<polygon fill="none" stroke="#000000" points="1069.5,-189.5 1069.5,-252.5 1215.5,-252.5 1215.5,-189.5 1069.5,-189.5"/>
<text text-anchor="start" x="1077.5" y="-240.5" font-family="Helvetica,sans-Serif" font-size="10.00" fill="#000000">/home/travis/build</text>
<text text-anchor="start" x="1077.5" y="-229.5" font-family="Helvetica,sans-Serif" font-size="10.00" fill="#000000">/AliceO2Group/AliceO2</text>
<text text-anchor="start" x="1077.5" y="-218.5" font-family="Helvetica,sans-Serif" font-size="10.00" fill="#000000">/DataFormats/Detectors</text>
<text text-anchor="start" x="1077.5" y="-207.5" font-family="Helvetica,sans-Serif" font-size="10.00" fill="#000000">/ITSMFT/common/include</text>
<text text-anchor="middle" x="1142.5" y="-196.5" font-family="Helvetica,sans-Serif" font-size="10.00" fill="#000000">/DataFormatsITSMFT/CTF.h</text>
</a>
</g>
</g>
<!-- Node30&#45;&gt;Node41 -->
<g id="edge11" class="edge">
<title>Node30&#45;&gt;Node41</title>
<path fill="none" stroke="#191970" d="M894.8473,-290.9677C937.1837,-279.1901 986.1317,-265.5207 1030.5,-253 1043.0533,-249.4575 1056.3907,-245.6687 1069.3202,-241.9826"/>
<polygon fill="#191970" stroke="#191970" points="893.7762,-287.6327 885.0796,-293.6841 895.6518,-294.3768 893.7762,-287.6327"/>
</g>
<!-- Node48 -->
<g id="node19" class="node">
<title>Node48</title>
<g id="a_node19"><a xlink:href="../../d8/d9c/TPC_2include_2DataFormatsTPC_2CTF_8h.html" target="_top" xlink:title="/home/travis/build\l/AliceO2Group/AliceO2\l/DataFormats/Detectors\l/TPC/include/DataFormatsTPC/CTF.h">
<polygon fill="none" stroke="#000000" points="753.5,-195 753.5,-247 943.5,-247 943.5,-195 753.5,-195"/>
<text text-anchor="start" x="761.5" y="-235" font-family="Helvetica,sans-Serif" font-size="10.00" fill="#000000">/home/travis/build</text>
<text text-anchor="start" x="761.5" y="-224" font-family="Helvetica,sans-Serif" font-size="10.00" fill="#000000">/AliceO2Group/AliceO2</text>
<text text-anchor="start" x="761.5" y="-213" font-family="Helvetica,sans-Serif" font-size="10.00" fill="#000000">/DataFormats/Detectors</text>
<text text-anchor="middle" x="848.5" y="-202" font-family="Helvetica,sans-Serif" font-size="10.00" fill="#000000">/TPC/include/DataFormatsTPC/CTF.h</text>
</a>
</g>
</g>
<!-- Node30&#45;&gt;Node48 -->
<g id="edge21" class="edge">
<title>Node30&#45;&gt;Node48</title>
<path fill="none" stroke="#191970" d="M811.3989,-280.8405C818.4508,-269.4664 825.9413,-257.385 832.3317,-247.078"/>
<polygon fill="#191970" stroke="#191970" points="808.412,-279.016 806.1172,-289.3594 814.3613,-282.7046 808.412,-279.016"/>
</g>
<!-- Node33 -->
<g id="node4" class="node">
<title>Node33</title>
<g id="a_node4"><a xlink:href="../../da/dfa/FIT_2FT0_2src_2CTF_8cxx.html" target="_top" xlink:title="/home/travis/build\l/AliceO2Group/AliceO2\l/DataFormats/Detectors\l/FIT/FT0/src/CTF.cxx">
<polygon fill="none" stroke="#000000" points="207,-95 207,-147 340,-147 340,-95 207,-95"/>
<text text-anchor="start" x="215" y="-135" font-family="Helvetica,sans-Serif" font-size="10.00" fill="#000000">/home/travis/build</text>
<text text-anchor="start" x="215" y="-124" font-family="Helvetica,sans-Serif" font-size="10.00" fill="#000000">/AliceO2Group/AliceO2</text>
<text text-anchor="start" x="215" y="-113" font-family="Helvetica,sans-Serif" font-size="10.00" fill="#000000">/DataFormats/Detectors</text>
<text text-anchor="middle" x="273.5" y="-102" font-family="Helvetica,sans-Serif" font-size="10.00" fill="#000000">/FIT/FT0/src/CTF.cxx</text>
</a>
</g>
</g>
<!-- Node32&#45;&gt;Node33 -->
<g id="edge3" class="edge">
<title>Node32&#45;&gt;Node33</title>
<path fill="none" stroke="#191970" d="M496.097,-192.2282C492.1825,-191.1317 488.3057,-190.0521 484.5,-189 424.2344,-172.3389 407.6316,-173.3219 348.5,-153 343.2787,-151.2056 337.9076,-149.2152 332.5536,-147.1303"/>
<polygon fill="#191970" stroke="#191970" points="495.3118,-195.6431 505.886,-194.983 497.2081,-188.9049 495.3118,-195.6431"/>
</g>
<!-- Node32&#45;&gt;Node34 -->
<g id="edge4" class="edge">
<title>Node32&#45;&gt;Node34</title>
<path fill="none" stroke="#191970" d="M621.1843,-186.7543C630.8858,-173.819 641.7624,-159.3168 650.8276,-147.2299"/>
<polygon fill="#191970" stroke="#191970" points="618.2096,-184.8872 615.0096,-194.9872 623.8096,-189.0872 618.2096,-184.8872"/>
</g>
<!-- Node32&#45;&gt;Node35 -->
<g id="edge5" class="edge">
<title>Node32&#45;&gt;Node35</title>
<path fill="none" stroke="#191970" d="M707.7926,-195.9702C720.1543,-193.4872 732.5765,-191.1094 744.5,-189 858.5073,-168.8313 890.8021,-183.4633 1002.5,-153 1008.6452,-151.324 1014.9527,-149.2788 1021.1851,-147.0409"/>
<polygon fill="#191970" stroke="#191970" points="707.0047,-192.5587 697.9025,-197.9809 708.3994,-199.4184 707.0047,-192.5587"/>
</g>
<!-- Node36 -->
<g id="node7" class="node">
<title>Node36</title>
<g id="a_node7"><a xlink:href="../../da/ddf/FIT_2FT0_2reconstruction_2include_2FT0Reconstruction_2CTFCoder_8h.html" target="_top" xlink:title="/home/travis/build\l/AliceO2Group/AliceO2\l/Detectors/FIT/FT0/reconstruction\l/include/FT0Reconstruction/CTFCoder.h">
<polygon fill="none" stroke="#000000" points="358,-95 358,-147 563,-147 563,-95 358,-95"/>
<text text-anchor="start" x="366" y="-135" font-family="Helvetica,sans-Serif" font-size="10.00" fill="#000000">/home/travis/build</text>
<text text-anchor="start" x="366" y="-124" font-family="Helvetica,sans-Serif" font-size="10.00" fill="#000000">/AliceO2Group/AliceO2</text>
<text text-anchor="start" x="366" y="-113" font-family="Helvetica,sans-Serif" font-size="10.00" fill="#000000">/Detectors/FIT/FT0/reconstruction</text>
<text text-anchor="middle" x="460.5" y="-102" font-family="Helvetica,sans-Serif" font-size="10.00" fill="#000000">/include/FT0Reconstruction/CTFCoder.h</text>
</a>
</g>
</g>
<!-- Node32&#45;&gt;Node36 -->
<g id="edge6" class="edge">
<title>Node32&#45;&gt;Node36</title>
<path fill="none" stroke="#191970" d="M552.2402,-188.9557C534.0537,-175.4843 513.1601,-160.0075 495.9104,-147.2299"/>
<polygon fill="#191970" stroke="#191970" points="550.2639,-191.8474 560.3828,-194.9872 554.4305,-186.2225 550.2639,-191.8474"/>
</g>
<!-- Node37 -->
<g id="node8" class="node">
<title>Node37</title>
<g id="a_node8"><a xlink:href="../../d3/d53/test__ctf__io__ft0_8cxx.html" target="_top" xlink:title="/home/travis/build\l/AliceO2Group/AliceO2\l/Detectors/CTF/test/test\l_ctf_io_ft0.cxx">
<polygon fill="none" stroke="#000000" points="546,-.5 546,-52.5 677,-52.5 677,-.5 546,-.5"/>
<text text-anchor="start" x="554" y="-40.5" font-family="Helvetica,sans-Serif" font-size="10.00" fill="#000000">/home/travis/build</text>
<text text-anchor="start" x="554" y="-29.5" font-family="Helvetica,sans-Serif" font-size="10.00" fill="#000000">/AliceO2Group/AliceO2</text>
<text text-anchor="start" x="554" y="-18.5" font-family="Helvetica,sans-Serif" font-size="10.00" fill="#000000">/Detectors/CTF/test/test</text>
<text text-anchor="middle" x="611.5" y="-7.5" font-family="Helvetica,sans-Serif" font-size="10.00" fill="#000000">_ctf_io_ft0.cxx</text>
</a>
</g>
</g>
<!-- Node36&#45;&gt;Node37 -->
<g id="edge7" class="edge">
<title>Node36&#45;&gt;Node37</title>
<path fill="none" stroke="#191970" d="M510.7567,-89.5479C529.8839,-77.5776 551.4537,-64.0786 569.713,-52.6515"/>
<polygon fill="#191970" stroke="#191970" points="508.7812,-86.6553 502.1611,-94.9273 512.4948,-92.5891 508.7812,-86.6553"/>
</g>
<!-- Node38 -->
<g id="node9" class="node">
<title>Node38</title>
<g id="a_node9"><a xlink:href="../../d7/d9d/FIT_2FT0_2reconstruction_2src_2CTFCoder_8cxx.html" target="_top" xlink:title="/home/travis/build\l/AliceO2Group/AliceO2\l/Detectors/FIT/FT0/reconstruction\l/src/CTFCoder.cxx">
<polygon fill="none" stroke="#000000" points="0,-.5 0,-52.5 177,-52.5 177,-.5 0,-.5"/>
<text text-anchor="start" x="8" y="-40.5" font-family="Helvetica,sans-Serif" font-size="10.00" fill="#000000">/home/travis/build</text>
<text text-anchor="start" x="8" y="-29.5" font-family="Helvetica,sans-Serif" font-size="10.00" fill="#000000">/AliceO2Group/AliceO2</text>
<text text-anchor="start" x="8" y="-18.5" font-family="Helvetica,sans-Serif" font-size="10.00" fill="#000000">/Detectors/FIT/FT0/reconstruction</text>
<text text-anchor="middle" x="88.5" y="-7.5" font-family="Helvetica,sans-Serif" font-size="10.00" fill="#000000">/src/CTFCoder.cxx</text>
</a>
</g>
</g>
<!-- Node36&#45;&gt;Node38 -->
<g id="edge8" class="edge">
<title>Node36&#45;&gt;Node38</title>
<path fill="none" stroke="#191970" d="M361.1017,-92.2592C356.8496,-91.1376 352.6354,-90.0464 348.5,-89 276.5765,-70.8007 257.5279,-70.7814 185.5,-53 182.7035,-52.3096 179.8645,-51.5982 177.0001,-50.8712"/>
<polygon fill="#191970" stroke="#191970" points="360.508,-95.7233 371.0727,-94.9243 362.3157,-88.9607 360.508,-95.7233"/>
</g>
<!-- Node39 -->
<g id="node10" class="node">
<title>Node39</title>
<g id="a_node10"><a xlink:href="../../d5/de7/FIT_2FT0_2workflow_2src_2EntropyDecoderSpec_8cxx.html" target="_top" xlink:title="/home/travis/build\l/AliceO2Group/AliceO2\l/Detectors/FIT/FT0/workflow\l/src/EntropyDecoderSpec.cxx">
<polygon fill="none" stroke="#000000" points="194.5,-.5 194.5,-52.5 352.5,-52.5 352.5,-.5 194.5,-.5"/>
<text text-anchor="start" x="202.5" y="-40.5" font-family="Helvetica,sans-Serif" font-size="10.00" fill="#000000">/home/travis/build</text>
<text text-anchor="start" x="202.5" y="-29.5" font-family="Helvetica,sans-Serif" font-size="10.00" fill="#000000">/AliceO2Group/AliceO2</text>
<text text-anchor="start" x="202.5" y="-18.5" font-family="Helvetica,sans-Serif" font-size="10.00" fill="#000000">/Detectors/FIT/FT0/workflow</text>
<text text-anchor="middle" x="273.5" y="-7.5" font-family="Helvetica,sans-Serif" font-size="10.00" fill="#000000">/src/EntropyDecoderSpec.cxx</text>
</a>
</g>
</g>
<!-- Node36&#45;&gt;Node39 -->
<g id="edge9" class="edge">
<title>Node36&#45;&gt;Node39</title>
<path fill="none" stroke="#191970" d="M399.8573,-90.3544C375.7796,-78.1868 348.3713,-64.336 325.2495,-52.6515"/>
<polygon fill="#191970" stroke="#191970" points="398.4027,-93.5408 408.9064,-94.9273 401.5599,-87.2932 398.4027,-93.5408"/>
</g>
<!-- Node40 -->
<g id="node11" class="node">
<title>Node40</title>
<g id="a_node11"><a xlink:href="../../de/db3/FIT_2FT0_2workflow_2src_2EntropyEncoderSpec_8cxx.html" target="_top" xlink:title="/home/travis/build\l/AliceO2Group/AliceO2\l/Detectors/FIT/FT0/workflow\l/src/EntropyEncoderSpec.cxx">
<polygon fill="none" stroke="#000000" points="371,-.5 371,-52.5 528,-52.5 528,-.5 371,-.5"/>
<text text-anchor="start" x="379" y="-40.5" font-family="Helvetica,sans-Serif" font-size="10.00" fill="#000000">/home/travis/build</text>
<text text-anchor="start" x="379" y="-29.5" font-family="Helvetica,sans-Serif" font-size="10.00" fill="#000000">/AliceO2Group/AliceO2</text>
<text text-anchor="start" x="379" y="-18.5" font-family="Helvetica,sans-Serif" font-size="10.00" fill="#000000">/Detectors/FIT/FT0/workflow</text>
<text text-anchor="middle" x="449.5" y="-7.5" font-family="Helvetica,sans-Serif" font-size="10.00" fill="#000000">/src/EntropyEncoderSpec.cxx</text>
</a>
</g>
</g>
<!-- Node36&#45;&gt;Node40 -->
<g id="edge10" class="edge">
<title>Node36&#45;&gt;Node40</title>
<path fill="none" stroke="#191970" d="M456.2705,-84.6645C455.0358,-74.0577 453.7108,-62.6746 452.5632,-52.8157"/>
<polygon fill="#191970" stroke="#191970" points="452.8323,-85.3991 457.4651,-94.9273 459.7853,-84.5897 452.8323,-85.3991"/>
</g>
<!-- Node41&#45;&gt;Node34 -->
<g id="edge14" class="edge">
<title>Node41&#45;&gt;Node34</title>
<path fill="none" stroke="#191970" d="M1059.2201,-203.356C967.8147,-183.9904 822.8358,-153.2745 738.1599,-135.3347"/>
<polygon fill="#191970" stroke="#191970" points="1058.7596,-206.836 1069.2679,-205.4847 1060.2105,-199.988 1058.7596,-206.836"/>
</g>
<!-- Node41&#45;&gt;Node35 -->
<g id="edge15" class="edge">
<title>Node41&#45;&gt;Node35</title>
<path fill="none" stroke="#191970" d="M1117.1995,-180.8405C1110.0339,-169.4664 1102.4225,-157.385 1095.9291,-147.078"/>
<polygon fill="#191970" stroke="#191970" points="1114.2747,-182.7641 1122.5664,-189.3594 1120.1973,-179.0328 1114.2747,-182.7641"/>
</g>
<!-- Node42 -->
<g id="node13" class="node">
<title>Node42</title>
<g id="a_node13"><a xlink:href="../../d0/d9d/ITSMFT_2common_2src_2CTF_8cxx.html" target="_top" xlink:title="/home/travis/build\l/AliceO2Group/AliceO2\l/DataFormats/Detectors\l/ITSMFT/common/src/CTF.cxx">
<polygon fill="none" stroke="#000000" points="1165,-95 1165,-147 1322,-147 1322,-95 1165,-95"/>
<text text-anchor="start" x="1173" y="-135" font-family="Helvetica,sans-Serif" font-size="10.00" fill="#000000">/home/travis/build</text>
<text text-anchor="start" x="1173" y="-124" font-family="Helvetica,sans-Serif" font-size="10.00" fill="#000000">/AliceO2Group/AliceO2</text>
<text text-anchor="start" x="1173" y="-113" font-family="Helvetica,sans-Serif" font-size="10.00" fill="#000000">/DataFormats/Detectors</text>
<text text-anchor="middle" x="1243.5" y="-102" font-family="Helvetica,sans-Serif" font-size="10.00" fill="#000000">/ITSMFT/common/src/CTF.cxx</text>
</a>
</g>
</g>
<!-- Node41&#45;&gt;Node42 -->
<g id="edge12" class="edge">
<title>Node41&#45;&gt;Node42</title>
<path fill="none" stroke="#191970" d="M1181.713,-182.1752C1193.5891,-170.4167 1206.3429,-157.7892 1217.1613,-147.078"/>
<polygon fill="#191970" stroke="#191970" points="1179.1007,-179.8364 1174.457,-189.3594 1184.0258,-184.8107 1179.1007,-179.8364"/>
</g>
<!-- Node43 -->
<g id="node14" class="node">
<title>Node43</title>
<g id="a_node14"><a xlink:href="../../db/db0/test__ctf__io__itsmft_8cxx.html" target="_top" xlink:title="/home/travis/build\l/AliceO2Group/AliceO2\l/Detectors/CTF/test/test\l_ctf_io_itsmft.cxx">
<polygon fill="none" stroke="#000000" points="1375,-.5 1375,-52.5 1506,-52.5 1506,-.5 1375,-.5"/>
<text text-anchor="start" x="1383" y="-40.5" font-family="Helvetica,sans-Serif" font-size="10.00" fill="#000000">/home/travis/build</text>
<text text-anchor="start" x="1383" y="-29.5" font-family="Helvetica,sans-Serif" font-size="10.00" fill="#000000">/AliceO2Group/AliceO2</text>
<text text-anchor="start" x="1383" y="-18.5" font-family="Helvetica,sans-Serif" font-size="10.00" fill="#000000">/Detectors/CTF/test/test</text>
<text text-anchor="middle" x="1440.5" y="-7.5" font-family="Helvetica,sans-Serif" font-size="10.00" fill="#000000">_ctf_io_itsmft.cxx</text>
</a>
</g>
</g>
<!-- Node41&#45;&gt;Node43 -->
<g id="edge13" class="edge">
<title>Node41&#45;&gt;Node43</title>
<path fill="none" stroke="#191970" d="M1225.337,-200.9855C1259.7707,-190.223 1298.9708,-174.6192 1330.5,-153 1370.2248,-125.7611 1404.5603,-80.8716 1423.872,-52.5374"/>
<polygon fill="#191970" stroke="#191970" points="1224.313,-197.6386 1215.7617,-203.8937 1226.3473,-204.3365 1224.313,-197.6386"/>
</g>
<!-- Node44 -->
<g id="node15" class="node">
<title>Node44</title>
<g id="a_node15"><a xlink:href="../../d4/d81/ITSMFT_2common_2reconstruction_2include_2ITSMFTReconstruction_2CTFCoder_8h.html" target="_top" xlink:title="/home/travis/build\l/AliceO2Group/AliceO2\l/Detectors/ITSMFT/common\l/reconstruction/include\l/ITSMFTReconstruction/CTFCoder.h">
<polygon fill="none" stroke="#000000" points="1534.5,-89.5 1534.5,-152.5 1718.5,-152.5 1718.5,-89.5 1534.5,-89.5"/>
<text text-anchor="start" x="1542.5" y="-140.5" font-family="Helvetica,sans-Serif" font-size="10.00" fill="#000000">/home/travis/build</text>
<text text-anchor="start" x="1542.5" y="-129.5" font-family="Helvetica,sans-Serif" font-size="10.00" fill="#000000">/AliceO2Group/AliceO2</text>
<text text-anchor="start" x="1542.5" y="-118.5" font-family="Helvetica,sans-Serif" font-size="10.00" fill="#000000">/Detectors/ITSMFT/common</text>
<text text-anchor="start" x="1542.5" y="-107.5" font-family="Helvetica,sans-Serif" font-size="10.00" fill="#000000">/reconstruction/include</text>
<text text-anchor="middle" x="1626.5" y="-96.5" font-family="Helvetica,sans-Serif" font-size="10.00" fill="#000000">/ITSMFTReconstruction/CTFCoder.h</text>
</a>
</g>
</g>
<!-- Node41&#45;&gt;Node44 -->
<g id="edge16" class="edge">
<title>Node41&#45;&gt;Node44</title>
<path fill="none" stroke="#191970" d="M1225.7202,-203.8057C1311.6291,-186.056 1445.3264,-158.4326 1534.3723,-140.0347"/>
<polygon fill="#191970" stroke="#191970" points="1224.8312,-200.4154 1215.7463,-205.8665 1226.2477,-207.2706 1224.8312,-200.4154"/>
</g>
<!-- Node44&#45;&gt;Node43 -->
<g id="edge17" class="edge">
<title>Node44&#45;&gt;Node43</title>
<path fill="none" stroke="#191970" d="M1555.3491,-84.8507C1534.1887,-74.0999 1511.4288,-62.5364 1491.796,-52.5617"/>
<polygon fill="#191970" stroke="#191970" points="1553.8054,-87.9922 1564.3061,-89.4015 1556.9761,-81.7515 1553.8054,-87.9922"/>
</g>
<!-- Node45 -->
<g id="node16" class="node">
<title>Node45</title>
<g id="a_node16"><a xlink:href="../../d0/d07/ITSMFT_2common_2reconstruction_2src_2CTFCoder_8cxx.html" target="_top" xlink:title="/home/travis/build\l/AliceO2Group/AliceO2\l/Detectors/ITSMFT/common\l/reconstruction/src/CTFCoder.cxx">
<polygon fill="none" stroke="#000000" points="1746.5,-.5 1746.5,-52.5 1922.5,-52.5 1922.5,-.5 1746.5,-.5"/>
<text text-anchor="start" x="1754.5" y="-40.5" font-family="Helvetica,sans-Serif" font-size="10.00" fill="#000000">/home/travis/build</text>
<text text-anchor="start" x="1754.5" y="-29.5" font-family="Helvetica,sans-Serif" font-size="10.00" fill="#000000">/AliceO2Group/AliceO2</text>
<text text-anchor="start" x="1754.5" y="-18.5" font-family="Helvetica,sans-Serif" font-size="10.00" fill="#000000">/Detectors/ITSMFT/common</text>
<text text-anchor="middle" x="1834.5" y="-7.5" font-family="Helvetica,sans-Serif" font-size="10.00" fill="#000000">/reconstruction/src/CTFCoder.cxx</text>
</a>
</g>
</g>
<!-- Node44&#45;&gt;Node45 -->
<g id="edge18" class="edge">
<title>Node44&#45;&gt;Node45</title>
<path fill="none" stroke="#191970" d="M1705.4332,-85.1385C1729.275,-74.3065 1754.9858,-62.6254 1777.1367,-52.5617"/>
<polygon fill="#191970" stroke="#191970" points="1703.7068,-82.0785 1696.0502,-89.4015 1706.6023,-88.4516 1703.7068,-82.0785"/>
</g>
<!-- Node46 -->
<g id="node17" class="node">
<title>Node46</title>
<g id="a_node17"><a xlink:href="../../d8/d02/ITSMFT_2common_2workflow_2src_2EntropyDecoderSpec_8cxx.html" target="_top" xlink:title="/home/travis/build\l/AliceO2Group/AliceO2\l/Detectors/ITSMFT/common\l/workflow/src/EntropyDecoderSpec.cxx">
<polygon fill="none" stroke="#000000" points="1940.5,-.5 1940.5,-52.5 2146.5,-52.5 2146.5,-.5 1940.5,-.5"/>
<text text-anchor="start" x="1948.5" y="-40.5" font-family="Helvetica,sans-Serif" font-size="10.00" fill="#000000">/home/travis/build</text>
<text text-anchor="start" x="1948.5" y="-29.5" font-family="Helvetica,sans-Serif" font-size="10.00" fill="#000000">/AliceO2Group/AliceO2</text>
<text text-anchor="start" x="1948.5" y="-18.5" font-family="Helvetica,sans-Serif" font-size="10.00" fill="#000000">/Detectors/ITSMFT/common</text>
<text text-anchor="middle" x="2043.5" y="-7.5" font-family="Helvetica,sans-Serif" font-size="10.00" fill="#000000">/workflow/src/EntropyDecoderSpec.cxx</text>
</a>
</g>
</g>
<!-- Node44&#45;&gt;Node46 -->
<g id="edge19" class="edge">
<title>Node44&#45;&gt;Node46</title>
<path fill="none" stroke="#191970" d="M1728.774,-98.545C1788.0277,-85.4487 1864.0241,-68.5039 1931.5,-53 1934.4211,-52.3288 1937.3844,-51.6453 1940.3749,-50.9532"/>
<polygon fill="#191970" stroke="#191970" points="1727.673,-95.2038 1718.6633,-100.7783 1729.1829,-102.039 1727.673,-95.2038"/>
</g>
<!-- Node47 -->
<g id="node18" class="node">
<title>Node47</title>
<g id="a_node18"><a xlink:href="../../d5/d11/ITSMFT_2common_2workflow_2src_2EntropyEncoderSpec_8cxx.html" target="_top" xlink:title="/home/travis/build\l/AliceO2Group/AliceO2\l/Detectors/ITSMFT/common\l/workflow/src/EntropyEncoderSpec.cxx">
<polygon fill="none" stroke="#000000" points="1524.5,-.5 1524.5,-52.5 1728.5,-52.5 1728.5,-.5 1524.5,-.5"/>
<text text-anchor="start" x="1532.5" y="-40.5" font-family="Helvetica,sans-Serif" font-size="10.00" fill="#000000">/home/travis/build</text>
<text text-anchor="start" x="1532.5" y="-29.5" font-family="Helvetica,sans-Serif" font-size="10.00" fill="#000000">/AliceO2Group/AliceO2</text>
<text text-anchor="start" x="1532.5" y="-18.5" font-family="Helvetica,sans-Serif" font-size="10.00" fill="#000000">/Detectors/ITSMFT/common</text>
<text text-anchor="middle" x="1626.5" y="-7.5" font-family="Helvetica,sans-Serif" font-size="10.00" fill="#000000">/workflow/src/EntropyEncoderSpec.cxx</text>
</a>
</g>
</g>
<!-- Node44&#45;&gt;Node47 -->
<g id="edge20" class="edge">
<title>Node44&#45;&gt;Node47</title>
<path fill="none" stroke="#191970" d="M1626.5,-79.2457C1626.5,-70.2008 1626.5,-60.8836 1626.5,-52.6442"/>
<polygon fill="#191970" stroke="#191970" points="1623.0001,-79.2699 1626.5,-89.27 1630.0001,-79.27 1623.0001,-79.2699"/>
</g>
<!-- Node48&#45;&gt;Node34 -->
<g id="edge24" class="edge">
<title>Node48&#45;&gt;Node34</title>
<path fill="none" stroke="#191970" d="M793.3619,-190.0236C768.8391,-176.2467 740.2854,-160.2053 716.8798,-147.0561"/>
<polygon fill="#191970" stroke="#191970" points="791.7646,-193.1406 802.1973,-194.9872 795.1932,-187.0378 791.7646,-193.1406"/>
</g>
<!-- Node48&#45;&gt;Node35 -->
<g id="edge25" class="edge">
<title>Node48&#45;&gt;Node35</title>
<path fill="none" stroke="#191970" d="M917.9695,-190.9266C950.2516,-176.9517 988.2697,-160.4936 1019.3105,-147.0561"/>
<polygon fill="#191970" stroke="#191970" points="916.376,-187.8025 908.5895,-194.9872 919.157,-194.2264 916.376,-187.8025"/>
</g>
<!-- Node48&#45;&gt;Node37 -->
<g id="edge22" class="edge">
<title>Node48&#45;&gt;Node37</title>
<path fill="none" stroke="#191970" d="M814.9672,-187.4841C805.0142,-176.8455 794.4024,-164.7772 785.5,-153 765.414,-126.4277 771.3537,-111.1771 746.5,-89 735.1302,-78.8546 705.5593,-64.7831 676.9822,-52.5603"/>
<polygon fill="#191970" stroke="#191970" points="812.6388,-190.1148 822.0643,-194.9534 817.7134,-185.2931 812.6388,-190.1148"/>
</g>
<!-- Node49 -->
<g id="node20" class="node">
<title>Node49</title>
<g id="a_node20"><a xlink:href="../../df/d43/test__ctf__io__tpc_8cxx.html" target="_top" xlink:title="/home/travis/build\l/AliceO2Group/AliceO2\l/Detectors/CTF/test/test\l_ctf_io_tpc.cxx">
<polygon fill="none" stroke="#000000" points="695,-.5 695,-52.5 826,-52.5 826,-.5 695,-.5"/>
<text text-anchor="start" x="703" y="-40.5" font-family="Helvetica,sans-Serif" font-size="10.00" fill="#000000">/home/travis/build</text>
<text text-anchor="start" x="703" y="-29.5" font-family="Helvetica,sans-Serif" font-size="10.00" fill="#000000">/AliceO2Group/AliceO2</text>
<text text-anchor="start" x="703" y="-18.5" font-family="Helvetica,sans-Serif" font-size="10.00" fill="#000000">/Detectors/CTF/test/test</text>
<text text-anchor="middle" x="760.5" y="-7.5" font-family="Helvetica,sans-Serif" font-size="10.00" fill="#000000">_ctf_io_tpc.cxx</text>
</a>
</g>
</g>
<!-- Node48&#45;&gt;Node49 -->
<g id="edge23" class="edge">
<title>Node48&#45;&gt;Node49</title>
<path fill="none" stroke="#191970" d="M832.4448,-185.5144C815.0845,-147.1442 787.8226,-86.8892 772.3202,-52.6254"/>
<polygon fill="#191970" stroke="#191970" points="829.3209,-187.1008 836.6319,-194.7689 835.6985,-184.2152 829.3209,-187.1008"/>
</g>
<!-- Node50 -->
<g id="node21" class="node">
<title>Node50</title>
<g id="a_node21"><a xlink:href="../../d9/de3/TPC_2reconstruction_2include_2TPCReconstruction_2CTFCoder_8h.html" target="_top" xlink:title="/home/travis/build\l/AliceO2Group/AliceO2\l/Detectors/TPC/reconstruction\l/include/TPCReconstruction\l/CTFCoder.h">
<polygon fill="none" stroke="#000000" points="833,-89.5 833,-152.5 994,-152.5 994,-89.5 833,-89.5"/>
<text text-anchor="start" x="841" y="-140.5" font-family="Helvetica,sans-Serif" font-size="10.00" fill="#000000">/home/travis/build</text>
<text text-anchor="start" x="841" y="-129.5" font-family="Helvetica,sans-Serif" font-size="10.00" fill="#000000">/AliceO2Group/AliceO2</text>
<text text-anchor="start" x="841" y="-118.5" font-family="Helvetica,sans-Serif" font-size="10.00" fill="#000000">/Detectors/TPC/reconstruction</text>
<text text-anchor="start" x="841" y="-107.5" font-family="Helvetica,sans-Serif" font-size="10.00" fill="#000000">/include/TPCReconstruction</text>
<text text-anchor="middle" x="913.5" y="-96.5" font-family="Helvetica,sans-Serif" font-size="10.00" fill="#000000">/CTFCoder.h</text>
</a>
</g>
</g>
<!-- Node48&#45;&gt;Node50 -->
<g id="edge26" class="edge">
<title>Node48&#45;&gt;Node50</title>
<path fill="none" stroke="#191970" d="M870.9547,-186.4543C878.1004,-175.461 885.9645,-163.3623 892.9671,-152.5891"/>
<polygon fill="#191970" stroke="#191970" points="867.9237,-184.6953 865.4083,-194.9872 873.7928,-188.5102 867.9237,-184.6953"/>
</g>
<!-- Node50&#45;&gt;Node49 -->
<g id="edge27" class="edge">
<title>Node50&#45;&gt;Node49</title>
<path fill="none" stroke="#191970" d="M853.4058,-83.883C836.4959,-73.4387 818.4638,-62.3012 802.8286,-52.6442"/>
<polygon fill="#191970" stroke="#191970" points="851.7804,-86.9928 862.1276,-89.27 855.4588,-81.0372 851.7804,-86.9928"/>
</g>
<!-- Node51 -->
<g id="node22" class="node">
<title>Node51</title>
<g id="a_node22"><a xlink:href="../../d4/d51/TPC_2reconstruction_2src_2CTFCoder_8cxx.html" target="_top" xlink:title="/home/travis/build\l/AliceO2Group/AliceO2\l/Detectors/TPC/reconstruction\l/src/CTFCoder.cxx">
<polygon fill="none" stroke="#000000" points="844,-.5 844,-52.5 1005,-52.5 1005,-.5 844,-.5"/>
<text text-anchor="start" x="852" y="-40.5" font-family="Helvetica,sans-Serif" font-size="10.00" fill="#000000">/home/travis/build</text>
<text text-anchor="start" x="852" y="-29.5" font-family="Helvetica,sans-Serif" font-size="10.00" fill="#000000">/AliceO2Group/AliceO2</text>
<text text-anchor="start" x="852" y="-18.5" font-family="Helvetica,sans-Serif" font-size="10.00" fill="#000000">/Detectors/TPC/reconstruction</text>
<text text-anchor="middle" x="924.5" y="-7.5" font-family="Helvetica,sans-Serif" font-size="10.00" fill="#000000">/src/CTFCoder.cxx</text>
</a>
</g>
</g>
<!-- Node50&#45;&gt;Node51 -->
<g id="edge28" class="edge">
<title>Node50&#45;&gt;Node51</title>
<path fill="none" stroke="#191970" d="M918.3603,-79.2457C919.4131,-70.2008 920.4977,-60.8836 921.4568,-52.6442"/>
<polygon fill="#191970" stroke="#191970" points="914.8732,-78.9323 917.1934,-89.27 921.8263,-79.7418 914.8732,-78.9323"/>
</g>
<!-- Node52 -->
<g id="node23" class="node">
<title>Node52</title>
<g id="a_node23"><a xlink:href="../../db/d6d/TPC_2workflow_2src_2EntropyDecoderSpec_8cxx.html" target="_top" xlink:title="/home/travis/build\l/AliceO2Group/AliceO2\l/Detectors/TPC/workflow\l/src/EntropyDecoderSpec.cxx">
<polygon fill="none" stroke="#000000" points="1023.5,-.5 1023.5,-52.5 1181.5,-52.5 1181.5,-.5 1023.5,-.5"/>
<text text-anchor="start" x="1031.5" y="-40.5" font-family="Helvetica,sans-Serif" font-size="10.00" fill="#000000">/home/travis/build</text>
<text text-anchor="start" x="1031.5" y="-29.5" font-family="Helvetica,sans-Serif" font-size="10.00" fill="#000000">/AliceO2Group/AliceO2</text>
<text text-anchor="start" x="1031.5" y="-18.5" font-family="Helvetica,sans-Serif" font-size="10.00" fill="#000000">/Detectors/TPC/workflow</text>
<text text-anchor="middle" x="1102.5" y="-7.5" font-family="Helvetica,sans-Serif" font-size="10.00" fill="#000000">/src/EntropyDecoderSpec.cxx</text>
</a>
</g>
</g>
<!-- Node50&#45;&gt;Node52 -->
<g id="edge29" class="edge">
<title>Node50&#45;&gt;Node52</title>
<path fill="none" stroke="#191970" d="M985.7985,-84.8507C1007.3002,-74.0999 1030.4272,-62.5364 1050.3766,-52.5617"/>
<polygon fill="#191970" stroke="#191970" points="984.076,-81.7988 976.697,-89.4015 987.2066,-88.0598 984.076,-81.7988"/>
</g>
<!-- Node53 -->
<g id="node24" class="node">
<title>Node53</title>
<g id="a_node24"><a xlink:href="../../db/dd4/TPC_2workflow_2src_2EntropyEncoderSpec_8cxx.html" target="_top" xlink:title="/home/travis/build\l/AliceO2Group/AliceO2\l/Detectors/TPC/workflow\l/src/EntropyEncoderSpec.cxx">
<polygon fill="none" stroke="#000000" points="1200,-.5 1200,-52.5 1357,-52.5 1357,-.5 1200,-.5"/>
<text text-anchor="start" x="1208" y="-40.5" font-family="Helvetica,sans-Serif" font-size="10.00" fill="#000000">/home/travis/build</text>
<text text-anchor="start" x="1208" y="-29.5" font-family="Helvetica,sans-Serif" font-size="10.00" fill="#000000">/AliceO2Group/AliceO2</text>
<text text-anchor="start" x="1208" y="-18.5" font-family="Helvetica,sans-Serif" font-size="10.00" fill="#000000">/Detectors/TPC/workflow</text>
<text text-anchor="middle" x="1278.5" y="-7.5" font-family="Helvetica,sans-Serif" font-size="10.00" fill="#000000">/src/EntropyEncoderSpec.cxx</text>
</a>
</g>
</g>
<!-- Node50&#45;&gt;Node53 -->
<g id="edge30" class="edge">
<title>Node50&#45;&gt;Node53</title>
<path fill="none" stroke="#191970" d="M1004.109,-88.6989C1086.3682,-67.0036 1110.9478,-72.5394 1190.5,-53 1193.599,-52.2388 1196.7509,-51.4349 1199.9285,-50.5994"/>
<polygon fill="#191970" stroke="#191970" points="1003.0804,-85.3511 994.3348,-91.3316 1004.901,-92.1102 1003.0804,-85.3511"/>
</g>
</g>
</svg>
