<?xml version="1.0" encoding="UTF-8" standalone="no"?>
<!DOCTYPE svg PUBLIC "-//W3C//DTD SVG 1.1//EN"
 "http://www.w3.org/Graphics/SVG/1.1/DTD/svg11.dtd">
<!-- Generated by graphviz version 2.40.1 (20161225.0304)
 -->
<!-- Title: o2::header::RAWDataHeaderV2 Pages: 1 -->
<svg width="704pt" height="369pt"
 viewBox="0.00 0.00 703.50 369.00" xmlns="http://www.w3.org/2000/svg" xmlns:xlink="http://www.w3.org/1999/xlink">
<g id="graph0" class="graph" transform="scale(1 1) rotate(0) translate(4 365)">
<title>o2::header::RAWDataHeaderV2</title>
<!-- Node1 -->
<g id="node1" class="node">
<title>Node1</title>
<polygon fill="#bfbfbf" stroke="#000000" points="244,-.5 244,-145.5 411,-145.5 411,-.5 244,-.5"/>
<text text-anchor="middle" x="327.5" y="-133.5" font-family="Helvetica,sans-Serif" font-size="10.00" fill="#000000">o2::header::RAWDataHeaderV2</text>
<polyline fill="none" stroke="#000000" points="244,-126.5 411,-126.5 "/>
<text text-anchor="start" x="252" y="-114.5" font-family="Helvetica,sans-Serif" font-size="10.00" fill="#000000">+ zero0</text>
<text text-anchor="start" x="252" y="-103.5" font-family="Helvetica,sans-Serif" font-size="10.00" fill="#000000">+ word1</text>
<text text-anchor="start" x="252" y="-92.5" font-family="Helvetica,sans-Serif" font-size="10.00" fill="#000000">+ word2</text>
<text text-anchor="start" x="252" y="-81.5" font-family="Helvetica,sans-Serif" font-size="10.00" fill="#000000">+ zero2</text>
<text text-anchor="start" x="252" y="-70.5" font-family="Helvetica,sans-Serif" font-size="10.00" fill="#000000">+ word3</text>
<text text-anchor="start" x="252" y="-59.5" font-family="Helvetica,sans-Serif" font-size="10.00" fill="#000000">+ pageCnt</text>
<text text-anchor="start" x="252" y="-48.5" font-family="Helvetica,sans-Serif" font-size="10.00" fill="#000000">+ stop</text>
<text text-anchor="start" x="252" y="-37.5" font-family="Helvetica,sans-Serif" font-size="10.00" fill="#000000">+ detectorField</text>
<text text-anchor="start" x="252" y="-26.5" font-family="Helvetica,sans-Serif" font-size="10.00" fill="#000000">+ zero3</text>
<polyline fill="none" stroke="#000000" points="244,-19.5 411,-19.5 "/>
<text text-anchor="middle" x="327.5" y="-7.5" font-family="Helvetica,sans-Serif" font-size="10.00" fill="#000000"> </text>
</g>
<!-- Node2 -->
<g id="node2" class="node">
<title>Node2</title>
<polygon fill="none" stroke="#bfbfbf" points="0,-303.5 0,-360.5 113,-360.5 113,-303.5 0,-303.5"/>
<text text-anchor="middle" x="56.5" y="-348.5" font-family="Helvetica,sans-Serif" font-size="10.00" fill="#000000">anonymous:+@147</text>
<polyline fill="none" stroke="#bfbfbf" points="0,-341.5 113,-341.5 "/>
<text text-anchor="middle" x="56.5" y="-329.5" font-family="Helvetica,sans-Serif" font-size="10.00" fill="#000000"> </text>
<polyline fill="none" stroke="#bfbfbf" points="0,-322.5 113,-322.5 "/>
<text text-anchor="middle" x="56.5" y="-310.5" font-family="Helvetica,sans-Serif" font-size="10.00" fill="#000000"> </text>
</g>
<!-- Node2&#45;&gt;Node1 -->
<g id="edge1" class="edge">
<title>Node2&#45;&gt;Node1</title>
<path fill="none" stroke="#404040" d="M60.2744,-303.4407C66.5103,-266.8139 82.2156,-203.3399 119.5,-164 149.7303,-132.1031 193.0822,-110.7289 232.3921,-96.762"/>
<polygon fill="none" stroke="#404040" points="232.5404,-96.7115 236.9288,-90.9894 243.8985,-92.8393 239.5102,-98.5614 232.5404,-96.7115"/>
<text text-anchor="middle" x="139.5" y="-222" font-family="Helvetica,sans-Serif" font-size="10.00" fill="#000000"> +@147</text>
</g>
<!-- Node3 -->
<g id="node3" class="node">
<title>Node3</title>
<g id="a_node3"><a xlink:href="../../d6/d30/classuint64__t.html" target="_top" xlink:title="{uint64_t\n||}">
<polygon fill="none" stroke="#000000" points="131.5,-303.5 131.5,-360.5 187.5,-360.5 187.5,-303.5 131.5,-303.5"/>
<text text-anchor="middle" x="159.5" y="-348.5" font-family="Helvetica,sans-Serif" font-size="10.00" fill="#000000">uint64_t</text>
<polyline fill="none" stroke="#000000" points="131.5,-341.5 187.5,-341.5 "/>
<text text-anchor="middle" x="159.5" y="-329.5" font-family="Helvetica,sans-Serif" font-size="10.00" fill="#000000"> </text>
<polyline fill="none" stroke="#000000" points="131.5,-322.5 187.5,-322.5 "/>
<text text-anchor="middle" x="159.5" y="-310.5" font-family="Helvetica,sans-Serif" font-size="10.00" fill="#000000"> </text>
</a>
</g>
</g>
<!-- Node3&#45;&gt;Node1 -->
<g id="edge2" class="edge">
<title>Node3&#45;&gt;Node1</title>
<path fill="none" stroke="#404040" d="M160.7345,-303.4372C163.5155,-267.9384 172.5095,-206.8199 201.5,-164 210.4206,-150.8239 221.9171,-138.8895 234.3294,-128.3239"/>
<polygon fill="none" stroke="#404040" points="234.6474,-128.0664 236.7921,-121.1816 243.9722,-120.5133 241.8275,-127.3981 234.6474,-128.0664"/>
<text text-anchor="middle" x="236.5" y="-277" font-family="Helvetica,sans-Serif" font-size="10.00" fill="#000000"> +triggerType</text>
<text text-anchor="middle" x="236.5" y="-266" font-family="Helvetica,sans-Serif" font-size="10.00" fill="#000000">+par</text>
<text text-anchor="middle" x="236.5" y="-255" font-family="Helvetica,sans-Serif" font-size="10.00" fill="#000000">+feeId</text>
<text text-anchor="middle" x="236.5" y="-244" font-family="Helvetica,sans-Serif" font-size="10.00" fill="#000000">+linkId</text>
<text text-anchor="middle" x="236.5" y="-233" font-family="Helvetica,sans-Serif" font-size="10.00" fill="#000000">+headerSize</text>
<text text-anchor="middle" x="236.5" y="-222" font-family="Helvetica,sans-Serif" font-size="10.00" fill="#000000">+version</text>
<text text-anchor="middle" x="236.5" y="-211" font-family="Helvetica,sans-Serif" font-size="10.00" fill="#000000">+triggerBC</text>
<text text-anchor="middle" x="236.5" y="-200" font-family="Helvetica,sans-Serif" font-size="10.00" fill="#000000">+blockLength</text>
<text text-anchor="middle" x="236.5" y="-189" font-family="Helvetica,sans-Serif" font-size="10.00" fill="#000000">+heartbeatBC</text>
<text text-anchor="middle" x="236.5" y="-178" font-family="Helvetica,sans-Serif" font-size="10.00" fill="#000000">+word0</text>
<text text-anchor="middle" x="236.5" y="-167" font-family="Helvetica,sans-Serif" font-size="10.00" fill="#000000">...</text>
</g>
<!-- Node4 -->
<g id="node4" class="node">
<title>Node4</title>
<polygon fill="none" stroke="#bfbfbf" points="206,-303.5 206,-360.5 319,-360.5 319,-303.5 206,-303.5"/>
<text text-anchor="middle" x="262.5" y="-348.5" font-family="Helvetica,sans-Serif" font-size="10.00" fill="#000000">anonymous:+@149</text>
<polyline fill="none" stroke="#bfbfbf" points="206,-341.5 319,-341.5 "/>
<text text-anchor="middle" x="262.5" y="-329.5" font-family="Helvetica,sans-Serif" font-size="10.00" fill="#000000"> </text>
<polyline fill="none" stroke="#bfbfbf" points="206,-322.5 319,-322.5 "/>
<text text-anchor="middle" x="262.5" y="-310.5" font-family="Helvetica,sans-Serif" font-size="10.00" fill="#000000"> </text>
</g>
<!-- Node4&#45;&gt;Node1 -->
<g id="edge3" class="edge">
<title>Node4&#45;&gt;Node1</title>
<path fill="none" stroke="#404040" d="M269.7045,-303.2929C278.4716,-268.3595 293.6655,-207.8173 306.2749,-157.5739"/>
<polygon fill="none" stroke="#404040" points="306.332,-157.3462 303.9128,-150.553 309.253,-145.7072 311.6722,-152.5004 306.332,-157.3462"/>
<text text-anchor="middle" x="324.5" y="-222" font-family="Helvetica,sans-Serif" font-size="10.00" fill="#000000"> +@149</text>
</g>
<!-- Node5 -->
<g id="node5" class="node">
<title>Node5</title>
<polygon fill="none" stroke="#bfbfbf" points="337,-303.5 337,-360.5 450,-360.5 450,-303.5 337,-303.5"/>
<text text-anchor="middle" x="393.5" y="-348.5" font-family="Helvetica,sans-Serif" font-size="10.00" fill="#000000">anonymous:+@151</text>
<polyline fill="none" stroke="#bfbfbf" points="337,-341.5 450,-341.5 "/>
<text text-anchor="middle" x="393.5" y="-329.5" font-family="Helvetica,sans-Serif" font-size="10.00" fill="#000000"> </text>
<polyline fill="none" stroke="#bfbfbf" points="337,-322.5 450,-322.5 "/>
<text text-anchor="middle" x="393.5" y="-310.5" font-family="Helvetica,sans-Serif" font-size="10.00" fill="#000000"> </text>
</g>
<!-- Node5&#45;&gt;Node1 -->
<g id="edge4" class="edge">
<title>Node5&#45;&gt;Node1</title>
<path fill="none" stroke="#404040" d="M386.1847,-303.2929C377.2827,-268.3595 361.855,-207.8173 349.0517,-157.5739"/>
<polygon fill="none" stroke="#404040" points="348.991,-157.3356 343.6332,-152.5091 346.0277,-145.7072 351.3855,-150.5336 348.991,-157.3356"/>
<text text-anchor="middle" x="400.5" y="-222" font-family="Helvetica,sans-Serif" font-size="10.00" fill="#000000"> +@151</text>
</g>
<!-- Node6 -->
<g id="node6" class="node">
<title>Node6</title>
<polygon fill="none" stroke="#bfbfbf" points="468,-303.5 468,-360.5 581,-360.5 581,-303.5 468,-303.5"/>
<text text-anchor="middle" x="524.5" y="-348.5" font-family="Helvetica,sans-Serif" font-size="10.00" fill="#000000">anonymous:+@153</text>
<polyline fill="none" stroke="#bfbfbf" points="468,-341.5 581,-341.5 "/>
<text text-anchor="middle" x="524.5" y="-329.5" font-family="Helvetica,sans-Serif" font-size="10.00" fill="#000000"> </text>
<polyline fill="none" stroke="#bfbfbf" points="468,-322.5 581,-322.5 "/>
<text text-anchor="middle" x="524.5" y="-310.5" font-family="Helvetica,sans-Serif" font-size="10.00" fill="#000000"> </text>
</g>
<!-- Node6&#45;&gt;Node1 -->
<g id="edge5" class="edge">
<title>Node6&#45;&gt;Node1</title>
<path fill="none" stroke="#404040" d="M510.6209,-303.3923C493.0777,-268.6496 460.7593,-209.1049 424.5,-164 422.0044,-160.8955 419.4046,-157.7963 416.7262,-154.7156"/>
<polygon fill="none" stroke="#404040" points="416.5025,-154.4668 409.5166,-152.679 408.4799,-145.5428 415.4659,-147.3306 416.5025,-154.4668"/>
<text text-anchor="middle" x="518.5" y="-222" font-family="Helvetica,sans-Serif" font-size="10.00" fill="#000000"> +@153</text>
</g>
<!-- Node7 -->
<g id="node7" class="node">
<title>Node7</title>
<g id="a_node7"><a xlink:href="../../d3/d87/classuint32__t.html" target="_top" xlink:title="{uint32_t\n||}">
<polygon fill="none" stroke="#000000" points="599.5,-303.5 599.5,-360.5 655.5,-360.5 655.5,-303.5 599.5,-303.5"/>
<text text-anchor="middle" x="627.5" y="-348.5" font-family="Helvetica,sans-Serif" font-size="10.00" fill="#000000">uint32_t</text>
<polyline fill="none" stroke="#000000" points="599.5,-341.5 655.5,-341.5 "/>
<text text-anchor="middle" x="627.5" y="-329.5" font-family="Helvetica,sans-Serif" font-size="10.00" fill="#000000"> </text>
<polyline fill="none" stroke="#000000" points="599.5,-322.5 655.5,-322.5 "/>
<text text-anchor="middle" x="627.5" y="-310.5" font-family="Helvetica,sans-Serif" font-size="10.00" fill="#000000"> </text>
</a>
</g>
</g>
<!-- Node7&#45;&gt;Node1 -->
<g id="edge6" class="edge">
<title>Node7&#45;&gt;Node1</title>
<path fill="none" stroke="#404040" d="M619.7165,-303.2828C608.3931,-266.4853 584.0614,-202.8269 542.5,-164 509.0687,-132.7683 463.3212,-111.3867 422.6173,-97.2408"/>
<polygon fill="none" stroke="#404040" points="422.3851,-97.163 415.4251,-99.0497 411.0067,-93.3507 417.9667,-91.4641 422.3851,-97.163"/>
<text text-anchor="middle" x="654" y="-227.5" font-family="Helvetica,sans-Serif" font-size="10.00" fill="#000000"> +heartbeatOrbit</text>
<text text-anchor="middle" x="654" y="-216.5" font-family="Helvetica,sans-Serif" font-size="10.00" fill="#000000">+triggerOrbit</text>
</g>
</g>
</svg>
