<?xml version="1.0" encoding="UTF-8" standalone="no"?>
<!DOCTYPE svg PUBLIC "-//W3C//DTD SVG 1.1//EN"
 "http://www.w3.org/Graphics/SVG/1.1/DTD/svg11.dtd">
<!-- Generated by graphviz version 2.40.1 (20161225.0304)
 -->
<!-- Title: o2::emcal::RawOutputPageHandler::RawPageBuffer::PageData Pages: 1 -->
<!--zoomable 551 -->
<svg id="main" version="1.1" xmlns="http://www.w3.org/2000/svg" xmlns:xlink="http://www.w3.org/1999/xlink" xml:space="preserve" onload="init(evt)">
<style type="text/css"><![CDATA[
.edge:hover path { stroke: red; }
.edge:hover polygon { stroke: red; fill: red; }
]]></style>
<script type="text/javascript"><![CDATA[
var edges = document.getElementsByTagName('g');
if (edges && edges.length) {
  for (var i=0;i<edges.length;i++) {
    if (edges[i].id.substr(0,4)=='edge') {
      edges[i].setAttribute('class','edge');
    }
  }
}
]]></script>
        <defs>
                <circle id="rim" cx="0" cy="0" r="7"/>
                <circle id="rim2" cx="0" cy="0" r="3.5"/>
                <g id="zoomPlus">
                        <use xlink:href="#rim" fill="#404040">
                                <set attributeName="fill" to="#808080" begin="zoomplus.mouseover" end="zoomplus.mouseout"/>
                        </use>
                        <path d="M-4,0h8M0,-4v8" fill="none" stroke="white" stroke-width="1.5" pointer-events="none"/>
                </g>
                <g id="zoomMin">
                        <use xlink:href="#rim" fill="#404040">
                                <set attributeName="fill" to="#808080" begin="zoomminus.mouseover" end="zoomminus.mouseout"/>
                        </use>
                        <path d="M-4,0h8" fill="none" stroke="white" stroke-width="1.5" pointer-events="none"/>
                </g>
                <g id="dirArrow">
                        <path fill="none" stroke="white" stroke-width="1.5" d="M0,-3.0v7 M-2.5,-0.5L0,-3.0L2.5,-0.5"/>
                </g>
               <g id="resetDef">
                       <use xlink:href="#rim2" fill="#404040">
                               <set attributeName="fill" to="#808080" begin="reset.mouseover" end="reset.mouseout"/>
                       </use>
               </g>
        </defs>

<script type="text/javascript">
var viewWidth = 1331;
var viewHeight = 551;
var sectionId = 'dynsection-0';
</script>
<script xlink:href="../../svgpan.js"/>
<svg id="graph" class="graph">
<g id="viewport">
<title>o2::emcal::RawOutputPageHandler::RawPageBuffer::PageData</title>
<!-- Node1 -->
<g id="node1" class="node">
<title>Node1</title>
<polygon fill="#bfbfbf" stroke="#000000" points="376.5,-.5 376.5,-79.5 524.5,-79.5 524.5,-.5 376.5,-.5"/>
<text text-anchor="start" x="384.5" y="-67.5" font-family="Helvetica,sans-Serif" font-size="10.00" fill="#000000">o2::emcal::RawOutputPage</text>
<text text-anchor="start" x="384.5" y="-56.5" font-family="Helvetica,sans-Serif" font-size="10.00" fill="#000000">Handler::RawPageBuffer</text>
<text text-anchor="middle" x="450.5" y="-45.5" font-family="Helvetica,sans-Serif" font-size="10.00" fill="#000000">::PageData</text>
<polyline fill="none" stroke="#000000" points="376.5,-38.5 524.5,-38.5 "/>
<text text-anchor="middle" x="450.5" y="-26.5" font-family="Helvetica,sans-Serif" font-size="10.00" fill="#000000"> </text>
<polyline fill="none" stroke="#000000" points="376.5,-19.5 524.5,-19.5 "/>
<text text-anchor="middle" x="450.5" y="-7.5" font-family="Helvetica,sans-Serif" font-size="10.00" fill="#000000"> </text>
</g>
<!-- Node2 -->
<g id="node2" class="node">
<title>Node2</title>
<polygon fill="none" stroke="#bfbfbf" points="371,-199 371,-256 462,-256 462,-199 371,-199"/>
<text text-anchor="middle" x="416.5" y="-244" font-family="Helvetica,sans-Serif" font-size="10.00" fill="#000000">vector&lt; char &gt;</text>
<polyline fill="none" stroke="#bfbfbf" points="371,-237 462,-237 "/>
<text text-anchor="middle" x="416.5" y="-225" font-family="Helvetica,sans-Serif" font-size="10.00" fill="#000000"> </text>
<polyline fill="none" stroke="#bfbfbf" points="371,-218 462,-218 "/>
<text text-anchor="middle" x="416.5" y="-206" font-family="Helvetica,sans-Serif" font-size="10.00" fill="#000000"> </text>
</g>
<!-- Node2&#45;&gt;Node1 -->
<g id="edge1" class="edge">
<title>Node2&#45;&gt;Node1</title>
<path fill="none" stroke="#404040" d="M421.738,-198.614C426.8809,-170.2523 434.8408,-126.3557 441.0841,-91.9257"/>
<polygon fill="none" stroke="#404040" points="441.1571,-91.523 438.2918,-84.9056 443.2982,-79.7156 446.1635,-86.333 441.1571,-91.523"/>
<text text-anchor="middle" x="463" y="-101" font-family="Helvetica,sans-Serif" font-size="10.00" fill="#000000"> +mPage</text>
</g>
<!-- Node3 -->
<g id="node3" class="node">
<title>Node3</title>
<g id="a_node3"><a xlink:href="../../d8/d47/structo2_1_1header_1_1RAWDataHeaderV4.html" target="_top" xlink:title="{o2::header::RAWDataHeaderV4\n|+ word0\l+ blockLength\l+ zero0\l+ word1\l+ word2\l+ word3\l+ word4\l+ heartbeatBC\l+ zero42\l+ word5\l+ word6\l+ detectorField\l+ stop\l+ pageCnt\l|}">
<polygon fill="none" stroke="#000000" points="480,-127.5 480,-327.5 647,-327.5 647,-127.5 480,-127.5"/>
<text text-anchor="middle" x="563.5" y="-315.5" font-family="Helvetica,sans-Serif" font-size="10.00" fill="#000000">o2::header::RAWDataHeaderV4</text>
<polyline fill="none" stroke="#000000" points="480,-308.5 647,-308.5 "/>
<text text-anchor="start" x="488" y="-296.5" font-family="Helvetica,sans-Serif" font-size="10.00" fill="#000000">+ word0</text>
<text text-anchor="start" x="488" y="-285.5" font-family="Helvetica,sans-Serif" font-size="10.00" fill="#000000">+ blockLength</text>
<text text-anchor="start" x="488" y="-274.5" font-family="Helvetica,sans-Serif" font-size="10.00" fill="#000000">+ zero0</text>
<text text-anchor="start" x="488" y="-263.5" font-family="Helvetica,sans-Serif" font-size="10.00" fill="#000000">+ word1</text>
<text text-anchor="start" x="488" y="-252.5" font-family="Helvetica,sans-Serif" font-size="10.00" fill="#000000">+ word2</text>
<text text-anchor="start" x="488" y="-241.5" font-family="Helvetica,sans-Serif" font-size="10.00" fill="#000000">+ word3</text>
<text text-anchor="start" x="488" y="-230.5" font-family="Helvetica,sans-Serif" font-size="10.00" fill="#000000">+ word4</text>
<text text-anchor="start" x="488" y="-219.5" font-family="Helvetica,sans-Serif" font-size="10.00" fill="#000000">+ heartbeatBC</text>
<text text-anchor="start" x="488" y="-208.5" font-family="Helvetica,sans-Serif" font-size="10.00" fill="#000000">+ zero42</text>
<text text-anchor="start" x="488" y="-197.5" font-family="Helvetica,sans-Serif" font-size="10.00" fill="#000000">+ word5</text>
<text text-anchor="start" x="488" y="-186.5" font-family="Helvetica,sans-Serif" font-size="10.00" fill="#000000">+ word6</text>
<text text-anchor="start" x="488" y="-175.5" font-family="Helvetica,sans-Serif" font-size="10.00" fill="#000000">+ detectorField</text>
<text text-anchor="start" x="488" y="-164.5" font-family="Helvetica,sans-Serif" font-size="10.00" fill="#000000">+ stop</text>
<text text-anchor="start" x="488" y="-153.5" font-family="Helvetica,sans-Serif" font-size="10.00" fill="#000000">+ pageCnt</text>
<polyline fill="none" stroke="#000000" points="480,-146.5 647,-146.5 "/>
<text text-anchor="middle" x="563.5" y="-134.5" font-family="Helvetica,sans-Serif" font-size="10.00" fill="#000000"> </text>
</a>
</g>
</g>
<!-- Node3&#45;&gt;Node1 -->
<g id="edge2" class="edge">
<title>Node3&#45;&gt;Node1</title>
<path fill="none" stroke="#404040" d="M507.2584,-127.3804C501.3601,-117.3957 495.3726,-107.46 489.5,-98 487.8181,-95.2906 486.0704,-92.5262 484.2883,-89.7467"/>
<polygon fill="none" stroke="#404040" points="484.2865,-89.7439 477.6609,-86.8975 477.74,-79.6868 484.3656,-82.5332 484.2865,-89.7439"/>
<text text-anchor="middle" x="524" y="-101" font-family="Helvetica,sans-Serif" font-size="10.00" fill="#000000"> +mHeader</text>
</g>
<!-- Node4 -->
<g id="node4" class="node">
<title>Node4</title>
<polygon fill="none" stroke="#bfbfbf" points="0,-485.5 0,-542.5 113,-542.5 113,-485.5 0,-485.5"/>
<text text-anchor="middle" x="56.5" y="-530.5" font-family="Helvetica,sans-Serif" font-size="10.00" fill="#000000">anonymous:+@129</text>
<polyline fill="none" stroke="#bfbfbf" points="0,-523.5 113,-523.5 "/>
<text text-anchor="middle" x="56.5" y="-511.5" font-family="Helvetica,sans-Serif" font-size="10.00" fill="#000000"> </text>
<polyline fill="none" stroke="#bfbfbf" points="0,-504.5 113,-504.5 "/>
<text text-anchor="middle" x="56.5" y="-492.5" font-family="Helvetica,sans-Serif" font-size="10.00" fill="#000000"> </text>
</g>
<!-- Node4&#45;&gt;Node3 -->
<g id="edge3" class="edge">
<title>Node4&#45;&gt;Node3</title>
<path fill="none" stroke="#404040" d="M54.0799,-485.2133C52.6227,-446.8015 56.6235,-379.7203 97.5,-346 127.5872,-321.1801 396.8704,-342.6125 468.2126,-327.2954"/>
<polygon fill="none" stroke="#404040" points="468.2541,-327.2825 472.7948,-321.6805 479.7123,-323.7173 475.1716,-329.3193 468.2541,-327.2825"/>
<text text-anchor="middle" x="117.5" y="-404" font-family="Helvetica,sans-Serif" font-size="10.00" fill="#000000"> +@129</text>
</g>
<!-- Node5 -->
<g id="node5" class="node">
<title>Node5</title>
<g id="a_node5"><a xlink:href="../../d6/d30/classuint64__t.html" target="_top" xlink:title="{uint64_t\n||}">
<polygon fill="none" stroke="#000000" points="131.5,-485.5 131.5,-542.5 187.5,-542.5 187.5,-485.5 131.5,-485.5"/>
<text text-anchor="middle" x="159.5" y="-530.5" font-family="Helvetica,sans-Serif" font-size="10.00" fill="#000000">uint64_t</text>
<polyline fill="none" stroke="#000000" points="131.5,-523.5 187.5,-523.5 "/>
<text text-anchor="middle" x="159.5" y="-511.5" font-family="Helvetica,sans-Serif" font-size="10.00" fill="#000000"> </text>
<polyline fill="none" stroke="#000000" points="131.5,-504.5 187.5,-504.5 "/>
<text text-anchor="middle" x="159.5" y="-492.5" font-family="Helvetica,sans-Serif" font-size="10.00" fill="#000000"> </text>
</a>
</g>
</g>
<!-- Node5&#45;&gt;Node3 -->
<g id="edge4" class="edge">
<title>Node5&#45;&gt;Node3</title>
<path fill="none" stroke="#404040" d="M150.4883,-485.4503C140.6251,-447.935 130.5884,-382.5385 166.5,-346 188.5765,-323.5381 405.8189,-339.8184 468.12,-327.1866"/>
<polygon fill="none" stroke="#404040" points="468.2096,-327.1595 472.7903,-321.5902 479.693,-323.6765 475.1123,-329.2458 468.2096,-327.1595"/>
<text text-anchor="middle" x="198.5" y="-459" font-family="Helvetica,sans-Serif" font-size="10.00" fill="#000000"> +word7</text>
<text text-anchor="middle" x="198.5" y="-448" font-family="Helvetica,sans-Serif" font-size="10.00" fill="#000000">+triggerType</text>
<text text-anchor="middle" x="198.5" y="-437" font-family="Helvetica,sans-Serif" font-size="10.00" fill="#000000">+zero6</text>
<text text-anchor="middle" x="198.5" y="-426" font-family="Helvetica,sans-Serif" font-size="10.00" fill="#000000">+par</text>
<text text-anchor="middle" x="198.5" y="-415" font-family="Helvetica,sans-Serif" font-size="10.00" fill="#000000">+feeId</text>
<text text-anchor="middle" x="198.5" y="-404" font-family="Helvetica,sans-Serif" font-size="10.00" fill="#000000">+priority</text>
<text text-anchor="middle" x="198.5" y="-393" font-family="Helvetica,sans-Serif" font-size="10.00" fill="#000000">+headerSize</text>
<text text-anchor="middle" x="198.5" y="-382" font-family="Helvetica,sans-Serif" font-size="10.00" fill="#000000">+version</text>
<text text-anchor="middle" x="198.5" y="-371" font-family="Helvetica,sans-Serif" font-size="10.00" fill="#000000">+triggerBC</text>
<text text-anchor="middle" x="198.5" y="-360" font-family="Helvetica,sans-Serif" font-size="10.00" fill="#000000">+zero41</text>
<text text-anchor="middle" x="198.5" y="-349" font-family="Helvetica,sans-Serif" font-size="10.00" fill="#000000">...</text>
</g>
<!-- Node6 -->
<g id="node6" class="node">
<title>Node6</title>
<polygon fill="none" stroke="#bfbfbf" points="207.5,-485.5 207.5,-542.5 263.5,-542.5 263.5,-485.5 207.5,-485.5"/>
<text text-anchor="middle" x="235.5" y="-530.5" font-family="Helvetica,sans-Serif" font-size="10.00" fill="#000000">uint16_t</text>
<polyline fill="none" stroke="#bfbfbf" points="207.5,-523.5 263.5,-523.5 "/>
<text text-anchor="middle" x="235.5" y="-511.5" font-family="Helvetica,sans-Serif" font-size="10.00" fill="#000000"> </text>
<polyline fill="none" stroke="#bfbfbf" points="207.5,-504.5 263.5,-504.5 "/>
<text text-anchor="middle" x="235.5" y="-492.5" font-family="Helvetica,sans-Serif" font-size="10.00" fill="#000000"> </text>
</g>
<!-- Node6&#45;&gt;Node3 -->
<g id="edge5" class="edge">
<title>Node6&#45;&gt;Node3</title>
<path fill="none" stroke="#404040" d="M234.1884,-485.3917C232.8943,-442.5632 233.3549,-364.7878 252.5,-346 285.0379,-314.0694 409.4849,-344.8036 468.4317,-327.8"/>
<polygon fill="none" stroke="#404040" points="468.7459,-327.6803 472.9284,-321.806 479.9594,-323.4073 475.777,-329.2817 468.7459,-327.6803"/>
<text text-anchor="middle" x="271" y="-404" font-family="Helvetica,sans-Serif" font-size="10.00" fill="#000000"> +cruID</text>
</g>
<!-- Node7 -->
<g id="node7" class="node">
<title>Node7</title>
<polygon fill="none" stroke="#bfbfbf" points="281.5,-485.5 281.5,-542.5 331.5,-542.5 331.5,-485.5 281.5,-485.5"/>
<text text-anchor="middle" x="306.5" y="-530.5" font-family="Helvetica,sans-Serif" font-size="10.00" fill="#000000">uint8_t</text>
<polyline fill="none" stroke="#bfbfbf" points="281.5,-523.5 331.5,-523.5 "/>
<text text-anchor="middle" x="306.5" y="-511.5" font-family="Helvetica,sans-Serif" font-size="10.00" fill="#000000"> </text>
<polyline fill="none" stroke="#bfbfbf" points="281.5,-504.5 331.5,-504.5 "/>
<text text-anchor="middle" x="306.5" y="-492.5" font-family="Helvetica,sans-Serif" font-size="10.00" fill="#000000"> </text>
</g>
<!-- Node7&#45;&gt;Node3 -->
<g id="edge6" class="edge">
<title>Node7&#45;&gt;Node3</title>
<path fill="none" stroke="#404040" d="M301.5004,-485.3028C294.8084,-442.7491 285.7085,-365.7996 303.5,-346 326.5861,-320.3083 421.0125,-340.9899 468.6214,-327.6284"/>
<polygon fill="none" stroke="#404040" points="468.7032,-327.5972 472.8793,-321.7184 479.9121,-323.3122 475.736,-329.191 468.7032,-327.5972"/>
<text text-anchor="middle" x="343.5" y="-415" font-family="Helvetica,sans-Serif" font-size="10.00" fill="#000000"> +linkID</text>
<text text-anchor="middle" x="343.5" y="-404" font-family="Helvetica,sans-Serif" font-size="10.00" fill="#000000">+endPointID</text>
<text text-anchor="middle" x="343.5" y="-393" font-family="Helvetica,sans-Serif" font-size="10.00" fill="#000000">+packetCounter</text>
</g>
<!-- Node8 -->
<g id="node8" class="node">
<title>Node8</title>
<g id="a_node8"><a xlink:href="../../d3/d87/classuint32__t.html" target="_top" xlink:title="{uint32_t\n||}">
<polygon fill="none" stroke="#000000" points="349.5,-485.5 349.5,-542.5 405.5,-542.5 405.5,-485.5 349.5,-485.5"/>
<text text-anchor="middle" x="377.5" y="-530.5" font-family="Helvetica,sans-Serif" font-size="10.00" fill="#000000">uint32_t</text>
<polyline fill="none" stroke="#000000" points="349.5,-523.5 405.5,-523.5 "/>
<text text-anchor="middle" x="377.5" y="-511.5" font-family="Helvetica,sans-Serif" font-size="10.00" fill="#000000"> </text>
<polyline fill="none" stroke="#000000" points="349.5,-504.5 405.5,-504.5 "/>
<text text-anchor="middle" x="377.5" y="-492.5" font-family="Helvetica,sans-Serif" font-size="10.00" fill="#000000"> </text>
</a>
</g>
</g>
<!-- Node8&#45;&gt;Node3 -->
<g id="edge7" class="edge">
<title>Node8&#45;&gt;Node3</title>
<path fill="none" stroke="#404040" d="M383.8806,-485.2161C385.1403,-479.2084 386.4087,-472.9065 387.5,-467 392.4451,-440.2346 388.3855,-366.3151 406.5,-346 424.2679,-326.0737 441.6727,-339.7882 469.2323,-328.0695"/>
<polygon fill="none" stroke="#404040" points="469.2382,-328.0665 472.6933,-321.737 479.8648,-322.492 476.4097,-328.8214 469.2382,-328.0665"/>
<text text-anchor="middle" x="448" y="-420.5" font-family="Helvetica,sans-Serif" font-size="10.00" fill="#000000"> +heartbeatOrbit</text>
<text text-anchor="middle" x="448" y="-409.5" font-family="Helvetica,sans-Serif" font-size="10.00" fill="#000000">+triggerOrbit</text>
<text text-anchor="middle" x="448" y="-398.5" font-family="Helvetica,sans-Serif" font-size="10.00" fill="#000000">+memorySize</text>
<text text-anchor="middle" x="448" y="-387.5" font-family="Helvetica,sans-Serif" font-size="10.00" fill="#000000">+offsetToNext</text>
</g>
<!-- Node9 -->
<g id="node9" class="node">
<title>Node9</title>
<polygon fill="none" stroke="#bfbfbf" points="424,-485.5 424,-542.5 537,-542.5 537,-485.5 424,-485.5"/>
<text text-anchor="middle" x="480.5" y="-530.5" font-family="Helvetica,sans-Serif" font-size="10.00" fill="#000000">anonymous:+@121</text>
<polyline fill="none" stroke="#bfbfbf" points="424,-523.5 537,-523.5 "/>
<text text-anchor="middle" x="480.5" y="-511.5" font-family="Helvetica,sans-Serif" font-size="10.00" fill="#000000"> </text>
<polyline fill="none" stroke="#bfbfbf" points="424,-504.5 537,-504.5 "/>
<text text-anchor="middle" x="480.5" y="-492.5" font-family="Helvetica,sans-Serif" font-size="10.00" fill="#000000"> </text>
</g>
<!-- Node9&#45;&gt;Node3 -->
<g id="edge8" class="edge">
<title>Node9&#45;&gt;Node3</title>
<path fill="none" stroke="#404040" d="M488.7618,-485.4819C498.6367,-451.3957 515.7575,-392.2979 531.1229,-339.2594"/>
<polygon fill="none" stroke="#404040" points="531.1341,-339.2204 528.9617,-332.3443 534.4734,-327.6944 536.6458,-334.5705 531.1341,-339.2204"/>
<text text-anchor="middle" x="546.5" y="-404" font-family="Helvetica,sans-Serif" font-size="10.00" fill="#000000"> +@121</text>
</g>
<!-- Node10 -->
<g id="node10" class="node">
<title>Node10</title>
<polygon fill="none" stroke="#bfbfbf" points="555,-485.5 555,-542.5 668,-542.5 668,-485.5 555,-485.5"/>
<text text-anchor="middle" x="611.5" y="-530.5" font-family="Helvetica,sans-Serif" font-size="10.00" fill="#000000">anonymous:+@131</text>
<polyline fill="none" stroke="#bfbfbf" points="555,-523.5 668,-523.5 "/>
<text text-anchor="middle" x="611.5" y="-511.5" font-family="Helvetica,sans-Serif" font-size="10.00" fill="#000000"> </text>
<polyline fill="none" stroke="#bfbfbf" points="555,-504.5 668,-504.5 "/>
<text text-anchor="middle" x="611.5" y="-492.5" font-family="Helvetica,sans-Serif" font-size="10.00" fill="#000000"> </text>
</g>
<!-- Node10&#45;&gt;Node3 -->
<g id="edge9" class="edge">
<title>Node10&#45;&gt;Node3</title>
<path fill="none" stroke="#404040" d="M606.7221,-485.4819C601.0233,-451.4672 591.1516,-392.5456 582.28,-339.593"/>
<polygon fill="none" stroke="#404040" points="582.2694,-339.5294 577.3329,-334.2729 580.2865,-327.6944 585.223,-332.9509 582.2694,-339.5294"/>
<text text-anchor="middle" x="622.5" y="-404" font-family="Helvetica,sans-Serif" font-size="10.00" fill="#000000"> +@131</text>
</g>
<!-- Node11 -->
<g id="node11" class="node">
<title>Node11</title>
<polygon fill="none" stroke="#bfbfbf" points="686,-485.5 686,-542.5 799,-542.5 799,-485.5 686,-485.5"/>
<text text-anchor="middle" x="742.5" y="-530.5" font-family="Helvetica,sans-Serif" font-size="10.00" fill="#000000">anonymous:+@123</text>
<polyline fill="none" stroke="#bfbfbf" points="686,-523.5 799,-523.5 "/>
<text text-anchor="middle" x="742.5" y="-511.5" font-family="Helvetica,sans-Serif" font-size="10.00" fill="#000000"> </text>
<polyline fill="none" stroke="#bfbfbf" points="686,-504.5 799,-504.5 "/>
<text text-anchor="middle" x="742.5" y="-492.5" font-family="Helvetica,sans-Serif" font-size="10.00" fill="#000000"> </text>
</g>
<!-- Node11&#45;&gt;Node3 -->
<g id="edge10" class="edge">
<title>Node11&#45;&gt;Node3</title>
<path fill="none" stroke="#404040" d="M727.144,-485.2911C708.8101,-451.4618 676.8103,-393.8045 646.5,-346 644.7631,-343.2606 642.9902,-340.496 641.1893,-337.7157"/>
<polygon fill="none" stroke="#404040" points="641.1369,-337.6355 634.503,-334.8084 634.5612,-327.5975 641.1951,-330.4246 641.1369,-337.6355"/>
<text text-anchor="middle" x="735.5" y="-404" font-family="Helvetica,sans-Serif" font-size="10.00" fill="#000000"> +@123</text>
</g>
<!-- Node12 -->
<g id="node12" class="node">
<title>Node12</title>
<polygon fill="none" stroke="#bfbfbf" points="817,-485.5 817,-542.5 930,-542.5 930,-485.5 817,-485.5"/>
<text text-anchor="middle" x="873.5" y="-530.5" font-family="Helvetica,sans-Serif" font-size="10.00" fill="#000000">anonymous:+@133</text>
<polyline fill="none" stroke="#bfbfbf" points="817,-523.5 930,-523.5 "/>
<text text-anchor="middle" x="873.5" y="-511.5" font-family="Helvetica,sans-Serif" font-size="10.00" fill="#000000"> </text>
<polyline fill="none" stroke="#bfbfbf" points="817,-504.5 930,-504.5 "/>
<text text-anchor="middle" x="873.5" y="-492.5" font-family="Helvetica,sans-Serif" font-size="10.00" fill="#000000"> </text>
</g>
<!-- Node12&#45;&gt;Node3 -->
<g id="edge11" class="edge">
<title>Node12&#45;&gt;Node3</title>
<path fill="none" stroke="#404040" d="M859.104,-485.3977C840.033,-449.5817 803.6055,-387.8525 759.5,-346 729.7004,-317.7227 692.0316,-292.9694 657.6982,-273.5012"/>
<polygon fill="none" stroke="#404040" points="657.6452,-273.4717 650.457,-274.0455 647.1625,-267.6309 654.3508,-267.0571 657.6452,-273.4717"/>
<text text-anchor="middle" x="867.5" y="-404" font-family="Helvetica,sans-Serif" font-size="10.00" fill="#000000"> +@133</text>
</g>
<!-- Node13 -->
<g id="node13" class="node">
<title>Node13</title>
<polygon fill="none" stroke="#bfbfbf" points="948,-485.5 948,-542.5 1061,-542.5 1061,-485.5 948,-485.5"/>
<text text-anchor="middle" x="1004.5" y="-530.5" font-family="Helvetica,sans-Serif" font-size="10.00" fill="#000000">anonymous:+@125</text>
<polyline fill="none" stroke="#bfbfbf" points="948,-523.5 1061,-523.5 "/>
<text text-anchor="middle" x="1004.5" y="-511.5" font-family="Helvetica,sans-Serif" font-size="10.00" fill="#000000"> </text>
<polyline fill="none" stroke="#bfbfbf" points="948,-504.5 1061,-504.5 "/>
<text text-anchor="middle" x="1004.5" y="-492.5" font-family="Helvetica,sans-Serif" font-size="10.00" fill="#000000"> </text>
</g>
<!-- Node13&#45;&gt;Node3 -->
<g id="edge12" class="edge">
<title>Node13&#45;&gt;Node3</title>
<path fill="none" stroke="#404040" d="M992.1365,-485.2341C974.7923,-448.0865 939.8551,-383.7372 891.5,-346 823.2541,-292.7396 728.9261,-262.008 658.9384,-245.2538"/>
<polygon fill="none" stroke="#404040" points="658.7333,-245.2061 651.9825,-247.7412 647.0459,-242.4848 653.7967,-239.9497 658.7333,-245.2061"/>
<text text-anchor="middle" x="1002.5" y="-404" font-family="Helvetica,sans-Serif" font-size="10.00" fill="#000000"> +@125</text>
</g>
<!-- Node14 -->
<g id="node14" class="node">
<title>Node14</title>
<polygon fill="none" stroke="#bfbfbf" points="1079,-485.5 1079,-542.5 1192,-542.5 1192,-485.5 1079,-485.5"/>
<text text-anchor="middle" x="1135.5" y="-530.5" font-family="Helvetica,sans-Serif" font-size="10.00" fill="#000000">anonymous:+@135</text>
<polyline fill="none" stroke="#bfbfbf" points="1079,-523.5 1192,-523.5 "/>
<text text-anchor="middle" x="1135.5" y="-511.5" font-family="Helvetica,sans-Serif" font-size="10.00" fill="#000000"> </text>
<polyline fill="none" stroke="#bfbfbf" points="1079,-504.5 1192,-504.5 "/>
<text text-anchor="middle" x="1135.5" y="-492.5" font-family="Helvetica,sans-Serif" font-size="10.00" fill="#000000"> </text>
</g>
<!-- Node14&#45;&gt;Node3 -->
<g id="edge13" class="edge">
<title>Node14&#45;&gt;Node3</title>
<path fill="none" stroke="#404040" d="M1124.7794,-485.4939C1109.0812,-447.7181 1076.1986,-381.699 1026.5,-346 968.1077,-304.0562 776.5995,-264.5964 658.9587,-243.4786"/>
<polygon fill="none" stroke="#404040" points="658.9221,-243.4721 652.3138,-246.3583 647.1079,-241.3683 653.7163,-238.4822 658.9221,-243.4721"/>
<text text-anchor="middle" x="1135.5" y="-404" font-family="Helvetica,sans-Serif" font-size="10.00" fill="#000000"> +@135</text>
</g>
<!-- Node15 -->
<g id="node15" class="node">
<title>Node15</title>
<polygon fill="none" stroke="#bfbfbf" points="1210,-485.5 1210,-542.5 1323,-542.5 1323,-485.5 1210,-485.5"/>
<text text-anchor="middle" x="1266.5" y="-530.5" font-family="Helvetica,sans-Serif" font-size="10.00" fill="#000000">anonymous:+@127</text>
<polyline fill="none" stroke="#bfbfbf" points="1210,-523.5 1323,-523.5 "/>
<text text-anchor="middle" x="1266.5" y="-511.5" font-family="Helvetica,sans-Serif" font-size="10.00" fill="#000000"> </text>
<polyline fill="none" stroke="#bfbfbf" points="1210,-504.5 1323,-504.5 "/>
<text text-anchor="middle" x="1266.5" y="-492.5" font-family="Helvetica,sans-Serif" font-size="10.00" fill="#000000"> </text>
</g>
<!-- Node15&#45;&gt;Node3 -->
<g id="edge14" class="edge">
<title>Node15&#45;&gt;Node3</title>
<path fill="none" stroke="#404040" d="M1256.5262,-485.4276C1241.6491,-447.2615 1209.8742,-380.4609 1159.5,-346 1079.3606,-291.1767 806.3224,-253.9268 659.2248,-237.3231"/>
<polygon fill="none" stroke="#404040" points="659.0505,-237.3038 652.6436,-240.6131 647.1246,-235.9718 653.5315,-232.6625 659.0505,-237.3038"/>
<text text-anchor="middle" x="1267.5" y="-404" font-family="Helvetica,sans-Serif" font-size="10.00" fill="#000000"> +@127</text>
</g>
</g>
</svg>
        <g id="navigator" transform="translate(0 0)" fill="#404254">
                <rect fill="#f2f5e9" fill-opacity="0.5" stroke="#606060" stroke-width=".5" x="0" y="0" width="60" height="60"/>
                <use id="zoomplus" xlink:href="#zoomPlus" x="17" y="9" onmousedown="handleZoom(evt,'in')"/>
                <use id="zoomminus" xlink:href="#zoomMin" x="42" y="9" onmousedown="handleZoom(evt,'out')"/>
                <use id="reset" xlink:href="#resetDef" x="30" y="36" onmousedown="handleReset()"/>
                <g id="arrowUp" xlink:href="#dirArrow" transform="translate(30 24)" onmousedown="handlePan(0,-1)">
                  <use xlink:href="#rim" fill="#404040">
                        <set attributeName="fill" to="#808080" begin="arrowUp.mouseover" end="arrowUp.mouseout"/>
                  </use>
                  <path fill="none" stroke="white" stroke-width="1.5" d="M0,-3.0v7 M-2.5,-0.5L0,-3.0L2.5,-0.5"/>
                </g>
                <g id="arrowRight" xlink:href="#dirArrow" transform="rotate(90) translate(36 -43)" onmousedown="handlePan(1,0)">
                  <use xlink:href="#rim" fill="#404040">
                        <set attributeName="fill" to="#808080" begin="arrowRight.mouseover" end="arrowRight.mouseout"/>
                  </use>
                  <path fill="none" stroke="white" stroke-width="1.5" d="M0,-3.0v7 M-2.5,-0.5L0,-3.0L2.5,-0.5"/>
                </g>
                <g id="arrowDown" xlink:href="#dirArrow" transform="rotate(180) translate(-30 -48)" onmousedown="handlePan(0,1)">
                  <use xlink:href="#rim" fill="#404040">
                        <set attributeName="fill" to="#808080" begin="arrowDown.mouseover" end="arrowDown.mouseout"/>
                  </use>
                  <path fill="none" stroke="white" stroke-width="1.5" d="M0,-3.0v7 M-2.5,-0.5L0,-3.0L2.5,-0.5"/>
                </g>
                <g id="arrowLeft" xlink:href="#dirArrow" transform="rotate(270) translate(-36 17)" onmousedown="handlePan(-1,0)">
                  <use xlink:href="#rim" fill="#404040">
                        <set attributeName="fill" to="#808080" begin="arrowLeft.mouseover" end="arrowLeft.mouseout"/>
                  </use>
                  <path fill="none" stroke="white" stroke-width="1.5" d="M0,-3.0v7 M-2.5,-0.5L0,-3.0L2.5,-0.5"/>
                </g>
        </g>
        <svg viewBox="0 0 15 15" width="100%" height="30px" preserveAspectRatio="xMaxYMin meet">
         <g id="arrow_out" transform="scale(0.3 0.3)">
          <a xlink:href="structo2_1_1emcal_1_1RawOutputPageHandler_1_1RawPageBuffer_1_1PageData__coll__graph_org.svg" target="_base">
           <rect id="button" ry="5" rx="5" y="6" x="6" height="38" width="38"
                fill="#f2f5e9" fill-opacity="0.5" stroke="#606060" stroke-width="1.0"/>
           <path id="arrow"
             d="M 11.500037,31.436501 C 11.940474,20.09759 22.043105,11.32322 32.158766,21.979434 L 37.068811,17.246167 C 37.068811,17.246167 37.088388,32 37.088388,32 L 22.160133,31.978069 C 22.160133,31.978069 26.997745,27.140456 26.997745,27.140456 C 18.528582,18.264221 13.291696,25.230495 11.500037,31.436501 z"
             style="fill:#404040;"/>
          </a>
         </g>
        </svg>
</svg>
