<?xml version="1.0" encoding="UTF-8" standalone="no"?>
<!DOCTYPE svg PUBLIC "-//W3C//DTD SVG 1.1//EN"
 "http://www.w3.org/Graphics/SVG/1.1/DTD/svg11.dtd">
<!-- Generated by graphviz version 2.40.1 (20161225.0304)
 -->
<!-- Title: /home/travis/build/AliceO2Group/AliceO2/Detectors/FIT/FT0/raw/src/DigitBlockFT0.cxx Pages: 1 -->
<svg width="2256pt" height="464pt"
 viewBox="0.00 0.00 2255.50 464.00" xmlns="http://www.w3.org/2000/svg" xmlns:xlink="http://www.w3.org/1999/xlink">
<g id="graph0" class="graph" transform="scale(1 1) rotate(0) translate(4 460)">
<title>/home/travis/build/AliceO2Group/AliceO2/Detectors/FIT/FT0/raw/src/DigitBlockFT0.cxx</title>
<!-- Node0 -->
<g id="node1" class="node">
<title>Node0</title>
<polygon fill="#bfbfbf" stroke="#000000" points="1264.5,-403.5 1264.5,-455.5 1391.5,-455.5 1391.5,-403.5 1264.5,-403.5"/>
<text text-anchor="start" x="1272.5" y="-443.5" font-family="Helvetica,sans-Serif" font-size="10.00" fill="#000000">/home/travis/build</text>
<text text-anchor="start" x="1272.5" y="-432.5" font-family="Helvetica,sans-Serif" font-size="10.00" fill="#000000">/AliceO2Group/AliceO2</text>
<text text-anchor="start" x="1272.5" y="-421.5" font-family="Helvetica,sans-Serif" font-size="10.00" fill="#000000">/Detectors/FIT/FT0/raw</text>
<text text-anchor="middle" x="1328" y="-410.5" font-family="Helvetica,sans-Serif" font-size="10.00" fill="#000000">/src/DigitBlockFT0.cxx</text>
</g>
<!-- Node1 -->
<g id="node2" class="node">
<title>Node1</title>
<g id="a_node2"><a xlink:href="../../da/d89/DigitBlockFT0_8h.html" target="_top" xlink:title="FT0Raw/DigitBlockFT0.h">
<polygon fill="none" stroke="#000000" points="1261,-347.5 1261,-366.5 1395,-366.5 1395,-347.5 1261,-347.5"/>
<text text-anchor="middle" x="1328" y="-354.5" font-family="Helvetica,sans-Serif" font-size="10.00" fill="#000000">FT0Raw/DigitBlockFT0.h</text>
</a>
</g>
</g>
<!-- Node0&#45;&gt;Node1 -->
<g id="edge1" class="edge">
<title>Node0&#45;&gt;Node1</title>
<path fill="none" stroke="#191970" d="M1328,-403.3258C1328,-394.5142 1328,-384.8397 1328,-376.621"/>
<polygon fill="#191970" stroke="#191970" points="1331.5001,-376.534 1328,-366.534 1324.5001,-376.534 1331.5001,-376.534"/>
</g>
<!-- Node2 -->
<g id="node3" class="node">
<title>Node2</title>
<polygon fill="none" stroke="#bfbfbf" points="1458,-118 1458,-137 1518,-137 1518,-118 1458,-118"/>
<text text-anchor="middle" x="1488" y="-125" font-family="Helvetica,sans-Serif" font-size="10.00" fill="#000000">iostream</text>
</g>
<!-- Node1&#45;&gt;Node2 -->
<g id="edge2" class="edge">
<title>Node1&#45;&gt;Node2</title>
<path fill="none" stroke="#191970" d="M1337.3641,-347.3394C1359.9823,-323.6344 1418.4902,-260.0634 1456,-199 1466.3103,-182.2155 1475.1976,-161.5352 1480.9715,-146.7408"/>
<polygon fill="#191970" stroke="#191970" points="1484.3356,-147.7398 1484.6014,-137.1483 1477.7887,-145.2623 1484.3356,-147.7398"/>
</g>
<!-- Node3 -->
<g id="node4" class="node">
<title>Node3</title>
<polygon fill="none" stroke="#bfbfbf" points="856.5,-235.5 856.5,-254.5 903.5,-254.5 903.5,-235.5 856.5,-235.5"/>
<text text-anchor="middle" x="880" y="-242.5" font-family="Helvetica,sans-Serif" font-size="10.00" fill="#000000">vector</text>
</g>
<!-- Node1&#45;&gt;Node3 -->
<g id="edge3" class="edge">
<title>Node1&#45;&gt;Node3</title>
<path fill="none" stroke="#191970" d="M1288.9493,-347.4709C1215.9964,-329.6278 1054.0789,-289.8303 918,-255 916.5543,-254.63 915.0783,-254.2502 913.5875,-253.8649"/>
<polygon fill="#191970" stroke="#191970" points="914.2632,-250.4242 903.7039,-251.2906 912.4988,-257.1982 914.2632,-250.4242"/>
</g>
<!-- Node4 -->
<g id="node5" class="node">
<title>Node4</title>
<polygon fill="none" stroke="#bfbfbf" points="2034,-291.5 2034,-310.5 2098,-310.5 2098,-291.5 2034,-291.5"/>
<text text-anchor="middle" x="2066" y="-298.5" font-family="Helvetica,sans-Serif" font-size="10.00" fill="#000000">algorithm</text>
</g>
<!-- Node1&#45;&gt;Node4 -->
<g id="edge4" class="edge">
<title>Node1&#45;&gt;Node4</title>
<path fill="none" stroke="#191970" d="M1395.1406,-355.8255C1519.1578,-352.9276 1792.2854,-343.1407 2020,-311 2021.2746,-310.8201 2022.5664,-310.6245 2023.8686,-310.4158"/>
<polygon fill="#191970" stroke="#191970" points="2024.7169,-313.8194 2033.9384,-308.6026 2023.4764,-306.9302 2024.7169,-313.8194"/>
</g>
<!-- Node5 -->
<g id="node6" class="node">
<title>Node5</title>
<polygon fill="none" stroke="#bfbfbf" points="860.5,-.5 860.5,-19.5 919.5,-19.5 919.5,-.5 860.5,-.5"/>
<text text-anchor="middle" x="890" y="-7.5" font-family="Helvetica,sans-Serif" font-size="10.00" fill="#000000">Rtypes.h</text>
</g>
<!-- Node1&#45;&gt;Node5 -->
<g id="edge5" class="edge">
<title>Node1&#45;&gt;Node5</title>
<path fill="none" stroke="#191970" d="M1260.8324,-353.7467C1020.9913,-341.6927 221,-297.5479 221,-245 221,-245 221,-245 221,-127.5 221,-63.2188 706.3246,-23.1982 850.2406,-12.7438"/>
<polygon fill="#191970" stroke="#191970" points="850.6672,-16.2223 860.3907,-12.0146 850.1656,-9.2403 850.6672,-16.2223"/>
</g>
<!-- Node6 -->
<g id="node7" class="node">
<title>Node6</title>
<g id="a_node7"><a xlink:href="../../d6/d84/DataBlockRaw_8h.html" target="_top" xlink:title="FT0Raw/DataBlockRaw.h">
<polygon fill="none" stroke="#000000" points="1521.5,-291.5 1521.5,-310.5 1658.5,-310.5 1658.5,-291.5 1521.5,-291.5"/>
<text text-anchor="middle" x="1590" y="-298.5" font-family="Helvetica,sans-Serif" font-size="10.00" fill="#000000">FT0Raw/DataBlockRaw.h</text>
</a>
</g>
</g>
<!-- Node1&#45;&gt;Node6 -->
<g id="edge6" class="edge">
<title>Node1&#45;&gt;Node6</title>
<path fill="none" stroke="#191970" d="M1372.7417,-347.4369C1417.7694,-337.8127 1487.2728,-322.957 1535.4927,-312.6504"/>
<polygon fill="#191970" stroke="#191970" points="1536.3953,-316.0366 1545.4428,-310.5237 1534.9321,-309.1912 1536.3953,-316.0366"/>
</g>
<!-- Node7 -->
<g id="node8" class="node">
<title>Node7</title>
<g id="a_node8"><a xlink:href="../../d9/d80/InteractionRecord_8h.html" target="_top" xlink:title="CommonDataFormat/Interaction\lRecord.h">
<polygon fill="none" stroke="#000000" points="1047,-112.5 1047,-142.5 1221,-142.5 1221,-112.5 1047,-112.5"/>
<text text-anchor="start" x="1055" y="-130.5" font-family="Helvetica,sans-Serif" font-size="10.00" fill="#000000">CommonDataFormat/Interaction</text>
<text text-anchor="middle" x="1134" y="-119.5" font-family="Helvetica,sans-Serif" font-size="10.00" fill="#000000">Record.h</text>
</a>
</g>
</g>
<!-- Node1&#45;&gt;Node7 -->
<g id="edge53" class="edge">
<title>Node1&#45;&gt;Node7</title>
<path fill="none" stroke="#191970" d="M1260.8256,-353.1259C1140.6862,-344.6138 896.8821,-319.615 847,-255 804.6353,-200.1227 843.7798,-220.6812 944,-179 978.1779,-164.7855 1017.4453,-153.3805 1051.3778,-144.9519"/>
<polygon fill="#191970" stroke="#191970" points="1052.3738,-148.3117 1061.2605,-142.5431 1050.7161,-141.5108 1052.3738,-148.3117"/>
</g>
<!-- Node14 -->
<g id="node15" class="node">
<title>Node14</title>
<g id="a_node15"><a xlink:href="../../d0/d0a/DataFormats_2Detectors_2FIT_2FT0_2include_2DataFormatsFT0_2Digit_8h.html" target="_top" xlink:title="DataFormatsFT0/Digit.h">
<polygon fill="none" stroke="#000000" points="630,-179.5 630,-198.5 762,-198.5 762,-179.5 630,-179.5"/>
<text text-anchor="middle" x="696" y="-186.5" font-family="Helvetica,sans-Serif" font-size="10.00" fill="#000000">DataFormatsFT0/Digit.h</text>
</a>
</g>
</g>
<!-- Node1&#45;&gt;Node14 -->
<g id="edge54" class="edge">
<title>Node1&#45;&gt;Node14</title>
<path fill="none" stroke="#191970" d="M1260.8289,-354.6854C1122.8049,-349.4576 816.7783,-335.265 776,-311 736.6271,-287.5712 712.9531,-236.3389 702.4507,-208.293"/>
<polygon fill="#191970" stroke="#191970" points="705.7171,-207.0321 699.0652,-198.7857 699.1227,-209.3803 705.7171,-207.0321"/>
</g>
<!-- Node20 -->
<g id="node21" class="node">
<title>Node20</title>
<g id="a_node21"><a xlink:href="../../dc/d44/FIT_2FT0_2include_2DataFormatsFT0_2ChannelData_8h.html" target="_top" xlink:title="DataFormatsFT0/ChannelData.h">
<polygon fill="none" stroke="#000000" points="857,-118 857,-137 1029,-137 1029,-118 857,-118"/>
<text text-anchor="middle" x="943" y="-125" font-family="Helvetica,sans-Serif" font-size="10.00" fill="#000000">DataFormatsFT0/ChannelData.h</text>
</a>
</g>
</g>
<!-- Node1&#45;&gt;Node20 -->
<g id="edge55" class="edge">
<title>Node1&#45;&gt;Node20</title>
<path fill="none" stroke="#191970" d="M1260.9188,-354.2195C1157.7603,-349.1963 965.4454,-336.6581 902,-311 858.8649,-293.5557 812.388,-278.0669 830,-235 847.0354,-193.3432 889.584,-160.4631 917.3352,-142.523"/>
<polygon fill="#191970" stroke="#191970" points="919.5037,-145.2947 926.121,-137.0206 915.7882,-139.3622 919.5037,-145.2947"/>
</g>
<!-- Node21 -->
<g id="node22" class="node">
<title>Node21</title>
<polygon fill="none" stroke="#bfbfbf" points="249.5,-118 249.5,-137 306.5,-137 306.5,-118 249.5,-118"/>
<text text-anchor="middle" x="278" y="-125" font-family="Helvetica,sans-Serif" font-size="10.00" fill="#000000">gsl/span</text>
</g>
<!-- Node1&#45;&gt;Node21 -->
<g id="edge59" class="edge">
<title>Node1&#45;&gt;Node21</title>
<path fill="none" stroke="#191970" d="M1260.8669,-354.1111C1129.8926,-348.0726 844.7308,-332.8406 749,-311 573.7201,-271.0105 377.3469,-177.5106 305.8897,-141.7531"/>
<polygon fill="#191970" stroke="#191970" points="307.1569,-138.4726 296.6511,-137.1024 304.0094,-144.7251 307.1569,-138.4726"/>
</g>
<!-- Node24 -->
<g id="node25" class="node">
<title>Node24</title>
<g id="a_node25"><a xlink:href="../../df/d27/LookUpTable_8h.html" target="_top" xlink:title="DataFormatsFT0/LookUpTable.h">
<polygon fill="none" stroke="#000000" points="1554.5,-179.5 1554.5,-198.5 1725.5,-198.5 1725.5,-179.5 1554.5,-179.5"/>
<text text-anchor="middle" x="1640" y="-186.5" font-family="Helvetica,sans-Serif" font-size="10.00" fill="#000000">DataFormatsFT0/LookUpTable.h</text>
</a>
</g>
</g>
<!-- Node1&#45;&gt;Node24 -->
<g id="edge56" class="edge">
<title>Node1&#45;&gt;Node24</title>
<path fill="none" stroke="#191970" d="M1395.0989,-351.6625C1555.3633,-338.219 1949.9066,-300.7512 1987,-255 1992.598,-248.0953 1992.8579,-241.6856 1987,-235 1970.5855,-216.2659 1832.8768,-202.6608 1735.965,-195.2989"/>
<polygon fill="#191970" stroke="#191970" points="1736.0699,-191.797 1725.8366,-194.5408 1735.5474,-198.7775 1736.0699,-191.797"/>
</g>
<!-- Node31 -->
<g id="node32" class="node">
<title>Node31</title>
<polygon fill="none" stroke="#bfbfbf" points="1858.5,-235.5 1858.5,-254.5 1977.5,-254.5 1977.5,-235.5 1858.5,-235.5"/>
<text text-anchor="middle" x="1918" y="-242.5" font-family="Helvetica,sans-Serif" font-size="10.00" fill="#000000">boost/mpl/vector.hpp</text>
</g>
<!-- Node1&#45;&gt;Node31 -->
<g id="edge57" class="edge">
<title>Node1&#45;&gt;Node31</title>
<path fill="none" stroke="#191970" d="M1395.2955,-350.322C1463.9883,-342.9321 1573.4985,-329.5645 1667,-311 1741.8372,-296.1413 1827.4908,-272.0625 1876.908,-257.4622"/>
<polygon fill="#191970" stroke="#191970" points="1878.0011,-260.7887 1886.5902,-254.5857 1876.0075,-254.0786 1878.0011,-260.7887"/>
</g>
<!-- Node33 -->
<g id="node34" class="node">
<title>Node33</title>
<polygon fill="none" stroke="#bfbfbf" points="2116.5,-291.5 2116.5,-310.5 2247.5,-310.5 2247.5,-291.5 2116.5,-291.5"/>
<text text-anchor="middle" x="2182" y="-298.5" font-family="Helvetica,sans-Serif" font-size="10.00" fill="#000000">boost/mpl/contains.hpp</text>
</g>
<!-- Node1&#45;&gt;Node33 -->
<g id="edge58" class="edge">
<title>Node1&#45;&gt;Node33</title>
<path fill="none" stroke="#191970" d="M1395.0781,-354.7026C1528.444,-349.7721 1836.5539,-336.5726 2106.2025,-311.0078"/>
<polygon fill="#191970" stroke="#191970" points="2106.5596,-314.4898 2116.1814,-310.0544 2105.8938,-307.5215 2106.5596,-314.4898"/>
</g>
<!-- Node6&#45;&gt;Node2 -->
<g id="edge7" class="edge">
<title>Node6&#45;&gt;Node2</title>
<path fill="none" stroke="#191970" d="M1574.558,-291.3884C1562.3349,-283.0823 1545.6101,-270.0611 1535,-255 1522.3602,-237.0577 1503.2661,-177.845 1493.7767,-146.831"/>
<polygon fill="#191970" stroke="#191970" points="1497.0938,-145.7083 1490.8471,-137.1509 1490.3939,-147.736 1497.0938,-145.7083"/>
</g>
<!-- Node6&#45;&gt;Node3 -->
<g id="edge8" class="edge">
<title>Node6&#45;&gt;Node3</title>
<path fill="none" stroke="#191970" d="M1521.4129,-297.9539C1374.334,-291.1525 1032.6716,-273.8393 918,-255 916.5275,-254.7581 915.0291,-254.4845 913.5201,-254.1864"/>
<polygon fill="#191970" stroke="#191970" points="914.093,-250.7277 903.5677,-251.9398 912.5516,-257.5559 914.093,-250.7277"/>
</g>
<!-- Node6&#45;&gt;Node5 -->
<g id="edge9" class="edge">
<title>Node6&#45;&gt;Node5</title>
<path fill="none" stroke="#191970" d="M1642.4413,-291.4769C1688.4558,-282.4651 1751.3173,-268.364 1773,-255 1805.9949,-234.6638 1830,-227.7585 1830,-189 1830,-189 1830,-189 1830,-127.5 1830,-35.2839 1108.4978,-14.4615 929.7131,-10.7174"/>
<polygon fill="#191970" stroke="#191970" points="929.754,-7.2176 919.6849,-10.5136 929.6116,-14.2162 929.754,-7.2176"/>
</g>
<!-- Node6&#45;&gt;Node7 -->
<g id="edge10" class="edge">
<title>Node6&#45;&gt;Node7</title>
<path fill="none" stroke="#191970" d="M1521.3331,-296.8801C1436.3994,-291.0374 1287.6409,-278.3608 1162,-255 1067.0328,-237.3424 1010.8491,-275.5987 952,-199 946.5846,-191.9512 946.6381,-186.0896 952,-179 963.0918,-164.3341 999.31,-152.6439 1036.5478,-144.1327"/>
<polygon fill="#191970" stroke="#191970" points="1037.5276,-147.5007 1046.538,-141.9272 1036.0185,-140.6653 1037.5276,-147.5007"/>
</g>
<!-- Node13 -->
<g id="node14" class="node">
<title>Node13</title>
<g id="a_node14"><a xlink:href="../../d1/dfe/RawEventData_8h.html" target="_top" xlink:title="DataFormatsFT0/RawEventData.h">
<polygon fill="none" stroke="#000000" points="1171.5,-235.5 1171.5,-254.5 1352.5,-254.5 1352.5,-235.5 1171.5,-235.5"/>
<text text-anchor="middle" x="1262" y="-242.5" font-family="Helvetica,sans-Serif" font-size="10.00" fill="#000000">DataFormatsFT0/RawEventData.h</text>
</a>
</g>
</g>
<!-- Node6&#45;&gt;Node13 -->
<g id="edge17" class="edge">
<title>Node6&#45;&gt;Node13</title>
<path fill="none" stroke="#191970" d="M1533.9875,-291.4369C1476.9094,-281.6918 1388.4158,-266.5832 1327.9776,-256.2645"/>
<polygon fill="#191970" stroke="#191970" points="1328.2279,-252.7566 1317.7815,-254.5237 1327.0498,-259.6568 1328.2279,-252.7566"/>
</g>
<!-- Node6&#45;&gt;Node21 -->
<g id="edge47" class="edge">
<title>Node6&#45;&gt;Node21</title>
<path fill="none" stroke="#191970" d="M1521.4758,-299.709C1409.4012,-296.7146 1180.2146,-286.8905 989,-255 954.1239,-249.1834 946.7308,-241.6292 912,-235 783.9917,-210.5665 749.8158,-218.7381 621,-199 484.3364,-178.0594 447.5307,-182.3838 315,-143 312.8303,-142.3552 310.6152,-141.6244 308.4011,-140.8397"/>
<polygon fill="#191970" stroke="#191970" points="309.435,-137.4872 298.8454,-137.1546 306.9163,-144.0184 309.435,-137.4872"/>
</g>
<!-- Node25 -->
<g id="node26" class="node">
<title>Node25</title>
<polygon fill="none" stroke="#bfbfbf" points="1674,-118 1674,-137 1726,-137 1726,-118 1674,-118"/>
<text text-anchor="middle" x="1700" y="-125" font-family="Helvetica,sans-Serif" font-size="10.00" fill="#000000">cassert</text>
</g>
<!-- Node6&#45;&gt;Node25 -->
<g id="edge52" class="edge">
<title>Node6&#45;&gt;Node25</title>
<path fill="none" stroke="#191970" d="M1641.001,-291.4369C1678.0527,-283.3317 1723.6137,-270.5578 1735,-255 1754.9491,-227.7425 1744.9322,-211.2845 1735,-179 1731.1547,-166.501 1723.1284,-154.315 1715.731,-144.9372"/>
<polygon fill="#191970" stroke="#191970" points="1718.3509,-142.6141 1709.2523,-137.1859 1712.98,-147.1033 1718.3509,-142.6141"/>
</g>
<!-- Node26 -->
<g id="node27" class="node">
<title>Node26</title>
<polygon fill="none" stroke="#bfbfbf" points="1755.5,-118 1755.5,-137 1796.5,-137 1796.5,-118 1755.5,-118"/>
<text text-anchor="middle" x="1776" y="-125" font-family="Helvetica,sans-Serif" font-size="10.00" fill="#000000">tuple</text>
</g>
<!-- Node6&#45;&gt;Node26 -->
<g id="edge50" class="edge">
<title>Node6&#45;&gt;Node26</title>
<path fill="none" stroke="#191970" d="M1647.2776,-291.4575C1688.2813,-283.4453 1738.6713,-270.7841 1753,-255 1779.974,-225.2863 1780.521,-175.0594 1778.3753,-147.3453"/>
<polygon fill="#191970" stroke="#191970" points="1781.8485,-146.899 1777.3971,-137.2847 1774.8813,-147.5765 1781.8485,-146.899"/>
</g>
<!-- Node30 -->
<g id="node31" class="node">
<title>Node30</title>
<polygon fill="none" stroke="#bfbfbf" points="1544.5,-235.5 1544.5,-254.5 1665.5,-254.5 1665.5,-235.5 1544.5,-235.5"/>
<text text-anchor="middle" x="1605" y="-242.5" font-family="Helvetica,sans-Serif" font-size="10.00" fill="#000000">boost/mpl/inherit.hpp</text>
</g>
<!-- Node6&#45;&gt;Node30 -->
<g id="edge48" class="edge">
<title>Node6&#45;&gt;Node30</title>
<path fill="none" stroke="#191970" d="M1592.6128,-291.2455C1594.5916,-283.8579 1597.3744,-273.4689 1599.8012,-264.4087"/>
<polygon fill="#191970" stroke="#191970" points="1603.2105,-265.2078 1602.4171,-254.6427 1596.4489,-263.3966 1603.2105,-265.2078"/>
</g>
<!-- Node6&#45;&gt;Node31 -->
<g id="edge49" class="edge">
<title>Node6&#45;&gt;Node31</title>
<path fill="none" stroke="#191970" d="M1646.0125,-291.4369C1703.0906,-281.6918 1791.5842,-266.5832 1852.0224,-256.2645"/>
<polygon fill="#191970" stroke="#191970" points="1852.9502,-259.6568 1862.2185,-254.5237 1851.7721,-252.7566 1852.9502,-259.6568"/>
</g>
<!-- Node32 -->
<g id="node33" class="node">
<title>Node32</title>
<polygon fill="none" stroke="#bfbfbf" points="1684,-235.5 1684,-254.5 1726,-254.5 1726,-235.5 1684,-235.5"/>
<text text-anchor="middle" x="1705" y="-242.5" font-family="Helvetica,sans-Serif" font-size="10.00" fill="#000000">array</text>
</g>
<!-- Node6&#45;&gt;Node32 -->
<g id="edge51" class="edge">
<title>Node6&#45;&gt;Node32</title>
<path fill="none" stroke="#191970" d="M1609.7692,-291.3733C1628.1469,-282.4241 1655.7312,-268.9917 1676.4893,-258.8835"/>
<polygon fill="#191970" stroke="#191970" points="1678.0304,-262.026 1685.4888,-254.5011 1674.9657,-255.7325 1678.0304,-262.026"/>
</g>
<!-- Node8 -->
<g id="node9" class="node">
<title>Node8</title>
<g id="a_node9"><a xlink:href="../../d2/d45/GPUCommonRtypes_8h.html" target="_top" xlink:title="GPUCommonRtypes.h">
<polygon fill="none" stroke="#000000" points="654.5,-56.5 654.5,-75.5 779.5,-75.5 779.5,-56.5 654.5,-56.5"/>
<text text-anchor="middle" x="717" y="-63.5" font-family="Helvetica,sans-Serif" font-size="10.00" fill="#000000">GPUCommonRtypes.h</text>
</a>
</g>
</g>
<!-- Node7&#45;&gt;Node8 -->
<g id="edge11" class="edge">
<title>Node7&#45;&gt;Node8</title>
<path fill="none" stroke="#191970" d="M1046.8897,-113.3662C1043.8907,-112.9016 1040.9207,-112.445 1038,-112 952.944,-99.0402 855.044,-85.1605 789.9467,-76.0777"/>
<polygon fill="#191970" stroke="#191970" points="790.175,-72.5757 779.7876,-74.662 789.2088,-79.5087 790.175,-72.5757"/>
</g>
<!-- Node9 -->
<g id="node10" class="node">
<title>Node9</title>
<polygon fill="none" stroke="#bfbfbf" points="983.5,-56.5 983.5,-75.5 1032.5,-75.5 1032.5,-56.5 983.5,-56.5"/>
<text text-anchor="middle" x="1008" y="-63.5" font-family="Helvetica,sans-Serif" font-size="10.00" fill="#000000">iosfwd</text>
</g>
<!-- Node7&#45;&gt;Node9 -->
<g id="edge13" class="edge">
<title>Node7&#45;&gt;Node9</title>
<path fill="none" stroke="#191970" d="M1103.1769,-112.4554C1082.8912,-102.554 1056.5212,-89.683 1036.6838,-80.0004"/>
<polygon fill="#191970" stroke="#191970" points="1038.0474,-76.7714 1027.5255,-75.5303 1034.977,-83.062 1038.0474,-76.7714"/>
</g>
<!-- Node10 -->
<g id="node11" class="node">
<title>Node10</title>
<polygon fill="none" stroke="#bfbfbf" points="918.5,-56.5 918.5,-75.5 965.5,-75.5 965.5,-56.5 918.5,-56.5"/>
<text text-anchor="middle" x="942" y="-63.5" font-family="Helvetica,sans-Serif" font-size="10.00" fill="#000000">cmath</text>
</g>
<!-- Node7&#45;&gt;Node10 -->
<g id="edge14" class="edge">
<title>Node7&#45;&gt;Node10</title>
<path fill="none" stroke="#191970" d="M1087.0315,-112.4554C1052.5205,-101.4011 1006.4533,-86.6452 975.5844,-76.7575"/>
<polygon fill="#191970" stroke="#191970" points="976.3281,-73.3206 965.737,-73.6033 974.1927,-79.987 976.3281,-73.3206"/>
</g>
<!-- Node11 -->
<g id="node12" class="node">
<title>Node11</title>
<polygon fill="none" stroke="#bfbfbf" points="1259,-56.5 1259,-75.5 1309,-75.5 1309,-56.5 1259,-56.5"/>
<text text-anchor="middle" x="1284" y="-63.5" font-family="Helvetica,sans-Serif" font-size="10.00" fill="#000000">cstdint</text>
</g>
<!-- Node7&#45;&gt;Node11 -->
<g id="edge15" class="edge">
<title>Node7&#45;&gt;Node11</title>
<path fill="none" stroke="#191970" d="M1170.6941,-112.4554C1195.3927,-102.329 1227.6674,-89.0964 1251.4506,-79.3453"/>
<polygon fill="#191970" stroke="#191970" points="1252.8306,-82.5623 1260.7553,-75.5303 1250.175,-76.0855 1252.8306,-82.5623"/>
</g>
<!-- Node12 -->
<g id="node13" class="node">
<title>Node12</title>
<g id="a_node13"><a xlink:href="../../d4/dc6/LHCConstants_8h.html" target="_top" xlink:title="Header to collect LHC related constants. ">
<polygon fill="none" stroke="#000000" points="1051,-56.5 1051,-75.5 1241,-75.5 1241,-56.5 1051,-56.5"/>
<text text-anchor="middle" x="1146" y="-63.5" font-family="Helvetica,sans-Serif" font-size="10.00" fill="#000000">CommonConstants/LHCConstants.h</text>
</a>
</g>
</g>
<!-- Node7&#45;&gt;Node12 -->
<g id="edge16" class="edge">
<title>Node7&#45;&gt;Node12</title>
<path fill="none" stroke="#191970" d="M1136.9663,-112.2977C1138.5279,-104.2945 1140.4616,-94.3843 1142.1388,-85.7889"/>
<polygon fill="#191970" stroke="#191970" points="1145.5987,-86.3322 1144.0786,-75.8469 1138.7282,-84.9915 1145.5987,-86.3322"/>
</g>
<!-- Node8&#45;&gt;Node5 -->
<g id="edge12" class="edge">
<title>Node8&#45;&gt;Node5</title>
<path fill="none" stroke="#191970" d="M746.7398,-56.3733C775.507,-47.0613 819.27,-32.8953 850.8556,-22.671"/>
<polygon fill="#191970" stroke="#191970" points="852.2122,-25.9107 860.6483,-19.5011 850.0564,-19.251 852.2122,-25.9107"/>
</g>
<!-- Node13&#45;&gt;Node2 -->
<g id="edge43" class="edge">
<title>Node13&#45;&gt;Node2</title>
<path fill="none" stroke="#191970" d="M1333.9115,-235.4589C1365.298,-228.8285 1401.3844,-217.6772 1430,-199 1450.5878,-185.5625 1467.3739,-162.461 1477.4945,-146.1593"/>
<polygon fill="#191970" stroke="#191970" points="1480.558,-147.8553 1482.6615,-137.4713 1474.5416,-144.2771 1480.558,-147.8553"/>
</g>
<!-- Node13&#45;&gt;Node5 -->
<g id="edge46" class="edge">
<title>Node13&#45;&gt;Node5</title>
<path fill="none" stroke="#191970" d="M1285.7859,-235.4178C1300.8669,-227.9442 1319.1462,-215.9629 1328,-199 1346.9779,-162.6404 1421.0457,-161.7543 1318,-56 1291.1769,-28.4718 1031.0777,-15.4815 929.9417,-11.4407"/>
<polygon fill="#191970" stroke="#191970" points="929.948,-7.9383 919.8189,-11.045 929.6745,-14.933 929.948,-7.9383"/>
</g>
<!-- Node13&#45;&gt;Node7 -->
<g id="edge41" class="edge">
<title>Node13&#45;&gt;Node7</title>
<path fill="none" stroke="#191970" d="M1171.49,-237.1565C1087.6229,-228.9494 973.782,-215.0402 960,-199 954.2071,-192.258 954.6808,-186.1217 960,-179 970.4685,-164.9842 1004.6012,-153.4367 1039.8958,-144.8537"/>
<polygon fill="#191970" stroke="#191970" points="1040.9285,-148.2065 1049.8628,-142.5119 1039.3273,-141.3921 1040.9285,-148.2065"/>
</g>
<!-- Node13&#45;&gt;Node14 -->
<g id="edge18" class="edge">
<title>Node13&#45;&gt;Node14</title>
<path fill="none" stroke="#191970" d="M1171.3762,-236.0337C1060.7588,-225.0892 875.6797,-206.7775 772.1062,-196.5299"/>
<polygon fill="#191970" stroke="#191970" points="772.3323,-193.0353 762.0362,-195.5336 771.643,-200.0013 772.3323,-193.0353"/>
</g>
<!-- Node13&#45;&gt;Node20 -->
<g id="edge33" class="edge">
<title>Node13&#45;&gt;Node20</title>
<path fill="none" stroke="#191970" d="M1171.1379,-237.0872C1085.2414,-228.7254 967.2657,-214.6068 952,-199 938.9211,-185.6288 938.0486,-163.4906 939.5862,-147.385"/>
<polygon fill="#191970" stroke="#191970" points="943.0678,-147.7545 940.9154,-137.3806 936.1288,-146.8326 943.0678,-147.7545"/>
</g>
<!-- Node23 -->
<g id="node24" class="node">
<title>Node23</title>
<g id="a_node24"><a xlink:href="../../d4/d78/DataFormats_2Headers_2include_2Headers_2RAWDataHeader_8h.html" target="_top" xlink:title="Headers/RAWDataHeader.h">
<polygon fill="none" stroke="#000000" points="969.5,-179.5 969.5,-198.5 1118.5,-198.5 1118.5,-179.5 969.5,-179.5"/>
<text text-anchor="middle" x="1044" y="-186.5" font-family="Helvetica,sans-Serif" font-size="10.00" fill="#000000">Headers/RAWDataHeader.h</text>
</a>
</g>
</g>
<!-- Node13&#45;&gt;Node23 -->
<g id="edge34" class="edge">
<title>Node13&#45;&gt;Node23</title>
<path fill="none" stroke="#191970" d="M1224.5245,-235.3733C1187.4897,-225.8598 1130.7318,-211.2797 1090.7639,-201.0127"/>
<polygon fill="#191970" stroke="#191970" points="1091.5429,-197.5993 1080.9865,-198.5011 1089.8012,-204.3792 1091.5429,-197.5993"/>
</g>
<!-- Node13&#45;&gt;Node24 -->
<g id="edge36" class="edge">
<title>Node13&#45;&gt;Node24</title>
<path fill="none" stroke="#191970" d="M1326.551,-235.4369C1392.8737,-225.6113 1496.0016,-210.3331 1565.6851,-200.0096"/>
<polygon fill="#191970" stroke="#191970" points="1566.3361,-203.4515 1575.7152,-198.5237 1565.3102,-196.527 1566.3361,-203.4515"/>
</g>
<!-- Node27 -->
<g id="node28" class="node">
<title>Node27</title>
<g id="a_node28"><a xlink:href="../../dd/da4/Logger_8h.html" target="_top" xlink:title="Framework/Logger.h">
<polygon fill="none" stroke="#000000" points="1204.5,-179.5 1204.5,-198.5 1319.5,-198.5 1319.5,-179.5 1204.5,-179.5"/>
<text text-anchor="middle" x="1262" y="-186.5" font-family="Helvetica,sans-Serif" font-size="10.00" fill="#000000">Framework/Logger.h</text>
</a>
</g>
</g>
<!-- Node13&#45;&gt;Node27 -->
<g id="edge42" class="edge">
<title>Node13&#45;&gt;Node27</title>
<path fill="none" stroke="#191970" d="M1262,-235.2455C1262,-227.9382 1262,-217.6944 1262,-208.7046"/>
<polygon fill="#191970" stroke="#191970" points="1265.5001,-208.6426 1262,-198.6427 1258.5001,-208.6427 1265.5001,-208.6426"/>
</g>
<!-- Node28 -->
<g id="node29" class="node">
<title>Node28</title>
<polygon fill="none" stroke="#bfbfbf" points="1376.5,-179.5 1376.5,-198.5 1421.5,-198.5 1421.5,-179.5 1376.5,-179.5"/>
<text text-anchor="middle" x="1399" y="-186.5" font-family="Helvetica,sans-Serif" font-size="10.00" fill="#000000">utility</text>
</g>
<!-- Node13&#45;&gt;Node28 -->
<g id="edge44" class="edge">
<title>Node13&#45;&gt;Node28</title>
<path fill="none" stroke="#191970" d="M1285.5511,-235.3733C1307.9741,-226.2077 1341.902,-212.3393 1366.8149,-202.156"/>
<polygon fill="#191970" stroke="#191970" points="1368.2792,-205.3386 1376.2114,-198.315 1365.6305,-198.859 1368.2792,-205.3386"/>
</g>
<!-- Node29 -->
<g id="node30" class="node">
<title>Node29</title>
<polygon fill="none" stroke="#bfbfbf" points="1136,-179.5 1136,-198.5 1186,-198.5 1186,-179.5 1136,-179.5"/>
<text text-anchor="middle" x="1161" y="-186.5" font-family="Helvetica,sans-Serif" font-size="10.00" fill="#000000">cstring</text>
</g>
<!-- Node13&#45;&gt;Node29 -->
<g id="edge45" class="edge">
<title>Node13&#45;&gt;Node29</title>
<path fill="none" stroke="#191970" d="M1244.4071,-235.2455C1228.621,-226.4928 1205.2361,-213.527 1187.2413,-203.5496"/>
<polygon fill="#191970" stroke="#191970" points="1188.8341,-200.4308 1178.3913,-198.6427 1185.4397,-206.5528 1188.8341,-200.4308"/>
</g>
<!-- Node14&#45;&gt;Node2 -->
<g id="edge32" class="edge">
<title>Node14&#45;&gt;Node2</title>
<path fill="none" stroke="#191970" d="M762.1632,-183.8623C920.91,-171.5354 1319.7065,-140.5682 1447.7498,-130.6255"/>
<polygon fill="#191970" stroke="#191970" points="1448.1964,-134.1014 1457.8954,-129.8377 1447.6544,-127.1224 1448.1964,-134.1014"/>
</g>
<!-- Node14&#45;&gt;Node5 -->
<g id="edge29" class="edge">
<title>Node14&#45;&gt;Node5</title>
<path fill="none" stroke="#191970" d="M736.8691,-179.4639C760.2733,-172.4114 789.0568,-160.8706 810,-143 847.0782,-111.3616 871.7003,-58.0294 882.9567,-29.4579"/>
<polygon fill="#191970" stroke="#191970" points="886.3395,-30.4081 886.6144,-19.8169 879.7947,-27.925 886.3395,-30.4081"/>
</g>
<!-- Node14&#45;&gt;Node7 -->
<g id="edge19" class="edge">
<title>Node14&#45;&gt;Node7</title>
<path fill="none" stroke="#191970" d="M762.2753,-180.6121C829.005,-172.0473 935.1733,-158.0961 1036.7628,-143.1617"/>
<polygon fill="#191970" stroke="#191970" points="1037.5127,-146.589 1046.8946,-141.6667 1036.4908,-139.664 1037.5127,-146.589"/>
</g>
<!-- Node15 -->
<g id="node16" class="node">
<title>Node15</title>
<g id="a_node16"><a xlink:href="../../de/d64/RangeReference_8h.html" target="_top" xlink:title="Class to refer to the 1st entry and N elements of some group in the continuous container. ">
<polygon fill="none" stroke="#000000" points="591,-118 591,-137 801,-137 801,-118 591,-118"/>
<text text-anchor="middle" x="696" y="-125" font-family="Helvetica,sans-Serif" font-size="10.00" fill="#000000">CommonDataFormat/RangeReference.h</text>
</a>
</g>
</g>
<!-- Node14&#45;&gt;Node15 -->
<g id="edge20" class="edge">
<title>Node14&#45;&gt;Node15</title>
<path fill="none" stroke="#191970" d="M696,-179.3906C696,-170.8657 696,-158.1392 696,-147.4235"/>
<polygon fill="#191970" stroke="#191970" points="699.5001,-147.2448 696,-137.2449 692.5001,-147.2449 699.5001,-147.2448"/>
</g>
<!-- Node16 -->
<g id="node17" class="node">
<title>Node16</title>
<g id="a_node17"><a xlink:href="../../df/d5d/common_2include_2CommonDataFormat_2TimeStamp_8h.html" target="_top" xlink:title="CommonDataFormat/TimeStamp.h">
<polygon fill="none" stroke="#000000" points="324.5,-118 324.5,-137 511.5,-137 511.5,-118 324.5,-118"/>
<text text-anchor="middle" x="418" y="-125" font-family="Helvetica,sans-Serif" font-size="10.00" fill="#000000">CommonDataFormat/TimeStamp.h</text>
</a>
</g>
</g>
<!-- Node14&#45;&gt;Node16 -->
<g id="edge22" class="edge">
<title>Node14&#45;&gt;Node16</title>
<path fill="none" stroke="#191970" d="M652.8675,-179.4581C603.8672,-168.6181 523.8767,-150.9224 471.0861,-139.2439"/>
<polygon fill="#191970" stroke="#191970" points="471.7536,-135.807 461.2337,-137.0643 470.2416,-142.6417 471.7536,-135.807"/>
</g>
<!-- Node14&#45;&gt;Node20 -->
<g id="edge27" class="edge">
<title>Node14&#45;&gt;Node20</title>
<path fill="none" stroke="#191970" d="M734.3227,-179.4581C777.497,-168.7082 847.7495,-151.2162 894.6584,-139.5365"/>
<polygon fill="#191970" stroke="#191970" points="895.7293,-142.8768 904.5874,-137.0643 894.038,-136.0842 895.7293,-142.8768"/>
</g>
<!-- Node14&#45;&gt;Node21 -->
<g id="edge30" class="edge">
<title>Node14&#45;&gt;Node21</title>
<path fill="none" stroke="#191970" d="M629.6492,-180.6786C625.0303,-180.1078 620.4459,-179.5437 616,-179 482.2652,-162.6443 445.2763,-177.3597 315,-143 312.5252,-142.3473 309.9984,-141.5625 307.4856,-140.6971"/>
<polygon fill="#191970" stroke="#191970" points="308.5932,-137.3735 298.0027,-137.0682 306.0913,-143.9112 308.5932,-137.3735"/>
</g>
<!-- Node22 -->
<g id="node23" class="node">
<title>Node22</title>
<polygon fill="none" stroke="#bfbfbf" points="529,-118 529,-137 573,-137 573,-118 529,-118"/>
<text text-anchor="middle" x="551" y="-125" font-family="Helvetica,sans-Serif" font-size="10.00" fill="#000000">bitset</text>
</g>
<!-- Node14&#45;&gt;Node22 -->
<g id="edge31" class="edge">
<title>Node14&#45;&gt;Node22</title>
<path fill="none" stroke="#191970" d="M670.398,-179.3454C647.1301,-170.4117 611.9622,-156.5094 582,-143 580.9852,-142.5424 579.9552,-142.0701 578.9174,-141.5874"/>
<polygon fill="#191970" stroke="#191970" points="580.1002,-138.2724 569.5717,-137.0882 577.0638,-144.5796 580.1002,-138.2724"/>
</g>
<!-- Node15&#45;&gt;Node8 -->
<g id="edge21" class="edge">
<title>Node15&#45;&gt;Node8</title>
<path fill="none" stroke="#191970" d="M699.2813,-117.8906C702.2535,-109.1862 706.7214,-96.1015 710.427,-85.2494"/>
<polygon fill="#191970" stroke="#191970" points="713.7532,-86.3394 713.6725,-75.7449 707.1288,-84.0773 713.7532,-86.3394"/>
</g>
<!-- Node16&#45;&gt;Node8 -->
<g id="edge23" class="edge">
<title>Node16&#45;&gt;Node8</title>
<path fill="none" stroke="#191970" d="M464.3907,-117.9581C517.3116,-107.073 603.8414,-89.2751 660.6106,-77.5985"/>
<polygon fill="#191970" stroke="#191970" points="661.4107,-81.0073 670.5005,-75.5643 660.0004,-74.1508 661.4107,-81.0073"/>
</g>
<!-- Node17 -->
<g id="node18" class="node">
<title>Node17</title>
<g id="a_node18"><a xlink:href="../../df/d21/GPUCommonDef_8h.html" target="_top" xlink:title="GPUCommonDef.h">
<polygon fill="none" stroke="#000000" points="85.5,-56.5 85.5,-75.5 192.5,-75.5 192.5,-56.5 85.5,-56.5"/>
<text text-anchor="middle" x="139" y="-63.5" font-family="Helvetica,sans-Serif" font-size="10.00" fill="#000000">GPUCommonDef.h</text>
</a>
</g>
</g>
<!-- Node16&#45;&gt;Node17 -->
<g id="edge24" class="edge">
<title>Node16&#45;&gt;Node17</title>
<path fill="none" stroke="#191970" d="M374.7124,-117.9581C325.5358,-107.1181 245.2576,-89.4224 192.277,-77.7439"/>
<polygon fill="#191970" stroke="#191970" points="192.9082,-74.299 182.3892,-75.5643 191.4013,-81.1349 192.9082,-74.299"/>
</g>
<!-- Node18 -->
<g id="node19" class="node">
<title>Node18</title>
<g id="a_node19"><a xlink:href="../../d5/d93/GPUCommonDefSettings_8h.html" target="_top" xlink:title="GPUCommonDefSettings.h">
<polygon fill="none" stroke="#000000" points="142,-.5 142,-19.5 290,-19.5 290,-.5 142,-.5"/>
<text text-anchor="middle" x="216" y="-7.5" font-family="Helvetica,sans-Serif" font-size="10.00" fill="#000000">GPUCommonDefSettings.h</text>
</a>
</g>
</g>
<!-- Node17&#45;&gt;Node18 -->
<g id="edge25" class="edge">
<title>Node17&#45;&gt;Node18</title>
<path fill="none" stroke="#191970" d="M152.4124,-56.2455C164.0057,-47.814 180.9748,-35.4729 194.4678,-25.6598"/>
<polygon fill="#191970" stroke="#191970" points="196.7126,-28.355 202.7413,-19.6427 192.5953,-22.6938 196.7126,-28.355"/>
</g>
<!-- Node19 -->
<g id="node20" class="node">
<title>Node19</title>
<g id="a_node20"><a xlink:href="../../da/d5a/GPUCommonDefAPI_8h.html" target="_top" xlink:title="GPUCommonDefAPI.h">
<polygon fill="none" stroke="#000000" points="0,-.5 0,-19.5 124,-19.5 124,-.5 0,-.5"/>
<text text-anchor="middle" x="62" y="-7.5" font-family="Helvetica,sans-Serif" font-size="10.00" fill="#000000">GPUCommonDefAPI.h</text>
</a>
</g>
</g>
<!-- Node17&#45;&gt;Node19 -->
<g id="edge26" class="edge">
<title>Node17&#45;&gt;Node19</title>
<path fill="none" stroke="#191970" d="M125.5876,-56.2455C113.9943,-47.814 97.0252,-35.4729 83.5322,-25.6598"/>
<polygon fill="#191970" stroke="#191970" points="85.4047,-22.6938 75.2587,-19.6427 81.2874,-28.355 85.4047,-22.6938"/>
</g>
<!-- Node20&#45;&gt;Node5 -->
<g id="edge28" class="edge">
<title>Node20&#45;&gt;Node5</title>
<path fill="none" stroke="#191970" d="M935.2694,-117.7727C927.663,-107.793 916.1756,-91.5678 909,-76 902.137,-61.1105 897.1651,-43.1755 894.0328,-29.7619"/>
<polygon fill="#191970" stroke="#191970" points="897.3926,-28.743 891.8331,-19.724 890.5549,-30.2415 897.3926,-28.743"/>
</g>
<!-- Node23&#45;&gt;Node11 -->
<g id="edge35" class="edge">
<title>Node23&#45;&gt;Node11</title>
<path fill="none" stroke="#191970" d="M1100.8253,-179.4691C1147.4842,-170.829 1209.1464,-157.2919 1230,-143 1251.1662,-128.4938 1266.6955,-102.7796 1275.532,-85.0853"/>
<polygon fill="#191970" stroke="#191970" points="1278.8408,-86.2755 1279.9535,-75.7392 1272.5132,-83.282 1278.8408,-86.2755"/>
</g>
<!-- Node24&#45;&gt;Node2 -->
<g id="edge39" class="edge">
<title>Node24&#45;&gt;Node2</title>
<path fill="none" stroke="#191970" d="M1616.25,-179.3906C1590.7061,-169.0554 1549.8991,-152.5447 1521.189,-140.9284"/>
<polygon fill="#191970" stroke="#191970" points="1522.166,-137.5481 1511.5832,-137.0419 1519.5404,-144.0371 1522.166,-137.5481"/>
</g>
<!-- Node24&#45;&gt;Node5 -->
<g id="edge37" class="edge">
<title>Node24&#45;&gt;Node5</title>
<path fill="none" stroke="#191970" d="M1628.1371,-179.2977C1608.2608,-163.4258 1566.5135,-131.7085 1527,-112 1457.7001,-77.4347 1437.7052,-72.3081 1362,-56 1204.317,-22.0327 1011.5474,-13.1143 929.742,-10.7991"/>
<polygon fill="#191970" stroke="#191970" points="929.7259,-7.2975 919.6367,-10.5311 929.5403,-14.295 929.7259,-7.2975"/>
</g>
<!-- Node24&#45;&gt;Node25 -->
<g id="edge38" class="edge">
<title>Node24&#45;&gt;Node25</title>
<path fill="none" stroke="#191970" d="M1649.375,-179.3906C1658.4799,-170.0581 1672.4974,-155.6902 1683.4757,-144.4374"/>
<polygon fill="#191970" stroke="#191970" points="1686.0148,-146.8468 1690.4928,-137.2449 1681.0043,-141.9586 1686.0148,-146.8468"/>
</g>
<!-- Node24&#45;&gt;Node26 -->
<g id="edge40" class="edge">
<title>Node24&#45;&gt;Node26</title>
<path fill="none" stroke="#191970" d="M1661.25,-179.3906C1684.038,-169.0858 1720.4022,-152.6416 1746.078,-141.0309"/>
<polygon fill="#191970" stroke="#191970" points="1747.675,-144.15 1755.3445,-136.8405 1744.7907,-137.7718 1747.675,-144.15"/>
</g>
</g>
</svg>
