<?xml version="1.0" encoding="UTF-8" standalone="no"?>
<!DOCTYPE svg PUBLIC "-//W3C//DTD SVG 1.1//EN"
 "http://www.w3.org/Graphics/SVG/1.1/DTD/svg11.dtd">
<!-- Generated by graphviz version 2.40.1 (20161225.0304)
 -->
<!-- Title: /home/travis/build/AliceO2Group/AliceO2/Analysis/DataModel/include/PID/PIDTOF.h Pages: 1 -->
<svg width="409pt" height="184pt"
 viewBox="0.00 0.00 409.23 184.00" xmlns="http://www.w3.org/2000/svg" xmlns:xlink="http://www.w3.org/1999/xlink">
<g id="graph0" class="graph" transform="scale(1 1) rotate(0) translate(4 180)">
<title>/home/travis/build/AliceO2Group/AliceO2/Analysis/DataModel/include/PID/PIDTOF.h</title>
<!-- Node0 -->
<g id="node1" class="node">
<title>Node0</title>
<polygon fill="#bfbfbf" stroke="#000000" points="16.2251,-123.5 16.2251,-175.5 171.2251,-175.5 171.2251,-123.5 16.2251,-123.5"/>
<text text-anchor="start" x="24.2251" y="-163.5" font-family="Helvetica,sans-Serif" font-size="10.00" fill="#000000">/home/travis/build</text>
<text text-anchor="start" x="24.2251" y="-152.5" font-family="Helvetica,sans-Serif" font-size="10.00" fill="#000000">/AliceO2Group/AliceO2</text>
<text text-anchor="start" x="24.2251" y="-141.5" font-family="Helvetica,sans-Serif" font-size="10.00" fill="#000000">/Analysis/DataModel/include</text>
<text text-anchor="middle" x="93.7251" y="-130.5" font-family="Helvetica,sans-Serif" font-size="10.00" fill="#000000">/PID/PIDTOF.h</text>
</g>
<!-- Node1 -->
<g id="node2" class="node">
<title>Node1</title>
<polygon fill="none" stroke="#bfbfbf" points="37.2251,-.5 37.2251,-19.5 96.2251,-19.5 96.2251,-.5 37.2251,-.5"/>
<text text-anchor="middle" x="66.7251" y="-7.5" font-family="Helvetica,sans-Serif" font-size="10.00" fill="#000000">Rtypes.h</text>
</g>
<!-- Node0&#45;&gt;Node1 -->
<g id="edge1" class="edge">
<title>Node0&#45;&gt;Node1</title>
<path fill="none" stroke="#191970" d="M39.4094,-123.4454C25.5921,-114.0076 12.4741,-101.9105 4.7251,-87 -1.6284,-74.7746 -1.4684,-68.3072 4.7251,-56 11.3988,-42.7387 23.9044,-32.3415 35.9459,-24.8125"/>
<polygon fill="#191970" stroke="#191970" points="38.0453,-27.6422 44.9593,-19.6143 34.5481,-21.5783 38.0453,-27.6422"/>
</g>
<!-- Node2 -->
<g id="node3" class="node">
<title>Node2</title>
<polygon fill="none" stroke="#bfbfbf" points="13.7251,-62 13.7251,-81 69.7251,-81 69.7251,-62 13.7251,-62"/>
<text text-anchor="middle" x="41.7251" y="-69" font-family="Helvetica,sans-Serif" font-size="10.00" fill="#000000">TMath.h</text>
</g>
<!-- Node0&#45;&gt;Node2 -->
<g id="edge2" class="edge">
<title>Node0&#45;&gt;Node2</title>
<path fill="none" stroke="#191970" d="M76.1203,-123.0928C68.7966,-112.1073 60.4775,-99.6285 53.8554,-89.6954"/>
<polygon fill="#191970" stroke="#191970" points="56.5736,-87.4629 48.1144,-81.0839 50.7492,-91.3459 56.5736,-87.4629"/>
</g>
<!-- Node3 -->
<g id="node4" class="node">
<title>Node3</title>
<g id="a_node4"><a xlink:href="../../dd/da4/Logger_8h.html" target="_top" xlink:title="Framework/Logger.h">
<polygon fill="none" stroke="#000000" points="88.2251,-62 88.2251,-81 203.2251,-81 203.2251,-62 88.2251,-62"/>
<text text-anchor="middle" x="145.7251" y="-69" font-family="Helvetica,sans-Serif" font-size="10.00" fill="#000000">Framework/Logger.h</text>
</a>
</g>
</g>
<!-- Node0&#45;&gt;Node3 -->
<g id="edge3" class="edge">
<title>Node0&#45;&gt;Node3</title>
<path fill="none" stroke="#191970" d="M111.33,-123.0928C118.6536,-112.1073 126.9728,-99.6285 133.5948,-89.6954"/>
<polygon fill="#191970" stroke="#191970" points="136.701,-91.3459 139.3359,-81.0839 130.8767,-87.4629 136.701,-91.3459"/>
</g>
<!-- Node4 -->
<g id="node5" class="node">
<title>Node4</title>
<g id="a_node5"><a xlink:href="../../d5/d08/DataFormats_2Reconstruction_2include_2ReconstructionDataFormats_2PID_8h.html" target="_top" xlink:title="ReconstructionDataFormats\l/PID.h">
<polygon fill="none" stroke="#000000" points="221.7251,-56.5 221.7251,-86.5 373.7251,-86.5 373.7251,-56.5 221.7251,-56.5"/>
<text text-anchor="start" x="229.7251" y="-74.5" font-family="Helvetica,sans-Serif" font-size="10.00" fill="#000000">ReconstructionDataFormats</text>
<text text-anchor="middle" x="297.7251" y="-63.5" font-family="Helvetica,sans-Serif" font-size="10.00" fill="#000000">/PID.h</text>
</a>
</g>
</g>
<!-- Node0&#45;&gt;Node4 -->
<g id="edge4" class="edge">
<title>Node0&#45;&gt;Node4</title>
<path fill="none" stroke="#191970" d="M161.9378,-123.4187C190.3878,-112.5408 222.7912,-100.1512 248.8075,-90.2038"/>
<polygon fill="#191970" stroke="#191970" points="250.3537,-93.3598 258.4443,-86.5192 247.8537,-86.8214 250.3537,-93.3598"/>
</g>
<!-- Node4&#45;&gt;Node1 -->
<g id="edge5" class="edge">
<title>Node4&#45;&gt;Node1</title>
<path fill="none" stroke="#191970" d="M241.2162,-56.4554C199.3392,-45.3063 143.3196,-30.392 106.1805,-20.5044"/>
<polygon fill="#191970" stroke="#191970" points="106.7974,-17.0467 96.2335,-17.8561 104.9964,-23.8111 106.7974,-17.0467"/>
</g>
<!-- Node5 -->
<g id="node6" class="node">
<title>Node5</title>
<g id="a_node6"><a xlink:href="../../d3/d9d/PhysicsConstants_8h.html" target="_top" xlink:title="Header to collect physics constants. ">
<polygon fill="none" stroke="#000000" points="194.2251,-.5 194.2251,-19.5 401.2251,-19.5 401.2251,-.5 194.2251,-.5"/>
<text text-anchor="middle" x="297.7251" y="-7.5" font-family="Helvetica,sans-Serif" font-size="10.00" fill="#000000">CommonConstants/PhysicsConstants.h</text>
</a>
</g>
</g>
<!-- Node4&#45;&gt;Node5 -->
<g id="edge6" class="edge">
<title>Node4&#45;&gt;Node5</title>
<path fill="none" stroke="#191970" d="M297.7251,-56.2977C297.7251,-48.3834 297.7251,-38.6043 297.7251,-30.0759"/>
<polygon fill="#191970" stroke="#191970" points="301.2252,-29.8469 297.7251,-19.8469 294.2252,-29.847 301.2252,-29.8469"/>
</g>
</g>
</svg>
