<?xml version="1.0" encoding="UTF-8" standalone="no"?>
<!DOCTYPE svg PUBLIC "-//W3C//DTD SVG 1.1//EN"
 "http://www.w3.org/Graphics/SVG/1.1/DTD/svg11.dtd">
<!-- Generated by graphviz version 2.40.1 (20161225.0304)
 -->
<!-- Title: /home/travis/build/AliceO2Group/AliceO2/Framework/Core/include/Framework/DanglingContext.h Pages: 1 -->
<svg width="959pt" height="285pt"
 viewBox="0.00 0.00 958.50 285.00" xmlns="http://www.w3.org/2000/svg" xmlns:xlink="http://www.w3.org/1999/xlink">
<g id="graph0" class="graph" transform="scale(1 1) rotate(0) translate(4 281)">
<title>/home/travis/build/AliceO2Group/AliceO2/Framework/Core/include/Framework/DanglingContext.h</title>
<!-- Node0 -->
<g id="node1" class="node">
<title>Node0</title>
<polygon fill="#bfbfbf" stroke="#000000" points="484.5,-224.5 484.5,-276.5 651.5,-276.5 651.5,-224.5 484.5,-224.5"/>
<text text-anchor="start" x="492.5" y="-264.5" font-family="Helvetica,sans-Serif" font-size="10.00" fill="#000000">/home/travis/build</text>
<text text-anchor="start" x="492.5" y="-253.5" font-family="Helvetica,sans-Serif" font-size="10.00" fill="#000000">/AliceO2Group/AliceO2</text>
<text text-anchor="start" x="492.5" y="-242.5" font-family="Helvetica,sans-Serif" font-size="10.00" fill="#000000">/Framework/Core/include</text>
<text text-anchor="middle" x="568" y="-231.5" font-family="Helvetica,sans-Serif" font-size="10.00" fill="#000000">/Framework/DanglingContext.h</text>
</g>
<!-- Node1 -->
<g id="node2" class="node">
<title>Node1</title>
<g id="a_node2"><a xlink:href="../../d8/d17/ServiceRegistry_8h.html" target="_top" xlink:title="Framework/ServiceRegistry.h">
<polygon fill="none" stroke="#000000" points="489.5,-168.5 489.5,-187.5 646.5,-187.5 646.5,-168.5 489.5,-168.5"/>
<text text-anchor="middle" x="568" y="-175.5" font-family="Helvetica,sans-Serif" font-size="10.00" fill="#000000">Framework/ServiceRegistry.h</text>
</a>
</g>
</g>
<!-- Node0&#45;&gt;Node1 -->
<g id="edge1" class="edge">
<title>Node0&#45;&gt;Node1</title>
<path fill="none" stroke="#191970" d="M568,-224.3258C568,-215.5142 568,-205.8397 568,-197.621"/>
<polygon fill="#191970" stroke="#191970" points="571.5001,-197.534 568,-187.534 564.5001,-197.534 571.5001,-197.534"/>
</g>
<!-- Node2 -->
<g id="node3" class="node">
<title>Node2</title>
<g id="a_node3"><a xlink:href="../../d9/de8/CompilerBuiltins_8h.html" target="_top" xlink:title="Framework/CompilerBuiltins.h">
<polygon fill="none" stroke="#000000" points="0,-112.5 0,-131.5 164,-131.5 164,-112.5 0,-112.5"/>
<text text-anchor="middle" x="82" y="-119.5" font-family="Helvetica,sans-Serif" font-size="10.00" fill="#000000">Framework/CompilerBuiltins.h</text>
</a>
</g>
</g>
<!-- Node1&#45;&gt;Node2 -->
<g id="edge2" class="edge">
<title>Node1&#45;&gt;Node2</title>
<path fill="none" stroke="#191970" d="M489.3756,-168.9404C403.2772,-159.0196 265.3505,-143.1268 174.2137,-132.6254"/>
<polygon fill="#191970" stroke="#191970" points="174.5017,-129.1356 164.1667,-131.4678 173.7003,-136.0895 174.5017,-129.1356"/>
</g>
<!-- Node3 -->
<g id="node4" class="node">
<title>Node3</title>
<g id="a_node4"><a xlink:href="../../d2/d9a/TypeIdHelpers_8h.html" target="_top" xlink:title="Framework/TypeIdHelpers.h">
<polygon fill="none" stroke="#000000" points="182,-112.5 182,-131.5 334,-131.5 334,-112.5 182,-112.5"/>
<text text-anchor="middle" x="258" y="-119.5" font-family="Helvetica,sans-Serif" font-size="10.00" fill="#000000">Framework/TypeIdHelpers.h</text>
</a>
</g>
</g>
<!-- Node1&#45;&gt;Node3 -->
<g id="edge3" class="edge">
<title>Node1&#45;&gt;Node3</title>
<path fill="none" stroke="#191970" d="M515.0613,-168.4369C461.227,-158.712 377.8239,-143.6456 320.7113,-133.3285"/>
<polygon fill="#191970" stroke="#191970" points="321.1833,-129.8572 310.7203,-131.5237 319.9388,-136.7457 321.1833,-129.8572"/>
</g>
<!-- Node7 -->
<g id="node8" class="node">
<title>Node7</title>
<polygon fill="none" stroke="#bfbfbf" points="352,-112.5 352,-131.5 416,-131.5 416,-112.5 352,-112.5"/>
<text text-anchor="middle" x="384" y="-119.5" font-family="Helvetica,sans-Serif" font-size="10.00" fill="#000000">algorithm</text>
</g>
<!-- Node1&#45;&gt;Node7 -->
<g id="edge7" class="edge">
<title>Node1&#45;&gt;Node7</title>
<path fill="none" stroke="#191970" d="M536.3693,-168.3733C505.6404,-159.021 458.824,-144.7725 425.1978,-134.5385"/>
<polygon fill="#191970" stroke="#191970" points="425.8038,-131.0644 415.218,-131.5011 423.7656,-137.7612 425.8038,-131.0644"/>
</g>
<!-- Node8 -->
<g id="node9" class="node">
<title>Node8</title>
<polygon fill="none" stroke="#bfbfbf" points="434,-112.5 434,-131.5 476,-131.5 476,-112.5 434,-112.5"/>
<text text-anchor="middle" x="455" y="-119.5" font-family="Helvetica,sans-Serif" font-size="10.00" fill="#000000">array</text>
</g>
<!-- Node1&#45;&gt;Node8 -->
<g id="edge8" class="edge">
<title>Node1&#45;&gt;Node8</title>
<path fill="none" stroke="#191970" d="M548.5746,-168.3733C530.5979,-159.4644 503.6559,-146.1127 483.291,-136.0203"/>
<polygon fill="#191970" stroke="#191970" points="484.6861,-132.8055 474.1719,-131.5011 481.5778,-139.0776 484.6861,-132.8055"/>
</g>
<!-- Node9 -->
<g id="node10" class="node">
<title>Node9</title>
<polygon fill="none" stroke="#bfbfbf" points="494.5,-112.5 494.5,-131.5 559.5,-131.5 559.5,-112.5 494.5,-112.5"/>
<text text-anchor="middle" x="527" y="-119.5" font-family="Helvetica,sans-Serif" font-size="10.00" fill="#000000">exception</text>
</g>
<!-- Node1&#45;&gt;Node9 -->
<g id="edge9" class="edge">
<title>Node1&#45;&gt;Node9</title>
<path fill="none" stroke="#191970" d="M560.8583,-168.2455C555.1556,-160.4564 547.01,-149.3308 540.1375,-139.9439"/>
<polygon fill="#191970" stroke="#191970" points="542.7913,-137.6437 534.0598,-131.6427 537.1432,-141.7789 542.7913,-137.6437"/>
</g>
<!-- Node10 -->
<g id="node11" class="node">
<title>Node10</title>
<polygon fill="none" stroke="#bfbfbf" points="577.5,-112.5 577.5,-131.5 642.5,-131.5 642.5,-112.5 577.5,-112.5"/>
<text text-anchor="middle" x="610" y="-119.5" font-family="Helvetica,sans-Serif" font-size="10.00" fill="#000000">functional</text>
</g>
<!-- Node1&#45;&gt;Node10 -->
<g id="edge10" class="edge">
<title>Node1&#45;&gt;Node10</title>
<path fill="none" stroke="#191970" d="M575.3158,-168.2455C581.2179,-160.3761 589.6742,-149.101 596.7594,-139.6542"/>
<polygon fill="#191970" stroke="#191970" points="599.568,-141.7427 602.768,-131.6427 593.9679,-137.5427 599.568,-141.7427"/>
</g>
<!-- Node11 -->
<g id="node12" class="node">
<title>Node11</title>
<polygon fill="none" stroke="#bfbfbf" points="661,-112.5 661,-131.5 705,-131.5 705,-112.5 661,-112.5"/>
<text text-anchor="middle" x="683" y="-119.5" font-family="Helvetica,sans-Serif" font-size="10.00" fill="#000000">string</text>
</g>
<!-- Node1&#45;&gt;Node11 -->
<g id="edge11" class="edge">
<title>Node1&#45;&gt;Node11</title>
<path fill="none" stroke="#191970" d="M587.7692,-168.3733C606.1469,-159.4241 633.7312,-145.9917 654.4893,-135.8835"/>
<polygon fill="#191970" stroke="#191970" points="656.0304,-139.026 663.4888,-131.5011 652.9657,-132.7325 656.0304,-139.026"/>
</g>
<!-- Node12 -->
<g id="node13" class="node">
<title>Node12</title>
<polygon fill="none" stroke="#bfbfbf" points="723.5,-112.5 723.5,-131.5 792.5,-131.5 792.5,-112.5 723.5,-112.5"/>
<text text-anchor="middle" x="758" y="-119.5" font-family="Helvetica,sans-Serif" font-size="10.00" fill="#000000">type_traits</text>
</g>
<!-- Node1&#45;&gt;Node12 -->
<g id="edge12" class="edge">
<title>Node1&#45;&gt;Node12</title>
<path fill="none" stroke="#191970" d="M600.6622,-168.3733C632.5298,-158.9807 681.1531,-144.6496 715.907,-134.4064"/>
<polygon fill="#191970" stroke="#191970" points="717.1615,-137.6855 725.764,-131.5011 715.1825,-130.9711 717.1615,-137.6855"/>
</g>
<!-- Node13 -->
<g id="node14" class="node">
<title>Node13</title>
<polygon fill="none" stroke="#bfbfbf" points="810.5,-112.5 810.5,-131.5 867.5,-131.5 867.5,-112.5 810.5,-112.5"/>
<text text-anchor="middle" x="839" y="-119.5" font-family="Helvetica,sans-Serif" font-size="10.00" fill="#000000">typeinfo</text>
</g>
<!-- Node1&#45;&gt;Node13 -->
<g id="edge13" class="edge">
<title>Node1&#45;&gt;Node13</title>
<path fill="none" stroke="#191970" d="M622.1344,-168.4671C667.479,-160.2308 734.1066,-147.5463 800.5651,-132.2294"/>
<polygon fill="#191970" stroke="#191970" points="801.4191,-135.6243 810.3667,-129.9507 799.8339,-128.8061 801.4191,-135.6243"/>
</g>
<!-- Node14 -->
<g id="node15" class="node">
<title>Node14</title>
<polygon fill="none" stroke="#bfbfbf" points="885.5,-112.5 885.5,-131.5 950.5,-131.5 950.5,-112.5 885.5,-112.5"/>
<text text-anchor="middle" x="918" y="-119.5" font-family="Helvetica,sans-Serif" font-size="10.00" fill="#000000">stdexcept</text>
</g>
<!-- Node1&#45;&gt;Node14 -->
<g id="edge14" class="edge">
<title>Node1&#45;&gt;Node14</title>
<path fill="none" stroke="#191970" d="M645.4802,-168.4638C705.7927,-160.5795 791.7774,-148.3345 875.4585,-132.1772"/>
<polygon fill="#191970" stroke="#191970" points="876.2415,-135.5905 885.3858,-130.2397 874.9005,-128.7202 876.2415,-135.5905"/>
</g>
<!-- Node4 -->
<g id="node5" class="node">
<title>Node4</title>
<polygon fill="none" stroke="#bfbfbf" points="157.5,-56.5 157.5,-75.5 230.5,-75.5 230.5,-56.5 157.5,-56.5"/>
<text text-anchor="middle" x="194" y="-63.5" font-family="Helvetica,sans-Serif" font-size="10.00" fill="#000000">string_view</text>
</g>
<!-- Node3&#45;&gt;Node4 -->
<g id="edge4" class="edge">
<title>Node3&#45;&gt;Node4</title>
<path fill="none" stroke="#191970" d="M246.8521,-112.2455C237.4913,-104.0549 223.9142,-92.1749 212.8651,-82.5069"/>
<polygon fill="#191970" stroke="#191970" points="214.8508,-79.5937 205.0202,-75.6427 210.2412,-84.8618 214.8508,-79.5937"/>
</g>
<!-- Node5 -->
<g id="node6" class="node">
<title>Node5</title>
<g id="a_node6"><a xlink:href="../../db/dff/StringHelpers_8h.html" target="_top" xlink:title="Framework/StringHelpers.h">
<polygon fill="none" stroke="#000000" points="248.5,-56.5 248.5,-75.5 397.5,-75.5 397.5,-56.5 248.5,-56.5"/>
<text text-anchor="middle" x="323" y="-63.5" font-family="Helvetica,sans-Serif" font-size="10.00" fill="#000000">Framework/StringHelpers.h</text>
</a>
</g>
</g>
<!-- Node3&#45;&gt;Node5 -->
<g id="edge5" class="edge">
<title>Node3&#45;&gt;Node5</title>
<path fill="none" stroke="#191970" d="M269.3221,-112.2455C278.9223,-103.9746 292.8892,-91.9416 304.1695,-82.2232"/>
<polygon fill="#191970" stroke="#191970" points="306.516,-84.8214 311.8076,-75.6427 301.947,-79.5182 306.516,-84.8214"/>
</g>
<!-- Node6 -->
<g id="node7" class="node">
<title>Node6</title>
<polygon fill="none" stroke="#bfbfbf" points="298,-.5 298,-19.5 348,-19.5 348,-.5 298,-.5"/>
<text text-anchor="middle" x="323" y="-7.5" font-family="Helvetica,sans-Serif" font-size="10.00" fill="#000000">cstdint</text>
</g>
<!-- Node5&#45;&gt;Node6 -->
<g id="edge6" class="edge">
<title>Node5&#45;&gt;Node6</title>
<path fill="none" stroke="#191970" d="M323,-56.2455C323,-48.9382 323,-38.6944 323,-29.7046"/>
<polygon fill="#191970" stroke="#191970" points="326.5001,-29.6426 323,-19.6427 319.5001,-29.6427 326.5001,-29.6426"/>
</g>
</g>
</svg>
