<?xml version="1.0" encoding="UTF-8" standalone="no"?>
<!DOCTYPE svg PUBLIC "-//W3C//DTD SVG 1.1//EN"
 "http://www.w3.org/Graphics/SVG/1.1/DTD/svg11.dtd">
<!-- Generated by graphviz version 2.40.1 (20161225.0304)
 -->
<!-- Title: /home/travis/build/AliceO2Group/AliceO2/Detectors/FIT/FT0/simulation/src/digi2raw.cxx Pages: 1 -->
<svg width="3868pt" height="553pt"
 viewBox="0.00 0.00 3868.07 553.00" xmlns="http://www.w3.org/2000/svg" xmlns:xlink="http://www.w3.org/1999/xlink">
<g id="graph0" class="graph" transform="scale(1 1) rotate(0) translate(4 549)">
<title>/home/travis/build/AliceO2Group/AliceO2/Detectors/FIT/FT0/simulation/src/digi2raw.cxx</title>
<!-- Node0 -->
<g id="node1" class="node">
<title>Node0</title>
<polygon fill="#bfbfbf" stroke="#000000" points="2028.5,-492.5 2028.5,-544.5 2187.5,-544.5 2187.5,-492.5 2028.5,-492.5"/>
<text text-anchor="start" x="2036.5" y="-532.5" font-family="Helvetica,sans-Serif" font-size="10.00" fill="#000000">/home/travis/build</text>
<text text-anchor="start" x="2036.5" y="-521.5" font-family="Helvetica,sans-Serif" font-size="10.00" fill="#000000">/AliceO2Group/AliceO2</text>
<text text-anchor="start" x="2036.5" y="-510.5" font-family="Helvetica,sans-Serif" font-size="10.00" fill="#000000">/Detectors/FIT/FT0/simulation</text>
<text text-anchor="middle" x="2108" y="-499.5" font-family="Helvetica,sans-Serif" font-size="10.00" fill="#000000">/src/digi2raw.cxx</text>
</g>
<!-- Node1 -->
<g id="node2" class="node">
<title>Node1</title>
<polygon fill="none" stroke="#bfbfbf" points="0,-436.5 0,-455.5 150,-455.5 150,-436.5 0,-436.5"/>
<text text-anchor="middle" x="75" y="-443.5" font-family="Helvetica,sans-Serif" font-size="10.00" fill="#000000">boost/program_options.hpp</text>
</g>
<!-- Node0&#45;&gt;Node1 -->
<g id="edge1" class="edge">
<title>Node0&#45;&gt;Node1</title>
<path fill="none" stroke="#191970" d="M2028.2413,-516.864C1712.9573,-510.2555 552.1543,-484.5499 160.3153,-456.0228"/>
<polygon fill="#191970" stroke="#191970" points="160.306,-452.5126 150.0745,-455.2633 159.7882,-459.4934 160.306,-452.5126"/>
</g>
<!-- Node2 -->
<g id="node3" class="node">
<title>Node2</title>
<polygon fill="none" stroke="#bfbfbf" points="168,-436.5 168,-455.5 236,-455.5 236,-436.5 168,-436.5"/>
<text text-anchor="middle" x="202" y="-443.5" font-family="Helvetica,sans-Serif" font-size="10.00" fill="#000000">TSystem.h</text>
</g>
<!-- Node0&#45;&gt;Node2 -->
<g id="edge2" class="edge">
<title>Node0&#45;&gt;Node2</title>
<path fill="none" stroke="#191970" d="M2028.4927,-517.6448C1720.0482,-514.0449 602.2944,-498.3045 250,-456 248.7402,-455.8487 247.4644,-455.6812 246.1786,-455.4997"/>
<polygon fill="#191970" stroke="#191970" points="246.663,-452.0325 236.23,-453.8769 245.5361,-458.9412 246.663,-452.0325"/>
</g>
<!-- Node3 -->
<g id="node4" class="node">
<title>Node3</title>
<polygon fill="none" stroke="#bfbfbf" points="2049,-185 2049,-204 2097,-204 2097,-185 2049,-185"/>
<text text-anchor="middle" x="2073" y="-192" font-family="Helvetica,sans-Serif" font-size="10.00" fill="#000000">TFile.h</text>
</g>
<!-- Node0&#45;&gt;Node3 -->
<g id="edge3" class="edge">
<title>Node0&#45;&gt;Node3</title>
<path fill="none" stroke="#191970" d="M2108,-492.4123C2108,-466.4505 2108,-425.4714 2108,-390 2108,-390 2108,-390 2108,-328.5 2108,-286.2345 2091.4981,-238.8333 2081.1563,-213.2765"/>
<polygon fill="#191970" stroke="#191970" points="2084.3766,-211.9052 2077.2917,-204.0277 2077.9177,-214.604 2084.3766,-211.9052"/>
</g>
<!-- Node4 -->
<g id="node5" class="node">
<title>Node4</title>
<polygon fill="none" stroke="#bfbfbf" points="2445.5,-319 2445.5,-338 2528.5,-338 2528.5,-319 2445.5,-319"/>
<text text-anchor="middle" x="2487" y="-326" font-family="Helvetica,sans-Serif" font-size="10.00" fill="#000000">TStopwatch.h</text>
</g>
<!-- Node0&#45;&gt;Node4 -->
<g id="edge4" class="edge">
<title>Node0&#45;&gt;Node4</title>
<path fill="none" stroke="#191970" d="M2159.9037,-492.4797C2241.0862,-451.7813 2395.367,-374.4374 2458.7436,-342.6655"/>
<polygon fill="#191970" stroke="#191970" points="2460.3921,-345.7543 2467.763,-338.1439 2457.2549,-339.4966 2460.3921,-345.7543"/>
</g>
<!-- Node5 -->
<g id="node6" class="node">
<title>Node5</title>
<g id="a_node6"><a xlink:href="../../dd/da4/Logger_8h.html" target="_top" xlink:title="Framework/Logger.h">
<polygon fill="none" stroke="#000000" points="3678.5,-252 3678.5,-271 3793.5,-271 3793.5,-252 3678.5,-252"/>
<text text-anchor="middle" x="3736" y="-259" font-family="Helvetica,sans-Serif" font-size="10.00" fill="#000000">Framework/Logger.h</text>
</a>
</g>
</g>
<!-- Node0&#45;&gt;Node5 -->
<g id="edge5" class="edge">
<title>Node0&#45;&gt;Node5</title>
<path fill="none" stroke="#191970" d="M2187.5605,-514.5568C2376.1244,-504.3006 2864.5019,-472.3929 3266,-400 3363.1767,-382.4784 3386.2076,-371.6538 3481,-344 3558.9368,-321.2635 3649.0901,-291.1963 3698.6038,-274.3527"/>
<polygon fill="#191970" stroke="#191970" points="3699.906,-277.6066 3708.2413,-271.0665 3697.6469,-270.9812 3699.906,-277.6066"/>
</g>
<!-- Node6 -->
<g id="node7" class="node">
<title>Node6</title>
<polygon fill="none" stroke="#bfbfbf" points="318,-56.5 318,-75.5 362,-75.5 362,-56.5 318,-56.5"/>
<text text-anchor="middle" x="340" y="-63.5" font-family="Helvetica,sans-Serif" font-size="10.00" fill="#000000">string</text>
</g>
<!-- Node0&#45;&gt;Node6 -->
<g id="edge6" class="edge">
<title>Node0&#45;&gt;Node6</title>
<path fill="none" stroke="#191970" d="M2028.4699,-517.1852C1675.0248,-510.8296 264,-479.8312 264,-390 264,-390 264,-390 264,-194.5 264,-149.2888 299.2853,-106.0297 321.7704,-83.0531"/>
<polygon fill="#191970" stroke="#191970" points="324.4564,-85.3196 329.1111,-75.8019 319.5371,-80.3396 324.4564,-85.3196"/>
</g>
<!-- Node7 -->
<g id="node8" class="node">
<title>Node7</title>
<polygon fill="none" stroke="#bfbfbf" points="3528,-436.5 3528,-455.5 3584,-455.5 3584,-436.5 3528,-436.5"/>
<text text-anchor="middle" x="3556" y="-443.5" font-family="Helvetica,sans-Serif" font-size="10.00" fill="#000000">iomanip</text>
</g>
<!-- Node0&#45;&gt;Node7 -->
<g id="edge7" class="edge">
<title>Node0&#45;&gt;Node7</title>
<path fill="none" stroke="#191970" d="M2187.7565,-516.9413C2445.5971,-511.5899 3254.9314,-492.2662 3514,-456 3515.2527,-455.8246 3516.5227,-455.629 3517.8023,-455.4164"/>
<polygon fill="#191970" stroke="#191970" points="3518.5159,-458.8433 3527.6723,-453.5131 3517.1904,-451.97 3518.5159,-458.8433"/>
</g>
<!-- Node8 -->
<g id="node9" class="node">
<title>Node8</title>
<g id="a_node9"><a xlink:href="../../d4/d8f/StringUtils_8h.html" target="_top" xlink:title="CommonUtils/StringUtils.h">
<polygon fill="none" stroke="#000000" points="1254,-252 1254,-271 1400,-271 1400,-252 1254,-252"/>
<text text-anchor="middle" x="1327" y="-259" font-family="Helvetica,sans-Serif" font-size="10.00" fill="#000000">CommonUtils/StringUtils.h</text>
</a>
</g>
</g>
<!-- Node0&#45;&gt;Node8 -->
<g id="edge8" class="edge">
<title>Node0&#45;&gt;Node8</title>
<path fill="none" stroke="#191970" d="M2028.217,-513.0214C1867.9333,-500.7231 1513.6297,-466.6389 1414,-400 1370.2957,-370.7677 1344.2984,-311.363 1333.258,-280.7279"/>
<polygon fill="#191970" stroke="#191970" points="1336.538,-279.5032 1329.9721,-271.1883 1329.9196,-281.783 1336.538,-279.5032"/>
</g>
<!-- Node10 -->
<g id="node11" class="node">
<title>Node10</title>
<g id="a_node11"><a xlink:href="../../db/d2c/ConfigurableParam_8h.html" target="_top" xlink:title="CommonUtils/Configurable\lParam.h">
<polygon fill="none" stroke="#000000" points="2267,-179.5 2267,-209.5 2415,-209.5 2415,-179.5 2267,-179.5"/>
<text text-anchor="start" x="2275" y="-197.5" font-family="Helvetica,sans-Serif" font-size="10.00" fill="#000000">CommonUtils/Configurable</text>
<text text-anchor="middle" x="2341" y="-186.5" font-family="Helvetica,sans-Serif" font-size="10.00" fill="#000000">Param.h</text>
</a>
</g>
</g>
<!-- Node0&#45;&gt;Node10 -->
<g id="edge10" class="edge">
<title>Node0&#45;&gt;Node10</title>
<path fill="none" stroke="#191970" d="M2187.8541,-497.5147C2300.4338,-466.1268 2496.6388,-404.1842 2537,-344 2577.8078,-283.1499 2476.3818,-236.8271 2404.7073,-212.8147"/>
<polygon fill="#191970" stroke="#191970" points="2405.4017,-209.3593 2394.8091,-209.5753 2403.2244,-216.0121 2405.4017,-209.3593"/>
</g>
<!-- Node17 -->
<g id="node18" class="node">
<title>Node17</title>
<g id="a_node18"><a xlink:href="../../d7/d61/NameConf_8h.html" target="_top" xlink:title="Definition of the Names Generator class. ">
<polygon fill="none" stroke="#000000" points="1153.5,-313.5 1153.5,-343.5 1324.5,-343.5 1324.5,-313.5 1153.5,-313.5"/>
<text text-anchor="start" x="1161.5" y="-331.5" font-family="Helvetica,sans-Serif" font-size="10.00" fill="#000000">DetectorsCommonDataFormats</text>
<text text-anchor="middle" x="1239" y="-320.5" font-family="Helvetica,sans-Serif" font-size="10.00" fill="#000000">/NameConf.h</text>
</a>
</g>
</g>
<!-- Node0&#45;&gt;Node17 -->
<g id="edge17" class="edge">
<title>Node0&#45;&gt;Node17</title>
<path fill="none" stroke="#191970" d="M2028.2292,-514.9389C1848.5099,-506.4674 1422.9799,-483.7344 1364,-456 1315.1893,-433.0475 1274.9838,-382.3942 1254.2351,-352.2994"/>
<polygon fill="#191970" stroke="#191970" points="1256.918,-350.0171 1248.4325,-343.6731 1251.1098,-353.9241 1256.918,-350.0171"/>
</g>
<!-- Node41 -->
<g id="node42" class="node">
<title>Node41</title>
<g id="a_node42"><a xlink:href="../../d1/dec/HBFUtils_8h.html" target="_top" xlink:title="DetectorsRaw/HBFUtils.h">
<polygon fill="none" stroke="#000000" points="2136.5,-319 2136.5,-338 2275.5,-338 2275.5,-319 2136.5,-319"/>
<text text-anchor="middle" x="2206" y="-326" font-family="Helvetica,sans-Serif" font-size="10.00" fill="#000000">DetectorsRaw/HBFUtils.h</text>
</a>
</g>
</g>
<!-- Node0&#45;&gt;Node41 -->
<g id="edge51" class="edge">
<title>Node0&#45;&gt;Node41</title>
<path fill="none" stroke="#191970" d="M2121.421,-492.4797C2141.4599,-453.6288 2178.7231,-381.3838 2196.3206,-347.2663"/>
<polygon fill="#191970" stroke="#191970" points="2199.448,-348.838 2200.9215,-338.3461 2193.2268,-345.6291 2199.448,-348.838"/>
</g>
<!-- Node53 -->
<g id="node54" class="node">
<title>Node53</title>
<g id="a_node54"><a xlink:href="../../d8/dfe/Digits2Raw_8h.html" target="_top" xlink:title="converts digits to raw format ">
<polygon fill="none" stroke="#000000" points="2515.5,-436.5 2515.5,-455.5 2668.5,-455.5 2668.5,-436.5 2515.5,-436.5"/>
<text text-anchor="middle" x="2592" y="-443.5" font-family="Helvetica,sans-Serif" font-size="10.00" fill="#000000">FT0Simulation/Digits2Raw.h</text>
</a>
</g>
</g>
<!-- Node0&#45;&gt;Node53 -->
<g id="edge82" class="edge">
<title>Node0&#45;&gt;Node53</title>
<path fill="none" stroke="#191970" d="M2187.6516,-506.5687C2279.5063,-492.8095 2429.2762,-470.3749 2518.463,-457.0154"/>
<polygon fill="#191970" stroke="#191970" points="2519.1268,-460.4551 2528.4979,-455.5122 2518.0897,-453.5323 2519.1268,-460.4551"/>
</g>
<!-- Node68 -->
<g id="node69" class="node">
<title>Node68</title>
<g id="a_node69"><a xlink:href="../../de/d28/GRPObject_8h.html" target="_top" xlink:title="Header of the General Run Parameters object. ">
<polygon fill="none" stroke="#000000" points="892.5,-313.5 892.5,-343.5 1027.5,-343.5 1027.5,-313.5 892.5,-313.5"/>
<text text-anchor="start" x="900.5" y="-331.5" font-family="Helvetica,sans-Serif" font-size="10.00" fill="#000000">DataFormatsParameters</text>
<text text-anchor="middle" x="960" y="-320.5" font-family="Helvetica,sans-Serif" font-size="10.00" fill="#000000">/GRPObject.h</text>
</a>
</g>
</g>
<!-- Node0&#45;&gt;Node68 -->
<g id="edge142" class="edge">
<title>Node0&#45;&gt;Node68</title>
<path fill="none" stroke="#191970" d="M2028.2438,-514.6786C1857.2377,-506.0662 1460.1268,-483.7119 1328,-456 1207.0574,-430.6338 1071.2406,-376.503 1003.4284,-347.6068"/>
<polygon fill="#191970" stroke="#191970" points="1004.4967,-344.2568 993.9266,-343.533 1001.7383,-350.6904 1004.4967,-344.2568"/>
</g>
<!-- Node9 -->
<g id="node10" class="node">
<title>Node9</title>
<polygon fill="none" stroke="#bfbfbf" points="1277,-185 1277,-204 1333,-204 1333,-185 1277,-185"/>
<text text-anchor="middle" x="1305" y="-192" font-family="Helvetica,sans-Serif" font-size="10.00" fill="#000000">sstream</text>
</g>
<!-- Node8&#45;&gt;Node9 -->
<g id="edge9" class="edge">
<title>Node8&#45;&gt;Node9</title>
<path fill="none" stroke="#191970" d="M1323.8479,-251.9005C1320.5806,-241.95 1315.3857,-226.1292 1311.2765,-213.6147"/>
<polygon fill="#191970" stroke="#191970" points="1314.5913,-212.4907 1308.1462,-204.0817 1307.9407,-214.6745 1314.5913,-212.4907"/>
</g>
<!-- Node11 -->
<g id="node12" class="node">
<title>Node11</title>
<polygon fill="none" stroke="#bfbfbf" points="2533.5,-118 2533.5,-137 2580.5,-137 2580.5,-118 2533.5,-118"/>
<text text-anchor="middle" x="2557" y="-125" font-family="Helvetica,sans-Serif" font-size="10.00" fill="#000000">vector</text>
</g>
<!-- Node10&#45;&gt;Node11 -->
<g id="edge11" class="edge">
<title>Node10&#45;&gt;Node11</title>
<path fill="none" stroke="#191970" d="M2389.4746,-179.4639C2430.2294,-166.8224 2487.4303,-149.0795 2523.3371,-137.9417"/>
<polygon fill="#191970" stroke="#191970" points="2524.7975,-141.1533 2533.3116,-134.8478 2522.7236,-134.4676 2524.7975,-141.1533"/>
</g>
<!-- Node12 -->
<g id="node13" class="node">
<title>Node12</title>
<polygon fill="none" stroke="#bfbfbf" points="1974,-118 1974,-137 2012,-137 2012,-118 1974,-118"/>
<text text-anchor="middle" x="1993" y="-125" font-family="Helvetica,sans-Serif" font-size="10.00" fill="#000000">map</text>
</g>
<!-- Node10&#45;&gt;Node12 -->
<g id="edge12" class="edge">
<title>Node10&#45;&gt;Node12</title>
<path fill="none" stroke="#191970" d="M2266.7975,-180.8007C2263.4865,-180.1917 2260.2088,-179.5892 2257,-179 2169.4583,-162.9245 2147.1591,-161.0354 2060,-143 2047.4307,-140.3991 2033.6024,-137.2491 2021.7891,-134.47"/>
<polygon fill="#191970" stroke="#191970" points="2022.547,-131.0527 2012.0088,-132.1462 2020.9288,-137.8631 2022.547,-131.0527"/>
</g>
<!-- Node13 -->
<g id="node14" class="node">
<title>Node13</title>
<polygon fill="none" stroke="#bfbfbf" points="2069.5,-118 2069.5,-137 2162.5,-137 2162.5,-118 2069.5,-118"/>
<text text-anchor="middle" x="2116" y="-125" font-family="Helvetica,sans-Serif" font-size="10.00" fill="#000000">unordered_map</text>
</g>
<!-- Node10&#45;&gt;Node13 -->
<g id="edge13" class="edge">
<title>Node10&#45;&gt;Node13</title>
<path fill="none" stroke="#191970" d="M2290.5056,-179.4639C2250.4238,-167.5284 2195.071,-151.0456 2157.5336,-139.8678"/>
<polygon fill="#191970" stroke="#191970" points="2158.5037,-136.5049 2147.9207,-137.0053 2156.5059,-143.2137 2158.5037,-136.5049"/>
</g>
<!-- Node14 -->
<g id="node15" class="node">
<title>Node14</title>
<polygon fill="none" stroke="#bfbfbf" points="2284.5,-112.5 2284.5,-142.5 2397.5,-142.5 2397.5,-112.5 2284.5,-112.5"/>
<text text-anchor="start" x="2292.5" y="-130.5" font-family="Helvetica,sans-Serif" font-size="10.00" fill="#000000">boost/property_tree</text>
<text text-anchor="middle" x="2341" y="-119.5" font-family="Helvetica,sans-Serif" font-size="10.00" fill="#000000">/ptree.hpp</text>
</g>
<!-- Node10&#45;&gt;Node14 -->
<g id="edge14" class="edge">
<title>Node10&#45;&gt;Node14</title>
<path fill="none" stroke="#191970" d="M2341,-179.2967C2341,-171.5013 2341,-161.7991 2341,-152.9064"/>
<polygon fill="#191970" stroke="#191970" points="2344.5001,-152.6431 2341,-142.6432 2337.5001,-152.6432 2344.5001,-152.6431"/>
</g>
<!-- Node15 -->
<g id="node16" class="node">
<title>Node15</title>
<polygon fill="none" stroke="#bfbfbf" points="2199.5,-118 2199.5,-137 2256.5,-137 2256.5,-118 2199.5,-118"/>
<text text-anchor="middle" x="2228" y="-125" font-family="Helvetica,sans-Serif" font-size="10.00" fill="#000000">typeinfo</text>
</g>
<!-- Node10&#45;&gt;Node15 -->
<g id="edge15" class="edge">
<title>Node10&#45;&gt;Node15</title>
<path fill="none" stroke="#191970" d="M2315.6406,-179.4639C2296.9369,-168.3741 2271.6119,-153.3584 2252.995,-142.32"/>
<polygon fill="#191970" stroke="#191970" points="2254.5844,-139.1935 2244.1977,-137.1039 2251.0143,-145.2147 2254.5844,-139.1935"/>
</g>
<!-- Node16 -->
<g id="node17" class="node">
<title>Node16</title>
<polygon fill="none" stroke="#bfbfbf" points="3420,-118 3420,-137 3480,-137 3480,-118 3420,-118"/>
<text text-anchor="middle" x="3450" y="-125" font-family="Helvetica,sans-Serif" font-size="10.00" fill="#000000">iostream</text>
</g>
<!-- Node10&#45;&gt;Node16 -->
<g id="edge16" class="edge">
<title>Node10&#45;&gt;Node16</title>
<path fill="none" stroke="#191970" d="M2415.2243,-191.0262C2630.6062,-180.8949 3246.2293,-151.5567 3337,-143 3361.2271,-140.7162 3388.2339,-137.0532 3409.7687,-133.8615"/>
<polygon fill="#191970" stroke="#191970" points="3410.4976,-137.2912 3419.8646,-132.3406 3409.4548,-130.3693 3410.4976,-137.2912"/>
</g>
<!-- Node17&#45;&gt;Node8 -->
<g id="edge49" class="edge">
<title>Node17&#45;&gt;Node8</title>
<path fill="none" stroke="#191970" d="M1258.9686,-313.2967C1273.0787,-302.5537 1291.9451,-288.1895 1306.2308,-277.3129"/>
<polygon fill="#191970" stroke="#191970" points="1308.614,-279.8975 1314.4502,-271.055 1304.3736,-274.328 1308.614,-279.8975"/>
</g>
<!-- Node18 -->
<g id="node19" class="node">
<title>Node18</title>
<g id="a_node19"><a xlink:href="../../d6/d31/DetID_8h.html" target="_top" xlink:title="DetectorsCommonDataFormats\l/DetID.h">
<polygon fill="none" stroke="#000000" points="1026.5,-246.5 1026.5,-276.5 1197.5,-276.5 1197.5,-246.5 1026.5,-246.5"/>
<text text-anchor="start" x="1034.5" y="-264.5" font-family="Helvetica,sans-Serif" font-size="10.00" fill="#000000">DetectorsCommonDataFormats</text>
<text text-anchor="middle" x="1112" y="-253.5" font-family="Helvetica,sans-Serif" font-size="10.00" fill="#000000">/DetID.h</text>
</a>
</g>
</g>
<!-- Node17&#45;&gt;Node18 -->
<g id="edge18" class="edge">
<title>Node17&#45;&gt;Node18</title>
<path fill="none" stroke="#191970" d="M1210.4987,-313.4639C1192.5687,-304.0047 1169.2247,-291.6894 1149.763,-281.4222"/>
<polygon fill="#191970" stroke="#191970" points="1151.3234,-278.2882 1140.8456,-276.7177 1148.0571,-284.4795 1151.3234,-278.2882"/>
</g>
<!-- Node24 -->
<g id="node25" class="node">
<title>Node24</title>
<polygon fill="none" stroke="#bfbfbf" points="1185.5,-185 1185.5,-204 1258.5,-204 1258.5,-185 1185.5,-185"/>
<text text-anchor="middle" x="1222" y="-192" font-family="Helvetica,sans-Serif" font-size="10.00" fill="#000000">string_view</text>
</g>
<!-- Node17&#45;&gt;Node24 -->
<g id="edge50" class="edge">
<title>Node17&#45;&gt;Node24</title>
<path fill="none" stroke="#191970" d="M1237.0829,-313.389C1233.9981,-289.0735 1227.9328,-241.2644 1224.5081,-214.2698"/>
<polygon fill="#191970" stroke="#191970" points="1227.9493,-213.5841 1223.2184,-204.1042 1221.0049,-214.4652 1227.9493,-213.5841"/>
</g>
<!-- Node18&#45;&gt;Node6 -->
<g id="edge25" class="edge">
<title>Node18&#45;&gt;Node6</title>
<path fill="none" stroke="#191970" d="M1026.3399,-253.5391C999.0681,-251.0572 968.772,-248.3549 941,-246 839.7148,-237.4118 579.9611,-246.2605 485,-210 421.6506,-185.8103 372.0687,-117.4713 351.0092,-84.3919"/>
<polygon fill="#191970" stroke="#191970" points="353.8656,-82.3568 345.6207,-75.703 347.9167,-86.0461 353.8656,-82.3568"/>
</g>
<!-- Node19 -->
<g id="node20" class="node">
<title>Node19</title>
<polygon fill="none" stroke="#bfbfbf" points="2849.5,-56.5 2849.5,-75.5 2908.5,-75.5 2908.5,-56.5 2849.5,-56.5"/>
<text text-anchor="middle" x="2879" y="-63.5" font-family="Helvetica,sans-Serif" font-size="10.00" fill="#000000">Rtypes.h</text>
</g>
<!-- Node18&#45;&gt;Node19 -->
<g id="edge19" class="edge">
<title>Node18&#45;&gt;Node19</title>
<path fill="none" stroke="#191970" d="M1197.8052,-251.0406C1213.4948,-249.2588 1229.7309,-247.5014 1245,-246 1444.2351,-226.4097 1502.6102,-268.7229 1694,-210 1778.4813,-184.0791 1782.0089,-136.1971 1867,-112 2062.7134,-56.28 2579.0224,-90.4412 2782,-76 2800.7391,-74.6668 2821.4586,-72.6104 2838.9205,-70.7083"/>
<polygon fill="#191970" stroke="#191970" points="2839.7731,-74.1352 2849.3252,-69.5518 2838.9997,-67.178 2839.7731,-74.1352"/>
</g>
<!-- Node20 -->
<g id="node21" class="node">
<title>Node20</title>
<polygon fill="none" stroke="#bfbfbf" points="406,-118 406,-137 448,-137 448,-118 406,-118"/>
<text text-anchor="middle" x="427" y="-125" font-family="Helvetica,sans-Serif" font-size="10.00" fill="#000000">array</text>
</g>
<!-- Node18&#45;&gt;Node20 -->
<g id="edge20" class="edge">
<title>Node18&#45;&gt;Node20</title>
<path fill="none" stroke="#191970" d="M1026.3231,-253.7308C999.0505,-251.2585 968.7581,-248.5134 941,-246 764.1126,-229.9832 709.5852,-271.6039 543,-210 503.5076,-195.3956 465.1999,-163.6865 443.9938,-144.1104"/>
<polygon fill="#191970" stroke="#191970" points="446.1638,-141.3455 436.4902,-137.0243 441.3576,-146.4349 446.1638,-141.3455"/>
</g>
<!-- Node21 -->
<g id="node22" class="node">
<title>Node21</title>
<polygon fill="none" stroke="#bfbfbf" points="2699,-185 2699,-204 2743,-204 2743,-185 2699,-185"/>
<text text-anchor="middle" x="2721" y="-192" font-family="Helvetica,sans-Serif" font-size="10.00" fill="#000000">bitset</text>
</g>
<!-- Node18&#45;&gt;Node21 -->
<g id="edge21" class="edge">
<title>Node18&#45;&gt;Node21</title>
<path fill="none" stroke="#191970" d="M1197.7515,-250.4156C1213.4466,-248.6975 1229.6984,-247.1232 1245,-246 1767.8376,-207.6222 1900.2035,-231.6624 2424,-210 2520.2449,-206.0196 2633.945,-199.6088 2688.5441,-196.4239"/>
<polygon fill="#191970" stroke="#191970" points="2688.8752,-199.9106 2698.6533,-195.8316 2688.4657,-192.9226 2688.8752,-199.9106"/>
</g>
<!-- Node22 -->
<g id="node23" class="node">
<title>Node22</title>
<polygon fill="none" stroke="#bfbfbf" points="2182,-56.5 2182,-75.5 2234,-75.5 2234,-56.5 2182,-56.5"/>
<text text-anchor="middle" x="2208" y="-63.5" font-family="Helvetica,sans-Serif" font-size="10.00" fill="#000000">cassert</text>
</g>
<!-- Node18&#45;&gt;Node22 -->
<g id="edge22" class="edge">
<title>Node18&#45;&gt;Node22</title>
<path fill="none" stroke="#191970" d="M1197.8139,-251.1281C1213.5027,-249.3375 1229.7362,-247.5543 1245,-246 1428.3036,-227.3337 1485.2879,-274.1808 1658,-210 1680.0842,-201.7934 1681.8176,-192.6783 1701,-179 1743.067,-149.0034 1747.6951,-130.3322 1796,-112 1864.4709,-86.0145 2084.4506,-72.2735 2171.7781,-67.7312"/>
<polygon fill="#191970" stroke="#191970" points="2172.1834,-71.2151 2181.9922,-67.2106 2171.827,-64.2242 2172.1834,-71.2151"/>
</g>
<!-- Node23 -->
<g id="node24" class="node">
<title>Node23</title>
<polygon fill="none" stroke="#bfbfbf" points="1357,-56.5 1357,-75.5 1407,-75.5 1407,-56.5 1357,-56.5"/>
<text text-anchor="middle" x="1382" y="-63.5" font-family="Helvetica,sans-Serif" font-size="10.00" fill="#000000">cstdint</text>
</g>
<!-- Node18&#45;&gt;Node23 -->
<g id="edge23" class="edge">
<title>Node18&#45;&gt;Node23</title>
<path fill="none" stroke="#191970" d="M1109.5817,-246.3113C1105.726,-216.1755 1101.9326,-148.5813 1138,-112 1141.6718,-108.2759 1280.066,-83.7512 1346.7615,-72.1118"/>
<polygon fill="#191970" stroke="#191970" points="1347.5678,-75.5241 1356.8185,-70.3595 1346.3662,-68.628 1347.5678,-75.5241"/>
</g>
<!-- Node18&#45;&gt;Node24 -->
<g id="edge24" class="edge">
<title>Node18&#45;&gt;Node24</title>
<path fill="none" stroke="#191970" d="M1136.6861,-246.4639C1154.8102,-235.4247 1179.3209,-220.4954 1197.42,-209.4715"/>
<polygon fill="#191970" stroke="#191970" points="1199.5126,-212.2951 1206.2324,-204.1039 1195.8712,-206.3167 1199.5126,-212.2951"/>
</g>
<!-- Node25 -->
<g id="node26" class="node">
<title>Node25</title>
<polygon fill="none" stroke="#bfbfbf" points="1598.5,-118 1598.5,-137 1667.5,-137 1667.5,-118 1598.5,-118"/>
<text text-anchor="middle" x="1633" y="-125" font-family="Helvetica,sans-Serif" font-size="10.00" fill="#000000">type_traits</text>
</g>
<!-- Node18&#45;&gt;Node25 -->
<g id="edge26" class="edge">
<title>Node18&#45;&gt;Node25</title>
<path fill="none" stroke="#191970" d="M1119.0135,-246.2577C1128.7859,-226.9546 1148.4524,-194.3626 1176,-179 1241.7778,-142.3173 1438.2038,-151.8246 1513,-143 1537.9656,-140.0545 1565.8131,-136.4757 1588.3925,-133.4994"/>
<polygon fill="#191970" stroke="#191970" points="1588.9128,-136.9611 1598.3669,-132.1787 1587.994,-130.0217 1588.9128,-136.9611"/>
</g>
<!-- Node26 -->
<g id="node27" class="node">
<title>Node26</title>
<g id="a_node27"><a xlink:href="../../d9/d52/Common_2MathUtils_2include_2MathUtils_2Utils_8h.html" target="_top" xlink:title="MathUtils/Utils.h">
<polygon fill="none" stroke="#000000" points="552,-185 552,-204 650,-204 650,-185 552,-185"/>
<text text-anchor="middle" x="601" y="-192" font-family="Helvetica,sans-Serif" font-size="10.00" fill="#000000">MathUtils/Utils.h</text>
</a>
</g>
</g>
<!-- Node18&#45;&gt;Node26 -->
<g id="edge27" class="edge">
<title>Node18&#45;&gt;Node26</title>
<path fill="none" stroke="#191970" d="M1026.4701,-250.2857C922.648,-236.673 750.2988,-214.0754 660.1232,-202.252"/>
<polygon fill="#191970" stroke="#191970" points="660.4422,-198.7639 650.072,-200.9341 659.5321,-205.7045 660.4422,-198.7639"/>
</g>
<!-- Node34 -->
<g id="node35" class="node">
<title>Node34</title>
<g id="a_node35"><a xlink:href="../../dc/dcd/DataHeader_8h.html" target="_top" xlink:title="Headers/DataHeader.h">
<polygon fill="none" stroke="#000000" points="887.5,-118 887.5,-137 1014.5,-137 1014.5,-118 887.5,-118"/>
<text text-anchor="middle" x="951" y="-125" font-family="Helvetica,sans-Serif" font-size="10.00" fill="#000000">Headers/DataHeader.h</text>
</a>
</g>
</g>
<!-- Node18&#45;&gt;Node34 -->
<g id="edge38" class="edge">
<title>Node18&#45;&gt;Node34</title>
<path fill="none" stroke="#191970" d="M1093.8442,-246.389C1063.3251,-220.988 1002.0021,-169.9489 970.5637,-143.7828"/>
<polygon fill="#191970" stroke="#191970" points="972.4645,-140.8112 962.5393,-137.1042 967.9865,-146.1915 972.4645,-140.8112"/>
</g>
<!-- Node26&#45;&gt;Node20 -->
<g id="edge28" class="edge">
<title>Node26&#45;&gt;Node20</title>
<path fill="none" stroke="#191970" d="M573.6404,-184.9296C545.4681,-174.9429 500.387,-158.5937 462,-143 460.4338,-142.3638 458.8333,-141.701 457.2208,-141.0231"/>
<polygon fill="#191970" stroke="#191970" points="458.5777,-137.7968 448.0087,-137.057 455.8096,-144.2262 458.5777,-137.7968"/>
</g>
<!-- Node27 -->
<g id="node28" class="node">
<title>Node27</title>
<polygon fill="none" stroke="#bfbfbf" points="702.5,-56.5 702.5,-75.5 749.5,-75.5 749.5,-56.5 702.5,-56.5"/>
<text text-anchor="middle" x="726" y="-63.5" font-family="Helvetica,sans-Serif" font-size="10.00" fill="#000000">cmath</text>
</g>
<!-- Node26&#45;&gt;Node27 -->
<g id="edge29" class="edge">
<title>Node26&#45;&gt;Node27</title>
<path fill="none" stroke="#191970" d="M569.4671,-184.8957C529.5135,-171.1326 468.8183,-143.9095 495,-112 519.5403,-82.0911 634.0081,-71.2648 692.056,-67.6517"/>
<polygon fill="#191970" stroke="#191970" points="692.4253,-71.1362 702.2038,-67.0581 692.0165,-64.1482 692.4253,-71.1362"/>
</g>
<!-- Node28 -->
<g id="node29" class="node">
<title>Node28</title>
<g id="a_node29"><a xlink:href="../../df/d21/GPUCommonDef_8h.html" target="_top" xlink:title="GPUCommonDef.h">
<polygon fill="none" stroke="#000000" points="1642.5,-56.5 1642.5,-75.5 1749.5,-75.5 1749.5,-56.5 1642.5,-56.5"/>
<text text-anchor="middle" x="1696" y="-63.5" font-family="Helvetica,sans-Serif" font-size="10.00" fill="#000000">GPUCommonDef.h</text>
</a>
</g>
</g>
<!-- Node26&#45;&gt;Node28 -->
<g id="edge30" class="edge">
<title>Node26&#45;&gt;Node28</title>
<path fill="none" stroke="#191970" d="M650.0885,-190.7847C729.1445,-184.2927 889.3372,-169.0349 1023,-143 1074.9591,-132.8794 1085.8526,-121.1007 1138,-112 1315.2322,-81.0696 1527.8671,-70.8191 1632.0696,-67.5135"/>
<polygon fill="#191970" stroke="#191970" points="1632.2252,-71.0105 1642.1134,-67.2059 1632.0109,-64.0137 1632.2252,-71.0105"/>
</g>
<!-- Node31 -->
<g id="node32" class="node">
<title>Node31</title>
<g id="a_node32"><a xlink:href="../../d6/da2/GPUCommonMath_8h.html" target="_top" xlink:title="GPUCommonMath.h">
<polygon fill="none" stroke="#000000" points="754.5,-118 754.5,-137 869.5,-137 869.5,-118 754.5,-118"/>
<text text-anchor="middle" x="812" y="-125" font-family="Helvetica,sans-Serif" font-size="10.00" fill="#000000">GPUCommonMath.h</text>
</a>
</g>
</g>
<!-- Node26&#45;&gt;Node31 -->
<g id="edge33" class="edge">
<title>Node26&#45;&gt;Node31</title>
<path fill="none" stroke="#191970" d="M631.2312,-184.9005C668.2869,-173.134 731.1929,-153.1591 772.1644,-140.1492"/>
<polygon fill="#191970" stroke="#191970" points="773.3532,-143.444 781.8249,-137.0817 771.2346,-136.7723 773.3532,-143.444"/>
</g>
<!-- Node33 -->
<g id="node34" class="node">
<title>Node33</title>
<g id="a_node34"><a xlink:href="../../d6/d84/MathConstants_8h.html" target="_top" xlink:title="useful math constants ">
<polygon fill="none" stroke="#000000" points="504,-118 504,-137 698,-137 698,-118 504,-118"/>
<text text-anchor="middle" x="601" y="-125" font-family="Helvetica,sans-Serif" font-size="10.00" fill="#000000">CommonConstants/MathConstants.h</text>
</a>
</g>
</g>
<!-- Node26&#45;&gt;Node33 -->
<g id="edge37" class="edge">
<title>Node26&#45;&gt;Node33</title>
<path fill="none" stroke="#191970" d="M601,-184.9005C601,-175.149 601,-159.7597 601,-147.3695"/>
<polygon fill="#191970" stroke="#191970" points="604.5001,-147.0816 601,-137.0817 597.5001,-147.0817 604.5001,-147.0816"/>
</g>
<!-- Node29 -->
<g id="node30" class="node">
<title>Node29</title>
<g id="a_node30"><a xlink:href="../../d5/d93/GPUCommonDefSettings_8h.html" target="_top" xlink:title="GPUCommonDefSettings.h">
<polygon fill="none" stroke="#000000" points="1545,-.5 1545,-19.5 1693,-19.5 1693,-.5 1545,-.5"/>
<text text-anchor="middle" x="1619" y="-7.5" font-family="Helvetica,sans-Serif" font-size="10.00" fill="#000000">GPUCommonDefSettings.h</text>
</a>
</g>
</g>
<!-- Node28&#45;&gt;Node29 -->
<g id="edge31" class="edge">
<title>Node28&#45;&gt;Node29</title>
<path fill="none" stroke="#191970" d="M1682.5876,-56.2455C1670.9943,-47.814 1654.0252,-35.4729 1640.5322,-25.6598"/>
<polygon fill="#191970" stroke="#191970" points="1642.4047,-22.6938 1632.2587,-19.6427 1638.2874,-28.355 1642.4047,-22.6938"/>
</g>
<!-- Node30 -->
<g id="node31" class="node">
<title>Node30</title>
<g id="a_node31"><a xlink:href="../../da/d5a/GPUCommonDefAPI_8h.html" target="_top" xlink:title="GPUCommonDefAPI.h">
<polygon fill="none" stroke="#000000" points="1711,-.5 1711,-19.5 1835,-19.5 1835,-.5 1711,-.5"/>
<text text-anchor="middle" x="1773" y="-7.5" font-family="Helvetica,sans-Serif" font-size="10.00" fill="#000000">GPUCommonDefAPI.h</text>
</a>
</g>
</g>
<!-- Node28&#45;&gt;Node30 -->
<g id="edge32" class="edge">
<title>Node28&#45;&gt;Node30</title>
<path fill="none" stroke="#191970" d="M1709.4124,-56.2455C1721.0057,-47.814 1737.9748,-35.4729 1751.4678,-25.6598"/>
<polygon fill="#191970" stroke="#191970" points="1753.7126,-28.355 1759.7413,-19.6427 1749.5953,-22.6938 1753.7126,-28.355"/>
</g>
<!-- Node31&#45;&gt;Node27 -->
<g id="edge35" class="edge">
<title>Node31&#45;&gt;Node27</title>
<path fill="none" stroke="#191970" d="M798.5625,-117.8906C784.9305,-108.1421 763.6154,-92.8994 747.6078,-81.4521"/>
<polygon fill="#191970" stroke="#191970" points="749.5132,-78.5118 739.3431,-75.5419 745.4414,-84.2057 749.5132,-78.5118"/>
</g>
<!-- Node31&#45;&gt;Node28 -->
<g id="edge34" class="edge">
<title>Node31&#45;&gt;Node28</title>
<path fill="none" stroke="#191970" d="M847.4056,-117.9864C857.246,-115.6707 867.9817,-113.4468 878,-112 1023.3024,-91.0164 1466.1491,-73.9635 1632.207,-68.1461"/>
<polygon fill="#191970" stroke="#191970" points="1632.396,-71.6417 1642.268,-67.7955 1632.1522,-64.646 1632.396,-71.6417"/>
</g>
<!-- Node32 -->
<g id="node33" class="node">
<title>Node32</title>
<polygon fill="none" stroke="#bfbfbf" points="774,-56.5 774,-75.5 838,-75.5 838,-56.5 774,-56.5"/>
<text text-anchor="middle" x="806" y="-63.5" font-family="Helvetica,sans-Serif" font-size="10.00" fill="#000000">algorithm</text>
</g>
<!-- Node31&#45;&gt;Node32 -->
<g id="edge36" class="edge">
<title>Node31&#45;&gt;Node32</title>
<path fill="none" stroke="#191970" d="M811.0625,-117.8906C810.2308,-109.3657 808.9892,-96.6392 807.9438,-85.9235"/>
<polygon fill="#191970" stroke="#191970" points="811.4053,-85.3577 806.9507,-75.7449 804.4383,-86.0375 811.4053,-85.3577"/>
</g>
<!-- Node34&#45;&gt;Node6 -->
<g id="edge45" class="edge">
<title>Node34&#45;&gt;Node6</title>
<path fill="none" stroke="#191970" d="M910.6184,-117.9932C900.0505,-115.7619 888.6372,-113.5778 878,-112 687.4487,-83.7352 456.1576,-71.2076 372.31,-67.3645"/>
<polygon fill="#191970" stroke="#191970" points="372.2967,-63.8605 362.1499,-66.9086 371.9829,-70.8534 372.2967,-63.8605"/>
</g>
<!-- Node34&#45;&gt;Node22 -->
<g id="edge41" class="edge">
<title>Node34&#45;&gt;Node22</title>
<path fill="none" stroke="#191970" d="M1014.5702,-121.6002C1050.7292,-118.4026 1096.8719,-114.5875 1138,-112 1543.1652,-86.5093 2035.5379,-71.039 2171.6446,-67.0388"/>
<polygon fill="#191970" stroke="#191970" points="2172.0162,-70.5295 2181.9097,-66.739 2171.8118,-63.5325 2172.0162,-70.5295"/>
</g>
<!-- Node34&#45;&gt;Node23 -->
<g id="edge39" class="edge">
<title>Node34&#45;&gt;Node23</title>
<path fill="none" stroke="#191970" d="M995.8557,-117.9939C1006.6798,-115.8641 1018.2305,-113.727 1029,-112 1158.982,-91.1566 1192.7364,-95.0043 1323,-76 1330.7199,-74.8737 1338.9874,-73.5478 1346.817,-72.2362"/>
<polygon fill="#191970" stroke="#191970" points="1347.5054,-75.6694 1356.7748,-70.5382 1346.3287,-68.769 1347.5054,-75.6694"/>
</g>
<!-- Node34&#45;&gt;Node32 -->
<g id="edge43" class="edge">
<title>Node34&#45;&gt;Node32</title>
<path fill="none" stroke="#191970" d="M928.3438,-117.8906C904.0826,-107.6005 865.3882,-91.1888 838.02,-79.5809"/>
<polygon fill="#191970" stroke="#191970" points="839.07,-76.2245 828.4972,-75.5419 836.3367,-82.6688 839.07,-76.2245"/>
</g>
<!-- Node35 -->
<g id="node36" class="node">
<title>Node35</title>
<polygon fill="none" stroke="#bfbfbf" points="1086,-56.5 1086,-75.5 1144,-75.5 1144,-56.5 1086,-56.5"/>
<text text-anchor="middle" x="1115" y="-63.5" font-family="Helvetica,sans-Serif" font-size="10.00" fill="#000000">memory</text>
</g>
<!-- Node34&#45;&gt;Node35 -->
<g id="edge40" class="edge">
<title>Node34&#45;&gt;Node35</title>
<path fill="none" stroke="#191970" d="M976.625,-117.8906C1004.4263,-107.4652 1048.9844,-90.7559 1079.9994,-79.1252"/>
<polygon fill="#191970" stroke="#191970" points="1081.4206,-82.3303 1089.5549,-75.5419 1078.9627,-75.776 1081.4206,-82.3303"/>
</g>
<!-- Node36 -->
<g id="node37" class="node">
<title>Node36</title>
<polygon fill="none" stroke="#bfbfbf" points="2723,-56.5 2723,-75.5 2773,-75.5 2773,-56.5 2723,-56.5"/>
<text text-anchor="middle" x="2748" y="-63.5" font-family="Helvetica,sans-Serif" font-size="10.00" fill="#000000">cstring</text>
</g>
<!-- Node34&#45;&gt;Node36 -->
<g id="edge42" class="edge">
<title>Node34&#45;&gt;Node36</title>
<path fill="none" stroke="#191970" d="M1014.5567,-121.3728C1050.7114,-118.1029 1096.8543,-114.2913 1138,-112 1459.6023,-94.0904 2506.2261,-71.1621 2712.5097,-66.7519"/>
<polygon fill="#191970" stroke="#191970" points="2712.8435,-70.2457 2722.7665,-66.5331 2712.6941,-63.2473 2712.8435,-70.2457"/>
</g>
<!-- Node37 -->
<g id="node38" class="node">
<title>Node37</title>
<polygon fill="none" stroke="#bfbfbf" points="1249.5,-56.5 1249.5,-75.5 1314.5,-75.5 1314.5,-56.5 1249.5,-56.5"/>
<text text-anchor="middle" x="1282" y="-63.5" font-family="Helvetica,sans-Serif" font-size="10.00" fill="#000000">stdexcept</text>
</g>
<!-- Node34&#45;&gt;Node37 -->
<g id="edge44" class="edge">
<title>Node34&#45;&gt;Node37</title>
<path fill="none" stroke="#191970" d="M998.4113,-117.9501C1008.502,-115.9535 1019.0989,-113.8837 1029,-112 1102.8546,-97.9488 1189.0206,-82.4789 1239.3434,-73.5369"/>
<polygon fill="#191970" stroke="#191970" points="1239.9835,-76.978 1249.218,-71.7843 1238.7602,-70.0857 1239.9835,-76.978"/>
</g>
<!-- Node38 -->
<g id="node39" class="node">
<title>Node38</title>
<polygon fill="none" stroke="#bfbfbf" points="1162,-56.5 1162,-75.5 1212,-75.5 1212,-56.5 1162,-56.5"/>
<text text-anchor="middle" x="1187" y="-63.5" font-family="Helvetica,sans-Serif" font-size="10.00" fill="#000000">climits</text>
</g>
<!-- Node34&#45;&gt;Node38 -->
<g id="edge46" class="edge">
<title>Node34&#45;&gt;Node38</title>
<path fill="none" stroke="#191970" d="M990.2133,-117.9515C1028.9233,-108.4259 1090.0326,-93.1225 1151.8535,-76.25"/>
<polygon fill="#191970" stroke="#191970" points="1153.0594,-79.5486 1161.7781,-73.5292 1151.2086,-72.7977 1153.0594,-79.5486"/>
</g>
<!-- Node39 -->
<g id="node40" class="node">
<title>Node39</title>
<g id="a_node40"><a xlink:href="../../d7/df8/Types_8h.html" target="_top" xlink:title="MemoryResources/Types.h">
<polygon fill="none" stroke="#000000" points="856,-56.5 856,-75.5 1002,-75.5 1002,-56.5 856,-56.5"/>
<text text-anchor="middle" x="929" y="-63.5" font-family="Helvetica,sans-Serif" font-size="10.00" fill="#000000">MemoryResources/Types.h</text>
</a>
</g>
</g>
<!-- Node34&#45;&gt;Node39 -->
<g id="edge47" class="edge">
<title>Node34&#45;&gt;Node39</title>
<path fill="none" stroke="#191970" d="M947.5625,-117.8906C944.4487,-109.1862 939.768,-96.1015 935.886,-85.2494"/>
<polygon fill="#191970" stroke="#191970" points="939.1497,-83.9817 932.486,-75.7449 932.5588,-86.3394 939.1497,-83.9817"/>
</g>
<!-- Node40 -->
<g id="node41" class="node">
<title>Node40</title>
<polygon fill="none" stroke="#bfbfbf" points="1020.5,-56.5 1020.5,-75.5 1067.5,-75.5 1067.5,-56.5 1020.5,-56.5"/>
<text text-anchor="middle" x="1044" y="-63.5" font-family="Helvetica,sans-Serif" font-size="10.00" fill="#000000">cerrno</text>
</g>
<!-- Node34&#45;&gt;Node40 -->
<g id="edge48" class="edge">
<title>Node34&#45;&gt;Node40</title>
<path fill="none" stroke="#191970" d="M965.5313,-117.8906C980.4094,-108.0519 1003.7504,-92.6167 1021.1128,-81.1351"/>
<polygon fill="#191970" stroke="#191970" points="1023.1602,-83.9773 1029.5708,-75.5419 1019.299,-78.1385 1023.1602,-83.9773"/>
</g>
<!-- Node41&#45;&gt;Node10 -->
<g id="edge72" class="edge">
<title>Node41&#45;&gt;Node10</title>
<path fill="none" stroke="#191970" d="M2228.8563,-318.9348C2247.7721,-310.1562 2274.4535,-295.6869 2293,-277 2309.645,-260.229 2322.6396,-236.5449 2330.8861,-218.8524"/>
<polygon fill="#191970" stroke="#191970" points="2334.0822,-220.279 2334.9721,-209.7216 2327.6927,-217.4197 2334.0822,-220.279"/>
</g>
<!-- Node41&#45;&gt;Node19 -->
<g id="edge52" class="edge">
<title>Node41&#45;&gt;Node19</title>
<path fill="none" stroke="#191970" d="M2227.3144,-318.9721C2250.0857,-308.7496 2287.2024,-291.9622 2319,-277 2380.6915,-247.9714 2405.3639,-254.522 2457,-210 2496.9592,-175.5462 2479.0189,-139.5773 2524,-112 2537.3464,-103.8175 2749.6634,-80.0126 2839.4248,-70.2513"/>
<polygon fill="#191970" stroke="#191970" points="2839.9261,-73.7176 2849.4904,-69.1598 2839.1713,-66.7584 2839.9261,-73.7176"/>
</g>
<!-- Node42 -->
<g id="node43" class="node">
<title>Node42</title>
<g id="a_node43"><a xlink:href="../../d6/dec/Raw_2include_2DetectorsRaw_2RDHUtils_8h.html" target="_top" xlink:title="DetectorsRaw/RDHUtils.h">
<polygon fill="none" stroke="#000000" points="1748.5,-252 1748.5,-271 1889.5,-271 1889.5,-252 1748.5,-252"/>
<text text-anchor="middle" x="1819" y="-259" font-family="Helvetica,sans-Serif" font-size="10.00" fill="#000000">DetectorsRaw/RDHUtils.h</text>
</a>
</g>
</g>
<!-- Node41&#45;&gt;Node42 -->
<g id="edge53" class="edge">
<title>Node41&#45;&gt;Node42</title>
<path fill="none" stroke="#191970" d="M2150.9633,-318.9717C2080.7083,-306.8087 1959.3143,-285.7921 1884.4103,-272.8243"/>
<polygon fill="#191970" stroke="#191970" points="1884.6103,-269.3069 1874.1598,-271.0496 1883.4161,-276.2043 1884.6103,-269.3069"/>
</g>
<!-- Node46 -->
<g id="node47" class="node">
<title>Node46</title>
<g id="a_node47"><a xlink:href="../../d9/d80/InteractionRecord_8h.html" target="_top" xlink:title="CommonDataFormat/Interaction\lRecord.h">
<polygon fill="none" stroke="#000000" points="1781,-179.5 1781,-209.5 1955,-209.5 1955,-179.5 1781,-179.5"/>
<text text-anchor="start" x="1789" y="-197.5" font-family="Helvetica,sans-Serif" font-size="10.00" fill="#000000">CommonDataFormat/Interaction</text>
<text text-anchor="middle" x="1868" y="-186.5" font-family="Helvetica,sans-Serif" font-size="10.00" fill="#000000">Record.h</text>
</a>
</g>
</g>
<!-- Node41&#45;&gt;Node46 -->
<g id="edge79" class="edge">
<title>Node41&#45;&gt;Node46</title>
<path fill="none" stroke="#191970" d="M2175.8523,-318.9626C2145.3729,-309.1306 2097.0389,-293.0179 2056,-277 2004.8818,-257.0481 1947.2549,-231.2568 1909.435,-213.8652"/>
<polygon fill="#191970" stroke="#191970" points="1910.809,-210.6446 1900.2625,-209.6333 1907.8764,-217.0008 1910.809,-210.6446"/>
</g>
<!-- Node50 -->
<g id="node51" class="node">
<title>Node50</title>
<g id="a_node51"><a xlink:href="../../da/d6b/ConfigurableParamHelper_8h.html" target="_top" xlink:title="CommonUtils/Configurable\lParamHelper.h">
<polygon fill="none" stroke="#000000" points="2136,-246.5 2136,-276.5 2284,-276.5 2284,-246.5 2136,-246.5"/>
<text text-anchor="start" x="2144" y="-264.5" font-family="Helvetica,sans-Serif" font-size="10.00" fill="#000000">CommonUtils/Configurable</text>
<text text-anchor="middle" x="2210" y="-253.5" font-family="Helvetica,sans-Serif" font-size="10.00" fill="#000000">ParamHelper.h</text>
</a>
</g>
</g>
<!-- Node41&#45;&gt;Node50 -->
<g id="edge73" class="edge">
<title>Node41&#45;&gt;Node50</title>
<path fill="none" stroke="#191970" d="M2206.5731,-318.9005C2207.074,-310.5099 2207.8242,-297.9451 2208.495,-286.7085"/>
<polygon fill="#191970" stroke="#191970" points="2212.0009,-286.7126 2209.1032,-276.5218 2205.0134,-286.2954 2212.0009,-286.7126"/>
</g>
<!-- Node52 -->
<g id="node53" class="node">
<title>Node52</title>
<g id="a_node53"><a xlink:href="../../de/da4/Triggers_8h.html" target="_top" xlink:title="Definition of the 32 Central Trigger System (CTS) Trigger Types defined in https://twiki.cern.ch/twiki/pub/ALICE/NoteForFEDevelopers/CTS_CRU_FE_interface.pdf. ">
<polygon fill="none" stroke="#000000" points="1532,-252 1532,-271 1692,-271 1692,-252 1532,-252"/>
<text text-anchor="middle" x="1612" y="-259" font-family="Helvetica,sans-Serif" font-size="10.00" fill="#000000">CommonConstants/Triggers.h</text>
</a>
</g>
</g>
<!-- Node41&#45;&gt;Node52 -->
<g id="edge80" class="edge">
<title>Node41&#45;&gt;Node52</title>
<path fill="none" stroke="#191970" d="M2136.4261,-321.4469C2004.0121,-308.0075 1727.0018,-279.8105 1706,-277 1696.5096,-275.73 1686.5045,-274.2417 1676.7029,-272.6989"/>
<polygon fill="#191970" stroke="#191970" points="1677.0202,-269.2052 1666.5923,-271.0782 1675.9122,-276.1169 1677.0202,-269.2052"/>
</g>
<!-- Node42&#45;&gt;Node28 -->
<g id="edge54" class="edge">
<title>Node42&#45;&gt;Node28</title>
<path fill="none" stroke="#191970" d="M1808.8275,-251.8895C1798.7125,-242.0007 1783.1375,-225.8446 1772,-210 1742.5943,-168.1664 1716.799,-113.5547 1704.1938,-85.1101"/>
<polygon fill="#191970" stroke="#191970" points="1707.2377,-83.3347 1700.0285,-75.5709 1700.8226,-86.1359 1707.2377,-83.3347"/>
</g>
<!-- Node43 -->
<g id="node44" class="node">
<title>Node43</title>
<g id="a_node44"><a xlink:href="../../d2/d45/GPUCommonRtypes_8h.html" target="_top" xlink:title="GPUCommonRtypes.h">
<polygon fill="none" stroke="#000000" points="2649.5,-118 2649.5,-137 2774.5,-137 2774.5,-118 2649.5,-118"/>
<text text-anchor="middle" x="2712" y="-125" font-family="Helvetica,sans-Serif" font-size="10.00" fill="#000000">GPUCommonRtypes.h</text>
</a>
</g>
</g>
<!-- Node42&#45;&gt;Node43 -->
<g id="edge55" class="edge">
<title>Node42&#45;&gt;Node43</title>
<path fill="none" stroke="#191970" d="M1889.5159,-257.2232C2026.325,-248.6409 2323.1766,-228.5503 2424,-210 2516.458,-192.9888 2621.927,-158.8719 2675.9425,-140.2848"/>
<polygon fill="#191970" stroke="#191970" points="2677.112,-143.5838 2685.4149,-137.0025 2674.8201,-136.9696 2677.112,-143.5838"/>
</g>
<!-- Node44 -->
<g id="node45" class="node">
<title>Node44</title>
<g id="a_node45"><a xlink:href="../../d4/d78/DataFormats_2Headers_2include_2Headers_2RAWDataHeader_8h.html" target="_top" xlink:title="Headers/RAWDataHeader.h">
<polygon fill="none" stroke="#000000" points="1355.5,-118 1355.5,-137 1504.5,-137 1504.5,-118 1355.5,-118"/>
<text text-anchor="middle" x="1430" y="-125" font-family="Helvetica,sans-Serif" font-size="10.00" fill="#000000">Headers/RAWDataHeader.h</text>
</a>
</g>
</g>
<!-- Node42&#45;&gt;Node44 -->
<g id="edge57" class="edge">
<title>Node42&#45;&gt;Node44</title>
<path fill="none" stroke="#191970" d="M1766.8615,-251.9583C1756.0026,-249.9806 1744.6289,-247.9162 1734,-246 1644.2544,-229.8203 1614.9578,-247.8688 1532,-210 1497.3733,-194.1935 1464.4861,-163.8643 1445.8247,-144.7108"/>
<polygon fill="#191970" stroke="#191970" points="1448.1639,-142.0918 1438.7344,-137.2613 1443.0934,-146.9178 1448.1639,-142.0918"/>
</g>
<!-- Node45 -->
<g id="node46" class="node">
<title>Node45</title>
<g id="a_node46"><a xlink:href="../../d6/d89/RDHAny_8h.html" target="_top" xlink:title="Headers/RDHAny.h">
<polygon fill="none" stroke="#000000" points="1541,-185 1541,-204 1649,-204 1649,-185 1541,-185"/>
<text text-anchor="middle" x="1595" y="-192" font-family="Helvetica,sans-Serif" font-size="10.00" fill="#000000">Headers/RDHAny.h</text>
</a>
</g>
</g>
<!-- Node42&#45;&gt;Node45 -->
<g id="edge59" class="edge">
<title>Node42&#45;&gt;Node45</title>
<path fill="none" stroke="#191970" d="M1786.9063,-251.9005C1747.4011,-240.0843 1680.2205,-219.9901 1636.7394,-206.9845"/>
<polygon fill="#191970" stroke="#191970" points="1637.6178,-203.5941 1627.0342,-204.0817 1635.6118,-210.3006 1637.6178,-203.5941"/>
</g>
<!-- Node42&#45;&gt;Node46 -->
<g id="edge64" class="edge">
<title>Node42&#45;&gt;Node46</title>
<path fill="none" stroke="#191970" d="M1826.0205,-251.9005C1832.5365,-242.9908 1842.4946,-229.3748 1851.0768,-217.6399"/>
<polygon fill="#191970" stroke="#191970" points="1853.9358,-219.6596 1857.0139,-209.5218 1848.2856,-215.5274 1853.9358,-219.6596"/>
</g>
<!-- Node49 -->
<g id="node50" class="node">
<title>Node49</title>
<g id="a_node50"><a xlink:href="../../d7/d34/DAQID_8h.html" target="_top" xlink:title="Headers/DAQID.h">
<polygon fill="none" stroke="#000000" points="875.5,-185 875.5,-204 976.5,-204 976.5,-185 875.5,-185"/>
<text text-anchor="middle" x="926" y="-192" font-family="Helvetica,sans-Serif" font-size="10.00" fill="#000000">Headers/DAQID.h</text>
</a>
</g>
</g>
<!-- Node42&#45;&gt;Node49 -->
<g id="edge70" class="edge">
<title>Node42&#45;&gt;Node49</title>
<path fill="none" stroke="#191970" d="M1752.3133,-251.9802C1735.5841,-249.8015 1717.6552,-247.6455 1701,-246 1630.7267,-239.057 1156.5727,-208.9956 986.5348,-198.2973"/>
<polygon fill="#191970" stroke="#191970" points="986.7008,-194.801 976.5008,-197.6663 986.2613,-201.7872 986.7008,-194.801"/>
</g>
<!-- Node43&#45;&gt;Node19 -->
<g id="edge56" class="edge">
<title>Node43&#45;&gt;Node19</title>
<path fill="none" stroke="#191970" d="M2738.0938,-117.8906C2766.4036,-107.4652 2811.7768,-90.7559 2843.3592,-79.1252"/>
<polygon fill="#191970" stroke="#191970" points="2844.9151,-82.2821 2853.0895,-75.5419 2842.496,-75.7133 2844.9151,-82.2821"/>
</g>
<!-- Node44&#45;&gt;Node23 -->
<g id="edge58" class="edge">
<title>Node44&#45;&gt;Node23</title>
<path fill="none" stroke="#191970" d="M1422.5,-117.8906C1415.4262,-108.8273 1404.6458,-95.0149 1395.9854,-83.9188"/>
<polygon fill="#191970" stroke="#191970" points="1398.5176,-81.4746 1389.6057,-75.7449 1392.9994,-85.7815 1398.5176,-81.4746"/>
</g>
<!-- Node45&#45;&gt;Node25 -->
<g id="edge62" class="edge">
<title>Node45&#45;&gt;Node25</title>
<path fill="none" stroke="#191970" d="M1600.4445,-184.9005C1606.2009,-174.751 1615.4213,-158.4941 1622.5824,-145.8679"/>
<polygon fill="#191970" stroke="#191970" points="1625.6766,-147.5067 1627.5656,-137.0817 1619.5877,-144.0533 1625.6766,-147.5067"/>
</g>
<!-- Node45&#45;&gt;Node28 -->
<g id="edge60" class="edge">
<title>Node45&#45;&gt;Node28</title>
<path fill="none" stroke="#191970" d="M1619.4578,-184.8674C1637.6809,-176.462 1661.7782,-162.5344 1676,-143 1688.1531,-126.307 1692.9325,-102.851 1694.8058,-86.2239"/>
<polygon fill="#191970" stroke="#191970" points="1698.3178,-86.2355 1695.6933,-75.9709 1691.3439,-85.6318 1698.3178,-86.2355"/>
</g>
<!-- Node45&#45;&gt;Node37 -->
<g id="edge63" class="edge">
<title>Node45&#45;&gt;Node37</title>
<path fill="none" stroke="#191970" d="M1588.3986,-184.7722C1575.9049,-167.1854 1546.9872,-130.2377 1513,-112 1496.6168,-103.2087 1386.918,-83.691 1324.7648,-73.1253"/>
<polygon fill="#191970" stroke="#191970" points="1325.2948,-69.6653 1314.8509,-71.4474 1324.1266,-76.5672 1325.2948,-69.6653"/>
</g>
<!-- Node45&#45;&gt;Node44 -->
<g id="edge61" class="edge">
<title>Node45&#45;&gt;Node44</title>
<path fill="none" stroke="#191970" d="M1571.3595,-184.9005C1542.9336,-173.3579 1495.0551,-153.9163 1462.9983,-140.8993"/>
<polygon fill="#191970" stroke="#191970" points="1464.1787,-137.6011 1453.5966,-137.0817 1461.5451,-144.0868 1464.1787,-137.6011"/>
</g>
<!-- Node46&#45;&gt;Node23 -->
<g id="edge68" class="edge">
<title>Node46&#45;&gt;Node23</title>
<path fill="none" stroke="#191970" d="M1839.2392,-179.4246C1802.4066,-160.7615 1736.1372,-129.3265 1676,-112 1584.8237,-85.7306 1473.1482,-73.4776 1417.3166,-68.6505"/>
<polygon fill="#191970" stroke="#191970" points="1417.4949,-65.1532 1407.238,-67.8079 1416.9117,-72.1289 1417.4949,-65.1532"/>
</g>
<!-- Node46&#45;&gt;Node27 -->
<g id="edge67" class="edge">
<title>Node46&#45;&gt;Node27</title>
<path fill="none" stroke="#191970" d="M1780.942,-187.4026C1743.1734,-184.4974 1698.4227,-181.2881 1658,-179 1607.3195,-176.1313 784.3383,-175.0818 745,-143 728.3779,-129.444 724.9497,-103.8744 724.8132,-85.9313"/>
<polygon fill="#191970" stroke="#191970" points="728.3185,-85.7697 725.0789,-75.6823 721.3208,-85.5882 728.3185,-85.7697"/>
</g>
<!-- Node46&#45;&gt;Node43 -->
<g id="edge65" class="edge">
<title>Node46&#45;&gt;Node43</title>
<path fill="none" stroke="#191970" d="M1955.0248,-186.2421C1982.2257,-183.7726 2012.3502,-181.1521 2040,-179 2283.7867,-160.0253 2345.5883,-166.2965 2589,-143 2605.2346,-141.4462 2622.6346,-139.4543 2639.0879,-137.4197"/>
<polygon fill="#191970" stroke="#191970" points="2639.7053,-140.8698 2649.1912,-136.1509 2638.833,-133.9243 2639.7053,-140.8698"/>
</g>
<!-- Node47 -->
<g id="node48" class="node">
<title>Node47</title>
<polygon fill="none" stroke="#bfbfbf" points="1876.5,-118 1876.5,-137 1925.5,-137 1925.5,-118 1876.5,-118"/>
<text text-anchor="middle" x="1901" y="-125" font-family="Helvetica,sans-Serif" font-size="10.00" fill="#000000">iosfwd</text>
</g>
<!-- Node46&#45;&gt;Node47 -->
<g id="edge66" class="edge">
<title>Node46&#45;&gt;Node47</title>
<path fill="none" stroke="#191970" d="M1875.4882,-179.2967C1880.3303,-169.4658 1886.6659,-156.6026 1891.812,-146.1545"/>
<polygon fill="#191970" stroke="#191970" points="1895.0151,-147.5724 1896.2938,-137.055 1888.7355,-144.4794 1895.0151,-147.5724"/>
</g>
<!-- Node48 -->
<g id="node49" class="node">
<title>Node48</title>
<g id="a_node49"><a xlink:href="../../d4/dc6/LHCConstants_8h.html" target="_top" xlink:title="Header to collect LHC related constants. ">
<polygon fill="none" stroke="#000000" points="1147,-118 1147,-137 1337,-137 1337,-118 1147,-118"/>
<text text-anchor="middle" x="1242" y="-125" font-family="Helvetica,sans-Serif" font-size="10.00" fill="#000000">CommonConstants/LHCConstants.h</text>
</a>
</g>
</g>
<!-- Node46&#45;&gt;Node48 -->
<g id="edge69" class="edge">
<title>Node46&#45;&gt;Node48</title>
<path fill="none" stroke="#191970" d="M1780.5724,-187.2091C1676.7743,-178.2444 1498.5084,-161.8762 1346,-143 1335.1809,-141.6609 1323.75,-140.1031 1312.5816,-138.5015"/>
<polygon fill="#191970" stroke="#191970" points="1312.8235,-134.9999 1302.4236,-137.0233 1311.8154,-141.9269 1312.8235,-134.9999"/>
</g>
<!-- Node49&#45;&gt;Node34 -->
<g id="edge71" class="edge">
<title>Node49&#45;&gt;Node34</title>
<path fill="none" stroke="#191970" d="M929.5819,-184.9005C933.2948,-174.95 939.198,-159.1292 943.8676,-146.6147"/>
<polygon fill="#191970" stroke="#191970" points="947.2079,-147.6743 947.4248,-137.0817 940.6496,-145.2271 947.2079,-147.6743"/>
</g>
<!-- Node50&#45;&gt;Node3 -->
<g id="edge78" class="edge">
<title>Node50&#45;&gt;Node3</title>
<path fill="none" stroke="#191970" d="M2179.2545,-246.4639C2156.0606,-235.1209 2124.4684,-219.6707 2101.7706,-208.5703"/>
<polygon fill="#191970" stroke="#191970" points="2103.1588,-205.3531 2092.6379,-204.1039 2100.0835,-211.6414 2103.1588,-205.3531"/>
</g>
<!-- Node50&#45;&gt;Node10 -->
<g id="edge74" class="edge">
<title>Node50&#45;&gt;Node10</title>
<path fill="none" stroke="#191970" d="M2239.399,-246.4639C2257.9774,-236.9619 2282.191,-224.5779 2302.3199,-214.283"/>
<polygon fill="#191970" stroke="#191970" points="2303.9365,-217.3874 2311.2459,-209.7177 2300.749,-211.1552 2303.9365,-217.3874"/>
</g>
<!-- Node50&#45;&gt;Node15 -->
<g id="edge77" class="edge">
<title>Node50&#45;&gt;Node15</title>
<path fill="none" stroke="#191970" d="M2198.5285,-246.4765C2187.3064,-229.8491 2173.1028,-202.317 2182,-179 2187.1934,-165.3895 2197.8209,-153.0965 2207.5535,-143.9368"/>
<polygon fill="#191970" stroke="#191970" points="2209.883,-146.549 2215.046,-137.2973 2205.2405,-141.3099 2209.883,-146.549"/>
</g>
<!-- Node50&#45;&gt;Node25 -->
<g id="edge76" class="edge">
<title>Node50&#45;&gt;Node25</title>
<path fill="none" stroke="#191970" d="M2196.243,-246.2165C2177.8107,-226.8689 2143.097,-194.2289 2106,-179 2066.9044,-162.9507 1788.0434,-139.65 1677.7418,-130.948"/>
<polygon fill="#191970" stroke="#191970" points="1677.8508,-127.4458 1667.6074,-130.1521 1677.3027,-134.4243 1677.8508,-127.4458"/>
</g>
<!-- Node51 -->
<g id="node52" class="node">
<title>Node51</title>
<polygon fill="none" stroke="#bfbfbf" points="2191.5,-185 2191.5,-204 2248.5,-204 2248.5,-185 2191.5,-185"/>
<text text-anchor="middle" x="2220" y="-192" font-family="Helvetica,sans-Serif" font-size="10.00" fill="#000000">TClass.h</text>
</g>
<!-- Node50&#45;&gt;Node51 -->
<g id="edge75" class="edge">
<title>Node50&#45;&gt;Node51</title>
<path fill="none" stroke="#191970" d="M2212.2692,-246.2967C2213.6911,-236.7699 2215.538,-224.3954 2217.0701,-214.1306"/>
<polygon fill="#191970" stroke="#191970" points="2220.5593,-214.4621 2218.5739,-204.055 2213.636,-213.4287 2220.5593,-214.4621"/>
</g>
<!-- Node52&#45;&gt;Node23 -->
<g id="edge81" class="edge">
<title>Node52&#45;&gt;Node23</title>
<path fill="none" stroke="#191970" d="M1587.1184,-251.8628C1568.981,-243.5289 1545.3354,-229.696 1532,-210 1507.1261,-173.262 1541.997,-145.5793 1513,-112 1500.2933,-97.2853 1451.5854,-82.8501 1417.2923,-74.1848"/>
<polygon fill="#191970" stroke="#191970" points="1417.7155,-70.6843 1407.1682,-71.6869 1416.0386,-77.4805 1417.7155,-70.6843"/>
</g>
<!-- Node53&#45;&gt;Node4 -->
<g id="edge133" class="edge">
<title>Node53&#45;&gt;Node4</title>
<path fill="none" stroke="#191970" d="M2557.2289,-436.3846C2538.1385,-429.3461 2515.6385,-417.8461 2502,-400 2490.7209,-385.2412 2487.4378,-363.9685 2486.6933,-348.4651"/>
<polygon fill="#191970" stroke="#191970" points="2490.1913,-348.3106 2486.5219,-338.3715 2483.1923,-348.4295 2490.1913,-348.3106"/>
</g>
<!-- Node53&#45;&gt;Node6 -->
<g id="edge138" class="edge">
<title>Node53&#45;&gt;Node6</title>
<path fill="none" stroke="#191970" d="M2515.4629,-444.6628C2229.4134,-439.5489 1223.1836,-420.4858 903,-400 629.4473,-382.4977 302,-535.6121 302,-261.5 302,-261.5 302,-261.5 302,-194.5 302,-154.195 319.404,-109.5903 330.6555,-84.9654"/>
<polygon fill="#191970" stroke="#191970" points="333.9231,-86.2425 335.0322,-75.7058 327.5944,-83.2511 333.9231,-86.2425"/>
</g>
<!-- Node53&#45;&gt;Node11 -->
<g id="edge140" class="edge">
<title>Node53&#45;&gt;Node11</title>
<path fill="none" stroke="#191970" d="M2592.4171,-436.2532C2593.2415,-416.1243 2595,-368.4957 2595,-328.5 2595,-328.5 2595,-328.5 2595,-261.5 2595,-219.2065 2577.2624,-172.1555 2566.0243,-146.5895"/>
<polygon fill="#191970" stroke="#191970" points="2569.1341,-144.9726 2561.8127,-137.3143 2562.7604,-147.8667 2569.1341,-144.9726"/>
</g>
<!-- Node53&#45;&gt;Node16 -->
<g id="edge136" class="edge">
<title>Node53&#45;&gt;Node16</title>
<path fill="none" stroke="#191970" d="M2668.6144,-443.3454C2854.0278,-436.7079 3323.1091,-418.5853 3479,-400 3650.0778,-379.6041 3860,-500.7893 3860,-328.5 3860,-328.5 3860,-328.5 3860,-261.5 3860,-222.634 3861.1339,-203.5462 3831,-179 3804.8701,-157.7153 3582.8306,-137.9607 3490.2634,-130.5698"/>
<polygon fill="#191970" stroke="#191970" points="3490.4011,-127.0698 3480.1564,-129.7709 3489.8495,-134.0481 3490.4011,-127.0698"/>
</g>
<!-- Node53&#45;&gt;Node20 -->
<g id="edge137" class="edge">
<title>Node53&#45;&gt;Node20</title>
<path fill="none" stroke="#191970" d="M2515.4804,-443.8599C2132.4808,-432.9027 442,-381.5358 442,-328.5 442,-328.5 442,-328.5 442,-261.5 442,-220.7168 435.0529,-173.3825 430.6144,-147.302"/>
<polygon fill="#191970" stroke="#191970" points="434.0187,-146.4525 428.8393,-137.21 427.1246,-147.6652 434.0187,-146.4525"/>
</g>
<!-- Node53&#45;&gt;Node21 -->
<g id="edge139" class="edge">
<title>Node53&#45;&gt;Node21</title>
<path fill="none" stroke="#191970" d="M2607.4723,-436.4097C2619.713,-428.1159 2636.4466,-415.1009 2647,-400 2689.1103,-339.7439 2709.879,-252.9009 2717.4801,-214.2934"/>
<polygon fill="#191970" stroke="#191970" points="2720.9429,-214.8174 2719.354,-204.3423 2714.0638,-213.5219 2720.9429,-214.8174"/>
</g>
<!-- Node53&#45;&gt;Node22 -->
<g id="edge134" class="edge">
<title>Node53&#45;&gt;Node22</title>
<path fill="none" stroke="#191970" d="M2597.8743,-436.3414C2609.2112,-416.7533 2633,-370.6308 2633,-328.5 2633,-328.5 2633,-328.5 2633,-261.5 2633,-192.2376 2641.8694,-156.7449 2589,-112 2562.9194,-89.9273 2334.0125,-73.6931 2244.0666,-68.1126"/>
<polygon fill="#191970" stroke="#191970" points="2244.2525,-64.6176 2234.0574,-67.5002 2243.8249,-71.6045 2244.2525,-64.6176"/>
</g>
<!-- Node53&#45;&gt;Node41 -->
<g id="edge115" class="edge">
<title>Node53&#45;&gt;Node41</title>
<path fill="none" stroke="#191970" d="M2560.739,-436.484C2491.4309,-415.3864 2324.8763,-364.6864 2247.1923,-341.0391"/>
<polygon fill="#191970" stroke="#191970" points="2247.8689,-337.5866 2237.283,-338.0227 2245.8304,-344.2832 2247.8689,-337.5866"/>
</g>
<!-- Node53&#45;&gt;Node44 -->
<g id="edge83" class="edge">
<title>Node53&#45;&gt;Node44</title>
<path fill="none" stroke="#191970" d="M2515.4672,-444.0379C2348.8719,-439.3362 1957.9173,-425.8491 1828,-400 1663.8184,-367.3334 1601.3026,-383.3182 1472,-277 1445.3862,-255.117 1442.5797,-243.0967 1433,-210 1427.0426,-189.4179 1427.0201,-164.7395 1428.0325,-147.7683"/>
<polygon fill="#191970" stroke="#191970" points="1431.5532,-147.6366 1428.8385,-137.3955 1424.5742,-147.0943 1431.5532,-147.6366"/>
</g>
<!-- Node53&#45;&gt;Node46 -->
<g id="edge84" class="edge">
<title>Node53&#45;&gt;Node46</title>
<path fill="none" stroke="#191970" d="M2515.4185,-445.1394C2338.5523,-442.5948 1912.5011,-433.0694 1857,-400 1821.1954,-378.6664 1799.7125,-348.2187 1822,-313 1841.9866,-281.4172 1878.0134,-308.5828 1898,-277 1909.59,-258.6855 1899.0454,-235.2599 1887.3817,-218.0535"/>
<polygon fill="#191970" stroke="#191970" points="1890.005,-215.7099 1881.2917,-209.6826 1884.3445,-219.8281 1890.005,-215.7099"/>
</g>
<!-- Node54 -->
<g id="node55" class="node">
<title>Node54</title>
<g id="a_node55"><a xlink:href="../../d1/dfe/RawEventData_8h.html" target="_top" xlink:title="DataFormatsFT0/RawEventData.h">
<polygon fill="none" stroke="#000000" points="3290.5,-319 3290.5,-338 3471.5,-338 3471.5,-319 3290.5,-319"/>
<text text-anchor="middle" x="3381" y="-326" font-family="Helvetica,sans-Serif" font-size="10.00" fill="#000000">DataFormatsFT0/RawEventData.h</text>
</a>
</g>
</g>
<!-- Node53&#45;&gt;Node54 -->
<g id="edge85" class="edge">
<title>Node53&#45;&gt;Node54</title>
<path fill="none" stroke="#191970" d="M2668.7093,-443.8708C2813.6964,-439.2798 3122.6754,-426.6381 3226,-400 3274.6808,-387.4496 3326.9072,-360.1356 3356.6035,-343.1356"/>
<polygon fill="#191970" stroke="#191970" points="3358.534,-346.0618 3365.4205,-338.0103 3355.0161,-340.01 3358.534,-346.0618"/>
</g>
<!-- Node55 -->
<g id="node56" class="node">
<title>Node55</title>
<g id="a_node56"><a xlink:href="../../d0/d0a/DataFormats_2Detectors_2FIT_2FT0_2include_2DataFormatsFT0_2Digit_8h.html" target="_top" xlink:title="DataFormatsFT0/Digit.h">
<polygon fill="none" stroke="#000000" points="2952,-252 2952,-271 3084,-271 3084,-252 2952,-252"/>
<text text-anchor="middle" x="3018" y="-259" font-family="Helvetica,sans-Serif" font-size="10.00" fill="#000000">DataFormatsFT0/Digit.h</text>
</a>
</g>
</g>
<!-- Node53&#45;&gt;Node55 -->
<g id="edge113" class="edge">
<title>Node53&#45;&gt;Node55</title>
<path fill="none" stroke="#191970" d="M2646.3695,-436.4972C2683.6673,-428.9981 2733.8419,-416.9557 2776,-400 2862.0128,-365.4062 2954.7709,-305.0585 2996.0435,-276.8513"/>
<polygon fill="#191970" stroke="#191970" points="2998.2486,-279.5824 3004.4992,-271.0279 2994.2782,-273.8174 2998.2486,-279.5824"/>
</g>
<!-- Node58 -->
<g id="node59" class="node">
<title>Node58</title>
<g id="a_node59"><a xlink:href="../../dc/d44/FIT_2FT0_2include_2DataFormatsFT0_2ChannelData_8h.html" target="_top" xlink:title="DataFormatsFT0/ChannelData.h">
<polygon fill="none" stroke="#000000" points="3650,-185 3650,-204 3822,-204 3822,-185 3650,-185"/>
<text text-anchor="middle" x="3736" y="-192" font-family="Helvetica,sans-Serif" font-size="10.00" fill="#000000">DataFormatsFT0/ChannelData.h</text>
</a>
</g>
</g>
<!-- Node53&#45;&gt;Node58 -->
<g id="edge114" class="edge">
<title>Node53&#45;&gt;Node58</title>
<path fill="none" stroke="#191970" d="M2668.733,-444.6768C2794.2588,-441.6369 3051.0598,-431.75 3266,-400 3508.219,-364.2205 3650.4136,-468.4879 3803,-277 3821.926,-253.2488 3788.819,-225.9354 3762.764,-209.4586"/>
<polygon fill="#191970" stroke="#191970" points="3764.3044,-206.2994 3753.939,-204.106 3760.6742,-212.2845 3764.3044,-206.2994"/>
</g>
<!-- Node59 -->
<g id="node60" class="node">
<title>Node59</title>
<polygon fill="none" stroke="#bfbfbf" points="2761.5,-185 2761.5,-204 2818.5,-204 2818.5,-185 2761.5,-185"/>
<text text-anchor="middle" x="2790" y="-192" font-family="Helvetica,sans-Serif" font-size="10.00" fill="#000000">gsl/span</text>
</g>
<!-- Node53&#45;&gt;Node59 -->
<g id="edge141" class="edge">
<title>Node53&#45;&gt;Node59</title>
<path fill="none" stroke="#191970" d="M2613.9329,-436.3461C2630.2706,-428.3544 2652.3628,-415.7711 2668,-400 2725.1433,-342.3675 2766.1897,-252.8282 2782.3755,-213.7906"/>
<polygon fill="#191970" stroke="#191970" points="2785.7553,-214.7698 2786.2742,-204.1877 2779.2695,-212.1366 2785.7553,-214.7698"/>
</g>
<!-- Node60 -->
<g id="node61" class="node">
<title>Node60</title>
<g id="a_node61"><a xlink:href="../../df/d27/LookUpTable_8h.html" target="_top" xlink:title="DataFormatsFT0/LookUpTable.h">
<polygon fill="none" stroke="#000000" points="3270.5,-185 3270.5,-204 3441.5,-204 3441.5,-185 3270.5,-185"/>
<text text-anchor="middle" x="3356" y="-192" font-family="Helvetica,sans-Serif" font-size="10.00" fill="#000000">DataFormatsFT0/LookUpTable.h</text>
</a>
</g>
</g>
<!-- Node53&#45;&gt;Node60 -->
<g id="edge112" class="edge">
<title>Node53&#45;&gt;Node60</title>
<path fill="none" stroke="#191970" d="M2650.3103,-436.4376C2695.2269,-428.4547 2758.6305,-415.8407 2813,-400 3012.7008,-341.8167 3243.2833,-243.9034 3325.1955,-208.12"/>
<polygon fill="#191970" stroke="#191970" points="3326.6812,-211.2903 3334.4357,-204.071 3323.8717,-204.8788 3326.6812,-211.2903"/>
</g>
<!-- Node63 -->
<g id="node64" class="node">
<title>Node63</title>
<g id="a_node64"><a xlink:href="../../da/d08/RawFileWriter_8h.html" target="_top" xlink:title="Utility class to write detectors data to (multiple) raw data file(s) respecting CRU format...">
<polygon fill="none" stroke="#000000" points="1866.5,-380.5 1866.5,-399.5 2029.5,-399.5 2029.5,-380.5 1866.5,-380.5"/>
<text text-anchor="middle" x="1948" y="-387.5" font-family="Helvetica,sans-Serif" font-size="10.00" fill="#000000">DetectorsRaw/RawFileWriter.h</text>
</a>
</g>
</g>
<!-- Node53&#45;&gt;Node63 -->
<g id="edge116" class="edge">
<title>Node53&#45;&gt;Node63</title>
<path fill="none" stroke="#191970" d="M2515.2773,-439.3285C2396.1828,-428.9724 2167.2846,-409.0682 2039.6688,-397.9712"/>
<polygon fill="#191970" stroke="#191970" points="2039.7935,-394.4689 2029.5278,-397.0894 2039.187,-401.4426 2039.7935,-394.4689"/>
</g>
<!-- Node67 -->
<g id="node68" class="node">
<title>Node67</title>
<polygon fill="none" stroke="#bfbfbf" points="2511.5,-380.5 2511.5,-399.5 2566.5,-399.5 2566.5,-380.5 2511.5,-380.5"/>
<text text-anchor="middle" x="2539" y="-387.5" font-family="Helvetica,sans-Serif" font-size="10.00" fill="#000000">fstream</text>
</g>
<!-- Node53&#45;&gt;Node67 -->
<g id="edge135" class="edge">
<title>Node53&#45;&gt;Node67</title>
<path fill="none" stroke="#191970" d="M2582.7681,-436.2455C2575.1683,-428.2155 2564.2123,-416.6394 2555.1632,-407.0781"/>
<polygon fill="#191970" stroke="#191970" points="2557.542,-404.4998 2548.1261,-399.6427 2552.4579,-409.3115 2557.542,-404.4998"/>
</g>
<!-- Node54&#45;&gt;Node5 -->
<g id="edge107" class="edge">
<title>Node54&#45;&gt;Node5</title>
<path fill="none" stroke="#191970" d="M3436.4114,-318.957C3493.5368,-308.9921 3585.1383,-292.66 3664,-277 3670.0905,-275.7906 3676.4612,-274.4822 3682.7866,-273.156"/>
<polygon fill="#191970" stroke="#191970" points="3683.5846,-276.5647 3692.6426,-271.0689 3682.1344,-269.7166 3683.5846,-276.5647"/>
</g>
<!-- Node54&#45;&gt;Node16 -->
<g id="edge108" class="edge">
<title>Node54&#45;&gt;Node16</title>
<path fill="none" stroke="#191970" d="M3394.9009,-318.7832C3407.6743,-309.2973 3426.4712,-293.8619 3439,-277 3458.5687,-250.6635 3462.9462,-242.0435 3470,-210 3472.962,-196.5444 3472.5372,-192.5421 3470,-179 3467.8986,-167.7842 3463.431,-155.8706 3459.2503,-146.33"/>
<polygon fill="#191970" stroke="#191970" points="3462.3321,-144.6557 3454.9519,-137.0541 3455.9808,-147.5989 3462.3321,-144.6557"/>
</g>
<!-- Node54&#45;&gt;Node19 -->
<g id="edge111" class="edge">
<title>Node54&#45;&gt;Node19</title>
<path fill="none" stroke="#191970" d="M3431.5486,-318.9629C3489.3476,-307.5924 3577.4002,-288.6658 3588,-277 3617.4424,-244.5966 3617.438,-218.2301 3598,-179 3576.1755,-134.9536 3555.9753,-129.3973 3510,-112 3454.9184,-91.1568 3049.2496,-72.9515 2919.0809,-67.5934"/>
<polygon fill="#191970" stroke="#191970" points="2918.9045,-64.0833 2908.7699,-67.1722 2918.6187,-71.0775 2918.9045,-64.0833"/>
</g>
<!-- Node54&#45;&gt;Node36 -->
<g id="edge110" class="edge">
<title>Node54&#45;&gt;Node36</title>
<path fill="none" stroke="#191970" d="M3404.3007,-318.904C3422.378,-310.363 3446.8348,-296.2376 3462,-277 3508.0031,-218.6434 3540.0684,-165.9796 3489,-112 3439.3657,-59.5362 2911.9802,-81.9042 2840,-76 2821.3029,-74.4664 2800.522,-72.2513 2783.4481,-70.2956"/>
<polygon fill="#191970" stroke="#191970" points="2783.6856,-66.7997 2773.3479,-69.1198 2782.8761,-73.7527 2783.6856,-66.7997"/>
</g>
<!-- Node54&#45;&gt;Node44 -->
<g id="edge100" class="edge">
<title>Node54&#45;&gt;Node44</title>
<path fill="none" stroke="#191970" d="M3290.3058,-326.4404C2951.2293,-318.6413 1775.5654,-290.6726 1739,-277 1718.5846,-269.3663 1720.8759,-254.9449 1701,-246 1610.2498,-205.1589 1562.4869,-265.6733 1480,-210 1457.5111,-194.8215 1443.4621,-165.816 1436.177,-146.5616"/>
<polygon fill="#191970" stroke="#191970" points="1439.4388,-145.2866 1432.815,-137.0176 1432.8364,-147.6124 1439.4388,-145.2866"/>
</g>
<!-- Node54&#45;&gt;Node46 -->
<g id="edge106" class="edge">
<title>Node54&#45;&gt;Node46</title>
<path fill="none" stroke="#191970" d="M3290.1321,-328.0683C3040.9037,-326.3588 2350.2913,-317.9548 2127,-277 2084.1457,-269.1399 2075.4752,-259.3446 2034,-246 1998.5973,-234.6092 1958.8064,-222.2494 1927.0587,-212.4938"/>
<polygon fill="#191970" stroke="#191970" points="1928.0648,-209.1415 1917.478,-209.5538 1926.0112,-215.8335 1928.0648,-209.1415"/>
</g>
<!-- Node54&#45;&gt;Node55 -->
<g id="edge86" class="edge">
<title>Node54&#45;&gt;Node55</title>
<path fill="none" stroke="#191970" d="M3329.3765,-318.9717C3263.6131,-306.8335 3150.0782,-285.8781 3079.7855,-272.9039"/>
<polygon fill="#191970" stroke="#191970" points="3080.2082,-269.4229 3069.739,-271.0496 3078.9376,-276.3066 3080.2082,-269.4229"/>
</g>
<!-- Node54&#45;&gt;Node58 -->
<g id="edge99" class="edge">
<title>Node54&#45;&gt;Node58</title>
<path fill="none" stroke="#191970" d="M3440.8859,-318.9777C3502.3963,-308.6542 3593.5845,-291.6842 3626,-277 3635.846,-272.5398 3686.8217,-233.0944 3715.7996,-210.4008"/>
<polygon fill="#191970" stroke="#191970" points="3717.9705,-213.1463 3723.6773,-204.2198 3713.6494,-207.6392 3717.9705,-213.1463"/>
</g>
<!-- Node54&#45;&gt;Node60 -->
<g id="edge101" class="edge">
<title>Node54&#45;&gt;Node60</title>
<path fill="none" stroke="#191970" d="M3379.2021,-318.8631C3375.1299,-297.0364 3365.1344,-243.4605 3359.6864,-214.2589"/>
<polygon fill="#191970" stroke="#191970" points="3363.0564,-213.2381 3357.7816,-204.0496 3356.1751,-214.5219 3363.0564,-213.2381"/>
</g>
<!-- Node62 -->
<g id="node63" class="node">
<title>Node62</title>
<polygon fill="none" stroke="#bfbfbf" points="3384.5,-252 3384.5,-271 3429.5,-271 3429.5,-252 3384.5,-252"/>
<text text-anchor="middle" x="3407" y="-259" font-family="Helvetica,sans-Serif" font-size="10.00" fill="#000000">utility</text>
</g>
<!-- Node54&#45;&gt;Node62 -->
<g id="edge109" class="edge">
<title>Node54&#45;&gt;Node62</title>
<path fill="none" stroke="#191970" d="M3384.7252,-318.9005C3388.5866,-308.95 3394.726,-293.1292 3399.5823,-280.6147"/>
<polygon fill="#191970" stroke="#191970" points="3402.9269,-281.6706 3403.2817,-271.0817 3396.401,-279.1381 3402.9269,-281.6706"/>
</g>
<!-- Node55&#45;&gt;Node16 -->
<g id="edge98" class="edge">
<title>Node55&#45;&gt;Node16</title>
<path fill="none" stroke="#191970" d="M3084.2847,-258.3812C3199.5755,-252.2721 3427.0903,-236.922 3451,-210 3466.1072,-192.9895 3462.0838,-165.3302 3456.8528,-146.7833"/>
<polygon fill="#191970" stroke="#191970" points="3460.1298,-145.5383 3453.7688,-137.0656 3453.4577,-147.6558 3460.1298,-145.5383"/>
</g>
<!-- Node55&#45;&gt;Node19 -->
<g id="edge95" class="edge">
<title>Node55&#45;&gt;Node19</title>
<path fill="none" stroke="#191970" d="M3084.1316,-258.0004C3202.5483,-251.1503 3441.1767,-234.4732 3470,-210 3503.82,-181.2841 3519.1693,-144.5301 3489,-112 3469.5537,-91.032 3050.9108,-72.7806 2918.6644,-67.5208"/>
<polygon fill="#191970" stroke="#191970" points="2918.6942,-64.0193 2908.564,-67.1222 2918.4182,-71.0139 2918.6942,-64.0193"/>
</g>
<!-- Node55&#45;&gt;Node21 -->
<g id="edge97" class="edge">
<title>Node55&#45;&gt;Node21</title>
<path fill="none" stroke="#191970" d="M2951.942,-253.8059C2897.3197,-246.2434 2818.2515,-232.5039 2752,-210 2750.394,-209.4545 2748.7659,-208.8412 2747.1399,-208.1817"/>
<polygon fill="#191970" stroke="#191970" points="2748.5738,-204.9889 2738.0208,-204.0485 2745.6841,-211.3646 2748.5738,-204.9889"/>
</g>
<!-- Node55&#45;&gt;Node46 -->
<g id="edge87" class="edge">
<title>Node55&#45;&gt;Node46</title>
<path fill="none" stroke="#191970" d="M2951.8335,-258.8677C2793.9578,-252.4009 2382.7951,-234.4627 2040,-210 2015.6867,-208.2649 1989.4692,-206.0687 1965.0091,-203.8791"/>
<polygon fill="#191970" stroke="#191970" points="1965.2829,-200.3897 1955.0085,-202.9757 1964.653,-207.3613 1965.2829,-200.3897"/>
</g>
<!-- Node56 -->
<g id="node57" class="node">
<title>Node56</title>
<g id="a_node57"><a xlink:href="../../de/d64/RangeReference_8h.html" target="_top" xlink:title="Class to refer to the 1st entry and N elements of some group in the continuous container. ">
<polygon fill="none" stroke="#000000" points="2837,-185 2837,-204 3047,-204 3047,-185 2837,-185"/>
<text text-anchor="middle" x="2942" y="-192" font-family="Helvetica,sans-Serif" font-size="10.00" fill="#000000">CommonDataFormat/RangeReference.h</text>
</a>
</g>
</g>
<!-- Node55&#45;&gt;Node56 -->
<g id="edge88" class="edge">
<title>Node55&#45;&gt;Node56</title>
<path fill="none" stroke="#191970" d="M3007.1111,-251.9005C2995.0338,-241.2535 2975.3329,-223.8856 2960.76,-211.0385"/>
<polygon fill="#191970" stroke="#191970" points="2962.6846,-208.0692 2952.8687,-204.0817 2958.0555,-213.3201 2962.6846,-208.0692"/>
</g>
<!-- Node57 -->
<g id="node58" class="node">
<title>Node57</title>
<g id="a_node58"><a xlink:href="../../df/d5d/common_2include_2CommonDataFormat_2TimeStamp_8h.html" target="_top" xlink:title="CommonDataFormat/TimeStamp.h">
<polygon fill="none" stroke="#000000" points="3065.5,-185 3065.5,-204 3252.5,-204 3252.5,-185 3065.5,-185"/>
<text text-anchor="middle" x="3159" y="-192" font-family="Helvetica,sans-Serif" font-size="10.00" fill="#000000">CommonDataFormat/TimeStamp.h</text>
</a>
</g>
</g>
<!-- Node55&#45;&gt;Node57 -->
<g id="edge90" class="edge">
<title>Node55&#45;&gt;Node57</title>
<path fill="none" stroke="#191970" d="M3038.2019,-251.9005C3062.179,-240.5072 3102.3521,-221.4178 3129.7321,-208.4075"/>
<polygon fill="#191970" stroke="#191970" points="3131.3056,-211.5348 3138.8356,-204.0817 3128.3013,-205.2123 3131.3056,-211.5348"/>
</g>
<!-- Node55&#45;&gt;Node58 -->
<g id="edge93" class="edge">
<title>Node55&#45;&gt;Node58</title>
<path fill="none" stroke="#191970" d="M3084.2607,-255.3169C3211.777,-243.4177 3491.7609,-217.2911 3639.8225,-203.4748"/>
<polygon fill="#191970" stroke="#191970" points="3640.1846,-206.9563 3649.8162,-202.5422 3639.5342,-199.9866 3640.1846,-206.9563"/>
</g>
<!-- Node55&#45;&gt;Node59 -->
<g id="edge96" class="edge">
<title>Node55&#45;&gt;Node59</title>
<path fill="none" stroke="#191970" d="M2977.1673,-251.9707C2938.3945,-242.5617 2878.6691,-227.1289 2828,-210 2826.0763,-209.3497 2824.11,-208.6521 2822.1344,-207.9258"/>
<polygon fill="#191970" stroke="#191970" points="2822.9224,-204.4782 2812.333,-204.1409 2820.4008,-211.0083 2822.9224,-204.4782"/>
</g>
<!-- Node56&#45;&gt;Node43 -->
<g id="edge89" class="edge">
<title>Node56&#45;&gt;Node43</title>
<path fill="none" stroke="#191970" d="M2909.0466,-184.9005C2868.3979,-173.0594 2799.2127,-152.9054 2754.5758,-139.9025"/>
<polygon fill="#191970" stroke="#191970" points="2755.4721,-136.5182 2744.8923,-137.0817 2753.5143,-143.2389 2755.4721,-136.5182"/>
</g>
<!-- Node57&#45;&gt;Node28 -->
<g id="edge92" class="edge">
<title>Node57&#45;&gt;Node28</title>
<path fill="none" stroke="#191970" d="M3095.8734,-184.9941C2997.0544,-170.1135 2817,-143 2817,-143 2798.5367,-134.2091 2801.9076,-119.7894 2783,-112 2735.5654,-92.4582 1985.5644,-72.9505 1759.8059,-67.4971"/>
<polygon fill="#191970" stroke="#191970" points="1759.8539,-63.9974 1749.7726,-67.2557 1759.6854,-70.9953 1759.8539,-63.9974"/>
</g>
<!-- Node57&#45;&gt;Node43 -->
<g id="edge91" class="edge">
<title>Node57&#45;&gt;Node43</title>
<path fill="none" stroke="#191970" d="M3096.6573,-184.9611C3083.2509,-182.9539 3069.158,-180.877 3056,-179 2937.4596,-162.0902 2907.0879,-162.8251 2789,-143 2781.7885,-141.7893 2774.2196,-140.4057 2766.7594,-138.9747"/>
<polygon fill="#191970" stroke="#191970" points="2767.1836,-135.4915 2756.6975,-137.0059 2765.8393,-142.3612 2767.1836,-135.4915"/>
</g>
<!-- Node58&#45;&gt;Node19 -->
<g id="edge94" class="edge">
<title>Node58&#45;&gt;Node19</title>
<path fill="none" stroke="#191970" d="M3728.1551,-184.8625C3712.7295,-166.7266 3676.4155,-127.9201 3636,-112 3569.1471,-85.6659 3065.9099,-70.7959 2919.0919,-66.9862"/>
<polygon fill="#191970" stroke="#191970" points="2918.8381,-63.4787 2908.7516,-66.721 2918.6585,-70.4764 2918.8381,-63.4787"/>
</g>
<!-- Node60&#45;&gt;Node16 -->
<g id="edge104" class="edge">
<title>Node60&#45;&gt;Node16</title>
<path fill="none" stroke="#191970" d="M3369.4679,-184.9005C3384.8244,-173.9549 3410.1463,-155.9064 3428.2976,-142.9688"/>
<polygon fill="#191970" stroke="#191970" points="3430.4454,-145.736 3436.5571,-137.0817 3426.3824,-140.0358 3430.4454,-145.736"/>
</g>
<!-- Node60&#45;&gt;Node19 -->
<g id="edge102" class="edge">
<title>Node60&#45;&gt;Node19</title>
<path fill="none" stroke="#191970" d="M3357.0211,-184.8343C3358.2727,-167.3485 3358.0633,-130.5587 3337,-112 3305.9141,-84.6104 3024.6459,-71.41 2918.9248,-67.3837"/>
<polygon fill="#191970" stroke="#191970" points="2918.7943,-63.8765 2908.6707,-67.0011 2918.5333,-70.8716 2918.7943,-63.8765"/>
</g>
<!-- Node60&#45;&gt;Node22 -->
<g id="edge103" class="edge">
<title>Node60&#45;&gt;Node22</title>
<path fill="none" stroke="#191970" d="M3298.855,-184.946C3286.6949,-182.9497 3273.9266,-180.8811 3262,-179 3064.4353,-147.8401 3015.7445,-134.4364 2817,-112 2600.4017,-87.548 2338.9521,-72.7038 2244.3626,-67.8049"/>
<polygon fill="#191970" stroke="#191970" points="2244.3481,-64.2996 2234.1819,-67.2828 2243.9895,-71.2904 2244.3481,-64.2996"/>
</g>
<!-- Node61 -->
<g id="node62" class="node">
<title>Node61</title>
<polygon fill="none" stroke="#bfbfbf" points="3286.5,-118 3286.5,-137 3327.5,-137 3327.5,-118 3286.5,-118"/>
<text text-anchor="middle" x="3307" y="-125" font-family="Helvetica,sans-Serif" font-size="10.00" fill="#000000">tuple</text>
</g>
<!-- Node60&#45;&gt;Node61 -->
<g id="edge105" class="edge">
<title>Node60&#45;&gt;Node61</title>
<path fill="none" stroke="#191970" d="M3348.9795,-184.9005C3341.4839,-174.6515 3329.4337,-158.1747 3320.1624,-145.4976"/>
<polygon fill="#191970" stroke="#191970" points="3322.7358,-143.0873 3314.0075,-137.0817 3317.0856,-147.2195 3322.7358,-143.0873"/>
</g>
<!-- Node63&#45;&gt;Node4 -->
<g id="edge127" class="edge">
<title>Node63&#45;&gt;Node4</title>
<path fill="none" stroke="#191970" d="M2029.7885,-386.5792C2126.3354,-381.5365 2291.4232,-369.7578 2431,-344 2436.0779,-343.0629 2441.3641,-341.8809 2446.5722,-340.5893"/>
<polygon fill="#191970" stroke="#191970" points="2447.632,-343.9298 2456.4161,-338.0061 2445.8552,-337.159 2447.632,-343.9298"/>
</g>
<!-- Node63&#45;&gt;Node6 -->
<g id="edge121" class="edge">
<title>Node63&#45;&gt;Node6</title>
<path fill="none" stroke="#191970" d="M1866.0855,-388.7645C1629.4155,-384.9014 947.4673,-371.6247 726,-344 551.9188,-322.286 340,-436.9302 340,-261.5 340,-261.5 340,-261.5 340,-194.5 340,-156.0012 340,-111.0145 340,-85.7812"/>
<polygon fill="#191970" stroke="#191970" points="343.5001,-85.6718 340,-75.6719 336.5001,-85.6719 343.5001,-85.6718"/>
</g>
<!-- Node63&#45;&gt;Node11 -->
<g id="edge119" class="edge">
<title>Node63&#45;&gt;Node11</title>
<path fill="none" stroke="#191970" d="M2029.6962,-386.2245C2098.7381,-381.2923 2199.5859,-369.9616 2284,-344 2348.0234,-324.3095 2363.4013,-314.3564 2419,-277 2456.3764,-251.8871 2464.4263,-243.059 2495,-210 2514.0913,-189.3568 2533.0758,-163.019 2544.9096,-145.7266"/>
<polygon fill="#191970" stroke="#191970" points="2548.0092,-147.3905 2550.7035,-137.1439 2542.2074,-143.4738 2548.0092,-147.3905"/>
</g>
<!-- Node63&#45;&gt;Node12 -->
<g id="edge120" class="edge">
<title>Node63&#45;&gt;Node12</title>
<path fill="none" stroke="#191970" d="M1911.2865,-380.44C1880.6184,-371.6241 1840.4323,-357.8435 1831,-344 1823.2421,-332.6139 1823.0598,-324.2597 1831,-313 1858.4639,-274.0546 1896.6099,-308.9148 1932,-277 1970.5646,-242.2225 1985.2583,-179.4924 1990.4345,-147.4756"/>
<polygon fill="#191970" stroke="#191970" points="1993.9564,-147.5789 1991.9375,-137.1782 1987.0298,-146.5679 1993.9564,-147.5789"/>
</g>
<!-- Node63&#45;&gt;Node13 -->
<g id="edge118" class="edge">
<title>Node63&#45;&gt;Node13</title>
<path fill="none" stroke="#191970" d="M1996.9701,-380.4436C2017.2877,-373.8037 2038.9044,-362.649 2051,-344 2090.9935,-282.3381 2005.5652,-243.9302 2040,-179 2048.8642,-162.2856 2065.8483,-149.999 2081.5163,-141.6276"/>
<polygon fill="#191970" stroke="#191970" points="2083.1251,-144.7364 2090.5179,-137.1471 2080.0059,-138.4697 2083.1251,-144.7364"/>
</g>
<!-- Node63&#45;&gt;Node19 -->
<g id="edge125" class="edge">
<title>Node63&#45;&gt;Node19</title>
<path fill="none" stroke="#191970" d="M2029.6807,-384.1662C2126.7335,-376.5716 2282.5012,-362.1045 2338,-344 2364.6764,-335.2978 2368.4565,-326.6005 2393,-313 2447.4497,-282.8273 2459.5067,-272.1471 2516,-246 2517.8035,-245.1653 2781.2774,-143.9911 2783,-143 2812.8707,-125.814 2843.2108,-99.717 2861.5706,-82.7605"/>
<polygon fill="#191970" stroke="#191970" points="2864.2212,-85.0728 2869.1184,-75.6777 2859.4312,-79.9683 2864.2212,-85.0728"/>
</g>
<!-- Node63&#45;&gt;Node24 -->
<g id="edge122" class="edge">
<title>Node63&#45;&gt;Node24</title>
<path fill="none" stroke="#191970" d="M1866.2284,-386.5878C1761.6919,-381.2753 1587.1418,-368.9355 1528,-344 1464.8669,-317.3817 1470.1029,-276.996 1409,-246 1351.32,-216.7403 1330.0225,-228.3391 1268,-210 1265.025,-209.1203 1261.9545,-208.1732 1258.8773,-207.1961"/>
<polygon fill="#191970" stroke="#191970" points="1259.7276,-203.792 1249.1352,-204.0194 1257.5575,-210.4472 1259.7276,-203.792"/>
</g>
<!-- Node63&#45;&gt;Node34 -->
<g id="edge129" class="edge">
<title>Node63&#45;&gt;Node34</title>
<path fill="none" stroke="#191970" d="M1866.3653,-388.9289C1606.5941,-385.2453 813.3629,-371.768 766,-344 725.2701,-320.1209 700.5666,-286.3998 725,-246 761.4761,-185.688 839.9026,-154.5724 894.0489,-139.6579"/>
<polygon fill="#191970" stroke="#191970" points="895.091,-143.0027 903.8611,-137.0582 893.2982,-136.2361 895.091,-143.0027"/>
</g>
<!-- Node63&#45;&gt;Node41 -->
<g id="edge131" class="edge">
<title>Node63&#45;&gt;Node41</title>
<path fill="none" stroke="#191970" d="M1988.0294,-380.4581C2033.3155,-369.6632 2107.1234,-352.0694 2156.1206,-340.3899"/>
<polygon fill="#191970" stroke="#191970" points="2156.9608,-343.7877 2165.8767,-338.0643 2155.3376,-336.9785 2156.9608,-343.7877"/>
</g>
<!-- Node63&#45;&gt;Node42 -->
<g id="edge132" class="edge">
<title>Node63&#45;&gt;Node42</title>
<path fill="none" stroke="#191970" d="M1894.0797,-380.4286C1855.9823,-372.4409 1809.6993,-359.8249 1798,-344 1784.0629,-325.1482 1795.4602,-297.9836 1806.1471,-280.0459"/>
<polygon fill="#191970" stroke="#191970" points="1809.4034,-281.4506 1811.8457,-271.1411 1803.5074,-277.6774 1809.4034,-281.4506"/>
</g>
<!-- Node63&#45;&gt;Node44 -->
<g id="edge128" class="edge">
<title>Node63&#45;&gt;Node44</title>
<path fill="none" stroke="#191970" d="M1869.4373,-380.4809C1780.8741,-367.2442 1634.69,-337.7025 1523,-277 1484.0186,-255.814 1471.4548,-248.2646 1449,-210 1437.5889,-190.5547 1433.0311,-164.791 1431.2106,-147.263"/>
<polygon fill="#191970" stroke="#191970" points="1434.6809,-146.759 1430.3651,-137.0831 1427.7049,-147.3385 1434.6809,-146.759"/>
</g>
<!-- Node63&#45;&gt;Node49 -->
<g id="edge130" class="edge">
<title>Node63&#45;&gt;Node49</title>
<path fill="none" stroke="#191970" d="M1866.3532,-388.2615C1633.6164,-383.0547 977.5099,-366.5412 883,-344 812.7659,-327.2487 774.1366,-337.6775 735,-277 701.6191,-225.2463 797.4227,-205.8351 865.1421,-198.6419"/>
<polygon fill="#191970" stroke="#191970" points="865.7237,-202.1014 875.3278,-197.628 865.0303,-195.1358 865.7237,-202.1014"/>
</g>
<!-- Node63&#45;&gt;Node59 -->
<g id="edge117" class="edge">
<title>Node63&#45;&gt;Node59</title>
<path fill="none" stroke="#191970" d="M2029.695,-386.5959C2139.5605,-381.1575 2328.581,-368.5288 2393,-344 2415.0176,-335.6163 2414.9934,-323.667 2436,-313 2567.7088,-246.1192 2613.2994,-260.8171 2752,-210 2753.8565,-209.3198 2755.757,-208.605 2757.6702,-207.871"/>
<polygon fill="#191970" stroke="#191970" points="2759.1785,-211.0385 2767.1965,-204.1131 2756.6097,-204.5269 2759.1785,-211.0385"/>
</g>
<!-- Node64 -->
<g id="node65" class="node">
<title>Node64</title>
<polygon fill="none" stroke="#bfbfbf" points="1840.5,-319 1840.5,-338 1905.5,-338 1905.5,-319 1840.5,-319"/>
<text text-anchor="middle" x="1873" y="-326" font-family="Helvetica,sans-Serif" font-size="10.00" fill="#000000">functional</text>
</g>
<!-- Node63&#45;&gt;Node64 -->
<g id="edge123" class="edge">
<title>Node63&#45;&gt;Node64</title>
<path fill="none" stroke="#191970" d="M1936.2813,-380.3906C1924.6812,-370.8786 1906.7021,-356.1357 1892.8679,-344.7917"/>
<polygon fill="#191970" stroke="#191970" points="1894.836,-341.8792 1884.884,-338.2449 1890.3974,-347.2921 1894.836,-341.8792"/>
</g>
<!-- Node65 -->
<g id="node66" class="node">
<title>Node65</title>
<polygon fill="none" stroke="#bfbfbf" points="1924,-319 1924,-338 1972,-338 1972,-319 1924,-319"/>
<text text-anchor="middle" x="1948" y="-326" font-family="Helvetica,sans-Serif" font-size="10.00" fill="#000000">mutex</text>
</g>
<!-- Node63&#45;&gt;Node65 -->
<g id="edge124" class="edge">
<title>Node63&#45;&gt;Node65</title>
<path fill="none" stroke="#191970" d="M1948,-380.3906C1948,-371.8657 1948,-359.1392 1948,-348.4235"/>
<polygon fill="#191970" stroke="#191970" points="1951.5001,-348.2448 1948,-338.2449 1944.5001,-348.2449 1951.5001,-348.2448"/>
</g>
<!-- Node66 -->
<g id="node67" class="node">
<title>Node66</title>
<polygon fill="none" stroke="#bfbfbf" points="1990,-319 1990,-338 2042,-338 2042,-319 1990,-319"/>
<text text-anchor="middle" x="2016" y="-326" font-family="Helvetica,sans-Serif" font-size="10.00" fill="#000000">TTree.h</text>
</g>
<!-- Node63&#45;&gt;Node66 -->
<g id="edge126" class="edge">
<title>Node63&#45;&gt;Node66</title>
<path fill="none" stroke="#191970" d="M1958.625,-380.3906C1969.0431,-370.9683 1985.1364,-356.4134 1997.6304,-345.1137"/>
<polygon fill="#191970" stroke="#191970" points="2000.1562,-347.5484 2005.2252,-338.2449 1995.4608,-342.3568 2000.1562,-347.5484"/>
</g>
<!-- Node68&#45;&gt;Node18 -->
<g id="edge148" class="edge">
<title>Node68&#45;&gt;Node18</title>
<path fill="none" stroke="#191970" d="M994.1118,-313.4639C1016.0367,-303.7996 1044.7254,-291.154 1068.3119,-280.7572"/>
<polygon fill="#191970" stroke="#191970" points="1070.0007,-283.8379 1077.7395,-276.6017 1067.1772,-277.4325 1070.0007,-283.8379"/>
</g>
<!-- Node68&#45;&gt;Node19 -->
<g id="edge143" class="edge">
<title>Node68&#45;&gt;Node19</title>
<path fill="none" stroke="#191970" d="M1027.664,-321.9413C1062.4079,-318.7916 1105.4349,-315.2269 1144,-313 1271.5169,-305.6365 2170.7201,-313.9109 2293,-277 2318.0313,-269.4442 2319.8883,-258.2271 2343,-246 2377.8225,-227.5774 2393.6467,-235.1133 2424,-210 2464.8459,-176.2054 2446.5636,-139.3131 2492,-112 2499.4135,-107.5435 2742.0482,-80.8413 2839.2824,-70.2877"/>
<polygon fill="#191970" stroke="#191970" points="2839.7492,-73.7577 2849.3137,-69.2002 2838.9947,-66.7984 2839.7492,-73.7577"/>
</g>
<!-- Node68&#45;&gt;Node23 -->
<g id="edge144" class="edge">
<title>Node68&#45;&gt;Node23</title>
<path fill="none" stroke="#191970" d="M962.8187,-313.34C966.493,-296.1054 974.0315,-267.5692 987,-246 1029.5973,-175.152 1042.9749,-150.7468 1116,-112 1117.2762,-111.3228 1274.5799,-84.3671 1346.6551,-72.0403"/>
<polygon fill="#191970" stroke="#191970" points="1347.375,-75.4681 1356.642,-70.3326 1346.1951,-68.5682 1347.375,-75.4681"/>
</g>
<!-- Node68&#45;&gt;Node48 -->
<g id="edge146" class="edge">
<title>Node68&#45;&gt;Node48</title>
<path fill="none" stroke="#191970" d="M967.7074,-313.2214C977.3138,-295.3521 995.1588,-265.7121 1017,-246 1073.7594,-194.7735 1156.6933,-158.6252 1204.4128,-140.5978"/>
<polygon fill="#191970" stroke="#191970" points="1205.8805,-143.7865 1214.039,-137.0271 1203.446,-137.2235 1205.8805,-143.7865"/>
</g>
<!-- Node69 -->
<g id="node70" class="node">
<title>Node69</title>
<polygon fill="none" stroke="#bfbfbf" points="888,-252 888,-271 932,-271 932,-252 888,-252"/>
<text text-anchor="middle" x="910" y="-259" font-family="Helvetica,sans-Serif" font-size="10.00" fill="#000000">ctime</text>
</g>
<!-- Node68&#45;&gt;Node69 -->
<g id="edge145" class="edge">
<title>Node68&#45;&gt;Node69</title>
<path fill="none" stroke="#191970" d="M948.6542,-313.2967C941.0909,-303.1618 931.1224,-289.804 923.2031,-279.1921"/>
<polygon fill="#191970" stroke="#191970" points="925.9165,-276.976 917.1306,-271.055 920.3064,-281.1626 925.9165,-276.976"/>
</g>
<!-- Node70 -->
<g id="node71" class="node">
<title>Node70</title>
<g id="a_node71"><a xlink:href="../../da/d58/Units_8h.html" target="_top" xlink:title="Header to collect definitions for different units. ">
<polygon fill="none" stroke="#000000" points="744,-252 744,-271 870,-271 870,-252 744,-252"/>
<text text-anchor="middle" x="807" y="-259" font-family="Helvetica,sans-Serif" font-size="10.00" fill="#000000">CommonTypes/Units.h</text>
</a>
</g>
</g>
<!-- Node68&#45;&gt;Node70 -->
<g id="edge147" class="edge">
<title>Node68&#45;&gt;Node70</title>
<path fill="none" stroke="#191970" d="M925.6638,-313.4639C899.4142,-301.969 863.5326,-286.2561 838.1175,-275.1266"/>
<polygon fill="#191970" stroke="#191970" points="839.4955,-271.9092 828.9313,-271.1039 836.6876,-278.3214 839.4955,-271.9092"/>
</g>
</g>
</svg>
