<?xml version="1.0" encoding="UTF-8" standalone="no"?>
<!DOCTYPE svg PUBLIC "-//W3C//DTD SVG 1.1//EN"
 "http://www.w3.org/Graphics/SVG/1.1/DTD/svg11.dtd">
<!-- Generated by graphviz version 2.40.1 (20161225.0304)
 -->
<!-- Title: /home/travis/build/AliceO2Group/AliceO2/DataFormats/Detectors/FIT/FT0/src/CTF.cxx Pages: 1 -->
<svg width="1230pt" height="520pt"
 viewBox="0.00 0.00 1229.50 520.00" xmlns="http://www.w3.org/2000/svg" xmlns:xlink="http://www.w3.org/1999/xlink">
<g id="graph0" class="graph" transform="scale(1 1) rotate(0) translate(4 516)">
<title>/home/travis/build/AliceO2Group/AliceO2/DataFormats/Detectors/FIT/FT0/src/CTF.cxx</title>
<!-- Node0 -->
<g id="node1" class="node">
<title>Node0</title>
<polygon fill="#bfbfbf" stroke="#000000" points="537,-459.5 537,-511.5 670,-511.5 670,-459.5 537,-459.5"/>
<text text-anchor="start" x="545" y="-499.5" font-family="Helvetica,sans-Serif" font-size="10.00" fill="#000000">/home/travis/build</text>
<text text-anchor="start" x="545" y="-488.5" font-family="Helvetica,sans-Serif" font-size="10.00" fill="#000000">/AliceO2Group/AliceO2</text>
<text text-anchor="start" x="545" y="-477.5" font-family="Helvetica,sans-Serif" font-size="10.00" fill="#000000">/DataFormats/Detectors</text>
<text text-anchor="middle" x="603.5" y="-466.5" font-family="Helvetica,sans-Serif" font-size="10.00" fill="#000000">/FIT/FT0/src/CTF.cxx</text>
</g>
<!-- Node1 -->
<g id="node2" class="node">
<title>Node1</title>
<polygon fill="none" stroke="#bfbfbf" points="0,-168.5 0,-187.5 65,-187.5 65,-168.5 0,-168.5"/>
<text text-anchor="middle" x="32.5" y="-175.5" font-family="Helvetica,sans-Serif" font-size="10.00" fill="#000000">stdexcept</text>
</g>
<!-- Node0&#45;&gt;Node1 -->
<g id="edge1" class="edge">
<title>Node0&#45;&gt;Node1</title>
<path fill="none" stroke="#191970" d="M536.9242,-480.7383C405.7521,-469.5198 126.5,-435.744 126.5,-351.5 126.5,-351.5 126.5,-351.5 126.5,-290 126.5,-247.1654 85.661,-212.139 57.8197,-193.2374"/>
<polygon fill="#191970" stroke="#191970" points="59.592,-190.2145 49.3053,-187.6776 55.7647,-196.0756 59.592,-190.2145"/>
</g>
<!-- Node2 -->
<g id="node3" class="node">
<title>Node2</title>
<polygon fill="none" stroke="#bfbfbf" points="552.5,-403.5 552.5,-422.5 602.5,-422.5 602.5,-403.5 552.5,-403.5"/>
<text text-anchor="middle" x="577.5" y="-410.5" font-family="Helvetica,sans-Serif" font-size="10.00" fill="#000000">cstring</text>
</g>
<!-- Node0&#45;&gt;Node2 -->
<g id="edge2" class="edge">
<title>Node0&#45;&gt;Node2</title>
<path fill="none" stroke="#191970" d="M594.1134,-459.3258C590.8815,-450.3139 587.326,-440.3995 584.3364,-432.063"/>
<polygon fill="#191970" stroke="#191970" points="587.5894,-430.7655 580.9191,-422.534 581.0003,-433.1285 587.5894,-430.7655"/>
</g>
<!-- Node3 -->
<g id="node4" class="node">
<title>Node3</title>
<g id="a_node4"><a xlink:href="../../dd/da4/Logger_8h.html" target="_top" xlink:title="Framework/Logger.h">
<polygon fill="none" stroke="#000000" points="573,-280.5 573,-299.5 688,-299.5 688,-280.5 573,-280.5"/>
<text text-anchor="middle" x="630.5" y="-287.5" font-family="Helvetica,sans-Serif" font-size="10.00" fill="#000000">Framework/Logger.h</text>
</a>
</g>
</g>
<!-- Node0&#45;&gt;Node3 -->
<g id="edge3" class="edge">
<title>Node0&#45;&gt;Node3</title>
<path fill="none" stroke="#191970" d="M607.1413,-459.134C612.6225,-419.4463 622.8711,-345.2389 627.764,-309.8109"/>
<polygon fill="#191970" stroke="#191970" points="631.2505,-310.1487 629.1515,-299.7639 624.3163,-309.191 631.2505,-310.1487"/>
</g>
<!-- Node4 -->
<g id="node5" class="node">
<title>Node4</title>
<g id="a_node5"><a xlink:href="../../d1/d77/FIT_2FT0_2include_2DataFormatsFT0_2CTF_8h.html" target="_top" xlink:title="DataFormatsFT0/CTF.h">
<polygon fill="none" stroke="#000000" points="1003,-403.5 1003,-422.5 1128,-422.5 1128,-403.5 1003,-403.5"/>
<text text-anchor="middle" x="1065.5" y="-410.5" font-family="Helvetica,sans-Serif" font-size="10.00" fill="#000000">DataFormatsFT0/CTF.h</text>
</a>
</g>
</g>
<!-- Node0&#45;&gt;Node4 -->
<g id="edge4" class="edge">
<title>Node0&#45;&gt;Node4</title>
<path fill="none" stroke="#191970" d="M670.1854,-475.0353C756.5656,-461.48 906.5026,-437.9509 994.8007,-424.0946"/>
<polygon fill="#191970" stroke="#191970" points="995.3913,-427.5448 1004.7277,-422.5368 994.306,-420.6295 995.3913,-427.5448"/>
</g>
<!-- Node5 -->
<g id="node6" class="node">
<title>Node5</title>
<polygon fill="none" stroke="#bfbfbf" points="922,-56.5 922,-75.5 969,-75.5 969,-56.5 922,-56.5"/>
<text text-anchor="middle" x="945.5" y="-63.5" font-family="Helvetica,sans-Serif" font-size="10.00" fill="#000000">vector</text>
</g>
<!-- Node4&#45;&gt;Node5 -->
<g id="edge5" class="edge">
<title>Node4&#45;&gt;Node5</title>
<path fill="none" stroke="#191970" d="M1098.2027,-403.4593C1143.9469,-387.8672 1221.5,-352.2531 1221.5,-290 1221.5,-290 1221.5,-290 1221.5,-178 1221.5,-126.248 1052.7797,-86.9554 979.1705,-72.2755"/>
<polygon fill="#191970" stroke="#191970" points="979.5179,-68.7771 969.0316,-70.2897 978.1724,-75.6466 979.5179,-68.7771"/>
</g>
<!-- Node6 -->
<g id="node7" class="node">
<title>Node6</title>
<polygon fill="none" stroke="#bfbfbf" points="1134,-280.5 1134,-299.5 1193,-299.5 1193,-280.5 1134,-280.5"/>
<text text-anchor="middle" x="1163.5" y="-287.5" font-family="Helvetica,sans-Serif" font-size="10.00" fill="#000000">Rtypes.h</text>
</g>
<!-- Node4&#45;&gt;Node6 -->
<g id="edge6" class="edge">
<title>Node4&#45;&gt;Node6</title>
<path fill="none" stroke="#191970" d="M1073.1899,-403.3484C1089.6489,-382.6906 1128.4939,-333.9362 1149.4739,-307.6042"/>
<polygon fill="#191970" stroke="#191970" points="1152.3517,-309.6089 1155.8458,-299.6068 1146.877,-305.2469 1152.3517,-309.6089"/>
</g>
<!-- Node7 -->
<g id="node8" class="node">
<title>Node7</title>
<g id="a_node8"><a xlink:href="../../da/d91/EncodedBlocks_8h.html" target="_top" xlink:title="DetectorsCommonDataFormats\l/EncodedBlocks.h">
<polygon fill="none" stroke="#000000" points="892,-336.5 892,-366.5 1063,-366.5 1063,-336.5 892,-336.5"/>
<text text-anchor="start" x="900" y="-354.5" font-family="Helvetica,sans-Serif" font-size="10.00" fill="#000000">DetectorsCommonDataFormats</text>
<text text-anchor="middle" x="977.5" y="-343.5" font-family="Helvetica,sans-Serif" font-size="10.00" fill="#000000">/EncodedBlocks.h</text>
</a>
</g>
</g>
<!-- Node4&#45;&gt;Node7 -->
<g id="edge7" class="edge">
<title>Node4&#45;&gt;Node7</title>
<path fill="none" stroke="#191970" d="M1051.75,-403.3906C1039.9505,-395.1444 1022.5258,-382.9669 1007.5212,-372.4807"/>
<polygon fill="#191970" stroke="#191970" points="1009.2289,-369.4042 999.0272,-366.5446 1005.219,-375.1419 1009.2289,-369.4042"/>
</g>
<!-- Node7&#45;&gt;Node3 -->
<g id="edge65" class="edge">
<title>Node7&#45;&gt;Node3</title>
<path fill="none" stroke="#191970" d="M892.6143,-336.4554C831.4152,-325.6089 750.1089,-311.1987 694.3718,-301.3202"/>
<polygon fill="#191970" stroke="#191970" points="694.7301,-297.8292 684.2727,-299.5303 693.5084,-304.7218 694.7301,-297.8292"/>
</g>
<!-- Node7&#45;&gt;Node6 -->
<g id="edge9" class="edge">
<title>Node7&#45;&gt;Node6</title>
<path fill="none" stroke="#191970" d="M1023.0007,-336.4554C1054.3075,-326.104 1095.4309,-312.5067 1125.0889,-302.7004"/>
<polygon fill="#191970" stroke="#191970" points="1126.2809,-305.9927 1134.6766,-299.5303 1124.0834,-299.3466 1126.2809,-305.9927"/>
</g>
<!-- Node8 -->
<g id="node9" class="node">
<title>Node8</title>
<polygon fill="none" stroke="#bfbfbf" points="972,-112.5 972,-131.5 1041,-131.5 1041,-112.5 972,-112.5"/>
<text text-anchor="middle" x="1006.5" y="-119.5" font-family="Helvetica,sans-Serif" font-size="10.00" fill="#000000">type_traits</text>
</g>
<!-- Node7&#45;&gt;Node8 -->
<g id="edge8" class="edge">
<title>Node7&#45;&gt;Node8</title>
<path fill="none" stroke="#191970" d="M995.5543,-336.1419C1005.4057,-326.7308 1016.9057,-313.8558 1023.5,-300 1048.7227,-247.0023 1042.5128,-224.7411 1027.5,-168 1025.0096,-158.5875 1020.7356,-148.6969 1016.6908,-140.5091"/>
<polygon fill="#191970" stroke="#191970" points="1019.7292,-138.7658 1012.0061,-131.5129 1013.5206,-141.9989 1019.7292,-138.7658"/>
</g>
<!-- Node9 -->
<g id="node10" class="node">
<title>Node9</title>
<g id="a_node10"><a xlink:href="../../d4/de7/rans_8h.html" target="_top" xlink:title="header for public api ">
<polygon fill="none" stroke="#000000" points="940.5,-280.5 940.5,-299.5 1014.5,-299.5 1014.5,-280.5 940.5,-280.5"/>
<text text-anchor="middle" x="977.5" y="-287.5" font-family="Helvetica,sans-Serif" font-size="10.00" fill="#000000">rANS/rans.h</text>
</a>
</g>
</g>
<!-- Node7&#45;&gt;Node9 -->
<g id="edge10" class="edge">
<title>Node7&#45;&gt;Node9</title>
<path fill="none" stroke="#191970" d="M977.5,-336.2977C977.5,-328.3834 977.5,-318.6043 977.5,-310.0759"/>
<polygon fill="#191970" stroke="#191970" points="981.0001,-309.8469 977.5,-299.8469 974.0001,-309.847 981.0001,-309.8469"/>
</g>
<!-- Node30 -->
<g id="node31" class="node">
<title>Node30</title>
<polygon fill="none" stroke="#bfbfbf" points="706.5,-280.5 706.5,-299.5 758.5,-299.5 758.5,-280.5 706.5,-280.5"/>
<text text-anchor="middle" x="732.5" y="-287.5" font-family="Helvetica,sans-Serif" font-size="10.00" fill="#000000">TTree.h</text>
</g>
<!-- Node7&#45;&gt;Node30 -->
<g id="edge62" class="edge">
<title>Node7&#45;&gt;Node30</title>
<path fill="none" stroke="#191970" d="M913.4686,-336.4611C874.1504,-327.0723 822.542,-314.4747 768.5858,-300.2262"/>
<polygon fill="#191970" stroke="#191970" points="769.4069,-296.823 758.8438,-297.6422 767.6122,-303.589 769.4069,-296.823"/>
</g>
<!-- Node31 -->
<g id="node32" class="node">
<title>Node31</title>
<g id="a_node32"><a xlink:href="../../d4/d8f/StringUtils_8h.html" target="_top" xlink:title="CommonUtils/StringUtils.h">
<polygon fill="none" stroke="#000000" points="776.5,-280.5 776.5,-299.5 922.5,-299.5 922.5,-280.5 776.5,-280.5"/>
<text text-anchor="middle" x="849.5" y="-287.5" font-family="Helvetica,sans-Serif" font-size="10.00" fill="#000000">CommonUtils/StringUtils.h</text>
</a>
</g>
</g>
<!-- Node7&#45;&gt;Node31 -->
<g id="edge63" class="edge">
<title>Node7&#45;&gt;Node31</title>
<path fill="none" stroke="#191970" d="M946.1877,-336.4554C925.4862,-326.509 898.5477,-313.5659 878.3647,-303.8686"/>
<polygon fill="#191970" stroke="#191970" points="879.8648,-300.7064 869.3355,-299.5303 876.8333,-307.0159 879.8648,-300.7064"/>
</g>
<!-- Node10 -->
<g id="node11" class="node">
<title>Node10</title>
<g id="a_node11"><a xlink:href="../../d0/d51/SymbolStatistics_8h.html" target="_top" xlink:title="Structure to depict the distribution of symbols in the source message. ">
<polygon fill="none" stroke="#000000" points="591.5,-112.5 591.5,-131.5 725.5,-131.5 725.5,-112.5 591.5,-112.5"/>
<text text-anchor="middle" x="658.5" y="-119.5" font-family="Helvetica,sans-Serif" font-size="10.00" fill="#000000">rANS/SymbolStatistics.h</text>
</a>
</g>
</g>
<!-- Node9&#45;&gt;Node10 -->
<g id="edge11" class="edge">
<title>Node9&#45;&gt;Node10</title>
<path fill="none" stroke="#191970" d="M942.5958,-280.4806C892.1598,-265.7267 797.2056,-234.1456 726.5,-188 705.7695,-174.4703 685.9163,-154.0441 673.071,-139.5027"/>
<polygon fill="#191970" stroke="#191970" points="675.5427,-137.0093 666.364,-131.7175 670.2394,-141.5782 675.5427,-137.0093"/>
</g>
<!-- Node21 -->
<g id="node22" class="node">
<title>Node21</title>
<g id="a_node22"><a xlink:href="../../dd/d74/Utilities_2rANS_2include_2rANS_2Encoder_8h.html" target="_top" xlink:title="rANS/Encoder.h">
<polygon fill="none" stroke="#000000" points="322,-224.5 322,-243.5 413,-243.5 413,-224.5 322,-224.5"/>
<text text-anchor="middle" x="367.5" y="-231.5" font-family="Helvetica,sans-Serif" font-size="10.00" fill="#000000">rANS/Encoder.h</text>
</a>
</g>
</g>
<!-- Node9&#45;&gt;Node21 -->
<g id="edge24" class="edge">
<title>Node9&#45;&gt;Node21</title>
<path fill="none" stroke="#191970" d="M940.4207,-281.4971C937.4114,-280.942 934.4101,-280.433 931.5,-280 746.4275,-252.4604 524.5577,-240.4373 423.0825,-236.0862"/>
<polygon fill="#191970" stroke="#191970" points="423.1981,-232.588 413.0599,-235.6647 422.904,-239.5818 423.1981,-232.588"/>
</g>
<!-- Node28 -->
<g id="node29" class="node">
<title>Node28</title>
<g id="a_node29"><a xlink:href="../../dc/d62/Utilities_2rANS_2include_2rANS_2Decoder_8h.html" target="_top" xlink:title="rANS/Decoder.h">
<polygon fill="none" stroke="#000000" points="931.5,-224.5 931.5,-243.5 1023.5,-243.5 1023.5,-224.5 931.5,-224.5"/>
<text text-anchor="middle" x="977.5" y="-231.5" font-family="Helvetica,sans-Serif" font-size="10.00" fill="#000000">rANS/Decoder.h</text>
</a>
</g>
</g>
<!-- Node9&#45;&gt;Node28 -->
<g id="edge48" class="edge">
<title>Node9&#45;&gt;Node28</title>
<path fill="none" stroke="#191970" d="M977.5,-280.2455C977.5,-272.9382 977.5,-262.6944 977.5,-253.7046"/>
<polygon fill="#191970" stroke="#191970" points="981.0001,-253.6426 977.5,-243.6427 974.0001,-253.6427 981.0001,-253.6426"/>
</g>
<!-- Node10&#45;&gt;Node5 -->
<g id="edge16" class="edge">
<title>Node10&#45;&gt;Node5</title>
<path fill="none" stroke="#191970" d="M722.6007,-112.4851C771.8962,-104.6889 841.8347,-92.595 911.9098,-75.9222"/>
<polygon fill="#191970" stroke="#191970" points="912.895,-79.2851 921.7965,-73.5392 911.2547,-72.48 912.895,-79.2851"/>
</g>
<!-- Node11 -->
<g id="node12" class="node">
<title>Node11</title>
<polygon fill="none" stroke="#bfbfbf" points="82.5,-56.5 82.5,-75.5 146.5,-75.5 146.5,-56.5 82.5,-56.5"/>
<text text-anchor="middle" x="114.5" y="-63.5" font-family="Helvetica,sans-Serif" font-size="10.00" fill="#000000">algorithm</text>
</g>
<!-- Node10&#45;&gt;Node11 -->
<g id="edge12" class="edge">
<title>Node10&#45;&gt;Node11</title>
<path fill="none" stroke="#191970" d="M591.142,-117.0295C497.6519,-109.802 323.36,-95.1384 175.5,-76 169.5001,-75.2234 163.1845,-74.3039 156.9834,-73.3421"/>
<polygon fill="#191970" stroke="#191970" points="157.1585,-69.8256 146.7311,-71.7012 156.0522,-76.7377 157.1585,-69.8256"/>
</g>
<!-- Node12 -->
<g id="node13" class="node">
<title>Node12</title>
<polygon fill="none" stroke="#bfbfbf" points="184.5,-56.5 184.5,-75.5 236.5,-75.5 236.5,-56.5 184.5,-56.5"/>
<text text-anchor="middle" x="210.5" y="-63.5" font-family="Helvetica,sans-Serif" font-size="10.00" fill="#000000">cassert</text>
</g>
<!-- Node10&#45;&gt;Node12 -->
<g id="edge13" class="edge">
<title>Node10&#45;&gt;Node12</title>
<path fill="none" stroke="#191970" d="M591.4299,-113.6162C495.3801,-101.61 321.9691,-79.9336 246.8392,-70.5424"/>
<polygon fill="#191970" stroke="#191970" points="247.2656,-67.0685 236.9086,-69.3011 246.3973,-74.0145 247.2656,-67.0685"/>
</g>
<!-- Node13 -->
<g id="node14" class="node">
<title>Node13</title>
<polygon fill="none" stroke="#bfbfbf" points="843.5,-56.5 843.5,-75.5 903.5,-75.5 903.5,-56.5 843.5,-56.5"/>
<text text-anchor="middle" x="873.5" y="-63.5" font-family="Helvetica,sans-Serif" font-size="10.00" fill="#000000">iostream</text>
</g>
<!-- Node10&#45;&gt;Node13 -->
<g id="edge14" class="edge">
<title>Node10&#45;&gt;Node13</title>
<path fill="none" stroke="#191970" d="M695.4598,-112.3733C733.8956,-102.3621 793.8714,-86.7405 833.4246,-76.4383"/>
<polygon fill="#191970" stroke="#191970" points="834.4669,-79.7836 843.2618,-73.876 832.7025,-73.0096 834.4669,-79.7836"/>
</g>
<!-- Node14 -->
<g id="node15" class="node">
<title>Node14</title>
<polygon fill="none" stroke="#bfbfbf" points="643.5,-56.5 643.5,-75.5 699.5,-75.5 699.5,-56.5 643.5,-56.5"/>
<text text-anchor="middle" x="671.5" y="-63.5" font-family="Helvetica,sans-Serif" font-size="10.00" fill="#000000">numeric</text>
</g>
<!-- Node10&#45;&gt;Node14 -->
<g id="edge15" class="edge">
<title>Node10&#45;&gt;Node14</title>
<path fill="none" stroke="#191970" d="M660.7644,-112.2455C662.4794,-104.8579 664.8912,-94.4689 666.9944,-85.4087"/>
<polygon fill="#191970" stroke="#191970" points="670.4095,-86.1751 669.2615,-75.6427 663.5908,-84.5922 670.4095,-86.1751"/>
</g>
<!-- Node15 -->
<g id="node16" class="node">
<title>Node15</title>
<polygon fill="none" stroke="#bfbfbf" points="520,-.5 520,-19.5 567,-19.5 567,-.5 520,-.5"/>
<text text-anchor="middle" x="543.5" y="-7.5" font-family="Helvetica,sans-Serif" font-size="10.00" fill="#000000">cmath</text>
</g>
<!-- Node10&#45;&gt;Node15 -->
<g id="edge17" class="edge">
<title>Node10&#45;&gt;Node15</title>
<path fill="none" stroke="#191970" d="M622.4275,-112.3748C602.4867,-105.333 578.7367,-93.833 563.5,-76 552.4535,-63.0712 547.5082,-44.1728 545.2943,-29.9083"/>
<polygon fill="#191970" stroke="#191970" points="548.7295,-29.1651 544.04,-19.6646 541.7814,-30.0159 548.7295,-29.1651"/>
</g>
<!-- Node16 -->
<g id="node17" class="node">
<title>Node16</title>
<polygon fill="none" stroke="#bfbfbf" points="572,-56.5 572,-75.5 625,-75.5 625,-56.5 572,-56.5"/>
<text text-anchor="middle" x="598.5" y="-63.5" font-family="Helvetica,sans-Serif" font-size="10.00" fill="#000000">iterator</text>
</g>
<!-- Node10&#45;&gt;Node16 -->
<g id="edge18" class="edge">
<title>Node10&#45;&gt;Node16</title>
<path fill="none" stroke="#191970" d="M648.0488,-112.2455C639.2731,-104.0549 626.5446,-92.1749 616.186,-82.5069"/>
<polygon fill="#191970" stroke="#191970" points="618.5301,-79.9072 608.8314,-75.6427 613.7539,-85.0246 618.5301,-79.9072"/>
</g>
<!-- Node17 -->
<g id="node18" class="node">
<title>Node17</title>
<polygon fill="none" stroke="#bfbfbf" points="717.5,-56.5 717.5,-75.5 825.5,-75.5 825.5,-56.5 717.5,-56.5"/>
<text text-anchor="middle" x="771.5" y="-63.5" font-family="Helvetica,sans-Serif" font-size="10.00" fill="#000000">fairlogger/Logger.h</text>
</g>
<!-- Node10&#45;&gt;Node17 -->
<g id="edge19" class="edge">
<title>Node10&#45;&gt;Node17</title>
<path fill="none" stroke="#191970" d="M677.9254,-112.3733C695.9021,-103.4644 722.8441,-90.1127 743.209,-80.0203"/>
<polygon fill="#191970" stroke="#191970" points="744.9222,-83.0776 752.3281,-75.5011 741.8139,-76.8055 744.9222,-83.0776"/>
</g>
<!-- Node18 -->
<g id="node19" class="node">
<title>Node18</title>
<g id="a_node19"><a xlink:href="../../d4/da1/helper_8h.html" target="_top" xlink:title="various helper functions ">
<polygon fill="none" stroke="#000000" points="459.5,-56.5 459.5,-75.5 515.5,-75.5 515.5,-56.5 459.5,-56.5"/>
<text text-anchor="middle" x="487.5" y="-63.5" font-family="Helvetica,sans-Serif" font-size="10.00" fill="#000000">helper.h</text>
</a>
</g>
</g>
<!-- Node10&#45;&gt;Node18 -->
<g id="edge20" class="edge">
<title>Node10&#45;&gt;Node18</title>
<path fill="none" stroke="#191970" d="M629.1041,-112.3733C600.4109,-102.9767 556.6246,-88.6373 525.3434,-78.3932"/>
<polygon fill="#191970" stroke="#191970" points="526.2542,-75.0086 515.6616,-75.2225 524.0756,-81.661 526.2542,-75.0086"/>
</g>
<!-- Node18&#45;&gt;Node15 -->
<g id="edge22" class="edge">
<title>Node18&#45;&gt;Node15</title>
<path fill="none" stroke="#191970" d="M497.2545,-56.2455C505.3648,-48.1352 517.0925,-36.4075 526.7081,-26.7919"/>
<polygon fill="#191970" stroke="#191970" points="529.2611,-29.1887 533.8573,-19.6427 524.3113,-24.2389 529.2611,-29.1887"/>
</g>
<!-- Node19 -->
<g id="node20" class="node">
<title>Node19</title>
<polygon fill="none" stroke="#bfbfbf" points="871,-.5 871,-19.5 924,-19.5 924,-.5 871,-.5"/>
<text text-anchor="middle" x="897.5" y="-7.5" font-family="Helvetica,sans-Serif" font-size="10.00" fill="#000000">cstddef</text>
</g>
<!-- Node18&#45;&gt;Node19 -->
<g id="edge21" class="edge">
<title>Node18&#45;&gt;Node19</title>
<path fill="none" stroke="#191970" d="M515.681,-62.1509C587.9692,-52.2774 779.9632,-26.0538 860.8039,-15.0122"/>
<polygon fill="#191970" stroke="#191970" points="861.5652,-18.4408 870.9995,-13.6196 860.6178,-11.5051 861.5652,-18.4408"/>
</g>
<!-- Node20 -->
<g id="node21" class="node">
<title>Node20</title>
<polygon fill="none" stroke="#bfbfbf" points="451.5,-.5 451.5,-19.5 501.5,-19.5 501.5,-.5 451.5,-.5"/>
<text text-anchor="middle" x="476.5" y="-7.5" font-family="Helvetica,sans-Serif" font-size="10.00" fill="#000000">chrono</text>
</g>
<!-- Node18&#45;&gt;Node20 -->
<g id="edge23" class="edge">
<title>Node18&#45;&gt;Node20</title>
<path fill="none" stroke="#191970" d="M485.5839,-56.2455C484.1486,-48.9382 482.1364,-38.6944 480.3705,-29.7046"/>
<polygon fill="#191970" stroke="#191970" points="483.756,-28.7805 478.3941,-19.6427 476.8873,-30.1298 483.756,-28.7805"/>
</g>
<!-- Node21&#45;&gt;Node1 -->
<g id="edge28" class="edge">
<title>Node21&#45;&gt;Node1</title>
<path fill="none" stroke="#191970" d="M321.8978,-225.6124C318.719,-225.0574 315.5627,-224.5149 312.5,-224 209.166,-206.6263 182.5638,-206.9107 79.5,-188 78.0384,-187.7318 76.5527,-187.4525 75.0532,-187.165"/>
<polygon fill="#191970" stroke="#191970" points="75.5597,-183.6973 65.0689,-185.1778 74.1933,-190.5626 75.5597,-183.6973"/>
</g>
<!-- Node21&#45;&gt;Node11 -->
<g id="edge26" class="edge">
<title>Node21&#45;&gt;Node11</title>
<path fill="none" stroke="#191970" d="M321.9659,-224.5635C291.1358,-217.1239 250.0656,-205.1245 216.5,-188 179.7603,-169.2562 167.8565,-164.5297 142.5,-132 131.7524,-118.212 124.3697,-99.6867 119.8948,-85.7726"/>
<polygon fill="#191970" stroke="#191970" points="123.1282,-84.3669 116.9207,-75.781 116.4191,-86.364 123.1282,-84.3669"/>
</g>
<!-- Node21&#45;&gt;Node17 -->
<g id="edge27" class="edge">
<title>Node21&#45;&gt;Node17</title>
<path fill="none" stroke="#191970" d="M413.108,-225.8562C499.774,-209.6622 684.1056,-171.5547 734.5,-132 749.6333,-120.1218 759.5609,-100.2339 765.2862,-85.3881"/>
<polygon fill="#191970" stroke="#191970" points="768.6935,-86.2507 768.7267,-75.6559 762.0937,-83.9175 768.6935,-86.2507"/>
</g>
<!-- Node21&#45;&gt;Node18 -->
<g id="edge47" class="edge">
<title>Node21&#45;&gt;Node18</title>
<path fill="none" stroke="#191970" d="M361.6238,-224.3647C348.9583,-202.2243 322.1999,-146.9437 347.5,-112 359.6029,-95.2839 412.0531,-81.3677 449.1898,-73.3613"/>
<polygon fill="#191970" stroke="#191970" points="450.1418,-76.7379 459.212,-71.2624 448.7068,-69.8866 450.1418,-76.7379"/>
</g>
<!-- Node22 -->
<g id="node23" class="node">
<title>Node22</title>
<polygon fill="none" stroke="#bfbfbf" points="241.5,-168.5 241.5,-187.5 299.5,-187.5 299.5,-168.5 241.5,-168.5"/>
<text text-anchor="middle" x="270.5" y="-175.5" font-family="Helvetica,sans-Serif" font-size="10.00" fill="#000000">memory</text>
</g>
<!-- Node21&#45;&gt;Node22 -->
<g id="edge25" class="edge">
<title>Node21&#45;&gt;Node22</title>
<path fill="none" stroke="#191970" d="M350.6039,-224.2455C335.582,-215.5731 313.3957,-202.7645 296.179,-192.825"/>
<polygon fill="#191970" stroke="#191970" points="297.6128,-189.6114 287.2025,-187.6427 294.1129,-195.6737 297.6128,-189.6114"/>
</g>
<!-- Node23 -->
<g id="node24" class="node">
<title>Node23</title>
<g id="a_node24"><a xlink:href="../../d8/dd9/SymbolTable_8h.html" target="_top" xlink:title="Container for information needed to encode/decode a symbol of the alphabet. ">
<polygon fill="none" stroke="#000000" points="735.5,-168.5 735.5,-187.5 823.5,-187.5 823.5,-168.5 735.5,-168.5"/>
<text text-anchor="middle" x="779.5" y="-175.5" font-family="Helvetica,sans-Serif" font-size="10.00" fill="#000000">SymbolTable.h</text>
</a>
</g>
</g>
<!-- Node21&#45;&gt;Node23 -->
<g id="edge29" class="edge">
<title>Node21&#45;&gt;Node23</title>
<path fill="none" stroke="#191970" d="M413.1285,-228.685C480.6338,-220.6827 611.044,-204.6912 721.5,-188 722.7503,-187.8111 724.0152,-187.617 725.2905,-187.4188"/>
<polygon fill="#191970" stroke="#191970" points="725.876,-190.8698 735.1971,-185.8333 724.7696,-183.9577 725.876,-190.8698"/>
</g>
<!-- Node25 -->
<g id="node26" class="node">
<title>Node25</title>
<g id="a_node26"><a xlink:href="../../d2/d53/EncoderSymbol_8h.html" target="_top" xlink:title="Structure containing all relevant information to encode a symbol. ">
<polygon fill="none" stroke="#000000" points="160,-112.5 160,-131.5 261,-131.5 261,-112.5 160,-112.5"/>
<text text-anchor="middle" x="210.5" y="-119.5" font-family="Helvetica,sans-Serif" font-size="10.00" fill="#000000">EncoderSymbol.h</text>
</a>
</g>
</g>
<!-- Node21&#45;&gt;Node25 -->
<g id="edge34" class="edge">
<title>Node21&#45;&gt;Node25</title>
<path fill="none" stroke="#191970" d="M327.0197,-224.4402C292.3606,-215.5154 245.9802,-201.5702 232.5,-188 220.2905,-175.709 214.8564,-156.4714 212.4381,-141.9302"/>
<polygon fill="#191970" stroke="#191970" points="215.8951,-141.3737 211.1145,-131.9187 208.9555,-142.2912 215.8951,-141.3737"/>
</g>
<!-- Node26 -->
<g id="node27" class="node">
<title>Node26</title>
<g id="a_node27"><a xlink:href="../../d5/d7a/Coder_8h.html" target="_top" xlink:title="Stateless class for coding and decoding symbols using rANS. ">
<polygon fill="none" stroke="#000000" points="381,-168.5 381,-187.5 434,-187.5 434,-168.5 381,-168.5"/>
<text text-anchor="middle" x="407.5" y="-175.5" font-family="Helvetica,sans-Serif" font-size="10.00" fill="#000000">Coder.h</text>
</a>
</g>
</g>
<!-- Node21&#45;&gt;Node26 -->
<g id="edge38" class="edge">
<title>Node21&#45;&gt;Node26</title>
<path fill="none" stroke="#191970" d="M374.4675,-224.2455C380.0311,-216.4564 387.978,-205.3308 394.6829,-195.9439"/>
<polygon fill="#191970" stroke="#191970" points="397.648,-197.8144 400.6124,-187.6427 391.9519,-193.7457 397.648,-197.8144"/>
</g>
<!-- Node23&#45;&gt;Node5 -->
<g id="edge30" class="edge">
<title>Node23&#45;&gt;Node5</title>
<path fill="none" stroke="#191970" d="M793.6531,-168.4509C822.4425,-149.0268 888.0368,-104.7703 922.8388,-81.2895"/>
<polygon fill="#191970" stroke="#191970" points="925.0507,-84.0193 931.3828,-75.5249 921.1355,-78.2166 925.0507,-84.0193"/>
</g>
<!-- Node23&#45;&gt;Node10 -->
<g id="edge33" class="edge">
<title>Node23&#45;&gt;Node10</title>
<path fill="none" stroke="#191970" d="M758.6994,-168.3733C739.2757,-159.3838 710.0776,-145.8706 688.2036,-135.7471"/>
<polygon fill="#191970" stroke="#191970" points="689.5745,-132.5249 679.0292,-131.5011 686.6344,-138.8776 689.5745,-132.5249"/>
</g>
<!-- Node23&#45;&gt;Node17 -->
<g id="edge32" class="edge">
<title>Node23&#45;&gt;Node17</title>
<path fill="none" stroke="#191970" d="M778.8179,-168.4509C777.5131,-150.184 774.6397,-109.9553 772.907,-85.6976"/>
<polygon fill="#191970" stroke="#191970" points="776.384,-85.2501 772.1803,-75.5249 769.4018,-85.7489 776.384,-85.2501"/>
</g>
<!-- Node24 -->
<g id="node25" class="node">
<title>Node24</title>
<polygon fill="none" stroke="#bfbfbf" points="323.5,-56.5 323.5,-75.5 373.5,-75.5 373.5,-56.5 323.5,-56.5"/>
<text text-anchor="middle" x="348.5" y="-63.5" font-family="Helvetica,sans-Serif" font-size="10.00" fill="#000000">cstdint</text>
</g>
<!-- Node23&#45;&gt;Node24 -->
<g id="edge31" class="edge">
<title>Node23&#45;&gt;Node24</title>
<path fill="none" stroke="#191970" d="M735.4776,-170.8132C688.9184,-162.8364 613.4933,-148.8408 549.5,-132 490.2323,-116.4028 422.8333,-93.0988 383.0819,-78.7607"/>
<polygon fill="#191970" stroke="#191970" points="384.1872,-75.4385 373.5931,-75.3187 381.8002,-82.019 384.1872,-75.4385"/>
</g>
<!-- Node25&#45;&gt;Node12 -->
<g id="edge36" class="edge">
<title>Node25&#45;&gt;Node12</title>
<path fill="none" stroke="#191970" d="M210.5,-112.2455C210.5,-104.9382 210.5,-94.6944 210.5,-85.7046"/>
<polygon fill="#191970" stroke="#191970" points="214.0001,-85.6426 210.5,-75.6427 207.0001,-85.6427 214.0001,-85.6426"/>
</g>
<!-- Node25&#45;&gt;Node18 -->
<g id="edge37" class="edge">
<title>Node25&#45;&gt;Node18</title>
<path fill="none" stroke="#191970" d="M257.8033,-112.4369C311.9005,-101.5003 399.4133,-83.8081 449.3498,-73.7127"/>
<polygon fill="#191970" stroke="#191970" points="450.3017,-77.0911 459.4099,-71.6789 448.9146,-70.2299 450.3017,-77.0911"/>
</g>
<!-- Node25&#45;&gt;Node24 -->
<g id="edge35" class="edge">
<title>Node25&#45;&gt;Node24</title>
<path fill="none" stroke="#191970" d="M234.223,-112.3733C256.6737,-103.2629 290.5739,-89.5062 315.6255,-79.3404"/>
<polygon fill="#191970" stroke="#191970" points="317.1365,-82.5045 325.0865,-75.5011 314.5043,-76.0182 317.1365,-82.5045"/>
</g>
<!-- Node26&#45;&gt;Node5 -->
<g id="edge39" class="edge">
<title>Node26&#45;&gt;Node5</title>
<path fill="none" stroke="#191970" d="M434.0435,-175.7492C490.0709,-170.6748 624.3184,-156.8072 734.5,-132 798.4963,-117.5914 871.0869,-93.005 912.2731,-78.2524"/>
<polygon fill="#191970" stroke="#191970" points="913.5798,-81.5019 921.7979,-74.815 911.2035,-74.9175 913.5798,-81.5019"/>
</g>
<!-- Node26&#45;&gt;Node8 -->
<g id="edge42" class="edge">
<title>Node26&#45;&gt;Node8</title>
<path fill="none" stroke="#191970" d="M434.0112,-175.5215C527.6382,-166.7684 843.4671,-137.2418 961.4992,-126.2071"/>
<polygon fill="#191970" stroke="#191970" points="962.0033,-129.6753 971.6341,-125.2596 961.3517,-122.7057 962.0033,-129.6753"/>
</g>
<!-- Node26&#45;&gt;Node12 -->
<g id="edge41" class="edge">
<title>Node26&#45;&gt;Node12</title>
<path fill="none" stroke="#191970" d="M380.913,-175.1698C318.2145,-168.2292 165.2636,-149.6408 150.5,-132 135.301,-113.839 159.6731,-93.823 181.7622,-80.6493"/>
<polygon fill="#191970" stroke="#191970" points="183.6746,-83.5887 190.6528,-75.6166 180.2262,-77.497 183.6746,-83.5887"/>
</g>
<!-- Node26&#45;&gt;Node18 -->
<g id="edge46" class="edge">
<title>Node26&#45;&gt;Node18</title>
<path fill="none" stroke="#191970" d="M425.8124,-168.4926C439.4787,-160.4993 457.6009,-147.8464 468.5,-132 477.9905,-118.2015 482.7864,-99.6772 485.1823,-85.7662"/>
<polygon fill="#191970" stroke="#191970" points="488.6593,-86.1765 486.633,-75.7773 481.732,-85.1704 488.6593,-86.1765"/>
</g>
<!-- Node26&#45;&gt;Node24 -->
<g id="edge40" class="edge">
<title>Node26&#45;&gt;Node24</title>
<path fill="none" stroke="#191970" d="M386.7148,-168.3756C372.813,-160.6917 355.6309,-148.4793 347.5,-132 340.3782,-117.5659 341.3721,-99.1035 343.7201,-85.3778"/>
<polygon fill="#191970" stroke="#191970" points="347.1538,-86.0563 345.7644,-75.553 340.3006,-84.6303 347.1538,-86.0563"/>
</g>
<!-- Node26&#45;&gt;Node25 -->
<g id="edge45" class="edge">
<title>Node26&#45;&gt;Node25</title>
<path fill="none" stroke="#191970" d="M380.9317,-170.4476C348.4418,-161.2119 292.9939,-145.45 254.192,-134.4201"/>
<polygon fill="#191970" stroke="#191970" points="254.7928,-130.9522 244.2168,-131.5845 252.8787,-137.6855 254.7928,-130.9522"/>
</g>
<!-- Node27 -->
<g id="node28" class="node">
<title>Node27</title>
<g id="a_node28"><a xlink:href="../../d7/d99/DecoderSymbol_8h.html" target="_top" xlink:title="Structure containing all relevant information for decoding a rANS encoded symbol. ...">
<polygon fill="none" stroke="#000000" points="356,-112.5 356,-131.5 459,-131.5 459,-112.5 356,-112.5"/>
<text text-anchor="middle" x="407.5" y="-119.5" font-family="Helvetica,sans-Serif" font-size="10.00" fill="#000000">DecoderSymbol.h</text>
</a>
</g>
</g>
<!-- Node26&#45;&gt;Node27 -->
<g id="edge43" class="edge">
<title>Node26&#45;&gt;Node27</title>
<path fill="none" stroke="#191970" d="M407.5,-168.2455C407.5,-160.9382 407.5,-150.6944 407.5,-141.7046"/>
<polygon fill="#191970" stroke="#191970" points="411.0001,-141.6426 407.5,-131.6427 404.0001,-141.6427 411.0001,-141.6426"/>
</g>
<!-- Node27&#45;&gt;Node24 -->
<g id="edge44" class="edge">
<title>Node27&#45;&gt;Node24</title>
<path fill="none" stroke="#191970" d="M397.223,-112.2455C388.6782,-104.1352 376.3222,-92.4075 366.1915,-82.7919"/>
<polygon fill="#191970" stroke="#191970" points="368.3218,-79.9884 358.6592,-75.6427 363.5028,-85.0655 368.3218,-79.9884"/>
</g>
<!-- Node28&#45;&gt;Node8 -->
<g id="edge50" class="edge">
<title>Node28&#45;&gt;Node8</title>
<path fill="none" stroke="#191970" d="M988.059,-224.2076C996.5009,-215.6048 1007.6906,-202.2634 1012.5,-188 1017.5547,-173.0091 1015.4486,-155.0816 1012.4158,-141.6967"/>
<polygon fill="#191970" stroke="#191970" points="1015.7122,-140.4692 1009.7871,-131.686 1008.9417,-142.2471 1015.7122,-140.4692"/>
</g>
<!-- Node28&#45;&gt;Node13 -->
<g id="edge51" class="edge">
<title>Node28&#45;&gt;Node13</title>
<path fill="none" stroke="#191970" d="M1023.7338,-226.0468C1045.7746,-219.6815 1070.1836,-208.295 1083.5,-188 1102.0302,-159.7587 1104.767,-138.2422 1083.5,-112 1034.8742,-51.9986 988.7528,-93.3685 913.5,-76 913.3997,-75.9769 913.2993,-75.9537 913.1988,-75.9304"/>
<polygon fill="#191970" stroke="#191970" points="914.151,-72.5593 903.6127,-73.6525 912.5326,-79.3696 914.151,-72.5593"/>
</g>
<!-- Node28&#45;&gt;Node17 -->
<g id="edge52" class="edge">
<title>Node28&#45;&gt;Node17</title>
<path fill="none" stroke="#191970" d="M991.0366,-224.4437C1019.9187,-202.9299 1082.4414,-149.639 1050.5,-112 1049.6257,-110.9698 917.8544,-89.5774 835.7397,-76.3329"/>
<polygon fill="#191970" stroke="#191970" points="836.1668,-72.8566 825.7372,-74.7202 835.0526,-79.7674 836.1668,-72.8566"/>
</g>
<!-- Node28&#45;&gt;Node19 -->
<g id="edge49" class="edge">
<title>Node28&#45;&gt;Node19</title>
<path fill="none" stroke="#191970" d="M1017.9718,-224.4445C1050.5404,-215.8392 1092.4784,-202.3666 1102.5,-188 1121.8249,-160.2965 1120.2861,-140.7157 1102.5,-112 1065.6428,-52.4938 982.5046,-26.591 934.1873,-16.2175"/>
<polygon fill="#191970" stroke="#191970" points="934.6426,-12.7386 924.1459,-14.1777 933.249,-19.5985 934.6426,-12.7386"/>
</g>
<!-- Node28&#45;&gt;Node23 -->
<g id="edge53" class="edge">
<title>Node28&#45;&gt;Node23</title>
<path fill="none" stroke="#191970" d="M943.4626,-224.3733C910.1106,-214.9404 859.1473,-200.5265 822.8998,-190.2747"/>
<polygon fill="#191970" stroke="#191970" points="823.6684,-186.8548 813.0933,-187.5011 821.7632,-193.5906 823.6684,-186.8548"/>
</g>
<!-- Node28&#45;&gt;Node26 -->
<g id="edge61" class="edge">
<title>Node28&#45;&gt;Node26</title>
<path fill="none" stroke="#191970" d="M931.3373,-229.4647C821.1236,-218.6367 544.3803,-191.4479 444.3239,-181.6178"/>
<polygon fill="#191970" stroke="#191970" points="444.4013,-178.1086 434.107,-180.614 443.7168,-185.0751 444.4013,-178.1086"/>
</g>
<!-- Node28&#45;&gt;Node27 -->
<g id="edge54" class="edge">
<title>Node28&#45;&gt;Node27</title>
<path fill="none" stroke="#191970" d="M931.1791,-225.8366C880.7657,-216.876 797.8116,-201.9097 726.5,-188 633.4307,-169.8463 525.4358,-147.161 461.9887,-133.6672"/>
<polygon fill="#191970" stroke="#191970" points="462.3265,-130.1607 451.8168,-131.5014 460.8687,-137.0072 462.3265,-130.1607"/>
</g>
<!-- Node29 -->
<g id="node30" class="node">
<title>Node29</title>
<g id="a_node30"><a xlink:href="../../dc/d3b/ReverseSymbolLookupTable_8h.html" target="_top" xlink:title="Maps CDF back to source symbol &#45; needed for the decoder. ">
<polygon fill="none" stroke="#000000" points="841.5,-168.5 841.5,-187.5 1003.5,-187.5 1003.5,-168.5 841.5,-168.5"/>
<text text-anchor="middle" x="922.5" y="-175.5" font-family="Helvetica,sans-Serif" font-size="10.00" fill="#000000">ReverseSymbolLookupTable.h</text>
</a>
</g>
</g>
<!-- Node28&#45;&gt;Node29 -->
<g id="edge55" class="edge">
<title>Node28&#45;&gt;Node29</title>
<path fill="none" stroke="#191970" d="M967.9197,-224.2455C959.9542,-216.1352 948.4359,-204.4075 938.9921,-194.7919"/>
<polygon fill="#191970" stroke="#191970" points="941.4747,-192.3247 931.9705,-187.6427 936.4805,-197.2297 941.4747,-192.3247"/>
</g>
<!-- Node29&#45;&gt;Node5 -->
<g id="edge56" class="edge">
<title>Node29&#45;&gt;Node5</title>
<path fill="none" stroke="#191970" d="M924.461,-168.4509C928.2292,-150.1013 936.5483,-109.5908 941.5224,-85.3693"/>
<polygon fill="#191970" stroke="#191970" points="944.9608,-86.0246 943.544,-75.5249 938.1039,-84.6164 944.9608,-86.0246"/>
</g>
<!-- Node29&#45;&gt;Node8 -->
<g id="edge57" class="edge">
<title>Node29&#45;&gt;Node8</title>
<path fill="none" stroke="#191970" d="M937.1317,-168.2455C949.8994,-159.7337 968.6438,-147.2375 983.4299,-137.3801"/>
<polygon fill="#191970" stroke="#191970" points="985.6569,-140.1019 992.036,-131.6427 981.774,-134.2775 985.6569,-140.1019"/>
</g>
<!-- Node29&#45;&gt;Node10 -->
<g id="edge59" class="edge">
<title>Node29&#45;&gt;Node10</title>
<path fill="none" stroke="#191970" d="M877.4167,-168.4369C832.0454,-158.8127 762.0114,-143.957 713.4234,-133.6504"/>
<polygon fill="#191970" stroke="#191970" points="713.9059,-130.175 703.3973,-131.5237 712.4534,-137.0226 713.9059,-130.175"/>
</g>
<!-- Node29&#45;&gt;Node17 -->
<g id="edge58" class="edge">
<title>Node29&#45;&gt;Node17</title>
<path fill="none" stroke="#191970" d="M909.6258,-168.4509C883.5493,-149.1094 824.2779,-105.1465 792.5192,-81.5904"/>
<polygon fill="#191970" stroke="#191970" points="794.4585,-78.6712 784.3416,-75.5249 790.2883,-84.2934 794.4585,-78.6712"/>
</g>
<!-- Node29&#45;&gt;Node18 -->
<g id="edge60" class="edge">
<title>Node29&#45;&gt;Node18</title>
<path fill="none" stroke="#191970" d="M845.1582,-168.4652C748.6263,-156.4275 594.6269,-136.7152 582.5,-132 552.9028,-120.492 523.6238,-98.0199 505.562,-82.5188"/>
<polygon fill="#191970" stroke="#191970" points="507.4625,-79.5288 497.6441,-75.5477 502.8369,-84.7827 507.4625,-79.5288"/>
</g>
<!-- Node32 -->
<g id="node33" class="node">
<title>Node32</title>
<polygon fill="none" stroke="#bfbfbf" points="247.5,-224.5 247.5,-243.5 303.5,-243.5 303.5,-224.5 247.5,-224.5"/>
<text text-anchor="middle" x="275.5" y="-231.5" font-family="Helvetica,sans-Serif" font-size="10.00" fill="#000000">sstream</text>
</g>
<!-- Node31&#45;&gt;Node32 -->
<g id="edge64" class="edge">
<title>Node31&#45;&gt;Node32</title>
<path fill="none" stroke="#191970" d="M776.1996,-280.9048C773.2624,-280.5898 770.3539,-280.2868 767.5,-280 568.9146,-260.0441 514.1354,-278.0125 313.631,-243.9056"/>
<polygon fill="#191970" stroke="#191970" points="314.1106,-240.4367 303.6614,-242.1876 312.9218,-247.335 314.1106,-240.4367"/>
</g>
</g>
</svg>
