<?xml version="1.0" encoding="UTF-8" standalone="no"?>
<!DOCTYPE svg PUBLIC "-//W3C//DTD SVG 1.1//EN"
 "http://www.w3.org/Graphics/SVG/1.1/DTD/svg11.dtd">
<!-- Generated by graphviz version 2.40.1 (20161225.0304)
 -->
<!-- Title: /home/travis/build/AliceO2Group/AliceO2/Analysis/Core/src/InsertNewRunToTimestamp.cxx Pages: 1 -->
<svg width="649pt" height="229pt"
 viewBox="0.00 0.00 648.50 229.00" xmlns="http://www.w3.org/2000/svg" xmlns:xlink="http://www.w3.org/1999/xlink">
<g id="graph0" class="graph" transform="scale(1 1) rotate(0) translate(4 225)">
<title>/home/travis/build/AliceO2Group/AliceO2/Analysis/Core/src/InsertNewRunToTimestamp.cxx</title>
<!-- Node0 -->
<g id="node1" class="node">
<title>Node0</title>
<polygon fill="#bfbfbf" stroke="#000000" points="244,-168.5 244,-220.5 400,-220.5 400,-168.5 244,-168.5"/>
<text text-anchor="start" x="252" y="-208.5" font-family="Helvetica,sans-Serif" font-size="10.00" fill="#000000">/home/travis/build</text>
<text text-anchor="start" x="252" y="-197.5" font-family="Helvetica,sans-Serif" font-size="10.00" fill="#000000">/AliceO2Group/AliceO2</text>
<text text-anchor="start" x="252" y="-186.5" font-family="Helvetica,sans-Serif" font-size="10.00" fill="#000000">/Analysis/Core/src/InsertNew</text>
<text text-anchor="middle" x="322" y="-175.5" font-family="Helvetica,sans-Serif" font-size="10.00" fill="#000000">RunToTimestamp.cxx</text>
</g>
<!-- Node1 -->
<g id="node2" class="node">
<title>Node1</title>
<g id="a_node2"><a xlink:href="../../d8/d9e/RunToTimestamp_8h.html" target="_top" xlink:title="Analysis/RunToTimestamp.h">
<polygon fill="none" stroke="#000000" points="0,-112.5 0,-131.5 154,-131.5 154,-112.5 0,-112.5"/>
<text text-anchor="middle" x="77" y="-119.5" font-family="Helvetica,sans-Serif" font-size="10.00" fill="#000000">Analysis/RunToTimestamp.h</text>
</a>
</g>
</g>
<!-- Node0&#45;&gt;Node1 -->
<g id="edge1" class="edge">
<title>Node0&#45;&gt;Node1</title>
<path fill="none" stroke="#191970" d="M243.8069,-171.3612C202.3826,-159.103 153.1464,-144.5331 118.9511,-134.4141"/>
<polygon fill="#191970" stroke="#191970" points="119.8685,-131.0356 109.2863,-131.5541 117.8821,-137.7479 119.8685,-131.0356"/>
</g>
<!-- Node4 -->
<g id="node5" class="node">
<title>Node4</title>
<g id="a_node5"><a xlink:href="../../dd/d3e/CcdbApi_8h.html" target="_top" xlink:title="CCDB/CcdbApi.h">
<polygon fill="none" stroke="#000000" points="204,-112.5 204,-131.5 300,-131.5 300,-112.5 204,-112.5"/>
<text text-anchor="middle" x="252" y="-119.5" font-family="Helvetica,sans-Serif" font-size="10.00" fill="#000000">CCDB/CcdbApi.h</text>
</a>
</g>
</g>
<!-- Node0&#45;&gt;Node4 -->
<g id="edge4" class="edge">
<title>Node0&#45;&gt;Node4</title>
<path fill="none" stroke="#191970" d="M296.7284,-168.3258C287.2538,-158.5128 276.746,-147.6298 268.297,-138.879"/>
<polygon fill="#191970" stroke="#191970" points="270.6691,-136.297 261.2052,-131.534 265.6333,-141.1591 270.6691,-136.297"/>
</g>
<!-- Node12 -->
<g id="node13" class="node">
<title>Node12</title>
<polygon fill="none" stroke="#bfbfbf" points="318,-112.5 318,-131.5 468,-131.5 468,-112.5 318,-112.5"/>
<text text-anchor="middle" x="393" y="-119.5" font-family="Helvetica,sans-Serif" font-size="10.00" fill="#000000">boost/program_options.hpp</text>
</g>
<!-- Node0&#45;&gt;Node12 -->
<g id="edge14" class="edge">
<title>Node0&#45;&gt;Node12</title>
<path fill="none" stroke="#191970" d="M347.6326,-168.3258C357.2426,-158.5128 367.9005,-147.6298 376.4702,-138.879"/>
<polygon fill="#191970" stroke="#191970" points="379.1671,-141.1275 383.6633,-131.534 374.1658,-136.2297 379.1671,-141.1275"/>
</g>
<!-- Node13 -->
<g id="node14" class="node">
<title>Node13</title>
<polygon fill="none" stroke="#bfbfbf" points="485.5,-112.5 485.5,-131.5 560.5,-131.5 560.5,-112.5 485.5,-112.5"/>
<text text-anchor="middle" x="523" y="-119.5" font-family="Helvetica,sans-Serif" font-size="10.00" fill="#000000">FairLogger.h</text>
</g>
<!-- Node0&#45;&gt;Node13 -->
<g id="edge15" class="edge">
<title>Node0&#45;&gt;Node13</title>
<path fill="none" stroke="#191970" d="M394.2816,-168.4283C425.6791,-157.1033 461.0751,-144.3361 486.7913,-135.0604"/>
<polygon fill="#191970" stroke="#191970" points="488.2694,-138.248 496.4886,-131.5626 485.8942,-131.6633 488.2694,-138.248"/>
</g>
<!-- Node2 -->
<g id="node3" class="node">
<title>Node2</title>
<polygon fill="none" stroke="#bfbfbf" points="58,-56.5 58,-75.5 96,-75.5 96,-56.5 58,-56.5"/>
<text text-anchor="middle" x="77" y="-63.5" font-family="Helvetica,sans-Serif" font-size="10.00" fill="#000000">map</text>
</g>
<!-- Node1&#45;&gt;Node2 -->
<g id="edge2" class="edge">
<title>Node1&#45;&gt;Node2</title>
<path fill="none" stroke="#191970" d="M77,-112.2455C77,-104.9382 77,-94.6944 77,-85.7046"/>
<polygon fill="#191970" stroke="#191970" points="80.5001,-85.6426 77,-75.6427 73.5001,-85.6427 80.5001,-85.6426"/>
</g>
<!-- Node3 -->
<g id="node4" class="node">
<title>Node3</title>
<polygon fill="none" stroke="#bfbfbf" points="220.5,-.5 220.5,-19.5 279.5,-19.5 279.5,-.5 220.5,-.5"/>
<text text-anchor="middle" x="250" y="-7.5" font-family="Helvetica,sans-Serif" font-size="10.00" fill="#000000">Rtypes.h</text>
</g>
<!-- Node1&#45;&gt;Node3 -->
<g id="edge3" class="edge">
<title>Node1&#45;&gt;Node3</title>
<path fill="none" stroke="#191970" d="M66.9401,-112.1778C54.1222,-98.4662 35.1914,-73.3258 49,-56 68.7666,-31.1986 157.461,-18.6927 210.1987,-13.3431"/>
<polygon fill="#191970" stroke="#191970" points="210.6215,-16.8186 220.2357,-12.3671 209.9439,-9.8514 210.6215,-16.8186"/>
</g>
<!-- Node4&#45;&gt;Node2 -->
<g id="edge7" class="edge">
<title>Node4&#45;&gt;Node2</title>
<path fill="none" stroke="#191970" d="M220.3403,-112.4906C192.4728,-104.0325 150.5867,-91.1083 105.834,-76.1976"/>
<polygon fill="#191970" stroke="#191970" points="106.8386,-72.843 96.2448,-72.9865 104.6159,-79.4808 106.8386,-72.843"/>
</g>
<!-- Node5 -->
<g id="node6" class="node">
<title>Node5</title>
<polygon fill="none" stroke="#bfbfbf" points="114,-56.5 114,-75.5 158,-75.5 158,-56.5 114,-56.5"/>
<text text-anchor="middle" x="136" y="-63.5" font-family="Helvetica,sans-Serif" font-size="10.00" fill="#000000">string</text>
</g>
<!-- Node4&#45;&gt;Node5 -->
<g id="edge5" class="edge">
<title>Node4&#45;&gt;Node5</title>
<path fill="none" stroke="#191970" d="M232.0589,-112.3733C213.5214,-103.4241 185.6972,-89.9917 164.7587,-79.8835"/>
<polygon fill="#191970" stroke="#191970" points="166.2081,-76.6967 155.6809,-75.5011 163.1648,-83.0006 166.2081,-76.6967"/>
</g>
<!-- Node6 -->
<g id="node7" class="node">
<title>Node6</title>
<polygon fill="none" stroke="#bfbfbf" points="176,-56.5 176,-75.5 234,-75.5 234,-56.5 176,-56.5"/>
<text text-anchor="middle" x="205" y="-63.5" font-family="Helvetica,sans-Serif" font-size="10.00" fill="#000000">memory</text>
</g>
<!-- Node4&#45;&gt;Node6 -->
<g id="edge6" class="edge">
<title>Node4&#45;&gt;Node6</title>
<path fill="none" stroke="#191970" d="M243.8132,-112.2455C237.1411,-104.2958 227.5521,-92.8706 219.5747,-83.3656"/>
<polygon fill="#191970" stroke="#191970" points="222.2026,-81.0524 213.093,-75.6427 216.8408,-85.5525 222.2026,-81.0524"/>
</g>
<!-- Node7 -->
<g id="node8" class="node">
<title>Node7</title>
<polygon fill="none" stroke="#bfbfbf" points="252.5,-56.5 252.5,-75.5 317.5,-75.5 317.5,-56.5 252.5,-56.5"/>
<text text-anchor="middle" x="285" y="-63.5" font-family="Helvetica,sans-Serif" font-size="10.00" fill="#000000">curl/curl.h</text>
</g>
<!-- Node4&#45;&gt;Node7 -->
<g id="edge8" class="edge">
<title>Node4&#45;&gt;Node7</title>
<path fill="none" stroke="#191970" d="M257.7482,-112.2455C262.2435,-104.617 268.6248,-93.7881 274.0825,-84.5267"/>
<polygon fill="#191970" stroke="#191970" points="277.2561,-86.035 279.3177,-75.6427 271.2253,-82.4811 277.2561,-86.035"/>
</g>
<!-- Node8 -->
<g id="node9" class="node">
<title>Node8</title>
<polygon fill="none" stroke="#bfbfbf" points="335.5,-56.5 335.5,-75.5 398.5,-75.5 398.5,-56.5 335.5,-56.5"/>
<text text-anchor="middle" x="367" y="-63.5" font-family="Helvetica,sans-Serif" font-size="10.00" fill="#000000">TObject.h</text>
</g>
<!-- Node4&#45;&gt;Node8 -->
<g id="edge9" class="edge">
<title>Node4&#45;&gt;Node8</title>
<path fill="none" stroke="#191970" d="M271.7692,-112.3733C290.1469,-103.4241 317.7312,-89.9917 338.4893,-79.8835"/>
<polygon fill="#191970" stroke="#191970" points="340.0304,-83.026 347.4888,-75.5011 336.9657,-76.7325 340.0304,-83.026"/>
</g>
<!-- Node9 -->
<g id="node10" class="node">
<title>Node9</title>
<polygon fill="none" stroke="#bfbfbf" points="417,-56.5 417,-75.5 491,-75.5 491,-56.5 417,-56.5"/>
<text text-anchor="middle" x="454" y="-63.5" font-family="Helvetica,sans-Serif" font-size="10.00" fill="#000000">TMessage.h</text>
</g>
<!-- Node4&#45;&gt;Node9 -->
<g id="edge10" class="edge">
<title>Node4&#45;&gt;Node9</title>
<path fill="none" stroke="#191970" d="M286.725,-112.3733C320.7508,-102.9404 372.7437,-88.5265 409.7234,-78.2747"/>
<polygon fill="#191970" stroke="#191970" points="411.0266,-81.5455 419.7281,-75.5011 409.1565,-74.7999 411.0266,-81.5455"/>
</g>
<!-- Node10 -->
<g id="node11" class="node">
<title>Node10</title>
<g id="a_node11"><a xlink:href="../../d4/dab/CcdbObjectInfo_8h.html" target="_top" xlink:title="CCDB/CcdbObjectInfo.h">
<polygon fill="none" stroke="#000000" points="509.5,-56.5 509.5,-75.5 640.5,-75.5 640.5,-56.5 509.5,-56.5"/>
<text text-anchor="middle" x="575" y="-63.5" font-family="Helvetica,sans-Serif" font-size="10.00" fill="#000000">CCDB/CcdbObjectInfo.h</text>
</a>
</g>
</g>
<!-- Node4&#45;&gt;Node10 -->
<g id="edge11" class="edge">
<title>Node4&#45;&gt;Node10</title>
<path fill="none" stroke="#191970" d="M300.2006,-113.5353C303.1781,-113.015 306.1296,-112.5 309,-112 377.4246,-100.0815 455.7707,-86.5464 509.6203,-77.2607"/>
<polygon fill="#191970" stroke="#191970" points="510.4575,-80.668 519.7175,-75.5198 509.2682,-73.7698 510.4575,-80.668"/>
</g>
<!-- Node10&#45;&gt;Node3 -->
<g id="edge12" class="edge">
<title>Node10&#45;&gt;Node3</title>
<path fill="none" stroke="#191970" d="M519.4998,-56.4369C454.3024,-45.2029 347.738,-26.841 290.0811,-16.9063"/>
<polygon fill="#191970" stroke="#191970" points="290.3546,-13.4019 279.9055,-15.1529 289.1659,-20.3002 290.3546,-13.4019"/>
</g>
<!-- Node11 -->
<g id="node12" class="node">
<title>Node11</title>
<g id="a_node12"><a xlink:href="../../dd/da4/Logger_8h.html" target="_top" xlink:title="Framework/Logger.h">
<polygon fill="none" stroke="#000000" points="517.5,-.5 517.5,-19.5 632.5,-19.5 632.5,-.5 517.5,-.5"/>
<text text-anchor="middle" x="575" y="-7.5" font-family="Helvetica,sans-Serif" font-size="10.00" fill="#000000">Framework/Logger.h</text>
</a>
</g>
</g>
<!-- Node10&#45;&gt;Node11 -->
<g id="edge13" class="edge">
<title>Node10&#45;&gt;Node11</title>
<path fill="none" stroke="#191970" d="M575,-56.2455C575,-48.9382 575,-38.6944 575,-29.7046"/>
<polygon fill="#191970" stroke="#191970" points="578.5001,-29.6426 575,-19.6427 571.5001,-29.6427 578.5001,-29.6426"/>
</g>
</g>
</svg>
