<?xml version="1.0" encoding="UTF-8" standalone="no"?>
<!DOCTYPE svg PUBLIC "-//W3C//DTD SVG 1.1//EN"
 "http://www.w3.org/Graphics/SVG/1.1/DTD/svg11.dtd">
<!-- Generated by graphviz version 2.40.1 (20161225.0304)
 -->
<!-- Title: CTask Pages: 1 -->
<!--zoomable 882 -->
<svg id="main" version="1.1" xmlns="http://www.w3.org/2000/svg" xmlns:xlink="http://www.w3.org/1999/xlink" xml:space="preserve" onload="init(evt)">
<style type="text/css"><![CDATA[
.edge:hover path { stroke: red; }
.edge:hover polygon { stroke: red; fill: red; }
]]></style>
<script type="text/javascript"><![CDATA[
var edges = document.getElementsByTagName('g');
if (edges && edges.length) {
  for (var i=0;i<edges.length;i++) {
    if (edges[i].id.substr(0,4)=='edge') {
      edges[i].setAttribute('class','edge');
    }
  }
}
]]></script>
        <defs>
                <circle id="rim" cx="0" cy="0" r="7"/>
                <circle id="rim2" cx="0" cy="0" r="3.5"/>
                <g id="zoomPlus">
                        <use xlink:href="#rim" fill="#404040">
                                <set attributeName="fill" to="#808080" begin="zoomplus.mouseover" end="zoomplus.mouseout"/>
                        </use>
                        <path d="M-4,0h8M0,-4v8" fill="none" stroke="white" stroke-width="1.5" pointer-events="none"/>
                </g>
                <g id="zoomMin">
                        <use xlink:href="#rim" fill="#404040">
                                <set attributeName="fill" to="#808080" begin="zoomminus.mouseover" end="zoomminus.mouseout"/>
                        </use>
                        <path d="M-4,0h8" fill="none" stroke="white" stroke-width="1.5" pointer-events="none"/>
                </g>
                <g id="dirArrow">
                        <path fill="none" stroke="white" stroke-width="1.5" d="M0,-3.0v7 M-2.5,-0.5L0,-3.0L2.5,-0.5"/>
                </g>
               <g id="resetDef">
                       <use xlink:href="#rim2" fill="#404040">
                               <set attributeName="fill" to="#808080" begin="reset.mouseover" end="reset.mouseout"/>
                       </use>
               </g>
        </defs>

<script type="text/javascript">
var viewWidth = 1261;
var viewHeight = 882;
var sectionId = 'dynsection-0';
</script>
<script xlink:href="../../svgpan.js"/>
<svg id="graph" class="graph">
<g id="viewport">
<title>CTask</title>
<!-- Node1 -->
<g id="node1" class="node">
<title>Node1</title>
<polygon fill="#bfbfbf" stroke="#000000" points="254.5,-.5 254.5,-112.5 327.5,-112.5 327.5,-.5 254.5,-.5"/>
<text text-anchor="middle" x="291" y="-100.5" font-family="Helvetica,sans-Serif" font-size="10.00" fill="#000000">CTask</text>
<polyline fill="none" stroke="#000000" points="254.5,-93.5 327.5,-93.5 "/>
<text text-anchor="middle" x="291" y="-81.5" font-family="Helvetica,sans-Serif" font-size="10.00" fill="#000000"> </text>
<polyline fill="none" stroke="#000000" points="254.5,-74.5 327.5,-74.5 "/>
<text text-anchor="start" x="262.5" y="-62.5" font-family="Helvetica,sans-Serif" font-size="10.00" fill="#000000">+ process()</text>
<text text-anchor="start" x="262.5" y="-51.5" font-family="Helvetica,sans-Serif" font-size="10.00" fill="#000000">+ process()</text>
<text text-anchor="start" x="262.5" y="-40.5" font-family="Helvetica,sans-Serif" font-size="10.00" fill="#000000">+ init()</text>
<text text-anchor="start" x="262.5" y="-29.5" font-family="Helvetica,sans-Serif" font-size="10.00" fill="#000000">+ process()</text>
<text text-anchor="start" x="262.5" y="-18.5" font-family="Helvetica,sans-Serif" font-size="10.00" fill="#000000">+ process()</text>
<text text-anchor="start" x="262.5" y="-7.5" font-family="Helvetica,sans-Serif" font-size="10.00" fill="#000000">+ process()</text>
</g>
<!-- Node2 -->
<g id="node2" class="node">
<title>Node2</title>
<g id="a_node2"><a xlink:href="../../d8/d71/structo2_1_1framework_1_1Configurable.html" target="_top" xlink:title="{o2::framework::Configurable\l\&lt; float \&gt;\n||+ Configurable()\l+ operator float()\l+ operator&#45;\&gt;()\l}">
<polygon fill="none" stroke="#000000" points="150.5,-441.5 150.5,-531.5 305.5,-531.5 305.5,-441.5 150.5,-441.5"/>
<text text-anchor="start" x="158.5" y="-519.5" font-family="Helvetica,sans-Serif" font-size="10.00" fill="#000000">o2::framework::Configurable</text>
<text text-anchor="middle" x="228" y="-508.5" font-family="Helvetica,sans-Serif" font-size="10.00" fill="#000000">&lt; float &gt;</text>
<polyline fill="none" stroke="#000000" points="150.5,-501.5 305.5,-501.5 "/>
<text text-anchor="middle" x="228" y="-489.5" font-family="Helvetica,sans-Serif" font-size="10.00" fill="#000000"> </text>
<polyline fill="none" stroke="#000000" points="150.5,-482.5 305.5,-482.5 "/>
<text text-anchor="start" x="158.5" y="-470.5" font-family="Helvetica,sans-Serif" font-size="10.00" fill="#000000">+ Configurable()</text>
<text text-anchor="start" x="158.5" y="-459.5" font-family="Helvetica,sans-Serif" font-size="10.00" fill="#000000">+ operator float()</text>
<text text-anchor="start" x="158.5" y="-448.5" font-family="Helvetica,sans-Serif" font-size="10.00" fill="#000000">+ operator&#45;&gt;()</text>
</a>
</g>
</g>
<!-- Node2&#45;&gt;Node1 -->
<g id="edge1" class="edge">
<title>Node2&#45;&gt;Node1</title>
<path fill="none" stroke="#404040" d="M234.623,-441.2952C245.6964,-365.7151 268.0305,-213.2757 281.0175,-124.6346"/>
<polygon fill="none" stroke="#404040" points="281.0462,-124.4383 277.9582,-117.9218 282.7858,-112.565 285.8737,-119.0815 281.0462,-124.4383"/>
<text text-anchor="middle" x="291" y="-274.5" font-family="Helvetica,sans-Serif" font-size="10.00" fill="#000000"> +pTCut</text>
</g>
<!-- Node3 -->
<g id="node3" class="node">
<title>Node3</title>
<g id="a_node3"><a xlink:href="../../d4/dc3/classfloat.html" target="_top" xlink:title="{float\n||}">
<polygon fill="none" stroke="#000000" points="278,-640 278,-697 316,-697 316,-640 278,-640"/>
<text text-anchor="middle" x="297" y="-685" font-family="Helvetica,sans-Serif" font-size="10.00" fill="#000000">float</text>
<polyline fill="none" stroke="#000000" points="278,-678 316,-678 "/>
<text text-anchor="middle" x="297" y="-666" font-family="Helvetica,sans-Serif" font-size="10.00" fill="#000000"> </text>
<polyline fill="none" stroke="#000000" points="278,-659 316,-659 "/>
<text text-anchor="middle" x="297" y="-647" font-family="Helvetica,sans-Serif" font-size="10.00" fill="#000000"> </text>
</a>
</g>
</g>
<!-- Node3&#45;&gt;Node2 -->
<g id="edge2" class="edge">
<title>Node3&#45;&gt;Node2</title>
<path fill="none" stroke="#404040" d="M286.0667,-639.6616C276.252,-613.7734 261.5629,-575.0282 249.4148,-542.9855"/>
<polygon fill="none" stroke="#404040" points="249.322,-542.7405 243.4548,-538.5482 245.0679,-531.5198 250.9352,-535.7121 249.322,-542.7405"/>
<text text-anchor="middle" x="288.5" y="-586" font-family="Helvetica,sans-Serif" font-size="10.00" fill="#000000"> +value</text>
</g>
<!-- Node4 -->
<g id="node4" class="node">
<title>Node4</title>
<polygon fill="none" stroke="#bfbfbf" points="684.5,-800 684.5,-857 713.5,-857 713.5,-800 684.5,-800"/>
<text text-anchor="middle" x="699" y="-845" font-family="Helvetica,sans-Serif" font-size="10.00" fill="#000000">int</text>
<polyline fill="none" stroke="#bfbfbf" points="684.5,-838 713.5,-838 "/>
<text text-anchor="middle" x="699" y="-826" font-family="Helvetica,sans-Serif" font-size="10.00" fill="#000000"> </text>
<polyline fill="none" stroke="#bfbfbf" points="684.5,-819 713.5,-819 "/>
<text text-anchor="middle" x="699" y="-807" font-family="Helvetica,sans-Serif" font-size="10.00" fill="#000000"> </text>
</g>
<!-- Node4&#45;&gt;Node2 -->
<g id="edge3" class="edge">
<title>Node4&#45;&gt;Node2</title>
<path fill="none" stroke="#404040" d="M684.0827,-827.6268C610.6183,-822.99 288.4333,-798.6287 229,-725 207.3754,-698.2105 213.4228,-605.5878 220.3164,-543.9643"/>
<polygon fill="none" stroke="#404040" points="220.3563,-543.6205 217.0772,-537.198 221.7444,-531.701 225.0235,-538.1234 220.3563,-543.6205"/>
<text text-anchor="middle" x="249" y="-671.5" font-family="Helvetica,sans-Serif" font-size="10.00" fill="#000000"> +name</text>
<text text-anchor="middle" x="249" y="-660.5" font-family="Helvetica,sans-Serif" font-size="10.00" fill="#000000">+help</text>
</g>
<!-- Node5 -->
<g id="node5" class="node">
<title>Node5</title>
<g id="a_node5"><a xlink:href="../../d8/d71/structo2_1_1framework_1_1Configurable.html" target="_top" xlink:title="{o2::framework::Configurable\&lt; T \&gt;\n||+ Configurable()\l+ operator T()\l+ operator&#45;\&gt;()\l}">
<polygon fill="none" stroke="#000000" points="0,-629 0,-708 184,-708 184,-629 0,-629"/>
<text text-anchor="middle" x="92" y="-696" font-family="Helvetica,sans-Serif" font-size="10.00" fill="#000000">o2::framework::Configurable&lt; T &gt;</text>
<polyline fill="none" stroke="#000000" points="0,-689 184,-689 "/>
<text text-anchor="middle" x="92" y="-677" font-family="Helvetica,sans-Serif" font-size="10.00" fill="#000000"> </text>
<polyline fill="none" stroke="#000000" points="0,-670 184,-670 "/>
<text text-anchor="start" x="8" y="-658" font-family="Helvetica,sans-Serif" font-size="10.00" fill="#000000">+ Configurable()</text>
<text text-anchor="start" x="8" y="-647" font-family="Helvetica,sans-Serif" font-size="10.00" fill="#000000">+ operator T()</text>
<text text-anchor="start" x="8" y="-636" font-family="Helvetica,sans-Serif" font-size="10.00" fill="#000000">+ operator&#45;&gt;()</text>
</a>
</g>
</g>
<!-- Node4&#45;&gt;Node5 -->
<g id="edge5" class="edge">
<title>Node4&#45;&gt;Node5</title>
<path fill="none" stroke="#404040" d="M684.3297,-828.269C608.2088,-826.847 258.2189,-817.5065 166,-765 146.8289,-754.0846 130.9793,-736.0026 118.9337,-718.4229"/>
<polygon fill="none" stroke="#404040" points="118.8222,-718.2512 112.1991,-715.3989 112.2846,-708.1883 118.9077,-711.0406 118.8222,-718.2512"/>
<text text-anchor="middle" x="186" y="-757" font-family="Helvetica,sans-Serif" font-size="10.00" fill="#000000"> +name</text>
<text text-anchor="middle" x="186" y="-746" font-family="Helvetica,sans-Serif" font-size="10.00" fill="#000000">+help</text>
</g>
<!-- Node7 -->
<g id="node7" class="node">
<title>Node7</title>
<g id="a_node7"><a xlink:href="../../d4/d79/structo2_1_1framework_1_1OutputObj.html" target="_top" xlink:title="{o2::framework::OutputObj\l\&lt; TH1F \&gt;\n||+ spec()\l+ OutputObj()\l+ OutputObj()\l+ setObject()\l+ setObject()\l+ setObject()\l+ setHash()\l+ operator&#45;\&gt;()\l+ operator*()\l+ ref()\l}">
<polygon fill="none" stroke="#000000" points="593.5,-193.5 593.5,-360.5 736.5,-360.5 736.5,-193.5 593.5,-193.5"/>
<text text-anchor="start" x="601.5" y="-348.5" font-family="Helvetica,sans-Serif" font-size="10.00" fill="#000000">o2::framework::OutputObj</text>
<text text-anchor="middle" x="665" y="-337.5" font-family="Helvetica,sans-Serif" font-size="10.00" fill="#000000">&lt; TH1F &gt;</text>
<polyline fill="none" stroke="#000000" points="593.5,-330.5 736.5,-330.5 "/>
<text text-anchor="middle" x="665" y="-318.5" font-family="Helvetica,sans-Serif" font-size="10.00" fill="#000000"> </text>
<polyline fill="none" stroke="#000000" points="593.5,-311.5 736.5,-311.5 "/>
<text text-anchor="start" x="601.5" y="-299.5" font-family="Helvetica,sans-Serif" font-size="10.00" fill="#000000">+ spec()</text>
<text text-anchor="start" x="601.5" y="-288.5" font-family="Helvetica,sans-Serif" font-size="10.00" fill="#000000">+ OutputObj()</text>
<text text-anchor="start" x="601.5" y="-277.5" font-family="Helvetica,sans-Serif" font-size="10.00" fill="#000000">+ OutputObj()</text>
<text text-anchor="start" x="601.5" y="-266.5" font-family="Helvetica,sans-Serif" font-size="10.00" fill="#000000">+ setObject()</text>
<text text-anchor="start" x="601.5" y="-255.5" font-family="Helvetica,sans-Serif" font-size="10.00" fill="#000000">+ setObject()</text>
<text text-anchor="start" x="601.5" y="-244.5" font-family="Helvetica,sans-Serif" font-size="10.00" fill="#000000">+ setObject()</text>
<text text-anchor="start" x="601.5" y="-233.5" font-family="Helvetica,sans-Serif" font-size="10.00" fill="#000000">+ setHash()</text>
<text text-anchor="start" x="601.5" y="-222.5" font-family="Helvetica,sans-Serif" font-size="10.00" fill="#000000">+ operator&#45;&gt;()</text>
<text text-anchor="start" x="601.5" y="-211.5" font-family="Helvetica,sans-Serif" font-size="10.00" fill="#000000">+ operator*()</text>
<text text-anchor="start" x="601.5" y="-200.5" font-family="Helvetica,sans-Serif" font-size="10.00" fill="#000000">+ ref()</text>
</a>
</g>
</g>
<!-- Node4&#45;&gt;Node7 -->
<g id="edge10" class="edge">
<title>Node4&#45;&gt;Node7</title>
<path fill="none" stroke="#404040" d="M713.5938,-817.8649C778.0418,-769.5892 1029.6673,-566.5754 931,-408 891.336,-344.253 810.5266,-310.6217 748.3297,-293.4821"/>
<polygon fill="none" stroke="#404040" points="748.1539,-293.4357 741.3311,-295.7702 736.552,-290.3701 743.3748,-288.0356 748.1539,-293.4357"/>
<text text-anchor="middle" x="946" y="-586" font-family="Helvetica,sans-Serif" font-size="10.00" fill="#000000"> +label</text>
</g>
<!-- Node11 -->
<g id="node11" class="node">
<title>Node11</title>
<g id="a_node11"><a xlink:href="../../da/d96/structo2_1_1framework_1_1InputSpec.html" target="_top" xlink:title="{o2::framework::InputSpec\n||+ InputSpec()\l+ InputSpec()\l+ InputSpec()\l+ InputSpec()\l+ InputSpec()\l+ operator==()\l}">
<polygon fill="none" stroke="#000000" points="951,-612.5 951,-724.5 1093,-724.5 1093,-612.5 951,-612.5"/>
<text text-anchor="middle" x="1022" y="-712.5" font-family="Helvetica,sans-Serif" font-size="10.00" fill="#000000">o2::framework::InputSpec</text>
<polyline fill="none" stroke="#000000" points="951,-705.5 1093,-705.5 "/>
<text text-anchor="middle" x="1022" y="-693.5" font-family="Helvetica,sans-Serif" font-size="10.00" fill="#000000"> </text>
<polyline fill="none" stroke="#000000" points="951,-686.5 1093,-686.5 "/>
<text text-anchor="start" x="959" y="-674.5" font-family="Helvetica,sans-Serif" font-size="10.00" fill="#000000">+ InputSpec()</text>
<text text-anchor="start" x="959" y="-663.5" font-family="Helvetica,sans-Serif" font-size="10.00" fill="#000000">+ InputSpec()</text>
<text text-anchor="start" x="959" y="-652.5" font-family="Helvetica,sans-Serif" font-size="10.00" fill="#000000">+ InputSpec()</text>
<text text-anchor="start" x="959" y="-641.5" font-family="Helvetica,sans-Serif" font-size="10.00" fill="#000000">+ InputSpec()</text>
<text text-anchor="start" x="959" y="-630.5" font-family="Helvetica,sans-Serif" font-size="10.00" fill="#000000">+ InputSpec()</text>
<text text-anchor="start" x="959" y="-619.5" font-family="Helvetica,sans-Serif" font-size="10.00" fill="#000000">+ operator==()</text>
</a>
</g>
</g>
<!-- Node4&#45;&gt;Node11 -->
<g id="edge15" class="edge">
<title>Node4&#45;&gt;Node11</title>
<path fill="none" stroke="#404040" d="M713.6038,-827.3927C752.2798,-823.8908 859.4937,-810.442 934,-765 947.7285,-756.6269 960.6044,-745.4867 972.0465,-733.7552"/>
<polygon fill="none" stroke="#404040" points="972.3122,-733.471 973.4876,-726.3563 980.5071,-724.7049 979.3317,-731.8196 972.3122,-733.471"/>
<text text-anchor="middle" x="986" y="-751.5" font-family="Helvetica,sans-Serif" font-size="10.00" fill="#000000"> +binding</text>
</g>
<!-- Node15 -->
<g id="node15" class="node">
<title>Node15</title>
<g id="a_node15"><a xlink:href="../../d4/d79/structo2_1_1framework_1_1OutputObj.html" target="_top" xlink:title="{o2::framework::OutputObj\&lt; T \&gt;\n||+ OutputObj()\l+ OutputObj()\l+ setObject()\l+ setObject()\l+ setObject()\l+ setHash()\l+ spec()\l+ operator&#45;\&gt;()\l+ operator*()\l+ ref()\l}">
<polygon fill="none" stroke="#000000" points="518,-408.5 518,-564.5 690,-564.5 690,-408.5 518,-408.5"/>
<text text-anchor="middle" x="604" y="-552.5" font-family="Helvetica,sans-Serif" font-size="10.00" fill="#000000">o2::framework::OutputObj&lt; T &gt;</text>
<polyline fill="none" stroke="#000000" points="518,-545.5 690,-545.5 "/>
<text text-anchor="middle" x="604" y="-533.5" font-family="Helvetica,sans-Serif" font-size="10.00" fill="#000000"> </text>
<polyline fill="none" stroke="#000000" points="518,-526.5 690,-526.5 "/>
<text text-anchor="start" x="526" y="-514.5" font-family="Helvetica,sans-Serif" font-size="10.00" fill="#000000">+ OutputObj()</text>
<text text-anchor="start" x="526" y="-503.5" font-family="Helvetica,sans-Serif" font-size="10.00" fill="#000000">+ OutputObj()</text>
<text text-anchor="start" x="526" y="-492.5" font-family="Helvetica,sans-Serif" font-size="10.00" fill="#000000">+ setObject()</text>
<text text-anchor="start" x="526" y="-481.5" font-family="Helvetica,sans-Serif" font-size="10.00" fill="#000000">+ setObject()</text>
<text text-anchor="start" x="526" y="-470.5" font-family="Helvetica,sans-Serif" font-size="10.00" fill="#000000">+ setObject()</text>
<text text-anchor="start" x="526" y="-459.5" font-family="Helvetica,sans-Serif" font-size="10.00" fill="#000000">+ setHash()</text>
<text text-anchor="start" x="526" y="-448.5" font-family="Helvetica,sans-Serif" font-size="10.00" fill="#000000">+ spec()</text>
<text text-anchor="start" x="526" y="-437.5" font-family="Helvetica,sans-Serif" font-size="10.00" fill="#000000">+ operator&#45;&gt;()</text>
<text text-anchor="start" x="526" y="-426.5" font-family="Helvetica,sans-Serif" font-size="10.00" fill="#000000">+ operator*()</text>
<text text-anchor="start" x="526" y="-415.5" font-family="Helvetica,sans-Serif" font-size="10.00" fill="#000000">+ ref()</text>
</a>
</g>
</g>
<!-- Node4&#45;&gt;Node15 -->
<g id="edge20" class="edge">
<title>Node4&#45;&gt;Node15</title>
<path fill="none" stroke="#404040" d="M698.4437,-799.8019C696.9283,-757.6948 691.3545,-677.1124 671,-612 666.6704,-598.15 662.7754,-595.8321 656,-583 654.6692,-580.4796 653.3161,-577.9238 651.948,-575.3454"/>
<polygon fill="none" stroke="#404040" points="651.8942,-575.2441 645.5443,-571.8266 646.2567,-564.6507 652.6065,-568.0683 651.8942,-575.2441"/>
<text text-anchor="middle" x="711" y="-666" font-family="Helvetica,sans-Serif" font-size="10.00" fill="#000000"> +label</text>
</g>
<!-- Node5&#45;&gt;Node2 -->
<g id="edge4" class="edge">
<title>Node5&#45;&gt;Node2</title>
<path fill="none" stroke="#ffa500" d="M128.0334,-620.2788C148.5273,-592.8532 174.036,-558.7165 194.156,-531.7912"/>
<polygon fill="#ffa500" stroke="#ffa500" points="125.028,-618.4537 121.8458,-628.5593 130.6354,-622.6438 125.028,-618.4537"/>
<text text-anchor="middle" x="176" y="-586" font-family="Helvetica,sans-Serif" font-size="10.00" fill="#000000"> &lt; float &gt;</text>
</g>
<!-- Node6 -->
<g id="node6" class="node">
<title>Node6</title>
<polygon fill="none" stroke="#bfbfbf" points="77.5,-800 77.5,-857 106.5,-857 106.5,-800 77.5,-800"/>
<text text-anchor="middle" x="92" y="-845" font-family="Helvetica,sans-Serif" font-size="10.00" fill="#000000">T</text>
<polyline fill="none" stroke="#bfbfbf" points="77.5,-838 106.5,-838 "/>
<text text-anchor="middle" x="92" y="-826" font-family="Helvetica,sans-Serif" font-size="10.00" fill="#000000"> </text>
<polyline fill="none" stroke="#bfbfbf" points="77.5,-819 106.5,-819 "/>
<text text-anchor="middle" x="92" y="-807" font-family="Helvetica,sans-Serif" font-size="10.00" fill="#000000"> </text>
</g>
<!-- Node6&#45;&gt;Node5 -->
<g id="edge6" class="edge">
<title>Node6&#45;&gt;Node5</title>
<path fill="none" stroke="#404040" d="M92,-799.8952C92,-777.8577 92,-746.7968 92,-720.4075"/>
<polygon fill="none" stroke="#404040" points="92.0001,-720.2754 88,-714.2755 92,-708.2754 96,-714.2754 92.0001,-720.2754"/>
<text text-anchor="middle" x="111.5" y="-751.5" font-family="Helvetica,sans-Serif" font-size="10.00" fill="#000000"> +value</text>
</g>
<!-- Node7&#45;&gt;Node1 -->
<g id="edge7" class="edge">
<title>Node7&#45;&gt;Node1</title>
<path fill="none" stroke="#404040" d="M593.3316,-234.7463C518.3429,-190.535 402.7592,-122.3901 338.3999,-84.4457"/>
<polygon fill="none" stroke="#404040" points="338.0994,-84.2685 330.8993,-84.667 327.7622,-78.174 334.9623,-77.7755 338.0994,-84.2685"/>
<text text-anchor="middle" x="512.5" y="-167" font-family="Helvetica,sans-Serif" font-size="10.00" fill="#000000"> +etaDiff</text>
<text text-anchor="middle" x="512.5" y="-156" font-family="Helvetica,sans-Serif" font-size="10.00" fill="#000000">+ptH</text>
<text text-anchor="middle" x="512.5" y="-145" font-family="Helvetica,sans-Serif" font-size="10.00" fill="#000000">+trZ</text>
<text text-anchor="middle" x="512.5" y="-134" font-family="Helvetica,sans-Serif" font-size="10.00" fill="#000000">+phiDiff</text>
</g>
<!-- Node8 -->
<g id="node8" class="node">
<title>Node8</title>
<polygon fill="none" stroke="#bfbfbf" points="408.5,-640 408.5,-697 547.5,-697 547.5,-640 408.5,-640"/>
<text text-anchor="middle" x="478" y="-685" font-family="Helvetica,sans-Serif" font-size="10.00" fill="#000000">OutputObjHandlingPolicy</text>
<polyline fill="none" stroke="#bfbfbf" points="408.5,-678 547.5,-678 "/>
<text text-anchor="middle" x="478" y="-666" font-family="Helvetica,sans-Serif" font-size="10.00" fill="#000000"> </text>
<polyline fill="none" stroke="#bfbfbf" points="408.5,-659 547.5,-659 "/>
<text text-anchor="middle" x="478" y="-647" font-family="Helvetica,sans-Serif" font-size="10.00" fill="#000000"> </text>
</g>
<!-- Node8&#45;&gt;Node7 -->
<g id="edge8" class="edge">
<title>Node8&#45;&gt;Node7</title>
<path fill="none" stroke="#404040" d="M465.4221,-639.7304C460.1466,-626.1438 454.6325,-609.5324 452,-594 438.1353,-512.1947 425.5141,-479.2692 468,-408 493.9668,-364.4412 540.7098,-332.4272 582.1485,-310.9541"/>
<polygon fill="none" stroke="#404040" points="582.3878,-310.8339 585.955,-304.5669 593.1119,-305.4492 589.5448,-311.7163 582.3878,-310.8339"/>
<text text-anchor="middle" x="488.5" y="-484" font-family="Helvetica,sans-Serif" font-size="10.00" fill="#000000"> +policy</text>
</g>
<!-- Node8&#45;&gt;Node15 -->
<g id="edge19" class="edge">
<title>Node8&#45;&gt;Node15</title>
<path fill="none" stroke="#404040" d="M503.5379,-639.9735C515.1805,-626.4381 528.8267,-609.7995 540,-594 544.3208,-587.8901 548.6379,-581.4777 552.8738,-574.9549"/>
<polygon fill="none" stroke="#404040" points="552.9991,-574.7585 552.8535,-567.5488 559.4525,-564.6415 559.5981,-571.8511 552.9991,-574.7585"/>
<text text-anchor="middle" x="566.5" y="-586" font-family="Helvetica,sans-Serif" font-size="10.00" fill="#000000"> +policy</text>
</g>
<!-- Node9 -->
<g id="node9" class="node">
<title>Node9</title>
<g id="a_node9"><a xlink:href="../../d3/d87/classuint32__t.html" target="_top" xlink:title="{uint32_t\n||}">
<polygon fill="none" stroke="#000000" points="334,-640 334,-697 390,-697 390,-640 334,-640"/>
<text text-anchor="middle" x="362" y="-685" font-family="Helvetica,sans-Serif" font-size="10.00" fill="#000000">uint32_t</text>
<polyline fill="none" stroke="#000000" points="334,-678 390,-678 "/>
<text text-anchor="middle" x="362" y="-666" font-family="Helvetica,sans-Serif" font-size="10.00" fill="#000000"> </text>
<polyline fill="none" stroke="#000000" points="334,-659 390,-659 "/>
<text text-anchor="middle" x="362" y="-647" font-family="Helvetica,sans-Serif" font-size="10.00" fill="#000000"> </text>
</a>
</g>
</g>
<!-- Node9&#45;&gt;Node7 -->
<g id="edge9" class="edge">
<title>Node9&#45;&gt;Node7</title>
<path fill="none" stroke="#404040" d="M353.3208,-639.7439C339.6676,-588.3692 319.3332,-479.5147 367,-408 414.7043,-336.4291 511.0137,-303.6565 581.2747,-288.8464"/>
<polygon fill="none" stroke="#404040" points="581.4278,-288.8157 586.5225,-283.7124 593.1928,-286.4524 588.098,-291.5557 581.4278,-288.8157"/>
<text text-anchor="middle" x="401" y="-484" font-family="Helvetica,sans-Serif" font-size="10.00" fill="#000000"> +mTaskHash</text>
</g>
<!-- Node9&#45;&gt;Node15 -->
<g id="edge18" class="edge">
<title>Node9&#45;&gt;Node15</title>
<path fill="none" stroke="#404040" d="M376.6805,-639.772C382.6406,-630.0776 390.2093,-619.7591 399,-612 434.6164,-580.5634 454.2469,-589.4126 495,-565 499.1027,-562.5423 503.2476,-559.9747 507.4015,-557.3304"/>
<polygon fill="none" stroke="#404040" points="507.6657,-557.1587 510.5163,-550.5349 517.727,-550.6187 514.8763,-557.2424 507.6657,-557.1587"/>
<text text-anchor="middle" x="488" y="-586" font-family="Helvetica,sans-Serif" font-size="10.00" fill="#000000"> +mTaskHash</text>
</g>
<!-- Node10 -->
<g id="node10" class="node">
<title>Node10</title>
<polygon fill="none" stroke="#bfbfbf" points="770,-640 770,-697 808,-697 808,-640 770,-640"/>
<text text-anchor="middle" x="789" y="-685" font-family="Helvetica,sans-Serif" font-size="10.00" fill="#000000">bool</text>
<polyline fill="none" stroke="#bfbfbf" points="770,-678 808,-678 "/>
<text text-anchor="middle" x="789" y="-666" font-family="Helvetica,sans-Serif" font-size="10.00" fill="#000000"> </text>
<polyline fill="none" stroke="#bfbfbf" points="770,-659 808,-659 "/>
<text text-anchor="middle" x="789" y="-647" font-family="Helvetica,sans-Serif" font-size="10.00" fill="#000000"> </text>
</g>
<!-- Node10&#45;&gt;Node7 -->
<g id="edge11" class="edge">
<title>Node10&#45;&gt;Node7</title>
<path fill="none" stroke="#404040" d="M792.6029,-639.6204C793.2831,-621.6274 791.1109,-598.9492 779,-583 766.2224,-566.1728 748.675,-581.1063 735,-565 688.6659,-510.4281 715.9939,-477.5424 699,-408 696.1972,-396.5305 693.1847,-384.5163 690.1529,-372.6131"/>
<polygon fill="none" stroke="#404040" points="690.0975,-372.3965 684.7345,-367.5759 687.1216,-360.7713 692.4846,-365.5919 690.0975,-372.3965"/>
<text text-anchor="middle" x="766" y="-484" font-family="Helvetica,sans-Serif" font-size="10.00" fill="#000000"> +isdangling</text>
</g>
<!-- Node10&#45;&gt;Node15 -->
<g id="edge22" class="edge">
<title>Node10&#45;&gt;Node15</title>
<path fill="none" stroke="#404040" d="M769.8476,-645.1893C760.8532,-634.6888 749.7611,-622.3523 739,-612 729.8956,-603.2413 726.4721,-602.3597 717,-594 709.3298,-587.2306 701.4624,-580.1179 693.623,-572.9106"/>
<polygon fill="none" stroke="#404040" points="693.6056,-572.8946 686.4848,-571.7571 684.796,-564.7465 691.9168,-565.884 693.6056,-572.8946"/>
<text text-anchor="middle" x="748" y="-586" font-family="Helvetica,sans-Serif" font-size="10.00" fill="#000000"> +isdangling</text>
</g>
<!-- Node11&#45;&gt;Node7 -->
<g id="edge12" class="edge">
<title>Node11&#45;&gt;Node7</title>
<path fill="none" stroke="#404040" d="M1026.2778,-612.3458C1028.0118,-548.192 1020.7756,-443.7487 964,-379 935.1943,-346.1491 826.4349,-314.6812 748.3969,-295.5986"/>
<polygon fill="none" stroke="#404040" points="748.3015,-295.5756 741.5302,-298.0557 736.6366,-292.7592 743.4078,-290.2792 748.3015,-295.5756"/>
<text text-anchor="middle" x="1042" y="-484" font-family="Helvetica,sans-Serif" font-size="10.00" fill="#000000"> +spec</text>
</g>
<!-- Node11&#45;&gt;Node15 -->
<g id="edge23" class="edge">
<title>Node11&#45;&gt;Node15</title>
<path fill="none" stroke="#404040" d="M950.8321,-640.5167C903.6877,-622.6081 840.2183,-599.6883 783,-583 748.4294,-572.9171 736.5074,-580.4939 704,-565 702.9758,-564.5118 701.9524,-564.0116 700.9302,-563.5"/>
<polygon fill="none" stroke="#404040" points="700.5977,-563.3204 693.4174,-563.9865 690.0408,-557.6148 697.2211,-556.9486 700.5977,-563.3204"/>
<text text-anchor="middle" x="833" y="-586" font-family="Helvetica,sans-Serif" font-size="10.00" fill="#000000"> +spec</text>
</g>
<!-- Node12 -->
<g id="node12" class="node">
<title>Node12</title>
<polygon fill="none" stroke="#bfbfbf" points="983,-800 983,-857 1071,-857 1071,-800 983,-800"/>
<text text-anchor="middle" x="1027" y="-845" font-family="Helvetica,sans-Serif" font-size="10.00" fill="#000000">enum Lifetime</text>
<polyline fill="none" stroke="#bfbfbf" points="983,-838 1071,-838 "/>
<text text-anchor="middle" x="1027" y="-826" font-family="Helvetica,sans-Serif" font-size="10.00" fill="#000000"> </text>
<polyline fill="none" stroke="#bfbfbf" points="983,-819 1071,-819 "/>
<text text-anchor="middle" x="1027" y="-807" font-family="Helvetica,sans-Serif" font-size="10.00" fill="#000000"> </text>
</g>
<!-- Node12&#45;&gt;Node11 -->
<g id="edge13" class="edge">
<title>Node12&#45;&gt;Node11</title>
<path fill="none" stroke="#404040" d="M1026.1061,-799.8952C1025.5563,-782.3 1024.8266,-758.9527 1024.1351,-736.8235"/>
<polygon fill="none" stroke="#404040" points="1024.1311,-736.6932 1019.9456,-730.8211 1023.7562,-724.6991 1027.9417,-730.5712 1024.1311,-736.6932"/>
<text text-anchor="middle" x="1049" y="-751.5" font-family="Helvetica,sans-Serif" font-size="10.00" fill="#000000"> +lifetime</text>
</g>
<!-- Node13 -->
<g id="node13" class="node">
<title>Node13</title>
<polygon fill="none" stroke="#bfbfbf" points="1089,-783.5 1089,-873.5 1253,-873.5 1253,-783.5 1089,-783.5"/>
<text text-anchor="start" x="1097" y="-861.5" font-family="Helvetica,sans-Serif" font-size="10.00" fill="#000000">variant&lt; o2::framework</text>
<text text-anchor="start" x="1097" y="-850.5" font-family="Helvetica,sans-Serif" font-size="10.00" fill="#000000">::ConcreteDataMatcher,</text>
<text text-anchor="start" x="1097" y="-839.5" font-family="Helvetica,sans-Serif" font-size="10.00" fill="#000000"> o2::framework::data_matcher</text>
<text text-anchor="middle" x="1171" y="-828.5" font-family="Helvetica,sans-Serif" font-size="10.00" fill="#000000">::DataDescriptorMatcher &gt;</text>
<polyline fill="none" stroke="#bfbfbf" points="1089,-821.5 1253,-821.5 "/>
<text text-anchor="middle" x="1171" y="-809.5" font-family="Helvetica,sans-Serif" font-size="10.00" fill="#000000"> </text>
<polyline fill="none" stroke="#bfbfbf" points="1089,-802.5 1253,-802.5 "/>
<text text-anchor="middle" x="1171" y="-790.5" font-family="Helvetica,sans-Serif" font-size="10.00" fill="#000000"> </text>
</g>
<!-- Node13&#45;&gt;Node11 -->
<g id="edge14" class="edge">
<title>Node13&#45;&gt;Node11</title>
<path fill="none" stroke="#404040" d="M1128.7011,-783.0784C1114.4002,-767.7217 1098.1389,-750.2599 1082.6975,-733.6785"/>
<polygon fill="none" stroke="#404040" points="1082.399,-733.3579 1075.3827,-731.6931 1074.2209,-724.5761 1081.2372,-726.241 1082.399,-733.3579"/>
<text text-anchor="middle" x="1135" y="-751.5" font-family="Helvetica,sans-Serif" font-size="10.00" fill="#000000"> +matcher</text>
</g>
<!-- Node14 -->
<g id="node14" class="node">
<title>Node14</title>
<polygon fill="none" stroke="#bfbfbf" points="806,-458 806,-515 922,-515 922,-458 806,-458"/>
<text text-anchor="middle" x="864" y="-503" font-family="Helvetica,sans-Serif" font-size="10.00" fill="#000000">shared_ptr&lt; TH1F &gt;</text>
<polyline fill="none" stroke="#bfbfbf" points="806,-496 922,-496 "/>
<text text-anchor="middle" x="864" y="-484" font-family="Helvetica,sans-Serif" font-size="10.00" fill="#000000"> </text>
<polyline fill="none" stroke="#bfbfbf" points="806,-477 922,-477 "/>
<text text-anchor="middle" x="864" y="-465" font-family="Helvetica,sans-Serif" font-size="10.00" fill="#000000"> </text>
</g>
<!-- Node14&#45;&gt;Node7 -->
<g id="edge16" class="edge">
<title>Node14&#45;&gt;Node7</title>
<path fill="none" stroke="#404040" d="M838.1933,-457.9841C824.5561,-443.0119 807.4785,-424.4142 792,-408 776.9642,-392.0552 760.7793,-375.1604 745.1646,-358.9938"/>
<polygon fill="none" stroke="#404040" points="744.9026,-358.723 737.856,-357.1915 736.5593,-350.098 743.606,-351.6294 744.9026,-358.723"/>
<text text-anchor="middle" x="796" y="-382" font-family="Helvetica,sans-Serif" font-size="10.00" fill="#000000"> +object</text>
</g>
<!-- Node15&#45;&gt;Node7 -->
<g id="edge17" class="edge">
<title>Node15&#45;&gt;Node7</title>
<path fill="none" stroke="#ffa500" d="M629.6153,-398.5262C633.2635,-385.9967 637.0074,-373.1384 640.6309,-360.6937"/>
<polygon fill="#ffa500" stroke="#ffa500" points="626.1494,-397.9102 626.7141,-408.4899 632.8703,-399.8671 626.1494,-397.9102"/>
<text text-anchor="middle" x="660.5" y="-382" font-family="Helvetica,sans-Serif" font-size="10.00" fill="#000000"> &lt; TH1F &gt;</text>
</g>
<!-- Node16 -->
<g id="node16" class="node">
<title>Node16</title>
<polygon fill="none" stroke="#bfbfbf" points="565.5,-640 565.5,-697 662.5,-697 662.5,-640 565.5,-640"/>
<text text-anchor="middle" x="614" y="-685" font-family="Helvetica,sans-Serif" font-size="10.00" fill="#000000">shared_ptr&lt; T &gt;</text>
<polyline fill="none" stroke="#bfbfbf" points="565.5,-678 662.5,-678 "/>
<text text-anchor="middle" x="614" y="-666" font-family="Helvetica,sans-Serif" font-size="10.00" fill="#000000"> </text>
<polyline fill="none" stroke="#bfbfbf" points="565.5,-659 662.5,-659 "/>
<text text-anchor="middle" x="614" y="-647" font-family="Helvetica,sans-Serif" font-size="10.00" fill="#000000"> </text>
</g>
<!-- Node16&#45;&gt;Node15 -->
<g id="edge21" class="edge">
<title>Node16&#45;&gt;Node15</title>
<path fill="none" stroke="#404040" d="M612.4155,-639.6616C611.4725,-622.4991 610.219,-599.686 608.9682,-576.9212"/>
<polygon fill="none" stroke="#404040" points="608.9543,-576.6668 604.6311,-570.8953 608.2959,-564.6849 612.6191,-570.4564 608.9543,-576.6668"/>
<text text-anchor="middle" x="631" y="-586" font-family="Helvetica,sans-Serif" font-size="10.00" fill="#000000"> +object</text>
</g>
</g>
</svg>
        <g id="navigator" transform="translate(0 0)" fill="#404254">
                <rect fill="#f2f5e9" fill-opacity="0.5" stroke="#606060" stroke-width=".5" x="0" y="0" width="60" height="60"/>
                <use id="zoomplus" xlink:href="#zoomPlus" x="17" y="9" onmousedown="handleZoom(evt,'in')"/>
                <use id="zoomminus" xlink:href="#zoomMin" x="42" y="9" onmousedown="handleZoom(evt,'out')"/>
                <use id="reset" xlink:href="#resetDef" x="30" y="36" onmousedown="handleReset()"/>
                <g id="arrowUp" xlink:href="#dirArrow" transform="translate(30 24)" onmousedown="handlePan(0,-1)">
                  <use xlink:href="#rim" fill="#404040">
                        <set attributeName="fill" to="#808080" begin="arrowUp.mouseover" end="arrowUp.mouseout"/>
                  </use>
                  <path fill="none" stroke="white" stroke-width="1.5" d="M0,-3.0v7 M-2.5,-0.5L0,-3.0L2.5,-0.5"/>
                </g>
                <g id="arrowRight" xlink:href="#dirArrow" transform="rotate(90) translate(36 -43)" onmousedown="handlePan(1,0)">
                  <use xlink:href="#rim" fill="#404040">
                        <set attributeName="fill" to="#808080" begin="arrowRight.mouseover" end="arrowRight.mouseout"/>
                  </use>
                  <path fill="none" stroke="white" stroke-width="1.5" d="M0,-3.0v7 M-2.5,-0.5L0,-3.0L2.5,-0.5"/>
                </g>
                <g id="arrowDown" xlink:href="#dirArrow" transform="rotate(180) translate(-30 -48)" onmousedown="handlePan(0,1)">
                  <use xlink:href="#rim" fill="#404040">
                        <set attributeName="fill" to="#808080" begin="arrowDown.mouseover" end="arrowDown.mouseout"/>
                  </use>
                  <path fill="none" stroke="white" stroke-width="1.5" d="M0,-3.0v7 M-2.5,-0.5L0,-3.0L2.5,-0.5"/>
                </g>
                <g id="arrowLeft" xlink:href="#dirArrow" transform="rotate(270) translate(-36 17)" onmousedown="handlePan(-1,0)">
                  <use xlink:href="#rim" fill="#404040">
                        <set attributeName="fill" to="#808080" begin="arrowLeft.mouseover" end="arrowLeft.mouseout"/>
                  </use>
                  <path fill="none" stroke="white" stroke-width="1.5" d="M0,-3.0v7 M-2.5,-0.5L0,-3.0L2.5,-0.5"/>
                </g>
        </g>
        <svg viewBox="0 0 15 15" width="100%" height="30px" preserveAspectRatio="xMaxYMin meet">
         <g id="arrow_out" transform="scale(0.3 0.3)">
          <a xlink:href="structCTask__coll__graph_org.svg" target="_base">
           <rect id="button" ry="5" rx="5" y="6" x="6" height="38" width="38"
                fill="#f2f5e9" fill-opacity="0.5" stroke="#606060" stroke-width="1.0"/>
           <path id="arrow"
             d="M 11.500037,31.436501 C 11.940474,20.09759 22.043105,11.32322 32.158766,21.979434 L 37.068811,17.246167 C 37.068811,17.246167 37.088388,32 37.088388,32 L 22.160133,31.978069 C 22.160133,31.978069 26.997745,27.140456 26.997745,27.140456 C 18.528582,18.264221 13.291696,25.230495 11.500037,31.436501 z"
             style="fill:#404040;"/>
          </a>
         </g>
        </svg>
</svg>
