<?xml version="1.0" encoding="UTF-8" standalone="no"?>
<!DOCTYPE svg PUBLIC "-//W3C//DTD SVG 1.1//EN"
 "http://www.w3.org/Graphics/SVG/1.1/DTD/svg11.dtd">
<!-- Generated by graphviz version 2.40.1 (20161225.0304)
 -->
<!-- Title: o2::tpc::zerosupp_link_based::ContainerT&lt; DataBitSizeT, SignificantBitsT, true &gt; Pages: 1 -->
<svg width="470pt" height="353pt"
 viewBox="0.00 0.00 469.50 353.00" xmlns="http://www.w3.org/2000/svg" xmlns:xlink="http://www.w3.org/1999/xlink">
<g id="graph0" class="graph" transform="scale(1 1) rotate(0) translate(4 349)">
<title>o2::tpc::zerosupp_link_based::ContainerT&lt; DataBitSizeT, SignificantBitsT, true &gt;</title>
<!-- Node1 -->
<g id="node1" class="node">
<title>Node1</title>
<polygon fill="#bfbfbf" stroke="#000000" points="203,-.5 203,-79.5 382,-79.5 382,-.5 203,-.5"/>
<text text-anchor="start" x="211" y="-67.5" font-family="Helvetica,sans-Serif" font-size="10.00" fill="#000000">o2::tpc::zerosupp_link</text>
<text text-anchor="start" x="211" y="-56.5" font-family="Helvetica,sans-Serif" font-size="10.00" fill="#000000">_based::ContainerT&lt; DataBitSize</text>
<text text-anchor="middle" x="292.5" y="-45.5" font-family="Helvetica,sans-Serif" font-size="10.00" fill="#000000">T, SignificantBitsT, true &gt;</text>
<polyline fill="none" stroke="#000000" points="203,-38.5 382,-38.5 "/>
<text text-anchor="middle" x="292.5" y="-26.5" font-family="Helvetica,sans-Serif" font-size="10.00" fill="#000000"> </text>
<polyline fill="none" stroke="#000000" points="203,-19.5 382,-19.5 "/>
<text text-anchor="start" x="211" y="-7.5" font-family="Helvetica,sans-Serif" font-size="10.00" fill="#000000">+ dataWords()</text>
</g>
<!-- Node2 -->
<g id="node2" class="node">
<title>Node2</title>
<g id="a_node2"><a xlink:href="../../d0/de2/structo2_1_1tpc_1_1zerosupp__link__based_1_1Header.html" target="_top" xlink:title="header definition of the zero suppressed link based data format ">
<polygon fill="none" stroke="#000000" points="162,-127.5 162,-195.5 285,-195.5 285,-127.5 162,-127.5"/>
<text text-anchor="start" x="170" y="-183.5" font-family="Helvetica,sans-Serif" font-size="10.00" fill="#000000">o2::tpc::zerosupp_link</text>
<text text-anchor="middle" x="223.5" y="-172.5" font-family="Helvetica,sans-Serif" font-size="10.00" fill="#000000">_based::Header</text>
<polyline fill="none" stroke="#000000" points="162,-165.5 285,-165.5 "/>
<text text-anchor="middle" x="223.5" y="-153.5" font-family="Helvetica,sans-Serif" font-size="10.00" fill="#000000"> </text>
<polyline fill="none" stroke="#000000" points="162,-146.5 285,-146.5 "/>
<text text-anchor="start" x="170" y="-134.5" font-family="Helvetica,sans-Serif" font-size="10.00" fill="#000000">+ getChannelBits()</text>
</a>
</g>
</g>
<!-- Node2&#45;&gt;Node1 -->
<g id="edge1" class="edge">
<title>Node2&#45;&gt;Node1</title>
<path fill="none" stroke="#404040" d="M242.904,-127.3321C249.3782,-115.9319 256.7358,-102.976 263.7649,-90.5987"/>
<polygon fill="none" stroke="#404040" points="263.901,-90.3591 263.3857,-83.1664 269.8269,-79.9243 270.3422,-87.117 263.901,-90.3591"/>
<text text-anchor="middle" x="281.5" y="-101" font-family="Helvetica,sans-Serif" font-size="10.00" fill="#000000"> +header</text>
</g>
<!-- Node3 -->
<g id="node3" class="node">
<title>Node3</title>
<polygon fill="none" stroke="#bfbfbf" points="0,-287.5 0,-344.5 107,-344.5 107,-287.5 0,-287.5"/>
<text text-anchor="middle" x="53.5" y="-332.5" font-family="Helvetica,sans-Serif" font-size="10.00" fill="#000000">anonymous:+@27</text>
<polyline fill="none" stroke="#bfbfbf" points="0,-325.5 107,-325.5 "/>
<text text-anchor="middle" x="53.5" y="-313.5" font-family="Helvetica,sans-Serif" font-size="10.00" fill="#000000"> </text>
<polyline fill="none" stroke="#bfbfbf" points="0,-306.5 107,-306.5 "/>
<text text-anchor="middle" x="53.5" y="-294.5" font-family="Helvetica,sans-Serif" font-size="10.00" fill="#000000"> </text>
</g>
<!-- Node3&#45;&gt;Node2 -->
<g id="edge2" class="edge">
<title>Node3&#45;&gt;Node2</title>
<path fill="none" stroke="#404040" d="M80.2811,-287.3065C100.3356,-266.3014 128.7983,-237.4871 155.5,-214 159.5141,-210.4692 163.7372,-206.8979 168.0321,-203.3667"/>
<polygon fill="none" stroke="#404040" points="168.1563,-203.2664 170.3144,-196.3858 177.4958,-195.7315 175.3377,-202.6121 168.1563,-203.2664"/>
<text text-anchor="middle" x="172.5" y="-239" font-family="Helvetica,sans-Serif" font-size="10.00" fill="#000000"> +@27</text>
</g>
<!-- Node4 -->
<g id="node4" class="node">
<title>Node4</title>
<polygon fill="none" stroke="#bfbfbf" points="125,-287.5 125,-344.5 232,-344.5 232,-287.5 125,-287.5"/>
<text text-anchor="middle" x="178.5" y="-332.5" font-family="Helvetica,sans-Serif" font-size="10.00" fill="#000000">anonymous:+@29</text>
<polyline fill="none" stroke="#bfbfbf" points="125,-325.5 232,-325.5 "/>
<text text-anchor="middle" x="178.5" y="-313.5" font-family="Helvetica,sans-Serif" font-size="10.00" fill="#000000"> </text>
<polyline fill="none" stroke="#bfbfbf" points="125,-306.5 232,-306.5 "/>
<text text-anchor="middle" x="178.5" y="-294.5" font-family="Helvetica,sans-Serif" font-size="10.00" fill="#000000"> </text>
</g>
<!-- Node4&#45;&gt;Node2 -->
<g id="edge3" class="edge">
<title>Node4&#45;&gt;Node2</title>
<path fill="none" stroke="#404040" d="M186.8587,-287.3018C193.3756,-264.9273 202.5541,-233.4143 210.0943,-207.5263"/>
<polygon fill="none" stroke="#404040" points="210.1806,-207.2297 208.0181,-200.3505 213.5364,-195.7084 215.6989,-202.5876 210.1806,-207.2297"/>
<text text-anchor="middle" x="225.5" y="-239" font-family="Helvetica,sans-Serif" font-size="10.00" fill="#000000"> +@29</text>
</g>
<!-- Node5 -->
<g id="node5" class="node">
<title>Node5</title>
<g id="a_node5"><a xlink:href="../../d6/d30/classuint64__t.html" target="_top" xlink:title="{uint64_t\n||}">
<polygon fill="none" stroke="#000000" points="250.5,-287.5 250.5,-344.5 306.5,-344.5 306.5,-287.5 250.5,-287.5"/>
<text text-anchor="middle" x="278.5" y="-332.5" font-family="Helvetica,sans-Serif" font-size="10.00" fill="#000000">uint64_t</text>
<polyline fill="none" stroke="#000000" points="250.5,-325.5 306.5,-325.5 "/>
<text text-anchor="middle" x="278.5" y="-313.5" font-family="Helvetica,sans-Serif" font-size="10.00" fill="#000000"> </text>
<polyline fill="none" stroke="#000000" points="250.5,-306.5 306.5,-306.5 "/>
<text text-anchor="middle" x="278.5" y="-294.5" font-family="Helvetica,sans-Serif" font-size="10.00" fill="#000000"> </text>
</a>
</g>
</g>
<!-- Node5&#45;&gt;Node2 -->
<g id="edge4" class="edge">
<title>Node5&#45;&gt;Node2</title>
<path fill="none" stroke="#404040" d="M270.3583,-287.1383C264.3313,-266.5559 255.6156,-238.3316 246.5,-214 245.6272,-211.6704 244.7056,-209.2951 243.7529,-206.9053"/>
<polygon fill="none" stroke="#404040" points="243.7191,-206.8233 237.7307,-202.8059 239.1359,-195.733 245.1243,-199.7504 243.7191,-206.8233"/>
<text text-anchor="middle" x="299.5" y="-261" font-family="Helvetica,sans-Serif" font-size="10.00" fill="#000000"> +zero</text>
<text text-anchor="middle" x="299.5" y="-250" font-family="Helvetica,sans-Serif" font-size="10.00" fill="#000000">+bitMaskLow</text>
<text text-anchor="middle" x="299.5" y="-239" font-family="Helvetica,sans-Serif" font-size="10.00" fill="#000000">+word0</text>
<text text-anchor="middle" x="299.5" y="-228" font-family="Helvetica,sans-Serif" font-size="10.00" fill="#000000">+word1</text>
<text text-anchor="middle" x="299.5" y="-217" font-family="Helvetica,sans-Serif" font-size="10.00" fill="#000000">+bitMaskHigh</text>
</g>
<!-- Node6 -->
<g id="node6" class="node">
<title>Node6</title>
<g id="a_node6"><a xlink:href="../../d3/d87/classuint32__t.html" target="_top" xlink:title="{uint32_t\n||}">
<polygon fill="none" stroke="#000000" points="333.5,-287.5 333.5,-344.5 389.5,-344.5 389.5,-287.5 333.5,-287.5"/>
<text text-anchor="middle" x="361.5" y="-332.5" font-family="Helvetica,sans-Serif" font-size="10.00" fill="#000000">uint32_t</text>
<polyline fill="none" stroke="#000000" points="333.5,-325.5 389.5,-325.5 "/>
<text text-anchor="middle" x="361.5" y="-313.5" font-family="Helvetica,sans-Serif" font-size="10.00" fill="#000000"> </text>
<polyline fill="none" stroke="#000000" points="333.5,-306.5 389.5,-306.5 "/>
<text text-anchor="middle" x="361.5" y="-294.5" font-family="Helvetica,sans-Serif" font-size="10.00" fill="#000000"> </text>
</a>
</g>
</g>
<!-- Node6&#45;&gt;Node2 -->
<g id="edge5" class="edge">
<title>Node6&#45;&gt;Node2</title>
<path fill="none" stroke="#404040" d="M361.9149,-287.3523C360.7598,-264.9811 355.7343,-234.373 338.5,-214 326.8264,-200.2004 317.0419,-203.1477 296.6504,-196.2861"/>
<polygon fill="none" stroke="#404040" points="296.5138,-196.2325 289.4661,-197.7589 285.3464,-191.8404 292.3941,-190.314 296.5138,-196.2325"/>
<text text-anchor="middle" x="410.5" y="-244.5" font-family="Helvetica,sans-Serif" font-size="10.00" fill="#000000"> +numWordsPayload</text>
<text text-anchor="middle" x="410.5" y="-233.5" font-family="Helvetica,sans-Serif" font-size="10.00" fill="#000000">+bunchCrossing</text>
</g>
<!-- Node7 -->
<g id="node7" class="node">
<title>Node7</title>
<polygon fill="none" stroke="#bfbfbf" points="303,-127.5 303,-195.5 420,-195.5 420,-127.5 303,-127.5"/>
<text text-anchor="start" x="311" y="-183.5" font-family="Helvetica,sans-Serif" font-size="10.00" fill="#000000">Data&lt; DataBitSizeT,</text>
<text text-anchor="middle" x="361.5" y="-172.5" font-family="Helvetica,sans-Serif" font-size="10.00" fill="#000000"> SignificantBitsT &gt;</text>
<polyline fill="none" stroke="#bfbfbf" points="303,-165.5 420,-165.5 "/>
<text text-anchor="middle" x="361.5" y="-153.5" font-family="Helvetica,sans-Serif" font-size="10.00" fill="#000000"> </text>
<polyline fill="none" stroke="#bfbfbf" points="303,-146.5 420,-146.5 "/>
<text text-anchor="middle" x="361.5" y="-134.5" font-family="Helvetica,sans-Serif" font-size="10.00" fill="#000000"> </text>
</g>
<!-- Node7&#45;&gt;Node1 -->
<g id="edge6" class="edge">
<title>Node7&#45;&gt;Node1</title>
<path fill="none" stroke="#404040" d="M342.096,-127.3321C335.6218,-115.9319 328.2642,-102.976 321.2351,-90.5987"/>
<polygon fill="none" stroke="#404040" points="321.099,-90.3591 314.6578,-87.117 315.1731,-79.9243 321.6143,-83.1664 321.099,-90.3591"/>
<text text-anchor="middle" x="347.5" y="-101" font-family="Helvetica,sans-Serif" font-size="10.00" fill="#000000"> +data</text>
</g>
</g>
</svg>
