<?xml version="1.0" encoding="UTF-8" standalone="no"?>
<!DOCTYPE svg PUBLIC "-//W3C//DTD SVG 1.1//EN"
 "http://www.w3.org/Graphics/SVG/1.1/DTD/svg11.dtd">
<!-- Generated by graphviz version 2.40.1 (20161225.0304)
 -->
<!-- Title: /home/travis/build/AliceO2Group/AliceO2/DataFormats/Detectors/FIT/FT0/include/DataFormatsFT0/RawEventData.h Pages: 1 -->
<!--zoomable 307 -->
<svg id="main" version="1.1" xmlns="http://www.w3.org/2000/svg" xmlns:xlink="http://www.w3.org/1999/xlink" xml:space="preserve" onload="init(evt)">
<style type="text/css"><![CDATA[
.edge:hover path { stroke: red; }
.edge:hover polygon { stroke: red; fill: red; }
]]></style>
<script type="text/javascript"><![CDATA[
var edges = document.getElementsByTagName('g');
if (edges && edges.length) {
  for (var i=0;i<edges.length;i++) {
    if (edges[i].id.substr(0,4)=='edge') {
      edges[i].setAttribute('class','edge');
    }
  }
}
]]></script>
        <defs>
                <circle id="rim" cx="0" cy="0" r="7"/>
                <circle id="rim2" cx="0" cy="0" r="3.5"/>
                <g id="zoomPlus">
                        <use xlink:href="#rim" fill="#404040">
                                <set attributeName="fill" to="#808080" begin="zoomplus.mouseover" end="zoomplus.mouseout"/>
                        </use>
                        <path d="M-4,0h8M0,-4v8" fill="none" stroke="white" stroke-width="1.5" pointer-events="none"/>
                </g>
                <g id="zoomMin">
                        <use xlink:href="#rim" fill="#404040">
                                <set attributeName="fill" to="#808080" begin="zoomminus.mouseover" end="zoomminus.mouseout"/>
                        </use>
                        <path d="M-4,0h8" fill="none" stroke="white" stroke-width="1.5" pointer-events="none"/>
                </g>
                <g id="dirArrow">
                        <path fill="none" stroke="white" stroke-width="1.5" d="M0,-3.0v7 M-2.5,-0.5L0,-3.0L2.5,-0.5"/>
                </g>
               <g id="resetDef">
                       <use xlink:href="#rim2" fill="#404040">
                               <set attributeName="fill" to="#808080" begin="reset.mouseover" end="reset.mouseout"/>
                       </use>
               </g>
        </defs>

<script type="text/javascript">
var viewWidth = 1593;
var viewHeight = 307;
var sectionId = 'dynsection-0';
</script>
<script xlink:href="../../svgpan.js"/>
<svg id="graph" class="graph">
<g id="viewport">
<title>/home/travis/build/AliceO2Group/AliceO2/DataFormats/Detectors/FIT/FT0/include/DataFormatsFT0/RawEventData.h</title>
<!-- Node0 -->
<g id="node1" class="node">
<title>Node0</title>
<polygon fill="#bfbfbf" stroke="#000000" points="1013.5,-235.5 1013.5,-298.5 1189.5,-298.5 1189.5,-235.5 1013.5,-235.5"/>
<text text-anchor="start" x="1021.5" y="-286.5" font-family="Helvetica,sans-Serif" font-size="10.00" fill="#000000">/home/travis/build</text>
<text text-anchor="start" x="1021.5" y="-275.5" font-family="Helvetica,sans-Serif" font-size="10.00" fill="#000000">/AliceO2Group/AliceO2</text>
<text text-anchor="start" x="1021.5" y="-264.5" font-family="Helvetica,sans-Serif" font-size="10.00" fill="#000000">/DataFormats/Detectors</text>
<text text-anchor="start" x="1021.5" y="-253.5" font-family="Helvetica,sans-Serif" font-size="10.00" fill="#000000">/FIT/FT0/include/DataFormatsFT0</text>
<text text-anchor="middle" x="1101.5" y="-242.5" font-family="Helvetica,sans-Serif" font-size="10.00" fill="#000000">/RawEventData.h</text>
</g>
<!-- Node1 -->
<g id="node2" class="node">
<title>Node1</title>
<g id="a_node2"><a xlink:href="../../d0/d0a/DataFormats_2Detectors_2FIT_2FT0_2include_2DataFormatsFT0_2Digit_8h.html" target="_top" xlink:title="DataFormatsFT0/Digit.h">
<polygon fill="none" stroke="#000000" points="656.5,-179.5 656.5,-198.5 788.5,-198.5 788.5,-179.5 656.5,-179.5"/>
<text text-anchor="middle" x="722.5" y="-186.5" font-family="Helvetica,sans-Serif" font-size="10.00" fill="#000000">DataFormatsFT0/Digit.h</text>
</a>
</g>
</g>
<!-- Node0&#45;&gt;Node1 -->
<g id="edge1" class="edge">
<title>Node0&#45;&gt;Node1</title>
<path fill="none" stroke="#191970" d="M1013.1197,-248.8109C940.8073,-233.9287 840.7128,-213.3287 778.8622,-200.5996"/>
<polygon fill="#191970" stroke="#191970" points="779.3998,-197.137 768.8995,-198.5492 777.9886,-203.9933 779.3998,-197.137"/>
</g>
<!-- Node2 -->
<g id="node3" class="node">
<title>Node2</title>
<g id="a_node3"><a xlink:href="../../d9/d80/InteractionRecord_8h.html" target="_top" xlink:title="CommonDataFormat/Interaction\lRecord.h">
<polygon fill="none" stroke="#000000" points="24.5,-112.5 24.5,-142.5 198.5,-142.5 198.5,-112.5 24.5,-112.5"/>
<text text-anchor="start" x="32.5" y="-130.5" font-family="Helvetica,sans-Serif" font-size="10.00" fill="#000000">CommonDataFormat/Interaction</text>
<text text-anchor="middle" x="111.5" y="-119.5" font-family="Helvetica,sans-Serif" font-size="10.00" fill="#000000">Record.h</text>
</a>
</g>
</g>
<!-- Node0&#45;&gt;Node2 -->
<g id="edge30" class="edge">
<title>Node0&#45;&gt;Node2</title>
<path fill="none" stroke="#191970" d="M1013.2163,-255.4175C854.4882,-234.4471 510.1557,-188.2913 208.8572,-143.1874"/>
<polygon fill="#191970" stroke="#191970" points="209.0161,-139.6722 198.6077,-141.651 207.9783,-146.5949 209.0161,-139.6722"/>
</g>
<!-- Node4 -->
<g id="node5" class="node">
<title>Node4</title>
<polygon fill="none" stroke="#bfbfbf" points="921,-.5 921,-19.5 980,-19.5 980,-.5 921,-.5"/>
<text text-anchor="middle" x="950.5" y="-7.5" font-family="Helvetica,sans-Serif" font-size="10.00" fill="#000000">Rtypes.h</text>
</g>
<!-- Node0&#45;&gt;Node4 -->
<g id="edge35" class="edge">
<title>Node0&#45;&gt;Node4</title>
<path fill="none" stroke="#191970" d="M1116.9279,-235.4214C1130.639,-202.4671 1145.4083,-150.3498 1123.5,-112 1094.9995,-62.1109 1031.5069,-34.1851 989.8809,-20.6188"/>
<polygon fill="#191970" stroke="#191970" points="990.9094,-17.2733 980.3205,-17.6289 988.82,-23.9542 990.9094,-17.2733"/>
</g>
<!-- Node14 -->
<g id="node15" class="node">
<title>Node14</title>
<g id="a_node15"><a xlink:href="../../dc/d44/FIT_2FT0_2include_2DataFormatsFT0_2ChannelData_8h.html" target="_top" xlink:title="DataFormatsFT0/ChannelData.h">
<polygon fill="none" stroke="#000000" points="864.5,-118 864.5,-137 1036.5,-137 1036.5,-118 864.5,-118"/>
<text text-anchor="middle" x="950.5" y="-125" font-family="Helvetica,sans-Serif" font-size="10.00" fill="#000000">DataFormatsFT0/ChannelData.h</text>
</a>
</g>
</g>
<!-- Node0&#45;&gt;Node14 -->
<g id="edge22" class="edge">
<title>Node0&#45;&gt;Node14</title>
<path fill="none" stroke="#191970" d="M1067.2358,-235.3453C1036.5904,-207.0339 992.8702,-166.6433 968.5628,-144.1871"/>
<polygon fill="#191970" stroke="#191970" points="970.8308,-141.5175 961.1105,-137.3024 966.0807,-146.6591 970.8308,-141.5175"/>
</g>
<!-- Node17 -->
<g id="node18" class="node">
<title>Node17</title>
<polygon fill="none" stroke="#bfbfbf" points="1054.5,-118 1054.5,-137 1114.5,-137 1114.5,-118 1054.5,-118"/>
<text text-anchor="middle" x="1084.5" y="-125" font-family="Helvetica,sans-Serif" font-size="10.00" fill="#000000">iostream</text>
</g>
<!-- Node0&#45;&gt;Node17 -->
<g id="edge32" class="edge">
<title>Node0&#45;&gt;Node17</title>
<path fill="none" stroke="#191970" d="M1097.6424,-235.3453C1094.3573,-208.3879 1089.7376,-170.4791 1086.9408,-147.5289"/>
<polygon fill="#191970" stroke="#191970" points="1090.3786,-146.8056 1085.6946,-137.3024 1083.43,-147.6524 1090.3786,-146.8056"/>
</g>
<!-- Node18 -->
<g id="node19" class="node">
<title>Node18</title>
<g id="a_node19"><a xlink:href="../../d4/d78/DataFormats_2Headers_2include_2Headers_2RAWDataHeader_8h.html" target="_top" xlink:title="Headers/RAWDataHeader.h">
<polygon fill="none" stroke="#000000" points="823,-179.5 823,-198.5 972,-198.5 972,-179.5 823,-179.5"/>
<text text-anchor="middle" x="897.5" y="-186.5" font-family="Helvetica,sans-Serif" font-size="10.00" fill="#000000">Headers/RAWDataHeader.h</text>
</a>
</g>
</g>
<!-- Node0&#45;&gt;Node18 -->
<g id="edge23" class="edge">
<title>Node0&#45;&gt;Node18</title>
<path fill="none" stroke="#191970" d="M1019.1134,-235.4992C988.7313,-223.8825 955.9364,-211.3433 932.0673,-202.2169"/>
<polygon fill="#191970" stroke="#191970" points="933.0077,-198.8294 922.4171,-198.5271 930.5076,-205.3678 933.0077,-198.8294"/>
</g>
<!-- Node19 -->
<g id="node20" class="node">
<title>Node19</title>
<g id="a_node20"><a xlink:href="../../df/d27/LookUpTable_8h.html" target="_top" xlink:title="DataFormatsFT0/LookUpTable.h">
<polygon fill="none" stroke="#000000" points="1149,-179.5 1149,-198.5 1320,-198.5 1320,-179.5 1149,-179.5"/>
<text text-anchor="middle" x="1234.5" y="-186.5" font-family="Helvetica,sans-Serif" font-size="10.00" fill="#000000">DataFormatsFT0/LookUpTable.h</text>
</a>
</g>
</g>
<!-- Node0&#45;&gt;Node19 -->
<g id="edge25" class="edge">
<title>Node0&#45;&gt;Node19</title>
<path fill="none" stroke="#191970" d="M1155.2128,-235.4992C1173.9597,-224.5049 1194.1154,-212.6842 1209.4135,-203.7124"/>
<polygon fill="#191970" stroke="#191970" points="1211.3996,-206.6052 1218.255,-198.5271 1207.8584,-200.5669 1211.3996,-206.6052"/>
</g>
<!-- Node22 -->
<g id="node23" class="node">
<title>Node22</title>
<g id="a_node23"><a xlink:href="../../dd/da4/Logger_8h.html" target="_top" xlink:title="Framework/Logger.h">
<polygon fill="none" stroke="#000000" points="1338,-179.5 1338,-198.5 1453,-198.5 1453,-179.5 1338,-179.5"/>
<text text-anchor="middle" x="1395.5" y="-186.5" font-family="Helvetica,sans-Serif" font-size="10.00" fill="#000000">Framework/Logger.h</text>
</a>
</g>
</g>
<!-- Node0&#45;&gt;Node22 -->
<g id="edge31" class="edge">
<title>Node0&#45;&gt;Node22</title>
<path fill="none" stroke="#191970" d="M1189.7097,-243.5974C1242.3227,-229.6389 1306.9655,-212.4887 1349.6008,-201.1773"/>
<polygon fill="#191970" stroke="#191970" points="1350.645,-204.5215 1359.413,-198.5741 1348.8499,-197.7555 1350.645,-204.5215"/>
</g>
<!-- Node23 -->
<g id="node24" class="node">
<title>Node23</title>
<polygon fill="none" stroke="#bfbfbf" points="1471,-179.5 1471,-198.5 1516,-198.5 1516,-179.5 1471,-179.5"/>
<text text-anchor="middle" x="1493.5" y="-186.5" font-family="Helvetica,sans-Serif" font-size="10.00" fill="#000000">utility</text>
</g>
<!-- Node0&#45;&gt;Node23 -->
<g id="edge33" class="edge">
<title>Node0&#45;&gt;Node23</title>
<path fill="none" stroke="#191970" d="M1189.7135,-253.5706C1260.8548,-242.0053 1363.534,-223.6576 1461.1729,-199.1221"/>
<polygon fill="#191970" stroke="#191970" points="1462.0775,-202.5035 1470.9088,-196.6504 1460.355,-195.7187 1462.0775,-202.5035"/>
</g>
<!-- Node24 -->
<g id="node25" class="node">
<title>Node24</title>
<polygon fill="none" stroke="#bfbfbf" points="1534.5,-179.5 1534.5,-198.5 1584.5,-198.5 1584.5,-179.5 1534.5,-179.5"/>
<text text-anchor="middle" x="1559.5" y="-186.5" font-family="Helvetica,sans-Serif" font-size="10.00" fill="#000000">cstring</text>
</g>
<!-- Node0&#45;&gt;Node24 -->
<g id="edge34" class="edge">
<title>Node0&#45;&gt;Node24</title>
<path fill="none" stroke="#191970" d="M1189.8249,-256.1636C1273.7563,-245.1062 1403.5493,-226.036 1524.5337,-199.0003"/>
<polygon fill="#191970" stroke="#191970" points="1525.3585,-202.4022 1534.3425,-196.7862 1523.8172,-195.574 1525.3585,-202.4022"/>
</g>
<!-- Node1&#45;&gt;Node2 -->
<g id="edge2" class="edge">
<title>Node1&#45;&gt;Node2</title>
<path fill="none" stroke="#191970" d="M656.4903,-184.6104C560.2713,-177.8778 375.6614,-163.701 208.5474,-143.0769"/>
<polygon fill="#191970" stroke="#191970" points="208.9379,-139.5986 198.5822,-141.8367 208.0733,-146.545 208.9379,-139.5986"/>
</g>
<!-- Node1&#45;&gt;Node4 -->
<g id="edge18" class="edge">
<title>Node1&#45;&gt;Node4</title>
<path fill="none" stroke="#191970" d="M722.5249,-179.3413C723.0592,-163.5321 726.2569,-131.9027 742.5,-112 785.8558,-58.8762 863.717,-31.2713 910.8946,-18.757"/>
<polygon fill="#191970" stroke="#191970" points="911.9331,-22.1043 920.7582,-16.2419 910.2035,-15.3213 911.9331,-22.1043"/>
</g>
<!-- Node9 -->
<g id="node10" class="node">
<title>Node9</title>
<g id="a_node10"><a xlink:href="../../de/d64/RangeReference_8h.html" target="_top" xlink:title="Class to refer to the 1st entry and N elements of some group in the continuous container. ">
<polygon fill="none" stroke="#000000" points="484.5,-118 484.5,-137 694.5,-137 694.5,-118 484.5,-118"/>
<text text-anchor="middle" x="589.5" y="-125" font-family="Helvetica,sans-Serif" font-size="10.00" fill="#000000">CommonDataFormat/RangeReference.h</text>
</a>
</g>
</g>
<!-- Node1&#45;&gt;Node9 -->
<g id="edge9" class="edge">
<title>Node1&#45;&gt;Node9</title>
<path fill="none" stroke="#191970" d="M701.7188,-179.3906C679.6606,-169.1908 644.595,-152.9763 619.5331,-141.3875"/>
<polygon fill="#191970" stroke="#191970" points="620.6809,-138.0622 610.1353,-137.0419 617.7429,-144.4158 620.6809,-138.0622"/>
</g>
<!-- Node10 -->
<g id="node11" class="node">
<title>Node10</title>
<g id="a_node11"><a xlink:href="../../df/d5d/common_2include_2CommonDataFormat_2TimeStamp_8h.html" target="_top" xlink:title="CommonDataFormat/TimeStamp.h">
<polygon fill="none" stroke="#000000" points="279,-118 279,-137 466,-137 466,-118 279,-118"/>
<text text-anchor="middle" x="372.5" y="-125" font-family="Helvetica,sans-Serif" font-size="10.00" fill="#000000">CommonDataFormat/TimeStamp.h</text>
</a>
</g>
</g>
<!-- Node1&#45;&gt;Node10 -->
<g id="edge11" class="edge">
<title>Node1&#45;&gt;Node10</title>
<path fill="none" stroke="#191970" d="M668.1965,-179.4581C605.6446,-168.4668 502.9799,-150.4272 436.5729,-138.7585"/>
<polygon fill="#191970" stroke="#191970" points="437.0978,-135.2972 426.6429,-137.0137 435.8863,-142.1916 437.0978,-135.2972"/>
</g>
<!-- Node1&#45;&gt;Node14 -->
<g id="edge16" class="edge">
<title>Node1&#45;&gt;Node14</title>
<path fill="none" stroke="#191970" d="M758.125,-179.3906C797.8631,-168.6718 862.2268,-151.3105 905.4349,-139.6557"/>
<polygon fill="#191970" stroke="#191970" points="906.3818,-143.0255 915.1252,-137.0419 904.5587,-136.267 906.3818,-143.0255"/>
</g>
<!-- Node15 -->
<g id="node16" class="node">
<title>Node15</title>
<polygon fill="none" stroke="#bfbfbf" points="751,-118 751,-137 808,-137 808,-118 751,-118"/>
<text text-anchor="middle" x="779.5" y="-125" font-family="Helvetica,sans-Serif" font-size="10.00" fill="#000000">gsl/span</text>
</g>
<!-- Node1&#45;&gt;Node15 -->
<g id="edge19" class="edge">
<title>Node1&#45;&gt;Node15</title>
<path fill="none" stroke="#191970" d="M731.4063,-179.3906C739.9728,-170.1478 753.1169,-155.966 763.5003,-144.7628"/>
<polygon fill="#191970" stroke="#191970" points="766.2375,-146.9584 770.4682,-137.2449 761.1035,-142.2 766.2375,-146.9584"/>
</g>
<!-- Node16 -->
<g id="node17" class="node">
<title>Node16</title>
<polygon fill="none" stroke="#bfbfbf" points="216.5,-118 216.5,-137 260.5,-137 260.5,-118 216.5,-118"/>
<text text-anchor="middle" x="238.5" y="-125" font-family="Helvetica,sans-Serif" font-size="10.00" fill="#000000">bitset</text>
</g>
<!-- Node1&#45;&gt;Node16 -->
<g id="edge20" class="edge">
<title>Node1&#45;&gt;Node16</title>
<path fill="none" stroke="#191970" d="M656.2931,-185.1055C548.8152,-178.3065 341.2646,-163.0613 270.5,-143 268.5847,-142.457 266.6441,-141.8049 264.715,-141.0797"/>
<polygon fill="#191970" stroke="#191970" points="265.9025,-137.7797 255.3355,-137.012 263.1174,-144.2018 265.9025,-137.7797"/>
</g>
<!-- Node1&#45;&gt;Node17 -->
<g id="edge21" class="edge">
<title>Node1&#45;&gt;Node17</title>
<path fill="none" stroke="#191970" d="M788.8009,-181.4353C868.7986,-171.9796 998.4234,-155.5173 1045.5,-143 1048.1163,-142.3043 1050.7947,-141.4841 1053.4621,-140.5901"/>
<polygon fill="#191970" stroke="#191970" points="1054.7551,-143.844 1062.943,-137.1202 1052.3492,-137.2704 1054.7551,-143.844"/>
</g>
<!-- Node3 -->
<g id="node4" class="node">
<title>Node3</title>
<g id="a_node4"><a xlink:href="../../d2/d45/GPUCommonRtypes_8h.html" target="_top" xlink:title="GPUCommonRtypes.h">
<polygon fill="none" stroke="#000000" points="491,-56.5 491,-75.5 616,-75.5 616,-56.5 491,-56.5"/>
<text text-anchor="middle" x="553.5" y="-63.5" font-family="Helvetica,sans-Serif" font-size="10.00" fill="#000000">GPUCommonRtypes.h</text>
</a>
</g>
</g>
<!-- Node2&#45;&gt;Node3 -->
<g id="edge3" class="edge">
<title>Node2&#45;&gt;Node3</title>
<path fill="none" stroke="#191970" d="M198.6045,-113.3275C201.6051,-112.874 204.577,-112.4302 207.5,-112 301.7842,-98.1238 410.8034,-83.9366 480.8719,-75.0572"/>
<polygon fill="#191970" stroke="#191970" points="481.4391,-78.5135 490.9209,-73.7863 480.5607,-71.5688 481.4391,-78.5135"/>
</g>
<!-- Node5 -->
<g id="node6" class="node">
<title>Node5</title>
<polygon fill="none" stroke="#bfbfbf" points="0,-56.5 0,-75.5 49,-75.5 49,-56.5 0,-56.5"/>
<text text-anchor="middle" x="24.5" y="-63.5" font-family="Helvetica,sans-Serif" font-size="10.00" fill="#000000">iosfwd</text>
</g>
<!-- Node2&#45;&gt;Node5 -->
<g id="edge5" class="edge">
<title>Node2&#45;&gt;Node5</title>
<path fill="none" stroke="#191970" d="M89.9944,-112.2977C76.7032,-102.9022 59.6943,-90.8787 46.3412,-81.4395"/>
<polygon fill="#191970" stroke="#191970" points="48.3561,-78.5776 38.17,-75.6633 44.3154,-84.2937 48.3561,-78.5776"/>
</g>
<!-- Node6 -->
<g id="node7" class="node">
<title>Node6</title>
<polygon fill="none" stroke="#bfbfbf" points="67,-56.5 67,-75.5 114,-75.5 114,-56.5 67,-56.5"/>
<text text-anchor="middle" x="90.5" y="-63.5" font-family="Helvetica,sans-Serif" font-size="10.00" fill="#000000">cmath</text>
</g>
<!-- Node2&#45;&gt;Node6 -->
<g id="edge6" class="edge">
<title>Node2&#45;&gt;Node6</title>
<path fill="none" stroke="#191970" d="M106.309,-112.2977C103.5458,-104.2055 100.1169,-94.1639 97.1595,-85.5029"/>
<polygon fill="#191970" stroke="#191970" points="100.4061,-84.1794 93.8624,-75.8469 93.7816,-86.4415 100.4061,-84.1794"/>
</g>
<!-- Node7 -->
<g id="node8" class="node">
<title>Node7</title>
<polygon fill="none" stroke="#bfbfbf" points="641.5,-56.5 641.5,-75.5 691.5,-75.5 691.5,-56.5 641.5,-56.5"/>
<text text-anchor="middle" x="666.5" y="-63.5" font-family="Helvetica,sans-Serif" font-size="10.00" fill="#000000">cstdint</text>
</g>
<!-- Node2&#45;&gt;Node7 -->
<g id="edge7" class="edge">
<title>Node2&#45;&gt;Node7</title>
<path fill="none" stroke="#191970" d="M198.5807,-113.1512C201.588,-112.7478 204.5679,-112.3625 207.5,-112 392.5569,-89.1235 441.4932,-106.1807 625.5,-76 627.4521,-75.6798 629.4486,-75.3159 631.4582,-74.9211"/>
<polygon fill="#191970" stroke="#191970" points="632.4423,-78.2891 641.473,-72.7486 630.9583,-71.4482 632.4423,-78.2891"/>
</g>
<!-- Node8 -->
<g id="node9" class="node">
<title>Node8</title>
<g id="a_node9"><a xlink:href="../../d4/dc6/LHCConstants_8h.html" target="_top" xlink:title="Header to collect LHC related constants. ">
<polygon fill="none" stroke="#000000" points="132.5,-56.5 132.5,-75.5 322.5,-75.5 322.5,-56.5 132.5,-56.5"/>
<text text-anchor="middle" x="227.5" y="-63.5" font-family="Helvetica,sans-Serif" font-size="10.00" fill="#000000">CommonConstants/LHCConstants.h</text>
</a>
</g>
</g>
<!-- Node2&#45;&gt;Node8 -->
<g id="edge8" class="edge">
<title>Node2&#45;&gt;Node8</title>
<path fill="none" stroke="#191970" d="M139.8768,-112.4554C158.3828,-102.644 182.3888,-89.9167 200.5931,-80.2653"/>
<polygon fill="#191970" stroke="#191970" points="202.3285,-83.3068 209.5241,-75.5303 199.0495,-77.1222 202.3285,-83.3068"/>
</g>
<!-- Node3&#45;&gt;Node4 -->
<g id="edge4" class="edge">
<title>Node3&#45;&gt;Node4</title>
<path fill="none" stroke="#191970" d="M616.4058,-57.1266C698.9673,-45.4807 841.4763,-25.3787 910.5973,-15.6286"/>
<polygon fill="#191970" stroke="#191970" points="911.2309,-19.074 920.644,-14.2114 910.2531,-12.1426 911.2309,-19.074"/>
</g>
<!-- Node9&#45;&gt;Node3 -->
<g id="edge10" class="edge">
<title>Node9&#45;&gt;Node3</title>
<path fill="none" stroke="#191970" d="M583.875,-117.8906C578.6747,-109.0068 570.8034,-95.5601 564.3767,-84.5811"/>
<polygon fill="#191970" stroke="#191970" points="567.2767,-82.6069 559.2043,-75.7449 561.2356,-86.1432 567.2767,-82.6069"/>
</g>
<!-- Node10&#45;&gt;Node3 -->
<g id="edge12" class="edge">
<title>Node10&#45;&gt;Node3</title>
<path fill="none" stroke="#191970" d="M400.7813,-117.8906C431.73,-107.3749 481.4942,-90.466 515.757,-78.8243"/>
<polygon fill="#191970" stroke="#191970" points="517.075,-82.073 525.4173,-75.5419 514.8229,-75.4452 517.075,-82.073"/>
</g>
<!-- Node11 -->
<g id="node12" class="node">
<title>Node11</title>
<g id="a_node12"><a xlink:href="../../df/d21/GPUCommonDef_8h.html" target="_top" xlink:title="GPUCommonDef.h">
<polygon fill="none" stroke="#000000" points="341,-56.5 341,-75.5 448,-75.5 448,-56.5 341,-56.5"/>
<text text-anchor="middle" x="394.5" y="-63.5" font-family="Helvetica,sans-Serif" font-size="10.00" fill="#000000">GPUCommonDef.h</text>
</a>
</g>
</g>
<!-- Node10&#45;&gt;Node11 -->
<g id="edge13" class="edge">
<title>Node10&#45;&gt;Node11</title>
<path fill="none" stroke="#191970" d="M375.9375,-117.8906C379.0513,-109.1862 383.732,-96.1015 387.614,-85.2494"/>
<polygon fill="#191970" stroke="#191970" points="390.9412,-86.3394 391.014,-75.7449 384.3503,-83.9817 390.9412,-86.3394"/>
</g>
<!-- Node12 -->
<g id="node13" class="node">
<title>Node12</title>
<g id="a_node13"><a xlink:href="../../d5/d93/GPUCommonDefSettings_8h.html" target="_top" xlink:title="GPUCommonDefSettings.h">
<polygon fill="none" stroke="#000000" points="243.5,-.5 243.5,-19.5 391.5,-19.5 391.5,-.5 243.5,-.5"/>
<text text-anchor="middle" x="317.5" y="-7.5" font-family="Helvetica,sans-Serif" font-size="10.00" fill="#000000">GPUCommonDefSettings.h</text>
</a>
</g>
</g>
<!-- Node11&#45;&gt;Node12 -->
<g id="edge14" class="edge">
<title>Node11&#45;&gt;Node12</title>
<path fill="none" stroke="#191970" d="M381.0876,-56.2455C369.4943,-47.814 352.5252,-35.4729 339.0322,-25.6598"/>
<polygon fill="#191970" stroke="#191970" points="340.9047,-22.6938 330.7587,-19.6427 336.7874,-28.355 340.9047,-22.6938"/>
</g>
<!-- Node13 -->
<g id="node14" class="node">
<title>Node13</title>
<g id="a_node14"><a xlink:href="../../da/d5a/GPUCommonDefAPI_8h.html" target="_top" xlink:title="GPUCommonDefAPI.h">
<polygon fill="none" stroke="#000000" points="409.5,-.5 409.5,-19.5 533.5,-19.5 533.5,-.5 409.5,-.5"/>
<text text-anchor="middle" x="471.5" y="-7.5" font-family="Helvetica,sans-Serif" font-size="10.00" fill="#000000">GPUCommonDefAPI.h</text>
</a>
</g>
</g>
<!-- Node11&#45;&gt;Node13 -->
<g id="edge15" class="edge">
<title>Node11&#45;&gt;Node13</title>
<path fill="none" stroke="#191970" d="M407.9124,-56.2455C419.5057,-47.814 436.4748,-35.4729 449.9678,-25.6598"/>
<polygon fill="#191970" stroke="#191970" points="452.2126,-28.355 458.2413,-19.6427 448.0953,-22.6938 452.2126,-28.355"/>
</g>
<!-- Node14&#45;&gt;Node4 -->
<g id="edge17" class="edge">
<title>Node14&#45;&gt;Node4</title>
<path fill="none" stroke="#191970" d="M950.5,-117.8845C950.5,-98.6913 950.5,-55.286 950.5,-29.7663"/>
<polygon fill="#191970" stroke="#191970" points="954.0001,-29.7483 950.5,-19.7484 947.0001,-29.7484 954.0001,-29.7483"/>
</g>
<!-- Node18&#45;&gt;Node7 -->
<g id="edge24" class="edge">
<title>Node18&#45;&gt;Node7</title>
<path fill="none" stroke="#191970" d="M888.533,-179.3046C871.2524,-160.8061 833.624,-121.469 817.5,-112 781.0887,-90.6171 733.8063,-78.3101 701.9296,-71.9"/>
<polygon fill="#191970" stroke="#191970" points="702.228,-68.3935 691.7478,-69.9476 700.9097,-75.2683 702.228,-68.3935"/>
</g>
<!-- Node19&#45;&gt;Node4 -->
<g id="edge26" class="edge">
<title>Node19&#45;&gt;Node4</title>
<path fill="none" stroke="#191970" d="M1226.1353,-179.1677C1218.6521,-170.1144 1207.6398,-156.1364 1199.5,-143 1176.7819,-106.3362 1190.4217,-82.6395 1156.5,-56 1131.0349,-36.0017 1042.5633,-21.6932 990.2076,-14.7488"/>
<polygon fill="#191970" stroke="#191970" points="990.6142,-11.2723 980.2474,-13.4586 989.7149,-18.2143 990.6142,-11.2723"/>
</g>
<!-- Node19&#45;&gt;Node17 -->
<g id="edge28" class="edge">
<title>Node19&#45;&gt;Node17</title>
<path fill="none" stroke="#191970" d="M1211.0625,-179.3906C1185.8547,-169.0554 1145.5847,-152.5447 1117.2523,-140.9284"/>
<polygon fill="#191970" stroke="#191970" points="1118.3532,-137.5971 1107.7729,-137.0419 1115.6977,-144.0739 1118.3532,-137.5971"/>
</g>
<!-- Node20 -->
<g id="node21" class="node">
<title>Node20</title>
<polygon fill="none" stroke="#bfbfbf" points="1208.5,-118 1208.5,-137 1260.5,-137 1260.5,-118 1208.5,-118"/>
<text text-anchor="middle" x="1234.5" y="-125" font-family="Helvetica,sans-Serif" font-size="10.00" fill="#000000">cassert</text>
</g>
<!-- Node19&#45;&gt;Node20 -->
<g id="edge27" class="edge">
<title>Node19&#45;&gt;Node20</title>
<path fill="none" stroke="#191970" d="M1234.5,-179.3906C1234.5,-170.8657 1234.5,-158.1392 1234.5,-147.4235"/>
<polygon fill="#191970" stroke="#191970" points="1238.0001,-147.2448 1234.5,-137.2449 1231.0001,-147.2449 1238.0001,-147.2448"/>
</g>
<!-- Node21 -->
<g id="node22" class="node">
<title>Node21</title>
<polygon fill="none" stroke="#bfbfbf" points="1279,-118 1279,-137 1320,-137 1320,-118 1279,-118"/>
<text text-anchor="middle" x="1299.5" y="-125" font-family="Helvetica,sans-Serif" font-size="10.00" fill="#000000">tuple</text>
</g>
<!-- Node19&#45;&gt;Node21 -->
<g id="edge29" class="edge">
<title>Node19&#45;&gt;Node21</title>
<path fill="none" stroke="#191970" d="M1244.6563,-179.3906C1254.5199,-170.0581 1269.7055,-155.6902 1281.5987,-144.4374"/>
<polygon fill="#191970" stroke="#191970" points="1284.3421,-146.6601 1289.2006,-137.2449 1279.5311,-141.5753 1284.3421,-146.6601"/>
</g>
</g>
</svg>
        <g id="navigator" transform="translate(0 0)" fill="#404254">
                <rect fill="#f2f5e9" fill-opacity="0.5" stroke="#606060" stroke-width=".5" x="0" y="0" width="60" height="60"/>
                <use id="zoomplus" xlink:href="#zoomPlus" x="17" y="9" onmousedown="handleZoom(evt,'in')"/>
                <use id="zoomminus" xlink:href="#zoomMin" x="42" y="9" onmousedown="handleZoom(evt,'out')"/>
                <use id="reset" xlink:href="#resetDef" x="30" y="36" onmousedown="handleReset()"/>
                <g id="arrowUp" xlink:href="#dirArrow" transform="translate(30 24)" onmousedown="handlePan(0,-1)">
                  <use xlink:href="#rim" fill="#404040">
                        <set attributeName="fill" to="#808080" begin="arrowUp.mouseover" end="arrowUp.mouseout"/>
                  </use>
                  <path fill="none" stroke="white" stroke-width="1.5" d="M0,-3.0v7 M-2.5,-0.5L0,-3.0L2.5,-0.5"/>
                </g>
                <g id="arrowRight" xlink:href="#dirArrow" transform="rotate(90) translate(36 -43)" onmousedown="handlePan(1,0)">
                  <use xlink:href="#rim" fill="#404040">
                        <set attributeName="fill" to="#808080" begin="arrowRight.mouseover" end="arrowRight.mouseout"/>
                  </use>
                  <path fill="none" stroke="white" stroke-width="1.5" d="M0,-3.0v7 M-2.5,-0.5L0,-3.0L2.5,-0.5"/>
                </g>
                <g id="arrowDown" xlink:href="#dirArrow" transform="rotate(180) translate(-30 -48)" onmousedown="handlePan(0,1)">
                  <use xlink:href="#rim" fill="#404040">
                        <set attributeName="fill" to="#808080" begin="arrowDown.mouseover" end="arrowDown.mouseout"/>
                  </use>
                  <path fill="none" stroke="white" stroke-width="1.5" d="M0,-3.0v7 M-2.5,-0.5L0,-3.0L2.5,-0.5"/>
                </g>
                <g id="arrowLeft" xlink:href="#dirArrow" transform="rotate(270) translate(-36 17)" onmousedown="handlePan(-1,0)">
                  <use xlink:href="#rim" fill="#404040">
                        <set attributeName="fill" to="#808080" begin="arrowLeft.mouseover" end="arrowLeft.mouseout"/>
                  </use>
                  <path fill="none" stroke="white" stroke-width="1.5" d="M0,-3.0v7 M-2.5,-0.5L0,-3.0L2.5,-0.5"/>
                </g>
        </g>
        <svg viewBox="0 0 15 15" width="100%" height="30px" preserveAspectRatio="xMaxYMin meet">
         <g id="arrow_out" transform="scale(0.3 0.3)">
          <a xlink:href="RawEventData_8h__incl_org.svg" target="_base">
           <rect id="button" ry="5" rx="5" y="6" x="6" height="38" width="38"
                fill="#f2f5e9" fill-opacity="0.5" stroke="#606060" stroke-width="1.0"/>
           <path id="arrow"
             d="M 11.500037,31.436501 C 11.940474,20.09759 22.043105,11.32322 32.158766,21.979434 L 37.068811,17.246167 C 37.068811,17.246167 37.088388,32 37.088388,32 L 22.160133,31.978069 C 22.160133,31.978069 26.997745,27.140456 26.997745,27.140456 C 18.528582,18.264221 13.291696,25.230495 11.500037,31.436501 z"
             style="fill:#404040;"/>
          </a>
         </g>
        </svg>
</svg>
