<?xml version="1.0" encoding="UTF-8" standalone="no"?>
<!DOCTYPE svg PUBLIC "-//W3C//DTD SVG 1.1//EN"
 "http://www.w3.org/Graphics/SVG/1.1/DTD/svg11.dtd">
<!-- Generated by graphviz version 2.40.1 (20161225.0304)
 -->
<!-- Title: /home/travis/build/AliceO2Group/AliceO2/Detectors/FIT/FT0/reconstruction/include/FT0Reconstruction/ReadRaw.h Pages: 1 -->
<svg width="1748pt" height="352pt"
 viewBox="0.00 0.00 1747.50 352.00" xmlns="http://www.w3.org/2000/svg" xmlns:xlink="http://www.w3.org/1999/xlink">
<g id="graph0" class="graph" transform="scale(1 1) rotate(0) translate(4 348)">
<title>/home/travis/build/AliceO2Group/AliceO2/Detectors/FIT/FT0/reconstruction/include/FT0Reconstruction/ReadRaw.h</title>
<!-- Node0 -->
<g id="node1" class="node">
<title>Node0</title>
<polygon fill="#bfbfbf" stroke="#000000" points="598,-291.5 598,-343.5 801,-343.5 801,-291.5 598,-291.5"/>
<text text-anchor="start" x="606" y="-331.5" font-family="Helvetica,sans-Serif" font-size="10.00" fill="#000000">/home/travis/build</text>
<text text-anchor="start" x="606" y="-320.5" font-family="Helvetica,sans-Serif" font-size="10.00" fill="#000000">/AliceO2Group/AliceO2</text>
<text text-anchor="start" x="606" y="-309.5" font-family="Helvetica,sans-Serif" font-size="10.00" fill="#000000">/Detectors/FIT/FT0/reconstruction</text>
<text text-anchor="middle" x="699.5" y="-298.5" font-family="Helvetica,sans-Serif" font-size="10.00" fill="#000000">/include/FT0Reconstruction/ReadRaw.h</text>
</g>
<!-- Node1 -->
<g id="node2" class="node">
<title>Node1</title>
<polygon fill="none" stroke="#bfbfbf" points="0,-235.5 0,-254.5 83,-254.5 83,-235.5 0,-235.5"/>
<text text-anchor="middle" x="41.5" y="-242.5" font-family="Helvetica,sans-Serif" font-size="10.00" fill="#000000">TStopwatch.h</text>
</g>
<!-- Node0&#45;&gt;Node1 -->
<g id="edge1" class="edge">
<title>Node0&#45;&gt;Node1</title>
<path fill="none" stroke="#191970" d="M597.9208,-309.8839C479.267,-300.3436 276.9201,-282.0765 93.3099,-254.9998"/>
<polygon fill="#191970" stroke="#191970" points="93.6009,-251.5047 83.195,-253.4963 92.5717,-258.4286 93.6009,-251.5047"/>
</g>
<!-- Node2 -->
<g id="node3" class="node">
<title>Node2</title>
<polygon fill="none" stroke="#bfbfbf" points="101.5,-235.5 101.5,-254.5 143.5,-254.5 143.5,-235.5 101.5,-235.5"/>
<text text-anchor="middle" x="122.5" y="-242.5" font-family="Helvetica,sans-Serif" font-size="10.00" fill="#000000">array</text>
</g>
<!-- Node0&#45;&gt;Node2 -->
<g id="edge2" class="edge">
<title>Node0&#45;&gt;Node2</title>
<path fill="none" stroke="#191970" d="M597.8396,-310.763C488.3445,-302.3501 309.3866,-285.2443 157.5,-255 156.2449,-254.7501 154.9694,-254.4771 153.6846,-254.1864"/>
<polygon fill="#191970" stroke="#191970" points="154.3887,-250.7543 143.8357,-251.6948 152.6719,-257.5405 154.3887,-250.7543"/>
</g>
<!-- Node3 -->
<g id="node4" class="node">
<title>Node3</title>
<polygon fill="none" stroke="#bfbfbf" points="351.5,-118 351.5,-137 395.5,-137 395.5,-118 351.5,-118"/>
<text text-anchor="middle" x="373.5" y="-125" font-family="Helvetica,sans-Serif" font-size="10.00" fill="#000000">bitset</text>
</g>
<!-- Node0&#45;&gt;Node3 -->
<g id="edge3" class="edge">
<title>Node0&#45;&gt;Node3</title>
<path fill="none" stroke="#191970" d="M597.9332,-309.7701C476.8153,-299.5013 287.9273,-279.7422 266.5,-255 231.4128,-214.4846 303.3318,-165.751 345.622,-141.9741"/>
<polygon fill="#191970" stroke="#191970" points="347.5655,-144.9 354.6497,-137.0219 344.1988,-138.7627 347.5655,-144.9"/>
</g>
<!-- Node4 -->
<g id="node5" class="node">
<title>Node4</title>
<polygon fill="none" stroke="#bfbfbf" points="1519.5,-118 1519.5,-137 1571.5,-137 1571.5,-118 1519.5,-118"/>
<text text-anchor="middle" x="1545.5" y="-125" font-family="Helvetica,sans-Serif" font-size="10.00" fill="#000000">cassert</text>
</g>
<!-- Node0&#45;&gt;Node4 -->
<g id="edge4" class="edge">
<title>Node0&#45;&gt;Node4</title>
<path fill="none" stroke="#191970" d="M801.1466,-310.8427C1017.4037,-295.6438 1507.4443,-255.3055 1556.5,-199 1568.9526,-184.7071 1562.8972,-162.413 1555.8295,-146.5213"/>
<polygon fill="#191970" stroke="#191970" points="1558.776,-144.5814 1551.2233,-137.1512 1552.494,-147.6696 1558.776,-144.5814"/>
</g>
<!-- Node5 -->
<g id="node6" class="node">
<title>Node5</title>
<polygon fill="none" stroke="#bfbfbf" points="276,-235.5 276,-254.5 331,-254.5 331,-235.5 276,-235.5"/>
<text text-anchor="middle" x="303.5" y="-242.5" font-family="Helvetica,sans-Serif" font-size="10.00" fill="#000000">fstream</text>
</g>
<!-- Node0&#45;&gt;Node5 -->
<g id="edge5" class="edge">
<title>Node0&#45;&gt;Node5</title>
<path fill="none" stroke="#191970" d="M597.6563,-302.3176C527.9871,-291.3327 433.388,-275.2464 341.1008,-254.9776"/>
<polygon fill="#191970" stroke="#191970" points="341.833,-251.555 331.3128,-252.81 340.3195,-258.3894 341.833,-251.555"/>
</g>
<!-- Node6 -->
<g id="node7" class="node">
<title>Node6</title>
<polygon fill="none" stroke="#bfbfbf" points="1152.5,-118 1152.5,-137 1212.5,-137 1212.5,-118 1152.5,-118"/>
<text text-anchor="middle" x="1182.5" y="-125" font-family="Helvetica,sans-Serif" font-size="10.00" fill="#000000">iostream</text>
</g>
<!-- Node0&#45;&gt;Node6 -->
<g id="edge6" class="edge">
<title>Node0&#45;&gt;Node6</title>
<path fill="none" stroke="#191970" d="M725.7893,-291.3382C759.8999,-259.1159 822.7493,-205.4137 887.5,-179 993.8861,-135.6021 1032.435,-172.427 1143.5,-143 1146.1169,-142.3066 1148.7957,-141.488 1151.4634,-140.5951"/>
<polygon fill="#191970" stroke="#191970" points="1152.7556,-143.8493 1160.9449,-137.1272 1150.351,-137.2753 1152.7556,-143.8493"/>
</g>
<!-- Node7 -->
<g id="node8" class="node">
<title>Node7</title>
<polygon fill="none" stroke="#bfbfbf" points="531.5,-235.5 531.5,-254.5 569.5,-254.5 569.5,-235.5 531.5,-235.5"/>
<text text-anchor="middle" x="550.5" y="-242.5" font-family="Helvetica,sans-Serif" font-size="10.00" fill="#000000">map</text>
</g>
<!-- Node0&#45;&gt;Node7 -->
<g id="edge7" class="edge">
<title>Node0&#45;&gt;Node7</title>
<path fill="none" stroke="#191970" d="M645.7076,-291.3258C623.1345,-280.3423 597.8063,-268.0182 578.9519,-258.844"/>
<polygon fill="#191970" stroke="#191970" points="580.2546,-255.5856 569.7312,-254.3574 577.1918,-261.88 580.2546,-255.5856"/>
</g>
<!-- Node8 -->
<g id="node9" class="node">
<title>Node8</title>
<polygon fill="none" stroke="#bfbfbf" points="587.5,-235.5 587.5,-254.5 631.5,-254.5 631.5,-235.5 587.5,-235.5"/>
<text text-anchor="middle" x="609.5" y="-242.5" font-family="Helvetica,sans-Serif" font-size="10.00" fill="#000000">string</text>
</g>
<!-- Node0&#45;&gt;Node8 -->
<g id="edge8" class="edge">
<title>Node0&#45;&gt;Node8</title>
<path fill="none" stroke="#191970" d="M667.0079,-291.3258C654.3291,-281.1123 640.2112,-269.7396 629.1366,-260.8184"/>
<polygon fill="#191970" stroke="#191970" points="631.3185,-258.0817 621.3353,-254.534 626.9272,-263.533 631.3185,-258.0817"/>
</g>
<!-- Node9 -->
<g id="node10" class="node">
<title>Node9</title>
<polygon fill="none" stroke="#bfbfbf" points="650,-235.5 650,-254.5 697,-254.5 697,-235.5 650,-235.5"/>
<text text-anchor="middle" x="673.5" y="-242.5" font-family="Helvetica,sans-Serif" font-size="10.00" fill="#000000">vector</text>
</g>
<!-- Node0&#45;&gt;Node9 -->
<g id="edge9" class="edge">
<title>Node0&#45;&gt;Node9</title>
<path fill="none" stroke="#191970" d="M690.1134,-291.3258C686.8815,-282.3139 683.326,-272.3995 680.3364,-264.063"/>
<polygon fill="#191970" stroke="#191970" points="683.5894,-262.7655 676.9191,-254.534 677.0003,-265.1285 683.5894,-262.7655"/>
</g>
<!-- Node10 -->
<g id="node11" class="node">
<title>Node10</title>
<g id="a_node11"><a xlink:href="../../d9/d80/InteractionRecord_8h.html" target="_top" xlink:title="CommonDataFormat/Interaction\lRecord.h">
<polygon fill="none" stroke="#000000" points="960.5,-112.5 960.5,-142.5 1134.5,-142.5 1134.5,-112.5 960.5,-112.5"/>
<text text-anchor="start" x="968.5" y="-130.5" font-family="Helvetica,sans-Serif" font-size="10.00" fill="#000000">CommonDataFormat/Interaction</text>
<text text-anchor="middle" x="1047.5" y="-119.5" font-family="Helvetica,sans-Serif" font-size="10.00" fill="#000000">Record.h</text>
</a>
</g>
</g>
<!-- Node0&#45;&gt;Node10 -->
<g id="edge10" class="edge">
<title>Node0&#45;&gt;Node10</title>
<path fill="none" stroke="#191970" d="M708.6451,-291.4892C721.2387,-259.682 747.0631,-206.6737 787.5,-179 794.5837,-174.1521 881.7597,-157.456 953.2439,-144.3724"/>
<polygon fill="#191970" stroke="#191970" points="954.0077,-147.7909 963.2166,-142.5518 952.7506,-140.9047 954.0077,-147.7909"/>
</g>
<!-- Node17 -->
<g id="node18" class="node">
<title>Node17</title>
<g id="a_node18"><a xlink:href="../../d0/d0a/DataFormats_2Detectors_2FIT_2FT0_2include_2DataFormatsFT0_2Digit_8h.html" target="_top" xlink:title="DataFormatsFT0/Digit.h">
<polygon fill="none" stroke="#000000" points="565.5,-179.5 565.5,-198.5 697.5,-198.5 697.5,-179.5 565.5,-179.5"/>
<text text-anchor="middle" x="631.5" y="-186.5" font-family="Helvetica,sans-Serif" font-size="10.00" fill="#000000">DataFormatsFT0/Digit.h</text>
</a>
</g>
</g>
<!-- Node0&#45;&gt;Node17 -->
<g id="edge17" class="edge">
<title>Node0&#45;&gt;Node17</title>
<path fill="none" stroke="#191970" d="M708.4738,-291.3649C712.7022,-274.2875 714.9886,-252.0708 705.5,-235 697.5422,-220.6832 683.0771,-210.2479 669.0334,-202.972"/>
<polygon fill="#191970" stroke="#191970" points="670.4712,-199.7801 659.9381,-198.6379 667.4599,-206.0993 670.4712,-199.7801"/>
</g>
<!-- Node23 -->
<g id="node24" class="node">
<title>Node23</title>
<g id="a_node24"><a xlink:href="../../dc/d44/FIT_2FT0_2include_2DataFormatsFT0_2ChannelData_8h.html" target="_top" xlink:title="DataFormatsFT0/ChannelData.h">
<polygon fill="none" stroke="#000000" points="85.5,-118 85.5,-137 257.5,-137 257.5,-118 85.5,-118"/>
<text text-anchor="middle" x="171.5" y="-125" font-family="Helvetica,sans-Serif" font-size="10.00" fill="#000000">DataFormatsFT0/ChannelData.h</text>
</a>
</g>
</g>
<!-- Node0&#45;&gt;Node23 -->
<g id="edge39" class="edge">
<title>Node0&#45;&gt;Node23</title>
<path fill="none" stroke="#191970" d="M597.9992,-313.0154C484.3899,-306.3245 308.9439,-290.4787 253.5,-255 213.2036,-229.2142 188.7895,-175.7627 178.0199,-146.9357"/>
<polygon fill="#191970" stroke="#191970" points="181.2062,-145.4497 174.5558,-137.2021 174.6114,-147.7968 181.2062,-145.4497"/>
</g>
<!-- Node25 -->
<g id="node26" class="node">
<title>Node25</title>
<g id="a_node26"><a xlink:href="../../d5/d65/DigitsTemp_8h.html" target="_top" xlink:title="DataFormatsFT0/DigitsTemp.h">
<polygon fill="none" stroke="#000000" points="349.5,-235.5 349.5,-254.5 513.5,-254.5 513.5,-235.5 349.5,-235.5"/>
<text text-anchor="middle" x="431.5" y="-242.5" font-family="Helvetica,sans-Serif" font-size="10.00" fill="#000000">DataFormatsFT0/DigitsTemp.h</text>
</a>
</g>
</g>
<!-- Node0&#45;&gt;Node25 -->
<g id="edge32" class="edge">
<title>Node0&#45;&gt;Node25</title>
<path fill="none" stroke="#191970" d="M603.1245,-291.4283C559.9646,-279.7525 511.1378,-266.5438 476.6299,-257.2086"/>
<polygon fill="#191970" stroke="#191970" points="477.4156,-253.7955 466.8486,-254.5626 475.5876,-260.5526 477.4156,-253.7955"/>
</g>
<!-- Node26 -->
<g id="node27" class="node">
<title>Node26</title>
<g id="a_node27"><a xlink:href="../../df/d27/LookUpTable_8h.html" target="_top" xlink:title="DataFormatsFT0/LookUpTable.h">
<polygon fill="none" stroke="#000000" points="1376,-179.5 1376,-198.5 1547,-198.5 1547,-179.5 1376,-179.5"/>
<text text-anchor="middle" x="1461.5" y="-186.5" font-family="Helvetica,sans-Serif" font-size="10.00" fill="#000000">DataFormatsFT0/LookUpTable.h</text>
</a>
</g>
</g>
<!-- Node0&#45;&gt;Node26 -->
<g id="edge40" class="edge">
<title>Node0&#45;&gt;Node26</title>
<path fill="none" stroke="#191970" d="M801.2772,-300.9204C877.601,-288.4376 984.6289,-270.8279 1078.5,-255 1190.5681,-236.1038 1320.9683,-213.5014 1397.0617,-200.2502"/>
<polygon fill="#191970" stroke="#191970" points="1397.7251,-203.6874 1406.976,-198.5231 1396.5237,-196.7913 1397.7251,-203.6874"/>
</g>
<!-- Node28 -->
<g id="node29" class="node">
<title>Node28</title>
<g id="a_node29"><a xlink:href="../../d1/dfe/RawEventData_8h.html" target="_top" xlink:title="DataFormatsFT0/RawEventData.h">
<polygon fill="none" stroke="#000000" points="838,-235.5 838,-254.5 1019,-254.5 1019,-235.5 838,-235.5"/>
<text text-anchor="middle" x="928.5" y="-242.5" font-family="Helvetica,sans-Serif" font-size="10.00" fill="#000000">DataFormatsFT0/RawEventData.h</text>
</a>
</g>
</g>
<!-- Node0&#45;&gt;Node28 -->
<g id="edge45" class="edge">
<title>Node0&#45;&gt;Node28</title>
<path fill="none" stroke="#191970" d="M781.8507,-291.4283C818.0968,-279.953 859.0202,-266.9969 888.4082,-257.6928"/>
<polygon fill="#191970" stroke="#191970" points="889.8182,-260.9177 898.2954,-254.5626 887.7054,-254.2442 889.8182,-260.9177"/>
</g>
<!-- Node29 -->
<g id="node30" class="node">
<title>Node29</title>
<g id="a_node30"><a xlink:href="../../d4/d78/DataFormats_2Headers_2include_2Headers_2RAWDataHeader_8h.html" target="_top" xlink:title="Headers/RAWDataHeader.h">
<polygon fill="none" stroke="#000000" points="1171,-179.5 1171,-198.5 1320,-198.5 1320,-179.5 1171,-179.5"/>
<text text-anchor="middle" x="1245.5" y="-186.5" font-family="Helvetica,sans-Serif" font-size="10.00" fill="#000000">Headers/RAWDataHeader.h</text>
</a>
</g>
</g>
<!-- Node0&#45;&gt;Node29 -->
<g id="edge57" class="edge">
<title>Node0&#45;&gt;Node29</title>
<path fill="none" stroke="#191970" d="M801.3136,-300.958C866.3812,-289.6834 952.3504,-273.4808 1027.5,-255 1091.6244,-239.2305 1164.8521,-215.9505 1208.021,-201.6685"/>
<polygon fill="#191970" stroke="#191970" points="1209.1582,-204.9788 1217.5432,-198.5026 1206.9497,-198.3363 1209.1582,-204.9788"/>
</g>
<!-- Node33 -->
<g id="node34" class="node">
<title>Node33</title>
<polygon fill="none" stroke="#bfbfbf" points="1604,-235.5 1604,-254.5 1669,-254.5 1669,-235.5 1604,-235.5"/>
<text text-anchor="middle" x="1636.5" y="-242.5" font-family="Helvetica,sans-Serif" font-size="10.00" fill="#000000">TBranch.h</text>
</g>
<!-- Node0&#45;&gt;Node33 -->
<g id="edge58" class="edge">
<title>Node0&#45;&gt;Node33</title>
<path fill="none" stroke="#191970" d="M801.087,-314.9738C966.8602,-309.82 1305.5523,-294.9782 1589.5,-255 1590.9715,-254.7928 1592.4657,-254.5661 1593.9724,-254.3235"/>
<polygon fill="#191970" stroke="#191970" points="1594.7611,-257.738 1603.9885,-252.5317 1593.5284,-250.8474 1594.7611,-257.738"/>
</g>
<!-- Node34 -->
<g id="node35" class="node">
<title>Node34</title>
<polygon fill="none" stroke="#bfbfbf" points="1687.5,-235.5 1687.5,-254.5 1739.5,-254.5 1739.5,-235.5 1687.5,-235.5"/>
<text text-anchor="middle" x="1713.5" y="-242.5" font-family="Helvetica,sans-Serif" font-size="10.00" fill="#000000">TTree.h</text>
</g>
<!-- Node0&#45;&gt;Node34 -->
<g id="edge59" class="edge">
<title>Node0&#45;&gt;Node34</title>
<path fill="none" stroke="#191970" d="M801.0861,-313.7798C1012.3272,-305.6002 1493.8389,-284.5335 1677.1914,-254.8419"/>
<polygon fill="#191970" stroke="#191970" points="1677.9853,-258.2576 1687.2669,-253.1486 1676.8251,-251.3544 1677.9853,-258.2576"/>
</g>
<!-- Node11 -->
<g id="node12" class="node">
<title>Node11</title>
<g id="a_node12"><a xlink:href="../../d2/d45/GPUCommonRtypes_8h.html" target="_top" xlink:title="GPUCommonRtypes.h">
<polygon fill="none" stroke="#000000" points="800,-56.5 800,-75.5 925,-75.5 925,-56.5 800,-56.5"/>
<text text-anchor="middle" x="862.5" y="-63.5" font-family="Helvetica,sans-Serif" font-size="10.00" fill="#000000">GPUCommonRtypes.h</text>
</a>
</g>
</g>
<!-- Node10&#45;&gt;Node11 -->
<g id="edge11" class="edge">
<title>Node10&#45;&gt;Node11</title>
<path fill="none" stroke="#191970" d="M1002.2439,-112.4554C971.1054,-102.104 930.2031,-88.5067 900.7045,-78.7004"/>
<polygon fill="#191970" stroke="#191970" points="901.762,-75.3637 891.1684,-75.5303 899.5537,-82.0063 901.762,-75.3637"/>
</g>
<!-- Node13 -->
<g id="node14" class="node">
<title>Node13</title>
<polygon fill="none" stroke="#bfbfbf" points="733,-56.5 733,-75.5 782,-75.5 782,-56.5 733,-56.5"/>
<text text-anchor="middle" x="757.5" y="-63.5" font-family="Helvetica,sans-Serif" font-size="10.00" fill="#000000">iosfwd</text>
</g>
<!-- Node10&#45;&gt;Node13 -->
<g id="edge13" class="edge">
<title>Node10&#45;&gt;Node13</title>
<path fill="none" stroke="#191970" d="M961.9565,-112.4977C914.2948,-103.6344 853.7306,-91.543 792.1798,-76.2718"/>
<polygon fill="#191970" stroke="#191970" points="792.8456,-72.8305 782.2947,-73.7936 791.1434,-79.6204 792.8456,-72.8305"/>
</g>
<!-- Node14 -->
<g id="node15" class="node">
<title>Node14</title>
<polygon fill="none" stroke="#bfbfbf" points="1153,-56.5 1153,-75.5 1200,-75.5 1200,-56.5 1153,-56.5"/>
<text text-anchor="middle" x="1176.5" y="-63.5" font-family="Helvetica,sans-Serif" font-size="10.00" fill="#000000">cmath</text>
</g>
<!-- Node10&#45;&gt;Node14 -->
<g id="edge14" class="edge">
<title>Node10&#45;&gt;Node14</title>
<path fill="none" stroke="#191970" d="M1079.057,-112.4554C1099.9201,-102.509 1127.0691,-89.5659 1147.4098,-79.8686"/>
<polygon fill="#191970" stroke="#191970" points="1148.9891,-82.9931 1156.5096,-75.5303 1145.9767,-76.6744 1148.9891,-82.9931"/>
</g>
<!-- Node15 -->
<g id="node16" class="node">
<title>Node15</title>
<polygon fill="none" stroke="#bfbfbf" points="1219.5,-56.5 1219.5,-75.5 1269.5,-75.5 1269.5,-56.5 1219.5,-56.5"/>
<text text-anchor="middle" x="1244.5" y="-63.5" font-family="Helvetica,sans-Serif" font-size="10.00" fill="#000000">cstdint</text>
</g>
<!-- Node10&#45;&gt;Node15 -->
<g id="edge15" class="edge">
<title>Node10&#45;&gt;Node15</title>
<path fill="none" stroke="#191970" d="M1095.6916,-112.4554C1130.947,-101.4493 1177.9562,-86.7738 1209.6258,-76.8871"/>
<polygon fill="#191970" stroke="#191970" points="1210.8322,-80.1772 1219.3348,-73.8561 1208.7462,-73.4952 1210.8322,-80.1772"/>
</g>
<!-- Node16 -->
<g id="node17" class="node">
<title>Node16</title>
<g id="a_node17"><a xlink:href="../../d4/dc6/LHCConstants_8h.html" target="_top" xlink:title="Header to collect LHC related constants. ">
<polygon fill="none" stroke="#000000" points="944.5,-56.5 944.5,-75.5 1134.5,-75.5 1134.5,-56.5 944.5,-56.5"/>
<text text-anchor="middle" x="1039.5" y="-63.5" font-family="Helvetica,sans-Serif" font-size="10.00" fill="#000000">CommonConstants/LHCConstants.h</text>
</a>
</g>
</g>
<!-- Node10&#45;&gt;Node16 -->
<g id="edge16" class="edge">
<title>Node10&#45;&gt;Node16</title>
<path fill="none" stroke="#191970" d="M1045.5225,-112.2977C1044.4814,-104.2945 1043.1923,-94.3843 1042.0742,-85.7889"/>
<polygon fill="#191970" stroke="#191970" points="1045.5417,-85.3119 1040.7809,-75.8469 1038.6002,-86.2149 1045.5417,-85.3119"/>
</g>
<!-- Node12 -->
<g id="node13" class="node">
<title>Node12</title>
<polygon fill="none" stroke="#bfbfbf" points="754,-.5 754,-19.5 813,-19.5 813,-.5 754,-.5"/>
<text text-anchor="middle" x="783.5" y="-7.5" font-family="Helvetica,sans-Serif" font-size="10.00" fill="#000000">Rtypes.h</text>
</g>
<!-- Node11&#45;&gt;Node12 -->
<g id="edge12" class="edge">
<title>Node11&#45;&gt;Node12</title>
<path fill="none" stroke="#191970" d="M848.7393,-56.2455C836.8448,-47.814 819.435,-35.4729 805.5915,-25.6598"/>
<polygon fill="#191970" stroke="#191970" points="807.2854,-22.5704 797.1031,-19.6427 803.2372,-28.2811 807.2854,-22.5704"/>
</g>
<!-- Node17&#45;&gt;Node3 -->
<g id="edge30" class="edge">
<title>Node17&#45;&gt;Node3</title>
<path fill="none" stroke="#191970" d="M565.2121,-180.2888C519.2776,-173.1169 457.1545,-161.1409 404.5,-143 402.8964,-142.4475 401.2701,-141.8288 399.6456,-141.1651"/>
<polygon fill="#191970" stroke="#191970" points="401.0823,-137.9736 390.5304,-137.0204 398.1848,-144.3458 401.0823,-137.9736"/>
</g>
<!-- Node17&#45;&gt;Node6 -->
<g id="edge31" class="edge">
<title>Node17&#45;&gt;Node6</title>
<path fill="none" stroke="#191970" d="M697.6481,-184.1273C826.2603,-174.4965 1101.1773,-153.086 1143.5,-143 1146.3571,-142.3191 1149.2815,-141.4683 1152.1812,-140.518"/>
<polygon fill="#191970" stroke="#191970" points="1153.6151,-143.7206 1161.8104,-137.0059 1151.2165,-137.1443 1153.6151,-143.7206"/>
</g>
<!-- Node17&#45;&gt;Node10 -->
<g id="edge18" class="edge">
<title>Node17&#45;&gt;Node10</title>
<path fill="none" stroke="#191970" d="M697.7391,-179.8189C760.2737,-171.0736 856.9494,-157.3543 950.4736,-143.1426"/>
<polygon fill="#191970" stroke="#191970" points="951.0306,-146.5983 960.3894,-141.6322 949.9764,-139.6781 951.0306,-146.5983"/>
</g>
<!-- Node17&#45;&gt;Node12 -->
<g id="edge28" class="edge">
<title>Node17&#45;&gt;Node12</title>
<path fill="none" stroke="#191970" d="M645.6314,-179.4182C657.2814,-170.9439 673.6049,-157.6729 684.5,-143 709.7615,-108.9792 697.2174,-89.2382 723.5,-56 733.1016,-43.8573 746.5908,-33.1398 758.3476,-25.1114"/>
<polygon fill="#191970" stroke="#191970" points="760.4514,-27.9178 766.9075,-19.5172 756.6218,-22.0582 760.4514,-27.9178"/>
</g>
<!-- Node18 -->
<g id="node19" class="node">
<title>Node18</title>
<g id="a_node19"><a xlink:href="../../de/d64/RangeReference_8h.html" target="_top" xlink:title="Class to refer to the 1st entry and N elements of some group in the continuous container. ">
<polygon fill="none" stroke="#000000" points="732.5,-118 732.5,-137 942.5,-137 942.5,-118 732.5,-118"/>
<text text-anchor="middle" x="837.5" y="-125" font-family="Helvetica,sans-Serif" font-size="10.00" fill="#000000">CommonDataFormat/RangeReference.h</text>
</a>
</g>
</g>
<!-- Node17&#45;&gt;Node18 -->
<g id="edge19" class="edge">
<title>Node17&#45;&gt;Node18</title>
<path fill="none" stroke="#191970" d="M663.6875,-179.3906C699.2133,-168.7846 756.5226,-151.6753 795.5441,-140.0257"/>
<polygon fill="#191970" stroke="#191970" points="796.9577,-143.2564 805.5385,-137.0419 794.9552,-136.5489 796.9577,-143.2564"/>
</g>
<!-- Node19 -->
<g id="node20" class="node">
<title>Node19</title>
<g id="a_node20"><a xlink:href="../../df/d5d/common_2include_2CommonDataFormat_2TimeStamp_8h.html" target="_top" xlink:title="CommonDataFormat/TimeStamp.h">
<polygon fill="none" stroke="#000000" points="414,-118 414,-137 601,-137 601,-118 414,-118"/>
<text text-anchor="middle" x="507.5" y="-125" font-family="Helvetica,sans-Serif" font-size="10.00" fill="#000000">CommonDataFormat/TimeStamp.h</text>
</a>
</g>
</g>
<!-- Node17&#45;&gt;Node19 -->
<g id="edge21" class="edge">
<title>Node17&#45;&gt;Node19</title>
<path fill="none" stroke="#191970" d="M612.125,-179.3906C591.6505,-169.2359 559.1558,-153.1196 535.8115,-141.5416"/>
<polygon fill="#191970" stroke="#191970" points="537.2528,-138.3496 526.7389,-137.0419 534.1425,-144.6207 537.2528,-138.3496"/>
</g>
<!-- Node17&#45;&gt;Node23 -->
<g id="edge26" class="edge">
<title>Node17&#45;&gt;Node23</title>
<path fill="none" stroke="#191970" d="M565.1033,-180.1231C482.5708,-169.0888 341.7654,-150.2637 252.8382,-138.3746"/>
<polygon fill="#191970" stroke="#191970" points="253.1697,-134.8878 242.794,-137.0317 252.242,-141.8261 253.1697,-134.8878"/>
</g>
<!-- Node24 -->
<g id="node25" class="node">
<title>Node24</title>
<polygon fill="none" stroke="#bfbfbf" points="619,-118 619,-137 676,-137 676,-118 619,-118"/>
<text text-anchor="middle" x="647.5" y="-125" font-family="Helvetica,sans-Serif" font-size="10.00" fill="#000000">gsl/span</text>
</g>
<!-- Node17&#45;&gt;Node24 -->
<g id="edge29" class="edge">
<title>Node17&#45;&gt;Node24</title>
<path fill="none" stroke="#191970" d="M634,-179.3906C636.2412,-170.776 639.5986,-157.8708 642.4045,-147.0858"/>
<polygon fill="#191970" stroke="#191970" points="645.8341,-147.804 644.9648,-137.2449 639.0596,-146.0414 645.8341,-147.804"/>
</g>
<!-- Node18&#45;&gt;Node11 -->
<g id="edge20" class="edge">
<title>Node18&#45;&gt;Node11</title>
<path fill="none" stroke="#191970" d="M841.4063,-117.8906C844.9446,-109.1862 850.2636,-96.1015 854.675,-85.2494"/>
<polygon fill="#191970" stroke="#191970" points="858.0152,-86.3268 858.5387,-75.7449 851.5305,-83.6907 858.0152,-86.3268"/>
</g>
<!-- Node19&#45;&gt;Node11 -->
<g id="edge22" class="edge">
<title>Node19&#45;&gt;Node11</title>
<path fill="none" stroke="#191970" d="M562.5792,-117.9581C626.0248,-106.9668 730.1561,-88.9272 797.5118,-77.2585"/>
<polygon fill="#191970" stroke="#191970" points="798.3279,-80.6694 807.5836,-75.5137 797.1329,-73.7721 798.3279,-80.6694"/>
</g>
<!-- Node20 -->
<g id="node21" class="node">
<title>Node20</title>
<g id="a_node21"><a xlink:href="../../df/d21/GPUCommonDef_8h.html" target="_top" xlink:title="GPUCommonDef.h">
<polygon fill="none" stroke="#000000" points="112,-56.5 112,-75.5 219,-75.5 219,-56.5 112,-56.5"/>
<text text-anchor="middle" x="165.5" y="-63.5" font-family="Helvetica,sans-Serif" font-size="10.00" fill="#000000">GPUCommonDef.h</text>
</a>
</g>
</g>
<!-- Node19&#45;&gt;Node20 -->
<g id="edge23" class="edge">
<title>Node19&#45;&gt;Node20</title>
<path fill="none" stroke="#191970" d="M454.4377,-117.9581C393.4411,-106.9894 293.4093,-89.0012 228.5085,-77.3305"/>
<polygon fill="#191970" stroke="#191970" points="228.867,-73.8389 218.4053,-75.5137 227.628,-80.7284 228.867,-73.8389"/>
</g>
<!-- Node21 -->
<g id="node22" class="node">
<title>Node21</title>
<g id="a_node22"><a xlink:href="../../d5/d93/GPUCommonDefSettings_8h.html" target="_top" xlink:title="GPUCommonDefSettings.h">
<polygon fill="none" stroke="#000000" points="14.5,-.5 14.5,-19.5 162.5,-19.5 162.5,-.5 14.5,-.5"/>
<text text-anchor="middle" x="88.5" y="-7.5" font-family="Helvetica,sans-Serif" font-size="10.00" fill="#000000">GPUCommonDefSettings.h</text>
</a>
</g>
</g>
<!-- Node20&#45;&gt;Node21 -->
<g id="edge24" class="edge">
<title>Node20&#45;&gt;Node21</title>
<path fill="none" stroke="#191970" d="M152.0876,-56.2455C140.4943,-47.814 123.5252,-35.4729 110.0322,-25.6598"/>
<polygon fill="#191970" stroke="#191970" points="111.9047,-22.6938 101.7587,-19.6427 107.7874,-28.355 111.9047,-22.6938"/>
</g>
<!-- Node22 -->
<g id="node23" class="node">
<title>Node22</title>
<g id="a_node23"><a xlink:href="../../da/d5a/GPUCommonDefAPI_8h.html" target="_top" xlink:title="GPUCommonDefAPI.h">
<polygon fill="none" stroke="#000000" points="180.5,-.5 180.5,-19.5 304.5,-19.5 304.5,-.5 180.5,-.5"/>
<text text-anchor="middle" x="242.5" y="-7.5" font-family="Helvetica,sans-Serif" font-size="10.00" fill="#000000">GPUCommonDefAPI.h</text>
</a>
</g>
</g>
<!-- Node20&#45;&gt;Node22 -->
<g id="edge25" class="edge">
<title>Node20&#45;&gt;Node22</title>
<path fill="none" stroke="#191970" d="M178.9124,-56.2455C190.5057,-47.814 207.4748,-35.4729 220.9678,-25.6598"/>
<polygon fill="#191970" stroke="#191970" points="223.2126,-28.355 229.2413,-19.6427 219.0953,-22.6938 223.2126,-28.355"/>
</g>
<!-- Node23&#45;&gt;Node12 -->
<g id="edge27" class="edge">
<title>Node23&#45;&gt;Node12</title>
<path fill="none" stroke="#191970" d="M180.9558,-117.999C197.584,-101.9728 233.8805,-69.9527 271.5,-56 358.0616,-23.8952 639.125,-13.6382 743.7661,-10.8845"/>
<polygon fill="#191970" stroke="#191970" points="744.0003,-14.3797 753.9081,-10.6267 743.8224,-7.382 744.0003,-14.3797"/>
</g>
<!-- Node25&#45;&gt;Node10 -->
<g id="edge33" class="edge">
<title>Node25&#45;&gt;Node10</title>
<path fill="none" stroke="#191970" d="M501.6273,-235.4633C570.1066,-225.7559 669.2796,-210.5359 706.5,-199 726.6324,-192.7603 729.3845,-185.294 749.5,-179 759.2354,-175.9539 867.0028,-157.6219 950.1722,-143.6887"/>
<polygon fill="#191970" stroke="#191970" points="950.8997,-147.1157 960.1846,-142.0127 949.744,-140.2118 950.8997,-147.1157"/>
</g>
<!-- Node25&#45;&gt;Node12 -->
<g id="edge38" class="edge">
<title>Node25&#45;&gt;Node12</title>
<path fill="none" stroke="#191970" d="M402.6154,-235.406C384.5038,-228.0425 361.9335,-216.1903 347.5,-199 322.0504,-168.6893 303.7637,-142.8955 328.5,-112 380.5431,-46.9984 642.7646,-20.5988 743.7615,-12.7361"/>
<polygon fill="#191970" stroke="#191970" points="744.1552,-16.2164 753.8619,-11.9701 743.6258,-9.2364 744.1552,-16.2164"/>
</g>
<!-- Node25&#45;&gt;Node13 -->
<g id="edge37" class="edge">
<title>Node25&#45;&gt;Node13</title>
<path fill="none" stroke="#191970" d="M416.5466,-235.4938C382.5026,-212.7387 304.9728,-153.9167 342.5,-112 367.6994,-83.853 627.0514,-71.044 722.4957,-67.2576"/>
<polygon fill="#191970" stroke="#191970" points="722.9206,-70.7439 732.7777,-66.8597 722.6498,-63.7491 722.9206,-70.7439"/>
</g>
<!-- Node25&#45;&gt;Node17 -->
<g id="edge35" class="edge">
<title>Node25&#45;&gt;Node17</title>
<path fill="none" stroke="#191970" d="M465.8812,-235.3733C499.5701,-225.9404 551.0482,-211.5265 587.6618,-201.2747"/>
<polygon fill="#191970" stroke="#191970" points="588.8815,-204.5679 597.5674,-198.5011 586.994,-197.8271 588.8815,-204.5679"/>
</g>
<!-- Node25&#45;&gt;Node19 -->
<g id="edge34" class="edge">
<title>Node25&#45;&gt;Node19</title>
<path fill="none" stroke="#191970" d="M437.7194,-235.3845C450.3564,-215.8471 479.2208,-171.2211 495.5919,-145.9106"/>
<polygon fill="#191970" stroke="#191970" points="498.7024,-147.5459 501.1947,-137.2484 492.8248,-143.7442 498.7024,-147.5459"/>
</g>
<!-- Node25&#45;&gt;Node23 -->
<g id="edge36" class="edge">
<title>Node25&#45;&gt;Node23</title>
<path fill="none" stroke="#191970" d="M382.318,-235.4317C349.8335,-228.0226 306.8891,-216.1095 271.5,-199 240.7027,-184.1104 209.2698,-159.8376 190.0696,-143.7679"/>
<polygon fill="#191970" stroke="#191970" points="192.2741,-141.048 182.3912,-137.2297 187.7359,-146.3776 192.2741,-141.048"/>
</g>
<!-- Node26&#45;&gt;Node4 -->
<g id="edge42" class="edge">
<title>Node26&#45;&gt;Node4</title>
<path fill="none" stroke="#191970" d="M1474.625,-179.3906C1487.94,-169.6421 1508.7594,-154.3994 1524.3947,-142.9521"/>
<polygon fill="#191970" stroke="#191970" points="1526.4661,-145.7734 1532.4672,-137.0419 1522.3309,-140.1253 1526.4661,-145.7734"/>
</g>
<!-- Node26&#45;&gt;Node6 -->
<g id="edge43" class="edge">
<title>Node26&#45;&gt;Node6</title>
<path fill="none" stroke="#191970" d="M1418.2124,-179.4581C1364.6898,-167.6601 1274.3254,-147.7411 1222.4104,-136.2974"/>
<polygon fill="#191970" stroke="#191970" points="1223.0813,-132.8614 1212.5623,-134.1266 1221.5744,-139.6973 1223.0813,-132.8614"/>
</g>
<!-- Node26&#45;&gt;Node12 -->
<g id="edge41" class="edge">
<title>Node26&#45;&gt;Node12</title>
<path fill="none" stroke="#191970" d="M1461.2507,-179.1023C1460.408,-163.5086 1456.8868,-132.8538 1442.5,-112 1417.6469,-75.9752 1402.7289,-70.6845 1361.5,-56 1261.955,-20.5452 936.9411,-12.3054 823.2233,-10.4882"/>
<polygon fill="#191970" stroke="#191970" points="823.256,-6.9884 813.2041,-10.3362 823.1498,-13.9876 823.256,-6.9884"/>
</g>
<!-- Node27 -->
<g id="node28" class="node">
<title>Node27</title>
<polygon fill="none" stroke="#bfbfbf" points="1392,-118 1392,-137 1433,-137 1433,-118 1392,-118"/>
<text text-anchor="middle" x="1412.5" y="-125" font-family="Helvetica,sans-Serif" font-size="10.00" fill="#000000">tuple</text>
</g>
<!-- Node26&#45;&gt;Node27 -->
<g id="edge44" class="edge">
<title>Node26&#45;&gt;Node27</title>
<path fill="none" stroke="#191970" d="M1453.8438,-179.3906C1446.5511,-170.2376 1435.3993,-156.2409 1426.5148,-145.09"/>
<polygon fill="#191970" stroke="#191970" points="1429.233,-142.8849 1420.2642,-137.2449 1423.7583,-147.247 1429.233,-142.8849"/>
</g>
<!-- Node28&#45;&gt;Node6 -->
<g id="edge53" class="edge">
<title>Node28&#45;&gt;Node6</title>
<path fill="none" stroke="#191970" d="M917.2688,-235.1273C902.9355,-221.3559 881.673,-196.1447 896.5,-179 932.7839,-137.0444 1089.9171,-157.341 1143.5,-143 1146.1152,-142.3001 1148.7927,-141.4768 1151.4596,-140.5807"/>
<polygon fill="#191970" stroke="#191970" points="1152.7542,-143.834 1160.9395,-137.1071 1150.3458,-137.2613 1152.7542,-143.834"/>
</g>
<!-- Node28&#45;&gt;Node10 -->
<g id="edge51" class="edge">
<title>Node28&#45;&gt;Node10</title>
<path fill="none" stroke="#191970" d="M906.6982,-235.4638C881.8715,-223.2562 846.7829,-201.0385 863.5,-179 874.8408,-164.0492 912.0965,-152.2544 950.1458,-143.7462"/>
<polygon fill="#191970" stroke="#191970" points="951.311,-147.0754 960.3474,-141.5441 949.834,-140.233 951.311,-147.0754"/>
</g>
<!-- Node28&#45;&gt;Node12 -->
<g id="edge56" class="edge">
<title>Node28&#45;&gt;Node12</title>
<path fill="none" stroke="#191970" d="M1019.4815,-237.6184C1134.6053,-227.8341 1319.2681,-210.4728 1329.5,-199 1335.4164,-192.3661 1331.2357,-187.7178 1329.5,-179 1317.9442,-120.9596 1326.1368,-91.1136 1278.5,-56 1242.1566,-29.2109 934.5094,-15.4824 823.3581,-11.3617"/>
<polygon fill="#191970" stroke="#191970" points="823.3514,-7.8592 813.2306,-10.9928 823.0965,-14.8546 823.3514,-7.8592"/>
</g>
<!-- Node28&#45;&gt;Node17 -->
<g id="edge46" class="edge">
<title>Node28&#45;&gt;Node17</title>
<path fill="none" stroke="#191970" d="M877.7813,-235.4369C826.3114,-225.7321 746.6298,-210.708 691.9216,-200.3926"/>
<polygon fill="#191970" stroke="#191970" points="692.4848,-196.9372 682.0095,-198.5237 691.1878,-203.816 692.4848,-196.9372"/>
</g>
<!-- Node28&#45;&gt;Node23 -->
<g id="edge47" class="edge">
<title>Node28&#45;&gt;Node23</title>
<path fill="none" stroke="#191970" d="M839.2207,-235.4971C763.733,-227.0945 652.8069,-213.8832 556.5,-199 439.2339,-180.8777 302.9044,-154.2302 228.0175,-139.1065"/>
<polygon fill="#191970" stroke="#191970" points="228.3625,-135.6054 217.8668,-137.0511 226.9732,-142.4662 228.3625,-135.6054"/>
</g>
<!-- Node28&#45;&gt;Node26 -->
<g id="edge50" class="edge">
<title>Node28&#45;&gt;Node26</title>
<path fill="none" stroke="#191970" d="M1019.2181,-235.4686C1115.5099,-225.3517 1267.0684,-209.4281 1365.3716,-199.0998"/>
<polygon fill="#191970" stroke="#191970" points="1366.0238,-202.5506 1375.6033,-198.0248 1365.2923,-195.5889 1366.0238,-202.5506"/>
</g>
<!-- Node28&#45;&gt;Node29 -->
<g id="edge48" class="edge">
<title>Node28&#45;&gt;Node29</title>
<path fill="none" stroke="#191970" d="M982.6341,-235.4369C1037.798,-225.6918 1123.3237,-210.5832 1181.7351,-200.2645"/>
<polygon fill="#191970" stroke="#191970" points="1182.3506,-203.71 1191.5892,-198.5237 1181.1328,-196.8167 1182.3506,-203.71"/>
</g>
<!-- Node30 -->
<g id="node31" class="node">
<title>Node30</title>
<g id="a_node31"><a xlink:href="../../dd/da4/Logger_8h.html" target="_top" xlink:title="Framework/Logger.h">
<polygon fill="none" stroke="#000000" points="1038,-179.5 1038,-198.5 1153,-198.5 1153,-179.5 1038,-179.5"/>
<text text-anchor="middle" x="1095.5" y="-186.5" font-family="Helvetica,sans-Serif" font-size="10.00" fill="#000000">Framework/Logger.h</text>
</a>
</g>
</g>
<!-- Node28&#45;&gt;Node30 -->
<g id="edge52" class="edge">
<title>Node28&#45;&gt;Node30</title>
<path fill="none" stroke="#191970" d="M957.2083,-235.3733C984.8577,-226.1016 1026.8576,-212.0178 1057.3166,-201.804"/>
<polygon fill="#191970" stroke="#191970" points="1058.7979,-204.9989 1067.1663,-198.5011 1056.5724,-198.3621 1058.7979,-204.9989"/>
</g>
<!-- Node31 -->
<g id="node32" class="node">
<title>Node31</title>
<polygon fill="none" stroke="#bfbfbf" points="906,-179.5 906,-198.5 951,-198.5 951,-179.5 906,-179.5"/>
<text text-anchor="middle" x="928.5" y="-186.5" font-family="Helvetica,sans-Serif" font-size="10.00" fill="#000000">utility</text>
</g>
<!-- Node28&#45;&gt;Node31 -->
<g id="edge54" class="edge">
<title>Node28&#45;&gt;Node31</title>
<path fill="none" stroke="#191970" d="M928.5,-235.2455C928.5,-227.9382 928.5,-217.6944 928.5,-208.7046"/>
<polygon fill="#191970" stroke="#191970" points="932.0001,-208.6426 928.5,-198.6427 925.0001,-208.6427 932.0001,-208.6426"/>
</g>
<!-- Node32 -->
<g id="node33" class="node">
<title>Node32</title>
<polygon fill="none" stroke="#bfbfbf" points="969.5,-179.5 969.5,-198.5 1019.5,-198.5 1019.5,-179.5 969.5,-179.5"/>
<text text-anchor="middle" x="994.5" y="-186.5" font-family="Helvetica,sans-Serif" font-size="10.00" fill="#000000">cstring</text>
</g>
<!-- Node28&#45;&gt;Node32 -->
<g id="edge55" class="edge">
<title>Node28&#45;&gt;Node32</title>
<path fill="none" stroke="#191970" d="M939.9963,-235.2455C949.7442,-226.9746 963.9259,-214.9416 975.3798,-205.2232"/>
<polygon fill="#191970" stroke="#191970" points="977.7747,-207.7813 983.1354,-198.6427 973.2459,-202.4437 977.7747,-207.7813"/>
</g>
<!-- Node29&#45;&gt;Node15 -->
<g id="edge49" class="edge">
<title>Node29&#45;&gt;Node15</title>
<path fill="none" stroke="#191970" d="M1245.4215,-179.3484C1245.258,-159.2295 1244.8777,-112.4608 1244.6602,-85.7098"/>
<polygon fill="#191970" stroke="#191970" points="1248.1594,-85.5779 1244.5781,-75.6068 1241.1596,-85.6349 1248.1594,-85.5779"/>
</g>
</g>
</svg>
