<?xml version="1.0" encoding="UTF-8" standalone="no"?>
<!DOCTYPE svg PUBLIC "-//W3C//DTD SVG 1.1//EN"
 "http://www.w3.org/Graphics/SVG/1.1/DTD/svg11.dtd">
<!-- Generated by graphviz version 2.40.1 (20161225.0304)
 -->
<!-- Title: o2::header::RAWDataHeaderV4 Pages: 1 -->
<!--zoomable 424 -->
<svg id="main" version="1.1" xmlns="http://www.w3.org/2000/svg" xmlns:xlink="http://www.w3.org/1999/xlink" xml:space="preserve" onload="init(evt)">
<style type="text/css"><![CDATA[
.edge:hover path { stroke: red; }
.edge:hover polygon { stroke: red; fill: red; }
]]></style>
<script type="text/javascript"><![CDATA[
var edges = document.getElementsByTagName('g');
if (edges && edges.length) {
  for (var i=0;i<edges.length;i++) {
    if (edges[i].id.substr(0,4)=='edge') {
      edges[i].setAttribute('class','edge');
    }
  }
}
]]></script>
        <defs>
                <circle id="rim" cx="0" cy="0" r="7"/>
                <circle id="rim2" cx="0" cy="0" r="3.5"/>
                <g id="zoomPlus">
                        <use xlink:href="#rim" fill="#404040">
                                <set attributeName="fill" to="#808080" begin="zoomplus.mouseover" end="zoomplus.mouseout"/>
                        </use>
                        <path d="M-4,0h8M0,-4v8" fill="none" stroke="white" stroke-width="1.5" pointer-events="none"/>
                </g>
                <g id="zoomMin">
                        <use xlink:href="#rim" fill="#404040">
                                <set attributeName="fill" to="#808080" begin="zoomminus.mouseover" end="zoomminus.mouseout"/>
                        </use>
                        <path d="M-4,0h8" fill="none" stroke="white" stroke-width="1.5" pointer-events="none"/>
                </g>
                <g id="dirArrow">
                        <path fill="none" stroke="white" stroke-width="1.5" d="M0,-3.0v7 M-2.5,-0.5L0,-3.0L2.5,-0.5"/>
                </g>
               <g id="resetDef">
                       <use xlink:href="#rim2" fill="#404040">
                               <set attributeName="fill" to="#808080" begin="reset.mouseover" end="reset.mouseout"/>
                       </use>
               </g>
        </defs>

<script type="text/javascript">
var viewWidth = 1331;
var viewHeight = 424;
var sectionId = 'dynsection-0';
</script>
<script xlink:href="../../svgpan.js"/>
<svg id="graph" class="graph">
<g id="viewport">
<title>o2::header::RAWDataHeaderV4</title>
<!-- Node1 -->
<g id="node1" class="node">
<title>Node1</title>
<polygon fill="#bfbfbf" stroke="#000000" points="480,-.5 480,-200.5 647,-200.5 647,-.5 480,-.5"/>
<text text-anchor="middle" x="563.5" y="-188.5" font-family="Helvetica,sans-Serif" font-size="10.00" fill="#000000">o2::header::RAWDataHeaderV4</text>
<polyline fill="none" stroke="#000000" points="480,-181.5 647,-181.5 "/>
<text text-anchor="start" x="488" y="-169.5" font-family="Helvetica,sans-Serif" font-size="10.00" fill="#000000">+ word0</text>
<text text-anchor="start" x="488" y="-158.5" font-family="Helvetica,sans-Serif" font-size="10.00" fill="#000000">+ blockLength</text>
<text text-anchor="start" x="488" y="-147.5" font-family="Helvetica,sans-Serif" font-size="10.00" fill="#000000">+ zero0</text>
<text text-anchor="start" x="488" y="-136.5" font-family="Helvetica,sans-Serif" font-size="10.00" fill="#000000">+ word1</text>
<text text-anchor="start" x="488" y="-125.5" font-family="Helvetica,sans-Serif" font-size="10.00" fill="#000000">+ word2</text>
<text text-anchor="start" x="488" y="-114.5" font-family="Helvetica,sans-Serif" font-size="10.00" fill="#000000">+ word3</text>
<text text-anchor="start" x="488" y="-103.5" font-family="Helvetica,sans-Serif" font-size="10.00" fill="#000000">+ word4</text>
<text text-anchor="start" x="488" y="-92.5" font-family="Helvetica,sans-Serif" font-size="10.00" fill="#000000">+ heartbeatBC</text>
<text text-anchor="start" x="488" y="-81.5" font-family="Helvetica,sans-Serif" font-size="10.00" fill="#000000">+ zero42</text>
<text text-anchor="start" x="488" y="-70.5" font-family="Helvetica,sans-Serif" font-size="10.00" fill="#000000">+ word5</text>
<text text-anchor="start" x="488" y="-59.5" font-family="Helvetica,sans-Serif" font-size="10.00" fill="#000000">+ word6</text>
<text text-anchor="start" x="488" y="-48.5" font-family="Helvetica,sans-Serif" font-size="10.00" fill="#000000">+ detectorField</text>
<text text-anchor="start" x="488" y="-37.5" font-family="Helvetica,sans-Serif" font-size="10.00" fill="#000000">+ stop</text>
<text text-anchor="start" x="488" y="-26.5" font-family="Helvetica,sans-Serif" font-size="10.00" fill="#000000">+ pageCnt</text>
<polyline fill="none" stroke="#000000" points="480,-19.5 647,-19.5 "/>
<text text-anchor="middle" x="563.5" y="-7.5" font-family="Helvetica,sans-Serif" font-size="10.00" fill="#000000"> </text>
</g>
<!-- Node2 -->
<g id="node2" class="node">
<title>Node2</title>
<polygon fill="none" stroke="#bfbfbf" points="0,-358.5 0,-415.5 113,-415.5 113,-358.5 0,-358.5"/>
<text text-anchor="middle" x="56.5" y="-403.5" font-family="Helvetica,sans-Serif" font-size="10.00" fill="#000000">anonymous:+@129</text>
<polyline fill="none" stroke="#bfbfbf" points="0,-396.5 113,-396.5 "/>
<text text-anchor="middle" x="56.5" y="-384.5" font-family="Helvetica,sans-Serif" font-size="10.00" fill="#000000"> </text>
<polyline fill="none" stroke="#bfbfbf" points="0,-377.5 113,-377.5 "/>
<text text-anchor="middle" x="56.5" y="-365.5" font-family="Helvetica,sans-Serif" font-size="10.00" fill="#000000"> </text>
</g>
<!-- Node2&#45;&gt;Node1 -->
<g id="edge1" class="edge">
<title>Node2&#45;&gt;Node1</title>
<path fill="none" stroke="#404040" d="M55.4982,-358.3726C55.8242,-321.0759 62.2348,-256.2455 99.5,-219 150.7385,-167.7887 347.2287,-131.3878 467.4751,-113.3643"/>
<polygon fill="none" stroke="#404040" points="467.7146,-113.3289 473.0645,-108.4938 479.5854,-111.5725 474.2355,-116.4076 467.7146,-113.3289"/>
<text text-anchor="middle" x="119.5" y="-277" font-family="Helvetica,sans-Serif" font-size="10.00" fill="#000000"> +@129</text>
</g>
<!-- Node3 -->
<g id="node3" class="node">
<title>Node3</title>
<g id="a_node3"><a xlink:href="../../d6/d30/classuint64__t.html" target="_top" xlink:title="{uint64_t\n||}">
<polygon fill="none" stroke="#000000" points="131.5,-358.5 131.5,-415.5 187.5,-415.5 187.5,-358.5 131.5,-358.5"/>
<text text-anchor="middle" x="159.5" y="-403.5" font-family="Helvetica,sans-Serif" font-size="10.00" fill="#000000">uint64_t</text>
<polyline fill="none" stroke="#000000" points="131.5,-396.5 187.5,-396.5 "/>
<text text-anchor="middle" x="159.5" y="-384.5" font-family="Helvetica,sans-Serif" font-size="10.00" fill="#000000"> </text>
<polyline fill="none" stroke="#000000" points="131.5,-377.5 187.5,-377.5 "/>
<text text-anchor="middle" x="159.5" y="-365.5" font-family="Helvetica,sans-Serif" font-size="10.00" fill="#000000"> </text>
</a>
</g>
</g>
<!-- Node3&#45;&gt;Node1 -->
<g id="edge2" class="edge">
<title>Node3&#45;&gt;Node1</title>
<path fill="none" stroke="#404040" d="M151.103,-358.4028C142.3023,-322.0255 133.6231,-259.1207 164.5,-219 201.5256,-170.8897 361.833,-134.8848 467.641,-115.8201"/>
<polygon fill="none" stroke="#404040" points="467.8064,-115.7908 473.0142,-110.8029 479.6214,-113.6916 474.4136,-118.6795 467.8064,-115.7908"/>
<text text-anchor="middle" x="196.5" y="-332" font-family="Helvetica,sans-Serif" font-size="10.00" fill="#000000"> +word7</text>
<text text-anchor="middle" x="196.5" y="-321" font-family="Helvetica,sans-Serif" font-size="10.00" fill="#000000">+triggerType</text>
<text text-anchor="middle" x="196.5" y="-310" font-family="Helvetica,sans-Serif" font-size="10.00" fill="#000000">+zero6</text>
<text text-anchor="middle" x="196.5" y="-299" font-family="Helvetica,sans-Serif" font-size="10.00" fill="#000000">+par</text>
<text text-anchor="middle" x="196.5" y="-288" font-family="Helvetica,sans-Serif" font-size="10.00" fill="#000000">+feeId</text>
<text text-anchor="middle" x="196.5" y="-277" font-family="Helvetica,sans-Serif" font-size="10.00" fill="#000000">+priority</text>
<text text-anchor="middle" x="196.5" y="-266" font-family="Helvetica,sans-Serif" font-size="10.00" fill="#000000">+headerSize</text>
<text text-anchor="middle" x="196.5" y="-255" font-family="Helvetica,sans-Serif" font-size="10.00" fill="#000000">+version</text>
<text text-anchor="middle" x="196.5" y="-244" font-family="Helvetica,sans-Serif" font-size="10.00" fill="#000000">+triggerBC</text>
<text text-anchor="middle" x="196.5" y="-233" font-family="Helvetica,sans-Serif" font-size="10.00" fill="#000000">+zero41</text>
<text text-anchor="middle" x="196.5" y="-222" font-family="Helvetica,sans-Serif" font-size="10.00" fill="#000000">...</text>
</g>
<!-- Node4 -->
<g id="node4" class="node">
<title>Node4</title>
<polygon fill="none" stroke="#bfbfbf" points="207.5,-358.5 207.5,-415.5 263.5,-415.5 263.5,-358.5 207.5,-358.5"/>
<text text-anchor="middle" x="235.5" y="-403.5" font-family="Helvetica,sans-Serif" font-size="10.00" fill="#000000">uint16_t</text>
<polyline fill="none" stroke="#bfbfbf" points="207.5,-396.5 263.5,-396.5 "/>
<text text-anchor="middle" x="235.5" y="-384.5" font-family="Helvetica,sans-Serif" font-size="10.00" fill="#000000"> </text>
<polyline fill="none" stroke="#bfbfbf" points="207.5,-377.5 263.5,-377.5 "/>
<text text-anchor="middle" x="235.5" y="-365.5" font-family="Helvetica,sans-Serif" font-size="10.00" fill="#000000"> </text>
</g>
<!-- Node4&#45;&gt;Node1 -->
<g id="edge3" class="edge">
<title>Node4&#45;&gt;Node1</title>
<path fill="none" stroke="#404040" d="M233.5606,-358.3615C231.3057,-316.2716 229.6903,-240.3777 245.5,-219 272.7826,-182.1087 384.5843,-146.2421 467.9583,-123.8097"/>
<polygon fill="none" stroke="#404040" points="468.1836,-123.7499 472.9546,-118.3427 479.7808,-120.667 475.0099,-126.0742 468.1836,-123.7499"/>
<text text-anchor="middle" x="264" y="-277" font-family="Helvetica,sans-Serif" font-size="10.00" fill="#000000"> +cruID</text>
</g>
<!-- Node5 -->
<g id="node5" class="node">
<title>Node5</title>
<polygon fill="none" stroke="#bfbfbf" points="281.5,-358.5 281.5,-415.5 331.5,-415.5 331.5,-358.5 281.5,-358.5"/>
<text text-anchor="middle" x="306.5" y="-403.5" font-family="Helvetica,sans-Serif" font-size="10.00" fill="#000000">uint8_t</text>
<polyline fill="none" stroke="#bfbfbf" points="281.5,-396.5 331.5,-396.5 "/>
<text text-anchor="middle" x="306.5" y="-384.5" font-family="Helvetica,sans-Serif" font-size="10.00" fill="#000000"> </text>
<polyline fill="none" stroke="#bfbfbf" points="281.5,-377.5 331.5,-377.5 "/>
<text text-anchor="middle" x="306.5" y="-365.5" font-family="Helvetica,sans-Serif" font-size="10.00" fill="#000000"> </text>
</g>
<!-- Node5&#45;&gt;Node1 -->
<g id="edge4" class="edge">
<title>Node5&#45;&gt;Node1</title>
<path fill="none" stroke="#404040" d="M296.976,-358.2368C287.042,-322.5312 276.3575,-261.1993 303.5,-219 339.6516,-162.7938 409.7568,-132.9274 468.0682,-117.2438"/>
<polygon fill="none" stroke="#404040" points="468.3132,-117.1811 473.1316,-111.8161 479.9371,-114.2003 475.1188,-119.5653 468.3132,-117.1811"/>
<text text-anchor="middle" x="343.5" y="-288" font-family="Helvetica,sans-Serif" font-size="10.00" fill="#000000"> +linkID</text>
<text text-anchor="middle" x="343.5" y="-277" font-family="Helvetica,sans-Serif" font-size="10.00" fill="#000000">+endPointID</text>
<text text-anchor="middle" x="343.5" y="-266" font-family="Helvetica,sans-Serif" font-size="10.00" fill="#000000">+packetCounter</text>
</g>
<!-- Node6 -->
<g id="node6" class="node">
<title>Node6</title>
<g id="a_node6"><a xlink:href="../../d3/d87/classuint32__t.html" target="_top" xlink:title="{uint32_t\n||}">
<polygon fill="none" stroke="#000000" points="349.5,-358.5 349.5,-415.5 405.5,-415.5 405.5,-358.5 349.5,-358.5"/>
<text text-anchor="middle" x="377.5" y="-403.5" font-family="Helvetica,sans-Serif" font-size="10.00" fill="#000000">uint32_t</text>
<polyline fill="none" stroke="#000000" points="349.5,-396.5 405.5,-396.5 "/>
<text text-anchor="middle" x="377.5" y="-384.5" font-family="Helvetica,sans-Serif" font-size="10.00" fill="#000000"> </text>
<polyline fill="none" stroke="#000000" points="349.5,-377.5 405.5,-377.5 "/>
<text text-anchor="middle" x="377.5" y="-365.5" font-family="Helvetica,sans-Serif" font-size="10.00" fill="#000000"> </text>
</a>
</g>
</g>
<!-- Node6&#45;&gt;Node1 -->
<g id="edge5" class="edge">
<title>Node6&#45;&gt;Node1</title>
<path fill="none" stroke="#404040" d="M383.8806,-358.2161C385.1403,-352.2084 386.4087,-345.9065 387.5,-340 397.3902,-286.4692 378.5122,-265.6909 406.5,-219 422.0085,-193.1278 445.5061,-171.0018 469.6334,-153.117"/>
<polygon fill="none" stroke="#404040" points="469.8645,-152.9516 472.4154,-146.2068 479.6226,-145.9674 477.0716,-152.7122 469.8645,-152.9516"/>
<text text-anchor="middle" x="448" y="-293.5" font-family="Helvetica,sans-Serif" font-size="10.00" fill="#000000"> +heartbeatOrbit</text>
<text text-anchor="middle" x="448" y="-282.5" font-family="Helvetica,sans-Serif" font-size="10.00" fill="#000000">+triggerOrbit</text>
<text text-anchor="middle" x="448" y="-271.5" font-family="Helvetica,sans-Serif" font-size="10.00" fill="#000000">+memorySize</text>
<text text-anchor="middle" x="448" y="-260.5" font-family="Helvetica,sans-Serif" font-size="10.00" fill="#000000">+offsetToNext</text>
</g>
<!-- Node7 -->
<g id="node7" class="node">
<title>Node7</title>
<polygon fill="none" stroke="#bfbfbf" points="424,-358.5 424,-415.5 537,-415.5 537,-358.5 424,-358.5"/>
<text text-anchor="middle" x="480.5" y="-403.5" font-family="Helvetica,sans-Serif" font-size="10.00" fill="#000000">anonymous:+@121</text>
<polyline fill="none" stroke="#bfbfbf" points="424,-396.5 537,-396.5 "/>
<text text-anchor="middle" x="480.5" y="-384.5" font-family="Helvetica,sans-Serif" font-size="10.00" fill="#000000"> </text>
<polyline fill="none" stroke="#bfbfbf" points="424,-377.5 537,-377.5 "/>
<text text-anchor="middle" x="480.5" y="-365.5" font-family="Helvetica,sans-Serif" font-size="10.00" fill="#000000"> </text>
</g>
<!-- Node7&#45;&gt;Node1 -->
<g id="edge6" class="edge">
<title>Node7&#45;&gt;Node1</title>
<path fill="none" stroke="#404040" d="M488.7618,-358.4819C498.6367,-324.3957 515.7575,-265.2979 531.1229,-212.2594"/>
<polygon fill="none" stroke="#404040" points="531.1341,-212.2204 528.9617,-205.3443 534.4734,-200.6944 536.6458,-207.5705 531.1341,-212.2204"/>
<text text-anchor="middle" x="546.5" y="-277" font-family="Helvetica,sans-Serif" font-size="10.00" fill="#000000"> +@121</text>
</g>
<!-- Node8 -->
<g id="node8" class="node">
<title>Node8</title>
<polygon fill="none" stroke="#bfbfbf" points="555,-358.5 555,-415.5 668,-415.5 668,-358.5 555,-358.5"/>
<text text-anchor="middle" x="611.5" y="-403.5" font-family="Helvetica,sans-Serif" font-size="10.00" fill="#000000">anonymous:+@131</text>
<polyline fill="none" stroke="#bfbfbf" points="555,-396.5 668,-396.5 "/>
<text text-anchor="middle" x="611.5" y="-384.5" font-family="Helvetica,sans-Serif" font-size="10.00" fill="#000000"> </text>
<polyline fill="none" stroke="#bfbfbf" points="555,-377.5 668,-377.5 "/>
<text text-anchor="middle" x="611.5" y="-365.5" font-family="Helvetica,sans-Serif" font-size="10.00" fill="#000000"> </text>
</g>
<!-- Node8&#45;&gt;Node1 -->
<g id="edge7" class="edge">
<title>Node8&#45;&gt;Node1</title>
<path fill="none" stroke="#404040" d="M606.7221,-358.4819C601.0233,-324.4672 591.1516,-265.5456 582.28,-212.593"/>
<polygon fill="none" stroke="#404040" points="582.2694,-212.5294 577.3329,-207.2729 580.2865,-200.6944 585.223,-205.9509 582.2694,-212.5294"/>
<text text-anchor="middle" x="622.5" y="-277" font-family="Helvetica,sans-Serif" font-size="10.00" fill="#000000"> +@131</text>
</g>
<!-- Node9 -->
<g id="node9" class="node">
<title>Node9</title>
<polygon fill="none" stroke="#bfbfbf" points="686,-358.5 686,-415.5 799,-415.5 799,-358.5 686,-358.5"/>
<text text-anchor="middle" x="742.5" y="-403.5" font-family="Helvetica,sans-Serif" font-size="10.00" fill="#000000">anonymous:+@123</text>
<polyline fill="none" stroke="#bfbfbf" points="686,-396.5 799,-396.5 "/>
<text text-anchor="middle" x="742.5" y="-384.5" font-family="Helvetica,sans-Serif" font-size="10.00" fill="#000000"> </text>
<polyline fill="none" stroke="#bfbfbf" points="686,-377.5 799,-377.5 "/>
<text text-anchor="middle" x="742.5" y="-365.5" font-family="Helvetica,sans-Serif" font-size="10.00" fill="#000000"> </text>
</g>
<!-- Node9&#45;&gt;Node1 -->
<g id="edge8" class="edge">
<title>Node9&#45;&gt;Node1</title>
<path fill="none" stroke="#404040" d="M727.144,-358.2911C708.8101,-324.4618 676.8103,-266.8045 646.5,-219 644.7631,-216.2606 642.9902,-213.496 641.1893,-210.7157"/>
<polygon fill="none" stroke="#404040" points="641.1369,-210.6355 634.503,-207.8084 634.5612,-200.5975 641.1951,-203.4246 641.1369,-210.6355"/>
<text text-anchor="middle" x="735.5" y="-277" font-family="Helvetica,sans-Serif" font-size="10.00" fill="#000000"> +@123</text>
</g>
<!-- Node10 -->
<g id="node10" class="node">
<title>Node10</title>
<polygon fill="none" stroke="#bfbfbf" points="817,-358.5 817,-415.5 930,-415.5 930,-358.5 817,-358.5"/>
<text text-anchor="middle" x="873.5" y="-403.5" font-family="Helvetica,sans-Serif" font-size="10.00" fill="#000000">anonymous:+@133</text>
<polyline fill="none" stroke="#bfbfbf" points="817,-396.5 930,-396.5 "/>
<text text-anchor="middle" x="873.5" y="-384.5" font-family="Helvetica,sans-Serif" font-size="10.00" fill="#000000"> </text>
<polyline fill="none" stroke="#bfbfbf" points="817,-377.5 930,-377.5 "/>
<text text-anchor="middle" x="873.5" y="-365.5" font-family="Helvetica,sans-Serif" font-size="10.00" fill="#000000"> </text>
</g>
<!-- Node10&#45;&gt;Node1 -->
<g id="edge9" class="edge">
<title>Node10&#45;&gt;Node1</title>
<path fill="none" stroke="#404040" d="M859.104,-358.3977C840.033,-322.5817 803.6055,-260.8525 759.5,-219 729.7004,-190.7227 692.0316,-165.9694 657.6982,-146.5012"/>
<polygon fill="none" stroke="#404040" points="657.6452,-146.4717 650.457,-147.0455 647.1625,-140.6309 654.3508,-140.0571 657.6452,-146.4717"/>
<text text-anchor="middle" x="867.5" y="-277" font-family="Helvetica,sans-Serif" font-size="10.00" fill="#000000"> +@133</text>
</g>
<!-- Node11 -->
<g id="node11" class="node">
<title>Node11</title>
<polygon fill="none" stroke="#bfbfbf" points="948,-358.5 948,-415.5 1061,-415.5 1061,-358.5 948,-358.5"/>
<text text-anchor="middle" x="1004.5" y="-403.5" font-family="Helvetica,sans-Serif" font-size="10.00" fill="#000000">anonymous:+@125</text>
<polyline fill="none" stroke="#bfbfbf" points="948,-396.5 1061,-396.5 "/>
<text text-anchor="middle" x="1004.5" y="-384.5" font-family="Helvetica,sans-Serif" font-size="10.00" fill="#000000"> </text>
<polyline fill="none" stroke="#bfbfbf" points="948,-377.5 1061,-377.5 "/>
<text text-anchor="middle" x="1004.5" y="-365.5" font-family="Helvetica,sans-Serif" font-size="10.00" fill="#000000"> </text>
</g>
<!-- Node11&#45;&gt;Node1 -->
<g id="edge10" class="edge">
<title>Node11&#45;&gt;Node1</title>
<path fill="none" stroke="#404040" d="M992.1365,-358.2341C974.7923,-321.0865 939.8551,-256.7372 891.5,-219 823.2541,-165.7396 728.9261,-135.008 658.9384,-118.2538"/>
<polygon fill="none" stroke="#404040" points="658.7333,-118.2061 651.9825,-120.7412 647.0459,-115.4848 653.7967,-112.9497 658.7333,-118.2061"/>
<text text-anchor="middle" x="1002.5" y="-277" font-family="Helvetica,sans-Serif" font-size="10.00" fill="#000000"> +@125</text>
</g>
<!-- Node12 -->
<g id="node12" class="node">
<title>Node12</title>
<polygon fill="none" stroke="#bfbfbf" points="1079,-358.5 1079,-415.5 1192,-415.5 1192,-358.5 1079,-358.5"/>
<text text-anchor="middle" x="1135.5" y="-403.5" font-family="Helvetica,sans-Serif" font-size="10.00" fill="#000000">anonymous:+@135</text>
<polyline fill="none" stroke="#bfbfbf" points="1079,-396.5 1192,-396.5 "/>
<text text-anchor="middle" x="1135.5" y="-384.5" font-family="Helvetica,sans-Serif" font-size="10.00" fill="#000000"> </text>
<polyline fill="none" stroke="#bfbfbf" points="1079,-377.5 1192,-377.5 "/>
<text text-anchor="middle" x="1135.5" y="-365.5" font-family="Helvetica,sans-Serif" font-size="10.00" fill="#000000"> </text>
</g>
<!-- Node12&#45;&gt;Node1 -->
<g id="edge11" class="edge">
<title>Node12&#45;&gt;Node1</title>
<path fill="none" stroke="#404040" d="M1124.7794,-358.4939C1109.0812,-320.7181 1076.1986,-254.699 1026.5,-219 968.1077,-177.0562 776.5995,-137.5964 658.9587,-116.4786"/>
<polygon fill="none" stroke="#404040" points="658.9221,-116.4721 652.3138,-119.3583 647.1079,-114.3683 653.7163,-111.4822 658.9221,-116.4721"/>
<text text-anchor="middle" x="1135.5" y="-277" font-family="Helvetica,sans-Serif" font-size="10.00" fill="#000000"> +@135</text>
</g>
<!-- Node13 -->
<g id="node13" class="node">
<title>Node13</title>
<polygon fill="none" stroke="#bfbfbf" points="1210,-358.5 1210,-415.5 1323,-415.5 1323,-358.5 1210,-358.5"/>
<text text-anchor="middle" x="1266.5" y="-403.5" font-family="Helvetica,sans-Serif" font-size="10.00" fill="#000000">anonymous:+@127</text>
<polyline fill="none" stroke="#bfbfbf" points="1210,-396.5 1323,-396.5 "/>
<text text-anchor="middle" x="1266.5" y="-384.5" font-family="Helvetica,sans-Serif" font-size="10.00" fill="#000000"> </text>
<polyline fill="none" stroke="#bfbfbf" points="1210,-377.5 1323,-377.5 "/>
<text text-anchor="middle" x="1266.5" y="-365.5" font-family="Helvetica,sans-Serif" font-size="10.00" fill="#000000"> </text>
</g>
<!-- Node13&#45;&gt;Node1 -->
<g id="edge12" class="edge">
<title>Node13&#45;&gt;Node1</title>
<path fill="none" stroke="#404040" d="M1256.5262,-358.4276C1241.6491,-320.2615 1209.8742,-253.4609 1159.5,-219 1079.3606,-164.1767 806.3224,-126.9268 659.2248,-110.3231"/>
<polygon fill="none" stroke="#404040" points="659.0505,-110.3038 652.6436,-113.6131 647.1246,-108.9718 653.5315,-105.6625 659.0505,-110.3038"/>
<text text-anchor="middle" x="1267.5" y="-277" font-family="Helvetica,sans-Serif" font-size="10.00" fill="#000000"> +@127</text>
</g>
</g>
</svg>
        <g id="navigator" transform="translate(0 0)" fill="#404254">
                <rect fill="#f2f5e9" fill-opacity="0.5" stroke="#606060" stroke-width=".5" x="0" y="0" width="60" height="60"/>
                <use id="zoomplus" xlink:href="#zoomPlus" x="17" y="9" onmousedown="handleZoom(evt,'in')"/>
                <use id="zoomminus" xlink:href="#zoomMin" x="42" y="9" onmousedown="handleZoom(evt,'out')"/>
                <use id="reset" xlink:href="#resetDef" x="30" y="36" onmousedown="handleReset()"/>
                <g id="arrowUp" xlink:href="#dirArrow" transform="translate(30 24)" onmousedown="handlePan(0,-1)">
                  <use xlink:href="#rim" fill="#404040">
                        <set attributeName="fill" to="#808080" begin="arrowUp.mouseover" end="arrowUp.mouseout"/>
                  </use>
                  <path fill="none" stroke="white" stroke-width="1.5" d="M0,-3.0v7 M-2.5,-0.5L0,-3.0L2.5,-0.5"/>
                </g>
                <g id="arrowRight" xlink:href="#dirArrow" transform="rotate(90) translate(36 -43)" onmousedown="handlePan(1,0)">
                  <use xlink:href="#rim" fill="#404040">
                        <set attributeName="fill" to="#808080" begin="arrowRight.mouseover" end="arrowRight.mouseout"/>
                  </use>
                  <path fill="none" stroke="white" stroke-width="1.5" d="M0,-3.0v7 M-2.5,-0.5L0,-3.0L2.5,-0.5"/>
                </g>
                <g id="arrowDown" xlink:href="#dirArrow" transform="rotate(180) translate(-30 -48)" onmousedown="handlePan(0,1)">
                  <use xlink:href="#rim" fill="#404040">
                        <set attributeName="fill" to="#808080" begin="arrowDown.mouseover" end="arrowDown.mouseout"/>
                  </use>
                  <path fill="none" stroke="white" stroke-width="1.5" d="M0,-3.0v7 M-2.5,-0.5L0,-3.0L2.5,-0.5"/>
                </g>
                <g id="arrowLeft" xlink:href="#dirArrow" transform="rotate(270) translate(-36 17)" onmousedown="handlePan(-1,0)">
                  <use xlink:href="#rim" fill="#404040">
                        <set attributeName="fill" to="#808080" begin="arrowLeft.mouseover" end="arrowLeft.mouseout"/>
                  </use>
                  <path fill="none" stroke="white" stroke-width="1.5" d="M0,-3.0v7 M-2.5,-0.5L0,-3.0L2.5,-0.5"/>
                </g>
        </g>
        <svg viewBox="0 0 15 15" width="100%" height="30px" preserveAspectRatio="xMaxYMin meet">
         <g id="arrow_out" transform="scale(0.3 0.3)">
          <a xlink:href="structo2_1_1header_1_1RAWDataHeaderV4__coll__graph_org.svg" target="_base">
           <rect id="button" ry="5" rx="5" y="6" x="6" height="38" width="38"
                fill="#f2f5e9" fill-opacity="0.5" stroke="#606060" stroke-width="1.0"/>
           <path id="arrow"
             d="M 11.500037,31.436501 C 11.940474,20.09759 22.043105,11.32322 32.158766,21.979434 L 37.068811,17.246167 C 37.068811,17.246167 37.088388,32 37.088388,32 L 22.160133,31.978069 C 22.160133,31.978069 26.997745,27.140456 26.997745,27.140456 C 18.528582,18.264221 13.291696,25.230495 11.500037,31.436501 z"
             style="fill:#404040;"/>
          </a>
         </g>
        </svg>
</svg>
