<?xml version="1.0" encoding="UTF-8" standalone="no"?>
<!DOCTYPE svg PUBLIC "-//W3C//DTD SVG 1.1//EN"
 "http://www.w3.org/Graphics/SVG/1.1/DTD/svg11.dtd">
<!-- Generated by graphviz version 2.40.1 (20161225.0304)
 -->
<!-- Title: /home/travis/build/AliceO2Group/AliceO2/Analysis/DataModel/include/Analysis/EventSelection.h Pages: 1 -->
<svg width="2538pt" height="341pt"
 viewBox="0.00 0.00 2538.00 341.00" xmlns="http://www.w3.org/2000/svg" xmlns:xlink="http://www.w3.org/1999/xlink">
<g id="graph0" class="graph" transform="scale(1 1) rotate(0) translate(4 337)">
<title>/home/travis/build/AliceO2Group/AliceO2/Analysis/DataModel/include/Analysis/EventSelection.h</title>
<!-- Node0 -->
<g id="node1" class="node">
<title>Node0</title>
<polygon fill="#bfbfbf" stroke="#000000" points="862.5,-280.5 862.5,-332.5 1017.5,-332.5 1017.5,-280.5 862.5,-280.5"/>
<text text-anchor="start" x="870.5" y="-320.5" font-family="Helvetica,sans-Serif" font-size="10.00" fill="#000000">/home/travis/build</text>
<text text-anchor="start" x="870.5" y="-309.5" font-family="Helvetica,sans-Serif" font-size="10.00" fill="#000000">/AliceO2Group/AliceO2</text>
<text text-anchor="start" x="870.5" y="-298.5" font-family="Helvetica,sans-Serif" font-size="10.00" fill="#000000">/Analysis/DataModel/include</text>
<text text-anchor="middle" x="940" y="-287.5" font-family="Helvetica,sans-Serif" font-size="10.00" fill="#000000">/Analysis/EventSelection.h</text>
</g>
<!-- Node1 -->
<g id="node2" class="node">
<title>Node1</title>
<g id="a_node2"><a xlink:href="../../d2/d8c/AnalysisDataModel_8h.html" target="_top" xlink:title="Framework/AnalysisDataModel.h">
<polygon fill="none" stroke="#000000" points="1807,-224.5 1807,-243.5 1983,-243.5 1983,-224.5 1807,-224.5"/>
<text text-anchor="middle" x="1895" y="-231.5" font-family="Helvetica,sans-Serif" font-size="10.00" fill="#000000">Framework/AnalysisDataModel.h</text>
</a>
</g>
</g>
<!-- Node0&#45;&gt;Node1 -->
<g id="edge1" class="edge">
<title>Node0&#45;&gt;Node1</title>
<path fill="none" stroke="#191970" d="M1017.7467,-300.5978C1190.5579,-287.4786 1606.2948,-255.9174 1796.7309,-241.4602"/>
<polygon fill="#191970" stroke="#191970" points="1797.0277,-244.9479 1806.734,-240.7008 1796.4977,-237.9679 1797.0277,-244.9479"/>
</g>
<!-- Node44 -->
<g id="node45" class="node">
<title>Node44</title>
<g id="a_node45"><a xlink:href="../../d6/d44/TriggerAliases_8h.html" target="_top" xlink:title="Analysis/TriggerAliases.h">
<polygon fill="none" stroke="#000000" points="142,-224.5 142,-243.5 280,-243.5 280,-224.5 142,-224.5"/>
<text text-anchor="middle" x="211" y="-231.5" font-family="Helvetica,sans-Serif" font-size="10.00" fill="#000000">Analysis/TriggerAliases.h</text>
</a>
</g>
</g>
<!-- Node0&#45;&gt;Node44 -->
<g id="edge55" class="edge">
<title>Node0&#45;&gt;Node44</title>
<path fill="none" stroke="#191970" d="M862.3296,-298.7756C722.831,-284.9023 431.3054,-255.9097 290.4939,-241.9058"/>
<polygon fill="#191970" stroke="#191970" points="290.5077,-238.39 280.2104,-240.8831 289.8149,-245.3556 290.5077,-238.39"/>
</g>
<!-- Node2 -->
<g id="node3" class="node">
<title>Node2</title>
<g id="a_node3"><a xlink:href="../../de/d33/ASoA_8h.html" target="_top" xlink:title="Framework/ASoA.h">
<polygon fill="none" stroke="#000000" points="1121,-168.5 1121,-187.5 1229,-187.5 1229,-168.5 1121,-168.5"/>
<text text-anchor="middle" x="1175" y="-175.5" font-family="Helvetica,sans-Serif" font-size="10.00" fill="#000000">Framework/ASoA.h</text>
</a>
</g>
</g>
<!-- Node1&#45;&gt;Node2 -->
<g id="edge2" class="edge">
<title>Node1&#45;&gt;Node2</title>
<path fill="none" stroke="#191970" d="M1806.7139,-227.1333C1659.7394,-215.702 1368.3082,-193.0351 1239.1717,-182.9911"/>
<polygon fill="#191970" stroke="#191970" points="1239.2847,-179.4894 1229.0433,-182.2034 1238.7418,-186.4684 1239.2847,-179.4894"/>
</g>
<!-- Node34 -->
<g id="node35" class="node">
<title>Node34</title>
<g id="a_node35"><a xlink:href="../../d9/d52/Common_2MathUtils_2include_2MathUtils_2Utils_8h.html" target="_top" xlink:title="MathUtils/Utils.h">
<polygon fill="none" stroke="#000000" points="2009,-168.5 2009,-187.5 2107,-187.5 2107,-168.5 2009,-168.5"/>
<text text-anchor="middle" x="2058" y="-175.5" font-family="Helvetica,sans-Serif" font-size="10.00" fill="#000000">MathUtils/Utils.h</text>
</a>
</g>
</g>
<!-- Node1&#45;&gt;Node34 -->
<g id="edge42" class="edge">
<title>Node1&#45;&gt;Node34</title>
<path fill="none" stroke="#191970" d="M1923.0207,-224.3733C1950.0078,-215.1016 1991.0017,-201.0178 2020.7311,-190.804"/>
<polygon fill="#191970" stroke="#191970" points="2022.0248,-194.0605 2030.3449,-187.5011 2019.7503,-187.4403 2022.0248,-194.0605"/>
</g>
<!-- Node36 -->
<g id="node37" class="node">
<title>Node36</title>
<polygon fill="none" stroke="#bfbfbf" points="2189.5,-56.5 2189.5,-75.5 2236.5,-75.5 2236.5,-56.5 2189.5,-56.5"/>
<text text-anchor="middle" x="2213" y="-63.5" font-family="Helvetica,sans-Serif" font-size="10.00" fill="#000000">cmath</text>
</g>
<!-- Node1&#45;&gt;Node36 -->
<g id="edge53" class="edge">
<title>Node1&#45;&gt;Node36</title>
<path fill="none" stroke="#191970" d="M1895.5886,-224.1861C1897.5669,-200.6549 1906.0646,-140.8396 1942,-112 2023.2411,-46.8007 2073.2254,-96.8537 2179.2491,-76.0021"/>
<polygon fill="#191970" stroke="#191970" points="2180.3019,-79.3559 2189.3453,-73.8362 2178.8336,-72.5117 2180.3019,-79.3559"/>
</g>
<!-- Node43 -->
<g id="node44" class="node">
<title>Node43</title>
<g id="a_node44"><a xlink:href="../../d2/d12/DataTypes_8h.html" target="_top" xlink:title="Framework/DataTypes.h">
<polygon fill="none" stroke="#000000" points="2125,-168.5 2125,-187.5 2259,-187.5 2259,-168.5 2125,-168.5"/>
<text text-anchor="middle" x="2192" y="-175.5" font-family="Helvetica,sans-Serif" font-size="10.00" fill="#000000">Framework/DataTypes.h</text>
</a>
</g>
</g>
<!-- Node1&#45;&gt;Node43 -->
<g id="edge54" class="edge">
<title>Node1&#45;&gt;Node43</title>
<path fill="none" stroke="#191970" d="M1945.7187,-224.4369C1997.1886,-214.7321 2076.8702,-199.708 2131.5784,-189.3926"/>
<polygon fill="#191970" stroke="#191970" points="2132.3122,-192.816 2141.4905,-187.5237 2131.0152,-185.9372 2132.3122,-192.816"/>
</g>
<!-- Node3 -->
<g id="node4" class="node">
<title>Node3</title>
<g id="a_node4"><a xlink:href="../../dd/dce/Pack_8h.html" target="_top" xlink:title="Framework/Pack.h">
<polygon fill="none" stroke="#000000" points="145.5,-56.5 145.5,-75.5 250.5,-75.5 250.5,-56.5 145.5,-56.5"/>
<text text-anchor="middle" x="198" y="-63.5" font-family="Helvetica,sans-Serif" font-size="10.00" fill="#000000">Framework/Pack.h</text>
</a>
</g>
</g>
<!-- Node2&#45;&gt;Node3 -->
<g id="edge3" class="edge">
<title>Node2&#45;&gt;Node3</title>
<path fill="none" stroke="#191970" d="M1120.6915,-173.992C1033.0347,-167.0548 864.4793,-151.6475 808,-132 791.8021,-126.3652 791.3465,-117.1881 775,-112 559.4,-43.5723 489.9021,-100.6295 260.6967,-75.9494"/>
<polygon fill="#191970" stroke="#191970" points="261.0472,-72.4669 250.7204,-74.8348 260.2698,-79.4236 261.0472,-72.4669"/>
</g>
<!-- Node7 -->
<g id="node8" class="node">
<title>Node7</title>
<g id="a_node8"><a xlink:href="../../d1/d00/CheckTypes_8h.html" target="_top" xlink:title="Framework/CheckTypes.h">
<polygon fill="none" stroke="#000000" points="269,-56.5 269,-75.5 409,-75.5 409,-56.5 269,-56.5"/>
<text text-anchor="middle" x="339" y="-63.5" font-family="Helvetica,sans-Serif" font-size="10.00" fill="#000000">Framework/CheckTypes.h</text>
</a>
</g>
</g>
<!-- Node2&#45;&gt;Node7 -->
<g id="edge7" class="edge">
<title>Node2&#45;&gt;Node7</title>
<path fill="none" stroke="#191970" d="M1120.7384,-176.1256C1054.4555,-172.5481 939.5953,-162.1564 846,-132 827.8344,-126.147 826.2978,-117.4257 808,-112 644.2086,-63.4323 592.936,-93.7578 419.1842,-76.0666"/>
<polygon fill="#191970" stroke="#191970" points="419.5092,-72.5816 409.1967,-75.0109 418.7733,-79.5428 419.5092,-72.5816"/>
</g>
<!-- Node8 -->
<g id="node9" class="node">
<title>Node8</title>
<g id="a_node9"><a xlink:href="../../de/d9b/FunctionalHelpers_8h.html" target="_top" xlink:title="Framework/FunctionalHelpers.h">
<polygon fill="none" stroke="#000000" points="596,-112.5 596,-131.5 766,-131.5 766,-112.5 596,-112.5"/>
<text text-anchor="middle" x="681" y="-119.5" font-family="Helvetica,sans-Serif" font-size="10.00" fill="#000000">Framework/FunctionalHelpers.h</text>
</a>
</g>
</g>
<!-- Node2&#45;&gt;Node8 -->
<g id="edge8" class="edge">
<title>Node2&#45;&gt;Node8</title>
<path fill="none" stroke="#191970" d="M1120.7202,-171.8468C1037.5212,-162.4154 877.3736,-144.261 775.0254,-132.6588"/>
<polygon fill="#191970" stroke="#191970" points="775.3288,-129.1708 764.9982,-131.5221 774.5403,-136.1263 775.3288,-129.1708"/>
</g>
<!-- Node10 -->
<g id="node11" class="node">
<title>Node10</title>
<g id="a_node11"><a xlink:href="../../d9/de8/CompilerBuiltins_8h.html" target="_top" xlink:title="Framework/CompilerBuiltins.h">
<polygon fill="none" stroke="#000000" points="427,-56.5 427,-75.5 591,-75.5 591,-56.5 427,-56.5"/>
<text text-anchor="middle" x="509" y="-63.5" font-family="Helvetica,sans-Serif" font-size="10.00" fill="#000000">Framework/CompilerBuiltins.h</text>
</a>
</g>
</g>
<!-- Node2&#45;&gt;Node10 -->
<g id="edge11" class="edge">
<title>Node2&#45;&gt;Node10</title>
<path fill="none" stroke="#191970" d="M1120.9872,-173.6031C1062.941,-167.8857 968.4453,-155.6935 890,-132 869.4365,-125.7891 866.6376,-117.96 846,-112 822.6238,-105.2491 689.6547,-88.1231 597.9017,-76.7801"/>
<polygon fill="#191970" stroke="#191970" points="598.118,-73.2804 587.7647,-75.5297 597.261,-80.2277 598.118,-73.2804"/>
</g>
<!-- Node11 -->
<g id="node12" class="node">
<title>Node11</title>
<g id="a_node12"><a xlink:href="../../db/d31/Traits_8h.html" target="_top" xlink:title="Framework/Traits.h">
<polygon fill="none" stroke="#000000" points="1329.5,-112.5 1329.5,-131.5 1438.5,-131.5 1438.5,-112.5 1329.5,-112.5"/>
<text text-anchor="middle" x="1384" y="-119.5" font-family="Helvetica,sans-Serif" font-size="10.00" fill="#000000">Framework/Traits.h</text>
</a>
</g>
</g>
<!-- Node2&#45;&gt;Node11 -->
<g id="edge12" class="edge">
<title>Node2&#45;&gt;Node11</title>
<path fill="none" stroke="#191970" d="M1210.9284,-168.3733C1246.2837,-158.9001 1300.388,-144.4032 1338.6788,-134.1435"/>
<polygon fill="#191970" stroke="#191970" points="1339.787,-137.4701 1348.5405,-131.5011 1337.9753,-130.7086 1339.787,-137.4701"/>
</g>
<!-- Node13 -->
<g id="node14" class="node">
<title>Node13</title>
<g id="a_node14"><a xlink:href="../../d0/d91/Expressions_8h.html" target="_top" xlink:title="Framework/Expressions.h">
<polygon fill="none" stroke="#000000" points="1055.5,-112.5 1055.5,-131.5 1196.5,-131.5 1196.5,-112.5 1055.5,-112.5"/>
<text text-anchor="middle" x="1126" y="-119.5" font-family="Helvetica,sans-Serif" font-size="10.00" fill="#000000">Framework/Expressions.h</text>
</a>
</g>
</g>
<!-- Node2&#45;&gt;Node13 -->
<g id="edge14" class="edge">
<title>Node2&#45;&gt;Node13</title>
<path fill="none" stroke="#191970" d="M1166.4649,-168.2455C1159.5088,-160.2958 1149.5117,-148.8706 1141.1949,-139.3656"/>
<polygon fill="#191970" stroke="#191970" points="1143.6564,-136.8637 1134.4373,-131.6427 1138.3884,-141.4732 1143.6564,-136.8637"/>
</g>
<!-- Node19 -->
<g id="node20" class="node">
<title>Node19</title>
<polygon fill="none" stroke="#bfbfbf" points="1741.5,-56.5 1741.5,-75.5 1822.5,-75.5 1822.5,-56.5 1741.5,-56.5"/>
<text text-anchor="middle" x="1782" y="-63.5" font-family="Helvetica,sans-Serif" font-size="10.00" fill="#000000">arrow/table.h</text>
</g>
<!-- Node2&#45;&gt;Node19 -->
<g id="edge34" class="edge">
<title>Node2&#45;&gt;Node19</title>
<path fill="none" stroke="#191970" d="M1182.3487,-168.211C1194.3702,-153.0563 1219.8422,-124.3744 1249,-112 1345.2719,-71.1428 1609.7987,-89.4635 1731.1716,-75.8278"/>
<polygon fill="#191970" stroke="#191970" points="1731.9211,-79.2616 1741.4116,-74.5519 1731.0555,-72.3153 1731.9211,-79.2616"/>
</g>
<!-- Node20 -->
<g id="node21" class="node">
<title>Node20</title>
<polygon fill="none" stroke="#bfbfbf" points="1840.5,-56.5 1840.5,-75.5 1987.5,-75.5 1987.5,-56.5 1840.5,-56.5"/>
<text text-anchor="middle" x="1914" y="-63.5" font-family="Helvetica,sans-Serif" font-size="10.00" fill="#000000">gandiva/selection_vector.h</text>
</g>
<!-- Node2&#45;&gt;Node20 -->
<g id="edge39" class="edge">
<title>Node2&#45;&gt;Node20</title>
<path fill="none" stroke="#191970" d="M1190.559,-168.2863C1218.824,-150.7218 1276.6481,-115.1935 1287,-112 1400.0367,-77.1288 1695.6313,-86.8159 1830.0891,-76.0703"/>
<polygon fill="#191970" stroke="#191970" points="1830.6035,-79.5389 1840.2636,-75.1877 1829.9985,-72.5651 1830.6035,-79.5389"/>
</g>
<!-- Node24 -->
<g id="node25" class="node">
<title>Node24</title>
<polygon fill="none" stroke="#bfbfbf" points="2005.5,-56.5 2005.5,-75.5 2084.5,-75.5 2084.5,-56.5 2005.5,-56.5"/>
<text text-anchor="middle" x="2045" y="-63.5" font-family="Helvetica,sans-Serif" font-size="10.00" fill="#000000">fmt/format.h</text>
</g>
<!-- Node2&#45;&gt;Node24 -->
<g id="edge41" class="edge">
<title>Node2&#45;&gt;Node24</title>
<path fill="none" stroke="#191970" d="M1198.5816,-168.4023C1220.3991,-159.3954 1253.6429,-145.3477 1282,-132 1299.6248,-123.704 1302.1928,-117.0742 1321,-112 1608.221,-34.5071 1696.6581,-112.9912 1995.0186,-76.0668"/>
<polygon fill="#191970" stroke="#191970" points="1995.7882,-79.4972 2005.2668,-74.7636 1994.9051,-72.5531 1995.7882,-79.4972"/>
</g>
<!-- Node28 -->
<g id="node29" class="node">
<title>Node28</title>
<g id="a_node29"><a xlink:href="../../d4/de7/ArrowTypes_8h.html" target="_top" xlink:title="Framework/ArrowTypes.h">
<polygon fill="none" stroke="#000000" points="898.5,-112.5 898.5,-131.5 1037.5,-131.5 1037.5,-112.5 898.5,-112.5"/>
<text text-anchor="middle" x="968" y="-119.5" font-family="Helvetica,sans-Serif" font-size="10.00" fill="#000000">Framework/ArrowTypes.h</text>
</a>
</g>
</g>
<!-- Node2&#45;&gt;Node28 -->
<g id="edge32" class="edge">
<title>Node2&#45;&gt;Node28</title>
<path fill="none" stroke="#191970" d="M1139.4154,-168.3733C1104.3984,-158.9001 1050.8119,-144.4032 1012.8875,-134.1435"/>
<polygon fill="#191970" stroke="#191970" points="1013.6873,-130.7341 1003.1202,-131.5011 1011.8592,-137.4912 1013.6873,-130.7341"/>
</g>
<!-- Node29 -->
<g id="node30" class="node">
<title>Node29</title>
<polygon fill="none" stroke="#bfbfbf" points="1457,-112.5 1457,-131.5 1537,-131.5 1537,-112.5 1457,-112.5"/>
<text text-anchor="middle" x="1497" y="-119.5" font-family="Helvetica,sans-Serif" font-size="10.00" fill="#000000">arrow/array.h</text>
</g>
<!-- Node2&#45;&gt;Node29 -->
<g id="edge35" class="edge">
<title>Node2&#45;&gt;Node29</title>
<path fill="none" stroke="#191970" d="M1229.2257,-169.4266C1282.2287,-160.9195 1365.4625,-147.2237 1446.9801,-132.144"/>
<polygon fill="#191970" stroke="#191970" points="1447.7185,-135.5668 1456.9106,-130.2984 1446.4394,-128.6846 1447.7185,-135.5668"/>
</g>
<!-- Node30 -->
<g id="node31" class="node">
<title>Node30</title>
<polygon fill="none" stroke="#bfbfbf" points="1555,-112.5 1555,-131.5 1665,-131.5 1665,-112.5 1555,-112.5"/>
<text text-anchor="middle" x="1610" y="-119.5" font-family="Helvetica,sans-Serif" font-size="10.00" fill="#000000">arrow/util/variant.h</text>
</g>
<!-- Node2&#45;&gt;Node30 -->
<g id="edge36" class="edge">
<title>Node2&#45;&gt;Node30</title>
<path fill="none" stroke="#191970" d="M1229.1392,-171.831C1299.4743,-163.6957 1426.3404,-148.6105 1544.8821,-132.1229"/>
<polygon fill="#191970" stroke="#191970" points="1545.4389,-135.5792 1554.8584,-130.7292 1544.4703,-128.6466 1545.4389,-135.5792"/>
</g>
<!-- Node31 -->
<g id="node32" class="node">
<title>Node31</title>
<polygon fill="none" stroke="#bfbfbf" points="1683.5,-112.5 1683.5,-131.5 1822.5,-131.5 1822.5,-112.5 1683.5,-112.5"/>
<text text-anchor="middle" x="1753" y="-119.5" font-family="Helvetica,sans-Serif" font-size="10.00" fill="#000000">arrow/compute/context.h</text>
</g>
<!-- Node2&#45;&gt;Node31 -->
<g id="edge37" class="edge">
<title>Node2&#45;&gt;Node31</title>
<path fill="none" stroke="#191970" d="M1229.3326,-173.6C1319.2824,-166.182 1505.0524,-150.2974 1673.2014,-132.0554"/>
<polygon fill="#191970" stroke="#191970" points="1673.6665,-135.5255 1683.2283,-130.9624 1672.9079,-128.5667 1673.6665,-135.5255"/>
</g>
<!-- Node32 -->
<g id="node33" class="node">
<title>Node32</title>
<polygon fill="none" stroke="#bfbfbf" points="374.5,-112.5 374.5,-131.5 507.5,-131.5 507.5,-112.5 374.5,-112.5"/>
<text text-anchor="middle" x="441" y="-119.5" font-family="Helvetica,sans-Serif" font-size="10.00" fill="#000000">arrow/compute/kernel.h</text>
</g>
<!-- Node2&#45;&gt;Node32 -->
<g id="edge38" class="edge">
<title>Node2&#45;&gt;Node32</title>
<path fill="none" stroke="#191970" d="M1120.7414,-175.3302C1009.721,-169.6236 748.4085,-154.9442 517.958,-132.0376"/>
<polygon fill="#191970" stroke="#191970" points="518.0003,-128.5244 507.7013,-131.0106 517.3028,-135.4896 518.0003,-128.5244"/>
</g>
<!-- Node33 -->
<g id="node34" class="node">
<title>Node33</title>
<polygon fill="none" stroke="#bfbfbf" points="526,-112.5 526,-131.5 578,-131.5 578,-112.5 526,-112.5"/>
<text text-anchor="middle" x="552" y="-119.5" font-family="Helvetica,sans-Serif" font-size="10.00" fill="#000000">cassert</text>
</g>
<!-- Node2&#45;&gt;Node33 -->
<g id="edge40" class="edge">
<title>Node2&#45;&gt;Node33</title>
<path fill="none" stroke="#191970" d="M1120.6698,-175.1448C998.9528,-168.5287 706.4664,-151.3541 588.4406,-131.8769"/>
<polygon fill="#191970" stroke="#191970" points="588.6915,-128.3682 578.2404,-130.1073 587.4949,-135.2652 588.6915,-128.3682"/>
</g>
<!-- Node4 -->
<g id="node5" class="node">
<title>Node4</title>
<polygon fill="none" stroke="#bfbfbf" points="171.5,-.5 171.5,-19.5 224.5,-19.5 224.5,-.5 171.5,-.5"/>
<text text-anchor="middle" x="198" y="-7.5" font-family="Helvetica,sans-Serif" font-size="10.00" fill="#000000">cstddef</text>
</g>
<!-- Node3&#45;&gt;Node4 -->
<g id="edge4" class="edge">
<title>Node3&#45;&gt;Node4</title>
<path fill="none" stroke="#191970" d="M198,-56.2455C198,-48.9382 198,-38.6944 198,-29.7046"/>
<polygon fill="#191970" stroke="#191970" points="201.5001,-29.6426 198,-19.6427 194.5001,-29.6427 201.5001,-29.6426"/>
</g>
<!-- Node5 -->
<g id="node6" class="node">
<title>Node5</title>
<polygon fill="none" stroke="#bfbfbf" points="242.5,-.5 242.5,-19.5 287.5,-19.5 287.5,-.5 242.5,-.5"/>
<text text-anchor="middle" x="265" y="-7.5" font-family="Helvetica,sans-Serif" font-size="10.00" fill="#000000">utility</text>
</g>
<!-- Node3&#45;&gt;Node5 -->
<g id="edge5" class="edge">
<title>Node3&#45;&gt;Node5</title>
<path fill="none" stroke="#191970" d="M209.6705,-56.2455C219.5661,-47.9746 233.9627,-35.9416 245.5901,-26.2232"/>
<polygon fill="#191970" stroke="#191970" points="248.035,-28.7413 253.4632,-19.6427 243.5458,-23.3703 248.035,-28.7413"/>
</g>
<!-- Node6 -->
<g id="node7" class="node">
<title>Node6</title>
<polygon fill="none" stroke="#bfbfbf" points="107,-.5 107,-19.5 153,-19.5 153,-.5 107,-.5"/>
<text text-anchor="middle" x="130" y="-7.5" font-family="Helvetica,sans-Serif" font-size="10.00" fill="#000000">cstdio</text>
</g>
<!-- Node3&#45;&gt;Node6 -->
<g id="edge6" class="edge">
<title>Node3&#45;&gt;Node6</title>
<path fill="none" stroke="#191970" d="M186.1553,-56.2455C176.112,-47.9746 161.5005,-35.9416 149.6996,-26.2232"/>
<polygon fill="#191970" stroke="#191970" points="151.6533,-23.298 141.709,-19.6427 147.2033,-28.7015 151.6533,-23.298"/>
</g>
<!-- Node8&#45;&gt;Node3 -->
<g id="edge9" class="edge">
<title>Node8&#45;&gt;Node3</title>
<path fill="none" stroke="#191970" d="M595.64,-112.9097C489.7552,-101.5995 317.2154,-83.0469 260.9205,-76.0133"/>
<polygon fill="#191970" stroke="#191970" points="261.1048,-72.5081 250.738,-74.694 260.2053,-79.45 261.1048,-72.5081"/>
</g>
<!-- Node9 -->
<g id="node10" class="node">
<title>Node9</title>
<polygon fill="none" stroke="#bfbfbf" points="62.5,-56.5 62.5,-75.5 127.5,-75.5 127.5,-56.5 62.5,-56.5"/>
<text text-anchor="middle" x="95" y="-63.5" font-family="Helvetica,sans-Serif" font-size="10.00" fill="#000000">functional</text>
</g>
<!-- Node8&#45;&gt;Node9 -->
<g id="edge10" class="edge">
<title>Node8&#45;&gt;Node9</title>
<path fill="none" stroke="#191970" d="M595.9556,-112.8513C592.9338,-112.5585 589.9414,-112.2738 587,-112 390.0097,-93.6629 336.2538,-107.4647 137.4629,-76.0242"/>
<polygon fill="#191970" stroke="#191970" points="138.0054,-72.5666 127.578,-74.4428 136.8995,-79.4787 138.0054,-72.5666"/>
</g>
<!-- Node12 -->
<g id="node13" class="node">
<title>Node12</title>
<polygon fill="none" stroke="#bfbfbf" points="2102.5,-56.5 2102.5,-75.5 2171.5,-75.5 2171.5,-56.5 2102.5,-56.5"/>
<text text-anchor="middle" x="2137" y="-63.5" font-family="Helvetica,sans-Serif" font-size="10.00" fill="#000000">type_traits</text>
</g>
<!-- Node11&#45;&gt;Node12 -->
<g id="edge13" class="edge">
<title>Node11&#45;&gt;Node12</title>
<path fill="none" stroke="#191970" d="M1438.7658,-113.0766C1441.8859,-112.6824 1444.9804,-112.3192 1448,-112 1730.6117,-82.121 1807.5455,-115.9094 2092.1509,-76.046"/>
<polygon fill="#191970" stroke="#191970" points="2092.9545,-79.4672 2102.3635,-74.5967 2091.9709,-72.5366 2092.9545,-79.4672"/>
</g>
<!-- Node13&#45;&gt;Node3 -->
<g id="edge17" class="edge">
<title>Node13&#45;&gt;Node3</title>
<path fill="none" stroke="#191970" d="M1055.3946,-112.7777C1052.5613,-112.498 1049.7548,-112.237 1047,-112 701.4665,-82.2761 610.0291,-111.3709 260.8527,-75.9609"/>
<polygon fill="#191970" stroke="#191970" points="261.0156,-72.4593 250.7109,-74.9217 260.302,-79.4229 261.0156,-72.4593"/>
</g>
<!-- Node13&#45;&gt;Node7 -->
<g id="edge18" class="edge">
<title>Node13&#45;&gt;Node7</title>
<path fill="none" stroke="#191970" d="M1055.3911,-112.818C1052.5587,-112.5271 1049.7534,-112.2528 1047,-112 771.427,-86.7028 698.5407,-101.2466 419.2084,-76.0514"/>
<polygon fill="#191970" stroke="#191970" points="419.4602,-72.56 409.1839,-75.1383 418.8251,-79.5311 419.4602,-72.56"/>
</g>
<!-- Node13&#45;&gt;Node10 -->
<g id="edge16" class="edge">
<title>Node13&#45;&gt;Node10</title>
<path fill="none" stroke="#191970" d="M1055.3831,-112.8993C1052.553,-112.5859 1049.7503,-112.2847 1047,-112 852.0405,-91.8207 800.1251,-94.781 601.5144,-76.1195"/>
<polygon fill="#191970" stroke="#191970" points="601.6141,-72.6134 591.3289,-75.1557 600.9546,-79.5822 601.6141,-72.6134"/>
</g>
<!-- Node14 -->
<g id="node15" class="node">
<title>Node14</title>
<g id="a_node15"><a xlink:href="../../dd/dc2/BasicOps_8h.html" target="_top" xlink:title="Framework/BasicOps.h">
<polygon fill="none" stroke="#000000" points="729,-56.5 729,-75.5 857,-75.5 857,-56.5 729,-56.5"/>
<text text-anchor="middle" x="793" y="-63.5" font-family="Helvetica,sans-Serif" font-size="10.00" fill="#000000">Framework/BasicOps.h</text>
</a>
</g>
</g>
<!-- Node13&#45;&gt;Node14 -->
<g id="edge15" class="edge">
<title>Node13&#45;&gt;Node14</title>
<path fill="none" stroke="#191970" d="M1069.1336,-112.4369C1011.0657,-102.6717 920.9715,-87.5207 859.6034,-77.2006"/>
<polygon fill="#191970" stroke="#191970" points="860.0738,-73.7306 849.6318,-75.5237 858.9129,-80.6337 860.0738,-73.7306"/>
</g>
<!-- Node15 -->
<g id="node16" class="node">
<title>Node15</title>
<polygon fill="none" stroke="#bfbfbf" points="609.5,-56.5 609.5,-75.5 710.5,-75.5 710.5,-56.5 609.5,-56.5"/>
<text text-anchor="middle" x="660" y="-63.5" font-family="Helvetica,sans-Serif" font-size="10.00" fill="#000000">arrow/type_fwd.h</text>
</g>
<!-- Node13&#45;&gt;Node15 -->
<g id="edge19" class="edge">
<title>Node13&#45;&gt;Node15</title>
<path fill="none" stroke="#191970" d="M1055.3717,-113.0019C1052.5447,-112.6601 1049.7458,-112.3249 1047,-112 905.0629,-95.2047 866.5487,-95.9813 720.9194,-76.061"/>
<polygon fill="#191970" stroke="#191970" points="721.0929,-72.552 710.7088,-74.6547 720.1377,-79.4865 721.0929,-72.552"/>
</g>
<!-- Node16 -->
<g id="node17" class="node">
<title>Node16</title>
<polygon fill="none" stroke="#bfbfbf" points="875,-56.5 875,-75.5 1021,-75.5 1021,-56.5 875,-56.5"/>
<text text-anchor="middle" x="948" y="-63.5" font-family="Helvetica,sans-Serif" font-size="10.00" fill="#000000">gandiva/gandiva_aliases.h</text>
</g>
<!-- Node13&#45;&gt;Node16 -->
<g id="edge20" class="edge">
<title>Node13&#45;&gt;Node16</title>
<path fill="none" stroke="#191970" d="M1095.4007,-112.3733C1065.6739,-103.021 1020.3841,-88.7725 987.8544,-78.5385"/>
<polygon fill="#191970" stroke="#191970" points="988.7895,-75.1636 978.2,-75.5011 986.6887,-81.8409 988.7895,-75.1636"/>
</g>
<!-- Node17 -->
<g id="node18" class="node">
<title>Node17</title>
<polygon fill="none" stroke="#bfbfbf" points="1039,-56.5 1039,-75.5 1117,-75.5 1117,-56.5 1039,-56.5"/>
<text text-anchor="middle" x="1078" y="-63.5" font-family="Helvetica,sans-Serif" font-size="10.00" fill="#000000">arrow/type.h</text>
</g>
<!-- Node13&#45;&gt;Node17 -->
<g id="edge21" class="edge">
<title>Node13&#45;&gt;Node17</title>
<path fill="none" stroke="#191970" d="M1117.639,-112.2455C1110.825,-104.2958 1101.0319,-92.8706 1092.8848,-83.3656"/>
<polygon fill="#191970" stroke="#191970" points="1095.4305,-80.9575 1086.2651,-75.6427 1090.1157,-85.513 1095.4305,-80.9575"/>
</g>
<!-- Node18 -->
<g id="node19" class="node">
<title>Node18</title>
<polygon fill="none" stroke="#bfbfbf" points="1135.5,-56.5 1135.5,-75.5 1230.5,-75.5 1230.5,-56.5 1135.5,-56.5"/>
<text text-anchor="middle" x="1183" y="-63.5" font-family="Helvetica,sans-Serif" font-size="10.00" fill="#000000">gandiva/arrow.h</text>
</g>
<!-- Node13&#45;&gt;Node18 -->
<g id="edge22" class="edge">
<title>Node13&#45;&gt;Node18</title>
<path fill="none" stroke="#191970" d="M1135.9286,-112.2455C1144.1838,-104.1352 1156.1209,-92.4075 1165.9082,-82.7919"/>
<polygon fill="#191970" stroke="#191970" points="1168.5046,-85.1476 1173.1851,-75.6427 1163.5989,-80.1542 1168.5046,-85.1476"/>
</g>
<!-- Node13&#45;&gt;Node19 -->
<g id="edge23" class="edge">
<title>Node13&#45;&gt;Node19</title>
<path fill="none" stroke="#191970" d="M1196.9343,-113.3962C1201.6918,-112.8989 1206.4137,-112.428 1211,-112 1438.8311,-90.7393 1500.2189,-106.367 1731.3485,-75.9115"/>
<polygon fill="#191970" stroke="#191970" points="1731.964,-79.3606 1741.4141,-74.5704 1731.0394,-72.4219 1731.964,-79.3606"/>
</g>
<!-- Node13&#45;&gt;Node20 -->
<g id="edge24" class="edge">
<title>Node13&#45;&gt;Node20</title>
<path fill="none" stroke="#191970" d="M1196.5541,-116.0269C1213.7115,-114.6398 1232.0108,-113.215 1249,-112 1504.6559,-93.7159 1571.7864,-99.5692 1830.2008,-76.1218"/>
<polygon fill="#191970" stroke="#191970" points="1830.6248,-79.5977 1840.265,-75.2027 1829.9881,-72.6268 1830.6248,-79.5977"/>
</g>
<!-- Node21 -->
<g id="node22" class="node">
<title>Node21</title>
<polygon fill="none" stroke="#bfbfbf" points="1249,-56.5 1249,-75.5 1341,-75.5 1341,-56.5 1249,-56.5"/>
<text text-anchor="middle" x="1295" y="-63.5" font-family="Helvetica,sans-Serif" font-size="10.00" fill="#000000">gandiva/node.h</text>
</g>
<!-- Node13&#45;&gt;Node21 -->
<g id="edge25" class="edge">
<title>Node13&#45;&gt;Node21</title>
<path fill="none" stroke="#191970" d="M1155.0521,-112.3733C1183.1543,-103.0613 1225.9054,-88.8953 1256.7607,-78.671"/>
<polygon fill="#191970" stroke="#191970" points="1257.9355,-81.969 1266.327,-75.5011 1255.7336,-75.3243 1257.9355,-81.969"/>
</g>
<!-- Node22 -->
<g id="node23" class="node">
<title>Node22</title>
<polygon fill="none" stroke="#bfbfbf" points="1359.5,-56.5 1359.5,-75.5 1448.5,-75.5 1448.5,-56.5 1359.5,-56.5"/>
<text text-anchor="middle" x="1404" y="-63.5" font-family="Helvetica,sans-Serif" font-size="10.00" fill="#000000">gandiva/filter.h</text>
</g>
<!-- Node13&#45;&gt;Node22 -->
<g id="edge26" class="edge">
<title>Node13&#45;&gt;Node22</title>
<path fill="none" stroke="#191970" d="M1173.474,-112.4369C1222.3237,-102.5967 1298.3225,-87.2875 1349.5741,-76.9635"/>
<polygon fill="#191970" stroke="#191970" points="1350.3671,-80.3741 1359.479,-74.9682 1348.9848,-73.512 1350.3671,-80.3741"/>
</g>
<!-- Node23 -->
<g id="node24" class="node">
<title>Node23</title>
<polygon fill="none" stroke="#bfbfbf" points="1467,-56.5 1467,-75.5 1577,-75.5 1577,-56.5 1467,-56.5"/>
<text text-anchor="middle" x="1522" y="-63.5" font-family="Helvetica,sans-Serif" font-size="10.00" fill="#000000">gandiva/projector.h</text>
</g>
<!-- Node13&#45;&gt;Node23 -->
<g id="edge27" class="edge">
<title>Node13&#45;&gt;Node23</title>
<path fill="none" stroke="#191970" d="M1196.6447,-112.5727C1261.5924,-103.8231 1360.8392,-90.2459 1456.6894,-76.1746"/>
<polygon fill="#191970" stroke="#191970" points="1457.4675,-79.5979 1466.8512,-74.6791 1456.4481,-72.6725 1457.4675,-79.5979"/>
</g>
<!-- Node13&#45;&gt;Node24 -->
<g id="edge28" class="edge">
<title>Node13&#45;&gt;Node24</title>
<path fill="none" stroke="#191970" d="M1196.5229,-117.4455C1224.6643,-115.6736 1257.3615,-113.6718 1287,-112 1599.0708,-94.3973 1681.8542,-115.8705 1994.985,-76.0892"/>
<polygon fill="#191970" stroke="#191970" points="1995.7938,-79.5143 2005.2678,-74.7715 1994.904,-72.5711 1995.7938,-79.5143"/>
</g>
<!-- Node25 -->
<g id="node26" class="node">
<title>Node25</title>
<polygon fill="none" stroke="#bfbfbf" points="1595.5,-56.5 1595.5,-75.5 1646.5,-75.5 1646.5,-56.5 1595.5,-56.5"/>
<text text-anchor="middle" x="1621" y="-63.5" font-family="Helvetica,sans-Serif" font-size="10.00" fill="#000000">variant</text>
</g>
<!-- Node13&#45;&gt;Node25 -->
<g id="edge29" class="edge">
<title>Node13&#45;&gt;Node25</title>
<path fill="none" stroke="#191970" d="M1196.9485,-113.5381C1201.7025,-113.0066 1206.4199,-112.4892 1211,-112 1374.2342,-94.5648 1419.7207,-106.6357 1585.1046,-75.8515"/>
<polygon fill="#191970" stroke="#191970" points="1585.9547,-79.253 1595.1328,-73.9603 1584.6573,-72.3743 1585.9547,-79.253"/>
</g>
<!-- Node26 -->
<g id="node27" class="node">
<title>Node26</title>
<polygon fill="none" stroke="#bfbfbf" points="0,-56.5 0,-75.5 44,-75.5 44,-56.5 0,-56.5"/>
<text text-anchor="middle" x="22" y="-63.5" font-family="Helvetica,sans-Serif" font-size="10.00" fill="#000000">string</text>
</g>
<!-- Node13&#45;&gt;Node26 -->
<g id="edge30" class="edge">
<title>Node13&#45;&gt;Node26</title>
<path fill="none" stroke="#191970" d="M1055.3974,-112.7443C1052.5633,-112.4738 1049.7559,-112.2239 1047,-112 609.7188,-76.4774 490.1876,-151.4355 54.1954,-75.718"/>
<polygon fill="#191970" stroke="#191970" points="54.6194,-72.239 44.1652,-73.9593 53.4104,-79.1339 54.6194,-72.239"/>
</g>
<!-- Node27 -->
<g id="node28" class="node">
<title>Node27</title>
<polygon fill="none" stroke="#bfbfbf" points="1665,-56.5 1665,-75.5 1723,-75.5 1723,-56.5 1665,-56.5"/>
<text text-anchor="middle" x="1694" y="-63.5" font-family="Helvetica,sans-Serif" font-size="10.00" fill="#000000">memory</text>
</g>
<!-- Node13&#45;&gt;Node27 -->
<g id="edge31" class="edge">
<title>Node13&#45;&gt;Node27</title>
<path fill="none" stroke="#191970" d="M1196.9403,-113.4586C1201.6963,-112.9462 1206.4163,-112.4549 1211,-112 1405.1759,-92.73 1458.6387,-108.8253 1654.6057,-75.9763"/>
<polygon fill="#191970" stroke="#191970" points="1655.3807,-79.3949 1664.6537,-74.2704 1654.209,-72.4937 1655.3807,-79.3949"/>
</g>
<!-- Node28&#45;&gt;Node15 -->
<g id="edge33" class="edge">
<title>Node28&#45;&gt;Node15</title>
<path fill="none" stroke="#191970" d="M915.4029,-112.4369C861.3486,-102.6088 777.2898,-87.3254 720.5101,-77.0018"/>
<polygon fill="#191970" stroke="#191970" points="721.0549,-73.5436 710.5901,-75.1982 719.8027,-80.4307 721.0549,-73.5436"/>
</g>
<!-- Node35 -->
<g id="node36" class="node">
<title>Node35</title>
<polygon fill="none" stroke="#bfbfbf" points="2173,-112.5 2173,-131.5 2215,-131.5 2215,-112.5 2173,-112.5"/>
<text text-anchor="middle" x="2194" y="-119.5" font-family="Helvetica,sans-Serif" font-size="10.00" fill="#000000">array</text>
</g>
<!-- Node34&#45;&gt;Node35 -->
<g id="edge43" class="edge">
<title>Node34&#45;&gt;Node35</title>
<path fill="none" stroke="#191970" d="M2081.3792,-168.3733C2104.0408,-159.042 2138.5399,-144.8365 2163.3818,-134.6075"/>
<polygon fill="#191970" stroke="#191970" points="2164.7997,-137.8088 2172.7138,-130.7649 2162.1344,-131.3361 2164.7997,-137.8088"/>
</g>
<!-- Node34&#45;&gt;Node36 -->
<g id="edge44" class="edge">
<title>Node34&#45;&gt;Node36</title>
<path fill="none" stroke="#191970" d="M2015.6711,-168.4381C1977.0908,-157.7924 1929.3175,-138.5269 1952,-112 1983.7127,-74.9125 2115.8162,-86.2965 2179.3901,-75.7894"/>
<polygon fill="#191970" stroke="#191970" points="2180.2116,-79.1948 2189.3413,-73.8189 2178.8519,-72.3281 2180.2116,-79.1948"/>
</g>
<!-- Node37 -->
<g id="node38" class="node">
<title>Node37</title>
<g id="a_node38"><a xlink:href="../../df/d21/GPUCommonDef_8h.html" target="_top" xlink:title="GPUCommonDef.h">
<polygon fill="none" stroke="#000000" points="2337.5,-56.5 2337.5,-75.5 2444.5,-75.5 2444.5,-56.5 2337.5,-56.5"/>
<text text-anchor="middle" x="2391" y="-63.5" font-family="Helvetica,sans-Serif" font-size="10.00" fill="#000000">GPUCommonDef.h</text>
</a>
</g>
</g>
<!-- Node34&#45;&gt;Node37 -->
<g id="edge45" class="edge">
<title>Node34&#45;&gt;Node37</title>
<path fill="none" stroke="#191970" d="M2107.0345,-169.464C2110.0671,-168.9614 2113.0743,-168.4698 2116,-168 2223.3639,-150.7611 2269.9704,-195.8356 2358,-132 2373.1886,-120.9858 2381.7991,-100.9733 2386.3871,-85.8627"/>
<polygon fill="#191970" stroke="#191970" points="2389.8424,-86.4904 2389.0534,-75.925 2383.0815,-84.6764 2389.8424,-86.4904"/>
</g>
<!-- Node40 -->
<g id="node41" class="node">
<title>Node40</title>
<g id="a_node41"><a xlink:href="../../d6/da2/GPUCommonMath_8h.html" target="_top" xlink:title="GPUCommonMath.h">
<polygon fill="none" stroke="#000000" points="2233.5,-112.5 2233.5,-131.5 2348.5,-131.5 2348.5,-112.5 2233.5,-112.5"/>
<text text-anchor="middle" x="2291" y="-119.5" font-family="Helvetica,sans-Serif" font-size="10.00" fill="#000000">GPUCommonMath.h</text>
</a>
</g>
</g>
<!-- Node34&#45;&gt;Node40 -->
<g id="edge48" class="edge">
<title>Node34&#45;&gt;Node40</title>
<path fill="none" stroke="#191970" d="M2097.7894,-168.4369C2137.498,-158.8932 2198.6104,-144.2052 2241.4455,-133.9101"/>
<polygon fill="#191970" stroke="#191970" points="2242.4695,-137.2637 2251.3747,-131.5237 2240.8337,-130.4575 2242.4695,-137.2637"/>
</g>
<!-- Node42 -->
<g id="node43" class="node">
<title>Node42</title>
<g id="a_node43"><a xlink:href="../../d6/d84/MathConstants_8h.html" target="_top" xlink:title="useful math constants ">
<polygon fill="none" stroke="#000000" points="1961,-112.5 1961,-131.5 2155,-131.5 2155,-112.5 1961,-112.5"/>
<text text-anchor="middle" x="2058" y="-119.5" font-family="Helvetica,sans-Serif" font-size="10.00" fill="#000000">CommonConstants/MathConstants.h</text>
</a>
</g>
</g>
<!-- Node34&#45;&gt;Node42 -->
<g id="edge52" class="edge">
<title>Node34&#45;&gt;Node42</title>
<path fill="none" stroke="#191970" d="M2058,-168.2455C2058,-160.9382 2058,-150.6944 2058,-141.7046"/>
<polygon fill="#191970" stroke="#191970" points="2061.5001,-141.6426 2058,-131.6427 2054.5001,-141.6427 2061.5001,-141.6426"/>
</g>
<!-- Node38 -->
<g id="node39" class="node">
<title>Node38</title>
<g id="a_node39"><a xlink:href="../../d5/d93/GPUCommonDefSettings_8h.html" target="_top" xlink:title="GPUCommonDefSettings.h">
<polygon fill="none" stroke="#000000" points="2240,-.5 2240,-19.5 2388,-19.5 2388,-.5 2240,-.5"/>
<text text-anchor="middle" x="2314" y="-7.5" font-family="Helvetica,sans-Serif" font-size="10.00" fill="#000000">GPUCommonDefSettings.h</text>
</a>
</g>
</g>
<!-- Node37&#45;&gt;Node38 -->
<g id="edge46" class="edge">
<title>Node37&#45;&gt;Node38</title>
<path fill="none" stroke="#191970" d="M2377.5876,-56.2455C2365.9943,-47.814 2349.0252,-35.4729 2335.5322,-25.6598"/>
<polygon fill="#191970" stroke="#191970" points="2337.4047,-22.6938 2327.2587,-19.6427 2333.2874,-28.355 2337.4047,-22.6938"/>
</g>
<!-- Node39 -->
<g id="node40" class="node">
<title>Node39</title>
<g id="a_node40"><a xlink:href="../../da/d5a/GPUCommonDefAPI_8h.html" target="_top" xlink:title="GPUCommonDefAPI.h">
<polygon fill="none" stroke="#000000" points="2406,-.5 2406,-19.5 2530,-19.5 2530,-.5 2406,-.5"/>
<text text-anchor="middle" x="2468" y="-7.5" font-family="Helvetica,sans-Serif" font-size="10.00" fill="#000000">GPUCommonDefAPI.h</text>
</a>
</g>
</g>
<!-- Node37&#45;&gt;Node39 -->
<g id="edge47" class="edge">
<title>Node37&#45;&gt;Node39</title>
<path fill="none" stroke="#191970" d="M2404.4124,-56.2455C2416.0057,-47.814 2432.9748,-35.4729 2446.4678,-25.6598"/>
<polygon fill="#191970" stroke="#191970" points="2448.7126,-28.355 2454.7413,-19.6427 2444.5953,-22.6938 2448.7126,-28.355"/>
</g>
<!-- Node40&#45;&gt;Node36 -->
<g id="edge50" class="edge">
<title>Node40&#45;&gt;Node36</title>
<path fill="none" stroke="#191970" d="M2277.4134,-112.2455C2265.6695,-103.814 2248.4801,-91.4729 2234.8118,-81.6598"/>
<polygon fill="#191970" stroke="#191970" points="2236.5954,-78.6316 2226.4309,-75.6427 2232.5129,-84.3179 2236.5954,-78.6316"/>
</g>
<!-- Node40&#45;&gt;Node37 -->
<g id="edge49" class="edge">
<title>Node40&#45;&gt;Node37</title>
<path fill="none" stroke="#191970" d="M2308.4187,-112.2455C2324.0485,-103.4928 2347.2019,-90.527 2365.0185,-80.5496"/>
<polygon fill="#191970" stroke="#191970" points="2366.766,-83.5825 2373.7809,-75.6427 2363.3457,-77.475 2366.766,-83.5825"/>
</g>
<!-- Node41 -->
<g id="node42" class="node">
<title>Node41</title>
<polygon fill="none" stroke="#bfbfbf" points="2255,-56.5 2255,-75.5 2319,-75.5 2319,-56.5 2255,-56.5"/>
<text text-anchor="middle" x="2287" y="-63.5" font-family="Helvetica,sans-Serif" font-size="10.00" fill="#000000">algorithm</text>
</g>
<!-- Node40&#45;&gt;Node41 -->
<g id="edge51" class="edge">
<title>Node40&#45;&gt;Node41</title>
<path fill="none" stroke="#191970" d="M2290.3033,-112.2455C2289.7813,-104.9382 2289.0496,-94.6944 2288.4075,-85.7046"/>
<polygon fill="#191970" stroke="#191970" points="2291.8924,-85.3679 2287.6888,-75.6427 2284.9102,-85.8667 2291.8924,-85.3679"/>
</g>
<!-- Node44&#45;&gt;Node26 -->
<g id="edge57" class="edge">
<title>Node44&#45;&gt;Node26</title>
<path fill="none" stroke="#191970" d="M201.694,-224.3512C188.9661,-211.2676 165.2771,-187.3156 144,-168 109.075,-136.2947 66.4259,-101.4762 41.9195,-81.8225"/>
<polygon fill="#191970" stroke="#191970" points="44.0471,-79.0424 34.0503,-75.5331 39.6768,-84.5105 44.0471,-79.0424"/>
</g>
<!-- Node45 -->
<g id="node46" class="node">
<title>Node45</title>
<polygon fill="none" stroke="#bfbfbf" points="192,-168.5 192,-187.5 230,-187.5 230,-168.5 192,-168.5"/>
<text text-anchor="middle" x="211" y="-175.5" font-family="Helvetica,sans-Serif" font-size="10.00" fill="#000000">map</text>
</g>
<!-- Node44&#45;&gt;Node45 -->
<g id="edge56" class="edge">
<title>Node44&#45;&gt;Node45</title>
<path fill="none" stroke="#191970" d="M211,-224.2455C211,-216.9382 211,-206.6944 211,-197.7046"/>
<polygon fill="#191970" stroke="#191970" points="214.5001,-197.6426 211,-187.6427 207.5001,-197.6427 214.5001,-197.6426"/>
</g>
<!-- Node46 -->
<g id="node47" class="node">
<title>Node46</title>
<polygon fill="none" stroke="#bfbfbf" points="248.5,-168.5 248.5,-187.5 295.5,-187.5 295.5,-168.5 248.5,-168.5"/>
<text text-anchor="middle" x="272" y="-175.5" font-family="Helvetica,sans-Serif" font-size="10.00" fill="#000000">vector</text>
</g>
<!-- Node44&#45;&gt;Node46 -->
<g id="edge58" class="edge">
<title>Node44&#45;&gt;Node46</title>
<path fill="none" stroke="#191970" d="M221.6254,-224.2455C230.5473,-216.0549 243.488,-204.1749 254.0192,-194.5069"/>
<polygon fill="#191970" stroke="#191970" points="256.4968,-196.9837 261.4964,-187.6427 251.7629,-191.8271 256.4968,-196.9837"/>
</g>
<!-- Node47 -->
<g id="node48" class="node">
<title>Node47</title>
<polygon fill="none" stroke="#bfbfbf" points="76.5,-168.5 76.5,-187.5 135.5,-187.5 135.5,-168.5 76.5,-168.5"/>
<text text-anchor="middle" x="106" y="-175.5" font-family="Helvetica,sans-Serif" font-size="10.00" fill="#000000">Rtypes.h</text>
</g>
<!-- Node44&#45;&gt;Node47 -->
<g id="edge59" class="edge">
<title>Node44&#45;&gt;Node47</title>
<path fill="none" stroke="#191970" d="M192.7104,-224.2455C176.2238,-215.4527 151.7648,-202.4079 133.0235,-192.4125"/>
<polygon fill="#191970" stroke="#191970" points="134.5506,-189.2604 124.08,-187.6427 131.2565,-195.4368 134.5506,-189.2604"/>
</g>
</g>
</svg>
