<?xml version="1.0" encoding="UTF-8" standalone="no"?>
<!DOCTYPE svg PUBLIC "-//W3C//DTD SVG 1.1//EN"
 "http://www.w3.org/Graphics/SVG/1.1/DTD/svg11.dtd">
<!-- Generated by graphviz version 2.40.1 (20161225.0304)
 -->
<!-- Title: /home/travis/build/AliceO2Group/AliceO2/Detectors/ITSMFT/common/reconstruction/include/ITSMFTReconstruction/RawPixelDecoder.h Pages: 1 -->
<svg width="3952pt" height="575pt"
 viewBox="0.00 0.00 3951.52 575.00" xmlns="http://www.w3.org/2000/svg" xmlns:xlink="http://www.w3.org/1999/xlink">
<g id="graph0" class="graph" transform="scale(1 1) rotate(0) translate(4 571)">
<title>/home/travis/build/AliceO2Group/AliceO2/Detectors/ITSMFT/common/reconstruction/include/ITSMFTReconstruction/RawPixelDecoder.h</title>
<!-- Node0 -->
<g id="node1" class="node">
<title>Node0</title>
<polygon fill="#bfbfbf" stroke="#000000" points="1864.5,-503.5 1864.5,-566.5 2087.5,-566.5 2087.5,-503.5 1864.5,-503.5"/>
<text text-anchor="start" x="1872.5" y="-554.5" font-family="Helvetica,sans-Serif" font-size="10.00" fill="#000000">/home/travis/build</text>
<text text-anchor="start" x="1872.5" y="-543.5" font-family="Helvetica,sans-Serif" font-size="10.00" fill="#000000">/AliceO2Group/AliceO2</text>
<text text-anchor="start" x="1872.5" y="-532.5" font-family="Helvetica,sans-Serif" font-size="10.00" fill="#000000">/Detectors/ITSMFT/common</text>
<text text-anchor="start" x="1872.5" y="-521.5" font-family="Helvetica,sans-Serif" font-size="10.00" fill="#000000">/reconstruction/include</text>
<text text-anchor="middle" x="1976" y="-510.5" font-family="Helvetica,sans-Serif" font-size="10.00" fill="#000000">/ITSMFTReconstruction/RawPixelDecoder.h</text>
</g>
<!-- Node1 -->
<g id="node2" class="node">
<title>Node1</title>
<polygon fill="none" stroke="#bfbfbf" points="520,-112.5 520,-131.5 562,-131.5 562,-112.5 520,-112.5"/>
<text text-anchor="middle" x="541" y="-119.5" font-family="Helvetica,sans-Serif" font-size="10.00" fill="#000000">array</text>
</g>
<!-- Node0&#45;&gt;Node1 -->
<g id="edge1" class="edge">
<title>Node0&#45;&gt;Node1</title>
<path fill="none" stroke="#191970" d="M1864.4302,-532.8422C1572.0058,-526.691 788.2793,-506.8831 532,-467 391.971,-445.2082 224,-526.2145 224,-384.5 224,-384.5 224,-384.5 224,-250.5 224,-192.1943 273.3836,-193.1211 326,-168 326.523,-167.7503 450.1451,-141.3723 509.6736,-128.6784"/>
<polygon fill="#191970" stroke="#191970" points="510.6122,-132.057 519.6624,-126.5485 509.1523,-125.2109 510.6122,-132.057"/>
</g>
<!-- Node2 -->
<g id="node3" class="node">
<title>Node2</title>
<polygon fill="none" stroke="#bfbfbf" points="541.5,-442 541.5,-461 624.5,-461 624.5,-442 541.5,-442"/>
<text text-anchor="middle" x="583" y="-449" font-family="Helvetica,sans-Serif" font-size="10.00" fill="#000000">TStopwatch.h</text>
</g>
<!-- Node0&#45;&gt;Node2 -->
<g id="edge2" class="edge">
<title>Node0&#45;&gt;Node2</title>
<path fill="none" stroke="#191970" d="M1864.3706,-532.9354C1586.3234,-527.2163 868.3277,-508.753 633,-467 628.4993,-466.2015 623.837,-465.1184 619.2504,-463.8934"/>
<polygon fill="#191970" stroke="#191970" points="620.0019,-460.4671 609.4226,-461.0404 618.0503,-467.1896 620.0019,-460.4671"/>
</g>
<!-- Node3 -->
<g id="node4" class="node">
<title>Node3</title>
<g id="a_node4"><a xlink:href="../../dd/da4/Logger_8h.html" target="_top" xlink:title="Framework/Logger.h">
<polygon fill="none" stroke="#000000" points="642.5,-442 642.5,-461 757.5,-461 757.5,-442 642.5,-442"/>
<text text-anchor="middle" x="700" y="-449" font-family="Helvetica,sans-Serif" font-size="10.00" fill="#000000">Framework/Logger.h</text>
</a>
</g>
</g>
<!-- Node0&#45;&gt;Node3 -->
<g id="edge3" class="edge">
<title>Node0&#45;&gt;Node3</title>
<path fill="none" stroke="#191970" d="M1864.4292,-530.9227C1607.7069,-521.1801 981.1634,-495.2459 772,-467 764.511,-465.9887 756.6424,-464.6182 748.9686,-463.1082"/>
<polygon fill="#191970" stroke="#191970" points="749.542,-459.6529 739.0412,-461.0615 748.1284,-466.5087 749.542,-459.6529"/>
</g>
<!-- Node4 -->
<g id="node5" class="node">
<title>Node4</title>
<g id="a_node5"><a xlink:href="../../d3/d57/ChipMappingITS_8h.html" target="_top" xlink:title="ITSMFTReconstruction\l/ChipMappingITS.h">
<polygon fill="none" stroke="#000000" points="610.5,-302.5 610.5,-332.5 733.5,-332.5 733.5,-302.5 610.5,-302.5"/>
<text text-anchor="start" x="618.5" y="-320.5" font-family="Helvetica,sans-Serif" font-size="10.00" fill="#000000">ITSMFTReconstruction</text>
<text text-anchor="middle" x="672" y="-309.5" font-family="Helvetica,sans-Serif" font-size="10.00" fill="#000000">/ChipMappingITS.h</text>
</a>
</g>
</g>
<!-- Node0&#45;&gt;Node4 -->
<g id="edge4" class="edge">
<title>Node0&#45;&gt;Node4</title>
<path fill="none" stroke="#191970" d="M1864.2981,-533.2239C1590.9197,-528.2065 903.6566,-511.2996 810,-467 780.0178,-452.8184 719.7608,-378.9913 689.7817,-340.6601"/>
<polygon fill="#191970" stroke="#191970" points="692.4267,-338.3597 683.5255,-332.6134 686.9004,-342.6563 692.4267,-338.3597"/>
</g>
<!-- Node9 -->
<g id="node10" class="node">
<title>Node9</title>
<g id="a_node10"><a xlink:href="../../dc/dcd/DataHeader_8h.html" target="_top" xlink:title="Headers/DataHeader.h">
<polygon fill="none" stroke="#000000" points="1072.5,-174 1072.5,-193 1199.5,-193 1199.5,-174 1072.5,-174"/>
<text text-anchor="middle" x="1136" y="-181" font-family="Helvetica,sans-Serif" font-size="10.00" fill="#000000">Headers/DataHeader.h</text>
</a>
</g>
</g>
<!-- Node0&#45;&gt;Node9 -->
<g id="edge90" class="edge">
<title>Node0&#45;&gt;Node9</title>
<path fill="none" stroke="#191970" d="M1864.4947,-532.0083C1575.3868,-522.7761 824,-488.7534 824,-384.5 824,-384.5 824,-384.5 824,-317.5 824,-274.3929 839.568,-259.5519 875,-235 890.5001,-224.2595 992.4492,-206.2628 1064.2364,-194.6396"/>
<polygon fill="#191970" stroke="#191970" points="1064.8369,-198.0881 1074.1535,-193.0432 1063.7244,-191.177 1064.8369,-198.0881"/>
</g>
<!-- Node30 -->
<g id="node31" class="node">
<title>Node30</title>
<g id="a_node31"><a xlink:href="../../d0/d6b/ChipMappingMFT_8h.html" target="_top" xlink:title="ITSMFTReconstruction\l/ChipMappingMFT.h">
<polygon fill="none" stroke="#000000" points="852.5,-302.5 852.5,-332.5 975.5,-332.5 975.5,-302.5 852.5,-302.5"/>
<text text-anchor="start" x="860.5" y="-320.5" font-family="Helvetica,sans-Serif" font-size="10.00" fill="#000000">ITSMFTReconstruction</text>
<text text-anchor="middle" x="914" y="-309.5" font-family="Helvetica,sans-Serif" font-size="10.00" fill="#000000">/ChipMappingMFT.h</text>
</a>
</g>
</g>
<!-- Node0&#45;&gt;Node30 -->
<g id="edge45" class="edge">
<title>Node0&#45;&gt;Node30</title>
<path fill="none" stroke="#191970" d="M1864.4882,-520.0272C1711.7057,-498.5542 1429.2118,-455.4172 1192,-400 1113.3793,-381.6327 1024.1643,-353.9016 968.4825,-335.7466"/>
<polygon fill="#191970" stroke="#191970" points="969.4177,-332.37 958.8251,-332.5841 967.2392,-339.0224 969.4177,-332.37"/>
</g>
<!-- Node32 -->
<g id="node33" class="node">
<title>Node32</title>
<g id="a_node33"><a xlink:href="../../d1/dec/HBFUtils_8h.html" target="_top" xlink:title="DetectorsRaw/HBFUtils.h">
<polygon fill="none" stroke="#000000" points="1804.5,-375 1804.5,-394 1943.5,-394 1943.5,-375 1804.5,-375"/>
<text text-anchor="middle" x="1874" y="-382" font-family="Helvetica,sans-Serif" font-size="10.00" fill="#000000">DetectorsRaw/HBFUtils.h</text>
</a>
</g>
</g>
<!-- Node0&#45;&gt;Node32 -->
<g id="edge52" class="edge">
<title>Node0&#45;&gt;Node32</title>
<path fill="none" stroke="#191970" d="M1954.6175,-503.4503C1933.8976,-472.8783 1903.1966,-427.5793 1886.2869,-402.6291"/>
<polygon fill="#191970" stroke="#191970" points="1889.0385,-400.4506 1880.5309,-394.1362 1883.2439,-404.3778 1889.0385,-400.4506"/>
</g>
<!-- Node35 -->
<g id="node36" class="node">
<title>Node35</title>
<g id="a_node36"><a xlink:href="../../d4/d78/DataFormats_2Headers_2include_2Headers_2RAWDataHeader_8h.html" target="_top" xlink:title="Headers/RAWDataHeader.h">
<polygon fill="none" stroke="#000000" points="1853.5,-174 1853.5,-193 2002.5,-193 2002.5,-174 1853.5,-174"/>
<text text-anchor="middle" x="1928" y="-181" font-family="Helvetica,sans-Serif" font-size="10.00" fill="#000000">Headers/RAWDataHeader.h</text>
</a>
</g>
</g>
<!-- Node0&#45;&gt;Node35 -->
<g id="edge89" class="edge">
<title>Node0&#45;&gt;Node35</title>
<path fill="none" stroke="#191970" d="M1974.2283,-503.1905C1971.4428,-458.1895 1965.1699,-373.456 1954,-302 1948.4959,-266.7895 1938.9095,-226.3565 1933.0416,-202.9865"/>
<polygon fill="#191970" stroke="#191970" points="1936.4233,-202.083 1930.5645,-193.2555 1929.6397,-203.8099 1936.4233,-202.083"/>
</g>
<!-- Node37 -->
<g id="node38" class="node">
<title>Node37</title>
<g id="a_node38"><a xlink:href="../../d9/d80/InteractionRecord_8h.html" target="_top" xlink:title="CommonDataFormat/Interaction\lRecord.h">
<polygon fill="none" stroke="#000000" points="2905,-168.5 2905,-198.5 3079,-198.5 3079,-168.5 2905,-168.5"/>
<text text-anchor="start" x="2913" y="-186.5" font-family="Helvetica,sans-Serif" font-size="10.00" fill="#000000">CommonDataFormat/Interaction</text>
<text text-anchor="middle" x="2992" y="-175.5" font-family="Helvetica,sans-Serif" font-size="10.00" fill="#000000">Record.h</text>
</a>
</g>
</g>
<!-- Node0&#45;&gt;Node37 -->
<g id="edge91" class="edge">
<title>Node0&#45;&gt;Node37</title>
<path fill="none" stroke="#191970" d="M2087.5324,-533.0987C2259.1362,-528.719 2597.7682,-514.3039 2881,-467 2997.0032,-447.6258 3036.7529,-461.503 3137,-400 3214.0676,-352.7179 3313.4881,-304.7863 3256,-235 3245.1225,-221.7955 3160.1907,-206.8329 3089.5513,-196.4518"/>
<polygon fill="#191970" stroke="#191970" points="3089.6427,-192.9284 3079.2433,-194.9541 3088.6362,-199.8557 3089.6427,-192.9284"/>
</g>
<!-- Node52 -->
<g id="node53" class="node">
<title>Node52</title>
<g id="a_node53"><a xlink:href="../../d0/dd1/GBTLink_8h.html" target="_top" xlink:title="Declarations of helper classes for the ITS/MFT raw data decoding. ">
<polygon fill="none" stroke="#000000" points="2748.5,-436.5 2748.5,-466.5 2871.5,-466.5 2871.5,-436.5 2748.5,-436.5"/>
<text text-anchor="start" x="2756.5" y="-454.5" font-family="Helvetica,sans-Serif" font-size="10.00" fill="#000000">ITSMFTReconstruction</text>
<text text-anchor="middle" x="2810" y="-443.5" font-family="Helvetica,sans-Serif" font-size="10.00" fill="#000000">/GBTLink.h</text>
</a>
</g>
</g>
<!-- Node0&#45;&gt;Node52 -->
<g id="edge92" class="edge">
<title>Node0&#45;&gt;Node52</title>
<path fill="none" stroke="#191970" d="M2087.5586,-528.9032C2235.7818,-519.9104 2505.5443,-500.437 2734,-467 2735.4573,-466.7867 2736.9288,-466.5633 2738.4107,-466.3312"/>
<polygon fill="#191970" stroke="#191970" points="2739.0106,-469.7795 2748.2997,-464.684 2737.8605,-462.8747 2739.0106,-469.7795"/>
</g>
<!-- Node58 -->
<g id="node59" class="node">
<title>Node58</title>
<g id="a_node59"><a xlink:href="../../db/d0e/RUDecodeData_8h.html" target="_top" xlink:title="Declaration of the Readout Unite decoder class. ">
<polygon fill="none" stroke="#000000" points="2568.5,-369.5 2568.5,-399.5 2691.5,-399.5 2691.5,-369.5 2568.5,-369.5"/>
<text text-anchor="start" x="2576.5" y="-387.5" font-family="Helvetica,sans-Serif" font-size="10.00" fill="#000000">ITSMFTReconstruction</text>
<text text-anchor="middle" x="2630" y="-376.5" font-family="Helvetica,sans-Serif" font-size="10.00" fill="#000000">/RUDecodeData.h</text>
</a>
</g>
</g>
<!-- Node0&#45;&gt;Node58 -->
<g id="edge141" class="edge">
<title>Node0&#45;&gt;Node58</title>
<path fill="none" stroke="#191970" d="M2087.525,-527.6273C2183.9353,-519.1928 2326.2453,-501.7721 2446,-467 2499.3913,-451.4972 2557.349,-423.4802 2593.6611,-404.4412"/>
<polygon fill="#191970" stroke="#191970" points="2595.6612,-407.3424 2602.8586,-399.5675 2592.3836,-401.1571 2595.6612,-407.3424"/>
</g>
<!-- Node59 -->
<g id="node60" class="node">
<title>Node59</title>
<g id="a_node60"><a xlink:href="../../da/d8d/PixelData_8h.html" target="_top" xlink:title="Transient data classes for single pixel and set of pixels from current chip. ">
<polygon fill="none" stroke="#000000" points="2542.5,-235.5 2542.5,-265.5 2665.5,-265.5 2665.5,-235.5 2542.5,-235.5"/>
<text text-anchor="start" x="2550.5" y="-253.5" font-family="Helvetica,sans-Serif" font-size="10.00" fill="#000000">ITSMFTReconstruction</text>
<text text-anchor="middle" x="2604" y="-242.5" font-family="Helvetica,sans-Serif" font-size="10.00" fill="#000000">/PixelData.h</text>
</a>
</g>
</g>
<!-- Node0&#45;&gt;Node59 -->
<g id="edge164" class="edge">
<title>Node0&#45;&gt;Node59</title>
<path fill="none" stroke="#191970" d="M2045.6064,-503.4665C2176.4242,-444.2027 2455.3507,-317.8419 2561.6524,-269.6846"/>
<polygon fill="#191970" stroke="#191970" points="2563.1322,-272.8566 2570.7967,-265.5419 2560.2435,-266.4804 2563.1322,-272.8566"/>
</g>
<!-- Node65 -->
<g id="node66" class="node">
<title>Node65</title>
<g id="a_node66"><a xlink:href="../../df/d2e/PixelReader_8h.html" target="_top" xlink:title="Abstract class for Alpide data reader class. ">
<polygon fill="none" stroke="#000000" points="2865.5,-302.5 2865.5,-332.5 2988.5,-332.5 2988.5,-302.5 2865.5,-302.5"/>
<text text-anchor="start" x="2873.5" y="-320.5" font-family="Helvetica,sans-Serif" font-size="10.00" fill="#000000">ITSMFTReconstruction</text>
<text text-anchor="middle" x="2927" y="-309.5" font-family="Helvetica,sans-Serif" font-size="10.00" fill="#000000">/PixelReader.h</text>
</a>
</g>
</g>
<!-- Node0&#45;&gt;Node65 -->
<g id="edge142" class="edge">
<title>Node0&#45;&gt;Node65</title>
<path fill="none" stroke="#191970" d="M2087.5635,-526.6219C2193.994,-517.1863 2358.3293,-498.8445 2498,-467 2590.6322,-445.8801 2611.2536,-431.1825 2701,-400 2761.9617,-378.8187 2831.6627,-353.1527 2877.3468,-336.1313"/>
<polygon fill="#191970" stroke="#191970" points="2878.573,-339.4096 2886.7189,-332.6351 2876.1263,-332.851 2878.573,-339.4096"/>
</g>
<!-- Node68 -->
<g id="node69" class="node">
<title>Node68</title>
<g id="a_node69"><a xlink:href="../../d0/dc6/ITSMFT_2common_2include_2DataFormatsITSMFT_2ROFRecord_8h.html" target="_top" xlink:title="DataFormatsITSMFT/ROFRecord.h">
<polygon fill="none" stroke="#000000" points="3678.5,-241 3678.5,-260 3857.5,-260 3857.5,-241 3678.5,-241"/>
<text text-anchor="middle" x="3768" y="-248" font-family="Helvetica,sans-Serif" font-size="10.00" fill="#000000">DataFormatsITSMFT/ROFRecord.h</text>
</a>
</g>
</g>
<!-- Node0&#45;&gt;Node68 -->
<g id="edge159" class="edge">
<title>Node0&#45;&gt;Node68</title>
<path fill="none" stroke="#191970" d="M2087.6758,-532.759C2441.7352,-525.3302 3519.9238,-500.0932 3587,-467 3675.8582,-423.1603 3737.2851,-313.4636 3759.1637,-269.3291"/>
<polygon fill="#191970" stroke="#191970" points="3762.3418,-270.7968 3763.5508,-260.2711 3756.0418,-267.7454 3762.3418,-270.7968"/>
</g>
<!-- Node4&#45;&gt;Node1 -->
<g id="edge6" class="edge">
<title>Node4&#45;&gt;Node1</title>
<path fill="none" stroke="#191970" d="M620.2888,-302.4456C601.4935,-294.4952 581.758,-282.7963 569,-266 540.8608,-228.9538 538.6225,-171.4606 539.6492,-141.5607"/>
<polygon fill="#191970" stroke="#191970" points="543.1457,-141.7166 540.1554,-131.5525 536.1547,-141.3629 543.1457,-141.7166"/>
</g>
<!-- Node5 -->
<g id="node6" class="node">
<title>Node5</title>
<polygon fill="none" stroke="#bfbfbf" points="2324.5,-56.5 2324.5,-75.5 2383.5,-75.5 2383.5,-56.5 2324.5,-56.5"/>
<text text-anchor="middle" x="2354" y="-63.5" font-family="Helvetica,sans-Serif" font-size="10.00" fill="#000000">Rtypes.h</text>
</g>
<!-- Node4&#45;&gt;Node5 -->
<g id="edge5" class="edge">
<title>Node4&#45;&gt;Node5</title>
<path fill="none" stroke="#191970" d="M621.8537,-302.3233C604.5316,-294.4075 586.9814,-282.7647 577,-266 569.9516,-254.1616 573.4851,-248.3219 577,-235 599.7029,-148.9524 648.4026,-132.5062 735,-112 892.8149,-74.6296 2081.0433,-67.2563 2314.324,-66.164"/>
<polygon fill="#191970" stroke="#191970" points="2314.4124,-69.6637 2324.3962,-66.118 2314.3803,-62.6638 2314.4124,-69.6637"/>
</g>
<!-- Node6 -->
<g id="node7" class="node">
<title>Node6</title>
<polygon fill="none" stroke="#bfbfbf" points="328.5,-241 328.5,-260 377.5,-260 377.5,-241 328.5,-241"/>
<text text-anchor="middle" x="353" y="-248" font-family="Helvetica,sans-Serif" font-size="10.00" fill="#000000">cstdlib</text>
</g>
<!-- Node4&#45;&gt;Node6 -->
<g id="edge7" class="edge">
<title>Node4&#45;&gt;Node6</title>
<path fill="none" stroke="#191970" d="M610.2973,-309.7054C553.0221,-301.6375 465.7443,-287.2131 392,-266 389.5493,-265.295 387.0397,-264.4931 384.5331,-263.6339"/>
<polygon fill="#191970" stroke="#191970" points="385.605,-260.2988 375.0117,-260.1202 383.1815,-266.8659 385.605,-260.2988"/>
</g>
<!-- Node7 -->
<g id="node8" class="node">
<title>Node7</title>
<polygon fill="none" stroke="#bfbfbf" points="1927,-112.5 1927,-131.5 1977,-131.5 1977,-112.5 1927,-112.5"/>
<text text-anchor="middle" x="1952" y="-119.5" font-family="Helvetica,sans-Serif" font-size="10.00" fill="#000000">cstdint</text>
</g>
<!-- Node4&#45;&gt;Node7 -->
<g id="edge8" class="edge">
<title>Node4&#45;&gt;Node7</title>
<path fill="none" stroke="#191970" d="M733.6451,-311.2929C766.3987,-308.1598 807.3573,-304.5031 844,-302 886.891,-299.07 1587.3163,-297.0983 1617,-266 1626.513,-256.0336 1625.3084,-245.9908 1617,-235 1581.6215,-188.199 1525.3785,-245.801 1490,-199 1481.6916,-188.0092 1480.7528,-178.2136 1490,-168 1518.5089,-136.5115 1813.2993,-125.6909 1916.5304,-122.851"/>
<polygon fill="#191970" stroke="#191970" points="1916.8469,-126.3439 1926.7502,-122.579 1916.6605,-119.3464 1916.8469,-126.3439"/>
</g>
<!-- Node8 -->
<g id="node9" class="node">
<title>Node8</title>
<polygon fill="none" stroke="#bfbfbf" points="744,-112.5 744,-131.5 788,-131.5 788,-112.5 744,-112.5"/>
<text text-anchor="middle" x="766" y="-119.5" font-family="Helvetica,sans-Serif" font-size="10.00" fill="#000000">string</text>
</g>
<!-- Node4&#45;&gt;Node8 -->
<g id="edge9" class="edge">
<title>Node4&#45;&gt;Node8</title>
<path fill="none" stroke="#191970" d="M621.8537,-302.3233C604.5316,-294.4075 586.9814,-282.7647 577,-266 569.9516,-254.1616 573.4851,-248.3219 577,-235 585.7334,-201.899 588.2796,-189.4003 615,-168 649.6457,-140.2523 700.8972,-129.2023 733.8727,-124.8284"/>
<polygon fill="#191970" stroke="#191970" points="734.379,-128.2929 743.8926,-123.6302 733.5477,-121.3424 734.379,-128.2929"/>
</g>
<!-- Node4&#45;&gt;Node9 -->
<g id="edge10" class="edge">
<title>Node4&#45;&gt;Node9</title>
<path fill="none" stroke="#191970" d="M701.7028,-302.326C720.447,-292.4826 744.9984,-279.0936 766,-266 786.2996,-253.3441 787.8314,-243.989 810,-235 832.9443,-225.6964 973.5074,-205.4803 1062.4095,-193.3277"/>
<polygon fill="#191970" stroke="#191970" points="1063.0126,-196.7779 1072.4484,-191.9596 1062.0673,-189.842 1063.0126,-196.7779"/>
</g>
<!-- Node18 -->
<g id="node19" class="node">
<title>Node18</title>
<g id="a_node19"><a xlink:href="../../dc/dd8/RUInfo_8h.html" target="_top" xlink:title="ITSMFTReconstruction\l/RUInfo.h">
<polygon fill="none" stroke="#000000" points="928.5,-235.5 928.5,-265.5 1051.5,-265.5 1051.5,-235.5 928.5,-235.5"/>
<text text-anchor="start" x="936.5" y="-253.5" font-family="Helvetica,sans-Serif" font-size="10.00" fill="#000000">ITSMFTReconstruction</text>
<text text-anchor="middle" x="990" y="-242.5" font-family="Helvetica,sans-Serif" font-size="10.00" fill="#000000">/RUInfo.h</text>
</a>
</g>
</g>
<!-- Node4&#45;&gt;Node18 -->
<g id="edge21" class="edge">
<title>Node4&#45;&gt;Node18</title>
<path fill="none" stroke="#191970" d="M733.6907,-304.5023C786.5714,-293.3608 862.7851,-277.3031 918.3554,-265.5949"/>
<polygon fill="#191970" stroke="#191970" points="919.4175,-268.9481 928.481,-263.4615 917.9743,-262.0985 919.4175,-268.9481"/>
</g>
<!-- Node19 -->
<g id="node20" class="node">
<title>Node19</title>
<g id="a_node20"><a xlink:href="../../d6/d31/DetID_8h.html" target="_top" xlink:title="DetectorsCommonDataFormats\l/DetID.h">
<polygon fill="none" stroke="#000000" points="586.5,-235.5 586.5,-265.5 757.5,-265.5 757.5,-235.5 586.5,-235.5"/>
<text text-anchor="start" x="594.5" y="-253.5" font-family="Helvetica,sans-Serif" font-size="10.00" fill="#000000">DetectorsCommonDataFormats</text>
<text text-anchor="middle" x="672" y="-242.5" font-family="Helvetica,sans-Serif" font-size="10.00" fill="#000000">/DetID.h</text>
</a>
</g>
</g>
<!-- Node4&#45;&gt;Node19 -->
<g id="edge24" class="edge">
<title>Node4&#45;&gt;Node19</title>
<path fill="none" stroke="#191970" d="M672,-302.2967C672,-294.5013 672,-284.7991 672,-275.9064"/>
<polygon fill="#191970" stroke="#191970" points="675.5001,-275.6431 672,-265.6432 668.5001,-275.6432 675.5001,-275.6431"/>
</g>
<!-- Node9&#45;&gt;Node7 -->
<g id="edge11" class="edge">
<title>Node9&#45;&gt;Node7</title>
<path fill="none" stroke="#191970" d="M1199.7169,-176.741C1227.9694,-173.8546 1261.6256,-170.5669 1292,-168 1530.5279,-147.8421 1818.0977,-130.0188 1916.7792,-124.0884"/>
<polygon fill="#191970" stroke="#191970" points="1917.0296,-127.5798 1926.8024,-123.488 1916.611,-120.5923 1917.0296,-127.5798"/>
</g>
<!-- Node9&#45;&gt;Node8 -->
<g id="edge17" class="edge">
<title>Node9&#45;&gt;Node8</title>
<path fill="none" stroke="#191970" d="M1078.5935,-173.9581C999.9226,-160.8817 861.2317,-137.829 798.4706,-127.3971"/>
<polygon fill="#191970" stroke="#191970" points="798.8054,-123.9048 788.3668,-125.7177 797.6576,-130.8101 798.8054,-123.9048"/>
</g>
<!-- Node10 -->
<g id="node11" class="node">
<title>Node10</title>
<polygon fill="none" stroke="#bfbfbf" points="3731,-112.5 3731,-131.5 3789,-131.5 3789,-112.5 3731,-112.5"/>
<text text-anchor="middle" x="3760" y="-119.5" font-family="Helvetica,sans-Serif" font-size="10.00" fill="#000000">memory</text>
</g>
<!-- Node9&#45;&gt;Node10 -->
<g id="edge12" class="edge">
<title>Node9&#45;&gt;Node10</title>
<path fill="none" stroke="#191970" d="M1199.6998,-177.2749C1236.5599,-173.9304 1283.8542,-170.0775 1326,-168 2260.1138,-121.9543 2495.0147,-154.1644 3430,-132 3535.0863,-129.5089 3658.9625,-125.455 3720.7788,-123.3558"/>
<polygon fill="#191970" stroke="#191970" points="3720.9937,-126.8506 3730.8686,-123.0118 3720.7551,-119.8547 3720.9937,-126.8506"/>
</g>
<!-- Node11 -->
<g id="node12" class="node">
<title>Node11</title>
<polygon fill="none" stroke="#bfbfbf" points="1084,-112.5 1084,-131.5 1136,-131.5 1136,-112.5 1084,-112.5"/>
<text text-anchor="middle" x="1110" y="-119.5" font-family="Helvetica,sans-Serif" font-size="10.00" fill="#000000">cassert</text>
</g>
<!-- Node9&#45;&gt;Node11 -->
<g id="edge13" class="edge">
<title>Node9&#45;&gt;Node11</title>
<path fill="none" stroke="#191970" d="M1131.9375,-173.8906C1128.2576,-165.1862 1122.7258,-152.1015 1118.138,-141.2494"/>
<polygon fill="#191970" stroke="#191970" points="1121.2375,-139.5927 1114.1198,-131.7449 1114.79,-142.3185 1121.2375,-139.5927"/>
</g>
<!-- Node12 -->
<g id="node13" class="node">
<title>Node12</title>
<polygon fill="none" stroke="#bfbfbf" points="2799,-112.5 2799,-131.5 2849,-131.5 2849,-112.5 2799,-112.5"/>
<text text-anchor="middle" x="2824" y="-119.5" font-family="Helvetica,sans-Serif" font-size="10.00" fill="#000000">cstring</text>
</g>
<!-- Node9&#45;&gt;Node12 -->
<g id="edge14" class="edge">
<title>Node9&#45;&gt;Node12</title>
<path fill="none" stroke="#191970" d="M1199.7112,-177.4913C1236.575,-174.2179 1283.8693,-170.3638 1326,-168 1910.0295,-135.2318 2623.5501,-124.5412 2788.7257,-122.4228"/>
<polygon fill="#191970" stroke="#191970" points="2788.8504,-125.9216 2798.8054,-122.2955 2788.7619,-118.9221 2788.8504,-125.9216"/>
</g>
<!-- Node13 -->
<g id="node14" class="node">
<title>Node13</title>
<polygon fill="none" stroke="#bfbfbf" points="326,-56.5 326,-75.5 390,-75.5 390,-56.5 326,-56.5"/>
<text text-anchor="middle" x="358" y="-63.5" font-family="Helvetica,sans-Serif" font-size="10.00" fill="#000000">algorithm</text>
</g>
<!-- Node9&#45;&gt;Node13 -->
<g id="edge15" class="edge">
<title>Node9&#45;&gt;Node13</title>
<path fill="none" stroke="#191970" d="M1093.2341,-173.9394C1047.9341,-163.7589 974.3503,-147.07 911,-132 874.9255,-123.4185 866.5504,-118.2516 830,-112 666.708,-84.0703 623.8732,-92.1613 459,-76 439.7065,-74.1088 418.3419,-71.9962 400.2499,-70.2017"/>
<polygon fill="#191970" stroke="#191970" points="400.5904,-66.7184 390.2936,-69.2136 399.899,-73.6842 400.5904,-66.7184"/>
</g>
<!-- Node14 -->
<g id="node15" class="node">
<title>Node14</title>
<polygon fill="none" stroke="#bfbfbf" points="1399.5,-112.5 1399.5,-131.5 1464.5,-131.5 1464.5,-112.5 1399.5,-112.5"/>
<text text-anchor="middle" x="1432" y="-119.5" font-family="Helvetica,sans-Serif" font-size="10.00" fill="#000000">stdexcept</text>
</g>
<!-- Node9&#45;&gt;Node14 -->
<g id="edge16" class="edge">
<title>Node9&#45;&gt;Node14</title>
<path fill="none" stroke="#191970" d="M1181.9252,-173.9581C1238.6399,-162.1745 1334.3461,-142.2896 1389.4565,-130.8393"/>
<polygon fill="#191970" stroke="#191970" points="1390.1769,-134.2644 1399.2558,-128.8033 1388.7529,-127.4108 1390.1769,-134.2644"/>
</g>
<!-- Node15 -->
<g id="node16" class="node">
<title>Node15</title>
<polygon fill="none" stroke="#bfbfbf" points="2215,-112.5 2215,-131.5 2265,-131.5 2265,-112.5 2215,-112.5"/>
<text text-anchor="middle" x="2240" y="-119.5" font-family="Helvetica,sans-Serif" font-size="10.00" fill="#000000">climits</text>
</g>
<!-- Node9&#45;&gt;Node15 -->
<g id="edge18" class="edge">
<title>Node9&#45;&gt;Node15</title>
<path fill="none" stroke="#191970" d="M1199.7303,-177.8031C1236.6003,-174.632 1283.8944,-170.7763 1326,-168 1668.026,-145.4476 2082.6977,-128.2375 2204.6692,-123.382"/>
<polygon fill="#191970" stroke="#191970" points="2205.0495,-126.8698 2214.903,-122.9763 2204.7722,-119.8752 2205.0495,-126.8698"/>
</g>
<!-- Node16 -->
<g id="node17" class="node">
<title>Node16</title>
<g id="a_node17"><a xlink:href="../../d7/df8/Types_8h.html" target="_top" xlink:title="MemoryResources/Types.h">
<polygon fill="none" stroke="#000000" points="920,-112.5 920,-131.5 1066,-131.5 1066,-112.5 920,-112.5"/>
<text text-anchor="middle" x="993" y="-119.5" font-family="Helvetica,sans-Serif" font-size="10.00" fill="#000000">MemoryResources/Types.h</text>
</a>
</g>
</g>
<!-- Node9&#45;&gt;Node16 -->
<g id="edge19" class="edge">
<title>Node9&#45;&gt;Node16</title>
<path fill="none" stroke="#191970" d="M1113.6563,-173.8906C1089.7297,-163.6005 1051.5691,-147.1888 1024.5784,-135.5809"/>
<polygon fill="#191970" stroke="#191970" points="1025.7561,-132.2775 1015.1869,-131.5419 1022.9905,-138.708 1025.7561,-132.2775"/>
</g>
<!-- Node17 -->
<g id="node18" class="node">
<title>Node17</title>
<polygon fill="none" stroke="#bfbfbf" points="1154.5,-112.5 1154.5,-131.5 1201.5,-131.5 1201.5,-112.5 1154.5,-112.5"/>
<text text-anchor="middle" x="1178" y="-119.5" font-family="Helvetica,sans-Serif" font-size="10.00" fill="#000000">cerrno</text>
</g>
<!-- Node9&#45;&gt;Node17 -->
<g id="edge20" class="edge">
<title>Node9&#45;&gt;Node17</title>
<path fill="none" stroke="#191970" d="M1142.5625,-173.8906C1148.6908,-164.917 1157.9985,-151.2879 1165.5372,-140.2491"/>
<polygon fill="#191970" stroke="#191970" points="1168.5956,-141.9768 1171.345,-131.7449 1162.815,-138.029 1168.5956,-141.9768"/>
</g>
<!-- Node18&#45;&gt;Node5 -->
<g id="edge22" class="edge">
<title>Node18&#45;&gt;Node5</title>
<path fill="none" stroke="#191970" d="M1051.5578,-236.9838C1054.7499,-236.3072 1057.9119,-235.6424 1061,-235 1141.7277,-218.2058 1168.169,-233.6315 1243,-199 1263.0945,-189.7004 1263.3957,-180.0063 1282,-168 1327.7619,-138.4675 1338.3829,-126.0629 1391,-112 1481.0822,-87.9239 2143.985,-70.9086 2314.2349,-66.9039"/>
<polygon fill="#191970" stroke="#191970" points="2314.3554,-70.4021 2324.2709,-66.6695 2314.1919,-63.404 2314.3554,-70.4021"/>
</g>
<!-- Node18&#45;&gt;Node7 -->
<g id="edge23" class="edge">
<title>Node18&#45;&gt;Node7</title>
<path fill="none" stroke="#191970" d="M1051.5324,-236.8561C1054.7311,-236.2128 1057.9015,-235.5901 1061,-235 1158.7595,-216.3805 1189.8663,-236.6163 1282,-199 1304.1469,-189.9579 1303.4763,-176.0578 1326,-168 1381.6448,-148.0932 1792.4795,-128.8935 1916.5921,-123.4964"/>
<polygon fill="#191970" stroke="#191970" points="1916.858,-126.9883 1926.6976,-123.06 1916.5559,-119.9948 1916.858,-126.9883"/>
</g>
<!-- Node19&#45;&gt;Node1 -->
<g id="edge26" class="edge">
<title>Node19&#45;&gt;Node1</title>
<path fill="none" stroke="#191970" d="M654.7518,-235.4841C643.2944,-225.3721 628.0214,-211.6266 615,-199 594.3709,-178.9963 571.5974,-154.9915 556.837,-139.1619"/>
<polygon fill="#191970" stroke="#191970" points="559.2717,-136.6402 549.9025,-131.6937 554.1421,-141.4033 559.2717,-136.6402"/>
</g>
<!-- Node19&#45;&gt;Node5 -->
<g id="edge25" class="edge">
<title>Node19&#45;&gt;Node5</title>
<path fill="none" stroke="#191970" d="M709.8193,-235.4803C732.4316,-225.9972 761.4456,-212.9345 786,-199 844.8683,-165.5926 846.7481,-133.289 911,-112 979.3967,-89.3377 2089.4246,-70.2697 2314.4123,-66.6269"/>
<polygon fill="#191970" stroke="#191970" points="2314.5071,-70.126 2324.4493,-66.4652 2314.3942,-63.1269 2314.5071,-70.126"/>
</g>
<!-- Node19&#45;&gt;Node7 -->
<g id="edge29" class="edge">
<title>Node19&#45;&gt;Node7</title>
<path fill="none" stroke="#191970" d="M757.7204,-235.6764C835.3502,-222.169 940.4804,-203.6388 960,-199 1006.9251,-187.8483 1016.4692,-176.1944 1064,-168 1232.2655,-138.9907 1772.7976,-125.7681 1916.5883,-122.7103"/>
<polygon fill="#191970" stroke="#191970" points="1916.7016,-126.2088 1926.626,-122.4998 1916.5547,-119.2104 1916.7016,-126.2088"/>
</g>
<!-- Node19&#45;&gt;Node8 -->
<g id="edge31" class="edge">
<title>Node19&#45;&gt;Node8</title>
<path fill="none" stroke="#191970" d="M722.6603,-235.4444C740.1629,-227.5435 757.9004,-215.8792 768,-199 778.3637,-181.6796 775.8112,-158.016 771.9707,-141.5103"/>
<polygon fill="#191970" stroke="#191970" points="775.3482,-140.5922 769.3837,-131.8358 768.5858,-142.4006 775.3482,-140.5922"/>
</g>
<!-- Node19&#45;&gt;Node9 -->
<g id="edge44" class="edge">
<title>Node19&#45;&gt;Node9</title>
<path fill="none" stroke="#191970" d="M757.6336,-237.1506C762.493,-236.4168 767.3078,-235.6955 772,-235 872.3959,-220.1178 988.5171,-203.8528 1062.0889,-193.6654"/>
<polygon fill="#191970" stroke="#191970" points="1062.7558,-197.1065 1072.1817,-192.269 1061.7964,-190.1726 1062.7558,-197.1065"/>
</g>
<!-- Node19&#45;&gt;Node11 -->
<g id="edge28" class="edge">
<title>Node19&#45;&gt;Node11</title>
<path fill="none" stroke="#191970" d="M753.957,-235.4772C799.1983,-226.4331 856.1564,-213.8075 906,-199 922.8247,-194.0017 1022.3348,-155.8346 1075.8989,-135.1795"/>
<polygon fill="#191970" stroke="#191970" points="1077.2658,-138.4037 1085.3355,-131.5385 1074.7459,-131.8729 1077.2658,-138.4037"/>
</g>
<!-- Node20 -->
<g id="node21" class="node">
<title>Node20</title>
<polygon fill="none" stroke="#bfbfbf" points="624,-174 624,-193 668,-193 668,-174 624,-174"/>
<text text-anchor="middle" x="646" y="-181" font-family="Helvetica,sans-Serif" font-size="10.00" fill="#000000">bitset</text>
</g>
<!-- Node19&#45;&gt;Node20 -->
<g id="edge27" class="edge">
<title>Node19&#45;&gt;Node20</title>
<path fill="none" stroke="#191970" d="M666.1002,-235.2967C662.3246,-225.5672 657.3963,-212.8675 653.3647,-202.4784"/>
<polygon fill="#191970" stroke="#191970" points="656.5886,-201.1114 649.7079,-193.055 650.0628,-203.6439 656.5886,-201.1114"/>
</g>
<!-- Node21 -->
<g id="node22" class="node">
<title>Node21</title>
<polygon fill="none" stroke="#bfbfbf" points="686.5,-174 686.5,-193 759.5,-193 759.5,-174 686.5,-174"/>
<text text-anchor="middle" x="723" y="-181" font-family="Helvetica,sans-Serif" font-size="10.00" fill="#000000">string_view</text>
</g>
<!-- Node19&#45;&gt;Node21 -->
<g id="edge30" class="edge">
<title>Node19&#45;&gt;Node21</title>
<path fill="none" stroke="#191970" d="M683.5727,-235.2967C691.2873,-225.1618 701.4551,-211.804 709.5329,-201.1921"/>
<polygon fill="#191970" stroke="#191970" points="712.4549,-203.1319 715.7268,-193.055 706.8849,-198.8921 712.4549,-203.1319"/>
</g>
<!-- Node22 -->
<g id="node23" class="node">
<title>Node22</title>
<polygon fill="none" stroke="#bfbfbf" points="1334.5,-174 1334.5,-193 1403.5,-193 1403.5,-174 1334.5,-174"/>
<text text-anchor="middle" x="1369" y="-181" font-family="Helvetica,sans-Serif" font-size="10.00" fill="#000000">type_traits</text>
</g>
<!-- Node19&#45;&gt;Node22 -->
<g id="edge32" class="edge">
<title>Node19&#45;&gt;Node22</title>
<path fill="none" stroke="#191970" d="M757.567,-242.3195C863.5389,-232.1822 1049.5855,-214.3658 1209,-199 1247.9781,-195.2429 1292.2949,-190.9479 1324.3884,-187.8334"/>
<polygon fill="#191970" stroke="#191970" points="1324.7415,-191.3156 1334.3566,-186.8658 1324.0652,-184.3484 1324.7415,-191.3156"/>
</g>
<!-- Node23 -->
<g id="node24" class="node">
<title>Node23</title>
<g id="a_node24"><a xlink:href="../../d9/d52/Common_2MathUtils_2include_2MathUtils_2Utils_8h.html" target="_top" xlink:title="MathUtils/Utils.h">
<polygon fill="none" stroke="#000000" points="98,-174 98,-193 196,-193 196,-174 98,-174"/>
<text text-anchor="middle" x="147" y="-181" font-family="Helvetica,sans-Serif" font-size="10.00" fill="#000000">MathUtils/Utils.h</text>
</a>
</g>
</g>
<!-- Node19&#45;&gt;Node23 -->
<g id="edge33" class="edge">
<title>Node19&#45;&gt;Node23</title>
<path fill="none" stroke="#191970" d="M586.4812,-239.5862C479.4991,-225.9332 299.1061,-202.9116 206.2133,-191.0567"/>
<polygon fill="#191970" stroke="#191970" points="206.5064,-187.5658 196.1437,-189.7717 205.6202,-194.5095 206.5064,-187.5658"/>
</g>
<!-- Node23&#45;&gt;Node1 -->
<g id="edge34" class="edge">
<title>Node23&#45;&gt;Node1</title>
<path fill="none" stroke="#191970" d="M182.4888,-173.9774C191.4233,-171.7988 201.0257,-169.6436 210,-168 340.3569,-144.1263 376.1079,-158.2849 506,-132 507.2543,-131.7462 508.5291,-131.47 509.8134,-131.1764"/>
<polygon fill="#191970" stroke="#191970" points="510.8306,-134.5293 519.66,-128.6733 509.1059,-127.7451 510.8306,-134.5293"/>
</g>
<!-- Node24 -->
<g id="node25" class="node">
<title>Node24</title>
<polygon fill="none" stroke="#bfbfbf" points="468.5,-56.5 468.5,-75.5 515.5,-75.5 515.5,-56.5 468.5,-56.5"/>
<text text-anchor="middle" x="492" y="-63.5" font-family="Helvetica,sans-Serif" font-size="10.00" fill="#000000">cmath</text>
</g>
<!-- Node23&#45;&gt;Node24 -->
<g id="edge35" class="edge">
<title>Node23&#45;&gt;Node24</title>
<path fill="none" stroke="#191970" d="M182.8376,-173.991C191.6774,-171.8371 201.1489,-169.6897 210,-168 267.943,-156.9382 428.3905,-170.5972 473,-132 486.0775,-120.685 490.4356,-101.0076 491.7566,-86.0744"/>
<polygon fill="#191970" stroke="#191970" points="495.2666,-85.9586 492.2688,-75.7968 488.2753,-85.6101 495.2666,-85.9586"/>
</g>
<!-- Node25 -->
<g id="node26" class="node">
<title>Node25</title>
<g id="a_node26"><a xlink:href="../../df/d21/GPUCommonDef_8h.html" target="_top" xlink:title="GPUCommonDef.h">
<polygon fill="none" stroke="#000000" points="97.5,-56.5 97.5,-75.5 204.5,-75.5 204.5,-56.5 97.5,-56.5"/>
<text text-anchor="middle" x="151" y="-63.5" font-family="Helvetica,sans-Serif" font-size="10.00" fill="#000000">GPUCommonDef.h</text>
</a>
</g>
</g>
<!-- Node23&#45;&gt;Node25 -->
<g id="edge36" class="edge">
<title>Node23&#45;&gt;Node25</title>
<path fill="none" stroke="#191970" d="M141.0397,-173.8379C133.3398,-160.1464 121.5364,-134.2836 127,-112 129.3743,-102.3164 134.1821,-92.4071 138.8753,-84.2776"/>
<polygon fill="#191970" stroke="#191970" points="141.9119,-86.0214 144.1792,-75.672 135.9528,-82.3486 141.9119,-86.0214"/>
</g>
<!-- Node28 -->
<g id="node29" class="node">
<title>Node28</title>
<g id="a_node29"><a xlink:href="../../d6/da2/GPUCommonMath_8h.html" target="_top" xlink:title="GPUCommonMath.h">
<polygon fill="none" stroke="#000000" points="136.5,-112.5 136.5,-131.5 251.5,-131.5 251.5,-112.5 136.5,-112.5"/>
<text text-anchor="middle" x="194" y="-119.5" font-family="Helvetica,sans-Serif" font-size="10.00" fill="#000000">GPUCommonMath.h</text>
</a>
</g>
</g>
<!-- Node23&#45;&gt;Node28 -->
<g id="edge39" class="edge">
<title>Node23&#45;&gt;Node28</title>
<path fill="none" stroke="#191970" d="M154.3438,-173.8906C161.2702,-164.8273 171.826,-151.0149 180.306,-139.9188"/>
<polygon fill="#191970" stroke="#191970" points="183.2615,-141.8155 186.5527,-131.7449 177.6997,-137.565 183.2615,-141.8155"/>
</g>
<!-- Node29 -->
<g id="node30" class="node">
<title>Node29</title>
<g id="a_node30"><a xlink:href="../../d6/d84/MathConstants_8h.html" target="_top" xlink:title="useful math constants ">
<polygon fill="none" stroke="#000000" points="270,-112.5 270,-131.5 464,-131.5 464,-112.5 270,-112.5"/>
<text text-anchor="middle" x="367" y="-119.5" font-family="Helvetica,sans-Serif" font-size="10.00" fill="#000000">CommonConstants/MathConstants.h</text>
</a>
</g>
</g>
<!-- Node23&#45;&gt;Node29 -->
<g id="edge43" class="edge">
<title>Node23&#45;&gt;Node29</title>
<path fill="none" stroke="#191970" d="M181.375,-173.8906C219.5573,-163.2169 281.3016,-145.9566 322.9884,-134.3033"/>
<polygon fill="#191970" stroke="#191970" points="324.1779,-137.605 332.8664,-131.5419 322.2933,-130.8634 324.1779,-137.605"/>
</g>
<!-- Node26 -->
<g id="node27" class="node">
<title>Node26</title>
<g id="a_node27"><a xlink:href="../../d5/d93/GPUCommonDefSettings_8h.html" target="_top" xlink:title="GPUCommonDefSettings.h">
<polygon fill="none" stroke="#000000" points="0,-.5 0,-19.5 148,-19.5 148,-.5 0,-.5"/>
<text text-anchor="middle" x="74" y="-7.5" font-family="Helvetica,sans-Serif" font-size="10.00" fill="#000000">GPUCommonDefSettings.h</text>
</a>
</g>
</g>
<!-- Node25&#45;&gt;Node26 -->
<g id="edge37" class="edge">
<title>Node25&#45;&gt;Node26</title>
<path fill="none" stroke="#191970" d="M137.5876,-56.2455C125.9943,-47.814 109.0252,-35.4729 95.5322,-25.6598"/>
<polygon fill="#191970" stroke="#191970" points="97.4047,-22.6938 87.2587,-19.6427 93.2874,-28.355 97.4047,-22.6938"/>
</g>
<!-- Node27 -->
<g id="node28" class="node">
<title>Node27</title>
<g id="a_node28"><a xlink:href="../../da/d5a/GPUCommonDefAPI_8h.html" target="_top" xlink:title="GPUCommonDefAPI.h">
<polygon fill="none" stroke="#000000" points="166,-.5 166,-19.5 290,-19.5 290,-.5 166,-.5"/>
<text text-anchor="middle" x="228" y="-7.5" font-family="Helvetica,sans-Serif" font-size="10.00" fill="#000000">GPUCommonDefAPI.h</text>
</a>
</g>
</g>
<!-- Node25&#45;&gt;Node27 -->
<g id="edge38" class="edge">
<title>Node25&#45;&gt;Node27</title>
<path fill="none" stroke="#191970" d="M164.4124,-56.2455C176.0057,-47.814 192.9748,-35.4729 206.4678,-25.6598"/>
<polygon fill="#191970" stroke="#191970" points="208.7126,-28.355 214.7413,-19.6427 204.5953,-22.6938 208.7126,-28.355"/>
</g>
<!-- Node28&#45;&gt;Node13 -->
<g id="edge42" class="edge">
<title>Node28&#45;&gt;Node13</title>
<path fill="none" stroke="#191970" d="M222.1926,-112.3733C249.3453,-103.1016 290.5907,-89.0178 320.5025,-78.804"/>
<polygon fill="#191970" stroke="#191970" points="321.8428,-82.0449 330.1753,-75.5011 319.5808,-75.4204 321.8428,-82.0449"/>
</g>
<!-- Node28&#45;&gt;Node24 -->
<g id="edge41" class="edge">
<title>Node28&#45;&gt;Node24</title>
<path fill="none" stroke="#191970" d="M244.8894,-112.4369C305.8535,-100.9805 406.2643,-82.1114 458.3342,-72.3265"/>
<polygon fill="#191970" stroke="#191970" points="459.1975,-75.7256 468.3791,-70.4388 457.9046,-68.846 459.1975,-75.7256"/>
</g>
<!-- Node28&#45;&gt;Node25 -->
<g id="edge40" class="edge">
<title>Node28&#45;&gt;Node25</title>
<path fill="none" stroke="#191970" d="M186.51,-112.2455C180.4674,-104.3761 171.8097,-93.101 164.5559,-83.6542"/>
<polygon fill="#191970" stroke="#191970" points="167.2705,-81.4426 158.4042,-75.6427 161.7185,-85.7058 167.2705,-81.4426"/>
</g>
<!-- Node30&#45;&gt;Node1 -->
<g id="edge47" class="edge">
<title>Node30&#45;&gt;Node1</title>
<path fill="none" stroke="#191970" d="M852.3032,-311.773C760.6247,-302.715 597.0192,-284.2328 577,-266 541.876,-234.0102 538.671,-173.4141 539.6279,-142.0041"/>
<polygon fill="#191970" stroke="#191970" points="543.1312,-142.0167 540.1173,-131.8596 536.1394,-141.6793 543.1312,-142.0167"/>
</g>
<!-- Node30&#45;&gt;Node5 -->
<g id="edge46" class="edge">
<title>Node30&#45;&gt;Node5</title>
<path fill="none" stroke="#191970" d="M910.0192,-302.4661C906.1274,-283.9942 902.9881,-252.9083 920,-235 964.5735,-188.0778 1150.2164,-226.0736 1209,-199 1227.574,-190.4455 1226.6348,-180.2619 1243,-168 1281.3079,-139.2971 1289.2129,-125.9607 1335,-112 1429.7755,-83.1025 2137.6402,-69.5743 2314.1965,-66.6286"/>
<polygon fill="#191970" stroke="#191970" points="2314.401,-70.1258 2324.3418,-66.4612 2314.2855,-63.1267 2314.401,-70.1258"/>
</g>
<!-- Node30&#45;&gt;Node9 -->
<g id="edge49" class="edge">
<title>Node30&#45;&gt;Node9</title>
<path fill="none" stroke="#191970" d="M900.9012,-302.2569C887.2264,-284.4218 869.8511,-254.8147 886,-235 897.2404,-221.208 992.7695,-204.4521 1062.4063,-193.8792"/>
<polygon fill="#191970" stroke="#191970" points="1063.1109,-197.3127 1072.4796,-192.3652 1062.0705,-190.3904 1063.1109,-197.3127"/>
</g>
<!-- Node30&#45;&gt;Node18 -->
<g id="edge50" class="edge">
<title>Node30&#45;&gt;Node18</title>
<path fill="none" stroke="#191970" d="M931.2456,-302.2967C941.2542,-293.4733 954.0336,-282.2072 965.1164,-272.4368"/>
<polygon fill="#191970" stroke="#191970" points="967.6359,-274.8816 972.8227,-265.6432 963.0068,-269.6307 967.6359,-274.8816"/>
</g>
<!-- Node30&#45;&gt;Node19 -->
<g id="edge51" class="edge">
<title>Node30&#45;&gt;Node19</title>
<path fill="none" stroke="#191970" d="M859.6905,-302.4639C823.2323,-292.3701 775.027,-279.024 736.5988,-268.3848"/>
<polygon fill="#191970" stroke="#191970" points="737.1178,-264.8969 726.5464,-265.6017 735.25,-271.6431 737.1178,-264.8969"/>
</g>
<!-- Node31 -->
<g id="node32" class="node">
<title>Node31</title>
<polygon fill="none" stroke="#bfbfbf" points="1211.5,-241 1211.5,-260 1286.5,-260 1286.5,-241 1211.5,-241"/>
<text text-anchor="middle" x="1249" y="-248" font-family="Helvetica,sans-Serif" font-size="10.00" fill="#000000">FairLogger.h</text>
</g>
<!-- Node30&#45;&gt;Node31 -->
<g id="edge48" class="edge">
<title>Node30&#45;&gt;Node31</title>
<path fill="none" stroke="#191970" d="M975.7758,-309.0423C1034.4628,-300.3997 1124.936,-285.4933 1202,-266 1205.436,-265.1309 1208.985,-264.1394 1212.5213,-263.0876"/>
<polygon fill="#191970" stroke="#191970" points="1213.8497,-266.3394 1222.3498,-260.0149 1211.761,-259.6583 1213.8497,-266.3394"/>
</g>
<!-- Node32&#45;&gt;Node5 -->
<g id="edge53" class="edge">
<title>Node32&#45;&gt;Node5</title>
<path fill="none" stroke="#191970" d="M1892.3116,-374.9497C1909.3209,-365.5813 1934.8357,-350.2255 1954,-333 2024.0521,-270.0349 2012.9441,-226.2033 2087,-168 2132.9573,-131.8805 2151.5157,-133.1697 2206,-112 2242.1656,-97.948 2284.5464,-85.1314 2314.6659,-76.6169"/>
<polygon fill="#191970" stroke="#191970" points="2315.6961,-79.9631 2324.3836,-73.8987 2313.8104,-73.2219 2315.6961,-79.9631"/>
</g>
<!-- Node33 -->
<g id="node34" class="node">
<title>Node33</title>
<g id="a_node34"><a xlink:href="../../d6/dec/Raw_2include_2DetectorsRaw_2RDHUtils_8h.html" target="_top" xlink:title="DetectorsRaw/RDHUtils.h">
<polygon fill="none" stroke="#000000" points="1803.5,-308 1803.5,-327 1944.5,-327 1944.5,-308 1803.5,-308"/>
<text text-anchor="middle" x="1874" y="-315" font-family="Helvetica,sans-Serif" font-size="10.00" fill="#000000">DetectorsRaw/RDHUtils.h</text>
</a>
</g>
</g>
<!-- Node32&#45;&gt;Node33 -->
<g id="edge54" class="edge">
<title>Node32&#45;&gt;Node33</title>
<path fill="none" stroke="#191970" d="M1874,-374.9005C1874,-365.149 1874,-349.7597 1874,-337.3695"/>
<polygon fill="#191970" stroke="#191970" points="1877.5001,-337.0816 1874,-327.0817 1870.5001,-337.0817 1877.5001,-337.0816"/>
</g>
<!-- Node32&#45;&gt;Node37 -->
<g id="edge86" class="edge">
<title>Node32&#45;&gt;Node37</title>
<path fill="none" stroke="#191970" d="M1943.8565,-377.7059C2042.7541,-368.0406 2229.2345,-349.644 2388,-333 2422.0167,-329.4339 2977.1686,-291.4673 3000,-266 3013.8592,-250.5407 3009.5552,-226.3015 3003.1593,-208.0896"/>
<polygon fill="#191970" stroke="#191970" points="3006.3864,-206.7314 2999.4928,-198.686 2999.8646,-209.2743 3006.3864,-206.7314"/>
</g>
<!-- Node41 -->
<g id="node42" class="node">
<title>Node41</title>
<g id="a_node42"><a xlink:href="../../db/d2c/ConfigurableParam_8h.html" target="_top" xlink:title="CommonUtils/Configurable\lParam.h">
<polygon fill="none" stroke="#000000" points="1702,-235.5 1702,-265.5 1850,-265.5 1850,-235.5 1702,-235.5"/>
<text text-anchor="start" x="1710" y="-253.5" font-family="Helvetica,sans-Serif" font-size="10.00" fill="#000000">CommonUtils/Configurable</text>
<text text-anchor="middle" x="1776" y="-242.5" font-family="Helvetica,sans-Serif" font-size="10.00" fill="#000000">Param.h</text>
</a>
</g>
</g>
<!-- Node32&#45;&gt;Node41 -->
<g id="edge73" class="edge">
<title>Node32&#45;&gt;Node41</title>
<path fill="none" stroke="#191970" d="M1804.3635,-380.3129C1736.2462,-374.5913 1639.4248,-361.5628 1616,-333 1587.9324,-298.7761 1639.8867,-277.1697 1691.9145,-264.6946"/>
<polygon fill="#191970" stroke="#191970" points="1692.9872,-268.0396 1701.9535,-262.3954 1691.4244,-261.2162 1692.9872,-268.0396"/>
</g>
<!-- Node48 -->
<g id="node49" class="node">
<title>Node48</title>
<g id="a_node49"><a xlink:href="../../da/d6b/ConfigurableParamHelper_8h.html" target="_top" xlink:title="CommonUtils/Configurable\lParamHelper.h">
<polygon fill="none" stroke="#000000" points="1419,-302.5 1419,-332.5 1567,-332.5 1567,-302.5 1419,-302.5"/>
<text text-anchor="start" x="1427" y="-320.5" font-family="Helvetica,sans-Serif" font-size="10.00" fill="#000000">CommonUtils/Configurable</text>
<text text-anchor="middle" x="1493" y="-309.5" font-family="Helvetica,sans-Serif" font-size="10.00" fill="#000000">ParamHelper.h</text>
</a>
</g>
</g>
<!-- Node32&#45;&gt;Node48 -->
<g id="edge80" class="edge">
<title>Node32&#45;&gt;Node48</title>
<path fill="none" stroke="#191970" d="M1819.8166,-374.9717C1756.6354,-363.8611 1651.4435,-345.3628 1577.5036,-332.3602"/>
<polygon fill="#191970" stroke="#191970" points="1577.7405,-328.8482 1567.2854,-330.5633 1576.5281,-335.7425 1577.7405,-328.8482"/>
</g>
<!-- Node51 -->
<g id="node52" class="node">
<title>Node51</title>
<g id="a_node52"><a xlink:href="../../de/da4/Triggers_8h.html" target="_top" xlink:title="Definition of the 32 Central Trigger System (CTS) Trigger Types defined in https://twiki.cern.ch/twiki/pub/ALICE/NoteForFEDevelopers/CTS_CRU_FE_interface.pdf. ">
<polygon fill="none" stroke="#000000" points="1625,-308 1625,-327 1785,-327 1785,-308 1625,-308"/>
<text text-anchor="middle" x="1705" y="-315" font-family="Helvetica,sans-Serif" font-size="10.00" fill="#000000">CommonConstants/Triggers.h</text>
</a>
</g>
</g>
<!-- Node32&#45;&gt;Node51 -->
<g id="edge87" class="edge">
<title>Node32&#45;&gt;Node51</title>
<path fill="none" stroke="#191970" d="M1849.7864,-374.9005C1820.6714,-363.3579 1771.6322,-343.9163 1738.7982,-330.8993"/>
<polygon fill="#191970" stroke="#191970" points="1739.7547,-327.5135 1729.1687,-327.0817 1737.1748,-334.0208 1739.7547,-327.5135"/>
</g>
<!-- Node33&#45;&gt;Node25 -->
<g id="edge55" class="edge">
<title>Node33&#45;&gt;Node25</title>
<path fill="none" stroke="#191970" d="M1831.4322,-307.9278C1819.3909,-305.5818 1806.233,-303.357 1794,-302 1256.1733,-242.3404 1115.6733,-317.457 577,-266 491.39,-257.8221 471.1491,-247.0656 386,-235 320.1745,-225.6726 133.0916,-248.7587 89,-199 57.6494,-163.6198 104.3189,-109.6544 132.3776,-82.6334"/>
<polygon fill="#191970" stroke="#191970" points="134.8077,-85.1528 139.7178,-75.7644 130.0247,-80.0417 134.8077,-85.1528"/>
</g>
<!-- Node34 -->
<g id="node35" class="node">
<title>Node34</title>
<g id="a_node35"><a xlink:href="../../d2/d45/GPUCommonRtypes_8h.html" target="_top" xlink:title="GPUCommonRtypes.h">
<polygon fill="none" stroke="#000000" points="3295.5,-112.5 3295.5,-131.5 3420.5,-131.5 3420.5,-112.5 3295.5,-112.5"/>
<text text-anchor="middle" x="3358" y="-119.5" font-family="Helvetica,sans-Serif" font-size="10.00" fill="#000000">GPUCommonRtypes.h</text>
</a>
</g>
</g>
<!-- Node33&#45;&gt;Node34 -->
<g id="edge56" class="edge">
<title>Node33&#45;&gt;Node34</title>
<path fill="none" stroke="#191970" d="M1944.8077,-314.4338C2019.8318,-311.2141 2141.7576,-306.0641 2247,-302 2303.0494,-299.8356 3206.7734,-292.888 3256,-266 3302.5259,-240.5872 3293.13,-211.0988 3324,-168 3330.6953,-158.6524 3338.2891,-148.3509 3344.5991,-139.8703"/>
<polygon fill="#191970" stroke="#191970" points="3347.4404,-141.915 3350.6187,-131.8081 3341.8313,-137.7271 3347.4404,-141.915"/>
</g>
<!-- Node33&#45;&gt;Node35 -->
<g id="edge58" class="edge">
<title>Node33&#45;&gt;Node35</title>
<path fill="none" stroke="#191970" d="M1877.8835,-307.8631C1886.7572,-285.8432 1908.6528,-231.5098 1920.3476,-202.4894"/>
<polygon fill="#191970" stroke="#191970" points="1923.6601,-203.6331 1924.1516,-193.0496 1917.1675,-201.0166 1923.6601,-203.6331"/>
</g>
<!-- Node36 -->
<g id="node37" class="node">
<title>Node36</title>
<g id="a_node37"><a xlink:href="../../d6/d89/RDHAny_8h.html" target="_top" xlink:title="Headers/RDHAny.h">
<polygon fill="none" stroke="#000000" points="1500,-241 1500,-260 1608,-260 1608,-241 1500,-241"/>
<text text-anchor="middle" x="1554" y="-248" font-family="Helvetica,sans-Serif" font-size="10.00" fill="#000000">Headers/RDHAny.h</text>
</a>
</g>
</g>
<!-- Node33&#45;&gt;Node36 -->
<g id="edge60" class="edge">
<title>Node33&#45;&gt;Node36</title>
<path fill="none" stroke="#191970" d="M1828.4916,-307.9717C1770.8748,-295.9082 1671.6615,-275.1354 1609.6136,-262.1441"/>
<polygon fill="#191970" stroke="#191970" points="1610.1152,-258.6733 1599.6101,-260.0496 1608.6806,-265.5247 1610.1152,-258.6733"/>
</g>
<!-- Node33&#45;&gt;Node37 -->
<g id="edge65" class="edge">
<title>Node33&#45;&gt;Node37</title>
<path fill="none" stroke="#191970" d="M1944.7742,-312.3722C2059.0751,-303.6788 2279.1629,-285.1204 2355,-266 2390.3727,-257.0816 2395.5609,-243.6507 2431,-235 2433.7892,-234.3191 2734.6333,-206.9003 2894.553,-192.3554"/>
<polygon fill="#191970" stroke="#191970" points="2895.2363,-195.8078 2904.8782,-191.4164 2894.6023,-188.8366 2895.2363,-195.8078"/>
</g>
<!-- Node40 -->
<g id="node41" class="node">
<title>Node40</title>
<g id="a_node41"><a xlink:href="../../d7/d34/DAQID_8h.html" target="_top" xlink:title="Headers/DAQID.h">
<polygon fill="none" stroke="#000000" points="1304.5,-241 1304.5,-260 1405.5,-260 1405.5,-241 1304.5,-241"/>
<text text-anchor="middle" x="1355" y="-248" font-family="Helvetica,sans-Serif" font-size="10.00" fill="#000000">Headers/DAQID.h</text>
</a>
</g>
</g>
<!-- Node33&#45;&gt;Node40 -->
<g id="edge71" class="edge">
<title>Node33&#45;&gt;Node40</title>
<path fill="none" stroke="#191970" d="M1828.8581,-307.9734C1817.5145,-305.7949 1805.3412,-303.6407 1794,-302 1628.73,-278.0909 1584.7218,-293.4328 1420,-266 1413.7669,-264.9619 1407.2436,-263.6639 1400.8358,-262.2635"/>
<polygon fill="#191970" stroke="#191970" points="1401.4478,-258.8133 1390.9198,-260.0014 1399.8908,-265.638 1401.4478,-258.8133"/>
</g>
<!-- Node34&#45;&gt;Node5 -->
<g id="edge57" class="edge">
<title>Node34&#45;&gt;Node5</title>
<path fill="none" stroke="#191970" d="M3295.4308,-113.4511C3290.5529,-112.9139 3285.6993,-112.4211 3281,-112 2938.3516,-81.2976 2522.4803,-69.8116 2393.8364,-66.844"/>
<polygon fill="#191970" stroke="#191970" points="2393.7527,-63.3413 2383.6759,-66.6136 2393.594,-70.3395 2393.7527,-63.3413"/>
</g>
<!-- Node35&#45;&gt;Node7 -->
<g id="edge59" class="edge">
<title>Node35&#45;&gt;Node7</title>
<path fill="none" stroke="#191970" d="M1931.75,-173.8906C1935.1468,-165.1862 1940.2531,-152.1015 1944.488,-141.2494"/>
<polygon fill="#191970" stroke="#191970" points="1947.8222,-142.3331 1948.1971,-131.7449 1941.3011,-139.7882 1947.8222,-142.3331"/>
</g>
<!-- Node36&#45;&gt;Node14 -->
<g id="edge64" class="edge">
<title>Node36&#45;&gt;Node14</title>
<path fill="none" stroke="#191970" d="M1522.0158,-240.9241C1500.5216,-232.946 1473.0992,-219.5271 1456,-199 1442.4561,-182.741 1436.5392,-158.8446 1433.9643,-141.994"/>
<polygon fill="#191970" stroke="#191970" points="1437.3821,-141.1202 1432.663,-131.6344 1430.4367,-141.9927 1437.3821,-141.1202"/>
</g>
<!-- Node36&#45;&gt;Node22 -->
<g id="edge63" class="edge">
<title>Node36&#45;&gt;Node22</title>
<path fill="none" stroke="#191970" d="M1527.494,-240.9005C1495.3478,-229.2584 1441.0134,-209.5805 1405.0725,-196.5641"/>
<polygon fill="#191970" stroke="#191970" points="1406.051,-193.1961 1395.4568,-193.0817 1403.6674,-199.7777 1406.051,-193.1961"/>
</g>
<!-- Node36&#45;&gt;Node25 -->
<g id="edge61" class="edge">
<title>Node36&#45;&gt;Node25</title>
<path fill="none" stroke="#191970" d="M1499.8747,-242.0346C1483.2563,-239.5839 1464.8966,-237.026 1448,-235 1277.8041,-214.5924 1232.453,-230.7284 1064,-199 1037.4226,-193.9941 854.7832,-142.8265 830,-132 814.2841,-125.1345 813.3431,-117.1987 797,-112 783.2392,-107.6227 375.3461,-80.6344 214.9179,-70.1546"/>
<polygon fill="#191970" stroke="#191970" points="214.9222,-66.6475 204.7154,-69.4886 214.4662,-73.6327 214.9222,-66.6475"/>
</g>
<!-- Node36&#45;&gt;Node35 -->
<g id="edge62" class="edge">
<title>Node36&#45;&gt;Node35</title>
<path fill="none" stroke="#191970" d="M1607.1879,-240.9717C1675.0829,-228.8087 1792.3991,-207.7921 1864.7869,-194.8243"/>
<polygon fill="#191970" stroke="#191970" points="1865.4671,-198.2582 1874.6931,-193.0496 1864.2326,-191.3679 1865.4671,-198.2582"/>
</g>
<!-- Node37&#45;&gt;Node7 -->
<g id="edge69" class="edge">
<title>Node37&#45;&gt;Node7</title>
<path fill="none" stroke="#191970" d="M2904.6199,-174.9433C2877.8086,-172.4892 2848.2055,-169.9524 2821,-168 2497.6878,-144.798 2105.9209,-128.1765 1987.537,-123.4024"/>
<polygon fill="#191970" stroke="#191970" points="1987.3917,-119.8938 1977.2595,-122.9901 1987.1111,-126.8882 1987.3917,-119.8938"/>
</g>
<!-- Node37&#45;&gt;Node24 -->
<g id="edge68" class="edge">
<title>Node37&#45;&gt;Node24</title>
<path fill="none" stroke="#191970" d="M2971.0321,-168.231C2945.7089,-150.7943 2901.124,-123.2319 2858,-112 2740.054,-81.2802 807.3262,-67.9842 526.0372,-66.2081"/>
<polygon fill="#191970" stroke="#191970" points="525.6777,-62.7059 515.6559,-66.1431 525.6338,-69.7058 525.6777,-62.7059"/>
</g>
<!-- Node37&#45;&gt;Node34 -->
<g id="edge66" class="edge">
<title>Node37&#45;&gt;Node34</title>
<path fill="none" stroke="#191970" d="M3079.2011,-168.8474C3144.2598,-157.9154 3231.8153,-143.2032 3291.3302,-133.2027"/>
<polygon fill="#191970" stroke="#191970" points="3292.0862,-136.6248 3301.3679,-131.516 3290.9262,-129.7216 3292.0862,-136.6248"/>
</g>
<!-- Node38 -->
<g id="node39" class="node">
<title>Node38</title>
<polygon fill="none" stroke="#bfbfbf" points="2961.5,-112.5 2961.5,-131.5 3010.5,-131.5 3010.5,-112.5 2961.5,-112.5"/>
<text text-anchor="middle" x="2986" y="-119.5" font-family="Helvetica,sans-Serif" font-size="10.00" fill="#000000">iosfwd</text>
</g>
<!-- Node37&#45;&gt;Node38 -->
<g id="edge67" class="edge">
<title>Node37&#45;&gt;Node38</title>
<path fill="none" stroke="#191970" d="M2990.5169,-168.2977C2989.7447,-160.3834 2988.7907,-150.6043 2987.9586,-142.0759"/>
<polygon fill="#191970" stroke="#191970" points="2991.4152,-141.4598 2986.9607,-131.8469 2984.4483,-142.1396 2991.4152,-141.4598"/>
</g>
<!-- Node39 -->
<g id="node40" class="node">
<title>Node39</title>
<g id="a_node40"><a xlink:href="../../d4/dc6/LHCConstants_8h.html" target="_top" xlink:title="Header to collect LHC related constants. ">
<polygon fill="none" stroke="#000000" points="3029,-112.5 3029,-131.5 3219,-131.5 3219,-112.5 3029,-112.5"/>
<text text-anchor="middle" x="3124" y="-119.5" font-family="Helvetica,sans-Serif" font-size="10.00" fill="#000000">CommonConstants/LHCConstants.h</text>
</a>
</g>
</g>
<!-- Node37&#45;&gt;Node39 -->
<g id="edge70" class="edge">
<title>Node37&#45;&gt;Node39</title>
<path fill="none" stroke="#191970" d="M3024.2908,-168.4554C3045.6392,-158.509 3073.4196,-145.5659 3094.2333,-135.8686"/>
<polygon fill="#191970" stroke="#191970" points="3095.9584,-138.9262 3103.5447,-131.5303 3093.0021,-132.581 3095.9584,-138.9262"/>
</g>
<!-- Node40&#45;&gt;Node9 -->
<g id="edge72" class="edge">
<title>Node40&#45;&gt;Node9</title>
<path fill="none" stroke="#191970" d="M1323.6226,-240.9005C1285.0806,-229.1091 1219.5947,-209.0746 1177.0765,-196.0668"/>
<polygon fill="#191970" stroke="#191970" points="1177.9056,-192.6604 1167.3192,-193.0817 1175.8577,-199.3541 1177.9056,-192.6604"/>
</g>
<!-- Node42 -->
<g id="node43" class="node">
<title>Node42</title>
<polygon fill="none" stroke="#bfbfbf" points="2445.5,-174 2445.5,-193 2492.5,-193 2492.5,-174 2445.5,-174"/>
<text text-anchor="middle" x="2469" y="-181" font-family="Helvetica,sans-Serif" font-size="10.00" fill="#000000">vector</text>
</g>
<!-- Node41&#45;&gt;Node42 -->
<g id="edge74" class="edge">
<title>Node41&#45;&gt;Node42</title>
<path fill="none" stroke="#191970" d="M1850.2504,-248.1874C1998.9157,-242.9886 2328.1871,-228.4613 2437,-199 2438.9216,-198.4797 2440.8669,-197.8445 2442.7994,-197.1317"/>
<polygon fill="#191970" stroke="#191970" points="2444.3846,-200.2599 2452.1867,-193.0921 2441.6176,-193.83 2444.3846,-200.2599"/>
</g>
<!-- Node43 -->
<g id="node44" class="node">
<title>Node43</title>
<polygon fill="none" stroke="#bfbfbf" points="2096,-174 2096,-193 2134,-193 2134,-174 2096,-174"/>
<text text-anchor="middle" x="2115" y="-181" font-family="Helvetica,sans-Serif" font-size="10.00" fill="#000000">map</text>
</g>
<!-- Node41&#45;&gt;Node43 -->
<g id="edge75" class="edge">
<title>Node41&#45;&gt;Node43</title>
<path fill="none" stroke="#191970" d="M1850.395,-235.7966C1924.4253,-221.1652 2034.2422,-199.461 2086.0055,-189.2305"/>
<polygon fill="#191970" stroke="#191970" points="2086.7151,-192.658 2095.8467,-187.2855 2085.3578,-185.7909 2086.7151,-192.658"/>
</g>
<!-- Node44 -->
<g id="node45" class="node">
<title>Node44</title>
<polygon fill="none" stroke="#bfbfbf" points="1704.5,-174 1704.5,-193 1797.5,-193 1797.5,-174 1704.5,-174"/>
<text text-anchor="middle" x="1751" y="-181" font-family="Helvetica,sans-Serif" font-size="10.00" fill="#000000">unordered_map</text>
</g>
<!-- Node41&#45;&gt;Node44 -->
<g id="edge76" class="edge">
<title>Node41&#45;&gt;Node44</title>
<path fill="none" stroke="#191970" d="M1770.3271,-235.2967C1766.6967,-225.5672 1761.958,-212.8675 1758.0815,-202.4784"/>
<polygon fill="#191970" stroke="#191970" points="1761.3404,-201.2004 1754.5653,-193.055 1754.7821,-203.6476 1761.3404,-201.2004"/>
</g>
<!-- Node45 -->
<g id="node46" class="node">
<title>Node45</title>
<polygon fill="none" stroke="#bfbfbf" points="1573.5,-168.5 1573.5,-198.5 1686.5,-198.5 1686.5,-168.5 1573.5,-168.5"/>
<text text-anchor="start" x="1581.5" y="-186.5" font-family="Helvetica,sans-Serif" font-size="10.00" fill="#000000">boost/property_tree</text>
<text text-anchor="middle" x="1630" y="-175.5" font-family="Helvetica,sans-Serif" font-size="10.00" fill="#000000">/ptree.hpp</text>
</g>
<!-- Node41&#45;&gt;Node45 -->
<g id="edge77" class="edge">
<title>Node41&#45;&gt;Node45</title>
<path fill="none" stroke="#191970" d="M1743.2348,-235.4639C1722.2689,-225.8426 1694.8639,-213.2663 1672.2659,-202.896"/>
<polygon fill="#191970" stroke="#191970" points="1673.4567,-199.5915 1662.9082,-198.6017 1670.537,-205.9536 1673.4567,-199.5915"/>
</g>
<!-- Node46 -->
<g id="node47" class="node">
<title>Node46</title>
<polygon fill="none" stroke="#bfbfbf" points="1498.5,-174 1498.5,-193 1555.5,-193 1555.5,-174 1498.5,-174"/>
<text text-anchor="middle" x="1527" y="-181" font-family="Helvetica,sans-Serif" font-size="10.00" fill="#000000">typeinfo</text>
</g>
<!-- Node41&#45;&gt;Node46 -->
<g id="edge78" class="edge">
<title>Node41&#45;&gt;Node46</title>
<path fill="none" stroke="#191970" d="M1702.9935,-235.4762C1662.0184,-226.3496 1610.1978,-213.6449 1565,-199 1562.8522,-198.3041 1560.6539,-197.543 1558.4505,-196.7434"/>
<polygon fill="#191970" stroke="#191970" points="1559.4887,-193.393 1548.8986,-193.0755 1556.9793,-199.9277 1559.4887,-193.393"/>
</g>
<!-- Node47 -->
<g id="node48" class="node">
<title>Node47</title>
<polygon fill="none" stroke="#bfbfbf" points="2152,-174 2152,-193 2212,-193 2212,-174 2152,-174"/>
<text text-anchor="middle" x="2182" y="-181" font-family="Helvetica,sans-Serif" font-size="10.00" fill="#000000">iostream</text>
</g>
<!-- Node41&#45;&gt;Node47 -->
<g id="edge79" class="edge">
<title>Node41&#45;&gt;Node47</title>
<path fill="none" stroke="#191970" d="M1850.1388,-245.3218C1925.0054,-238.8803 2043.4864,-225.3508 2143,-199 2145.617,-198.307 2148.2959,-197.4887 2150.9636,-196.596"/>
<polygon fill="#191970" stroke="#191970" points="2152.2557,-199.8502 2160.4452,-193.1284 2149.8514,-193.2761 2152.2557,-199.8502"/>
</g>
<!-- Node48&#45;&gt;Node22 -->
<g id="edge83" class="edge">
<title>Node48&#45;&gt;Node22</title>
<path fill="none" stroke="#191970" d="M1479.0167,-302.389C1455.7122,-277.2051 1409.0867,-226.8195 1384.6935,-200.4592"/>
<polygon fill="#191970" stroke="#191970" points="1387.2482,-198.0666 1377.8874,-193.1042 1382.1105,-202.821 1387.2482,-198.0666"/>
</g>
<!-- Node48&#45;&gt;Node41 -->
<g id="edge81" class="edge">
<title>Node48&#45;&gt;Node41</title>
<path fill="none" stroke="#191970" d="M1556.5107,-302.4639C1599.7807,-292.2198 1657.2002,-278.6257 1702.4569,-267.9113"/>
<polygon fill="#191970" stroke="#191970" points="1703.2876,-271.3114 1712.2123,-265.6017 1701.6749,-264.4997 1703.2876,-271.3114"/>
</g>
<!-- Node48&#45;&gt;Node46 -->
<g id="edge84" class="edge">
<title>Node48&#45;&gt;Node46</title>
<path fill="none" stroke="#191970" d="M1565.1378,-302.4689C1601.1993,-293.34 1639.398,-280.6356 1650,-266 1658.0827,-254.8422 1657.6326,-246.4704 1650,-235 1649.3241,-233.9843 1596.1598,-211.9571 1559.9558,-197.0426"/>
<polygon fill="#191970" stroke="#191970" points="1560.8313,-193.6181 1550.2518,-193.0479 1558.1666,-200.0911 1560.8313,-193.6181"/>
</g>
<!-- Node49 -->
<g id="node50" class="node">
<title>Node49</title>
<polygon fill="none" stroke="#bfbfbf" points="1069.5,-241 1069.5,-260 1126.5,-260 1126.5,-241 1069.5,-241"/>
<text text-anchor="middle" x="1098" y="-248" font-family="Helvetica,sans-Serif" font-size="10.00" fill="#000000">TClass.h</text>
</g>
<!-- Node48&#45;&gt;Node49 -->
<g id="edge82" class="edge">
<title>Node48&#45;&gt;Node49</title>
<path fill="none" stroke="#191970" d="M1418.7729,-312.1034C1345.8095,-305.5636 1231.7819,-292.0225 1136,-266 1133.5333,-265.3298 1131.0118,-264.5431 1128.4991,-263.6857"/>
<polygon fill="#191970" stroke="#191970" points="1129.5797,-260.353 1118.9873,-260.125 1127.1255,-266.9088 1129.5797,-260.353"/>
</g>
<!-- Node50 -->
<g id="node51" class="node">
<title>Node50</title>
<polygon fill="none" stroke="#bfbfbf" points="1145,-241 1145,-260 1193,-260 1193,-241 1145,-241"/>
<text text-anchor="middle" x="1169" y="-248" font-family="Helvetica,sans-Serif" font-size="10.00" fill="#000000">TFile.h</text>
</g>
<!-- Node48&#45;&gt;Node50 -->
<g id="edge85" class="edge">
<title>Node48&#45;&gt;Node50</title>
<path fill="none" stroke="#191970" d="M1418.7797,-309.552C1359.4505,-301.9575 1274.6502,-288.301 1203,-266 1201.0953,-265.4072 1199.1576,-264.7331 1197.2224,-264.0059"/>
<polygon fill="#191970" stroke="#191970" points="1198.3075,-260.6666 1187.7302,-260.0569 1195.6186,-267.1296 1198.3075,-260.6666"/>
</g>
<!-- Node51&#45;&gt;Node7 -->
<g id="edge88" class="edge">
<title>Node51&#45;&gt;Node7</title>
<path fill="none" stroke="#191970" d="M1752.4283,-307.9671C1792.8177,-298.7723 1846.2748,-283.6734 1859,-266 1884.7086,-230.2946 1820.8003,-204.7448 1845,-168 1860.7648,-144.0627 1891.8771,-132.5307 1916.5073,-127.0051"/>
<polygon fill="#191970" stroke="#191970" points="1917.4832,-130.3793 1926.6026,-124.9861 1916.1103,-123.5153 1917.4832,-130.3793"/>
</g>
<!-- Node52&#45;&gt;Node8 -->
<g id="edge93" class="edge">
<title>Node52&#45;&gt;Node8</title>
<path fill="none" stroke="#191970" d="M2748.4875,-449.8129C2437.0606,-441.026 1032.217,-398.3869 601,-333 473.6337,-313.687 398.8722,-367.0723 319,-266 310.4575,-255.1901 310.5353,-245.8709 319,-235 370.7923,-168.4855 639.9631,-134.9272 733.74,-125.1219"/>
<polygon fill="#191970" stroke="#191970" points="734.1871,-128.5945 743.7784,-124.0936 733.4737,-121.631 734.1871,-128.5945"/>
</g>
<!-- Node52&#45;&gt;Node10 -->
<g id="edge94" class="edge">
<title>Node52&#45;&gt;Node10</title>
<path fill="none" stroke="#191970" d="M2871.8381,-448.753C3078.1929,-438.4285 3739.1748,-395.6772 3900,-266 3935.5623,-237.3253 3958.8974,-204.1752 3931,-168 3894.5065,-120.6781 3858.5008,-145.9699 3799.036,-133.0853"/>
<polygon fill="#191970" stroke="#191970" points="3799.8352,-129.6775 3789.2872,-130.6726 3798.1535,-136.4725 3799.8352,-129.6775"/>
</g>
<!-- Node52&#45;&gt;Node18 -->
<g id="edge137" class="edge">
<title>Node52&#45;&gt;Node18</title>
<path fill="none" stroke="#191970" d="M2748.3512,-450.965C2589.8424,-449.0272 2155.3335,-440.1613 1796,-400 1622.9567,-380.6596 1581.2836,-364.304 1410,-333 1257.8162,-305.1867 1217.3673,-298.0258 1061.4977,-266.0771"/>
<polygon fill="#191970" stroke="#191970" points="1062.0528,-262.6182 1051.5534,-264.0374 1060.6462,-269.4754 1062.0528,-262.6182"/>
</g>
<!-- Node52&#45;&gt;Node33 -->
<g id="edge139" class="edge">
<title>Node52&#45;&gt;Node33</title>
<path fill="none" stroke="#191970" d="M2748.4651,-450.6176C2589.6291,-447.8289 2168.9421,-437.0616 2035,-400 1982.0558,-385.3504 1926.3027,-352.2078 1896.2933,-332.6805"/>
<polygon fill="#191970" stroke="#191970" points="1898.1107,-329.6864 1887.8381,-327.093 1894.2513,-335.5264 1898.1107,-329.6864"/>
</g>
<!-- Node52&#45;&gt;Node35 -->
<g id="edge138" class="edge">
<title>Node52&#45;&gt;Node35</title>
<path fill="none" stroke="#191970" d="M2748.3223,-444.0935C2618.5921,-426.7912 2310.16,-376.5185 2076,-266 2031.1112,-244.8134 1981.0981,-215.7137 1952.2182,-198.3371"/>
<polygon fill="#191970" stroke="#191970" points="1953.985,-195.3153 1943.6175,-193.1322 1950.3608,-201.3041 1953.985,-195.3153"/>
</g>
<!-- Node52&#45;&gt;Node37 -->
<g id="edge140" class="edge">
<title>Node52&#45;&gt;Node37</title>
<path fill="none" stroke="#191970" d="M2851.2008,-436.4643C2911.1308,-411.8192 3018.5313,-356.3319 3049,-266 3053.4035,-252.9449 3054.5932,-247.5914 3049,-235 3043.7974,-223.2878 3034.4692,-213.1119 3024.8458,-204.9693"/>
<polygon fill="#191970" stroke="#191970" points="3026.7995,-202.053 3016.7767,-198.6187 3022.4703,-207.5537 3026.7995,-202.053"/>
</g>
<!-- Node53 -->
<g id="node54" class="node">
<title>Node53</title>
<polygon fill="none" stroke="#bfbfbf" points="3333,-174 3333,-193 3381,-193 3381,-174 3333,-174"/>
<text text-anchor="middle" x="3357" y="-181" font-family="Helvetica,sans-Serif" font-size="10.00" fill="#000000">gsl/gsl</text>
</g>
<!-- Node52&#45;&gt;Node53 -->
<g id="edge95" class="edge">
<title>Node52&#45;&gt;Node53</title>
<path fill="none" stroke="#191970" d="M2871.5322,-444.3811C3023.3763,-425.3608 3408.6521,-367.7612 3478,-266 3503.504,-228.5754 3434.9358,-203.2895 3390.859,-191.3688"/>
<polygon fill="#191970" stroke="#191970" points="3391.6192,-187.9502 3381.0607,-188.8269 3389.8614,-194.7259 3391.6192,-187.9502"/>
</g>
<!-- Node54 -->
<g id="node55" class="node">
<title>Node54</title>
<g id="a_node55"><a xlink:href="../../d0/d35/PayLoadCont_8h.html" target="_top" xlink:title="Declaration of class for continuos buffer of ALPIDE data. ">
<polygon fill="none" stroke="#000000" points="3123.5,-235.5 3123.5,-265.5 3246.5,-265.5 3246.5,-235.5 3123.5,-235.5"/>
<text text-anchor="start" x="3131.5" y="-253.5" font-family="Helvetica,sans-Serif" font-size="10.00" fill="#000000">ITSMFTReconstruction</text>
<text text-anchor="middle" x="3185" y="-242.5" font-family="Helvetica,sans-Serif" font-size="10.00" fill="#000000">/PayLoadCont.h</text>
</a>
</g>
</g>
<!-- Node52&#45;&gt;Node54 -->
<g id="edge96" class="edge">
<title>Node52&#45;&gt;Node54</title>
<path fill="none" stroke="#191970" d="M2871.6863,-447.3527C2947.9606,-441.1377 3072.2267,-427.1244 3109,-400 3150.4408,-369.4328 3170.8958,-309.7469 3179.5824,-275.7652"/>
<polygon fill="#191970" stroke="#191970" points="3183.0664,-276.246 3182.0009,-265.7049 3176.2603,-274.6097 3183.0664,-276.246"/>
</g>
<!-- Node56 -->
<g id="node57" class="node">
<title>Node56</title>
<g id="a_node57"><a xlink:href="../../d4/d20/PayLoadSG_8h.html" target="_top" xlink:title="Declaration of class for scatter&#45;gather buffer. ">
<polygon fill="none" stroke="#000000" points="2722.5,-235.5 2722.5,-265.5 2845.5,-265.5 2845.5,-235.5 2722.5,-235.5"/>
<text text-anchor="start" x="2730.5" y="-253.5" font-family="Helvetica,sans-Serif" font-size="10.00" fill="#000000">ITSMFTReconstruction</text>
<text text-anchor="middle" x="2784" y="-242.5" font-family="Helvetica,sans-Serif" font-size="10.00" fill="#000000">/PayLoadSG.h</text>
</a>
</g>
</g>
<!-- Node52&#45;&gt;Node56 -->
<g id="edge101" class="edge">
<title>Node52&#45;&gt;Node56</title>
<path fill="none" stroke="#191970" d="M2808.0458,-436.3923C2803.6024,-402.0414 2792.7044,-317.7914 2787.2377,-275.5301"/>
<polygon fill="#191970" stroke="#191970" points="2790.6954,-274.9771 2785.9414,-265.5088 2783.7533,-275.8752 2790.6954,-274.9771"/>
</g>
<!-- Node57 -->
<g id="node58" class="node">
<title>Node57</title>
<g id="a_node58"><a xlink:href="../../dd/d86/GBTWord_8h.html" target="_top" xlink:title="ITSMFTReconstruction\l/GBTWord.h">
<polygon fill="none" stroke="#000000" points="3437.5,-168.5 3437.5,-198.5 3560.5,-198.5 3560.5,-168.5 3437.5,-168.5"/>
<text text-anchor="start" x="3445.5" y="-186.5" font-family="Helvetica,sans-Serif" font-size="10.00" fill="#000000">ITSMFTReconstruction</text>
<text text-anchor="middle" x="3499" y="-175.5" font-family="Helvetica,sans-Serif" font-size="10.00" fill="#000000">/GBTWord.h</text>
</a>
</g>
</g>
<!-- Node52&#45;&gt;Node57 -->
<g id="edge105" class="edge">
<title>Node52&#45;&gt;Node57</title>
<path fill="none" stroke="#191970" d="M2871.5342,-447.6396C2952.8098,-441.6761 3100.0315,-427.8733 3223,-400 3314.8359,-379.1835 3343.3608,-381.6259 3424,-333 3460.8792,-310.7616 3475.8943,-305.0743 3494,-266 3502.2644,-248.1644 3503.1156,-225.7927 3502.121,-208.8471"/>
<polygon fill="#191970" stroke="#191970" points="3505.5849,-208.2692 3501.2602,-198.5972 3498.6094,-208.855 3505.5849,-208.2692"/>
</g>
<!-- Node52&#45;&gt;Node58 -->
<g id="edge108" class="edge">
<title>Node52&#45;&gt;Node58</title>
<path fill="none" stroke="#191970" d="M2769.6045,-436.4639C2743.1792,-426.6278 2708.4569,-413.7034 2680.252,-403.2049"/>
<polygon fill="#191970" stroke="#191970" points="2681.1645,-399.81 2670.5717,-399.6017 2678.7226,-406.3703 2681.1645,-399.81"/>
</g>
<!-- Node54&#45;&gt;Node5 -->
<g id="edge100" class="edge">
<title>Node54&#45;&gt;Node5</title>
<path fill="none" stroke="#191970" d="M3202.207,-235.1561C3211.4427,-225.7498 3221.9427,-212.8748 3227,-199 3240.2426,-162.669 3254.615,-140.0526 3228,-112 3198.9483,-81.3791 2561.6902,-69.2567 2394.0884,-66.5916"/>
<polygon fill="#191970" stroke="#191970" points="2394.0173,-63.0901 2383.9637,-66.433 2393.9077,-70.0893 2394.0173,-63.0901"/>
</g>
<!-- Node54&#45;&gt;Node12 -->
<g id="edge97" class="edge">
<title>Node54&#45;&gt;Node12</title>
<path fill="none" stroke="#191970" d="M3197.2876,-235.2653C3210.3252,-217.1633 3226.8925,-187.0251 3210,-168 3198.3775,-154.9102 2951.9926,-132.8183 2859.0585,-124.9178"/>
<polygon fill="#191970" stroke="#191970" points="2859.279,-121.424 2849.0196,-124.0689 2858.6891,-128.3991 2859.279,-121.424"/>
</g>
<!-- Node54&#45;&gt;Node42 -->
<g id="edge98" class="edge">
<title>Node54&#45;&gt;Node42</title>
<path fill="none" stroke="#191970" d="M3123.3345,-244.7296C2977.4318,-231.0767 2614.8762,-197.1504 2502.6532,-186.6491"/>
<polygon fill="#191970" stroke="#191970" points="2502.8727,-183.1544 2492.5901,-185.7074 2502.2204,-190.124 2502.8727,-183.1544"/>
</g>
<!-- Node55 -->
<g id="node56" class="node">
<title>Node55</title>
<polygon fill="none" stroke="#bfbfbf" points="3135.5,-174 3135.5,-193 3200.5,-193 3200.5,-174 3135.5,-174"/>
<text text-anchor="middle" x="3168" y="-181" font-family="Helvetica,sans-Serif" font-size="10.00" fill="#000000">functional</text>
</g>
<!-- Node54&#45;&gt;Node55 -->
<g id="edge99" class="edge">
<title>Node54&#45;&gt;Node55</title>
<path fill="none" stroke="#191970" d="M3181.1424,-235.2967C3178.6995,-225.6685 3175.5185,-213.1318 3172.898,-202.8038"/>
<polygon fill="#191970" stroke="#191970" points="3176.2764,-201.887 3170.4244,-193.055 3169.4914,-203.6086 3176.2764,-201.887"/>
</g>
<!-- Node56&#45;&gt;Node5 -->
<g id="edge104" class="edge">
<title>Node56&#45;&gt;Node5</title>
<path fill="none" stroke="#191970" d="M2802.9306,-235.4721C2834.9404,-208.321 2893.0144,-150.3557 2858,-112 2826.872,-77.9016 2507.103,-68.7865 2393.653,-66.6162"/>
<polygon fill="#191970" stroke="#191970" points="2393.7086,-63.1167 2383.6461,-66.4327 2393.5802,-70.1155 2393.7086,-63.1167"/>
</g>
<!-- Node56&#45;&gt;Node7 -->
<g id="edge102" class="edge">
<title>Node56&#45;&gt;Node7</title>
<path fill="none" stroke="#191970" d="M2736.9749,-235.4924C2669.2253,-214.0868 2547.3223,-176.4359 2502,-168 2310.0627,-132.2742 2075.2474,-124.2777 1987.3933,-122.5018"/>
<polygon fill="#191970" stroke="#191970" points="1987.245,-118.9985 1977.1812,-122.3105 1987.1138,-125.9972 1987.245,-118.9985"/>
</g>
<!-- Node56&#45;&gt;Node42 -->
<g id="edge103" class="edge">
<title>Node56&#45;&gt;Node42</title>
<path fill="none" stroke="#191970" d="M2722.2227,-237.7718C2717.4129,-236.8202 2712.629,-235.8864 2708,-235 2618.8648,-217.9308 2594.1636,-224.2776 2507,-199 2504.6905,-198.3302 2502.3295,-197.5677 2499.9707,-196.7484"/>
<polygon fill="#191970" stroke="#191970" points="2501.0159,-193.4022 2490.424,-193.1539 2498.5493,-199.9532 2501.0159,-193.4022"/>
</g>
<!-- Node57&#45;&gt;Node5 -->
<g id="edge106" class="edge">
<title>Node57&#45;&gt;Node5</title>
<path fill="none" stroke="#191970" d="M3489.7204,-168.4855C3478.1399,-151.2936 3456.5847,-123.9664 3430,-112 3381.8909,-90.3449 2582.0193,-71.1137 2393.5498,-66.8689"/>
<polygon fill="#191970" stroke="#191970" points="2393.6012,-63.3693 2383.5253,-66.6443 2393.4444,-70.3675 2393.6012,-63.3693"/>
</g>
<!-- Node57&#45;&gt;Node7 -->
<g id="edge107" class="edge">
<title>Node57&#45;&gt;Node7</title>
<path fill="none" stroke="#191970" d="M3437.4563,-173.5338C3422.0016,-171.3662 3405.4253,-169.3271 3390,-168 2865.4724,-122.8713 2732.1453,-150.3557 2206,-132 2127.9298,-129.2764 2036.3843,-125.5382 1987.3244,-123.4907"/>
<polygon fill="#191970" stroke="#191970" points="1987.371,-119.9897 1977.2333,-123.0683 1987.0782,-126.9835 1987.371,-119.9897"/>
</g>
<!-- Node58&#45;&gt;Node1 -->
<g id="edge109" class="edge">
<title>Node58&#45;&gt;Node1</title>
<path fill="none" stroke="#191970" d="M2568.4467,-383.1131C2234.2625,-375.5618 650.9982,-339.5021 601,-333 473.2535,-316.3871 398.8722,-367.0723 319,-266 261.0383,-192.6538 435.4943,-144.9254 509.4976,-128.432"/>
<polygon fill="#191970" stroke="#191970" points="510.6192,-131.77 519.6476,-126.2259 509.1324,-124.9298 510.6192,-131.77"/>
</g>
<!-- Node58&#45;&gt;Node10 -->
<g id="edge110" class="edge">
<title>Node58&#45;&gt;Node10</title>
<path fill="none" stroke="#191970" d="M2691.6629,-381.6754C2927.6389,-370.45 3765.2442,-326.6407 3867,-266 3908.1714,-241.4642 3940.5632,-206.4867 3912,-168 3911.1216,-166.8165 3843.5479,-146.6753 3798.8043,-133.4403"/>
<polygon fill="#191970" stroke="#191970" points="3799.6649,-130.0451 3789.0829,-130.5672 3797.6808,-136.758 3799.6649,-130.0451"/>
</g>
<!-- Node58&#45;&gt;Node54 -->
<g id="edge119" class="edge">
<title>Node58&#45;&gt;Node54</title>
<path fill="none" stroke="#191970" d="M2691.6291,-381.086C2765.6005,-375.8041 2892.8293,-362.9314 2998,-333 3052.4306,-317.5092 3111.619,-289.3003 3148.512,-270.2318"/>
<polygon fill="#191970" stroke="#191970" points="3150.1501,-273.325 3157.3948,-265.5942 3146.9104,-267.1198 3150.1501,-273.325"/>
</g>
<!-- Node58&#45;&gt;Node59 -->
<g id="edge111" class="edge">
<title>Node58&#45;&gt;Node59</title>
<path fill="none" stroke="#191970" d="M2627.068,-369.389C2622.6597,-346.6691 2614.2715,-303.438 2608.9168,-275.8405"/>
<polygon fill="#191970" stroke="#191970" points="2612.3019,-274.9116 2606.9612,-265.7614 2605.4301,-276.245 2612.3019,-274.9116"/>
</g>
<!-- Node62 -->
<g id="node63" class="node">
<title>Node62</title>
<g id="a_node63"><a xlink:href="../../d8/da2/AlpideCoder_8h.html" target="_top" xlink:title="class for the ALPIDE data decoding/encoding ">
<polygon fill="none" stroke="#000000" points="2255.5,-302.5 2255.5,-332.5 2378.5,-332.5 2378.5,-302.5 2255.5,-302.5"/>
<text text-anchor="start" x="2263.5" y="-320.5" font-family="Helvetica,sans-Serif" font-size="10.00" fill="#000000">ITSMFTReconstruction</text>
<text text-anchor="middle" x="2317" y="-309.5" font-family="Helvetica,sans-Serif" font-size="10.00" fill="#000000">/AlpideCoder.h</text>
</a>
</g>
</g>
<!-- Node58&#45;&gt;Node62 -->
<g id="edge120" class="edge">
<title>Node58&#45;&gt;Node62</title>
<path fill="none" stroke="#191970" d="M2568.1613,-371.263C2516.5033,-360.2052 2442.8042,-344.4293 2388.5957,-332.8256"/>
<polygon fill="#191970" stroke="#191970" points="2389.2214,-329.3803 2378.7103,-330.7095 2387.7561,-336.2253 2389.2214,-329.3803"/>
</g>
<!-- Node59&#45;&gt;Node7 -->
<g id="edge118" class="edge">
<title>Node59&#45;&gt;Node7</title>
<path fill="none" stroke="#191970" d="M2542.4752,-236.3978C2466.9497,-219.2832 2334.8672,-189.9892 2221,-168 2137.4388,-151.8633 2038.7048,-135.7245 1987.2297,-127.5311"/>
<polygon fill="#191970" stroke="#191970" points="1987.709,-124.0635 1977.2841,-125.9534 1986.6122,-130.977 1987.709,-124.0635"/>
</g>
<!-- Node59&#45;&gt;Node37 -->
<g id="edge115" class="edge">
<title>Node59&#45;&gt;Node37</title>
<path fill="none" stroke="#191970" d="M2665.9088,-239.8096C2727.6195,-229.1533 2823.2893,-212.633 2895.0723,-200.2375"/>
<polygon fill="#191970" stroke="#191970" points="2895.778,-203.6675 2905.0366,-198.5169 2894.5868,-196.7696 2895.778,-203.6675"/>
</g>
<!-- Node59&#45;&gt;Node42 -->
<g id="edge116" class="edge">
<title>Node59&#45;&gt;Node42</title>
<path fill="none" stroke="#191970" d="M2573.7034,-235.4639C2550.848,-224.1209 2519.7171,-208.6707 2497.3506,-197.5703"/>
<polygon fill="#191970" stroke="#191970" points="2498.8647,-194.4144 2488.3512,-193.1039 2495.7527,-200.6847 2498.8647,-194.4144"/>
</g>
<!-- Node60 -->
<g id="node61" class="node">
<title>Node60</title>
<g id="a_node61"><a xlink:href="../../d3/d1e/DataFormats_2Detectors_2ITSMFT_2common_2include_2DataFormatsITSMFT_2Digit_8h.html" target="_top" xlink:title="DataFormatsITSMFT/Digit.h">
<polygon fill="none" stroke="#000000" points="2662.5,-174 2662.5,-193 2811.5,-193 2811.5,-174 2662.5,-174"/>
<text text-anchor="middle" x="2737" y="-181" font-family="Helvetica,sans-Serif" font-size="10.00" fill="#000000">DataFormatsITSMFT/Digit.h</text>
</a>
</g>
</g>
<!-- Node59&#45;&gt;Node60 -->
<g id="edge112" class="edge">
<title>Node59&#45;&gt;Node60</title>
<path fill="none" stroke="#191970" d="M2633.8478,-235.4639C2656.264,-224.1715 2686.7606,-208.8086 2708.7738,-197.7192"/>
<polygon fill="#191970" stroke="#191970" points="2710.5793,-200.7287 2717.9355,-193.1039 2707.43,-194.4772 2710.5793,-200.7287"/>
</g>
<!-- Node61 -->
<g id="node62" class="node">
<title>Node61</title>
<polygon fill="none" stroke="#bfbfbf" points="2382.5,-174 2382.5,-193 2427.5,-193 2427.5,-174 2382.5,-174"/>
<text text-anchor="middle" x="2405" y="-181" font-family="Helvetica,sans-Serif" font-size="10.00" fill="#000000">utility</text>
</g>
<!-- Node59&#45;&gt;Node61 -->
<g id="edge117" class="edge">
<title>Node59&#45;&gt;Node61</title>
<path fill="none" stroke="#191970" d="M2547.6016,-235.421C2514.8855,-226.103 2473.1355,-213.228 2437,-199 2435.6,-198.4487 2434.1764,-197.8619 2432.7465,-197.2514"/>
<polygon fill="#191970" stroke="#191970" points="2433.9521,-193.9548 2423.4003,-193.0016 2431.0546,-200.3269 2433.9521,-193.9548"/>
</g>
<!-- Node60&#45;&gt;Node5 -->
<g id="edge113" class="edge">
<title>Node60&#45;&gt;Node5</title>
<path fill="none" stroke="#191970" d="M2705.9819,-173.984C2636.7865,-152.7556 2469.9008,-101.557 2393.4496,-78.1027"/>
<polygon fill="#191970" stroke="#191970" points="2394.3028,-74.7035 2383.716,-75.1165 2392.2497,-81.3957 2394.3028,-74.7035"/>
</g>
<!-- Node60&#45;&gt;Node15 -->
<g id="edge114" class="edge">
<title>Node60&#45;&gt;Node15</title>
<path fill="none" stroke="#191970" d="M2685.9002,-173.944C2673.824,-171.8398 2660.9763,-169.7265 2649,-168 2511.4324,-148.1683 2346.7905,-131.9165 2275.6397,-125.2539"/>
<polygon fill="#191970" stroke="#191970" points="2275.7189,-121.7463 2265.4376,-124.3045 2275.0702,-128.7161 2275.7189,-121.7463"/>
</g>
<!-- Node62&#45;&gt;Node5 -->
<g id="edge121" class="edge">
<title>Node62&#45;&gt;Node5</title>
<path fill="none" stroke="#191970" d="M2378.6021,-307.7208C2424.21,-299.0761 2480.7925,-284.9008 2495,-266 2549.0128,-194.1447 2419.4181,-251.2632 2374,-199 2346.4163,-167.2591 2347.7444,-114.3554 2350.9571,-85.7732"/>
<polygon fill="#191970" stroke="#191970" points="2354.437,-86.1544 2352.2728,-75.7829 2347.4969,-85.2403 2354.437,-86.1544"/>
</g>
<!-- Node62&#45;&gt;Node7 -->
<g id="edge123" class="edge">
<title>Node62&#45;&gt;Node7</title>
<path fill="none" stroke="#191970" d="M2255.4893,-308.1399C2216.7252,-300.5288 2166.5248,-287.445 2126,-266 2066.9444,-234.7488 2063.8659,-210.1204 2012,-168 1999.3337,-157.7137 1984.8206,-146.5704 1973.2411,-137.828"/>
<polygon fill="#191970" stroke="#191970" points="1975.1346,-134.8728 1965.0371,-131.6646 1970.93,-140.4694 1975.1346,-134.8728"/>
</g>
<!-- Node62&#45;&gt;Node8 -->
<g id="edge125" class="edge">
<title>Node62&#45;&gt;Node8</title>
<path fill="none" stroke="#191970" d="M2255.3009,-314.8091C2076.2844,-306.8395 1564.7538,-282.8634 1491,-266 1455.4381,-257.869 1450.5027,-243.3858 1415,-235 1211.541,-186.9425 1149.045,-248.7778 946,-199 888.668,-184.9447 826.2825,-154.5217 792.0864,-136.4077"/>
<polygon fill="#191970" stroke="#191970" points="793.683,-133.2924 783.2164,-131.6488 790.3736,-139.4607 793.683,-133.2924"/>
</g>
<!-- Node62&#45;&gt;Node31 -->
<g id="edge126" class="edge">
<title>Node62&#45;&gt;Node31</title>
<path fill="none" stroke="#191970" d="M2255.3214,-314.8454C2041.6096,-305.5879 1343.2434,-274.8156 1296,-266 1292.0276,-265.2588 1287.9285,-264.2667 1283.8833,-263.1411"/>
<polygon fill="#191970" stroke="#191970" points="1284.6281,-259.709 1274.0418,-260.1344 1282.5828,-266.4035 1284.6281,-259.709"/>
</g>
<!-- Node62&#45;&gt;Node42 -->
<g id="edge124" class="edge">
<title>Node62&#45;&gt;Node42</title>
<path fill="none" stroke="#191970" d="M2334.1409,-302.389C2362.9539,-276.988 2420.849,-225.9489 2450.53,-199.7828"/>
<polygon fill="#191970" stroke="#191970" points="2452.919,-202.3426 2458.1057,-193.1042 2448.2899,-197.0917 2452.919,-202.3426"/>
</g>
<!-- Node62&#45;&gt;Node43 -->
<g id="edge129" class="edge">
<title>Node62&#45;&gt;Node43</title>
<path fill="none" stroke="#191970" d="M2255.2466,-310.7191C2221.3348,-304.1699 2180.5041,-291.2977 2152,-266 2133.3529,-249.4505 2123.6018,-221.6801 2118.8858,-202.9826"/>
<polygon fill="#191970" stroke="#191970" points="2122.2868,-202.1538 2116.6618,-193.1755 2115.4602,-203.702 2122.2868,-202.1538"/>
</g>
<!-- Node62&#45;&gt;Node47 -->
<g id="edge127" class="edge">
<title>Node62&#45;&gt;Node47</title>
<path fill="none" stroke="#191970" d="M2255.4223,-304.6202C2217.5948,-295.3188 2174.2838,-281.6715 2163,-266 2149.377,-247.0797 2159.9313,-219.9315 2169.9314,-202.0161"/>
<polygon fill="#191970" stroke="#191970" points="2173.1238,-203.4985 2175.2729,-193.1239 2167.1232,-199.8939 2173.1238,-203.4985"/>
</g>
<!-- Node62&#45;&gt;Node54 -->
<g id="edge128" class="edge">
<title>Node62&#45;&gt;Node54</title>
<path fill="none" stroke="#191970" d="M2378.7014,-313.0205C2498.4934,-304.2854 2770.9251,-284.2325 3000,-266 3037.2696,-263.0336 3078.7483,-259.5731 3112.9692,-256.6752"/>
<polygon fill="#191970" stroke="#191970" points="3113.6755,-260.1279 3123.3438,-255.7951 3113.0837,-253.153 3113.6755,-260.1279"/>
</g>
<!-- Node62&#45;&gt;Node59 -->
<g id="edge130" class="edge">
<title>Node62&#45;&gt;Node59</title>
<path fill="none" stroke="#191970" d="M2378.5687,-303.1268C2423.6232,-292.6089 2484.8823,-278.308 2532.1707,-267.2685"/>
<polygon fill="#191970" stroke="#191970" points="2533.0962,-270.6467 2542.0386,-264.9649 2531.5048,-263.8299 2533.0962,-270.6467"/>
</g>
<!-- Node63 -->
<g id="node64" class="node">
<title>Node63</title>
<polygon fill="none" stroke="#bfbfbf" points="2440,-241 2440,-260 2486,-260 2486,-241 2440,-241"/>
<text text-anchor="middle" x="2463" y="-248" font-family="Helvetica,sans-Serif" font-size="10.00" fill="#000000">cstdio</text>
</g>
<!-- Node62&#45;&gt;Node63 -->
<g id="edge122" class="edge">
<title>Node62&#45;&gt;Node63</title>
<path fill="none" stroke="#191970" d="M2349.7652,-302.4639C2374.5932,-291.0702 2408.4512,-275.5327 2432.6628,-264.4219"/>
<polygon fill="#191970" stroke="#191970" points="2434.4432,-267.4559 2442.0721,-260.1039 2431.5236,-261.0938 2434.4432,-267.4559"/>
</g>
<!-- Node64 -->
<g id="node65" class="node">
<title>Node64</title>
<g id="a_node65"><a xlink:href="../../d0/d7b/NoiseMap_8h.html" target="_top" xlink:title="Definition of the ITSMFT NoiseMap. ">
<polygon fill="none" stroke="#000000" points="2172,-241 2172,-260 2346,-260 2346,-241 2172,-241"/>
<text text-anchor="middle" x="2259" y="-248" font-family="Helvetica,sans-Serif" font-size="10.00" fill="#000000">DataFormatsITSMFT/NoiseMap.h</text>
</a>
</g>
</g>
<!-- Node62&#45;&gt;Node64 -->
<g id="edge131" class="edge">
<title>Node62&#45;&gt;Node64</title>
<path fill="none" stroke="#191970" d="M2303.8389,-302.2967C2294.9777,-292.0605 2283.2705,-278.5366 2274.0407,-267.8746"/>
<polygon fill="#191970" stroke="#191970" points="2276.4627,-265.3248 2267.2715,-260.055 2271.1703,-269.9064 2276.4627,-265.3248"/>
</g>
<!-- Node64&#45;&gt;Node5 -->
<g id="edge132" class="edge">
<title>Node64&#45;&gt;Node5</title>
<path fill="none" stroke="#191970" d="M2263.9739,-240.8402C2279.0436,-211.5732 2324.3856,-123.5142 2344.3662,-84.7099"/>
<polygon fill="#191970" stroke="#191970" points="2347.6092,-86.057 2349.0754,-75.5641 2341.3858,-82.8525 2347.6092,-86.057"/>
</g>
<!-- Node64&#45;&gt;Node15 -->
<g id="edge134" class="edge">
<title>Node64&#45;&gt;Node15</title>
<path fill="none" stroke="#191970" d="M2257.5719,-240.8416C2254.4772,-219.9114 2247.0979,-170.004 2242.9537,-141.9762"/>
<polygon fill="#191970" stroke="#191970" points="2246.3698,-141.1509 2241.4447,-131.7705 2239.4451,-142.1749 2246.3698,-141.1509"/>
</g>
<!-- Node64&#45;&gt;Node42 -->
<g id="edge135" class="edge">
<title>Node64&#45;&gt;Node42</title>
<path fill="none" stroke="#191970" d="M2299.2267,-240.9398C2335.7267,-231.7785 2390.7455,-216.7466 2437,-199 2438.4048,-198.461 2439.8322,-197.8841 2441.2652,-197.2815"/>
<polygon fill="#191970" stroke="#191970" points="2442.947,-200.3624 2450.6219,-193.0585 2440.0674,-193.9822 2442.947,-200.3624"/>
</g>
<!-- Node64&#45;&gt;Node43 -->
<g id="edge136" class="edge">
<title>Node64&#45;&gt;Node43</title>
<path fill="none" stroke="#191970" d="M2235.6128,-240.8307C2211.9853,-230.8961 2174.5637,-214.7052 2143,-199 2142.3098,-198.6566 2141.6122,-198.3048 2140.9099,-197.9467"/>
<polygon fill="#191970" stroke="#191970" points="2142.226,-194.6828 2131.7521,-193.0861 2138.9442,-200.8659 2142.226,-194.6828"/>
</g>
<!-- Node64&#45;&gt;Node47 -->
<g id="edge133" class="edge">
<title>Node64&#45;&gt;Node47</title>
<path fill="none" stroke="#191970" d="M2247.9678,-240.9005C2235.6172,-230.1539 2215.3977,-212.5603 2200.5943,-199.6794"/>
<polygon fill="#191970" stroke="#191970" points="2202.8532,-197.0055 2193.0118,-193.0817 2198.2582,-202.2863 2202.8532,-197.0055"/>
</g>
<!-- Node65&#45;&gt;Node5 -->
<g id="edge143" class="edge">
<title>Node65&#45;&gt;Node5</title>
<path fill="none" stroke="#191970" d="M2988.6718,-315.631C3191.7523,-309.2796 3828.8173,-287.7124 3867,-266 3908.663,-242.3086 3937.3406,-208.681 3912,-168 3882.1537,-120.0858 3852.7745,-125.6498 3798,-112 3658.5912,-77.2594 2612.0205,-67.8572 2393.7987,-66.2659"/>
<polygon fill="#191970" stroke="#191970" points="2393.7761,-62.7657 2383.7513,-66.1939 2393.7259,-69.7655 2393.7761,-62.7657"/>
</g>
<!-- Node65&#45;&gt;Node37 -->
<g id="edge157" class="edge">
<title>Node65&#45;&gt;Node37</title>
<path fill="none" stroke="#191970" d="M2985.8562,-302.4036C3004.1506,-294.6438 3022.3076,-283.0825 3033,-266 3045.1057,-246.6596 3030.9879,-223.2555 3016.1136,-206.3224"/>
<polygon fill="#191970" stroke="#191970" points="3018.2515,-203.4847 3008.8625,-198.5758 3013.141,-208.2684 3018.2515,-203.4847"/>
</g>
<!-- Node65&#45;&gt;Node42 -->
<g id="edge158" class="edge">
<title>Node65&#45;&gt;Node42</title>
<path fill="none" stroke="#191970" d="M2865.3803,-309.8378C2821.4962,-302.6837 2762.0282,-289.4626 2714,-266 2694.105,-256.281 2695.0203,-244.4582 2675,-235 2605.9556,-202.3813 2579.9693,-221.5076 2507,-199 2504.7022,-198.2912 2502.3497,-197.4999 2499.997,-196.6602"/>
<polygon fill="#191970" stroke="#191970" points="2501.054,-193.3174 2490.4632,-193.0228 2498.5587,-199.8576 2501.054,-193.3174"/>
</g>
<!-- Node65&#45;&gt;Node59 -->
<g id="edge144" class="edge">
<title>Node65&#45;&gt;Node59</title>
<path fill="none" stroke="#191970" d="M2865.4859,-304.7401C2811.3536,-293.5114 2732.513,-277.1575 2675.5695,-265.3457"/>
<polygon fill="#191970" stroke="#191970" points="2676.062,-261.8734 2665.5595,-263.2693 2674.6402,-268.7275 2676.062,-261.8734"/>
</g>
<!-- Node66 -->
<g id="node67" class="node">
<title>Node66</title>
<g id="a_node67"><a xlink:href="../../d7/dcd/MCCompLabel_8h.html" target="_top" xlink:title="SimulationDataFormat\l/MCCompLabel.h">
<polygon fill="none" stroke="#000000" points="3341.5,-235.5 3341.5,-265.5 3468.5,-265.5 3468.5,-235.5 3341.5,-235.5"/>
<text text-anchor="start" x="3349.5" y="-253.5" font-family="Helvetica,sans-Serif" font-size="10.00" fill="#000000">SimulationDataFormat</text>
<text text-anchor="middle" x="3405" y="-242.5" font-family="Helvetica,sans-Serif" font-size="10.00" fill="#000000">/MCCompLabel.h</text>
</a>
</g>
</g>
<!-- Node65&#45;&gt;Node66 -->
<g id="edge145" class="edge">
<title>Node65&#45;&gt;Node66</title>
<path fill="none" stroke="#191970" d="M2988.5116,-308.8781C3076.3372,-296.5678 3237.4177,-273.9896 3331.4386,-260.8109"/>
<polygon fill="#191970" stroke="#191970" points="3332.025,-264.263 3341.4423,-259.4087 3331.0533,-257.3308 3332.025,-264.263"/>
</g>
<!-- Node67 -->
<g id="node68" class="node">
<title>Node67</title>
<g id="a_node68"><a xlink:href="../../db/d14/MCTruthContainer_8h.html" target="_top" xlink:title="Definition of a container to keep Monte Carlo truth external to simulation objects. ">
<polygon fill="none" stroke="#000000" points="2863.5,-235.5 2863.5,-265.5 2990.5,-265.5 2990.5,-235.5 2863.5,-235.5"/>
<text text-anchor="start" x="2871.5" y="-253.5" font-family="Helvetica,sans-Serif" font-size="10.00" fill="#000000">SimulationDataFormat</text>
<text text-anchor="middle" x="2927" y="-242.5" font-family="Helvetica,sans-Serif" font-size="10.00" fill="#000000">/MCTruthContainer.h</text>
</a>
</g>
</g>
<!-- Node65&#45;&gt;Node67 -->
<g id="edge147" class="edge">
<title>Node65&#45;&gt;Node67</title>
<path fill="none" stroke="#191970" d="M2927,-302.2967C2927,-294.5013 2927,-284.7991 2927,-275.9064"/>
<polygon fill="#191970" stroke="#191970" points="2930.5001,-275.6431 2927,-265.6432 2923.5001,-275.6432 2930.5001,-275.6431"/>
</g>
<!-- Node66&#45;&gt;Node34 -->
<g id="edge146" class="edge">
<title>Node66&#45;&gt;Node34</title>
<path fill="none" stroke="#191970" d="M3404.1801,-235.354C3402.8272,-218.3797 3399.2731,-190.3159 3390,-168 3385.833,-157.972 3379.2158,-147.9433 3373.0775,-139.8211"/>
<polygon fill="#191970" stroke="#191970" points="3375.7036,-137.4999 3366.7433,-131.8461 3370.2222,-141.8535 3375.7036,-137.4999"/>
</g>
<!-- Node67&#45;&gt;Node7 -->
<g id="edge149" class="edge">
<title>Node67&#45;&gt;Node7</title>
<path fill="none" stroke="#191970" d="M2863.4216,-236.6874C2860.5772,-236.1091 2857.7599,-235.5441 2855,-235 2765.9587,-217.4474 2737.5578,-234.4194 2654,-199 2632.3086,-189.8052 2633.1542,-176.0158 2611,-168 2552.1921,-146.7223 2115.1979,-128.3094 1987.1564,-123.3259"/>
<polygon fill="#191970" stroke="#191970" points="1987.2331,-119.8264 1977.1055,-122.9377 1986.9629,-126.8212 1987.2331,-119.8264"/>
</g>
<!-- Node67&#45;&gt;Node10 -->
<g id="edge155" class="edge">
<title>Node67&#45;&gt;Node10</title>
<path fill="none" stroke="#191970" d="M2990.5211,-245.2104C3026.9506,-242.1899 3073.543,-238.349 3115,-235 3216.0978,-226.833 3475.8695,-236.7745 3570,-199 3590.2279,-190.8826 3588.7593,-178.2401 3608,-168 3644.1271,-148.7728 3689.4615,-136.3774 3721.18,-129.3553"/>
<polygon fill="#191970" stroke="#191970" points="3721.9235,-132.7756 3730.9709,-127.2624 3720.4602,-125.9302 3721.9235,-132.7756"/>
</g>
<!-- Node67&#45;&gt;Node11 -->
<g id="edge150" class="edge">
<title>Node67&#45;&gt;Node11</title>
<path fill="none" stroke="#191970" d="M2863.4623,-236.4612C2860.6069,-235.9441 2857.7762,-235.4538 2855,-235 2713.7553,-211.911 2664.9054,-259.0645 2535,-199 2516.7349,-190.5547 2520.6093,-175.6571 2502,-168 2362.618,-110.6493 1295.0555,-154.3362 1146,-132 1145.8998,-131.985 1145.7994,-131.9698 1145.6989,-131.9544"/>
<polygon fill="#191970" stroke="#191970" points="1146.6751,-128.5798 1136.1858,-130.0709 1145.3156,-135.4465 1146.6751,-128.5798"/>
</g>
<!-- Node67&#45;&gt;Node12 -->
<g id="edge154" class="edge">
<title>Node67&#45;&gt;Node12</title>
<path fill="none" stroke="#191970" d="M2914.7801,-235.2548C2895.6175,-211.3481 2858.5915,-165.1554 2838.2474,-139.7747"/>
<polygon fill="#191970" stroke="#191970" points="2840.7891,-137.3495 2831.8038,-131.7358 2835.3272,-141.7276 2840.7891,-137.3495"/>
</g>
<!-- Node67&#45;&gt;Node14 -->
<g id="edge151" class="edge">
<title>Node67&#45;&gt;Node14</title>
<path fill="none" stroke="#191970" d="M2863.4417,-236.5809C2860.5919,-236.0314 2857.7679,-235.5016 2855,-235 2747.1382,-215.4546 2716.7375,-227.9099 2611,-199 2575.8119,-189.3792 2570.6438,-175.7646 2535,-168 2430.1805,-145.1664 1665.035,-127.0875 1474.7532,-122.9117"/>
<polygon fill="#191970" stroke="#191970" points="1474.6598,-119.409 1464.5858,-122.6899 1474.507,-126.4073 1474.6598,-119.409"/>
</g>
<!-- Node67&#45;&gt;Node22 -->
<g id="edge153" class="edge">
<title>Node67&#45;&gt;Node22</title>
<path fill="none" stroke="#191970" d="M2863.1139,-236.103C2860.3793,-235.6906 2857.6661,-235.3193 2855,-235 2252.4291,-162.8286 2095.0847,-245.6147 1490,-199 1464.6385,-197.0462 1436.4406,-193.5139 1413.6502,-190.3144"/>
<polygon fill="#191970" stroke="#191970" points="1413.9841,-186.8266 1403.5891,-188.8746 1412.9924,-193.756 1413.9841,-186.8266"/>
</g>
<!-- Node67&#45;&gt;Node34 -->
<g id="edge148" class="edge">
<title>Node67&#45;&gt;Node34</title>
<path fill="none" stroke="#191970" d="M2990.6758,-235.8545C3021.1726,-227.4285 3057.5849,-215.2464 3088,-199 3107.5304,-188.5677 3106.9115,-177.3125 3127,-168 3176.9436,-144.8474 3238.2397,-133.3246 3285.1373,-127.6025"/>
<polygon fill="#191970" stroke="#191970" points="3285.6873,-131.0623 3295.2179,-126.4344 3284.8815,-124.1088 3285.6873,-131.0623"/>
</g>
<!-- Node67&#45;&gt;Node42 -->
<g id="edge156" class="edge">
<title>Node67&#45;&gt;Node42</title>
<path fill="none" stroke="#191970" d="M2863.4674,-236.4301C2860.6106,-235.9214 2857.7782,-235.4414 2855,-235 2701.4341,-210.6017 2657.8416,-236.7439 2507,-199 2504.3692,-198.3417 2501.6806,-197.5365 2499.0097,-196.6427"/>
<polygon fill="#191970" stroke="#191970" points="2500.1411,-193.3293 2489.5483,-193.1213 2497.6994,-199.8896 2500.1411,-193.3293"/>
</g>
<!-- Node67&#45;&gt;Node53 -->
<g id="edge152" class="edge">
<title>Node67&#45;&gt;Node53</title>
<path fill="none" stroke="#191970" d="M2990.911,-240.5418C3083.228,-226.1575 3250.6931,-200.0641 3322.6414,-188.8536"/>
<polygon fill="#191970" stroke="#191970" points="3323.2014,-192.3086 3332.5433,-187.3107 3322.1237,-185.3921 3323.2014,-192.3086"/>
</g>
<!-- Node68&#45;&gt;Node37 -->
<g id="edge162" class="edge">
<title>Node68&#45;&gt;Node37</title>
<path fill="none" stroke="#191970" d="M3678.4726,-244.2763C3554.4843,-235.436 3323.5362,-218.1722 3127,-199 3114.772,-197.8072 3101.9323,-196.4582 3089.2358,-195.066"/>
<polygon fill="#191970" stroke="#191970" points="3089.4233,-191.5654 3079.0986,-193.9423 3088.6521,-198.5228 3089.4233,-191.5654"/>
</g>
<!-- Node69 -->
<g id="node70" class="node">
<title>Node69</title>
<g id="a_node70"><a xlink:href="../../de/d64/RangeReference_8h.html" target="_top" xlink:title="Class to refer to the 1st entry and N elements of some group in the continuous container. ">
<polygon fill="none" stroke="#000000" points="3617,-174 3617,-193 3827,-193 3827,-174 3617,-174"/>
<text text-anchor="middle" x="3722" y="-181" font-family="Helvetica,sans-Serif" font-size="10.00" fill="#000000">CommonDataFormat/RangeReference.h</text>
</a>
</g>
</g>
<!-- Node68&#45;&gt;Node69 -->
<g id="edge160" class="edge">
<title>Node68&#45;&gt;Node69</title>
<path fill="none" stroke="#191970" d="M3761.4093,-240.9005C3754.3727,-230.6515 3743.0602,-214.1747 3734.3566,-201.4976"/>
<polygon fill="#191970" stroke="#191970" points="3737.124,-199.3446 3728.5785,-193.0817 3731.3532,-203.3067 3737.124,-199.3446"/>
</g>
<!-- Node70 -->
<g id="node71" class="node">
<title>Node70</title>
<polygon fill="none" stroke="#bfbfbf" points="3845.5,-174 3845.5,-193 3902.5,-193 3902.5,-174 3845.5,-174"/>
<text text-anchor="middle" x="3874" y="-181" font-family="Helvetica,sans-Serif" font-size="10.00" fill="#000000">gsl/span</text>
</g>
<!-- Node68&#45;&gt;Node70 -->
<g id="edge163" class="edge">
<title>Node68&#45;&gt;Node70</title>
<path fill="none" stroke="#191970" d="M3783.1872,-240.9005C3800.7403,-229.8057 3829.8394,-211.4128 3850.3598,-198.4424"/>
<polygon fill="#191970" stroke="#191970" points="3852.258,-201.3832 3858.841,-193.0817 3848.5179,-195.4661 3852.258,-201.3832"/>
</g>
<!-- Node69&#45;&gt;Node34 -->
<g id="edge161" class="edge">
<title>Node69&#45;&gt;Node34</title>
<path fill="none" stroke="#191970" d="M3665.5244,-173.9581C3600.3368,-162.9443 3493.2604,-144.8531 3424.2108,-133.1867"/>
<polygon fill="#191970" stroke="#191970" points="3424.752,-129.7286 3414.3086,-131.5137 3423.5858,-136.6308 3424.752,-129.7286"/>
</g>
</g>
</svg>
