<?xml version="1.0" encoding="UTF-8" standalone="no"?>
<!DOCTYPE svg PUBLIC "-//W3C//DTD SVG 1.1//EN"
 "http://www.w3.org/Graphics/SVG/1.1/DTD/svg11.dtd">
<!-- Generated by graphviz version 2.40.1 (20161225.0304)
 -->
<!-- Title: /home/travis/build/AliceO2Group/AliceO2/Utilities/rANS/include/rANS/Decoder.h Pages: 1 -->
<svg width="2154pt" height="539pt"
 viewBox="0.00 0.00 2154.00 539.00" xmlns="http://www.w3.org/2000/svg" xmlns:xlink="http://www.w3.org/1999/xlink">
<g id="graph0" class="graph" transform="scale(1 1) rotate(0) translate(4 535)">
<title>/home/travis/build/AliceO2Group/AliceO2/Utilities/rANS/include/rANS/Decoder.h</title>
<!-- Node20 -->
<g id="node1" class="node">
<title>Node20</title>
<polygon fill="#bfbfbf" stroke="#000000" points="1200.5,-478.5 1200.5,-530.5 1327.5,-530.5 1327.5,-478.5 1200.5,-478.5"/>
<text text-anchor="start" x="1208.5" y="-518.5" font-family="Helvetica,sans-Serif" font-size="10.00" fill="#000000">/home/travis/build</text>
<text text-anchor="start" x="1208.5" y="-507.5" font-family="Helvetica,sans-Serif" font-size="10.00" fill="#000000">/AliceO2Group/AliceO2</text>
<text text-anchor="start" x="1208.5" y="-496.5" font-family="Helvetica,sans-Serif" font-size="10.00" fill="#000000">/Utilities/rANS/include</text>
<text text-anchor="middle" x="1264" y="-485.5" font-family="Helvetica,sans-Serif" font-size="10.00" fill="#000000">/rANS/Decoder.h</text>
</g>
<!-- Node21 -->
<g id="node2" class="node">
<title>Node21</title>
<g id="a_node2"><a xlink:href="../../d4/de7/rans_8h.html" target="_top" xlink:title="header for public api ">
<polygon fill="none" stroke="#000000" points="1200.5,-389.5 1200.5,-441.5 1327.5,-441.5 1327.5,-389.5 1200.5,-389.5"/>
<text text-anchor="start" x="1208.5" y="-429.5" font-family="Helvetica,sans-Serif" font-size="10.00" fill="#000000">/home/travis/build</text>
<text text-anchor="start" x="1208.5" y="-418.5" font-family="Helvetica,sans-Serif" font-size="10.00" fill="#000000">/AliceO2Group/AliceO2</text>
<text text-anchor="start" x="1208.5" y="-407.5" font-family="Helvetica,sans-Serif" font-size="10.00" fill="#000000">/Utilities/rANS/include</text>
<text text-anchor="middle" x="1264" y="-396.5" font-family="Helvetica,sans-Serif" font-size="10.00" fill="#000000">/rANS/rans.h</text>
</a>
</g>
</g>
<!-- Node20&#45;&gt;Node21 -->
<g id="edge1" class="edge">
<title>Node20&#45;&gt;Node21</title>
<path fill="none" stroke="#191970" d="M1264,-468.1155C1264,-459.2061 1264,-449.8475 1264,-441.5341"/>
<polygon fill="#191970" stroke="#191970" points="1260.5001,-468.2784 1264,-478.2784 1267.5001,-468.2785 1260.5001,-468.2784"/>
</g>
<!-- Node22 -->
<g id="node3" class="node">
<title>Node22</title>
<g id="a_node3"><a xlink:href="../../da/d91/EncodedBlocks_8h.html" target="_top" xlink:title="/home/travis/build\l/AliceO2Group/AliceO2\l/DataFormats/Detectors\l/Common/include/DetectorsCommon\lDataFormats/EncodedBlocks.h">
<polygon fill="none" stroke="#000000" points="1165.5,-289.5 1165.5,-352.5 1362.5,-352.5 1362.5,-289.5 1165.5,-289.5"/>
<text text-anchor="start" x="1173.5" y="-340.5" font-family="Helvetica,sans-Serif" font-size="10.00" fill="#000000">/home/travis/build</text>
<text text-anchor="start" x="1173.5" y="-329.5" font-family="Helvetica,sans-Serif" font-size="10.00" fill="#000000">/AliceO2Group/AliceO2</text>
<text text-anchor="start" x="1173.5" y="-318.5" font-family="Helvetica,sans-Serif" font-size="10.00" fill="#000000">/DataFormats/Detectors</text>
<text text-anchor="start" x="1173.5" y="-307.5" font-family="Helvetica,sans-Serif" font-size="10.00" fill="#000000">/Common/include/DetectorsCommon</text>
<text text-anchor="middle" x="1264" y="-296.5" font-family="Helvetica,sans-Serif" font-size="10.00" fill="#000000">DataFormats/EncodedBlocks.h</text>
</a>
</g>
</g>
<!-- Node21&#45;&gt;Node22 -->
<g id="edge2" class="edge">
<title>Node21&#45;&gt;Node22</title>
<path fill="none" stroke="#191970" d="M1264,-379.1424C1264,-370.4277 1264,-361.1902 1264,-352.7054"/>
<polygon fill="#191970" stroke="#191970" points="1260.5001,-379.4273 1264,-389.4273 1267.5001,-379.4273 1260.5001,-379.4273"/>
</g>
<!-- Node28 -->
<g id="node9" class="node">
<title>Node28</title>
<g id="a_node9"><a xlink:href="../../da/ddf/FIT_2FT0_2reconstruction_2include_2FT0Reconstruction_2CTFCoder_8h.html" target="_top" xlink:title="/home/travis/build\l/AliceO2Group/AliceO2\l/Detectors/FIT/FT0/reconstruction\l/include/FT0Reconstruction/CTFCoder.h">
<polygon fill="none" stroke="#000000" points="1677.5,-95 1677.5,-147 1882.5,-147 1882.5,-95 1677.5,-95"/>
<text text-anchor="start" x="1685.5" y="-135" font-family="Helvetica,sans-Serif" font-size="10.00" fill="#000000">/home/travis/build</text>
<text text-anchor="start" x="1685.5" y="-124" font-family="Helvetica,sans-Serif" font-size="10.00" fill="#000000">/AliceO2Group/AliceO2</text>
<text text-anchor="start" x="1685.5" y="-113" font-family="Helvetica,sans-Serif" font-size="10.00" fill="#000000">/Detectors/FIT/FT0/reconstruction</text>
<text text-anchor="middle" x="1780" y="-102" font-family="Helvetica,sans-Serif" font-size="10.00" fill="#000000">/include/FT0Reconstruction/CTFCoder.h</text>
</a>
</g>
</g>
<!-- Node21&#45;&gt;Node28 -->
<g id="edge35" class="edge">
<title>Node21&#45;&gt;Node28</title>
<path fill="none" stroke="#191970" d="M1337.6681,-401.5963C1428.3557,-381.5037 1583.4162,-337.1638 1690,-253 1726.4615,-224.2082 1753.7391,-176.5834 1768.2415,-147.0962"/>
<polygon fill="#191970" stroke="#191970" points="1336.774,-398.2089 1327.7465,-403.7546 1338.262,-405.0489 1336.774,-398.2089"/>
</g>
<!-- Node36 -->
<g id="node17" class="node">
<title>Node36</title>
<g id="a_node17"><a xlink:href="../../d4/d81/ITSMFT_2common_2reconstruction_2include_2ITSMFTReconstruction_2CTFCoder_8h.html" target="_top" xlink:title="/home/travis/build\l/AliceO2Group/AliceO2\l/Detectors/ITSMFT/common\l/reconstruction/include\l/ITSMFTReconstruction/CTFCoder.h">
<polygon fill="none" stroke="#000000" points="477,-89.5 477,-152.5 661,-152.5 661,-89.5 477,-89.5"/>
<text text-anchor="start" x="485" y="-140.5" font-family="Helvetica,sans-Serif" font-size="10.00" fill="#000000">/home/travis/build</text>
<text text-anchor="start" x="485" y="-129.5" font-family="Helvetica,sans-Serif" font-size="10.00" fill="#000000">/AliceO2Group/AliceO2</text>
<text text-anchor="start" x="485" y="-118.5" font-family="Helvetica,sans-Serif" font-size="10.00" fill="#000000">/Detectors/ITSMFT/common</text>
<text text-anchor="start" x="485" y="-107.5" font-family="Helvetica,sans-Serif" font-size="10.00" fill="#000000">/reconstruction/include</text>
<text text-anchor="middle" x="569" y="-96.5" font-family="Helvetica,sans-Serif" font-size="10.00" fill="#000000">/ITSMFTReconstruction/CTFCoder.h</text>
</a>
</g>
</g>
<!-- Node21&#45;&gt;Node36 -->
<g id="edge36" class="edge">
<title>Node21&#45;&gt;Node36</title>
<path fill="none" stroke="#191970" d="M1190.2539,-408.2044C1092.6081,-397.793 926.2057,-377.2278 870,-353 757.3051,-304.4222 649.4742,-203.9628 598.9301,-152.6562"/>
<polygon fill="#191970" stroke="#191970" points="1190.0421,-411.7014 1200.3544,-409.2713 1190.7775,-404.7402 1190.0421,-411.7014"/>
</g>
<!-- Node42 -->
<g id="node23" class="node">
<title>Node42</title>
<g id="a_node23"><a xlink:href="../../d9/de3/TPC_2reconstruction_2include_2TPCReconstruction_2CTFCoder_8h.html" target="_top" xlink:title="/home/travis/build\l/AliceO2Group/AliceO2\l/Detectors/TPC/reconstruction\l/include/TPCReconstruction\l/CTFCoder.h">
<polygon fill="none" stroke="#000000" points="964.5,-89.5 964.5,-152.5 1125.5,-152.5 1125.5,-89.5 964.5,-89.5"/>
<text text-anchor="start" x="972.5" y="-140.5" font-family="Helvetica,sans-Serif" font-size="10.00" fill="#000000">/home/travis/build</text>
<text text-anchor="start" x="972.5" y="-129.5" font-family="Helvetica,sans-Serif" font-size="10.00" fill="#000000">/AliceO2Group/AliceO2</text>
<text text-anchor="start" x="972.5" y="-118.5" font-family="Helvetica,sans-Serif" font-size="10.00" fill="#000000">/Detectors/TPC/reconstruction</text>
<text text-anchor="start" x="972.5" y="-107.5" font-family="Helvetica,sans-Serif" font-size="10.00" fill="#000000">/include/TPCReconstruction</text>
<text text-anchor="middle" x="1045" y="-96.5" font-family="Helvetica,sans-Serif" font-size="10.00" fill="#000000">/CTFCoder.h</text>
</a>
</g>
</g>
<!-- Node21&#45;&gt;Node42 -->
<g id="edge37" class="edge">
<title>Node21&#45;&gt;Node42</title>
<path fill="none" stroke="#191970" d="M1190.1303,-398.9475C1076.3783,-371.7934 866.927,-314.6147 824,-253 807.7399,-229.6613 807.1011,-211.8804 824,-189 841.1118,-165.8313 908.4807,-147.2705 964.387,-135.4315"/>
<polygon fill="#191970" stroke="#191970" points="1189.6235,-402.4242 1200.161,-401.3233 1191.237,-395.6127 1189.6235,-402.4242"/>
</g>
<!-- Node46 -->
<g id="node27" class="node">
<title>Node46</title>
<g id="a_node27"><a xlink:href="../../d6/d7c/test__ransEncodeDecode_8cxx.html" target="_top" xlink:title="/home/travis/build\l/AliceO2Group/AliceO2\l/Utilities/rANS/test/test\l_ransEncodeDecode.cxx">
<polygon fill="none" stroke="#000000" points="1737.5,-295 1737.5,-347 1872.5,-347 1872.5,-295 1737.5,-295"/>
<text text-anchor="start" x="1745.5" y="-335" font-family="Helvetica,sans-Serif" font-size="10.00" fill="#000000">/home/travis/build</text>
<text text-anchor="start" x="1745.5" y="-324" font-family="Helvetica,sans-Serif" font-size="10.00" fill="#000000">/AliceO2Group/AliceO2</text>
<text text-anchor="start" x="1745.5" y="-313" font-family="Helvetica,sans-Serif" font-size="10.00" fill="#000000">/Utilities/rANS/test/test</text>
<text text-anchor="middle" x="1805" y="-302" font-family="Helvetica,sans-Serif" font-size="10.00" fill="#000000">_ransEncodeDecode.cxx</text>
</a>
</g>
</g>
<!-- Node21&#45;&gt;Node46 -->
<g id="edge38" class="edge">
<title>Node21&#45;&gt;Node46</title>
<path fill="none" stroke="#191970" d="M1337.6507,-410.8607C1429.1886,-403.8699 1589.6241,-387.5827 1723,-353 1729.5087,-351.3124 1736.2024,-349.2595 1742.8253,-347.0169"/>
<polygon fill="#191970" stroke="#191970" points="1337.3629,-407.3724 1327.6517,-411.6082 1337.8848,-414.3529 1337.3629,-407.3724"/>
</g>
<!-- Node23 -->
<g id="node4" class="node">
<title>Node23</title>
<g id="a_node4"><a xlink:href="../../d2/dd6/EncodedBlocks_8cxx.html" target="_top" xlink:title="/home/travis/build\l/AliceO2Group/AliceO2\l/DataFormats/Detectors\l/Common/src/EncodedBlocks.cxx">
<polygon fill="none" stroke="#000000" points="997,-195 997,-247 1175,-247 1175,-195 997,-195"/>
<text text-anchor="start" x="1005" y="-235" font-family="Helvetica,sans-Serif" font-size="10.00" fill="#000000">/home/travis/build</text>
<text text-anchor="start" x="1005" y="-224" font-family="Helvetica,sans-Serif" font-size="10.00" fill="#000000">/AliceO2Group/AliceO2</text>
<text text-anchor="start" x="1005" y="-213" font-family="Helvetica,sans-Serif" font-size="10.00" fill="#000000">/DataFormats/Detectors</text>
<text text-anchor="middle" x="1086" y="-202" font-family="Helvetica,sans-Serif" font-size="10.00" fill="#000000">/Common/src/EncodedBlocks.cxx</text>
</a>
</g>
</g>
<!-- Node22&#45;&gt;Node23 -->
<g id="edge3" class="edge">
<title>Node22&#45;&gt;Node23</title>
<path fill="none" stroke="#191970" d="M1198.7237,-284.3279C1176.7312,-271.9726 1152.6539,-258.446 1132.4188,-247.078"/>
<polygon fill="#191970" stroke="#191970" points="1197.247,-287.5128 1207.6797,-289.3594 1200.6756,-281.4099 1197.247,-287.5128"/>
</g>
<!-- Node24 -->
<g id="node5" class="node">
<title>Node24</title>
<g id="a_node5"><a xlink:href="../../d1/d77/FIT_2FT0_2include_2DataFormatsFT0_2CTF_8h.html" target="_top" xlink:title="/home/travis/build\l/AliceO2Group/AliceO2\l/DataFormats/Detectors\l/FIT/FT0/include/DataFormatsFT0/CTF.h">
<polygon fill="none" stroke="#000000" points="1477,-195 1477,-247 1681,-247 1681,-195 1477,-195"/>
<text text-anchor="start" x="1485" y="-235" font-family="Helvetica,sans-Serif" font-size="10.00" fill="#000000">/home/travis/build</text>
<text text-anchor="start" x="1485" y="-224" font-family="Helvetica,sans-Serif" font-size="10.00" fill="#000000">/AliceO2Group/AliceO2</text>
<text text-anchor="start" x="1485" y="-213" font-family="Helvetica,sans-Serif" font-size="10.00" fill="#000000">/DataFormats/Detectors</text>
<text text-anchor="middle" x="1579" y="-202" font-family="Helvetica,sans-Serif" font-size="10.00" fill="#000000">/FIT/FT0/include/DataFormatsFT0/CTF.h</text>
</a>
</g>
</g>
<!-- Node22&#45;&gt;Node24 -->
<g id="edge4" class="edge">
<title>Node22&#45;&gt;Node24</title>
<path fill="none" stroke="#191970" d="M1372.5119,-286.5518C1413.2946,-273.6049 1458.9439,-259.113 1496.9298,-247.054"/>
<polygon fill="#191970" stroke="#191970" points="1371.2759,-283.2719 1362.8037,-289.6337 1373.394,-289.9438 1371.2759,-283.2719"/>
</g>
<!-- Node26 -->
<g id="node7" class="node">
<title>Node26</title>
<g id="a_node7"><a xlink:href="../../d8/d12/CTFReaderSpec_8cxx.html" target="_top" xlink:title="/home/travis/build\l/AliceO2Group/AliceO2\l/Detectors/CTF/workflow\l/src/CTFReaderSpec.cxx">
<polygon fill="none" stroke="#000000" points="1373.5,-95 1373.5,-147 1508.5,-147 1508.5,-95 1373.5,-95"/>
<text text-anchor="start" x="1381.5" y="-135" font-family="Helvetica,sans-Serif" font-size="10.00" fill="#000000">/home/travis/build</text>
<text text-anchor="start" x="1381.5" y="-124" font-family="Helvetica,sans-Serif" font-size="10.00" fill="#000000">/AliceO2Group/AliceO2</text>
<text text-anchor="start" x="1381.5" y="-113" font-family="Helvetica,sans-Serif" font-size="10.00" fill="#000000">/Detectors/CTF/workflow</text>
<text text-anchor="middle" x="1441" y="-102" font-family="Helvetica,sans-Serif" font-size="10.00" fill="#000000">/src/CTFReaderSpec.cxx</text>
</a>
</g>
</g>
<!-- Node22&#45;&gt;Node26 -->
<g id="edge33" class="edge">
<title>Node22&#45;&gt;Node26</title>
<path fill="none" stroke="#191970" d="M1372.1379,-296.592C1394.4972,-286.6372 1415.5969,-272.6477 1430,-253 1452.5691,-222.2128 1450.4941,-175.8505 1446.2456,-147.0573"/>
<polygon fill="#191970" stroke="#191970" points="1370.7138,-293.3937 1362.8386,-300.4811 1373.4147,-299.8517 1370.7138,-293.3937"/>
</g>
<!-- Node27 -->
<g id="node8" class="node">
<title>Node27</title>
<g id="a_node8"><a xlink:href="../../d4/dd7/CTFWriterSpec_8cxx.html" target="_top" xlink:title="/home/travis/build\l/AliceO2Group/AliceO2\l/Detectors/CTF/workflow\l/src/CTFWriterSpec.cxx">
<polygon fill="none" stroke="#000000" points="1143.5,-95 1143.5,-147 1278.5,-147 1278.5,-95 1143.5,-95"/>
<text text-anchor="start" x="1151.5" y="-135" font-family="Helvetica,sans-Serif" font-size="10.00" fill="#000000">/home/travis/build</text>
<text text-anchor="start" x="1151.5" y="-124" font-family="Helvetica,sans-Serif" font-size="10.00" fill="#000000">/AliceO2Group/AliceO2</text>
<text text-anchor="start" x="1151.5" y="-113" font-family="Helvetica,sans-Serif" font-size="10.00" fill="#000000">/Detectors/CTF/workflow</text>
<text text-anchor="middle" x="1211" y="-102" font-family="Helvetica,sans-Serif" font-size="10.00" fill="#000000">/src/CTFWriterSpec.cxx</text>
</a>
</g>
</g>
<!-- Node22&#45;&gt;Node27 -->
<g id="edge34" class="edge">
<title>Node22&#45;&gt;Node27</title>
<path fill="none" stroke="#191970" d="M1234.9424,-280.8172C1229.8156,-272.0194 1225.1258,-262.489 1222,-253 1210.3443,-217.6167 1209.0354,-174.1557 1209.6456,-147.0097"/>
<polygon fill="#191970" stroke="#191970" points="1231.9601,-282.6492 1240.1731,-289.3422 1237.9265,-278.9883 1231.9601,-282.6492"/>
</g>
<!-- Node33 -->
<g id="node14" class="node">
<title>Node33</title>
<g id="a_node14"><a xlink:href="../../dc/d8e/ITSMFT_2common_2include_2DataFormatsITSMFT_2CTF_8h.html" target="_top" xlink:title="/home/travis/build\l/AliceO2Group/AliceO2\l/DataFormats/Detectors\l/ITSMFT/common/include\l/DataFormatsITSMFT/CTF.h">
<polygon fill="none" stroke="#000000" points="833,-189.5 833,-252.5 979,-252.5 979,-189.5 833,-189.5"/>
<text text-anchor="start" x="841" y="-240.5" font-family="Helvetica,sans-Serif" font-size="10.00" fill="#000000">/home/travis/build</text>
<text text-anchor="start" x="841" y="-229.5" font-family="Helvetica,sans-Serif" font-size="10.00" fill="#000000">/AliceO2Group/AliceO2</text>
<text text-anchor="start" x="841" y="-218.5" font-family="Helvetica,sans-Serif" font-size="10.00" fill="#000000">/DataFormats/Detectors</text>
<text text-anchor="start" x="841" y="-207.5" font-family="Helvetica,sans-Serif" font-size="10.00" fill="#000000">/ITSMFT/common/include</text>
<text text-anchor="middle" x="906" y="-196.5" font-family="Helvetica,sans-Serif" font-size="10.00" fill="#000000">/DataFormatsITSMFT/CTF.h</text>
</a>
</g>
</g>
<!-- Node22&#45;&gt;Node33 -->
<g id="edge13" class="edge">
<title>Node22&#45;&gt;Node33</title>
<path fill="none" stroke="#191970" d="M1155.6434,-297.7522C1104.3811,-285.8784 1042.5827,-270.2929 988,-253 985.0864,-252.0769 982.1275,-251.1027 979.1483,-250.0911"/>
<polygon fill="#191970" stroke="#191970" points="1154.8886,-301.1699 1165.4188,-300.0011 1156.4581,-294.3481 1154.8886,-301.1699"/>
</g>
<!-- Node40 -->
<g id="node21" class="node">
<title>Node40</title>
<g id="a_node21"><a xlink:href="../../d8/d9c/TPC_2include_2DataFormatsTPC_2CTF_8h.html" target="_top" xlink:title="/home/travis/build\l/AliceO2Group/AliceO2\l/DataFormats/Detectors\l/TPC/include/DataFormatsTPC/CTF.h">
<polygon fill="none" stroke="#000000" points="1231,-195 1231,-247 1421,-247 1421,-195 1231,-195"/>
<text text-anchor="start" x="1239" y="-235" font-family="Helvetica,sans-Serif" font-size="10.00" fill="#000000">/home/travis/build</text>
<text text-anchor="start" x="1239" y="-224" font-family="Helvetica,sans-Serif" font-size="10.00" fill="#000000">/AliceO2Group/AliceO2</text>
<text text-anchor="start" x="1239" y="-213" font-family="Helvetica,sans-Serif" font-size="10.00" fill="#000000">/DataFormats/Detectors</text>
<text text-anchor="middle" x="1326" y="-202" font-family="Helvetica,sans-Serif" font-size="10.00" fill="#000000">/TPC/include/DataFormatsTPC/CTF.h</text>
</a>
</g>
</g>
<!-- Node22&#45;&gt;Node40 -->
<g id="edge23" class="edge">
<title>Node22&#45;&gt;Node40</title>
<path fill="none" stroke="#191970" d="M1288.8989,-280.8405C1295.9508,-269.4664 1303.4413,-257.385 1309.8317,-247.078"/>
<polygon fill="#191970" stroke="#191970" points="1285.912,-279.016 1283.6172,-289.3594 1291.8613,-282.7046 1285.912,-279.016"/>
</g>
<!-- Node25 -->
<g id="node6" class="node">
<title>Node25</title>
<g id="a_node6"><a xlink:href="../../da/dfa/FIT_2FT0_2src_2CTF_8cxx.html" target="_top" xlink:title="/home/travis/build\l/AliceO2Group/AliceO2\l/DataFormats/Detectors\l/FIT/FT0/src/CTF.cxx">
<polygon fill="none" stroke="#000000" points="1526.5,-95 1526.5,-147 1659.5,-147 1659.5,-95 1526.5,-95"/>
<text text-anchor="start" x="1534.5" y="-135" font-family="Helvetica,sans-Serif" font-size="10.00" fill="#000000">/home/travis/build</text>
<text text-anchor="start" x="1534.5" y="-124" font-family="Helvetica,sans-Serif" font-size="10.00" fill="#000000">/AliceO2Group/AliceO2</text>
<text text-anchor="start" x="1534.5" y="-113" font-family="Helvetica,sans-Serif" font-size="10.00" fill="#000000">/DataFormats/Detectors</text>
<text text-anchor="middle" x="1593" y="-102" font-family="Helvetica,sans-Serif" font-size="10.00" fill="#000000">/FIT/FT0/src/CTF.cxx</text>
</a>
</g>
</g>
<!-- Node24&#45;&gt;Node25 -->
<g id="edge5" class="edge">
<title>Node24&#45;&gt;Node25</title>
<path fill="none" stroke="#191970" d="M1584.0545,-184.8962C1585.7979,-172.4433 1587.7162,-158.7413 1589.3278,-147.2299"/>
<polygon fill="#191970" stroke="#191970" points="1580.5622,-184.5985 1582.6418,-194.9872 1587.4945,-185.5691 1580.5622,-184.5985"/>
</g>
<!-- Node24&#45;&gt;Node26 -->
<g id="edge6" class="edge">
<title>Node24&#45;&gt;Node26</title>
<path fill="none" stroke="#191970" d="M1534.7788,-188.9557C1516.1883,-175.4843 1494.8304,-160.0075 1477.1973,-147.2299"/>
<polygon fill="#191970" stroke="#191970" points="1532.9511,-191.9536 1543.1024,-194.9872 1537.0586,-186.2853 1532.9511,-191.9536"/>
</g>
<!-- Node24&#45;&gt;Node27 -->
<g id="edge7" class="edge">
<title>Node24&#45;&gt;Node27</title>
<path fill="none" stroke="#191970" d="M1473.3517,-192.2912C1410.7009,-175.2666 1333.1475,-154.1923 1278.6651,-139.3873"/>
<polygon fill="#191970" stroke="#191970" points="1472.7051,-195.7424 1483.273,-194.9872 1474.5408,-188.9873 1472.7051,-195.7424"/>
</g>
<!-- Node24&#45;&gt;Node28 -->
<g id="edge8" class="edge">
<title>Node24&#45;&gt;Node28</title>
<path fill="none" stroke="#191970" d="M1640.535,-190.3856C1668.388,-176.5284 1700.9655,-160.3206 1727.6273,-147.0561"/>
<polygon fill="#191970" stroke="#191970" points="1638.6798,-187.3993 1631.2857,-194.9872 1641.7979,-193.6665 1638.6798,-187.3993"/>
</g>
<!-- Node29 -->
<g id="node10" class="node">
<title>Node29</title>
<g id="a_node10"><a xlink:href="../../d3/d53/test__ctf__io__ft0_8cxx.html" target="_top" xlink:title="/home/travis/build\l/AliceO2Group/AliceO2\l/Detectors/CTF/test/test\l_ctf_io_ft0.cxx">
<polygon fill="none" stroke="#000000" points="1469.5,-.5 1469.5,-52.5 1600.5,-52.5 1600.5,-.5 1469.5,-.5"/>
<text text-anchor="start" x="1477.5" y="-40.5" font-family="Helvetica,sans-Serif" font-size="10.00" fill="#000000">/home/travis/build</text>
<text text-anchor="start" x="1477.5" y="-29.5" font-family="Helvetica,sans-Serif" font-size="10.00" fill="#000000">/AliceO2Group/AliceO2</text>
<text text-anchor="start" x="1477.5" y="-18.5" font-family="Helvetica,sans-Serif" font-size="10.00" fill="#000000">/Detectors/CTF/test/test</text>
<text text-anchor="middle" x="1535" y="-7.5" font-family="Helvetica,sans-Serif" font-size="10.00" fill="#000000">_ctf_io_ft0.cxx</text>
</a>
</g>
</g>
<!-- Node28&#45;&gt;Node29 -->
<g id="edge9" class="edge">
<title>Node28&#45;&gt;Node29</title>
<path fill="none" stroke="#191970" d="M1702.843,-91.2394C1670.0204,-78.5793 1632.1411,-63.9687 1600.6832,-51.8349"/>
<polygon fill="#191970" stroke="#191970" points="1701.8145,-94.594 1712.4041,-94.9273 1704.3337,-88.063 1701.8145,-94.594"/>
</g>
<!-- Node30 -->
<g id="node11" class="node">
<title>Node30</title>
<g id="a_node11"><a xlink:href="../../d7/d9d/FIT_2FT0_2reconstruction_2src_2CTFCoder_8cxx.html" target="_top" xlink:title="/home/travis/build\l/AliceO2Group/AliceO2\l/Detectors/FIT/FT0/reconstruction\l/src/CTFCoder.cxx">
<polygon fill="none" stroke="#000000" points="1793.5,-.5 1793.5,-52.5 1970.5,-52.5 1970.5,-.5 1793.5,-.5"/>
<text text-anchor="start" x="1801.5" y="-40.5" font-family="Helvetica,sans-Serif" font-size="10.00" fill="#000000">/home/travis/build</text>
<text text-anchor="start" x="1801.5" y="-29.5" font-family="Helvetica,sans-Serif" font-size="10.00" fill="#000000">/AliceO2Group/AliceO2</text>
<text text-anchor="start" x="1801.5" y="-18.5" font-family="Helvetica,sans-Serif" font-size="10.00" fill="#000000">/Detectors/FIT/FT0/reconstruction</text>
<text text-anchor="middle" x="1882" y="-7.5" font-family="Helvetica,sans-Serif" font-size="10.00" fill="#000000">/src/CTFCoder.cxx</text>
</a>
</g>
</g>
<!-- Node28&#45;&gt;Node30 -->
<g id="edge10" class="edge">
<title>Node28&#45;&gt;Node30</title>
<path fill="none" stroke="#191970" d="M1815.6717,-87.9512C1828.0904,-76.4457 1841.8459,-63.7016 1853.5958,-52.8157"/>
<polygon fill="#191970" stroke="#191970" points="1813.0989,-85.5636 1808.142,-94.9273 1817.8563,-90.6985 1813.0989,-85.5636"/>
</g>
<!-- Node31 -->
<g id="node12" class="node">
<title>Node31</title>
<g id="a_node12"><a xlink:href="../../d5/de7/FIT_2FT0_2workflow_2src_2EntropyDecoderSpec_8cxx.html" target="_top" xlink:title="/home/travis/build\l/AliceO2Group/AliceO2\l/Detectors/FIT/FT0/workflow\l/src/EntropyDecoderSpec.cxx">
<polygon fill="none" stroke="#000000" points="1988,-.5 1988,-52.5 2146,-52.5 2146,-.5 1988,-.5"/>
<text text-anchor="start" x="1996" y="-40.5" font-family="Helvetica,sans-Serif" font-size="10.00" fill="#000000">/home/travis/build</text>
<text text-anchor="start" x="1996" y="-29.5" font-family="Helvetica,sans-Serif" font-size="10.00" fill="#000000">/AliceO2Group/AliceO2</text>
<text text-anchor="start" x="1996" y="-18.5" font-family="Helvetica,sans-Serif" font-size="10.00" fill="#000000">/Detectors/FIT/FT0/workflow</text>
<text text-anchor="middle" x="2067" y="-7.5" font-family="Helvetica,sans-Serif" font-size="10.00" fill="#000000">/src/EntropyDecoderSpec.cxx</text>
</a>
</g>
</g>
<!-- Node28&#45;&gt;Node31 -->
<g id="edge11" class="edge">
<title>Node28&#45;&gt;Node31</title>
<path fill="none" stroke="#191970" d="M1868.7014,-91.7935C1906.6795,-79.2885 1950.6837,-64.7993 1987.5769,-52.6515"/>
<polygon fill="#191970" stroke="#191970" points="1867.5874,-88.4753 1859.1837,-94.9273 1869.7768,-95.1242 1867.5874,-88.4753"/>
</g>
<!-- Node32 -->
<g id="node13" class="node">
<title>Node32</title>
<g id="a_node13"><a xlink:href="../../de/db3/FIT_2FT0_2workflow_2src_2EntropyEncoderSpec_8cxx.html" target="_top" xlink:title="/home/travis/build\l/AliceO2Group/AliceO2\l/Detectors/FIT/FT0/workflow\l/src/EntropyEncoderSpec.cxx">
<polygon fill="none" stroke="#000000" points="1618.5,-.5 1618.5,-52.5 1775.5,-52.5 1775.5,-.5 1618.5,-.5"/>
<text text-anchor="start" x="1626.5" y="-40.5" font-family="Helvetica,sans-Serif" font-size="10.00" fill="#000000">/home/travis/build</text>
<text text-anchor="start" x="1626.5" y="-29.5" font-family="Helvetica,sans-Serif" font-size="10.00" fill="#000000">/AliceO2Group/AliceO2</text>
<text text-anchor="start" x="1626.5" y="-18.5" font-family="Helvetica,sans-Serif" font-size="10.00" fill="#000000">/Detectors/FIT/FT0/workflow</text>
<text text-anchor="middle" x="1697" y="-7.5" font-family="Helvetica,sans-Serif" font-size="10.00" fill="#000000">/src/EntropyEncoderSpec.cxx</text>
</a>
</g>
</g>
<!-- Node28&#45;&gt;Node32 -->
<g id="edge12" class="edge">
<title>Node28&#45;&gt;Node32</title>
<path fill="none" stroke="#191970" d="M1750.3999,-87.2986C1740.4458,-75.9654 1729.494,-63.4962 1720.1132,-52.8157"/>
<polygon fill="#191970" stroke="#191970" points="1747.8713,-89.7235 1757.1002,-94.9273 1753.1307,-85.1041 1747.8713,-89.7235"/>
</g>
<!-- Node33&#45;&gt;Node26 -->
<g id="edge16" class="edge">
<title>Node33&#45;&gt;Node26</title>
<path fill="none" stroke="#191970" d="M989.037,-188.9732C1120.1299,-157.2059 1158.7211,-174.235 1288,-153 1316.1173,-148.3815 1346.9086,-142.1683 1373.4502,-136.4456"/>
<polygon fill="#191970" stroke="#191970" points="987.8856,-185.6524 979.0185,-191.4512 989.5664,-192.4477 987.8856,-185.6524"/>
</g>
<!-- Node33&#45;&gt;Node27 -->
<g id="edge17" class="edge">
<title>Node33&#45;&gt;Node27</title>
<path fill="none" stroke="#191970" d="M989.0652,-188.8274C1054.0167,-169.1762 1074.1304,-173.1274 1135,-153 1140.437,-151.2022 1146.0304,-149.1849 1151.5986,-147.0607"/>
<polygon fill="#191970" stroke="#191970" points="987.661,-185.5984 979.1467,-191.9037 989.7347,-192.2842 987.661,-185.5984"/>
</g>
<!-- Node34 -->
<g id="node15" class="node">
<title>Node34</title>
<g id="a_node15"><a xlink:href="../../d0/d9d/ITSMFT_2common_2src_2CTF_8cxx.html" target="_top" xlink:title="/home/travis/build\l/AliceO2Group/AliceO2\l/DataFormats/Detectors\l/ITSMFT/common/src/CTF.cxx">
<polygon fill="none" stroke="#000000" points="720.5,-95 720.5,-147 877.5,-147 877.5,-95 720.5,-95"/>
<text text-anchor="start" x="728.5" y="-135" font-family="Helvetica,sans-Serif" font-size="10.00" fill="#000000">/home/travis/build</text>
<text text-anchor="start" x="728.5" y="-124" font-family="Helvetica,sans-Serif" font-size="10.00" fill="#000000">/AliceO2Group/AliceO2</text>
<text text-anchor="start" x="728.5" y="-113" font-family="Helvetica,sans-Serif" font-size="10.00" fill="#000000">/DataFormats/Detectors</text>
<text text-anchor="middle" x="799" y="-102" font-family="Helvetica,sans-Serif" font-size="10.00" fill="#000000">/ITSMFT/common/src/CTF.cxx</text>
</a>
</g>
</g>
<!-- Node33&#45;&gt;Node34 -->
<g id="edge14" class="edge">
<title>Node33&#45;&gt;Node34</title>
<path fill="none" stroke="#191970" d="M864.8133,-182.5078C852.131,-170.6552 838.4726,-157.8902 826.9034,-147.078"/>
<polygon fill="#191970" stroke="#191970" points="862.4487,-185.0884 872.1445,-189.3594 867.2283,-179.9742 862.4487,-185.0884"/>
</g>
<!-- Node35 -->
<g id="node16" class="node">
<title>Node35</title>
<g id="a_node16"><a xlink:href="../../db/db0/test__ctf__io__itsmft_8cxx.html" target="_top" xlink:title="/home/travis/build\l/AliceO2Group/AliceO2\l/Detectors/CTF/test/test\l_ctf_io_itsmft.cxx">
<polygon fill="none" stroke="#000000" points="640.5,-.5 640.5,-52.5 771.5,-52.5 771.5,-.5 640.5,-.5"/>
<text text-anchor="start" x="648.5" y="-40.5" font-family="Helvetica,sans-Serif" font-size="10.00" fill="#000000">/home/travis/build</text>
<text text-anchor="start" x="648.5" y="-29.5" font-family="Helvetica,sans-Serif" font-size="10.00" fill="#000000">/AliceO2Group/AliceO2</text>
<text text-anchor="start" x="648.5" y="-18.5" font-family="Helvetica,sans-Serif" font-size="10.00" fill="#000000">/Detectors/CTF/test/test</text>
<text text-anchor="middle" x="706" y="-7.5" font-family="Helvetica,sans-Serif" font-size="10.00" fill="#000000">_ctf_io_itsmft.cxx</text>
</a>
</g>
</g>
<!-- Node33&#45;&gt;Node35 -->
<g id="edge15" class="edge">
<title>Node33&#45;&gt;Node35</title>
<path fill="none" stroke="#191970" d="M910.2166,-179.2222C910.7874,-150.7285 906.6994,-113.8041 886,-89 854.3912,-51.1231 827.5914,-69.2178 781,-53 778.0003,-51.9558 774.9342,-50.8854 771.8379,-49.8018"/>
<polygon fill="#191970" stroke="#191970" points="906.716,-179.1697 909.8176,-189.3003 913.7105,-179.4467 906.716,-179.1697"/>
</g>
<!-- Node33&#45;&gt;Node36 -->
<g id="edge18" class="edge">
<title>Node33&#45;&gt;Node36</title>
<path fill="none" stroke="#191970" d="M823.2478,-196.4445C774.1887,-181.8869 711.9082,-163.406 661.2677,-148.3792"/>
<polygon fill="#191970" stroke="#191970" points="822.2935,-199.8121 832.876,-199.3015 824.2849,-193.1013 822.2935,-199.8121"/>
</g>
<!-- Node36&#45;&gt;Node35 -->
<g id="edge19" class="edge">
<title>Node36&#45;&gt;Node35</title>
<path fill="none" stroke="#191970" d="M623.6443,-83.3074C638.5432,-73.0304 654.3547,-62.124 668.0979,-52.6442"/>
<polygon fill="#191970" stroke="#191970" points="621.2445,-80.7108 615.0001,-89.27 625.2191,-86.473 621.2445,-80.7108"/>
</g>
<!-- Node37 -->
<g id="node18" class="node">
<title>Node37</title>
<g id="a_node18"><a xlink:href="../../d0/d07/ITSMFT_2common_2reconstruction_2src_2CTFCoder_8cxx.html" target="_top" xlink:title="/home/travis/build\l/AliceO2Group/AliceO2\l/Detectors/ITSMFT/common\l/reconstruction/src/CTFCoder.cxx">
<polygon fill="none" stroke="#000000" points="0,-.5 0,-52.5 176,-52.5 176,-.5 0,-.5"/>
<text text-anchor="start" x="8" y="-40.5" font-family="Helvetica,sans-Serif" font-size="10.00" fill="#000000">/home/travis/build</text>
<text text-anchor="start" x="8" y="-29.5" font-family="Helvetica,sans-Serif" font-size="10.00" fill="#000000">/AliceO2Group/AliceO2</text>
<text text-anchor="start" x="8" y="-18.5" font-family="Helvetica,sans-Serif" font-size="10.00" fill="#000000">/Detectors/ITSMFT/common</text>
<text text-anchor="middle" x="88" y="-7.5" font-family="Helvetica,sans-Serif" font-size="10.00" fill="#000000">/reconstruction/src/CTFCoder.cxx</text>
</a>
</g>
</g>
<!-- Node36&#45;&gt;Node37 -->
<g id="edge20" class="edge">
<title>Node36&#45;&gt;Node37</title>
<path fill="none" stroke="#191970" d="M466.7121,-105.497C389.0548,-93.0969 279.8287,-74.3029 185,-53 182.1044,-52.3495 179.1656,-51.6686 176.2022,-50.9641"/>
<polygon fill="#191970" stroke="#191970" points="466.5516,-109.0154 476.977,-107.1282 467.6502,-102.1021 466.5516,-109.0154"/>
</g>
<!-- Node38 -->
<g id="node19" class="node">
<title>Node38</title>
<g id="a_node19"><a xlink:href="../../d8/d02/ITSMFT_2common_2workflow_2src_2EntropyDecoderSpec_8cxx.html" target="_top" xlink:title="/home/travis/build\l/AliceO2Group/AliceO2\l/Detectors/ITSMFT/common\l/workflow/src/EntropyDecoderSpec.cxx">
<polygon fill="none" stroke="#000000" points="194,-.5 194,-52.5 400,-52.5 400,-.5 194,-.5"/>
<text text-anchor="start" x="202" y="-40.5" font-family="Helvetica,sans-Serif" font-size="10.00" fill="#000000">/home/travis/build</text>
<text text-anchor="start" x="202" y="-29.5" font-family="Helvetica,sans-Serif" font-size="10.00" fill="#000000">/AliceO2Group/AliceO2</text>
<text text-anchor="start" x="202" y="-18.5" font-family="Helvetica,sans-Serif" font-size="10.00" fill="#000000">/Detectors/ITSMFT/common</text>
<text text-anchor="middle" x="297" y="-7.5" font-family="Helvetica,sans-Serif" font-size="10.00" fill="#000000">/workflow/src/EntropyDecoderSpec.cxx</text>
</a>
</g>
</g>
<!-- Node36&#45;&gt;Node38 -->
<g id="edge21" class="edge">
<title>Node36&#45;&gt;Node38</title>
<path fill="none" stroke="#191970" d="M468.2575,-85.9994C436.3904,-74.9279 401.7491,-62.8926 372.0135,-52.5617"/>
<polygon fill="#191970" stroke="#191970" points="467.455,-89.4257 478.0498,-89.4015 469.7523,-82.8134 467.455,-89.4257"/>
</g>
<!-- Node39 -->
<g id="node20" class="node">
<title>Node39</title>
<g id="a_node20"><a xlink:href="../../d5/d11/ITSMFT_2common_2workflow_2src_2EntropyEncoderSpec_8cxx.html" target="_top" xlink:title="/home/travis/build\l/AliceO2Group/AliceO2\l/Detectors/ITSMFT/common\l/workflow/src/EntropyEncoderSpec.cxx">
<polygon fill="none" stroke="#000000" points="418,-.5 418,-52.5 622,-52.5 622,-.5 418,-.5"/>
<text text-anchor="start" x="426" y="-40.5" font-family="Helvetica,sans-Serif" font-size="10.00" fill="#000000">/home/travis/build</text>
<text text-anchor="start" x="426" y="-29.5" font-family="Helvetica,sans-Serif" font-size="10.00" fill="#000000">/AliceO2Group/AliceO2</text>
<text text-anchor="start" x="426" y="-18.5" font-family="Helvetica,sans-Serif" font-size="10.00" fill="#000000">/Detectors/ITSMFT/common</text>
<text text-anchor="middle" x="520" y="-7.5" font-family="Helvetica,sans-Serif" font-size="10.00" fill="#000000">/workflow/src/EntropyEncoderSpec.cxx</text>
</a>
</g>
</g>
<!-- Node36&#45;&gt;Node39 -->
<g id="edge22" class="edge">
<title>Node36&#45;&gt;Node39</title>
<path fill="none" stroke="#191970" d="M547.803,-80.1201C542.972,-70.8031 537.9664,-61.1494 533.5562,-52.6442"/>
<polygon fill="#191970" stroke="#191970" points="544.837,-82.0036 552.5474,-89.27 551.0513,-78.7813 544.837,-82.0036"/>
</g>
<!-- Node40&#45;&gt;Node26 -->
<g id="edge26" class="edge">
<title>Node40&#45;&gt;Node26</title>
<path fill="none" stroke="#191970" d="M1363.6906,-188.2256C1378.9835,-174.9274 1396.4061,-159.7773 1410.8356,-147.2299"/>
<polygon fill="#191970" stroke="#191970" points="1361.1641,-185.7843 1355.9147,-194.9872 1365.7574,-191.0665 1361.1641,-185.7843"/>
</g>
<!-- Node40&#45;&gt;Node27 -->
<g id="edge27" class="edge">
<title>Node40&#45;&gt;Node27</title>
<path fill="none" stroke="#191970" d="M1288.3094,-188.2256C1273.0165,-174.9274 1255.5939,-159.7773 1241.1644,-147.2299"/>
<polygon fill="#191970" stroke="#191970" points="1286.2426,-191.0665 1296.0853,-194.9872 1290.8359,-185.7843 1286.2426,-191.0665"/>
</g>
<!-- Node40&#45;&gt;Node29 -->
<g id="edge24" class="edge">
<title>Node40&#45;&gt;Node29</title>
<path fill="none" stroke="#191970" d="M1328.0038,-184.5566C1331.4705,-155.2912 1340.6986,-114.9354 1365,-89 1365.9877,-87.9459 1421.8947,-67.4944 1469.324,-50.2698"/>
<polygon fill="#191970" stroke="#191970" points="1324.493,-184.4884 1326.97,-194.7895 1331.4575,-185.192 1324.493,-184.4884"/>
</g>
<!-- Node41 -->
<g id="node22" class="node">
<title>Node41</title>
<g id="a_node22"><a xlink:href="../../df/d43/test__ctf__io__tpc_8cxx.html" target="_top" xlink:title="/home/travis/build\l/AliceO2Group/AliceO2\l/Detectors/CTF/test/test\l_ctf_io_tpc.cxx">
<polygon fill="none" stroke="#000000" points="1320.5,-.5 1320.5,-52.5 1451.5,-52.5 1451.5,-.5 1320.5,-.5"/>
<text text-anchor="start" x="1328.5" y="-40.5" font-family="Helvetica,sans-Serif" font-size="10.00" fill="#000000">/home/travis/build</text>
<text text-anchor="start" x="1328.5" y="-29.5" font-family="Helvetica,sans-Serif" font-size="10.00" fill="#000000">/AliceO2Group/AliceO2</text>
<text text-anchor="start" x="1328.5" y="-18.5" font-family="Helvetica,sans-Serif" font-size="10.00" fill="#000000">/Detectors/CTF/test/test</text>
<text text-anchor="middle" x="1386" y="-7.5" font-family="Helvetica,sans-Serif" font-size="10.00" fill="#000000">_ctf_io_tpc.cxx</text>
</a>
</g>
</g>
<!-- Node40&#45;&gt;Node41 -->
<g id="edge25" class="edge">
<title>Node40&#45;&gt;Node41</title>
<path fill="none" stroke="#191970" d="M1320.9784,-184.6129C1318.707,-157.3167 1318.8044,-119.5552 1331,-89 1336.4116,-75.4417 1346.1141,-62.8533 1355.8794,-52.5799"/>
<polygon fill="#191970" stroke="#191970" points="1317.5266,-185.2775 1321.9854,-194.8884 1324.4933,-184.5947 1317.5266,-185.2775"/>
</g>
<!-- Node40&#45;&gt;Node42 -->
<g id="edge28" class="edge">
<title>Node40&#45;&gt;Node42</title>
<path fill="none" stroke="#191970" d="M1243.1255,-191.5073C1206.0354,-178.308 1162.4645,-162.8023 1125.6409,-149.6978"/>
<polygon fill="#191970" stroke="#191970" points="1242.3094,-194.9318 1252.9041,-194.9872 1244.6564,-188.337 1242.3094,-194.9318"/>
</g>
<!-- Node42&#45;&gt;Node41 -->
<g id="edge29" class="edge">
<title>Node42&#45;&gt;Node41</title>
<path fill="none" stroke="#191970" d="M1135.6381,-88.9792C1214.1734,-68.0098 1237.7001,-73.7445 1312,-53 1314.7601,-52.2294 1317.5654,-51.4069 1320.3898,-50.5461"/>
<polygon fill="#191970" stroke="#191970" points="1134.5048,-85.6605 1125.7808,-91.6724 1136.3498,-92.413 1134.5048,-85.6605"/>
</g>
<!-- Node43 -->
<g id="node24" class="node">
<title>Node43</title>
<g id="a_node24"><a xlink:href="../../d4/d51/TPC_2reconstruction_2src_2CTFCoder_8cxx.html" target="_top" xlink:title="/home/travis/build\l/AliceO2Group/AliceO2\l/Detectors/TPC/reconstruction\l/src/CTFCoder.cxx">
<polygon fill="none" stroke="#000000" points="1141.5,-.5 1141.5,-52.5 1302.5,-52.5 1302.5,-.5 1141.5,-.5"/>
<text text-anchor="start" x="1149.5" y="-40.5" font-family="Helvetica,sans-Serif" font-size="10.00" fill="#000000">/home/travis/build</text>
<text text-anchor="start" x="1149.5" y="-29.5" font-family="Helvetica,sans-Serif" font-size="10.00" fill="#000000">/AliceO2Group/AliceO2</text>
<text text-anchor="start" x="1149.5" y="-18.5" font-family="Helvetica,sans-Serif" font-size="10.00" fill="#000000">/Detectors/TPC/reconstruction</text>
<text text-anchor="middle" x="1222" y="-7.5" font-family="Helvetica,sans-Serif" font-size="10.00" fill="#000000">/src/CTFCoder.cxx</text>
</a>
</g>
</g>
<!-- Node42&#45;&gt;Node43 -->
<g id="edge30" class="edge">
<title>Node42&#45;&gt;Node43</title>
<path fill="none" stroke="#191970" d="M1113.4453,-84.4572C1133.3167,-73.8479 1154.612,-62.4784 1173.0316,-52.6442"/>
<polygon fill="#191970" stroke="#191970" points="1111.6039,-81.4727 1104.4308,-89.27 1114.9007,-87.6477 1111.6039,-81.4727"/>
</g>
<!-- Node44 -->
<g id="node25" class="node">
<title>Node44</title>
<g id="a_node25"><a xlink:href="../../db/d6d/TPC_2workflow_2src_2EntropyDecoderSpec_8cxx.html" target="_top" xlink:title="/home/travis/build\l/AliceO2Group/AliceO2\l/Detectors/TPC/workflow\l/src/EntropyDecoderSpec.cxx">
<polygon fill="none" stroke="#000000" points="790,-.5 790,-52.5 948,-52.5 948,-.5 790,-.5"/>
<text text-anchor="start" x="798" y="-40.5" font-family="Helvetica,sans-Serif" font-size="10.00" fill="#000000">/home/travis/build</text>
<text text-anchor="start" x="798" y="-29.5" font-family="Helvetica,sans-Serif" font-size="10.00" fill="#000000">/AliceO2Group/AliceO2</text>
<text text-anchor="start" x="798" y="-18.5" font-family="Helvetica,sans-Serif" font-size="10.00" fill="#000000">/Detectors/TPC/workflow</text>
<text text-anchor="middle" x="869" y="-7.5" font-family="Helvetica,sans-Serif" font-size="10.00" fill="#000000">/src/EntropyDecoderSpec.cxx</text>
</a>
</g>
</g>
<!-- Node42&#45;&gt;Node44 -->
<g id="edge31" class="edge">
<title>Node42&#45;&gt;Node44</title>
<path fill="none" stroke="#191970" d="M976.9414,-84.4572C957.1823,-73.8479 936.0073,-62.4784 917.6918,-52.6442"/>
<polygon fill="#191970" stroke="#191970" points="975.4389,-87.623 985.9049,-89.27 978.7503,-81.4558 975.4389,-87.623"/>
</g>
<!-- Node45 -->
<g id="node26" class="node">
<title>Node45</title>
<g id="a_node26"><a xlink:href="../../db/dd4/TPC_2workflow_2src_2EntropyEncoderSpec_8cxx.html" target="_top" xlink:title="/home/travis/build\l/AliceO2Group/AliceO2\l/Detectors/TPC/workflow\l/src/EntropyEncoderSpec.cxx">
<polygon fill="none" stroke="#000000" points="966.5,-.5 966.5,-52.5 1123.5,-52.5 1123.5,-.5 966.5,-.5"/>
<text text-anchor="start" x="974.5" y="-40.5" font-family="Helvetica,sans-Serif" font-size="10.00" fill="#000000">/home/travis/build</text>
<text text-anchor="start" x="974.5" y="-29.5" font-family="Helvetica,sans-Serif" font-size="10.00" fill="#000000">/AliceO2Group/AliceO2</text>
<text text-anchor="start" x="974.5" y="-18.5" font-family="Helvetica,sans-Serif" font-size="10.00" fill="#000000">/Detectors/TPC/workflow</text>
<text text-anchor="middle" x="1045" y="-7.5" font-family="Helvetica,sans-Serif" font-size="10.00" fill="#000000">/src/EntropyEncoderSpec.cxx</text>
</a>
</g>
</g>
<!-- Node42&#45;&gt;Node45 -->
<g id="edge32" class="edge">
<title>Node42&#45;&gt;Node45</title>
<path fill="none" stroke="#191970" d="M1045,-79.2457C1045,-70.2008 1045,-60.8836 1045,-52.6442"/>
<polygon fill="#191970" stroke="#191970" points="1041.5001,-79.2699 1045,-89.27 1048.5001,-79.27 1041.5001,-79.2699"/>
</g>
</g>
</svg>
