<?xml version="1.0" encoding="UTF-8" standalone="no"?>
<!DOCTYPE svg PUBLIC "-//W3C//DTD SVG 1.1//EN"
 "http://www.w3.org/Graphics/SVG/1.1/DTD/svg11.dtd">
<!-- Generated by graphviz version 2.40.1 (20161225.0304)
 -->
<!-- Title: o2::trd::HalfChamberHeader Pages: 1 -->
<svg width="238pt" height="215pt"
 viewBox="0.00 0.00 238.00 215.00" xmlns="http://www.w3.org/2000/svg" xmlns:xlink="http://www.w3.org/1999/xlink">
<g id="graph0" class="graph" transform="scale(1 1) rotate(0) translate(4 211)">
<title>o2::trd::HalfChamberHeader</title>
<!-- Node1 -->
<g id="node1" class="node">
<title>Node1</title>
<polygon fill="#bfbfbf" stroke="#000000" points="57,-.5 57,-57.5 211,-57.5 211,-.5 57,-.5"/>
<text text-anchor="middle" x="134" y="-45.5" font-family="Helvetica,sans-Serif" font-size="10.00" fill="#000000">o2::trd::HalfChamberHeader</text>
<polyline fill="none" stroke="#000000" points="57,-38.5 211,-38.5 "/>
<text text-anchor="middle" x="134" y="-26.5" font-family="Helvetica,sans-Serif" font-size="10.00" fill="#000000"> </text>
<polyline fill="none" stroke="#000000" points="57,-19.5 211,-19.5 "/>
<text text-anchor="middle" x="134" y="-7.5" font-family="Helvetica,sans-Serif" font-size="10.00" fill="#000000"> </text>
</g>
<!-- Node2 -->
<g id="node2" class="node">
<title>Node2</title>
<polygon fill="none" stroke="#bfbfbf" points="0,-149.5 0,-206.5 148,-206.5 148,-149.5 0,-149.5"/>
<text text-anchor="middle" x="74" y="-194.5" font-family="Helvetica,sans-Serif" font-size="10.00" fill="#000000">anonymous:+__attribute__</text>
<polyline fill="none" stroke="#bfbfbf" points="0,-187.5 148,-187.5 "/>
<text text-anchor="middle" x="74" y="-175.5" font-family="Helvetica,sans-Serif" font-size="10.00" fill="#000000"> </text>
<polyline fill="none" stroke="#bfbfbf" points="0,-168.5 148,-168.5 "/>
<text text-anchor="middle" x="74" y="-156.5" font-family="Helvetica,sans-Serif" font-size="10.00" fill="#000000"> </text>
</g>
<!-- Node2&#45;&gt;Node1 -->
<g id="edge1" class="edge">
<title>Node2&#45;&gt;Node1</title>
<path fill="none" stroke="#404040" d="M77.0288,-149.1798C80.0546,-128.1116 85.9193,-99.274 97,-76 98.3085,-73.2516 99.8025,-70.5163 101.4223,-67.8273"/>
<polygon fill="none" stroke="#404040" points="101.4903,-67.7256 101.5051,-60.5145 108.1672,-57.7547 108.1524,-64.9658 101.4903,-67.7256"/>
<text text-anchor="middle" x="134.5" y="-101" font-family="Helvetica,sans-Serif" font-size="10.00" fill="#000000"> +__attribute__</text>
</g>
<!-- Node3 -->
<g id="node3" class="node">
<title>Node3</title>
<g id="a_node3"><a xlink:href="../../d3/d87/classuint32__t.html" target="_top" xlink:title="{uint32_t\n||}">
<polygon fill="none" stroke="#000000" points="166,-149.5 166,-206.5 222,-206.5 222,-149.5 166,-149.5"/>
<text text-anchor="middle" x="194" y="-194.5" font-family="Helvetica,sans-Serif" font-size="10.00" fill="#000000">uint32_t</text>
<polyline fill="none" stroke="#000000" points="166,-187.5 222,-187.5 "/>
<text text-anchor="middle" x="194" y="-175.5" font-family="Helvetica,sans-Serif" font-size="10.00" fill="#000000"> </text>
<polyline fill="none" stroke="#000000" points="166,-168.5 222,-168.5 "/>
<text text-anchor="middle" x="194" y="-156.5" font-family="Helvetica,sans-Serif" font-size="10.00" fill="#000000"> </text>
</a>
</g>
</g>
<!-- Node3&#45;&gt;Node1 -->
<g id="edge2" class="edge">
<title>Node3&#45;&gt;Node1</title>
<path fill="none" stroke="#404040" d="M191.4012,-149.1392C188.6551,-128.0509 183.1003,-99.2059 172,-76 170.6728,-73.2253 169.1513,-70.4698 167.4974,-67.7656"/>
<polygon fill="none" stroke="#404040" points="167.3611,-67.566 160.674,-64.8673 160.5932,-57.6566 167.2803,-60.3553 167.3611,-67.566"/>
<text text-anchor="middle" x="209" y="-123" font-family="Helvetica,sans-Serif" font-size="10.00" fill="#000000"> +word</text>
<text text-anchor="middle" x="209" y="-112" font-family="Helvetica,sans-Serif" font-size="10.00" fill="#000000">+one</text>
<text text-anchor="middle" x="209" y="-101" font-family="Helvetica,sans-Serif" font-size="10.00" fill="#000000">+format</text>
<text text-anchor="middle" x="209" y="-90" font-family="Helvetica,sans-Serif" font-size="10.00" fill="#000000">+MCLK</text>
<text text-anchor="middle" x="209" y="-79" font-family="Helvetica,sans-Serif" font-size="10.00" fill="#000000">+HCID</text>
</g>
</g>
</svg>
