<?xml version="1.0" encoding="UTF-8" standalone="no"?>
<!DOCTYPE svg PUBLIC "-//W3C//DTD SVG 1.1//EN"
 "http://www.w3.org/Graphics/SVG/1.1/DTD/svg11.dtd">
<!-- Generated by graphviz version 2.40.1 (20161225.0304)
 -->
<!-- Title: /home/travis/build/AliceO2Group/AliceO2/Generators/src/GeneratorHepMC.cxx Pages: 1 -->
<!--zoomable 285 -->
<svg id="main" version="1.1" xmlns="http://www.w3.org/2000/svg" xmlns:xlink="http://www.w3.org/1999/xlink" xml:space="preserve" onload="init(evt)">
<style type="text/css"><![CDATA[
.edge:hover path { stroke: red; }
.edge:hover polygon { stroke: red; fill: red; }
]]></style>
<script type="text/javascript"><![CDATA[
var edges = document.getElementsByTagName('g');
if (edges && edges.length) {
  for (var i=0;i<edges.length;i++) {
    if (edges[i].id.substr(0,4)=='edge') {
      edges[i].setAttribute('class','edge');
    }
  }
}
]]></script>
        <defs>
                <circle id="rim" cx="0" cy="0" r="7"/>
                <circle id="rim2" cx="0" cy="0" r="3.5"/>
                <g id="zoomPlus">
                        <use xlink:href="#rim" fill="#404040">
                                <set attributeName="fill" to="#808080" begin="zoomplus.mouseover" end="zoomplus.mouseout"/>
                        </use>
                        <path d="M-4,0h8M0,-4v8" fill="none" stroke="white" stroke-width="1.5" pointer-events="none"/>
                </g>
                <g id="zoomMin">
                        <use xlink:href="#rim" fill="#404040">
                                <set attributeName="fill" to="#808080" begin="zoomminus.mouseover" end="zoomminus.mouseout"/>
                        </use>
                        <path d="M-4,0h8" fill="none" stroke="white" stroke-width="1.5" pointer-events="none"/>
                </g>
                <g id="dirArrow">
                        <path fill="none" stroke="white" stroke-width="1.5" d="M0,-3.0v7 M-2.5,-0.5L0,-3.0L2.5,-0.5"/>
                </g>
               <g id="resetDef">
                       <use xlink:href="#rim2" fill="#404040">
                               <set attributeName="fill" to="#808080" begin="reset.mouseover" end="reset.mouseout"/>
                       </use>
               </g>
        </defs>

<script type="text/javascript">
var viewWidth = 1391;
var viewHeight = 285;
var sectionId = 'dynsection-0';
</script>
<script xlink:href="../../svgpan.js"/>
<svg id="graph" class="graph">
<g id="viewport">
<title>/home/travis/build/AliceO2Group/AliceO2/Generators/src/GeneratorHepMC.cxx</title>
<!-- Node0 -->
<g id="node1" class="node">
<title>Node0</title>
<polygon fill="#bfbfbf" stroke="#000000" points="657.9484,-224.5 657.9484,-276.5 819.9484,-276.5 819.9484,-224.5 657.9484,-224.5"/>
<text text-anchor="start" x="665.9484" y="-264.5" font-family="Helvetica,sans-Serif" font-size="10.00" fill="#000000">/home/travis/build</text>
<text text-anchor="start" x="665.9484" y="-253.5" font-family="Helvetica,sans-Serif" font-size="10.00" fill="#000000">/AliceO2Group/AliceO2</text>
<text text-anchor="start" x="665.9484" y="-242.5" font-family="Helvetica,sans-Serif" font-size="10.00" fill="#000000">/Generators/src/GeneratorHep</text>
<text text-anchor="middle" x="738.9484" y="-231.5" font-family="Helvetica,sans-Serif" font-size="10.00" fill="#000000">MC.cxx</text>
</g>
<!-- Node1 -->
<g id="node2" class="node">
<title>Node1</title>
<g id="a_node2"><a xlink:href="../../d1/dfe/GeneratorHepMC_8h.html" target="_top" xlink:title="Generators/GeneratorHepMC.h">
<polygon fill="none" stroke="#000000" points="28.9484,-168.5 28.9484,-187.5 194.9484,-187.5 194.9484,-168.5 28.9484,-168.5"/>
<text text-anchor="middle" x="111.9484" y="-175.5" font-family="Helvetica,sans-Serif" font-size="10.00" fill="#000000">Generators/GeneratorHepMC.h</text>
</a>
</g>
</g>
<!-- Node0&#45;&gt;Node1 -->
<g id="edge1" class="edge">
<title>Node0&#45;&gt;Node1</title>
<path fill="none" stroke="#191970" d="M657.9426,-241.1333C541.3797,-227.6551 326.9205,-202.8572 204.3373,-188.6829"/>
<polygon fill="#191970" stroke="#191970" points="204.5568,-185.1851 194.221,-187.5132 203.7527,-192.1387 204.5568,-185.1851"/>
</g>
<!-- Node4 -->
<g id="node5" class="node">
<title>Node4</title>
<polygon fill="none" stroke="#bfbfbf" points="4.9484,-.5 4.9484,-19.5 72.9484,-19.5 72.9484,-.5 4.9484,-.5"/>
<text text-anchor="middle" x="38.9484" y="-7.5" font-family="Helvetica,sans-Serif" font-size="10.00" fill="#000000">TParticle.h</text>
</g>
<!-- Node0&#45;&gt;Node4 -->
<g id="edge16" class="edge">
<title>Node0&#45;&gt;Node4</title>
<path fill="none" stroke="#191970" d="M657.8702,-249.4827C478.8716,-246.3952 62.3655,-234.2641 19.9484,-188 -20.7507,-143.6096 11.052,-64.4311 28.9148,-28.5659"/>
<polygon fill="#191970" stroke="#191970" points="32.0334,-30.1547 33.5115,-19.6635 25.8136,-26.9431 32.0334,-30.1547"/>
</g>
<!-- Node9 -->
<g id="node10" class="node">
<title>Node9</title>
<polygon fill="none" stroke="#bfbfbf" points="212.9484,-168.5 212.9484,-187.5 338.9484,-187.5 338.9484,-168.5 212.9484,-168.5"/>
<text text-anchor="middle" x="275.9484" y="-175.5" font-family="Helvetica,sans-Serif" font-size="10.00" fill="#000000">HepMC3/ReaderAscii.h</text>
</g>
<!-- Node0&#45;&gt;Node9 -->
<g id="edge10" class="edge">
<title>Node0&#45;&gt;Node9</title>
<path fill="none" stroke="#191970" d="M657.7702,-237.7885C569.6717,-223.9934 430.403,-202.1856 346.6419,-189.0697"/>
<polygon fill="#191970" stroke="#191970" points="347.1305,-185.6037 336.7094,-187.5144 346.0476,-192.5194 347.1305,-185.6037"/>
</g>
<!-- Node10 -->
<g id="node11" class="node">
<title>Node10</title>
<polygon fill="none" stroke="#bfbfbf" points="357.4484,-168.5 357.4484,-187.5 524.4484,-187.5 524.4484,-168.5 357.4484,-168.5"/>
<text text-anchor="middle" x="440.9484" y="-175.5" font-family="Helvetica,sans-Serif" font-size="10.00" fill="#000000">HepMC3/ReaderAsciiHepMC2.h</text>
</g>
<!-- Node0&#45;&gt;Node10 -->
<g id="edge11" class="edge">
<title>Node0&#45;&gt;Node10</title>
<path fill="none" stroke="#191970" d="M657.9123,-230.7848C604.2344,-217.7256 535.5794,-201.0226 490.0301,-189.941"/>
<polygon fill="#191970" stroke="#191970" points="490.6523,-186.4904 480.1083,-187.5272 488.9975,-193.292 490.6523,-186.4904"/>
</g>
<!-- Node11 -->
<g id="node12" class="node">
<title>Node11</title>
<polygon fill="none" stroke="#bfbfbf" points="541.9484,-168.5 541.9484,-187.5 657.9484,-187.5 657.9484,-168.5 541.9484,-168.5"/>
<text text-anchor="middle" x="599.9484" y="-175.5" font-family="Helvetica,sans-Serif" font-size="10.00" fill="#000000">HepMC3/GenEvent.h</text>
</g>
<!-- Node0&#45;&gt;Node11 -->
<g id="edge12" class="edge">
<title>Node0&#45;&gt;Node11</title>
<path fill="none" stroke="#191970" d="M688.7662,-224.3258C668.0326,-213.5115 644.8073,-201.3976 627.308,-192.2703"/>
<polygon fill="#191970" stroke="#191970" points="628.7125,-189.0554 618.2274,-187.534 625.4752,-195.2619 628.7125,-189.0554"/>
</g>
<!-- Node12 -->
<g id="node13" class="node">
<title>Node12</title>
<polygon fill="none" stroke="#bfbfbf" points="676.4484,-168.5 676.4484,-187.5 801.4484,-187.5 801.4484,-168.5 676.4484,-168.5"/>
<text text-anchor="middle" x="738.9484" y="-175.5" font-family="Helvetica,sans-Serif" font-size="10.00" fill="#000000">HepMC3/GenParticle.h</text>
</g>
<!-- Node0&#45;&gt;Node12 -->
<g id="edge13" class="edge">
<title>Node0&#45;&gt;Node12</title>
<path fill="none" stroke="#191970" d="M738.9484,-224.3258C738.9484,-215.5142 738.9484,-205.8397 738.9484,-197.621"/>
<polygon fill="#191970" stroke="#191970" points="742.4485,-197.534 738.9484,-187.534 735.4485,-197.534 742.4485,-197.534"/>
</g>
<!-- Node13 -->
<g id="node14" class="node">
<title>Node13</title>
<polygon fill="none" stroke="#bfbfbf" points="819.9484,-168.5 819.9484,-187.5 939.9484,-187.5 939.9484,-168.5 819.9484,-168.5"/>
<text text-anchor="middle" x="879.9484" y="-175.5" font-family="Helvetica,sans-Serif" font-size="10.00" fill="#000000">HepMC3/GenVertex.h</text>
</g>
<!-- Node0&#45;&gt;Node13 -->
<g id="edge14" class="edge">
<title>Node0&#45;&gt;Node13</title>
<path fill="none" stroke="#191970" d="M789.8527,-224.3258C810.8847,-213.5115 834.4442,-201.3976 852.1952,-192.2703"/>
<polygon fill="#191970" stroke="#191970" points="854.1137,-195.2195 861.4064,-187.534 850.9127,-188.9942 854.1137,-195.2195"/>
</g>
<!-- Node14 -->
<g id="node15" class="node">
<title>Node14</title>
<polygon fill="none" stroke="#bfbfbf" points="957.9484,-168.5 957.9484,-187.5 1077.9484,-187.5 1077.9484,-168.5 957.9484,-168.5"/>
<text text-anchor="middle" x="1017.9484" y="-175.5" font-family="Helvetica,sans-Serif" font-size="10.00" fill="#000000">HepMC3/FourVector.h</text>
</g>
<!-- Node0&#45;&gt;Node14 -->
<g id="edge15" class="edge">
<title>Node0&#45;&gt;Node14</title>
<path fill="none" stroke="#191970" d="M820.0216,-229.4326C869.2195,-216.6482 930.2512,-200.7887 971.4328,-190.0874"/>
<polygon fill="#191970" stroke="#191970" points="972.3984,-193.4528 981.1967,-187.5502 970.6378,-186.6778 972.3984,-193.4528"/>
</g>
<!-- Node15 -->
<g id="node16" class="node">
<title>Node15</title>
<polygon fill="none" stroke="#bfbfbf" points="1096.4484,-168.5 1096.4484,-187.5 1171.4484,-187.5 1171.4484,-168.5 1096.4484,-168.5"/>
<text text-anchor="middle" x="1133.9484" y="-175.5" font-family="Helvetica,sans-Serif" font-size="10.00" fill="#000000">FairLogger.h</text>
</g>
<!-- Node0&#45;&gt;Node15 -->
<g id="edge17" class="edge">
<title>Node0&#45;&gt;Node15</title>
<path fill="none" stroke="#191970" d="M819.9504,-236.7064C888.2231,-224.9065 988.7485,-207.1265 1086.2288,-188.0945"/>
<polygon fill="#191970" stroke="#191970" points="1087.1195,-191.4867 1096.2601,-186.1294 1085.7737,-184.6173 1087.1195,-191.4867"/>
</g>
<!-- Node16 -->
<g id="node17" class="node">
<title>Node16</title>
<polygon fill="none" stroke="#bfbfbf" points="1189.4484,-168.5 1189.4484,-187.5 1318.4484,-187.5 1318.4484,-168.5 1189.4484,-168.5"/>
<text text-anchor="middle" x="1253.9484" y="-175.5" font-family="Helvetica,sans-Serif" font-size="10.00" fill="#000000">FairPrimaryGenerator.h</text>
</g>
<!-- Node0&#45;&gt;Node16 -->
<g id="edge18" class="edge">
<title>Node0&#45;&gt;Node16</title>
<path fill="none" stroke="#191970" d="M819.9837,-239.0921C918.5103,-225.2219 1083.4499,-202.0022 1179.096,-188.5375"/>
<polygon fill="#191970" stroke="#191970" points="1179.8543,-191.9653 1189.2687,-187.1054 1178.8784,-185.0337 1179.8543,-191.9653"/>
</g>
<!-- Node17 -->
<g id="node18" class="node">
<title>Node17</title>
<polygon fill="none" stroke="#bfbfbf" points="1336.4484,-168.5 1336.4484,-187.5 1383.4484,-187.5 1383.4484,-168.5 1336.4484,-168.5"/>
<text text-anchor="middle" x="1359.9484" y="-175.5" font-family="Helvetica,sans-Serif" font-size="10.00" fill="#000000">cmath</text>
</g>
<!-- Node0&#45;&gt;Node17 -->
<g id="edge19" class="edge">
<title>Node0&#45;&gt;Node17</title>
<path fill="none" stroke="#191970" d="M820.2316,-246.9457C932.5642,-240.9095 1141.4612,-225.6329 1326.4153,-187.9964"/>
<polygon fill="#191970" stroke="#191970" points="1327.2323,-191.4017 1336.3196,-185.9546 1325.8189,-184.5458 1327.2323,-191.4017"/>
</g>
<!-- Node2 -->
<g id="node3" class="node">
<title>Node2</title>
<g id="a_node3"><a xlink:href="../../d9/d12/Generator_8h.html" target="_top" xlink:title="Generators/Generator.h">
<polygon fill="none" stroke="#000000" points="107.4484,-112.5 107.4484,-131.5 238.4484,-131.5 238.4484,-112.5 107.4484,-112.5"/>
<text text-anchor="middle" x="172.9484" y="-119.5" font-family="Helvetica,sans-Serif" font-size="10.00" fill="#000000">Generators/Generator.h</text>
</a>
</g>
</g>
<!-- Node1&#45;&gt;Node2 -->
<g id="edge2" class="edge">
<title>Node1&#45;&gt;Node2</title>
<path fill="none" stroke="#191970" d="M122.5738,-168.2455C131.4958,-160.0549 144.4365,-148.1749 154.9677,-138.5069"/>
<polygon fill="#191970" stroke="#191970" points="157.4452,-140.9837 162.4448,-131.6427 152.7113,-135.8271 157.4452,-140.9837"/>
</g>
<!-- Node8 -->
<g id="node9" class="node">
<title>Node8</title>
<polygon fill="none" stroke="#bfbfbf" points="34.4484,-112.5 34.4484,-131.5 89.4484,-131.5 89.4484,-112.5 34.4484,-112.5"/>
<text text-anchor="middle" x="61.9484" y="-119.5" font-family="Helvetica,sans-Serif" font-size="10.00" fill="#000000">fstream</text>
</g>
<!-- Node1&#45;&gt;Node8 -->
<g id="edge9" class="edge">
<title>Node1&#45;&gt;Node8</title>
<path fill="none" stroke="#191970" d="M103.2391,-168.2455C96.1411,-160.2958 85.94,-148.8706 77.4534,-139.3656"/>
<polygon fill="#191970" stroke="#191970" points="79.8289,-136.771 70.558,-131.6427 74.6074,-141.4331 79.8289,-136.771"/>
</g>
<!-- Node3 -->
<g id="node4" class="node">
<title>Node3</title>
<polygon fill="none" stroke="#bfbfbf" points="132.4484,-56.5 132.4484,-75.5 223.4484,-75.5 223.4484,-56.5 132.4484,-56.5"/>
<text text-anchor="middle" x="177.9484" y="-63.5" font-family="Helvetica,sans-Serif" font-size="10.00" fill="#000000">FairGenerator.h</text>
</g>
<!-- Node2&#45;&gt;Node3 -->
<g id="edge3" class="edge">
<title>Node2&#45;&gt;Node3</title>
<path fill="none" stroke="#191970" d="M173.8194,-112.2455C174.4718,-104.9382 175.3864,-94.6944 176.1891,-85.7046"/>
<polygon fill="#191970" stroke="#191970" points="179.6842,-85.9143 177.0875,-75.6427 172.7119,-85.2918 179.6842,-85.9143"/>
</g>
<!-- Node2&#45;&gt;Node4 -->
<g id="edge4" class="edge">
<title>Node2&#45;&gt;Node4</title>
<path fill="none" stroke="#191970" d="M122.6901,-112.4592C100.0788,-105.7745 74.753,-94.5789 57.9484,-76 46.5881,-63.4402 41.985,-44.5013 40.138,-30.1277"/>
<polygon fill="#191970" stroke="#191970" points="43.587,-29.419 39.1712,-19.7883 36.6174,-30.0707 43.587,-29.419"/>
</g>
<!-- Node5 -->
<g id="node6" class="node">
<title>Node5</title>
<g id="a_node6"><a xlink:href="../../d7/dac/Trigger_8h.html" target="_top" xlink:title="Generators/Trigger.h">
<polygon fill="none" stroke="#000000" points="241.4484,-56.5 241.4484,-75.5 356.4484,-75.5 356.4484,-56.5 241.4484,-56.5"/>
<text text-anchor="middle" x="298.9484" y="-63.5" font-family="Helvetica,sans-Serif" font-size="10.00" fill="#000000">Generators/Trigger.h</text>
</a>
</g>
</g>
<!-- Node2&#45;&gt;Node5 -->
<g id="edge5" class="edge">
<title>Node2&#45;&gt;Node5</title>
<path fill="none" stroke="#191970" d="M194.6086,-112.3733C214.9256,-103.3435 245.5124,-89.7494 268.3234,-79.6111"/>
<polygon fill="#191970" stroke="#191970" points="269.8543,-82.7609 277.5709,-75.5011 267.0113,-76.3642 269.8543,-82.7609"/>
</g>
<!-- Node7 -->
<g id="node8" class="node">
<title>Node7</title>
<polygon fill="none" stroke="#bfbfbf" points="67.4484,-56.5 67.4484,-75.5 114.4484,-75.5 114.4484,-56.5 67.4484,-56.5"/>
<text text-anchor="middle" x="90.9484" y="-63.5" font-family="Helvetica,sans-Serif" font-size="10.00" fill="#000000">vector</text>
</g>
<!-- Node2&#45;&gt;Node7 -->
<g id="edge8" class="edge">
<title>Node2&#45;&gt;Node7</title>
<path fill="none" stroke="#191970" d="M158.6651,-112.2455C146.2014,-103.7337 127.9033,-91.2375 113.4693,-81.3801"/>
<polygon fill="#191970" stroke="#191970" points="115.3,-78.392 105.0681,-75.6427 111.3522,-84.1726 115.3,-78.392"/>
</g>
<!-- Node5&#45;&gt;Node4 -->
<g id="edge7" class="edge">
<title>Node5&#45;&gt;Node4</title>
<path fill="none" stroke="#191970" d="M254.5483,-56.4369C206.7149,-46.1343 131.048,-29.8368 83.2521,-19.5423"/>
<polygon fill="#191970" stroke="#191970" points="83.7159,-16.062 73.2031,-17.3779 82.242,-22.9051 83.7159,-16.062"/>
</g>
<!-- Node6 -->
<g id="node7" class="node">
<title>Node6</title>
<polygon fill="none" stroke="#bfbfbf" points="266.4484,-.5 266.4484,-19.5 331.4484,-19.5 331.4484,-.5 266.4484,-.5"/>
<text text-anchor="middle" x="298.9484" y="-7.5" font-family="Helvetica,sans-Serif" font-size="10.00" fill="#000000">functional</text>
</g>
<!-- Node5&#45;&gt;Node6 -->
<g id="edge6" class="edge">
<title>Node5&#45;&gt;Node6</title>
<path fill="none" stroke="#191970" d="M298.9484,-56.2455C298.9484,-48.9382 298.9484,-38.6944 298.9484,-29.7046"/>
<polygon fill="#191970" stroke="#191970" points="302.4485,-29.6426 298.9484,-19.6427 295.4485,-29.6427 302.4485,-29.6426"/>
</g>
</g>
</svg>
        <g id="navigator" transform="translate(0 0)" fill="#404254">
                <rect fill="#f2f5e9" fill-opacity="0.5" stroke="#606060" stroke-width=".5" x="0" y="0" width="60" height="60"/>
                <use id="zoomplus" xlink:href="#zoomPlus" x="17" y="9" onmousedown="handleZoom(evt,'in')"/>
                <use id="zoomminus" xlink:href="#zoomMin" x="42" y="9" onmousedown="handleZoom(evt,'out')"/>
                <use id="reset" xlink:href="#resetDef" x="30" y="36" onmousedown="handleReset()"/>
                <g id="arrowUp" xlink:href="#dirArrow" transform="translate(30 24)" onmousedown="handlePan(0,-1)">
                  <use xlink:href="#rim" fill="#404040">
                        <set attributeName="fill" to="#808080" begin="arrowUp.mouseover" end="arrowUp.mouseout"/>
                  </use>
                  <path fill="none" stroke="white" stroke-width="1.5" d="M0,-3.0v7 M-2.5,-0.5L0,-3.0L2.5,-0.5"/>
                </g>
                <g id="arrowRight" xlink:href="#dirArrow" transform="rotate(90) translate(36 -43)" onmousedown="handlePan(1,0)">
                  <use xlink:href="#rim" fill="#404040">
                        <set attributeName="fill" to="#808080" begin="arrowRight.mouseover" end="arrowRight.mouseout"/>
                  </use>
                  <path fill="none" stroke="white" stroke-width="1.5" d="M0,-3.0v7 M-2.5,-0.5L0,-3.0L2.5,-0.5"/>
                </g>
                <g id="arrowDown" xlink:href="#dirArrow" transform="rotate(180) translate(-30 -48)" onmousedown="handlePan(0,1)">
                  <use xlink:href="#rim" fill="#404040">
                        <set attributeName="fill" to="#808080" begin="arrowDown.mouseover" end="arrowDown.mouseout"/>
                  </use>
                  <path fill="none" stroke="white" stroke-width="1.5" d="M0,-3.0v7 M-2.5,-0.5L0,-3.0L2.5,-0.5"/>
                </g>
                <g id="arrowLeft" xlink:href="#dirArrow" transform="rotate(270) translate(-36 17)" onmousedown="handlePan(-1,0)">
                  <use xlink:href="#rim" fill="#404040">
                        <set attributeName="fill" to="#808080" begin="arrowLeft.mouseover" end="arrowLeft.mouseout"/>
                  </use>
                  <path fill="none" stroke="white" stroke-width="1.5" d="M0,-3.0v7 M-2.5,-0.5L0,-3.0L2.5,-0.5"/>
                </g>
        </g>
        <svg viewBox="0 0 15 15" width="100%" height="30px" preserveAspectRatio="xMaxYMin meet">
         <g id="arrow_out" transform="scale(0.3 0.3)">
          <a xlink:href="GeneratorHepMC_8cxx__incl_org.svg" target="_base">
           <rect id="button" ry="5" rx="5" y="6" x="6" height="38" width="38"
                fill="#f2f5e9" fill-opacity="0.5" stroke="#606060" stroke-width="1.0"/>
           <path id="arrow"
             d="M 11.500037,31.436501 C 11.940474,20.09759 22.043105,11.32322 32.158766,21.979434 L 37.068811,17.246167 C 37.068811,17.246167 37.088388,32 37.088388,32 L 22.160133,31.978069 C 22.160133,31.978069 26.997745,27.140456 26.997745,27.140456 C 18.528582,18.264221 13.291696,25.230495 11.500037,31.436501 z"
             style="fill:#404040;"/>
          </a>
         </g>
        </svg>
</svg>
