<?xml version="1.0" encoding="UTF-8" standalone="no"?>
<!DOCTYPE svg PUBLIC "-//W3C//DTD SVG 1.1//EN"
 "http://www.w3.org/Graphics/SVG/1.1/DTD/svg11.dtd">
<!-- Generated by graphviz version 2.40.1 (20161225.0304)
 -->
<!-- Title: o2::framework::DataProcessingStats Pages: 1 -->
<svg width="611pt" height="331pt"
 viewBox="0.00 0.00 611.00 331.00" xmlns="http://www.w3.org/2000/svg" xmlns:xlink="http://www.w3.org/1999/xlink">
<g id="graph0" class="graph" transform="scale(1 1) rotate(0) translate(4 327)">
<title>o2::framework::DataProcessingStats</title>
<!-- Node1 -->
<g id="node1" class="node">
<title>Node1</title>
<polygon fill="#bfbfbf" stroke="#000000" points="166,-.5 166,-68.5 336,-68.5 336,-.5 166,-.5"/>
<text text-anchor="start" x="174" y="-56.5" font-family="Helvetica,sans-Serif" font-size="10.00" fill="#000000">o2::framework::DataProcessing</text>
<text text-anchor="middle" x="251" y="-45.5" font-family="Helvetica,sans-Serif" font-size="10.00" fill="#000000">Stats</text>
<polyline fill="none" stroke="#000000" points="166,-38.5 336,-38.5 "/>
<text text-anchor="middle" x="251" y="-26.5" font-family="Helvetica,sans-Serif" font-size="10.00" fill="#000000"> </text>
<polyline fill="none" stroke="#000000" points="166,-19.5 336,-19.5 "/>
<text text-anchor="middle" x="251" y="-7.5" font-family="Helvetica,sans-Serif" font-size="10.00" fill="#000000"> </text>
</g>
<!-- Node2 -->
<g id="node2" class="node">
<title>Node2</title>
<g id="a_node2"><a xlink:href="../../d6/d30/classuint64__t.html" target="_top" xlink:title="{uint64_t\n||}">
<polygon fill="none" stroke="#000000" points="0,-144 0,-201 56,-201 56,-144 0,-144"/>
<text text-anchor="middle" x="28" y="-189" font-family="Helvetica,sans-Serif" font-size="10.00" fill="#000000">uint64_t</text>
<polyline fill="none" stroke="#000000" points="0,-182 56,-182 "/>
<text text-anchor="middle" x="28" y="-170" font-family="Helvetica,sans-Serif" font-size="10.00" fill="#000000"> </text>
<polyline fill="none" stroke="#000000" points="0,-163 56,-163 "/>
<text text-anchor="middle" x="28" y="-151" font-family="Helvetica,sans-Serif" font-size="10.00" fill="#000000"> </text>
</a>
</g>
</g>
<!-- Node2&#45;&gt;Node1 -->
<g id="edge1" class="edge">
<title>Node2&#45;&gt;Node1</title>
<path fill="none" stroke="#404040" d="M25.6023,-143.6508C25.6885,-125.2078 29.0501,-102.0159 43,-87 58.6237,-70.1824 107.4287,-57.3881 153.8373,-48.6418"/>
<polygon fill="none" stroke="#404040" points="154.0728,-48.599 159.2594,-43.5891 165.8788,-46.4498 160.6922,-51.4597 154.0728,-48.599"/>
<text text-anchor="middle" x="121.5" y="-112" font-family="Helvetica,sans-Serif" font-size="10.00" fill="#000000"> +lastMetricFlushedTimestamp</text>
<text text-anchor="middle" x="121.5" y="-101" font-family="Helvetica,sans-Serif" font-size="10.00" fill="#000000">+lastSlowMetricSentTimestamp</text>
<text text-anchor="middle" x="121.5" y="-90" font-family="Helvetica,sans-Serif" font-size="10.00" fill="#000000">+beginIterationTimestamp</text>
</g>
<!-- Node3 -->
<g id="node3" class="node">
<title>Node3</title>
<polygon fill="none" stroke="#bfbfbf" points="166.5,-144 166.5,-201 249.5,-201 249.5,-144 166.5,-144"/>
<text text-anchor="middle" x="208" y="-189" font-family="Helvetica,sans-Serif" font-size="10.00" fill="#000000">vector&lt; int &gt;</text>
<polyline fill="none" stroke="#bfbfbf" points="166.5,-182 249.5,-182 "/>
<text text-anchor="middle" x="208" y="-170" font-family="Helvetica,sans-Serif" font-size="10.00" fill="#000000"> </text>
<polyline fill="none" stroke="#bfbfbf" points="166.5,-163 249.5,-163 "/>
<text text-anchor="middle" x="208" y="-151" font-family="Helvetica,sans-Serif" font-size="10.00" fill="#000000"> </text>
</g>
<!-- Node3&#45;&gt;Node1 -->
<g id="edge2" class="edge">
<title>Node3&#45;&gt;Node1</title>
<path fill="none" stroke="#404040" d="M203.7686,-143.9588C202.3494,-126.9369 202.5058,-105.1727 209,-87 209.9611,-84.3105 211.1222,-81.6555 212.4363,-79.053"/>
<polygon fill="none" stroke="#404040" points="212.4577,-79.0168 212.0781,-71.8157 218.5793,-68.6956 218.9589,-75.8968 212.4577,-79.0168"/>
<text text-anchor="middle" x="245" y="-101" font-family="Helvetica,sans-Serif" font-size="10.00" fill="#000000"> +relayerState</text>
</g>
<!-- Node4 -->
<g id="node4" class="node">
<title>Node4</title>
<g id="a_node4"><a xlink:href="../../d3/d9f/structo2_1_1framework_1_1DataProcessingStats_1_1InputLatency.html" target="_top" xlink:title="{o2::framework::DataProcessing\lStats::InputLatency\n||}">
<polygon fill="none" stroke="#000000" points="433,-138.5 433,-206.5 603,-206.5 603,-138.5 433,-138.5"/>
<text text-anchor="start" x="441" y="-194.5" font-family="Helvetica,sans-Serif" font-size="10.00" fill="#000000">o2::framework::DataProcessing</text>
<text text-anchor="middle" x="518" y="-183.5" font-family="Helvetica,sans-Serif" font-size="10.00" fill="#000000">Stats::InputLatency</text>
<polyline fill="none" stroke="#000000" points="433,-176.5 603,-176.5 "/>
<text text-anchor="middle" x="518" y="-164.5" font-family="Helvetica,sans-Serif" font-size="10.00" fill="#000000"> </text>
<polyline fill="none" stroke="#000000" points="433,-157.5 603,-157.5 "/>
<text text-anchor="middle" x="518" y="-145.5" font-family="Helvetica,sans-Serif" font-size="10.00" fill="#000000"> </text>
</a>
</g>
</g>
<!-- Node4&#45;&gt;Node1 -->
<g id="edge3" class="edge">
<title>Node4&#45;&gt;Node1</title>
<path fill="none" stroke="#404040" d="M452,-138.3876C414.4526,-118.9811 367.2381,-94.5781 328.0054,-74.3005"/>
<polygon fill="none" stroke="#404040" points="327.8264,-74.2081 320.6596,-75.0066 317.1661,-68.6982 324.3329,-67.8997 327.8264,-74.2081"/>
<text text-anchor="middle" x="450" y="-101" font-family="Helvetica,sans-Serif" font-size="10.00" fill="#000000"> +lastLatency</text>
</g>
<!-- Node5 -->
<g id="node5" class="node">
<title>Node5</title>
<polygon fill="none" stroke="#bfbfbf" points="296.5,-265.5 296.5,-322.5 325.5,-322.5 325.5,-265.5 296.5,-265.5"/>
<text text-anchor="middle" x="311" y="-310.5" font-family="Helvetica,sans-Serif" font-size="10.00" fill="#000000">int</text>
<polyline fill="none" stroke="#bfbfbf" points="296.5,-303.5 325.5,-303.5 "/>
<text text-anchor="middle" x="311" y="-291.5" font-family="Helvetica,sans-Serif" font-size="10.00" fill="#000000"> </text>
<polyline fill="none" stroke="#bfbfbf" points="296.5,-284.5 325.5,-284.5 "/>
<text text-anchor="middle" x="311" y="-272.5" font-family="Helvetica,sans-Serif" font-size="10.00" fill="#000000"> </text>
</g>
<!-- Node5&#45;&gt;Node1 -->
<g id="edge5" class="edge">
<title>Node5&#45;&gt;Node1</title>
<path fill="none" stroke="#404040" d="M308.1663,-265.165C303.14,-216.2965 292.1401,-119.3612 281,-87 280.1725,-84.596 279.233,-82.177 278.2102,-79.7674"/>
<polygon fill="none" stroke="#404040" points="278.0773,-79.4878 271.8881,-75.7872 272.9235,-68.6508 279.1127,-72.3514 278.0773,-79.4878"/>
<text text-anchor="middle" x="362" y="-192" font-family="Helvetica,sans-Serif" font-size="10.00" fill="#000000"> +inputParts</text>
<text text-anchor="middle" x="362" y="-181" font-family="Helvetica,sans-Serif" font-size="10.00" fill="#000000">+pendingInputs</text>
<text text-anchor="middle" x="362" y="-170" font-family="Helvetica,sans-Serif" font-size="10.00" fill="#000000">+lastElapsedTimeMs</text>
<text text-anchor="middle" x="362" y="-159" font-family="Helvetica,sans-Serif" font-size="10.00" fill="#000000">+lastTotalProcessedSize</text>
<text text-anchor="middle" x="362" y="-148" font-family="Helvetica,sans-Serif" font-size="10.00" fill="#000000">+incomplete</text>
</g>
<!-- Node5&#45;&gt;Node4 -->
<g id="edge4" class="edge">
<title>Node5&#45;&gt;Node4</title>
<path fill="none" stroke="#404040" d="M325.5558,-285.4564C350.9444,-270.5544 404.8471,-238.9158 449.1638,-212.9038"/>
<polygon fill="none" stroke="#404040" points="449.2688,-212.8423 452.4185,-206.3554 459.6178,-206.7678 456.4681,-213.2547 449.2688,-212.8423"/>
<text text-anchor="middle" x="462" y="-239" font-family="Helvetica,sans-Serif" font-size="10.00" fill="#000000"> +maxLatency</text>
<text text-anchor="middle" x="462" y="-228" font-family="Helvetica,sans-Serif" font-size="10.00" fill="#000000">+minLatency</text>
</g>
</g>
</svg>
