<?xml version="1.0" encoding="UTF-8" standalone="no"?>
<!DOCTYPE svg PUBLIC "-//W3C//DTD SVG 1.1//EN"
 "http://www.w3.org/Graphics/SVG/1.1/DTD/svg11.dtd">
<!-- Generated by graphviz version 2.40.1 (20161225.0304)
 -->
<!-- Title: pidTOFTask Pages: 1 -->
<svg width="341pt" height="287pt"
 viewBox="0.00 0.00 341.00 287.00" xmlns="http://www.w3.org/2000/svg" xmlns:xlink="http://www.w3.org/1999/xlink">
<g id="graph0" class="graph" transform="scale(1 1) rotate(0) translate(4 283)">
<title>pidTOFTask</title>
<!-- Node1 -->
<g id="node1" class="node">
<title>Node1</title>
<polygon fill="#bfbfbf" stroke="#000000" points="110.5,-.5 110.5,-57.5 183.5,-57.5 183.5,-.5 110.5,-.5"/>
<text text-anchor="middle" x="147" y="-45.5" font-family="Helvetica,sans-Serif" font-size="10.00" fill="#000000">pidTOFTask</text>
<polyline fill="none" stroke="#000000" points="110.5,-38.5 183.5,-38.5 "/>
<text text-anchor="middle" x="147" y="-26.5" font-family="Helvetica,sans-Serif" font-size="10.00" fill="#000000"> </text>
<polyline fill="none" stroke="#000000" points="110.5,-19.5 183.5,-19.5 "/>
<text text-anchor="start" x="118.5" y="-7.5" font-family="Helvetica,sans-Serif" font-size="10.00" fill="#000000">+ process()</text>
</g>
<!-- Node2 -->
<g id="node2" class="node">
<title>Node2</title>
<g id="a_node2"><a xlink:href="../../d6/d86/structo2_1_1framework_1_1Produces.html" target="_top" xlink:title="{o2::framework::Produces\l\&lt; aod::pidRespTOF \&gt;\n||}">
<polygon fill="none" stroke="#000000" points="0,-105.5 0,-173.5 138,-173.5 138,-105.5 0,-105.5"/>
<text text-anchor="start" x="8" y="-161.5" font-family="Helvetica,sans-Serif" font-size="10.00" fill="#000000">o2::framework::Produces</text>
<text text-anchor="middle" x="69" y="-150.5" font-family="Helvetica,sans-Serif" font-size="10.00" fill="#000000">&lt; aod::pidRespTOF &gt;</text>
<polyline fill="none" stroke="#000000" points="0,-143.5 138,-143.5 "/>
<text text-anchor="middle" x="69" y="-131.5" font-family="Helvetica,sans-Serif" font-size="10.00" fill="#000000"> </text>
<polyline fill="none" stroke="#000000" points="0,-124.5 138,-124.5 "/>
<text text-anchor="middle" x="69" y="-112.5" font-family="Helvetica,sans-Serif" font-size="10.00" fill="#000000"> </text>
</a>
</g>
</g>
<!-- Node2&#45;&gt;Node1 -->
<g id="edge1" class="edge">
<title>Node2&#45;&gt;Node1</title>
<path fill="none" stroke="#404040" d="M93.039,-105.4447C101.5019,-93.4557 111.0726,-79.8972 119.7789,-67.5632"/>
<polygon fill="none" stroke="#404040" points="119.9255,-67.3555 120.1177,-60.147 126.8457,-57.5519 126.6535,-64.7605 119.9255,-67.3555"/>
<text text-anchor="middle" x="133" y="-79" font-family="Helvetica,sans-Serif" font-size="10.00" fill="#000000"> +tofpid</text>
</g>
<!-- Node3 -->
<g id="node3" class="node">
<title>Node3</title>
<g id="a_node3"><a xlink:href="../../d6/d86/structo2_1_1framework_1_1Produces.html" target="_top" xlink:title="{o2::framework::Produces\&lt; T \&gt;\n||}">
<polygon fill="none" stroke="#000000" points="64.5,-221.5 64.5,-278.5 231.5,-278.5 231.5,-221.5 64.5,-221.5"/>
<text text-anchor="middle" x="148" y="-266.5" font-family="Helvetica,sans-Serif" font-size="10.00" fill="#000000">o2::framework::Produces&lt; T &gt;</text>
<polyline fill="none" stroke="#000000" points="64.5,-259.5 231.5,-259.5 "/>
<text text-anchor="middle" x="148" y="-247.5" font-family="Helvetica,sans-Serif" font-size="10.00" fill="#000000"> </text>
<polyline fill="none" stroke="#000000" points="64.5,-240.5 231.5,-240.5 "/>
<text text-anchor="middle" x="148" y="-228.5" font-family="Helvetica,sans-Serif" font-size="10.00" fill="#000000"> </text>
</a>
</g>
</g>
<!-- Node3&#45;&gt;Node2 -->
<g id="edge2" class="edge">
<title>Node3&#45;&gt;Node2</title>
<path fill="none" stroke="#ffa500" d="M100.2847,-214.3345C96.8932,-210.7315 93.7382,-206.9396 91,-203 84.9405,-194.2818 80.4091,-183.738 77.085,-173.768"/>
<polygon fill="#ffa500" stroke="#ffa500" points="97.937,-216.9348 107.5206,-221.4521 102.8458,-211.9443 97.937,-216.9348"/>
<text text-anchor="middle" x="144.5" y="-195" font-family="Helvetica,sans-Serif" font-size="10.00" fill="#000000"> &lt; aod::pidRespTOF &gt;</text>
</g>
<!-- Node4 -->
<g id="node4" class="node">
<title>Node4</title>
<g id="a_node4"><a xlink:href="../../d6/d86/structo2_1_1framework_1_1Produces.html" target="_top" xlink:title="{o2::framework::Produces\l\&lt; aod::pidRespTOFbeta \&gt;\n||}">
<polygon fill="none" stroke="#000000" points="156,-105.5 156,-173.5 298,-173.5 298,-105.5 156,-105.5"/>
<text text-anchor="start" x="164" y="-161.5" font-family="Helvetica,sans-Serif" font-size="10.00" fill="#000000">o2::framework::Produces</text>
<text text-anchor="middle" x="227" y="-150.5" font-family="Helvetica,sans-Serif" font-size="10.00" fill="#000000">&lt; aod::pidRespTOFbeta &gt;</text>
<polyline fill="none" stroke="#000000" points="156,-143.5 298,-143.5 "/>
<text text-anchor="middle" x="227" y="-131.5" font-family="Helvetica,sans-Serif" font-size="10.00" fill="#000000"> </text>
<polyline fill="none" stroke="#000000" points="156,-124.5 298,-124.5 "/>
<text text-anchor="middle" x="227" y="-112.5" font-family="Helvetica,sans-Serif" font-size="10.00" fill="#000000"> </text>
</a>
</g>
</g>
<!-- Node3&#45;&gt;Node4 -->
<g id="edge4" class="edge">
<title>Node3&#45;&gt;Node4</title>
<path fill="none" stroke="#ffa500" d="M189.2421,-213.8446C192.3792,-210.33 195.35,-206.6935 198,-203 204.3586,-194.1375 209.8307,-183.6581 214.2535,-173.7941"/>
<polygon fill="#ffa500" stroke="#ffa500" points="186.5005,-211.6497 182.1687,-221.3186 191.5846,-216.4613 186.5005,-211.6497"/>
<text text-anchor="middle" x="268.5" y="-195" font-family="Helvetica,sans-Serif" font-size="10.00" fill="#000000"> &lt; aod::pidRespTOFbeta &gt;</text>
</g>
<!-- Node4&#45;&gt;Node1 -->
<g id="edge3" class="edge">
<title>Node4&#45;&gt;Node1</title>
<path fill="none" stroke="#404040" d="M202.3446,-105.4447C193.6647,-93.4557 183.8487,-79.8972 174.919,-67.5632"/>
<polygon fill="none" stroke="#404040" points="174.7082,-67.2719 167.9496,-64.7576 167.6711,-57.5519 174.4297,-60.0662 174.7082,-67.2719"/>
<text text-anchor="middle" x="218" y="-79" font-family="Helvetica,sans-Serif" font-size="10.00" fill="#000000"> +tofpidbeta</text>
</g>
</g>
</svg>
