<?xml version="1.0" encoding="UTF-8" standalone="no"?>
<!DOCTYPE svg PUBLIC "-//W3C//DTD SVG 1.1//EN"
 "http://www.w3.org/Graphics/SVG/1.1/DTD/svg11.dtd">
<!-- Generated by graphviz version 2.40.1 (20161225.0304)
 -->
<!-- Title: /home/travis/build/AliceO2Group/AliceO2/DataFormats/Detectors/FIT/FT0/src/RawEventData.cxx Pages: 1 -->
<!--zoomable 352 -->
<svg id="main" version="1.1" xmlns="http://www.w3.org/2000/svg" xmlns:xlink="http://www.w3.org/1999/xlink" xml:space="preserve" onload="init(evt)">
<style type="text/css"><![CDATA[
.edge:hover path { stroke: red; }
.edge:hover polygon { stroke: red; fill: red; }
]]></style>
<script type="text/javascript"><![CDATA[
var edges = document.getElementsByTagName('g');
if (edges && edges.length) {
  for (var i=0;i<edges.length;i++) {
    if (edges[i].id.substr(0,4)=='edge') {
      edges[i].setAttribute('class','edge');
    }
  }
}
]]></script>
        <defs>
                <circle id="rim" cx="0" cy="0" r="7"/>
                <circle id="rim2" cx="0" cy="0" r="3.5"/>
                <g id="zoomPlus">
                        <use xlink:href="#rim" fill="#404040">
                                <set attributeName="fill" to="#808080" begin="zoomplus.mouseover" end="zoomplus.mouseout"/>
                        </use>
                        <path d="M-4,0h8M0,-4v8" fill="none" stroke="white" stroke-width="1.5" pointer-events="none"/>
                </g>
                <g id="zoomMin">
                        <use xlink:href="#rim" fill="#404040">
                                <set attributeName="fill" to="#808080" begin="zoomminus.mouseover" end="zoomminus.mouseout"/>
                        </use>
                        <path d="M-4,0h8" fill="none" stroke="white" stroke-width="1.5" pointer-events="none"/>
                </g>
                <g id="dirArrow">
                        <path fill="none" stroke="white" stroke-width="1.5" d="M0,-3.0v7 M-2.5,-0.5L0,-3.0L2.5,-0.5"/>
                </g>
               <g id="resetDef">
                       <use xlink:href="#rim2" fill="#404040">
                               <set attributeName="fill" to="#808080" begin="reset.mouseover" end="reset.mouseout"/>
                       </use>
               </g>
        </defs>

<script type="text/javascript">
var viewWidth = 1395;
var viewHeight = 352;
var sectionId = 'dynsection-0';
</script>
<script xlink:href="../../svgpan.js"/>
<svg id="graph" class="graph">
<g id="viewport">
<title>/home/travis/build/AliceO2Group/AliceO2/DataFormats/Detectors/FIT/FT0/src/RawEventData.cxx</title>
<!-- Node0 -->
<g id="node1" class="node">
<title>Node0</title>
<polygon fill="#bfbfbf" stroke="#000000" points="582,-291.5 582,-343.5 749,-343.5 749,-291.5 582,-291.5"/>
<text text-anchor="start" x="590" y="-331.5" font-family="Helvetica,sans-Serif" font-size="10.00" fill="#000000">/home/travis/build</text>
<text text-anchor="start" x="590" y="-320.5" font-family="Helvetica,sans-Serif" font-size="10.00" fill="#000000">/AliceO2Group/AliceO2</text>
<text text-anchor="start" x="590" y="-309.5" font-family="Helvetica,sans-Serif" font-size="10.00" fill="#000000">/DataFormats/Detectors</text>
<text text-anchor="middle" x="665.5" y="-298.5" font-family="Helvetica,sans-Serif" font-size="10.00" fill="#000000">/FIT/FT0/src/RawEventData.cxx</text>
</g>
<!-- Node1 -->
<g id="node2" class="node">
<title>Node1</title>
<g id="a_node2"><a xlink:href="../../d1/dfe/RawEventData_8h.html" target="_top" xlink:title="DataFormatsFT0/RawEventData.h">
<polygon fill="none" stroke="#000000" points="355,-235.5 355,-254.5 536,-254.5 536,-235.5 355,-235.5"/>
<text text-anchor="middle" x="445.5" y="-242.5" font-family="Helvetica,sans-Serif" font-size="10.00" fill="#000000">DataFormatsFT0/RawEventData.h</text>
</a>
</g>
</g>
<!-- Node0&#45;&gt;Node1 -->
<g id="edge1" class="edge">
<title>Node0&#45;&gt;Node1</title>
<path fill="none" stroke="#191970" d="M586.3858,-291.4283C551.5642,-279.953 512.2492,-266.9969 484.0161,-257.6928"/>
<polygon fill="#191970" stroke="#191970" points="485.1105,-254.3684 474.5175,-254.5626 482.9196,-261.0167 485.1105,-254.3684"/>
</g>
<!-- Node3 -->
<g id="node4" class="node">
<title>Node3</title>
<g id="a_node4"><a xlink:href="../../d9/d80/InteractionRecord_8h.html" target="_top" xlink:title="CommonDataFormat/Interaction\lRecord.h">
<polygon fill="none" stroke="#000000" points="1121.5,-112.5 1121.5,-142.5 1295.5,-142.5 1295.5,-112.5 1121.5,-112.5"/>
<text text-anchor="start" x="1129.5" y="-130.5" font-family="Helvetica,sans-Serif" font-size="10.00" fill="#000000">CommonDataFormat/Interaction</text>
<text text-anchor="middle" x="1208.5" y="-119.5" font-family="Helvetica,sans-Serif" font-size="10.00" fill="#000000">Record.h</text>
</a>
</g>
</g>
<!-- Node0&#45;&gt;Node3 -->
<g id="edge37" class="edge">
<title>Node0&#45;&gt;Node3</title>
<path fill="none" stroke="#191970" d="M739.8633,-291.4797C851.2057,-252.5201 1058.5196,-179.9793 1155.6837,-145.9808"/>
<polygon fill="#191970" stroke="#191970" points="1157.0136,-149.2237 1165.2965,-142.6173 1154.7016,-142.6165 1157.0136,-149.2237"/>
</g>
<!-- Node18 -->
<g id="node19" class="node">
<title>Node18</title>
<polygon fill="none" stroke="#bfbfbf" points="167.5,-118 167.5,-137 227.5,-137 227.5,-118 167.5,-118"/>
<text text-anchor="middle" x="197.5" y="-125" font-family="Helvetica,sans-Serif" font-size="10.00" fill="#000000">iostream</text>
</g>
<!-- Node0&#45;&gt;Node18 -->
<g id="edge39" class="edge">
<title>Node0&#45;&gt;Node18</title>
<path fill="none" stroke="#191970" d="M581.7083,-309.3446C515.8019,-301.0003 422.5559,-284.8726 345.5,-255 300.8684,-237.6974 289.279,-230.7997 253.5,-199 235.7373,-183.2129 219.4793,-161.2316 209.1111,-145.8218"/>
<polygon fill="#191970" stroke="#191970" points="211.8638,-143.6367 203.4557,-137.1904 206.0086,-147.4731 211.8638,-143.6367"/>
</g>
<!-- Node23 -->
<g id="node24" class="node">
<title>Node23</title>
<g id="a_node24"><a xlink:href="../../dd/da4/Logger_8h.html" target="_top" xlink:title="Framework/Logger.h">
<polygon fill="none" stroke="#000000" points="829,-179.5 829,-198.5 944,-198.5 944,-179.5 829,-179.5"/>
<text text-anchor="middle" x="886.5" y="-186.5" font-family="Helvetica,sans-Serif" font-size="10.00" fill="#000000">Framework/Logger.h</text>
</a>
</g>
</g>
<!-- Node0&#45;&gt;Node23 -->
<g id="edge38" class="edge">
<title>Node0&#45;&gt;Node23</title>
<path fill="none" stroke="#191970" d="M710.2226,-291.4961C755.6085,-265.1066 824.2714,-225.1827 861.0736,-203.7841"/>
<polygon fill="#191970" stroke="#191970" points="863.2515,-206.5665 870.1371,-198.5142 859.7329,-200.515 863.2515,-206.5665"/>
</g>
<!-- Node2 -->
<g id="node3" class="node">
<title>Node2</title>
<g id="a_node3"><a xlink:href="../../d0/d0a/DataFormats_2Detectors_2FIT_2FT0_2include_2DataFormatsFT0_2Digit_8h.html" target="_top" xlink:title="DataFormatsFT0/Digit.h">
<polygon fill="none" stroke="#000000" points="640.5,-179.5 640.5,-198.5 772.5,-198.5 772.5,-179.5 640.5,-179.5"/>
<text text-anchor="middle" x="706.5" y="-186.5" font-family="Helvetica,sans-Serif" font-size="10.00" fill="#000000">DataFormatsFT0/Digit.h</text>
</a>
</g>
</g>
<!-- Node1&#45;&gt;Node2 -->
<g id="edge2" class="edge">
<title>Node1&#45;&gt;Node2</title>
<path fill="none" stroke="#191970" d="M490.0709,-235.4369C534.9268,-225.8127 604.1649,-210.957 652.2008,-200.6504"/>
<polygon fill="#191970" stroke="#191970" points="653.0697,-204.0437 662.1129,-198.5237 651.6011,-197.1995 653.0697,-204.0437"/>
</g>
<!-- Node1&#45;&gt;Node3 -->
<g id="edge31" class="edge">
<title>Node1&#45;&gt;Node3</title>
<path fill="none" stroke="#191970" d="M536.0465,-236.1812C619.5995,-227.3951 737.2077,-213.2011 781.5,-199 799.674,-193.173 801.2874,-184.7052 819.5,-179 941.2348,-140.8659 980.1342,-160.3102 1111.2531,-142.9623"/>
<polygon fill="#191970" stroke="#191970" points="1111.8406,-146.4146 1121.2728,-141.5893 1110.8902,-139.4794 1111.8406,-146.4146"/>
</g>
<!-- Node5 -->
<g id="node6" class="node">
<title>Node5</title>
<polygon fill="none" stroke="#bfbfbf" points="401,-.5 401,-19.5 460,-19.5 460,-.5 401,-.5"/>
<text text-anchor="middle" x="430.5" y="-7.5" font-family="Helvetica,sans-Serif" font-size="10.00" fill="#000000">Rtypes.h</text>
</g>
<!-- Node1&#45;&gt;Node5 -->
<g id="edge36" class="edge">
<title>Node1&#45;&gt;Node5</title>
<path fill="none" stroke="#191970" d="M444.8934,-235.4967C442.6557,-200.4391 434.8347,-77.9096 431.7574,-29.7"/>
<polygon fill="#191970" stroke="#191970" points="435.2441,-29.3783 431.1141,-19.6216 428.2583,-29.8243 435.2441,-29.3783"/>
</g>
<!-- Node15 -->
<g id="node16" class="node">
<title>Node15</title>
<g id="a_node16"><a xlink:href="../../dc/d44/FIT_2FT0_2include_2DataFormatsFT0_2ChannelData_8h.html" target="_top" xlink:title="DataFormatsFT0/ChannelData.h">
<polygon fill="none" stroke="#000000" points="245.5,-118 245.5,-137 417.5,-137 417.5,-118 245.5,-118"/>
<text text-anchor="middle" x="331.5" y="-125" font-family="Helvetica,sans-Serif" font-size="10.00" fill="#000000">DataFormatsFT0/ChannelData.h</text>
</a>
</g>
</g>
<!-- Node1&#45;&gt;Node15 -->
<g id="edge23" class="edge">
<title>Node1&#45;&gt;Node15</title>
<path fill="none" stroke="#191970" d="M391.2249,-235.4773C352.8759,-227.5154 306.2854,-214.9104 294.5,-199 281.6772,-181.6891 297.7077,-159.3045 312.4957,-144.2309"/>
<polygon fill="#191970" stroke="#191970" points="315.1586,-146.5268 319.9563,-137.0804 310.3149,-141.4731 315.1586,-146.5268"/>
</g>
<!-- Node1&#45;&gt;Node18 -->
<g id="edge33" class="edge">
<title>Node1&#45;&gt;Node18</title>
<path fill="none" stroke="#191970" d="M393.7803,-235.4696C361.6929,-228.2612 320.2867,-216.5556 286.5,-199 258.6898,-184.5497 231.2794,-160.6717 214.3851,-144.5256"/>
<polygon fill="#191970" stroke="#191970" points="216.5808,-141.7778 206.9807,-137.2957 211.6904,-146.7862 216.5808,-141.7778"/>
</g>
<!-- Node19 -->
<g id="node20" class="node">
<title>Node19</title>
<g id="a_node20"><a xlink:href="../../d4/d78/DataFormats_2Headers_2include_2Headers_2RAWDataHeader_8h.html" target="_top" xlink:title="Headers/RAWDataHeader.h">
<polygon fill="none" stroke="#000000" points="473,-179.5 473,-198.5 622,-198.5 622,-179.5 473,-179.5"/>
<text text-anchor="middle" x="547.5" y="-186.5" font-family="Helvetica,sans-Serif" font-size="10.00" fill="#000000">Headers/RAWDataHeader.h</text>
</a>
</g>
</g>
<!-- Node1&#45;&gt;Node19 -->
<g id="edge24" class="edge">
<title>Node1&#45;&gt;Node19</title>
<path fill="none" stroke="#191970" d="M463.267,-235.2455C479.2095,-226.4928 502.8259,-213.527 520.9989,-203.5496"/>
<polygon fill="#191970" stroke="#191970" points="522.8552,-206.5233 529.9366,-198.6427 519.4863,-200.3873 522.8552,-206.5233"/>
</g>
<!-- Node20 -->
<g id="node21" class="node">
<title>Node20</title>
<g id="a_node21"><a xlink:href="../../df/d27/LookUpTable_8h.html" target="_top" xlink:title="DataFormatsFT0/LookUpTable.h">
<polygon fill="none" stroke="#000000" points="0,-179.5 0,-198.5 171,-198.5 171,-179.5 0,-179.5"/>
<text text-anchor="middle" x="85.5" y="-186.5" font-family="Helvetica,sans-Serif" font-size="10.00" fill="#000000">DataFormatsFT0/LookUpTable.h</text>
</a>
</g>
</g>
<!-- Node1&#45;&gt;Node20 -->
<g id="edge26" class="edge">
<title>Node1&#45;&gt;Node20</title>
<path fill="none" stroke="#191970" d="M384.0228,-235.4369C320.9878,-225.6314 223.0437,-210.3957 156.6845,-200.0731"/>
<polygon fill="#191970" stroke="#191970" points="157.1428,-196.6024 146.7236,-198.5237 156.0668,-203.5192 157.1428,-196.6024"/>
</g>
<!-- Node1&#45;&gt;Node23 -->
<g id="edge32" class="edge">
<title>Node1&#45;&gt;Node23</title>
<path fill="none" stroke="#191970" d="M524.3607,-235.4929C599.1009,-226.4058 714.492,-212.1779 814.5,-199 815.802,-198.8284 817.1171,-198.6543 818.4422,-198.4781"/>
<polygon fill="#191970" stroke="#191970" points="819.2961,-201.8949 828.741,-197.0944 818.364,-194.9572 819.2961,-201.8949"/>
</g>
<!-- Node24 -->
<g id="node25" class="node">
<title>Node24</title>
<polygon fill="none" stroke="#bfbfbf" points="304,-179.5 304,-198.5 349,-198.5 349,-179.5 304,-179.5"/>
<text text-anchor="middle" x="326.5" y="-186.5" font-family="Helvetica,sans-Serif" font-size="10.00" fill="#000000">utility</text>
</g>
<!-- Node1&#45;&gt;Node24 -->
<g id="edge34" class="edge">
<title>Node1&#45;&gt;Node24</title>
<path fill="none" stroke="#191970" d="M425.0432,-235.3733C406.0262,-226.4241 377.4825,-212.9917 356.0024,-202.8835"/>
<polygon fill="#191970" stroke="#191970" points="357.2284,-199.5923 346.6899,-198.5011 354.2478,-205.926 357.2284,-199.5923"/>
</g>
<!-- Node25 -->
<g id="node26" class="node">
<title>Node25</title>
<polygon fill="none" stroke="#bfbfbf" points="367.5,-179.5 367.5,-198.5 417.5,-198.5 417.5,-179.5 367.5,-179.5"/>
<text text-anchor="middle" x="392.5" y="-186.5" font-family="Helvetica,sans-Serif" font-size="10.00" fill="#000000">cstring</text>
</g>
<!-- Node1&#45;&gt;Node25 -->
<g id="edge35" class="edge">
<title>Node1&#45;&gt;Node25</title>
<path fill="none" stroke="#191970" d="M436.2681,-235.2455C428.6683,-227.2155 417.7123,-215.6394 408.6632,-206.0781"/>
<polygon fill="#191970" stroke="#191970" points="411.042,-203.4998 401.6261,-198.6427 405.9579,-208.3115 411.042,-203.4998"/>
</g>
<!-- Node2&#45;&gt;Node3 -->
<g id="edge3" class="edge">
<title>Node2&#45;&gt;Node3</title>
<path fill="none" stroke="#191970" d="M772.8455,-180.6341C777.4656,-180.0739 782.0518,-179.5244 786.5,-179 927.5868,-162.3689 965.7815,-162.4585 1111.0913,-143.0121"/>
<polygon fill="#191970" stroke="#191970" points="1111.8364,-146.4435 1121.2799,-141.6403 1110.9022,-139.5061 1111.8364,-146.4435"/>
</g>
<!-- Node2&#45;&gt;Node5 -->
<g id="edge19" class="edge">
<title>Node2&#45;&gt;Node5</title>
<path fill="none" stroke="#191970" d="M649.3919,-179.4206C607.6796,-171.3063 555.845,-158.5282 540.5,-143 512.3876,-114.5519 542.3815,-87.3132 517.5,-56 505.416,-40.7924 486.9069,-30.0199 470.0625,-22.7426"/>
<polygon fill="#191970" stroke="#191970" points="470.9821,-19.3399 460.3983,-18.8546 468.3693,-25.8341 470.9821,-19.3399"/>
</g>
<!-- Node10 -->
<g id="node11" class="node">
<title>Node10</title>
<g id="a_node11"><a xlink:href="../../de/d64/RangeReference_8h.html" target="_top" xlink:title="Class to refer to the 1st entry and N elements of some group in the continuous container. ">
<polygon fill="none" stroke="#000000" points="549.5,-118 549.5,-137 759.5,-137 759.5,-118 549.5,-118"/>
<text text-anchor="middle" x="654.5" y="-125" font-family="Helvetica,sans-Serif" font-size="10.00" fill="#000000">CommonDataFormat/RangeReference.h</text>
</a>
</g>
</g>
<!-- Node2&#45;&gt;Node10 -->
<g id="edge10" class="edge">
<title>Node2&#45;&gt;Node10</title>
<path fill="none" stroke="#191970" d="M698.375,-179.3906C690.6358,-170.2376 678.8013,-156.2409 669.3728,-145.09"/>
<polygon fill="#191970" stroke="#191970" points="671.8689,-142.6213 662.7396,-137.2449 666.5235,-147.1409 671.8689,-142.6213"/>
</g>
<!-- Node11 -->
<g id="node12" class="node">
<title>Node11</title>
<g id="a_node12"><a xlink:href="../../df/d5d/common_2include_2CommonDataFormat_2TimeStamp_8h.html" target="_top" xlink:title="CommonDataFormat/TimeStamp.h">
<polygon fill="none" stroke="#000000" points="916,-118 916,-137 1103,-137 1103,-118 916,-118"/>
<text text-anchor="middle" x="1009.5" y="-125" font-family="Helvetica,sans-Serif" font-size="10.00" fill="#000000">CommonDataFormat/TimeStamp.h</text>
</a>
</g>
</g>
<!-- Node2&#45;&gt;Node11 -->
<g id="edge12" class="edge">
<title>Node2&#45;&gt;Node11</title>
<path fill="none" stroke="#191970" d="M753.5113,-179.4581C807.1402,-168.573 894.8276,-150.7751 952.3562,-139.0985"/>
<polygon fill="#191970" stroke="#191970" points="953.2745,-142.4836 962.3784,-137.0643 951.882,-135.6234 953.2745,-142.4836"/>
</g>
<!-- Node2&#45;&gt;Node15 -->
<g id="edge17" class="edge">
<title>Node2&#45;&gt;Node15</title>
<path fill="none" stroke="#191970" d="M648.3177,-179.4581C581.1602,-168.4443 470.8479,-150.3531 399.7117,-138.6867"/>
<polygon fill="#191970" stroke="#191970" points="399.9449,-135.1783 389.5102,-137.0137 398.812,-142.086 399.9449,-135.1783"/>
</g>
<!-- Node16 -->
<g id="node17" class="node">
<title>Node16</title>
<polygon fill="none" stroke="#bfbfbf" points="778,-118 778,-137 835,-137 835,-118 778,-118"/>
<text text-anchor="middle" x="806.5" y="-125" font-family="Helvetica,sans-Serif" font-size="10.00" fill="#000000">gsl/span</text>
</g>
<!-- Node2&#45;&gt;Node16 -->
<g id="edge20" class="edge">
<title>Node2&#45;&gt;Node16</title>
<path fill="none" stroke="#191970" d="M722.125,-179.3906C738.2698,-169.4616 763.6822,-153.833 782.4023,-142.3201"/>
<polygon fill="#191970" stroke="#191970" points="784.3002,-145.2619 790.9847,-137.0419 780.6331,-139.2992 784.3002,-145.2619"/>
</g>
<!-- Node17 -->
<g id="node18" class="node">
<title>Node17</title>
<polygon fill="none" stroke="#bfbfbf" points="853.5,-118 853.5,-137 897.5,-137 897.5,-118 853.5,-118"/>
<text text-anchor="middle" x="875.5" y="-125" font-family="Helvetica,sans-Serif" font-size="10.00" fill="#000000">bitset</text>
</g>
<!-- Node2&#45;&gt;Node17 -->
<g id="edge21" class="edge">
<title>Node2&#45;&gt;Node17</title>
<path fill="none" stroke="#191970" d="M738.7553,-179.443C766.788,-170.8367 808.3075,-157.3635 843.5,-143 844.8574,-142.446 846.2383,-141.8614 847.6268,-141.2566"/>
<polygon fill="#191970" stroke="#191970" points="849.0972,-144.4328 856.7286,-137.0835 846.1798,-138.0697 849.0972,-144.4328"/>
</g>
<!-- Node2&#45;&gt;Node18 -->
<g id="edge22" class="edge">
<title>Node2&#45;&gt;Node18</title>
<path fill="none" stroke="#191970" d="M640.1998,-180.1187C636.9214,-179.729 633.6743,-179.3537 630.5,-179 455.7411,-159.5266 407.5195,-183.8929 236.5,-143 233.7098,-142.3328 230.8553,-141.5042 228.0223,-140.5796"/>
<polygon fill="#191970" stroke="#191970" points="229.1918,-137.2807 218.5976,-137.1612 226.8049,-143.8612 229.1918,-137.2807"/>
</g>
<!-- Node4 -->
<g id="node5" class="node">
<title>Node4</title>
<g id="a_node5"><a xlink:href="../../d2/d45/GPUCommonRtypes_8h.html" target="_top" xlink:title="GPUCommonRtypes.h">
<polygon fill="none" stroke="#000000" points="694,-56.5 694,-75.5 819,-75.5 819,-56.5 694,-56.5"/>
<text text-anchor="middle" x="756.5" y="-63.5" font-family="Helvetica,sans-Serif" font-size="10.00" fill="#000000">GPUCommonRtypes.h</text>
</a>
</g>
</g>
<!-- Node3&#45;&gt;Node4 -->
<g id="edge4" class="edge">
<title>Node3&#45;&gt;Node4</title>
<path fill="none" stroke="#191970" d="M1121.2692,-113.4362C1117.972,-112.9443 1114.7069,-112.4639 1111.5,-112 1014.0378,-97.9018 901.2183,-83.6325 829.3934,-74.8054"/>
<polygon fill="#191970" stroke="#191970" points="829.4522,-71.2865 819.1005,-73.5432 828.6001,-78.2344 829.4522,-71.2865"/>
</g>
<!-- Node6 -->
<g id="node7" class="node">
<title>Node6</title>
<polygon fill="none" stroke="#bfbfbf" points="1338,-56.5 1338,-75.5 1387,-75.5 1387,-56.5 1338,-56.5"/>
<text text-anchor="middle" x="1362.5" y="-63.5" font-family="Helvetica,sans-Serif" font-size="10.00" fill="#000000">iosfwd</text>
</g>
<!-- Node3&#45;&gt;Node6 -->
<g id="edge6" class="edge">
<title>Node3&#45;&gt;Node6</title>
<path fill="none" stroke="#191970" d="M1246.1726,-112.4554C1271.5298,-102.329 1304.6652,-89.0964 1329.0826,-79.3453"/>
<polygon fill="#191970" stroke="#191970" points="1330.6467,-82.4895 1338.6355,-75.5303 1328.0505,-75.9887 1330.6467,-82.4895"/>
</g>
<!-- Node7 -->
<g id="node8" class="node">
<title>Node7</title>
<polygon fill="none" stroke="#bfbfbf" points="1064,-56.5 1064,-75.5 1111,-75.5 1111,-56.5 1064,-56.5"/>
<text text-anchor="middle" x="1087.5" y="-63.5" font-family="Helvetica,sans-Serif" font-size="10.00" fill="#000000">cmath</text>
</g>
<!-- Node3&#45;&gt;Node7 -->
<g id="edge7" class="edge">
<title>Node3&#45;&gt;Node7</title>
<path fill="none" stroke="#191970" d="M1178.9001,-112.4554C1159.5078,-102.599 1134.3258,-89.7999 1115.3057,-80.1327"/>
<polygon fill="#191970" stroke="#191970" points="1116.7512,-76.9412 1106.2507,-75.5303 1113.5795,-83.1815 1116.7512,-76.9412"/>
</g>
<!-- Node8 -->
<g id="node9" class="node">
<title>Node8</title>
<polygon fill="none" stroke="#bfbfbf" points="458.5,-56.5 458.5,-75.5 508.5,-75.5 508.5,-56.5 458.5,-56.5"/>
<text text-anchor="middle" x="483.5" y="-63.5" font-family="Helvetica,sans-Serif" font-size="10.00" fill="#000000">cstdint</text>
</g>
<!-- Node3&#45;&gt;Node8 -->
<g id="edge8" class="edge">
<title>Node3&#45;&gt;Node8</title>
<path fill="none" stroke="#191970" d="M1121.2992,-113.206C1117.9937,-112.7785 1114.7185,-112.3743 1111.5,-112 886.6997,-85.8543 614.7948,-71.9134 518.9804,-67.536"/>
<polygon fill="#191970" stroke="#191970" points="518.8475,-64.0265 508.6999,-67.0723 518.532,-71.0194 518.8475,-64.0265"/>
</g>
<!-- Node9 -->
<g id="node10" class="node">
<title>Node9</title>
<g id="a_node10"><a xlink:href="../../d4/dc6/LHCConstants_8h.html" target="_top" xlink:title="Header to collect LHC related constants. ">
<polygon fill="none" stroke="#000000" points="1129.5,-56.5 1129.5,-75.5 1319.5,-75.5 1319.5,-56.5 1129.5,-56.5"/>
<text text-anchor="middle" x="1224.5" y="-63.5" font-family="Helvetica,sans-Serif" font-size="10.00" fill="#000000">CommonConstants/LHCConstants.h</text>
</a>
</g>
</g>
<!-- Node3&#45;&gt;Node9 -->
<g id="edge9" class="edge">
<title>Node3&#45;&gt;Node9</title>
<path fill="none" stroke="#191970" d="M1212.4551,-112.2977C1214.5372,-104.2945 1217.1155,-94.3843 1219.3517,-85.7889"/>
<polygon fill="#191970" stroke="#191970" points="1222.8076,-86.406 1221.9382,-75.8469 1216.0331,-84.6435 1222.8076,-86.406"/>
</g>
<!-- Node4&#45;&gt;Node5 -->
<g id="edge5" class="edge">
<title>Node4&#45;&gt;Node5</title>
<path fill="none" stroke="#191970" d="M700.829,-56.4369C635.2598,-45.1735 527.9788,-26.7448 470.2513,-16.8284"/>
<polygon fill="#191970" stroke="#191970" points="470.5184,-13.3231 460.0702,-15.0795 469.3332,-20.2221 470.5184,-13.3231"/>
</g>
<!-- Node10&#45;&gt;Node4 -->
<g id="edge11" class="edge">
<title>Node10&#45;&gt;Node4</title>
<path fill="none" stroke="#191970" d="M670.4375,-117.8906C686.9051,-107.9616 712.8258,-92.333 731.9204,-80.8201"/>
<polygon fill="#191970" stroke="#191970" points="733.9178,-83.7027 740.6744,-75.5419 730.3034,-77.7081 733.9178,-83.7027"/>
</g>
<!-- Node11&#45;&gt;Node4 -->
<g id="edge13" class="edge">
<title>Node11&#45;&gt;Node4</title>
<path fill="none" stroke="#191970" d="M970.2463,-117.9581C925.9306,-107.1857 853.7624,-89.6428 805.714,-77.9631"/>
<polygon fill="#191970" stroke="#191970" points="806.3895,-74.5254 795.8457,-75.5643 804.736,-81.3274 806.3895,-74.5254"/>
</g>
<!-- Node12 -->
<g id="node13" class="node">
<title>Node12</title>
<g id="a_node13"><a xlink:href="../../df/d21/GPUCommonDef_8h.html" target="_top" xlink:title="GPUCommonDef.h">
<polygon fill="none" stroke="#000000" points="939,-56.5 939,-75.5 1046,-75.5 1046,-56.5 939,-56.5"/>
<text text-anchor="middle" x="992.5" y="-63.5" font-family="Helvetica,sans-Serif" font-size="10.00" fill="#000000">GPUCommonDef.h</text>
</a>
</g>
</g>
<!-- Node11&#45;&gt;Node12 -->
<g id="edge14" class="edge">
<title>Node11&#45;&gt;Node12</title>
<path fill="none" stroke="#191970" d="M1006.8438,-117.8906C1004.4625,-109.276 1000.8952,-96.3708 997.914,-85.5858"/>
<polygon fill="#191970" stroke="#191970" points="1001.2316,-84.4509 995.1937,-75.7449 994.4846,-86.3159 1001.2316,-84.4509"/>
</g>
<!-- Node13 -->
<g id="node14" class="node">
<title>Node13</title>
<g id="a_node14"><a xlink:href="../../d5/d93/GPUCommonDefSettings_8h.html" target="_top" xlink:title="GPUCommonDefSettings.h">
<polygon fill="none" stroke="#000000" points="995.5,-.5 995.5,-19.5 1143.5,-19.5 1143.5,-.5 995.5,-.5"/>
<text text-anchor="middle" x="1069.5" y="-7.5" font-family="Helvetica,sans-Serif" font-size="10.00" fill="#000000">GPUCommonDefSettings.h</text>
</a>
</g>
</g>
<!-- Node12&#45;&gt;Node13 -->
<g id="edge15" class="edge">
<title>Node12&#45;&gt;Node13</title>
<path fill="none" stroke="#191970" d="M1005.9124,-56.2455C1017.5057,-47.814 1034.4748,-35.4729 1047.9678,-25.6598"/>
<polygon fill="#191970" stroke="#191970" points="1050.2126,-28.355 1056.2413,-19.6427 1046.0953,-22.6938 1050.2126,-28.355"/>
</g>
<!-- Node14 -->
<g id="node15" class="node">
<title>Node14</title>
<g id="a_node15"><a xlink:href="../../da/d5a/GPUCommonDefAPI_8h.html" target="_top" xlink:title="GPUCommonDefAPI.h">
<polygon fill="none" stroke="#000000" points="853.5,-.5 853.5,-19.5 977.5,-19.5 977.5,-.5 853.5,-.5"/>
<text text-anchor="middle" x="915.5" y="-7.5" font-family="Helvetica,sans-Serif" font-size="10.00" fill="#000000">GPUCommonDefAPI.h</text>
</a>
</g>
</g>
<!-- Node12&#45;&gt;Node14 -->
<g id="edge16" class="edge">
<title>Node12&#45;&gt;Node14</title>
<path fill="none" stroke="#191970" d="M979.0876,-56.2455C967.4943,-47.814 950.5252,-35.4729 937.0322,-25.6598"/>
<polygon fill="#191970" stroke="#191970" points="938.9047,-22.6938 928.7587,-19.6427 934.7874,-28.355 938.9047,-22.6938"/>
</g>
<!-- Node15&#45;&gt;Node5 -->
<g id="edge18" class="edge">
<title>Node15&#45;&gt;Node5</title>
<path fill="none" stroke="#191970" d="M339.6016,-117.8845C356.2805,-98.0889 394.6602,-52.5372 415.825,-27.4173"/>
<polygon fill="#191970" stroke="#191970" points="418.5197,-29.651 422.2865,-19.7484 413.1665,-25.1406 418.5197,-29.651"/>
</g>
<!-- Node19&#45;&gt;Node8 -->
<g id="edge25" class="edge">
<title>Node19&#45;&gt;Node8</title>
<path fill="none" stroke="#191970" d="M536.9399,-179.3482C527.9701,-170.6305 515.3382,-157.0476 507.5,-143 497.3,-124.7196 490.8284,-101.5302 487.2091,-85.3997"/>
<polygon fill="#191970" stroke="#191970" points="490.6142,-84.5833 485.1484,-75.5073 483.7614,-86.0109 490.6142,-84.5833"/>
</g>
<!-- Node20&#45;&gt;Node5 -->
<g id="edge27" class="edge">
<title>Node20&#45;&gt;Node5</title>
<path fill="none" stroke="#191970" d="M66.29,-179.4505C52.9734,-171.663 36.2875,-159.2917 28.5,-143 22.5581,-130.5693 20.0401,-122.8746 28.5,-112 73.1999,-54.5419 298.0919,-24.2153 390.6308,-14.0074"/>
<polygon fill="#191970" stroke="#191970" points="391.1565,-17.471 400.7223,-12.9164 390.404,-10.5116 391.1565,-17.471"/>
</g>
<!-- Node20&#45;&gt;Node18 -->
<g id="edge29" class="edge">
<title>Node20&#45;&gt;Node18</title>
<path fill="none" stroke="#191970" d="M103,-179.3906C121.2465,-169.3713 150.0624,-153.5483 171.0806,-142.0071"/>
<polygon fill="#191970" stroke="#191970" points="173.042,-144.923 180.1229,-137.0419 169.6728,-138.7872 173.042,-144.923"/>
</g>
<!-- Node21 -->
<g id="node22" class="node">
<title>Node21</title>
<polygon fill="none" stroke="#bfbfbf" points="97.5,-118 97.5,-137 149.5,-137 149.5,-118 97.5,-118"/>
<text text-anchor="middle" x="123.5" y="-125" font-family="Helvetica,sans-Serif" font-size="10.00" fill="#000000">cassert</text>
</g>
<!-- Node20&#45;&gt;Node21 -->
<g id="edge28" class="edge">
<title>Node20&#45;&gt;Node21</title>
<path fill="none" stroke="#191970" d="M91.4375,-179.3906C96.9267,-170.5068 105.2353,-157.0601 112.019,-146.0811"/>
<polygon fill="#191970" stroke="#191970" points="115.1998,-147.5917 117.4788,-137.2449 109.2449,-143.9122 115.1998,-147.5917"/>
</g>
<!-- Node22 -->
<g id="node23" class="node">
<title>Node22</title>
<polygon fill="none" stroke="#bfbfbf" points="38,-118 38,-137 79,-137 79,-118 38,-118"/>
<text text-anchor="middle" x="58.5" y="-125" font-family="Helvetica,sans-Serif" font-size="10.00" fill="#000000">tuple</text>
</g>
<!-- Node20&#45;&gt;Node22 -->
<g id="edge30" class="edge">
<title>Node20&#45;&gt;Node22</title>
<path fill="none" stroke="#191970" d="M81.2813,-179.3906C77.4204,-170.5965 71.5966,-157.3312 66.8039,-146.4145"/>
<polygon fill="#191970" stroke="#191970" points="70.0029,-144.9943 62.7782,-137.2449 63.5934,-147.8083 70.0029,-144.9943"/>
</g>
</g>
</svg>
        <g id="navigator" transform="translate(0 0)" fill="#404254">
                <rect fill="#f2f5e9" fill-opacity="0.5" stroke="#606060" stroke-width=".5" x="0" y="0" width="60" height="60"/>
                <use id="zoomplus" xlink:href="#zoomPlus" x="17" y="9" onmousedown="handleZoom(evt,'in')"/>
                <use id="zoomminus" xlink:href="#zoomMin" x="42" y="9" onmousedown="handleZoom(evt,'out')"/>
                <use id="reset" xlink:href="#resetDef" x="30" y="36" onmousedown="handleReset()"/>
                <g id="arrowUp" xlink:href="#dirArrow" transform="translate(30 24)" onmousedown="handlePan(0,-1)">
                  <use xlink:href="#rim" fill="#404040">
                        <set attributeName="fill" to="#808080" begin="arrowUp.mouseover" end="arrowUp.mouseout"/>
                  </use>
                  <path fill="none" stroke="white" stroke-width="1.5" d="M0,-3.0v7 M-2.5,-0.5L0,-3.0L2.5,-0.5"/>
                </g>
                <g id="arrowRight" xlink:href="#dirArrow" transform="rotate(90) translate(36 -43)" onmousedown="handlePan(1,0)">
                  <use xlink:href="#rim" fill="#404040">
                        <set attributeName="fill" to="#808080" begin="arrowRight.mouseover" end="arrowRight.mouseout"/>
                  </use>
                  <path fill="none" stroke="white" stroke-width="1.5" d="M0,-3.0v7 M-2.5,-0.5L0,-3.0L2.5,-0.5"/>
                </g>
                <g id="arrowDown" xlink:href="#dirArrow" transform="rotate(180) translate(-30 -48)" onmousedown="handlePan(0,1)">
                  <use xlink:href="#rim" fill="#404040">
                        <set attributeName="fill" to="#808080" begin="arrowDown.mouseover" end="arrowDown.mouseout"/>
                  </use>
                  <path fill="none" stroke="white" stroke-width="1.5" d="M0,-3.0v7 M-2.5,-0.5L0,-3.0L2.5,-0.5"/>
                </g>
                <g id="arrowLeft" xlink:href="#dirArrow" transform="rotate(270) translate(-36 17)" onmousedown="handlePan(-1,0)">
                  <use xlink:href="#rim" fill="#404040">
                        <set attributeName="fill" to="#808080" begin="arrowLeft.mouseover" end="arrowLeft.mouseout"/>
                  </use>
                  <path fill="none" stroke="white" stroke-width="1.5" d="M0,-3.0v7 M-2.5,-0.5L0,-3.0L2.5,-0.5"/>
                </g>
        </g>
        <svg viewBox="0 0 15 15" width="100%" height="30px" preserveAspectRatio="xMaxYMin meet">
         <g id="arrow_out" transform="scale(0.3 0.3)">
          <a xlink:href="RawEventData_8cxx__incl_org.svg" target="_base">
           <rect id="button" ry="5" rx="5" y="6" x="6" height="38" width="38"
                fill="#f2f5e9" fill-opacity="0.5" stroke="#606060" stroke-width="1.0"/>
           <path id="arrow"
             d="M 11.500037,31.436501 C 11.940474,20.09759 22.043105,11.32322 32.158766,21.979434 L 37.068811,17.246167 C 37.068811,17.246167 37.088388,32 37.088388,32 L 22.160133,31.978069 C 22.160133,31.978069 26.997745,27.140456 26.997745,27.140456 C 18.528582,18.264221 13.291696,25.230495 11.500037,31.436501 z"
             style="fill:#404040;"/>
          </a>
         </g>
        </svg>
</svg>
