<?xml version="1.0" encoding="UTF-8" standalone="no"?>
<!DOCTYPE svg PUBLIC "-//W3C//DTD SVG 1.1//EN"
 "http://www.w3.org/Graphics/SVG/1.1/DTD/svg11.dtd">
<!-- Generated by graphviz version 2.40.1 (20161225.0304)
 -->
<!-- Title: /home/travis/build/AliceO2Group/AliceO2/DataFormats/Detectors/TRD/include/DataFormatsTRD/Tracklet64.h Pages: 1 -->
<svg width="441pt" height="184pt"
 viewBox="0.00 0.00 441.11 184.00" xmlns="http://www.w3.org/2000/svg" xmlns:xlink="http://www.w3.org/1999/xlink">
<g id="graph0" class="graph" transform="scale(1 1) rotate(0) translate(4 180)">
<title>/home/travis/build/AliceO2Group/AliceO2/DataFormats/Detectors/TRD/include/DataFormatsTRD/Tracklet64.h</title>
<!-- Node0 -->
<g id="node1" class="node">
<title>Node0</title>
<polygon fill="#bfbfbf" stroke="#000000" points="136.5411,-112.5 136.5411,-175.5 300.5411,-175.5 300.5411,-112.5 136.5411,-112.5"/>
<text text-anchor="start" x="144.5411" y="-163.5" font-family="Helvetica,sans-Serif" font-size="10.00" fill="#000000">/home/travis/build</text>
<text text-anchor="start" x="144.5411" y="-152.5" font-family="Helvetica,sans-Serif" font-size="10.00" fill="#000000">/AliceO2Group/AliceO2</text>
<text text-anchor="start" x="144.5411" y="-141.5" font-family="Helvetica,sans-Serif" font-size="10.00" fill="#000000">/DataFormats/Detectors</text>
<text text-anchor="start" x="144.5411" y="-130.5" font-family="Helvetica,sans-Serif" font-size="10.00" fill="#000000">/TRD/include/DataFormatsTRD</text>
<text text-anchor="middle" x="218.5411" y="-119.5" font-family="Helvetica,sans-Serif" font-size="10.00" fill="#000000">/Tracklet64.h</text>
</g>
<!-- Node1 -->
<g id="node2" class="node">
<title>Node1</title>
<polygon fill="none" stroke="#bfbfbf" points="12.0411,-.5 12.0411,-19.5 59.0411,-19.5 59.0411,-.5 12.0411,-.5"/>
<text text-anchor="middle" x="35.5411" y="-7.5" font-family="Helvetica,sans-Serif" font-size="10.00" fill="#000000">vector</text>
</g>
<!-- Node0&#45;&gt;Node1 -->
<g id="edge1" class="edge">
<title>Node0&#45;&gt;Node1</title>
<path fill="none" stroke="#191970" d="M136.4679,-128.3336C83.1434,-116.2967 20.6524,-98.0245 4.5411,-76 -6.5802,-60.7968 5.6997,-40.9697 17.9347,-27.0301"/>
<polygon fill="#191970" stroke="#191970" points="20.6429,-29.2596 24.956,-19.5824 15.5495,-24.4578 20.6429,-29.2596"/>
</g>
<!-- Node2 -->
<g id="node3" class="node">
<title>Node2</title>
<polygon fill="none" stroke="#bfbfbf" points="89.5411,-.5 89.5411,-19.5 131.5411,-19.5 131.5411,-.5 89.5411,-.5"/>
<text text-anchor="middle" x="110.5411" y="-7.5" font-family="Helvetica,sans-Serif" font-size="10.00" fill="#000000">array</text>
</g>
<!-- Node0&#45;&gt;Node2 -->
<g id="edge2" class="edge">
<title>Node0&#45;&gt;Node2</title>
<path fill="none" stroke="#191970" d="M300.7874,-135.7648C373.6614,-125.2675 462.7457,-102.5668 422.5411,-56 404.3383,-34.9166 217.9361,-18.286 142.2365,-12.3508"/>
<polygon fill="#191970" stroke="#191970" points="142.1438,-8.8334 131.9042,-11.5535 141.6052,-15.8126 142.1438,-8.8334"/>
</g>
<!-- Node3 -->
<g id="node4" class="node">
<title>Node3</title>
<polygon fill="none" stroke="#bfbfbf" points="151.5411,-56.5 151.5411,-75.5 209.5411,-75.5 209.5411,-56.5 151.5411,-56.5"/>
<text text-anchor="middle" x="180.5411" y="-63.5" font-family="Helvetica,sans-Serif" font-size="10.00" fill="#000000">memory</text>
</g>
<!-- Node0&#45;&gt;Node3 -->
<g id="edge3" class="edge">
<title>Node0&#45;&gt;Node3</title>
<path fill="none" stroke="#191970" d="M203.0851,-112.2744C198.5273,-102.919 193.6875,-92.9845 189.6654,-84.7287"/>
<polygon fill="#191970" stroke="#191970" points="192.765,-83.0996 185.2388,-75.6426 186.4721,-86.1654 192.765,-83.0996"/>
</g>
<!-- Node4 -->
<g id="node5" class="node">
<title>Node4</title>
<polygon fill="none" stroke="#bfbfbf" points="228.0411,-56.5 228.0411,-75.5 287.0411,-75.5 287.0411,-56.5 228.0411,-56.5"/>
<text text-anchor="middle" x="257.5411" y="-63.5" font-family="Helvetica,sans-Serif" font-size="10.00" fill="#000000">Rtypes.h</text>
</g>
<!-- Node0&#45;&gt;Node4 -->
<g id="edge4" class="edge">
<title>Node0&#45;&gt;Node4</title>
<path fill="none" stroke="#191970" d="M234.4039,-112.2744C239.0817,-102.919 244.0489,-92.9845 248.1768,-84.7287"/>
<polygon fill="#191970" stroke="#191970" points="251.3782,-86.1521 252.7199,-75.6426 245.1172,-83.0216 251.3782,-86.1521"/>
</g>
<!-- Node5 -->
<g id="node6" class="node">
<title>Node5</title>
<polygon fill="none" stroke="#bfbfbf" points="305.5411,-56.5 305.5411,-75.5 413.5411,-75.5 413.5411,-56.5 305.5411,-56.5"/>
<text text-anchor="middle" x="359.5411" y="-63.5" font-family="Helvetica,sans-Serif" font-size="10.00" fill="#000000">fairlogger/Logger.h</text>
</g>
<!-- Node0&#45;&gt;Node5 -->
<g id="edge5" class="edge">
<title>Node0&#45;&gt;Node5</title>
<path fill="none" stroke="#191970" d="M275.4848,-112.4992C295.5468,-101.4011 317.1307,-89.4611 333.4034,-80.4592"/>
<polygon fill="#191970" stroke="#191970" points="335.2629,-83.4304 342.319,-75.5271 331.8744,-77.3052 335.2629,-83.4304"/>
</g>
<!-- Node6 -->
<g id="node7" class="node">
<title>Node6</title>
<g id="a_node7"><a xlink:href="../../d2/d36/FeeParam_8h.html" target="_top" xlink:title="TRDBase/FeeParam.h">
<polygon fill="none" stroke="#000000" points="13.5411,-56.5 13.5411,-75.5 133.5411,-75.5 133.5411,-56.5 13.5411,-56.5"/>
<text text-anchor="middle" x="73.5411" y="-63.5" font-family="Helvetica,sans-Serif" font-size="10.00" fill="#000000">TRDBase/FeeParam.h</text>
</a>
</g>
</g>
<!-- Node0&#45;&gt;Node6 -->
<g id="edge6" class="edge">
<title>Node0&#45;&gt;Node6</title>
<path fill="none" stroke="#191970" d="M159.9821,-112.4992C139.351,-101.4011 117.1547,-89.4611 100.4204,-80.4592"/>
<polygon fill="#191970" stroke="#191970" points="101.7166,-77.1822 91.2518,-75.5271 98.4004,-83.3469 101.7166,-77.1822"/>
</g>
<!-- Node6&#45;&gt;Node1 -->
<g id="edge8" class="edge">
<title>Node6&#45;&gt;Node1</title>
<path fill="none" stroke="#191970" d="M66.922,-56.2455C61.6366,-48.4564 54.087,-37.3308 47.7174,-27.9439"/>
<polygon fill="#191970" stroke="#191970" points="50.5956,-25.9522 42.0844,-19.6427 44.8033,-29.8827 50.5956,-25.9522"/>
</g>
<!-- Node6&#45;&gt;Node2 -->
<g id="edge7" class="edge">
<title>Node6&#45;&gt;Node2</title>
<path fill="none" stroke="#191970" d="M79.9861,-56.2455C85.0794,-48.5367 92.332,-37.5598 98.4931,-28.2348"/>
<polygon fill="#191970" stroke="#191970" points="101.5777,-29.9155 104.1701,-19.6427 95.7373,-26.0566 101.5777,-29.9155"/>
</g>
</g>
</svg>
