<?xml version="1.0" encoding="UTF-8" standalone="no"?>
<!DOCTYPE svg PUBLIC "-//W3C//DTD SVG 1.1//EN"
 "http://www.w3.org/Graphics/SVG/1.1/DTD/svg11.dtd">
<!-- Generated by graphviz version 2.40.1 (20161225.0304)
 -->
<!-- Title: /home/travis/build/AliceO2Group/AliceO2/Analysis/DataModel/include/Analysis/ReducedInfoTables.h Pages: 1 -->
<!--zoomable 397 -->
<svg id="main" version="1.1" xmlns="http://www.w3.org/2000/svg" xmlns:xlink="http://www.w3.org/1999/xlink" xml:space="preserve" onload="init(evt)">
<style type="text/css"><![CDATA[
.edge:hover path { stroke: red; }
.edge:hover polygon { stroke: red; fill: red; }
]]></style>
<script type="text/javascript"><![CDATA[
var edges = document.getElementsByTagName('g');
if (edges && edges.length) {
  for (var i=0;i<edges.length;i++) {
    if (edges[i].id.substr(0,4)=='edge') {
      edges[i].setAttribute('class','edge');
    }
  }
}
]]></script>
        <defs>
                <circle id="rim" cx="0" cy="0" r="7"/>
                <circle id="rim2" cx="0" cy="0" r="3.5"/>
                <g id="zoomPlus">
                        <use xlink:href="#rim" fill="#404040">
                                <set attributeName="fill" to="#808080" begin="zoomplus.mouseover" end="zoomplus.mouseout"/>
                        </use>
                        <path d="M-4,0h8M0,-4v8" fill="none" stroke="white" stroke-width="1.5" pointer-events="none"/>
                </g>
                <g id="zoomMin">
                        <use xlink:href="#rim" fill="#404040">
                                <set attributeName="fill" to="#808080" begin="zoomminus.mouseover" end="zoomminus.mouseout"/>
                        </use>
                        <path d="M-4,0h8" fill="none" stroke="white" stroke-width="1.5" pointer-events="none"/>
                </g>
                <g id="dirArrow">
                        <path fill="none" stroke="white" stroke-width="1.5" d="M0,-3.0v7 M-2.5,-0.5L0,-3.0L2.5,-0.5"/>
                </g>
               <g id="resetDef">
                       <use xlink:href="#rim2" fill="#404040">
                               <set attributeName="fill" to="#808080" begin="reset.mouseover" end="reset.mouseout"/>
                       </use>
               </g>
        </defs>

<script type="text/javascript">
var viewWidth = 2684;
var viewHeight = 397;
var sectionId = 'dynsection-0';
</script>
<script xlink:href="../../svgpan.js"/>
<svg id="graph" class="graph">
<g id="viewport">
<title>/home/travis/build/AliceO2Group/AliceO2/Analysis/DataModel/include/Analysis/ReducedInfoTables.h</title>
<!-- Node0 -->
<g id="node1" class="node">
<title>Node0</title>
<polygon fill="#bfbfbf" stroke="#000000" points="2115.5,-336.5 2115.5,-388.5 2279.5,-388.5 2279.5,-336.5 2115.5,-336.5"/>
<text text-anchor="start" x="2123.5" y="-376.5" font-family="Helvetica,sans-Serif" font-size="10.00" fill="#000000">/home/travis/build</text>
<text text-anchor="start" x="2123.5" y="-365.5" font-family="Helvetica,sans-Serif" font-size="10.00" fill="#000000">/AliceO2Group/AliceO2</text>
<text text-anchor="start" x="2123.5" y="-354.5" font-family="Helvetica,sans-Serif" font-size="10.00" fill="#000000">/Analysis/DataModel/include</text>
<text text-anchor="middle" x="2197.5" y="-343.5" font-family="Helvetica,sans-Serif" font-size="10.00" fill="#000000">/Analysis/ReducedInfoTables.h</text>
</g>
<!-- Node1 -->
<g id="node2" class="node">
<title>Node1</title>
<g id="a_node2"><a xlink:href="../../de/d33/ASoA_8h.html" target="_top" xlink:title="Framework/ASoA.h">
<polygon fill="none" stroke="#000000" points="1223.5,-168.5 1223.5,-187.5 1331.5,-187.5 1331.5,-168.5 1223.5,-168.5"/>
<text text-anchor="middle" x="1277.5" y="-175.5" font-family="Helvetica,sans-Serif" font-size="10.00" fill="#000000">Framework/ASoA.h</text>
</a>
</g>
</g>
<!-- Node0&#45;&gt;Node1 -->
<g id="edge1" class="edge">
<title>Node0&#45;&gt;Node1</title>
<path fill="none" stroke="#191970" d="M2115.4517,-346.0458C1932.0854,-309.2728 1492.8134,-221.1797 1335.0998,-189.5513"/>
<polygon fill="#191970" stroke="#191970" points="1335.6174,-186.0855 1325.1244,-187.5508 1334.241,-192.9488 1335.6174,-186.0855"/>
</g>
<!-- Node33 -->
<g id="node34" class="node">
<title>Node33</title>
<g id="a_node34"><a xlink:href="../../d2/d8c/AnalysisDataModel_8h.html" target="_top" xlink:title="Framework/AnalysisDataModel.h">
<polygon fill="none" stroke="#000000" points="2023.5,-224.5 2023.5,-243.5 2199.5,-243.5 2199.5,-224.5 2023.5,-224.5"/>
<text text-anchor="middle" x="2111.5" y="-231.5" font-family="Helvetica,sans-Serif" font-size="10.00" fill="#000000">Framework/AnalysisDataModel.h</text>
</a>
</g>
</g>
<!-- Node0&#45;&gt;Node33 -->
<g id="edge41" class="edge">
<title>Node0&#45;&gt;Node33</title>
<path fill="none" stroke="#191970" d="M2196.3463,-336.3831C2194.4769,-319.1016 2189.8322,-296.6445 2178.5,-280 2169.403,-266.6385 2155.0302,-256.0237 2141.9254,-248.3729"/>
<polygon fill="#191970" stroke="#191970" points="2143.5869,-245.2924 2133.1359,-243.5525 2140.2209,-251.43 2143.5869,-245.2924"/>
</g>
<!-- Node34 -->
<g id="node35" class="node">
<title>Node34</title>
<g id="a_node35"><a xlink:href="../../d9/d52/Common_2MathUtils_2include_2MathUtils_2Utils_8h.html" target="_top" xlink:title="MathUtils/Utils.h">
<polygon fill="none" stroke="#000000" points="2196.5,-168.5 2196.5,-187.5 2294.5,-187.5 2294.5,-168.5 2196.5,-168.5"/>
<text text-anchor="middle" x="2245.5" y="-175.5" font-family="Helvetica,sans-Serif" font-size="10.00" fill="#000000">MathUtils/Utils.h</text>
</a>
</g>
</g>
<!-- Node0&#45;&gt;Node34 -->
<g id="edge58" class="edge">
<title>Node0&#45;&gt;Node34</title>
<path fill="none" stroke="#191970" d="M2204.2754,-336.457C2213.9804,-299.1535 2231.6275,-231.3224 2240.3444,-197.8167"/>
<polygon fill="#191970" stroke="#191970" points="2243.8033,-198.4226 2242.9339,-187.8635 2237.0288,-196.66 2243.8033,-198.4226"/>
</g>
<!-- Node36 -->
<g id="node37" class="node">
<title>Node36</title>
<polygon fill="none" stroke="#bfbfbf" points="2289,-56.5 2289,-75.5 2336,-75.5 2336,-56.5 2289,-56.5"/>
<text text-anchor="middle" x="2312.5" y="-63.5" font-family="Helvetica,sans-Serif" font-size="10.00" fill="#000000">cmath</text>
</g>
<!-- Node0&#45;&gt;Node36 -->
<g id="edge59" class="edge">
<title>Node0&#45;&gt;Node36</title>
<path fill="none" stroke="#191970" d="M2274.6451,-336.3898C2318.4021,-316.1756 2364.5,-283.2037 2364.5,-234 2364.5,-234 2364.5,-234 2364.5,-178 2364.5,-147.4754 2358.8129,-139.4685 2345.5,-112 2340.6521,-101.9974 2333.6472,-91.855 2327.3372,-83.6485"/>
<polygon fill="#191970" stroke="#191970" points="2329.8787,-81.2227 2320.8978,-75.6016 2324.4132,-85.5963 2329.8787,-81.2227"/>
</g>
<!-- Node44 -->
<g id="node45" class="node">
<title>Node44</title>
<g id="a_node45"><a xlink:href="../../db/d48/Centrality_8h.html" target="_top" xlink:title="Analysis/Centrality.h">
<polygon fill="none" stroke="#000000" points="2053.5,-280.5 2053.5,-299.5 2169.5,-299.5 2169.5,-280.5 2053.5,-280.5"/>
<text text-anchor="middle" x="2111.5" y="-287.5" font-family="Helvetica,sans-Serif" font-size="10.00" fill="#000000">Analysis/Centrality.h</text>
</a>
</g>
</g>
<!-- Node0&#45;&gt;Node44 -->
<g id="edge56" class="edge">
<title>Node0&#45;&gt;Node44</title>
<path fill="none" stroke="#191970" d="M2166.452,-336.3258C2154.4554,-326.2124 2141.1106,-314.9624 2130.576,-306.0815"/>
<polygon fill="#191970" stroke="#191970" points="2132.7109,-303.3035 2122.8093,-299.534 2128.1991,-308.6555 2132.7109,-303.3035"/>
</g>
<!-- Node2 -->
<g id="node3" class="node">
<title>Node2</title>
<g id="a_node3"><a xlink:href="../../dd/dce/Pack_8h.html" target="_top" xlink:title="Framework/Pack.h">
<polygon fill="none" stroke="#000000" points="83,-56.5 83,-75.5 188,-75.5 188,-56.5 83,-56.5"/>
<text text-anchor="middle" x="135.5" y="-63.5" font-family="Helvetica,sans-Serif" font-size="10.00" fill="#000000">Framework/Pack.h</text>
</a>
</g>
</g>
<!-- Node1&#45;&gt;Node2 -->
<g id="edge2" class="edge">
<title>Node1&#45;&gt;Node2</title>
<path fill="none" stroke="#191970" d="M1223.2149,-175.5116C1119.1741,-170.2508 895.5359,-156.4313 822.5,-132 806.2358,-126.5594 805.8698,-117.114 789.5,-112 666.6461,-73.6196 344.0948,-89.7075 198.3962,-75.9134"/>
<polygon fill="#191970" stroke="#191970" points="198.5221,-72.408 188.2167,-74.8674 197.8065,-79.3713 198.5221,-72.408"/>
</g>
<!-- Node6 -->
<g id="node7" class="node">
<title>Node6</title>
<g id="a_node7"><a xlink:href="../../d1/d00/CheckTypes_8h.html" target="_top" xlink:title="Framework/CheckTypes.h">
<polygon fill="none" stroke="#000000" points="206.5,-56.5 206.5,-75.5 346.5,-75.5 346.5,-56.5 206.5,-56.5"/>
<text text-anchor="middle" x="276.5" y="-63.5" font-family="Helvetica,sans-Serif" font-size="10.00" fill="#000000">Framework/CheckTypes.h</text>
</a>
</g>
</g>
<!-- Node1&#45;&gt;Node6 -->
<g id="edge6" class="edge">
<title>Node1&#45;&gt;Node6</title>
<path fill="none" stroke="#191970" d="M1223.3648,-174.5485C1126.3994,-167.9491 927.0086,-152.3677 860.5,-132 842.2513,-126.4115 840.8383,-117.2873 822.5,-112 625.6019,-55.2304 564.5069,-95.7661 356.6985,-76.051"/>
<polygon fill="#191970" stroke="#191970" points="356.9856,-72.5625 346.6909,-75.0661 356.2999,-79.5288 356.9856,-72.5625"/>
</g>
<!-- Node7 -->
<g id="node8" class="node">
<title>Node7</title>
<g id="a_node8"><a xlink:href="../../de/d9b/FunctionalHelpers_8h.html" target="_top" xlink:title="Framework/FunctionalHelpers.h">
<polygon fill="none" stroke="#000000" points="50.5,-112.5 50.5,-131.5 220.5,-131.5 220.5,-112.5 50.5,-112.5"/>
<text text-anchor="middle" x="135.5" y="-119.5" font-family="Helvetica,sans-Serif" font-size="10.00" fill="#000000">Framework/FunctionalHelpers.h</text>
</a>
</g>
</g>
<!-- Node1&#45;&gt;Node7 -->
<g id="edge7" class="edge">
<title>Node1&#45;&gt;Node7</title>
<path fill="none" stroke="#191970" d="M1223.1872,-175.3367C1042.6912,-166.4857 461.3199,-137.9772 230.8758,-126.6769"/>
<polygon fill="#191970" stroke="#191970" points="230.993,-123.1786 220.8335,-126.1845 230.65,-130.1702 230.993,-123.1786"/>
</g>
<!-- Node9 -->
<g id="node10" class="node">
<title>Node9</title>
<g id="a_node10"><a xlink:href="../../d9/de8/CompilerBuiltins_8h.html" target="_top" xlink:title="Framework/CompilerBuiltins.h">
<polygon fill="none" stroke="#000000" points="364.5,-56.5 364.5,-75.5 528.5,-75.5 528.5,-56.5 364.5,-56.5"/>
<text text-anchor="middle" x="446.5" y="-63.5" font-family="Helvetica,sans-Serif" font-size="10.00" fill="#000000">Framework/CompilerBuiltins.h</text>
</a>
</g>
</g>
<!-- Node1&#45;&gt;Node9 -->
<g id="edge10" class="edge">
<title>Node1&#45;&gt;Node9</title>
<path fill="none" stroke="#191970" d="M1223.4522,-173.4457C1134.76,-165.6213 962.3045,-148.8374 903.5,-132 883.2371,-126.1982 880.7966,-117.683 860.5,-112 858.5685,-111.4592 660.2643,-89.5516 538.8448,-76.1685"/>
<polygon fill="#191970" stroke="#191970" points="539.1162,-72.6773 528.793,-75.0607 538.3494,-79.6352 539.1162,-72.6773"/>
</g>
<!-- Node10 -->
<g id="node11" class="node">
<title>Node10</title>
<g id="a_node11"><a xlink:href="../../db/d31/Traits_8h.html" target="_top" xlink:title="Framework/Traits.h">
<polygon fill="none" stroke="#000000" points="1344,-112.5 1344,-131.5 1453,-131.5 1453,-112.5 1344,-112.5"/>
<text text-anchor="middle" x="1398.5" y="-119.5" font-family="Helvetica,sans-Serif" font-size="10.00" fill="#000000">Framework/Traits.h</text>
</a>
</g>
</g>
<!-- Node1&#45;&gt;Node10 -->
<g id="edge11" class="edge">
<title>Node1&#45;&gt;Node10</title>
<path fill="none" stroke="#191970" d="M1298.3006,-168.3733C1317.7243,-159.3838 1346.9224,-145.8706 1368.7964,-135.7471"/>
<polygon fill="#191970" stroke="#191970" points="1370.3656,-138.8776 1377.9708,-131.5011 1367.4255,-132.5249 1370.3656,-138.8776"/>
</g>
<!-- Node12 -->
<g id="node13" class="node">
<title>Node12</title>
<g id="a_node13"><a xlink:href="../../d0/d91/Expressions_8h.html" target="_top" xlink:title="Framework/Expressions.h">
<polygon fill="none" stroke="#000000" points="1070,-112.5 1070,-131.5 1211,-131.5 1211,-112.5 1070,-112.5"/>
<text text-anchor="middle" x="1140.5" y="-119.5" font-family="Helvetica,sans-Serif" font-size="10.00" fill="#000000">Framework/Expressions.h</text>
</a>
</g>
</g>
<!-- Node1&#45;&gt;Node12 -->
<g id="edge13" class="edge">
<title>Node1&#45;&gt;Node12</title>
<path fill="none" stroke="#191970" d="M1253.9489,-168.3733C1231.6609,-159.2629 1198.0063,-145.5062 1173.1363,-135.3404"/>
<polygon fill="#191970" stroke="#191970" points="1174.3247,-132.0451 1163.7438,-131.5011 1171.6761,-138.5247 1174.3247,-132.0451"/>
</g>
<!-- Node18 -->
<g id="node19" class="node">
<title>Node18</title>
<polygon fill="none" stroke="#bfbfbf" points="1741,-56.5 1741,-75.5 1822,-75.5 1822,-56.5 1741,-56.5"/>
<text text-anchor="middle" x="1781.5" y="-63.5" font-family="Helvetica,sans-Serif" font-size="10.00" fill="#000000">arrow/table.h</text>
</g>
<!-- Node1&#45;&gt;Node18 -->
<g id="edge33" class="edge">
<title>Node1&#45;&gt;Node18</title>
<path fill="none" stroke="#191970" d="M1270.7432,-168.0934C1261.9156,-153.8145 1249.1745,-127.4697 1263.5,-112 1297.3439,-75.4527 1646.3113,-82.3793 1730.8038,-75.5976"/>
<polygon fill="#191970" stroke="#191970" points="1731.3274,-79.062 1740.9105,-74.5437 1730.6014,-72.0998 1731.3274,-79.062"/>
</g>
<!-- Node19 -->
<g id="node20" class="node">
<title>Node19</title>
<polygon fill="none" stroke="#bfbfbf" points="1840,-56.5 1840,-75.5 1987,-75.5 1987,-56.5 1840,-56.5"/>
<text text-anchor="middle" x="1913.5" y="-63.5" font-family="Helvetica,sans-Serif" font-size="10.00" fill="#000000">gandiva/selection_vector.h</text>
</g>
<!-- Node1&#45;&gt;Node19 -->
<g id="edge38" class="edge">
<title>Node1&#45;&gt;Node19</title>
<path fill="none" stroke="#191970" d="M1277.8732,-168.4751C1279.0175,-153.6822 1283.5728,-125.4871 1301.5,-112 1346.6475,-78.0345 1737.7576,-81.1878 1829.6561,-75.8249"/>
<polygon fill="#191970" stroke="#191970" points="1830.037,-79.3065 1839.7551,-75.0865 1829.5265,-72.3252 1830.037,-79.3065"/>
</g>
<!-- Node23 -->
<g id="node24" class="node">
<title>Node23</title>
<polygon fill="none" stroke="#bfbfbf" points="2005,-56.5 2005,-75.5 2084,-75.5 2084,-56.5 2005,-56.5"/>
<text text-anchor="middle" x="2044.5" y="-63.5" font-family="Helvetica,sans-Serif" font-size="10.00" fill="#000000">fmt/format.h</text>
</g>
<!-- Node1&#45;&gt;Node23 -->
<g id="edge40" class="edge">
<title>Node1&#45;&gt;Node23</title>
<path fill="none" stroke="#191970" d="M1282.5561,-168.1882C1290.9878,-153.0021 1309.494,-124.278 1334.5,-112 1463.711,-48.5571 1833.2511,-92.7651 1994.4257,-75.8297"/>
<polygon fill="#191970" stroke="#191970" points="1995.2101,-79.2619 2004.7359,-74.624 1994.397,-72.3093 1995.2101,-79.2619"/>
</g>
<!-- Node27 -->
<g id="node28" class="node">
<title>Node27</title>
<g id="a_node28"><a xlink:href="../../d4/de7/ArrowTypes_8h.html" target="_top" xlink:title="Framework/ArrowTypes.h">
<polygon fill="none" stroke="#000000" points="913,-112.5 913,-131.5 1052,-131.5 1052,-112.5 913,-112.5"/>
<text text-anchor="middle" x="982.5" y="-119.5" font-family="Helvetica,sans-Serif" font-size="10.00" fill="#000000">Framework/ArrowTypes.h</text>
</a>
</g>
</g>
<!-- Node1&#45;&gt;Node27 -->
<g id="edge31" class="edge">
<title>Node1&#45;&gt;Node27</title>
<path fill="none" stroke="#191970" d="M1227.1229,-168.4369C1175.9995,-158.7321 1096.8545,-143.708 1042.5147,-133.3926"/>
<polygon fill="#191970" stroke="#191970" points="1043.1467,-129.9502 1032.6693,-131.5237 1041.8411,-136.8273 1043.1467,-129.9502"/>
</g>
<!-- Node28 -->
<g id="node29" class="node">
<title>Node28</title>
<polygon fill="none" stroke="#bfbfbf" points="1471.5,-112.5 1471.5,-131.5 1551.5,-131.5 1551.5,-112.5 1471.5,-112.5"/>
<text text-anchor="middle" x="1511.5" y="-119.5" font-family="Helvetica,sans-Serif" font-size="10.00" fill="#000000">arrow/array.h</text>
</g>
<!-- Node1&#45;&gt;Node28 -->
<g id="edge34" class="edge">
<title>Node1&#45;&gt;Node28</title>
<path fill="none" stroke="#191970" d="M1317.4602,-168.4369C1357.3392,-158.8932 1418.7139,-144.2052 1461.7328,-133.9101"/>
<polygon fill="#191970" stroke="#191970" points="1462.7939,-137.2551 1471.7047,-131.5237 1461.1646,-130.4473 1462.7939,-137.2551"/>
</g>
<!-- Node29 -->
<g id="node30" class="node">
<title>Node29</title>
<polygon fill="none" stroke="#bfbfbf" points="1569.5,-112.5 1569.5,-131.5 1679.5,-131.5 1679.5,-112.5 1569.5,-112.5"/>
<text text-anchor="middle" x="1624.5" y="-119.5" font-family="Helvetica,sans-Serif" font-size="10.00" fill="#000000">arrow/util/variant.h</text>
</g>
<!-- Node1&#45;&gt;Node29 -->
<g id="edge35" class="edge">
<title>Node1&#45;&gt;Node29</title>
<path fill="none" stroke="#191970" d="M1331.7188,-169.25C1393.1456,-159.3367 1493.2353,-143.1839 1558.9831,-132.5733"/>
<polygon fill="#191970" stroke="#191970" points="1559.9145,-135.9684 1569.2291,-130.9198 1558.7992,-129.0578 1559.9145,-135.9684"/>
</g>
<!-- Node30 -->
<g id="node31" class="node">
<title>Node30</title>
<polygon fill="none" stroke="#bfbfbf" points="1698,-112.5 1698,-131.5 1837,-131.5 1837,-112.5 1698,-112.5"/>
<text text-anchor="middle" x="1767.5" y="-119.5" font-family="Helvetica,sans-Serif" font-size="10.00" fill="#000000">arrow/compute/context.h</text>
</g>
<!-- Node1&#45;&gt;Node30 -->
<g id="edge36" class="edge">
<title>Node1&#45;&gt;Node30</title>
<path fill="none" stroke="#191970" d="M1331.715,-172.1845C1408.4499,-163.8975 1553.4066,-148.0376 1687.662,-132.0861"/>
<polygon fill="#191970" stroke="#191970" points="1688.2039,-135.5464 1697.7199,-130.8885 1687.3761,-128.5955 1688.2039,-135.5464"/>
</g>
<!-- Node31 -->
<g id="node32" class="node">
<title>Node31</title>
<polygon fill="none" stroke="#bfbfbf" points="1855,-112.5 1855,-131.5 1988,-131.5 1988,-112.5 1855,-112.5"/>
<text text-anchor="middle" x="1921.5" y="-119.5" font-family="Helvetica,sans-Serif" font-size="10.00" fill="#000000">arrow/compute/kernel.h</text>
</g>
<!-- Node1&#45;&gt;Node31 -->
<g id="edge37" class="edge">
<title>Node1&#45;&gt;Node31</title>
<path fill="none" stroke="#191970" d="M1331.6224,-174.522C1430.9987,-167.9385 1649.4682,-152.5486 1844.6361,-132.0431"/>
<polygon fill="#191970" stroke="#191970" points="1845.2179,-135.5012 1854.7944,-130.9689 1844.4817,-128.54 1845.2179,-135.5012"/>
</g>
<!-- Node32 -->
<g id="node33" class="node">
<title>Node32</title>
<polygon fill="none" stroke="#bfbfbf" points="728.5,-112.5 728.5,-131.5 780.5,-131.5 780.5,-112.5 728.5,-112.5"/>
<text text-anchor="middle" x="754.5" y="-119.5" font-family="Helvetica,sans-Serif" font-size="10.00" fill="#000000">cassert</text>
</g>
<!-- Node1&#45;&gt;Node32 -->
<g id="edge39" class="edge">
<title>Node1&#45;&gt;Node32</title>
<path fill="none" stroke="#191970" d="M1223.1848,-175.4881C1133.4218,-170.7429 948.7094,-158.4656 794.5,-132 793.2301,-131.7821 791.941,-131.5453 790.6417,-131.2935"/>
<polygon fill="#191970" stroke="#191970" points="791.1443,-127.8214 780.6306,-129.1298 789.6655,-134.6634 791.1443,-127.8214"/>
</g>
<!-- Node3 -->
<g id="node4" class="node">
<title>Node3</title>
<polygon fill="none" stroke="#bfbfbf" points="177,-.5 177,-19.5 230,-19.5 230,-.5 177,-.5"/>
<text text-anchor="middle" x="203.5" y="-7.5" font-family="Helvetica,sans-Serif" font-size="10.00" fill="#000000">cstddef</text>
</g>
<!-- Node2&#45;&gt;Node3 -->
<g id="edge3" class="edge">
<title>Node2&#45;&gt;Node3</title>
<path fill="none" stroke="#191970" d="M147.3447,-56.2455C157.388,-47.9746 171.9995,-35.9416 183.8004,-26.2232"/>
<polygon fill="#191970" stroke="#191970" points="186.2967,-28.7015 191.791,-19.6427 181.8467,-23.298 186.2967,-28.7015"/>
</g>
<!-- Node4 -->
<g id="node5" class="node">
<title>Node4</title>
<polygon fill="none" stroke="#bfbfbf" points="49,-.5 49,-19.5 94,-19.5 94,-.5 49,-.5"/>
<text text-anchor="middle" x="71.5" y="-7.5" font-family="Helvetica,sans-Serif" font-size="10.00" fill="#000000">utility</text>
</g>
<!-- Node2&#45;&gt;Node4 -->
<g id="edge4" class="edge">
<title>Node2&#45;&gt;Node4</title>
<path fill="none" stroke="#191970" d="M124.3521,-56.2455C114.9913,-48.0549 101.4142,-36.1749 90.3651,-26.5069"/>
<polygon fill="#191970" stroke="#191970" points="92.3508,-23.5937 82.5202,-19.6427 87.7412,-28.8618 92.3508,-23.5937"/>
</g>
<!-- Node5 -->
<g id="node6" class="node">
<title>Node5</title>
<polygon fill="none" stroke="#bfbfbf" points="112.5,-.5 112.5,-19.5 158.5,-19.5 158.5,-.5 112.5,-.5"/>
<text text-anchor="middle" x="135.5" y="-7.5" font-family="Helvetica,sans-Serif" font-size="10.00" fill="#000000">cstdio</text>
</g>
<!-- Node2&#45;&gt;Node5 -->
<g id="edge5" class="edge">
<title>Node2&#45;&gt;Node5</title>
<path fill="none" stroke="#191970" d="M135.5,-56.2455C135.5,-48.9382 135.5,-38.6944 135.5,-29.7046"/>
<polygon fill="#191970" stroke="#191970" points="139.0001,-29.6426 135.5,-19.6427 132.0001,-29.6427 139.0001,-29.6426"/>
</g>
<!-- Node7&#45;&gt;Node2 -->
<g id="edge8" class="edge">
<title>Node7&#45;&gt;Node2</title>
<path fill="none" stroke="#191970" d="M135.5,-112.2455C135.5,-104.9382 135.5,-94.6944 135.5,-85.7046"/>
<polygon fill="#191970" stroke="#191970" points="139.0001,-85.6426 135.5,-75.6427 132.0001,-85.6427 139.0001,-85.6426"/>
</g>
<!-- Node8 -->
<g id="node9" class="node">
<title>Node8</title>
<polygon fill="none" stroke="#bfbfbf" points="0,-56.5 0,-75.5 65,-75.5 65,-56.5 0,-56.5"/>
<text text-anchor="middle" x="32.5" y="-63.5" font-family="Helvetica,sans-Serif" font-size="10.00" fill="#000000">functional</text>
</g>
<!-- Node7&#45;&gt;Node8 -->
<g id="edge9" class="edge">
<title>Node7&#45;&gt;Node8</title>
<path fill="none" stroke="#191970" d="M117.5588,-112.2455C101.46,-103.4928 77.6121,-90.527 59.2609,-80.5496"/>
<polygon fill="#191970" stroke="#191970" points="60.6929,-77.3444 50.2356,-75.6427 57.3493,-83.4942 60.6929,-77.3444"/>
</g>
<!-- Node11 -->
<g id="node12" class="node">
<title>Node11</title>
<polygon fill="none" stroke="#bfbfbf" points="2102,-56.5 2102,-75.5 2171,-75.5 2171,-56.5 2102,-56.5"/>
<text text-anchor="middle" x="2136.5" y="-63.5" font-family="Helvetica,sans-Serif" font-size="10.00" fill="#000000">type_traits</text>
</g>
<!-- Node10&#45;&gt;Node11 -->
<g id="edge12" class="edge">
<title>Node10&#45;&gt;Node11</title>
<path fill="none" stroke="#191970" d="M1453.2663,-113.0817C1456.3863,-112.6862 1459.4807,-112.3214 1462.5,-112 1738.1133,-82.6643 1813.0492,-114.4508 2091.5397,-75.9002"/>
<polygon fill="#191970" stroke="#191970" points="2092.1159,-79.3537 2101.533,-74.4989 2091.1438,-72.4215 2092.1159,-79.3537"/>
</g>
<!-- Node12&#45;&gt;Node2 -->
<g id="edge16" class="edge">
<title>Node12&#45;&gt;Node2</title>
<path fill="none" stroke="#191970" d="M1069.8628,-112.8489C1066.7008,-112.5407 1063.5687,-112.2554 1060.5,-112 681.2021,-80.437 581.1444,-114.0471 198.1747,-75.9376"/>
<polygon fill="#191970" stroke="#191970" points="198.5092,-72.4537 188.2094,-74.9362 197.8093,-79.4186 198.5092,-72.4537"/>
</g>
<!-- Node12&#45;&gt;Node6 -->
<g id="edge17" class="edge">
<title>Node12&#45;&gt;Node6</title>
<path fill="none" stroke="#191970" d="M1069.8597,-112.8848C1066.6986,-112.5668 1063.5675,-112.2697 1060.5,-112 751.3212,-84.8193 669.7592,-103.3123 356.9543,-76.0647"/>
<polygon fill="#191970" stroke="#191970" points="356.9502,-72.5509 346.6818,-75.1607 356.3365,-79.5239 356.9502,-72.5509"/>
</g>
<!-- Node12&#45;&gt;Node9 -->
<g id="edge15" class="edge">
<title>Node12&#45;&gt;Node9</title>
<path fill="none" stroke="#191970" d="M1069.8534,-112.9528C1066.694,-112.6165 1063.565,-112.2968 1060.5,-112 831.8743,-89.8596 771.2766,-96.532 538.9436,-76.0962"/>
<polygon fill="#191970" stroke="#191970" points="539.0951,-72.596 528.8249,-75.1986 538.4765,-79.5686 539.0951,-72.596"/>
</g>
<!-- Node13 -->
<g id="node14" class="node">
<title>Node13</title>
<g id="a_node14"><a xlink:href="../../dd/dc2/BasicOps_8h.html" target="_top" xlink:title="Framework/BasicOps.h">
<polygon fill="none" stroke="#000000" points="1594.5,-56.5 1594.5,-75.5 1722.5,-75.5 1722.5,-56.5 1594.5,-56.5"/>
<text text-anchor="middle" x="1658.5" y="-63.5" font-family="Helvetica,sans-Serif" font-size="10.00" fill="#000000">Framework/BasicOps.h</text>
</a>
</g>
</g>
<!-- Node12&#45;&gt;Node13 -->
<g id="edge14" class="edge">
<title>Node12&#45;&gt;Node13</title>
<path fill="none" stroke="#191970" d="M1211.4507,-113.5591C1216.2043,-113.0225 1220.9208,-112.4983 1225.5,-112 1382.0761,-94.9621 1424.1085,-94.9096 1584.2092,-76.1176"/>
<polygon fill="#191970" stroke="#191970" points="1584.9019,-79.5602 1594.4228,-74.9123 1584.0815,-72.6085 1584.9019,-79.5602"/>
</g>
<!-- Node14 -->
<g id="node15" class="node">
<title>Node14</title>
<polygon fill="none" stroke="#bfbfbf" points="547,-56.5 547,-75.5 648,-75.5 648,-56.5 547,-56.5"/>
<text text-anchor="middle" x="597.5" y="-63.5" font-family="Helvetica,sans-Serif" font-size="10.00" fill="#000000">arrow/type_fwd.h</text>
</g>
<!-- Node12&#45;&gt;Node14 -->
<g id="edge18" class="edge">
<title>Node12&#45;&gt;Node14</title>
<path fill="none" stroke="#191970" d="M1069.8454,-113.031C1066.6882,-112.6735 1063.5618,-112.328 1060.5,-112 884.9291,-93.1909 837.5725,-98.591 658.2335,-76.0037"/>
<polygon fill="#191970" stroke="#191970" points="658.5605,-72.5172 648.199,-74.7283 657.6778,-79.4614 658.5605,-72.5172"/>
</g>
<!-- Node15 -->
<g id="node16" class="node">
<title>Node15</title>
<polygon fill="none" stroke="#bfbfbf" points="666.5,-56.5 666.5,-75.5 812.5,-75.5 812.5,-56.5 666.5,-56.5"/>
<text text-anchor="middle" x="739.5" y="-63.5" font-family="Helvetica,sans-Serif" font-size="10.00" fill="#000000">gandiva/gandiva_aliases.h</text>
</g>
<!-- Node12&#45;&gt;Node15 -->
<g id="edge19" class="edge">
<title>Node12&#45;&gt;Node15</title>
<path fill="none" stroke="#191970" d="M1072.0213,-112.4369C1001.5189,-102.5912 891.8117,-87.2705 817.8827,-76.9462"/>
<polygon fill="#191970" stroke="#191970" points="818.0843,-73.4405 807.6963,-75.5237 817.1161,-80.3732 818.0843,-73.4405"/>
</g>
<!-- Node16 -->
<g id="node17" class="node">
<title>Node16</title>
<polygon fill="none" stroke="#bfbfbf" points="830.5,-56.5 830.5,-75.5 908.5,-75.5 908.5,-56.5 830.5,-56.5"/>
<text text-anchor="middle" x="869.5" y="-63.5" font-family="Helvetica,sans-Serif" font-size="10.00" fill="#000000">arrow/type.h</text>
</g>
<!-- Node12&#45;&gt;Node16 -->
<g id="edge20" class="edge">
<title>Node12&#45;&gt;Node16</title>
<path fill="none" stroke="#191970" d="M1093.9397,-112.4234C1050.9372,-103.5724 985.0048,-89.986 918.3658,-76.1768"/>
<polygon fill="#191970" stroke="#191970" points="919.0336,-72.7409 908.5314,-74.1382 917.6128,-79.5952 919.0336,-72.7409"/>
</g>
<!-- Node17 -->
<g id="node18" class="node">
<title>Node17</title>
<polygon fill="none" stroke="#bfbfbf" points="927,-56.5 927,-75.5 1022,-75.5 1022,-56.5 927,-56.5"/>
<text text-anchor="middle" x="974.5" y="-63.5" font-family="Helvetica,sans-Serif" font-size="10.00" fill="#000000">gandiva/arrow.h</text>
</g>
<!-- Node12&#45;&gt;Node17 -->
<g id="edge21" class="edge">
<title>Node12&#45;&gt;Node17</title>
<path fill="none" stroke="#191970" d="M1111.9636,-112.3733C1084.4798,-103.1016 1042.7314,-89.0178 1012.4548,-78.804"/>
<polygon fill="#191970" stroke="#191970" points="1013.2582,-75.3813 1002.664,-75.5011 1011.0206,-82.0141 1013.2582,-75.3813"/>
</g>
<!-- Node12&#45;&gt;Node18 -->
<g id="edge22" class="edge">
<title>Node12&#45;&gt;Node18</title>
<path fill="none" stroke="#191970" d="M1211.4353,-113.407C1216.1925,-112.9072 1220.9142,-112.4327 1225.5,-112 1446.6726,-91.1332 1506.332,-105.7264 1730.7922,-75.9223"/>
<polygon fill="#191970" stroke="#191970" points="1731.4679,-79.3631 1740.9132,-74.5634 1730.5363,-72.4254 1731.4679,-79.3631"/>
</g>
<!-- Node12&#45;&gt;Node19 -->
<g id="edge23" class="edge">
<title>Node12&#45;&gt;Node19</title>
<path fill="none" stroke="#191970" d="M1211.0556,-116.0479C1228.2129,-114.6601 1246.5119,-113.2298 1263.5,-112 1512.0281,-94.0089 1577.3401,-98.9745 1829.5475,-76.0383"/>
<polygon fill="#191970" stroke="#191970" points="1830.1174,-79.5008 1839.7567,-75.1039 1829.4793,-72.53 1830.1174,-79.5008"/>
</g>
<!-- Node20 -->
<g id="node21" class="node">
<title>Node20</title>
<polygon fill="none" stroke="#bfbfbf" points="1040.5,-56.5 1040.5,-75.5 1132.5,-75.5 1132.5,-56.5 1040.5,-56.5"/>
<text text-anchor="middle" x="1086.5" y="-63.5" font-family="Helvetica,sans-Serif" font-size="10.00" fill="#000000">gandiva/node.h</text>
</g>
<!-- Node12&#45;&gt;Node20 -->
<g id="edge24" class="edge">
<title>Node12&#45;&gt;Node20</title>
<path fill="none" stroke="#191970" d="M1131.0939,-112.2455C1123.3507,-104.2155 1112.188,-92.6394 1102.9682,-83.0781"/>
<polygon fill="#191970" stroke="#191970" points="1105.2591,-80.4117 1095.7983,-75.6427 1100.2202,-85.2706 1105.2591,-80.4117"/>
</g>
<!-- Node21 -->
<g id="node22" class="node">
<title>Node21</title>
<polygon fill="none" stroke="#bfbfbf" points="1151,-56.5 1151,-75.5 1240,-75.5 1240,-56.5 1151,-56.5"/>
<text text-anchor="middle" x="1195.5" y="-63.5" font-family="Helvetica,sans-Serif" font-size="10.00" fill="#000000">gandiva/filter.h</text>
</g>
<!-- Node12&#45;&gt;Node21 -->
<g id="edge25" class="edge">
<title>Node12&#45;&gt;Node21</title>
<path fill="none" stroke="#191970" d="M1150.0803,-112.2455C1158.0458,-104.1352 1169.5641,-92.4075 1179.0079,-82.7919"/>
<polygon fill="#191970" stroke="#191970" points="1181.5195,-85.2297 1186.0295,-75.6427 1176.5253,-80.3247 1181.5195,-85.2297"/>
</g>
<!-- Node22 -->
<g id="node23" class="node">
<title>Node22</title>
<polygon fill="none" stroke="#bfbfbf" points="1258.5,-56.5 1258.5,-75.5 1368.5,-75.5 1368.5,-56.5 1258.5,-56.5"/>
<text text-anchor="middle" x="1313.5" y="-63.5" font-family="Helvetica,sans-Serif" font-size="10.00" fill="#000000">gandiva/projector.h</text>
</g>
<!-- Node12&#45;&gt;Node22 -->
<g id="edge26" class="edge">
<title>Node12&#45;&gt;Node22</title>
<path fill="none" stroke="#191970" d="M1170.2398,-112.3733C1199.007,-103.0613 1242.77,-88.8953 1274.3556,-78.671"/>
<polygon fill="#191970" stroke="#191970" points="1275.7122,-81.9107 1284.1483,-75.5011 1273.5564,-75.251 1275.7122,-81.9107"/>
</g>
<!-- Node12&#45;&gt;Node23 -->
<g id="edge27" class="edge">
<title>Node12&#45;&gt;Node23</title>
<path fill="none" stroke="#191970" d="M1211.0239,-117.4633C1239.1655,-115.6939 1271.8625,-113.6891 1301.5,-112 1606.5463,-94.6151 1687.3824,-114.5512 1994.6467,-75.9123"/>
<polygon fill="#191970" stroke="#191970" points="1995.2568,-79.363 2004.737,-74.6327 1994.3761,-72.4186 1995.2568,-79.363"/>
</g>
<!-- Node24 -->
<g id="node25" class="node">
<title>Node24</title>
<polygon fill="none" stroke="#bfbfbf" points="1387,-56.5 1387,-75.5 1438,-75.5 1438,-56.5 1387,-56.5"/>
<text text-anchor="middle" x="1412.5" y="-63.5" font-family="Helvetica,sans-Serif" font-size="10.00" fill="#000000">variant</text>
</g>
<!-- Node12&#45;&gt;Node24 -->
<g id="edge28" class="edge">
<title>Node12&#45;&gt;Node24</title>
<path fill="none" stroke="#191970" d="M1196.8206,-112.4856C1242.7668,-104.402 1309.5359,-91.9258 1376.9973,-75.9567"/>
<polygon fill="#191970" stroke="#191970" points="1378.0418,-79.3057 1386.9532,-73.5754 1376.4134,-72.4977 1378.0418,-79.3057"/>
</g>
<!-- Node25 -->
<g id="node26" class="node">
<title>Node25</title>
<polygon fill="none" stroke="#bfbfbf" points="1456.5,-56.5 1456.5,-75.5 1500.5,-75.5 1500.5,-56.5 1456.5,-56.5"/>
<text text-anchor="middle" x="1478.5" y="-63.5" font-family="Helvetica,sans-Serif" font-size="10.00" fill="#000000">string</text>
</g>
<!-- Node12&#45;&gt;Node25 -->
<g id="edge29" class="edge">
<title>Node12&#45;&gt;Node25</title>
<path fill="none" stroke="#191970" d="M1211.2563,-112.6468C1287.2816,-102.3685 1403.0452,-85.9936 1446.5,-76 1446.5993,-75.9772 1446.6987,-75.9542 1446.7982,-75.931"/>
<polygon fill="#191970" stroke="#191970" points="1447.4663,-79.3747 1456.2403,-73.4361 1445.6779,-72.607 1447.4663,-79.3747"/>
</g>
<!-- Node26 -->
<g id="node27" class="node">
<title>Node26</title>
<polygon fill="none" stroke="#bfbfbf" points="1518.5,-56.5 1518.5,-75.5 1576.5,-75.5 1576.5,-56.5 1518.5,-56.5"/>
<text text-anchor="middle" x="1547.5" y="-63.5" font-family="Helvetica,sans-Serif" font-size="10.00" fill="#000000">memory</text>
</g>
<!-- Node12&#45;&gt;Node26 -->
<g id="edge30" class="edge">
<title>Node12&#45;&gt;Node26</title>
<path fill="none" stroke="#191970" d="M1211.1333,-113.4405C1304.906,-102.0447 1463.183,-82.6866 1508.2612,-75.7982"/>
<polygon fill="#191970" stroke="#191970" points="1508.8474,-79.2489 1518.1305,-74.1425 1507.6892,-72.3454 1508.8474,-79.2489"/>
</g>
<!-- Node27&#45;&gt;Node14 -->
<g id="edge32" class="edge">
<title>Node27&#45;&gt;Node14</title>
<path fill="none" stroke="#191970" d="M912.6895,-112.6235C849.0776,-103.9642 752.2558,-90.4968 658.1988,-76.0782"/>
<polygon fill="#191970" stroke="#191970" points="658.6409,-72.6051 648.225,-74.544 657.5766,-79.5238 658.6409,-72.6051"/>
</g>
<!-- Node33&#45;&gt;Node1 -->
<g id="edge42" class="edge">
<title>Node33&#45;&gt;Node1</title>
<path fill="none" stroke="#191970" d="M2023.4307,-228.0865C1854.8598,-216.7676 1490.1949,-192.2817 1342.0383,-182.3335"/>
<polygon fill="#191970" stroke="#191970" points="1341.9629,-178.8207 1331.7509,-181.6427 1341.4939,-185.8049 1341.9629,-178.8207"/>
</g>
<!-- Node33&#45;&gt;Node34 -->
<g id="edge43" class="edge">
<title>Node33&#45;&gt;Node34</title>
<path fill="none" stroke="#191970" d="M2134.5354,-224.3733C2156.2388,-215.3032 2188.9618,-201.6279 2213.255,-191.4755"/>
<polygon fill="#191970" stroke="#191970" points="2214.8881,-194.5865 2222.7652,-187.5011 2212.1889,-188.1278 2214.8881,-194.5865"/>
</g>
<!-- Node33&#45;&gt;Node36 -->
<g id="edge54" class="edge">
<title>Node33&#45;&gt;Node36</title>
<path fill="none" stroke="#191970" d="M2081.9315,-224.3976C2065.0892,-217.2338 2045.4206,-205.6009 2035.5,-188 2019.8925,-160.3096 2060.1206,-115.935 2065.5,-112 2099.0436,-87.4628 2219.5088,-73.9672 2278.9059,-68.6708"/>
<polygon fill="#191970" stroke="#191970" points="2279.2514,-72.154 2288.9123,-67.8048 2278.6478,-65.1801 2279.2514,-72.154"/>
</g>
<!-- Node43 -->
<g id="node44" class="node">
<title>Node43</title>
<g id="a_node44"><a xlink:href="../../d2/d12/DataTypes_8h.html" target="_top" xlink:title="Framework/DataTypes.h">
<polygon fill="none" stroke="#000000" points="2044.5,-168.5 2044.5,-187.5 2178.5,-187.5 2178.5,-168.5 2044.5,-168.5"/>
<text text-anchor="middle" x="2111.5" y="-175.5" font-family="Helvetica,sans-Serif" font-size="10.00" fill="#000000">Framework/DataTypes.h</text>
</a>
</g>
</g>
<!-- Node33&#45;&gt;Node43 -->
<g id="edge55" class="edge">
<title>Node33&#45;&gt;Node43</title>
<path fill="none" stroke="#191970" d="M2111.5,-224.2455C2111.5,-216.9382 2111.5,-206.6944 2111.5,-197.7046"/>
<polygon fill="#191970" stroke="#191970" points="2115.0001,-197.6426 2111.5,-187.6427 2108.0001,-197.6427 2115.0001,-197.6426"/>
</g>
<!-- Node35 -->
<g id="node36" class="node">
<title>Node35</title>
<polygon fill="none" stroke="#bfbfbf" points="2294.5,-112.5 2294.5,-131.5 2336.5,-131.5 2336.5,-112.5 2294.5,-112.5"/>
<text text-anchor="middle" x="2315.5" y="-119.5" font-family="Helvetica,sans-Serif" font-size="10.00" fill="#000000">array</text>
</g>
<!-- Node34&#45;&gt;Node35 -->
<g id="edge44" class="edge">
<title>Node34&#45;&gt;Node35</title>
<path fill="none" stroke="#191970" d="M2257.6931,-168.2455C2268.1321,-159.8943 2283.3655,-147.7076 2295.574,-137.9408"/>
<polygon fill="#191970" stroke="#191970" points="2297.8244,-140.6227 2303.4467,-131.6427 2293.4515,-135.1566 2297.8244,-140.6227"/>
</g>
<!-- Node34&#45;&gt;Node36 -->
<g id="edge45" class="edge">
<title>Node34&#45;&gt;Node36</title>
<path fill="none" stroke="#191970" d="M2198.2548,-168.4357C2150.0535,-158.2017 2081.2409,-142.0833 2073.5,-132 2068.0871,-124.9493 2067.8397,-118.8537 2073.5,-112 2099.1371,-80.9581 2219.0338,-70.6415 2278.657,-67.3956"/>
<polygon fill="#191970" stroke="#191970" points="2278.9019,-70.8877 2288.7113,-66.8844 2278.5464,-63.8968 2278.9019,-70.8877"/>
</g>
<!-- Node37 -->
<g id="node38" class="node">
<title>Node37</title>
<g id="a_node38"><a xlink:href="../../df/d21/GPUCommonDef_8h.html" target="_top" xlink:title="GPUCommonDef.h">
<polygon fill="none" stroke="#000000" points="2483,-56.5 2483,-75.5 2590,-75.5 2590,-56.5 2483,-56.5"/>
<text text-anchor="middle" x="2536.5" y="-63.5" font-family="Helvetica,sans-Serif" font-size="10.00" fill="#000000">GPUCommonDef.h</text>
</a>
</g>
</g>
<!-- Node34&#45;&gt;Node37 -->
<g id="edge46" class="edge">
<title>Node34&#45;&gt;Node37</title>
<path fill="none" stroke="#191970" d="M2294.6842,-175.8364C2363.9395,-171.7899 2485.3521,-160.7127 2517.5,-132 2530.3977,-120.4805 2534.7797,-100.8302 2536.1552,-85.9591"/>
<polygon fill="#191970" stroke="#191970" points="2539.6631,-85.908 2536.7123,-75.7324 2532.6735,-85.5272 2539.6631,-85.908"/>
</g>
<!-- Node40 -->
<g id="node41" class="node">
<title>Node40</title>
<g id="a_node41"><a xlink:href="../../d6/da2/GPUCommonMath_8h.html" target="_top" xlink:title="GPUCommonMath.h">
<polygon fill="none" stroke="#000000" points="2393,-112.5 2393,-131.5 2508,-131.5 2508,-112.5 2393,-112.5"/>
<text text-anchor="middle" x="2450.5" y="-119.5" font-family="Helvetica,sans-Serif" font-size="10.00" fill="#000000">GPUCommonMath.h</text>
</a>
</g>
</g>
<!-- Node34&#45;&gt;Node40 -->
<g id="edge49" class="edge">
<title>Node34&#45;&gt;Node40</title>
<path fill="none" stroke="#191970" d="M2280.7408,-168.3733C2315.4194,-158.9001 2368.4883,-144.4032 2406.0462,-134.1435"/>
<polygon fill="#191970" stroke="#191970" points="2406.9949,-137.5126 2415.7191,-131.5011 2405.1502,-130.7601 2406.9949,-137.5126"/>
</g>
<!-- Node42 -->
<g id="node43" class="node">
<title>Node42</title>
<g id="a_node43"><a xlink:href="../../d6/d84/MathConstants_8h.html" target="_top" xlink:title="useful math constants ">
<polygon fill="none" stroke="#000000" points="2082.5,-112.5 2082.5,-131.5 2276.5,-131.5 2276.5,-112.5 2082.5,-112.5"/>
<text text-anchor="middle" x="2179.5" y="-119.5" font-family="Helvetica,sans-Serif" font-size="10.00" fill="#000000">CommonConstants/MathConstants.h</text>
</a>
</g>
</g>
<!-- Node34&#45;&gt;Node42 -->
<g id="edge53" class="edge">
<title>Node34&#45;&gt;Node42</title>
<path fill="none" stroke="#191970" d="M2234.0037,-168.2455C2224.2558,-159.9746 2210.0741,-147.9416 2198.6202,-138.2232"/>
<polygon fill="#191970" stroke="#191970" points="2200.7541,-135.4437 2190.8646,-131.6427 2196.2253,-140.7813 2200.7541,-135.4437"/>
</g>
<!-- Node38 -->
<g id="node39" class="node">
<title>Node38</title>
<g id="a_node39"><a xlink:href="../../d5/d93/GPUCommonDefSettings_8h.html" target="_top" xlink:title="GPUCommonDefSettings.h">
<polygon fill="none" stroke="#000000" points="2385.5,-.5 2385.5,-19.5 2533.5,-19.5 2533.5,-.5 2385.5,-.5"/>
<text text-anchor="middle" x="2459.5" y="-7.5" font-family="Helvetica,sans-Serif" font-size="10.00" fill="#000000">GPUCommonDefSettings.h</text>
</a>
</g>
</g>
<!-- Node37&#45;&gt;Node38 -->
<g id="edge47" class="edge">
<title>Node37&#45;&gt;Node38</title>
<path fill="none" stroke="#191970" d="M2523.0876,-56.2455C2511.4943,-47.814 2494.5252,-35.4729 2481.0322,-25.6598"/>
<polygon fill="#191970" stroke="#191970" points="2482.9047,-22.6938 2472.7587,-19.6427 2478.7874,-28.355 2482.9047,-22.6938"/>
</g>
<!-- Node39 -->
<g id="node40" class="node">
<title>Node39</title>
<g id="a_node40"><a xlink:href="../../da/d5a/GPUCommonDefAPI_8h.html" target="_top" xlink:title="GPUCommonDefAPI.h">
<polygon fill="none" stroke="#000000" points="2551.5,-.5 2551.5,-19.5 2675.5,-19.5 2675.5,-.5 2551.5,-.5"/>
<text text-anchor="middle" x="2613.5" y="-7.5" font-family="Helvetica,sans-Serif" font-size="10.00" fill="#000000">GPUCommonDefAPI.h</text>
</a>
</g>
</g>
<!-- Node37&#45;&gt;Node39 -->
<g id="edge48" class="edge">
<title>Node37&#45;&gt;Node39</title>
<path fill="none" stroke="#191970" d="M2549.9124,-56.2455C2561.5057,-47.814 2578.4748,-35.4729 2591.9678,-25.6598"/>
<polygon fill="#191970" stroke="#191970" points="2594.2126,-28.355 2600.2413,-19.6427 2590.0953,-22.6938 2594.2126,-28.355"/>
</g>
<!-- Node40&#45;&gt;Node36 -->
<g id="edge51" class="edge">
<title>Node40&#45;&gt;Node36</title>
<path fill="none" stroke="#191970" d="M2426.777,-112.3733C2404.3263,-103.2629 2370.4261,-89.5062 2345.3745,-79.3404"/>
<polygon fill="#191970" stroke="#191970" points="2346.4957,-76.0182 2335.9135,-75.5011 2343.8635,-82.5045 2346.4957,-76.0182"/>
</g>
<!-- Node40&#45;&gt;Node37 -->
<g id="edge50" class="edge">
<title>Node40&#45;&gt;Node37</title>
<path fill="none" stroke="#191970" d="M2465.4801,-112.2455C2478.6751,-103.6534 2498.1051,-91.0014 2513.3079,-81.1018"/>
<polygon fill="#191970" stroke="#191970" points="2515.2215,-84.0325 2521.6916,-75.6427 2511.4017,-78.1665 2515.2215,-84.0325"/>
</g>
<!-- Node41 -->
<g id="node42" class="node">
<title>Node41</title>
<polygon fill="none" stroke="#bfbfbf" points="2400.5,-56.5 2400.5,-75.5 2464.5,-75.5 2464.5,-56.5 2400.5,-56.5"/>
<text text-anchor="middle" x="2432.5" y="-63.5" font-family="Helvetica,sans-Serif" font-size="10.00" fill="#000000">algorithm</text>
</g>
<!-- Node40&#45;&gt;Node41 -->
<g id="edge52" class="edge">
<title>Node40&#45;&gt;Node41</title>
<path fill="none" stroke="#191970" d="M2447.3646,-112.2455C2444.99,-104.8579 2441.6507,-94.4689 2438.7385,-85.4087"/>
<polygon fill="#191970" stroke="#191970" points="2441.9917,-84.0919 2435.5994,-75.6427 2435.3275,-86.234 2441.9917,-84.0919"/>
</g>
<!-- Node44&#45;&gt;Node33 -->
<g id="edge57" class="edge">
<title>Node44&#45;&gt;Node33</title>
<path fill="none" stroke="#191970" d="M2111.5,-280.2455C2111.5,-272.9382 2111.5,-262.6944 2111.5,-253.7046"/>
<polygon fill="#191970" stroke="#191970" points="2115.0001,-253.6426 2111.5,-243.6427 2108.0001,-253.6427 2115.0001,-253.6426"/>
</g>
</g>
</svg>
        <g id="navigator" transform="translate(0 0)" fill="#404254">
                <rect fill="#f2f5e9" fill-opacity="0.5" stroke="#606060" stroke-width=".5" x="0" y="0" width="60" height="60"/>
                <use id="zoomplus" xlink:href="#zoomPlus" x="17" y="9" onmousedown="handleZoom(evt,'in')"/>
                <use id="zoomminus" xlink:href="#zoomMin" x="42" y="9" onmousedown="handleZoom(evt,'out')"/>
                <use id="reset" xlink:href="#resetDef" x="30" y="36" onmousedown="handleReset()"/>
                <g id="arrowUp" xlink:href="#dirArrow" transform="translate(30 24)" onmousedown="handlePan(0,-1)">
                  <use xlink:href="#rim" fill="#404040">
                        <set attributeName="fill" to="#808080" begin="arrowUp.mouseover" end="arrowUp.mouseout"/>
                  </use>
                  <path fill="none" stroke="white" stroke-width="1.5" d="M0,-3.0v7 M-2.5,-0.5L0,-3.0L2.5,-0.5"/>
                </g>
                <g id="arrowRight" xlink:href="#dirArrow" transform="rotate(90) translate(36 -43)" onmousedown="handlePan(1,0)">
                  <use xlink:href="#rim" fill="#404040">
                        <set attributeName="fill" to="#808080" begin="arrowRight.mouseover" end="arrowRight.mouseout"/>
                  </use>
                  <path fill="none" stroke="white" stroke-width="1.5" d="M0,-3.0v7 M-2.5,-0.5L0,-3.0L2.5,-0.5"/>
                </g>
                <g id="arrowDown" xlink:href="#dirArrow" transform="rotate(180) translate(-30 -48)" onmousedown="handlePan(0,1)">
                  <use xlink:href="#rim" fill="#404040">
                        <set attributeName="fill" to="#808080" begin="arrowDown.mouseover" end="arrowDown.mouseout"/>
                  </use>
                  <path fill="none" stroke="white" stroke-width="1.5" d="M0,-3.0v7 M-2.5,-0.5L0,-3.0L2.5,-0.5"/>
                </g>
                <g id="arrowLeft" xlink:href="#dirArrow" transform="rotate(270) translate(-36 17)" onmousedown="handlePan(-1,0)">
                  <use xlink:href="#rim" fill="#404040">
                        <set attributeName="fill" to="#808080" begin="arrowLeft.mouseover" end="arrowLeft.mouseout"/>
                  </use>
                  <path fill="none" stroke="white" stroke-width="1.5" d="M0,-3.0v7 M-2.5,-0.5L0,-3.0L2.5,-0.5"/>
                </g>
        </g>
        <svg viewBox="0 0 15 15" width="100%" height="30px" preserveAspectRatio="xMaxYMin meet">
         <g id="arrow_out" transform="scale(0.3 0.3)">
          <a xlink:href="ReducedInfoTables_8h__incl_org.svg" target="_base">
           <rect id="button" ry="5" rx="5" y="6" x="6" height="38" width="38"
                fill="#f2f5e9" fill-opacity="0.5" stroke="#606060" stroke-width="1.0"/>
           <path id="arrow"
             d="M 11.500037,31.436501 C 11.940474,20.09759 22.043105,11.32322 32.158766,21.979434 L 37.068811,17.246167 C 37.068811,17.246167 37.088388,32 37.088388,32 L 22.160133,31.978069 C 22.160133,31.978069 26.997745,27.140456 26.997745,27.140456 C 18.528582,18.264221 13.291696,25.230495 11.500037,31.436501 z"
             style="fill:#404040;"/>
          </a>
         </g>
        </svg>
</svg>
