<?xml version="1.0" encoding="UTF-8" standalone="no"?>
<!DOCTYPE svg PUBLIC "-//W3C//DTD SVG 1.1//EN"
 "http://www.w3.org/Graphics/SVG/1.1/DTD/svg11.dtd">
<!-- Generated by graphviz version 2.40.1 (20161225.0304)
 -->
<!-- Title: o2::ft0::CTF Pages: 1 -->
<svg width="898pt" height="1410pt"
 viewBox="0.00 0.00 898.00 1410.00" xmlns="http://www.w3.org/2000/svg" xmlns:xlink="http://www.w3.org/1999/xlink">
<g id="graph0" class="graph" transform="scale(1 1) rotate(0) translate(4 1406)">
<title>o2::ft0::CTF</title>
<!-- Node3 -->
<g id="node1" class="node">
<title>Node3</title>
<polygon fill="#bfbfbf" stroke="#000000" points="383.5,-.5 383.5,-57.5 476.5,-57.5 476.5,-.5 383.5,-.5"/>
<text text-anchor="middle" x="430" y="-45.5" font-family="Helvetica,sans-Serif" font-size="10.00" fill="#000000">o2::ft0::CTF</text>
<polyline fill="none" stroke="#000000" points="383.5,-38.5 476.5,-38.5 "/>
<text text-anchor="middle" x="430" y="-26.5" font-family="Helvetica,sans-Serif" font-size="10.00" fill="#000000"> </text>
<polyline fill="none" stroke="#000000" points="383.5,-19.5 476.5,-19.5 "/>
<text text-anchor="start" x="391.5" y="-7.5" font-family="Helvetica,sans-Serif" font-size="10.00" fill="#000000">+ ClassDefNV()</text>
</g>
<!-- Node4 -->
<g id="node2" class="node">
<title>Node4</title>
<g id="a_node2"><a xlink:href="../../dc/d08/classo2_1_1ctf_1_1EncodedBlocks.html" target="_top" xlink:title="{o2::ctf::EncodedBlocks\l\&lt; CTFHeader, 8, uint32_t \&gt;\n||+ setHeader()\l+ getHeader()\l+ getHeader()\l+ getMetadata()\l+ setANSHeader()\l+ getANSHeader()\l+ getANSHeader()\l+ empty()\l+ flat()\l+ clear()\l+ compactify()\l+ size()\l+ getFreeSize()\l+ copyToFlat()\l+ copyToFlat()\l+ appendToTree()\l+ readFromTree()\l+ encode()\l+ encode()\l+ decode()\l+ decode()\l+ print()\l+ getNBlocks()\l+ getMinAlignedSize()\l+ get()\l+ get()\l+ getImage()\l+ create()\l+ create()\l+ estimateBlockSize()\l+ expand()\l+ readFromTree()\l# init()\l# estimateSize()\l# estimateSizeFromMetadata()\l# fillFlatCopy()\l# ClassDefNV()\l# relocate()\l# fillTreeBranch()\l# readTreeBranch()\l}">
<polygon fill="none" stroke="#000000" points="283.5,-105.5 283.5,-602.5 452.5,-602.5 452.5,-105.5 283.5,-105.5"/>
<text text-anchor="start" x="291.5" y="-590.5" font-family="Helvetica,sans-Serif" font-size="10.00" fill="#000000">o2::ctf::EncodedBlocks</text>
<text text-anchor="middle" x="368" y="-579.5" font-family="Helvetica,sans-Serif" font-size="10.00" fill="#000000">&lt; CTFHeader, 8, uint32_t &gt;</text>
<polyline fill="none" stroke="#000000" points="283.5,-572.5 452.5,-572.5 "/>
<text text-anchor="middle" x="368" y="-560.5" font-family="Helvetica,sans-Serif" font-size="10.00" fill="#000000"> </text>
<polyline fill="none" stroke="#000000" points="283.5,-553.5 452.5,-553.5 "/>
<text text-anchor="start" x="291.5" y="-541.5" font-family="Helvetica,sans-Serif" font-size="10.00" fill="#000000">+ setHeader()</text>
<text text-anchor="start" x="291.5" y="-530.5" font-family="Helvetica,sans-Serif" font-size="10.00" fill="#000000">+ getHeader()</text>
<text text-anchor="start" x="291.5" y="-519.5" font-family="Helvetica,sans-Serif" font-size="10.00" fill="#000000">+ getHeader()</text>
<text text-anchor="start" x="291.5" y="-508.5" font-family="Helvetica,sans-Serif" font-size="10.00" fill="#000000">+ getMetadata()</text>
<text text-anchor="start" x="291.5" y="-497.5" font-family="Helvetica,sans-Serif" font-size="10.00" fill="#000000">+ setANSHeader()</text>
<text text-anchor="start" x="291.5" y="-486.5" font-family="Helvetica,sans-Serif" font-size="10.00" fill="#000000">+ getANSHeader()</text>
<text text-anchor="start" x="291.5" y="-475.5" font-family="Helvetica,sans-Serif" font-size="10.00" fill="#000000">+ getANSHeader()</text>
<text text-anchor="start" x="291.5" y="-464.5" font-family="Helvetica,sans-Serif" font-size="10.00" fill="#000000">+ empty()</text>
<text text-anchor="start" x="291.5" y="-453.5" font-family="Helvetica,sans-Serif" font-size="10.00" fill="#000000">+ flat()</text>
<text text-anchor="start" x="291.5" y="-442.5" font-family="Helvetica,sans-Serif" font-size="10.00" fill="#000000">+ clear()</text>
<text text-anchor="start" x="291.5" y="-431.5" font-family="Helvetica,sans-Serif" font-size="10.00" fill="#000000">+ compactify()</text>
<text text-anchor="start" x="291.5" y="-420.5" font-family="Helvetica,sans-Serif" font-size="10.00" fill="#000000">+ size()</text>
<text text-anchor="start" x="291.5" y="-409.5" font-family="Helvetica,sans-Serif" font-size="10.00" fill="#000000">+ getFreeSize()</text>
<text text-anchor="start" x="291.5" y="-398.5" font-family="Helvetica,sans-Serif" font-size="10.00" fill="#000000">+ copyToFlat()</text>
<text text-anchor="start" x="291.5" y="-387.5" font-family="Helvetica,sans-Serif" font-size="10.00" fill="#000000">+ copyToFlat()</text>
<text text-anchor="start" x="291.5" y="-376.5" font-family="Helvetica,sans-Serif" font-size="10.00" fill="#000000">+ appendToTree()</text>
<text text-anchor="start" x="291.5" y="-365.5" font-family="Helvetica,sans-Serif" font-size="10.00" fill="#000000">+ readFromTree()</text>
<text text-anchor="start" x="291.5" y="-354.5" font-family="Helvetica,sans-Serif" font-size="10.00" fill="#000000">+ encode()</text>
<text text-anchor="start" x="291.5" y="-343.5" font-family="Helvetica,sans-Serif" font-size="10.00" fill="#000000">+ encode()</text>
<text text-anchor="start" x="291.5" y="-332.5" font-family="Helvetica,sans-Serif" font-size="10.00" fill="#000000">+ decode()</text>
<text text-anchor="start" x="291.5" y="-321.5" font-family="Helvetica,sans-Serif" font-size="10.00" fill="#000000">+ decode()</text>
<text text-anchor="start" x="291.5" y="-310.5" font-family="Helvetica,sans-Serif" font-size="10.00" fill="#000000">+ print()</text>
<text text-anchor="start" x="291.5" y="-299.5" font-family="Helvetica,sans-Serif" font-size="10.00" fill="#000000">+ getNBlocks()</text>
<text text-anchor="start" x="291.5" y="-288.5" font-family="Helvetica,sans-Serif" font-size="10.00" fill="#000000">+ getMinAlignedSize()</text>
<text text-anchor="start" x="291.5" y="-277.5" font-family="Helvetica,sans-Serif" font-size="10.00" fill="#000000">+ get()</text>
<text text-anchor="start" x="291.5" y="-266.5" font-family="Helvetica,sans-Serif" font-size="10.00" fill="#000000">+ get()</text>
<text text-anchor="start" x="291.5" y="-255.5" font-family="Helvetica,sans-Serif" font-size="10.00" fill="#000000">+ getImage()</text>
<text text-anchor="start" x="291.5" y="-244.5" font-family="Helvetica,sans-Serif" font-size="10.00" fill="#000000">+ create()</text>
<text text-anchor="start" x="291.5" y="-233.5" font-family="Helvetica,sans-Serif" font-size="10.00" fill="#000000">+ create()</text>
<text text-anchor="start" x="291.5" y="-222.5" font-family="Helvetica,sans-Serif" font-size="10.00" fill="#000000">+ estimateBlockSize()</text>
<text text-anchor="start" x="291.5" y="-211.5" font-family="Helvetica,sans-Serif" font-size="10.00" fill="#000000">+ expand()</text>
<text text-anchor="start" x="291.5" y="-200.5" font-family="Helvetica,sans-Serif" font-size="10.00" fill="#000000">+ readFromTree()</text>
<text text-anchor="start" x="291.5" y="-189.5" font-family="Helvetica,sans-Serif" font-size="10.00" fill="#000000"># init()</text>
<text text-anchor="start" x="291.5" y="-178.5" font-family="Helvetica,sans-Serif" font-size="10.00" fill="#000000"># estimateSize()</text>
<text text-anchor="start" x="291.5" y="-167.5" font-family="Helvetica,sans-Serif" font-size="10.00" fill="#000000"># estimateSizeFromMetadata()</text>
<text text-anchor="start" x="291.5" y="-156.5" font-family="Helvetica,sans-Serif" font-size="10.00" fill="#000000"># fillFlatCopy()</text>
<text text-anchor="start" x="291.5" y="-145.5" font-family="Helvetica,sans-Serif" font-size="10.00" fill="#000000"># ClassDefNV()</text>
<text text-anchor="start" x="291.5" y="-134.5" font-family="Helvetica,sans-Serif" font-size="10.00" fill="#000000"># relocate()</text>
<text text-anchor="start" x="291.5" y="-123.5" font-family="Helvetica,sans-Serif" font-size="10.00" fill="#000000"># fillTreeBranch()</text>
<text text-anchor="start" x="291.5" y="-112.5" font-family="Helvetica,sans-Serif" font-size="10.00" fill="#000000"># readTreeBranch()</text>
</a>
</g>
</g>
<!-- Node4&#45;&gt;Node3 -->
<g id="edge1" class="edge">
<title>Node4&#45;&gt;Node3</title>
<path fill="none" stroke="#191970" d="M417.3962,-95.0683C420.1216,-80.7818 422.5498,-68.0534 424.5298,-57.6745"/>
<polygon fill="none" stroke="#191970" points="413.8997,-94.7193 415.4638,-105.1981 420.7757,-96.0311 413.8997,-94.7193"/>
</g>
<!-- Node5 -->
<g id="node3" class="node">
<title>Node5</title>
<g id="a_node3"><a xlink:href="../../da/d30/classstd_1_1array_3_01o2_1_1ctf_1_1Block_3_01uint32__t_01_4_00_01N_01_4.html" target="_top" xlink:title="{array\&lt; o2::ctf::Block\l\&lt; uint32_t \&gt;, N \&gt;\n||}">
<polygon fill="none" stroke="#000000" points="7.5,-865 7.5,-933 124.5,-933 124.5,-865 7.5,-865"/>
<text text-anchor="start" x="15.5" y="-921" font-family="Helvetica,sans-Serif" font-size="10.00" fill="#000000">array&lt; o2::ctf::Block</text>
<text text-anchor="middle" x="66" y="-910" font-family="Helvetica,sans-Serif" font-size="10.00" fill="#000000">&lt; uint32_t &gt;, N &gt;</text>
<polyline fill="none" stroke="#000000" points="7.5,-903 124.5,-903 "/>
<text text-anchor="middle" x="66" y="-891" font-family="Helvetica,sans-Serif" font-size="10.00" fill="#000000"> </text>
<polyline fill="none" stroke="#000000" points="7.5,-884 124.5,-884 "/>
<text text-anchor="middle" x="66" y="-872" font-family="Helvetica,sans-Serif" font-size="10.00" fill="#000000"> </text>
</a>
</g>
</g>
<!-- Node5&#45;&gt;Node4 -->
<g id="edge2" class="edge">
<title>Node5&#45;&gt;Node4</title>
<path fill="none" stroke="#404040" d="M70.6827,-864.8059C78.4412,-815.3033 96.8274,-721.7543 133,-650 169.9326,-576.7382 226.8503,-504.4275 275.4194,-449.6166"/>
<polygon fill="none" stroke="#404040" points="275.4542,-449.5777 276.4682,-442.4382 283.4484,-440.6282 282.4345,-447.7677 275.4542,-449.5777"/>
<text text-anchor="middle" x="175" y="-624" font-family="Helvetica,sans-Serif" font-size="10.00" fill="#000000"> #mBlocks</text>
</g>
<!-- Node6 -->
<g id="node4" class="node">
<title>Node6</title>
<polygon fill="none" stroke="#bfbfbf" points="238.5,-1212 238.5,-1269 399.5,-1269 399.5,-1212 238.5,-1212"/>
<text text-anchor="middle" x="319" y="-1257" font-family="Helvetica,sans-Serif" font-size="10.00" fill="#000000">array&lt; o2::ctf::Metadata, N &gt;</text>
<polyline fill="none" stroke="#bfbfbf" points="238.5,-1250 399.5,-1250 "/>
<text text-anchor="middle" x="319" y="-1238" font-family="Helvetica,sans-Serif" font-size="10.00" fill="#000000"> </text>
<polyline fill="none" stroke="#bfbfbf" points="238.5,-1231 399.5,-1231 "/>
<text text-anchor="middle" x="319" y="-1219" font-family="Helvetica,sans-Serif" font-size="10.00" fill="#000000"> </text>
</g>
<!-- Node6&#45;&gt;Node4 -->
<g id="edge3" class="edge">
<title>Node6&#45;&gt;Node4</title>
<path fill="none" stroke="#404040" d="M319.1236,-1211.8888C319.6536,-1126.4391 322.4397,-865.6647 337,-650 337.7831,-638.4007 338.668,-626.5538 339.6308,-614.5924"/>
<polygon fill="none" stroke="#404040" points="339.6336,-614.5573 336.1396,-608.2492 340.6187,-602.5978 344.1127,-608.9059 339.6336,-614.5573"/>
<text text-anchor="middle" x="370.5" y="-896.5" font-family="Helvetica,sans-Serif" font-size="10.00" fill="#000000"> #mMetadata</text>
</g>
<!-- Node17 -->
<g id="node15" class="node">
<title>Node17</title>
<g id="a_node15"><a xlink:href="../../dc/d08/classo2_1_1ctf_1_1EncodedBlocks.html" target="_top" xlink:title="&lt;&lt;======================== Auxiliary classes =======================&lt;&lt; ">
<polygon fill="none" stroke="#000000" points="521.5,-650.5 521.5,-1147.5 690.5,-1147.5 690.5,-650.5 521.5,-650.5"/>
<text text-anchor="start" x="529.5" y="-1135.5" font-family="Helvetica,sans-Serif" font-size="10.00" fill="#000000">o2::ctf::EncodedBlocks</text>
<text text-anchor="middle" x="606" y="-1124.5" font-family="Helvetica,sans-Serif" font-size="10.00" fill="#000000">&lt; H, N, W &gt;</text>
<polyline fill="none" stroke="#000000" points="521.5,-1117.5 690.5,-1117.5 "/>
<text text-anchor="middle" x="606" y="-1105.5" font-family="Helvetica,sans-Serif" font-size="10.00" fill="#000000"> </text>
<polyline fill="none" stroke="#000000" points="521.5,-1098.5 690.5,-1098.5 "/>
<text text-anchor="start" x="529.5" y="-1086.5" font-family="Helvetica,sans-Serif" font-size="10.00" fill="#000000">+ setHeader()</text>
<text text-anchor="start" x="529.5" y="-1075.5" font-family="Helvetica,sans-Serif" font-size="10.00" fill="#000000">+ getHeader()</text>
<text text-anchor="start" x="529.5" y="-1064.5" font-family="Helvetica,sans-Serif" font-size="10.00" fill="#000000">+ getHeader()</text>
<text text-anchor="start" x="529.5" y="-1053.5" font-family="Helvetica,sans-Serif" font-size="10.00" fill="#000000">+ getMetadata()</text>
<text text-anchor="start" x="529.5" y="-1042.5" font-family="Helvetica,sans-Serif" font-size="10.00" fill="#000000">+ setANSHeader()</text>
<text text-anchor="start" x="529.5" y="-1031.5" font-family="Helvetica,sans-Serif" font-size="10.00" fill="#000000">+ getANSHeader()</text>
<text text-anchor="start" x="529.5" y="-1020.5" font-family="Helvetica,sans-Serif" font-size="10.00" fill="#000000">+ getANSHeader()</text>
<text text-anchor="start" x="529.5" y="-1009.5" font-family="Helvetica,sans-Serif" font-size="10.00" fill="#000000">+ empty()</text>
<text text-anchor="start" x="529.5" y="-998.5" font-family="Helvetica,sans-Serif" font-size="10.00" fill="#000000">+ flat()</text>
<text text-anchor="start" x="529.5" y="-987.5" font-family="Helvetica,sans-Serif" font-size="10.00" fill="#000000">+ clear()</text>
<text text-anchor="start" x="529.5" y="-976.5" font-family="Helvetica,sans-Serif" font-size="10.00" fill="#000000">+ compactify()</text>
<text text-anchor="start" x="529.5" y="-965.5" font-family="Helvetica,sans-Serif" font-size="10.00" fill="#000000">+ size()</text>
<text text-anchor="start" x="529.5" y="-954.5" font-family="Helvetica,sans-Serif" font-size="10.00" fill="#000000">+ getFreeSize()</text>
<text text-anchor="start" x="529.5" y="-943.5" font-family="Helvetica,sans-Serif" font-size="10.00" fill="#000000">+ copyToFlat()</text>
<text text-anchor="start" x="529.5" y="-932.5" font-family="Helvetica,sans-Serif" font-size="10.00" fill="#000000">+ copyToFlat()</text>
<text text-anchor="start" x="529.5" y="-921.5" font-family="Helvetica,sans-Serif" font-size="10.00" fill="#000000">+ appendToTree()</text>
<text text-anchor="start" x="529.5" y="-910.5" font-family="Helvetica,sans-Serif" font-size="10.00" fill="#000000">+ readFromTree()</text>
<text text-anchor="start" x="529.5" y="-899.5" font-family="Helvetica,sans-Serif" font-size="10.00" fill="#000000">+ encode()</text>
<text text-anchor="start" x="529.5" y="-888.5" font-family="Helvetica,sans-Serif" font-size="10.00" fill="#000000">+ encode()</text>
<text text-anchor="start" x="529.5" y="-877.5" font-family="Helvetica,sans-Serif" font-size="10.00" fill="#000000">+ decode()</text>
<text text-anchor="start" x="529.5" y="-866.5" font-family="Helvetica,sans-Serif" font-size="10.00" fill="#000000">+ decode()</text>
<text text-anchor="start" x="529.5" y="-855.5" font-family="Helvetica,sans-Serif" font-size="10.00" fill="#000000">+ print()</text>
<text text-anchor="start" x="529.5" y="-844.5" font-family="Helvetica,sans-Serif" font-size="10.00" fill="#000000">+ getNBlocks()</text>
<text text-anchor="start" x="529.5" y="-833.5" font-family="Helvetica,sans-Serif" font-size="10.00" fill="#000000">+ getMinAlignedSize()</text>
<text text-anchor="start" x="529.5" y="-822.5" font-family="Helvetica,sans-Serif" font-size="10.00" fill="#000000">+ get()</text>
<text text-anchor="start" x="529.5" y="-811.5" font-family="Helvetica,sans-Serif" font-size="10.00" fill="#000000">+ get()</text>
<text text-anchor="start" x="529.5" y="-800.5" font-family="Helvetica,sans-Serif" font-size="10.00" fill="#000000">+ getImage()</text>
<text text-anchor="start" x="529.5" y="-789.5" font-family="Helvetica,sans-Serif" font-size="10.00" fill="#000000">+ create()</text>
<text text-anchor="start" x="529.5" y="-778.5" font-family="Helvetica,sans-Serif" font-size="10.00" fill="#000000">+ create()</text>
<text text-anchor="start" x="529.5" y="-767.5" font-family="Helvetica,sans-Serif" font-size="10.00" fill="#000000">+ estimateBlockSize()</text>
<text text-anchor="start" x="529.5" y="-756.5" font-family="Helvetica,sans-Serif" font-size="10.00" fill="#000000">+ expand()</text>
<text text-anchor="start" x="529.5" y="-745.5" font-family="Helvetica,sans-Serif" font-size="10.00" fill="#000000">+ readFromTree()</text>
<text text-anchor="start" x="529.5" y="-734.5" font-family="Helvetica,sans-Serif" font-size="10.00" fill="#000000"># init()</text>
<text text-anchor="start" x="529.5" y="-723.5" font-family="Helvetica,sans-Serif" font-size="10.00" fill="#000000"># estimateSize()</text>
<text text-anchor="start" x="529.5" y="-712.5" font-family="Helvetica,sans-Serif" font-size="10.00" fill="#000000"># estimateSizeFromMetadata()</text>
<text text-anchor="start" x="529.5" y="-701.5" font-family="Helvetica,sans-Serif" font-size="10.00" fill="#000000"># fillFlatCopy()</text>
<text text-anchor="start" x="529.5" y="-690.5" font-family="Helvetica,sans-Serif" font-size="10.00" fill="#000000"># ClassDefNV()</text>
<text text-anchor="start" x="529.5" y="-679.5" font-family="Helvetica,sans-Serif" font-size="10.00" fill="#000000"># relocate()</text>
<text text-anchor="start" x="529.5" y="-668.5" font-family="Helvetica,sans-Serif" font-size="10.00" fill="#000000"># fillTreeBranch()</text>
<text text-anchor="start" x="529.5" y="-657.5" font-family="Helvetica,sans-Serif" font-size="10.00" fill="#000000"># readTreeBranch()</text>
</a>
</g>
</g>
<!-- Node6&#45;&gt;Node17 -->
<g id="edge15" class="edge">
<title>Node6&#45;&gt;Node17</title>
<path fill="none" stroke="#404040" d="M352.6007,-1211.9804C372.7176,-1196.2655 399.4676,-1177.6405 426,-1166 459.771,-1151.1837 478.9256,-1171.9129 507,-1148 508.8925,-1146.388 510.7491,-1144.7349 512.5705,-1143.0429"/>
<polygon fill="none" stroke="#404040" points="512.8803,-1142.7348 514.3127,-1135.6673 521.3874,-1134.2713 519.955,-1141.3388 512.8803,-1142.7348"/>
<text text-anchor="middle" x="459.5" y="-1169" font-family="Helvetica,sans-Serif" font-size="10.00" fill="#000000"> #mMetadata</text>
</g>
<!-- Node7 -->
<g id="node5" class="node">
<title>Node7</title>
<g id="a_node5"><a xlink:href="../../d5/d54/structo2_1_1ctf_1_1CTFHeader.html" target="_top" xlink:title="{o2::ctf::CTFHeader\n||+ describe()\l+ print()\l}">
<polygon fill="none" stroke="#000000" points="142.5,-865 142.5,-933 249.5,-933 249.5,-865 142.5,-865"/>
<text text-anchor="middle" x="196" y="-921" font-family="Helvetica,sans-Serif" font-size="10.00" fill="#000000">o2::ctf::CTFHeader</text>
<polyline fill="none" stroke="#000000" points="142.5,-914 249.5,-914 "/>
<text text-anchor="middle" x="196" y="-902" font-family="Helvetica,sans-Serif" font-size="10.00" fill="#000000"> </text>
<polyline fill="none" stroke="#000000" points="142.5,-895 249.5,-895 "/>
<text text-anchor="start" x="150.5" y="-883" font-family="Helvetica,sans-Serif" font-size="10.00" fill="#000000">+ describe()</text>
<text text-anchor="start" x="150.5" y="-872" font-family="Helvetica,sans-Serif" font-size="10.00" fill="#000000">+ print()</text>
</a>
</g>
</g>
<!-- Node7&#45;&gt;Node4 -->
<g id="edge4" class="edge">
<title>Node7&#45;&gt;Node4</title>
<path fill="none" stroke="#404040" d="M198.2048,-864.9028C202.3473,-811.7491 213.4029,-706.3753 240,-621 250.1894,-588.2924 263.7481,-554.5198 278.2312,-522.4533"/>
<polygon fill="none" stroke="#404040" points="278.3939,-522.0978 277.2542,-514.9773 283.3887,-511.1867 284.5283,-518.3072 278.3939,-522.0978"/>
<text text-anchor="middle" x="268.5" y="-624" font-family="Helvetica,sans-Serif" font-size="10.00" fill="#000000"> #mHeader</text>
</g>
<!-- Node8 -->
<g id="node6" class="node">
<title>Node8</title>
<polygon fill="none" stroke="#bfbfbf" points="88.5,-1212 88.5,-1269 141.5,-1269 141.5,-1212 88.5,-1212"/>
<text text-anchor="middle" x="115" y="-1257" font-family="Helvetica,sans-Serif" font-size="10.00" fill="#000000">mask_t</text>
<polyline fill="none" stroke="#bfbfbf" points="88.5,-1250 141.5,-1250 "/>
<text text-anchor="middle" x="115" y="-1238" font-family="Helvetica,sans-Serif" font-size="10.00" fill="#000000"> </text>
<polyline fill="none" stroke="#bfbfbf" points="88.5,-1231 141.5,-1231 "/>
<text text-anchor="middle" x="115" y="-1219" font-family="Helvetica,sans-Serif" font-size="10.00" fill="#000000"> </text>
</g>
<!-- Node8&#45;&gt;Node7 -->
<g id="edge5" class="edge">
<title>Node8&#45;&gt;Node7</title>
<path fill="none" stroke="#404040" d="M120.9722,-1211.8038C123.9051,-1197.9451 127.5441,-1181.0871 131,-1166 148.8377,-1088.1269 171.1514,-997.8874 184.453,-944.7802"/>
<polygon fill="none" stroke="#404040" points="184.4709,-944.7085 182.0511,-937.9155 187.3909,-933.0692 189.8107,-939.8622 184.4709,-944.7085"/>
<text text-anchor="middle" x="160" y="-1169" font-family="Helvetica,sans-Serif" font-size="10.00" fill="#000000"> +detectors</text>
</g>
<!-- Node9 -->
<g id="node7" class="node">
<title>Node9</title>
<g id="a_node7"><a xlink:href="../../d6/d30/classuint64__t.html" target="_top" xlink:title="{uint64_t\n||}">
<polygon fill="none" stroke="#000000" points="164,-1212 164,-1269 220,-1269 220,-1212 164,-1212"/>
<text text-anchor="middle" x="192" y="-1257" font-family="Helvetica,sans-Serif" font-size="10.00" fill="#000000">uint64_t</text>
<polyline fill="none" stroke="#000000" points="164,-1250 220,-1250 "/>
<text text-anchor="middle" x="192" y="-1238" font-family="Helvetica,sans-Serif" font-size="10.00" fill="#000000"> </text>
<polyline fill="none" stroke="#000000" points="164,-1231 220,-1231 "/>
<text text-anchor="middle" x="192" y="-1219" font-family="Helvetica,sans-Serif" font-size="10.00" fill="#000000"> </text>
</a>
</g>
</g>
<!-- Node9&#45;&gt;Node7 -->
<g id="edge6" class="edge">
<title>Node9&#45;&gt;Node7</title>
<path fill="none" stroke="#404040" d="M192.3342,-1211.9713C193.025,-1152.9935 194.6158,-1017.1731 195.4565,-945.3975"/>
<polygon fill="none" stroke="#404040" points="195.4589,-945.1913 191.5295,-939.1448 195.5995,-933.1921 199.5289,-939.2385 195.4589,-945.1913"/>
<text text-anchor="middle" x="207" y="-1169" font-family="Helvetica,sans-Serif" font-size="10.00" fill="#000000"> +run</text>
</g>
<!-- Node10 -->
<g id="node8" class="node">
<title>Node10</title>
<g id="a_node8"><a xlink:href="../../d3/d87/classuint32__t.html" target="_top" xlink:title="{uint32_t\n||}">
<polygon fill="none" stroke="#000000" points="0,-1212 0,-1269 56,-1269 56,-1212 0,-1212"/>
<text text-anchor="middle" x="28" y="-1257" font-family="Helvetica,sans-Serif" font-size="10.00" fill="#000000">uint32_t</text>
<polyline fill="none" stroke="#000000" points="0,-1250 56,-1250 "/>
<text text-anchor="middle" x="28" y="-1238" font-family="Helvetica,sans-Serif" font-size="10.00" fill="#000000"> </text>
<polyline fill="none" stroke="#000000" points="0,-1231 56,-1231 "/>
<text text-anchor="middle" x="28" y="-1219" font-family="Helvetica,sans-Serif" font-size="10.00" fill="#000000"> </text>
</a>
</g>
</g>
<!-- Node10&#45;&gt;Node7 -->
<g id="edge7" class="edge">
<title>Node10&#45;&gt;Node7</title>
<path fill="none" stroke="#404040" d="M34.108,-1211.9924C38.894,-1196.2815 47.144,-1177.6565 61,-1166 86.241,-1144.7658 109.6432,-1171.2907 133,-1148 186.9003,-1094.2521 196.9302,-1001.4694 197.6301,-945.6076"/>
<polygon fill="none" stroke="#404040" points="197.6302,-945.2616 193.6352,-939.2583 197.6401,-933.2616 201.6352,-939.2649 197.6302,-945.2616"/>
<text text-anchor="middle" x="93" y="-1169" font-family="Helvetica,sans-Serif" font-size="10.00" fill="#000000"> +firstTForbit</text>
</g>
<!-- Node11 -->
<g id="node9" class="node">
<title>Node11</title>
<g id="a_node9"><a xlink:href="../../dc/dbb/structo2_1_1ctf_1_1ANSHeader.html" target="_top" xlink:title="&gt;&gt;======================== Auxiliary classes =======================&gt;&gt; ">
<polygon fill="none" stroke="#000000" points="417.5,-1206.5 417.5,-1274.5 526.5,-1274.5 526.5,-1206.5 417.5,-1206.5"/>
<text text-anchor="middle" x="472" y="-1262.5" font-family="Helvetica,sans-Serif" font-size="10.00" fill="#000000">o2::ctf::ANSHeader</text>
<polyline fill="none" stroke="#000000" points="417.5,-1255.5 526.5,-1255.5 "/>
<text text-anchor="middle" x="472" y="-1243.5" font-family="Helvetica,sans-Serif" font-size="10.00" fill="#000000"> </text>
<polyline fill="none" stroke="#000000" points="417.5,-1236.5 526.5,-1236.5 "/>
<text text-anchor="start" x="425.5" y="-1224.5" font-family="Helvetica,sans-Serif" font-size="10.00" fill="#000000">+ clear()</text>
<text text-anchor="start" x="425.5" y="-1213.5" font-family="Helvetica,sans-Serif" font-size="10.00" fill="#000000">+ ClassDefNV()</text>
</a>
</g>
</g>
<!-- Node11&#45;&gt;Node4 -->
<g id="edge8" class="edge">
<title>Node11&#45;&gt;Node4</title>
<path fill="none" stroke="#404040" d="M455.7229,-1206.1495C448.3828,-1189.0584 440.3911,-1167.8544 436,-1148 388.1054,-931.4433 424.508,-870.8396 404,-650 402.923,-638.4022 401.7572,-626.5565 400.5266,-614.5962"/>
<polygon fill="none" stroke="#404040" points="400.5206,-614.5378 395.9195,-608.9853 399.2752,-602.6025 403.8763,-608.155 400.5206,-614.5378"/>
<text text-anchor="middle" x="474.5" y="-896.5" font-family="Helvetica,sans-Serif" font-size="10.00" fill="#000000"> #mANSHeader</text>
</g>
<!-- Node11&#45;&gt;Node17 -->
<g id="edge18" class="edge">
<title>Node11&#45;&gt;Node17</title>
<path fill="none" stroke="#404040" d="M485.462,-1206.1921C493.5599,-1185.5544 504.6439,-1157.3068 516.8307,-1126.2486"/>
<polygon fill="none" stroke="#404040" points="516.9837,-1125.8587 515.4517,-1118.8121 521.367,-1114.6878 522.8989,-1121.7344 516.9837,-1125.8587"/>
<text text-anchor="middle" x="538.5" y="-1169" font-family="Helvetica,sans-Serif" font-size="10.00" fill="#000000"> #mANSHeader</text>
</g>
<!-- Node12 -->
<g id="node10" class="node">
<title>Node12</title>
<polygon fill="none" stroke="#bfbfbf" points="435,-1344.5 435,-1401.5 485,-1401.5 485,-1344.5 435,-1344.5"/>
<text text-anchor="middle" x="460" y="-1389.5" font-family="Helvetica,sans-Serif" font-size="10.00" fill="#000000">uint8_t</text>
<polyline fill="none" stroke="#bfbfbf" points="435,-1382.5 485,-1382.5 "/>
<text text-anchor="middle" x="460" y="-1370.5" font-family="Helvetica,sans-Serif" font-size="10.00" fill="#000000"> </text>
<polyline fill="none" stroke="#bfbfbf" points="435,-1363.5 485,-1363.5 "/>
<text text-anchor="middle" x="460" y="-1351.5" font-family="Helvetica,sans-Serif" font-size="10.00" fill="#000000"> </text>
</g>
<!-- Node12&#45;&gt;Node11 -->
<g id="edge9" class="edge">
<title>Node12&#45;&gt;Node11</title>
<path fill="none" stroke="#404040" d="M459.4103,-1344.4109C459.4129,-1331.9716 459.7649,-1317.2408 461,-1304 461.5306,-1298.3116 462.2872,-1292.366 463.1585,-1286.4923"/>
<polygon fill="none" stroke="#404040" points="463.159,-1286.4882 460.1669,-1279.9272 465.0724,-1274.6417 468.0645,-1281.2027 463.159,-1286.4882"/>
<text text-anchor="middle" x="499" y="-1318" font-family="Helvetica,sans-Serif" font-size="10.00" fill="#000000"> +minorVersion</text>
<text text-anchor="middle" x="499" y="-1307" font-family="Helvetica,sans-Serif" font-size="10.00" fill="#000000">+majorVersion</text>
</g>
<!-- Node13 -->
<g id="node11" class="node">
<title>Node13</title>
<g id="a_node11"><a xlink:href="../../d0/d1c/structo2_1_1ctf_1_1Registry.html" target="_top" xlink:title="registry struct for the buffer start and offsets of writable space ">
<polygon fill="none" stroke="#000000" points="545,-1195.5 545,-1285.5 667,-1285.5 667,-1195.5 545,-1195.5"/>
<text text-anchor="middle" x="606" y="-1273.5" font-family="Helvetica,sans-Serif" font-size="10.00" fill="#000000">o2::ctf::Registry</text>
<polyline fill="none" stroke="#000000" points="545,-1266.5 667,-1266.5 "/>
<text text-anchor="middle" x="606" y="-1254.5" font-family="Helvetica,sans-Serif" font-size="10.00" fill="#000000"> </text>
<polyline fill="none" stroke="#000000" points="545,-1247.5 667,-1247.5 "/>
<text text-anchor="start" x="553" y="-1235.5" font-family="Helvetica,sans-Serif" font-size="10.00" fill="#000000">+ getFreeBlockStart()</text>
<text text-anchor="start" x="553" y="-1224.5" font-family="Helvetica,sans-Serif" font-size="10.00" fill="#000000">+ shrinkFreeBlock()</text>
<text text-anchor="start" x="553" y="-1213.5" font-family="Helvetica,sans-Serif" font-size="10.00" fill="#000000">+ getFreeSize()</text>
<text text-anchor="start" x="553" y="-1202.5" font-family="Helvetica,sans-Serif" font-size="10.00" fill="#000000">+ ClassDefNV()</text>
</a>
</g>
</g>
<!-- Node13&#45;&gt;Node4 -->
<g id="edge10" class="edge">
<title>Node13&#45;&gt;Node4</title>
<path fill="none" stroke="#404040" d="M667.3334,-1199.6396C670.556,-1197.9856 673.789,-1196.4266 677,-1195 704.7859,-1182.6554 724.5446,-1201.1628 743,-1177 885.6439,-990.2435 838.0753,-840.1591 700,-650 680.455,-623.0823 663.2171,-629.2841 631,-621 597.1541,-612.2971 507.1243,-624.0695 462.946,-602.3787"/>
<polygon fill="none" stroke="#404040" points="462.7193,-602.2383 455.5122,-602.4784 452.5186,-595.918 459.7257,-595.6779 462.7193,-602.2383"/>
<text text-anchor="middle" x="859.5" y="-896.5" font-family="Helvetica,sans-Serif" font-size="10.00" fill="#000000"> #mRegistry</text>
</g>
<!-- Node13&#45;&gt;Node17 -->
<g id="edge19" class="edge">
<title>Node13&#45;&gt;Node17</title>
<path fill="none" stroke="#404040" d="M605.2023,-1195.4049C605.1185,-1189.2211 605.0469,-1182.9537 605,-1177 604.9615,-1172.1113 604.9908,-1170.8889 605,-1166 605.0039,-1163.9285 605.0079,-1161.848 605.0121,-1159.7594"/>
<polygon fill="none" stroke="#404040" points="605.0121,-1159.7156 601.0251,-1153.707 605.038,-1147.7156 609.025,-1153.7242 605.0121,-1159.7156"/>
<text text-anchor="middle" x="635.5" y="-1169" font-family="Helvetica,sans-Serif" font-size="10.00" fill="#000000"> #mRegistry</text>
</g>
<!-- Node14 -->
<g id="node12" class="node">
<title>Node14</title>
<polygon fill="none" stroke="#bfbfbf" points="539,-1344.5 539,-1401.5 577,-1401.5 577,-1344.5 539,-1344.5"/>
<text text-anchor="middle" x="558" y="-1389.5" font-family="Helvetica,sans-Serif" font-size="10.00" fill="#000000">char</text>
<polyline fill="none" stroke="#bfbfbf" points="539,-1382.5 577,-1382.5 "/>
<text text-anchor="middle" x="558" y="-1370.5" font-family="Helvetica,sans-Serif" font-size="10.00" fill="#000000"> </text>
<polyline fill="none" stroke="#bfbfbf" points="539,-1363.5 577,-1363.5 "/>
<text text-anchor="middle" x="558" y="-1351.5" font-family="Helvetica,sans-Serif" font-size="10.00" fill="#000000"> </text>
</g>
<!-- Node14&#45;&gt;Node13 -->
<g id="edge11" class="edge">
<title>Node14&#45;&gt;Node13</title>
<path fill="none" stroke="#404040" d="M561.9,-1344.2902C564.0988,-1331.6962 567.3587,-1316.8793 572,-1304 572.8956,-1301.5147 573.8749,-1299.0073 574.9181,-1296.4981"/>
<polygon fill="none" stroke="#404040" points="574.9191,-1296.4957 573.7303,-1289.3832 579.8384,-1285.5503 581.0272,-1292.6627 574.9191,-1296.4957"/>
<text text-anchor="middle" x="590" y="-1312.5" font-family="Helvetica,sans-Serif" font-size="10.00" fill="#000000"> +head</text>
</g>
<!-- Node15 -->
<g id="node13" class="node">
<title>Node15</title>
<polygon fill="none" stroke="#bfbfbf" points="595.5,-1344.5 595.5,-1401.5 640.5,-1401.5 640.5,-1344.5 595.5,-1344.5"/>
<text text-anchor="middle" x="618" y="-1389.5" font-family="Helvetica,sans-Serif" font-size="10.00" fill="#000000">size_t</text>
<polyline fill="none" stroke="#bfbfbf" points="595.5,-1382.5 640.5,-1382.5 "/>
<text text-anchor="middle" x="618" y="-1370.5" font-family="Helvetica,sans-Serif" font-size="10.00" fill="#000000"> </text>
<polyline fill="none" stroke="#bfbfbf" points="595.5,-1363.5 640.5,-1363.5 "/>
<text text-anchor="middle" x="618" y="-1351.5" font-family="Helvetica,sans-Serif" font-size="10.00" fill="#000000"> </text>
</g>
<!-- Node15&#45;&gt;Node13 -->
<g id="edge12" class="edge">
<title>Node15&#45;&gt;Node13</title>
<path fill="none" stroke="#404040" d="M615.3962,-1344.2495C614.1603,-1330.6028 612.6377,-1313.791 611.1808,-1297.7042"/>
<polygon fill="none" stroke="#404040" points="611.1677,-1297.5595 606.6428,-1291.9447 610.0853,-1285.6084 614.6102,-1291.2231 611.1677,-1297.5595"/>
<text text-anchor="middle" x="649.5" y="-1318" font-family="Helvetica,sans-Serif" font-size="10.00" fill="#000000"> +offsFreeStart</text>
<text text-anchor="middle" x="649.5" y="-1307" font-family="Helvetica,sans-Serif" font-size="10.00" fill="#000000">+size</text>
</g>
<!-- Node16 -->
<g id="node14" class="node">
<title>Node16</title>
<polygon fill="none" stroke="#bfbfbf" points="699.5,-1344.5 699.5,-1401.5 728.5,-1401.5 728.5,-1344.5 699.5,-1344.5"/>
<text text-anchor="middle" x="714" y="-1389.5" font-family="Helvetica,sans-Serif" font-size="10.00" fill="#000000">int</text>
<polyline fill="none" stroke="#bfbfbf" points="699.5,-1382.5 728.5,-1382.5 "/>
<text text-anchor="middle" x="714" y="-1370.5" font-family="Helvetica,sans-Serif" font-size="10.00" fill="#000000"> </text>
<polyline fill="none" stroke="#bfbfbf" points="699.5,-1363.5 728.5,-1363.5 "/>
<text text-anchor="middle" x="714" y="-1351.5" font-family="Helvetica,sans-Serif" font-size="10.00" fill="#000000"> </text>
</g>
<!-- Node16&#45;&gt;Node13 -->
<g id="edge13" class="edge">
<title>Node16&#45;&gt;Node13</title>
<path fill="none" stroke="#404040" d="M708.0849,-1344.3357C704.3966,-1331.1781 698.6572,-1315.8957 690,-1304 686.0332,-1298.5494 681.4664,-1293.3515 676.5546,-1288.4466"/>
<polygon fill="none" stroke="#404040" points="676.1899,-1288.108 669.0713,-1286.9568 667.396,-1279.9429 674.5147,-1281.0942 676.1899,-1288.108"/>
<text text-anchor="middle" x="739" y="-1312.5" font-family="Helvetica,sans-Serif" font-size="10.00" fill="#000000"> +nFilledBlocks</text>
</g>
<!-- Node17&#45;&gt;Node4 -->
<g id="edge14" class="edge">
<title>Node17&#45;&gt;Node4</title>
<path fill="none" stroke="#ffa500" d="M516.3993,-665.141C513.3418,-659.9895 510.2086,-654.9345 507,-650 491.0667,-625.4959 476.6754,-627.6699 461,-603 458.154,-598.5209 455.376,-593.9418 452.6656,-589.2806"/>
<polygon fill="#ffa500" stroke="#ffa500" points="513.4313,-666.9999 521.4733,-673.8974 519.4879,-663.4903 513.4313,-666.9999"/>
<text text-anchor="middle" x="558.5" y="-624" font-family="Helvetica,sans-Serif" font-size="10.00" fill="#000000"> &lt; CTFHeader, 8, uint32_t &gt;</text>
</g>
<!-- Node18 -->
<g id="node16" class="node">
<title>Node18</title>
<polygon fill="none" stroke="#bfbfbf" points="685.5,-1212 685.5,-1269 714.5,-1269 714.5,-1212 685.5,-1212"/>
<text text-anchor="middle" x="700" y="-1257" font-family="Helvetica,sans-Serif" font-size="10.00" fill="#000000">H</text>
<polyline fill="none" stroke="#bfbfbf" points="685.5,-1250 714.5,-1250 "/>
<text text-anchor="middle" x="700" y="-1238" font-family="Helvetica,sans-Serif" font-size="10.00" fill="#000000"> </text>
<polyline fill="none" stroke="#bfbfbf" points="685.5,-1231 714.5,-1231 "/>
<text text-anchor="middle" x="700" y="-1219" font-family="Helvetica,sans-Serif" font-size="10.00" fill="#000000"> </text>
</g>
<!-- Node18&#45;&gt;Node17 -->
<g id="edge16" class="edge">
<title>Node18&#45;&gt;Node17</title>
<path fill="none" stroke="#404040" d="M692.1473,-1211.9713C688.3312,-1198.1074 683.3463,-1179.9974 677.6964,-1159.4713"/>
<polygon fill="none" stroke="#404040" points="677.677,-1159.4007 672.2281,-1154.6774 674.4923,-1147.831 679.9412,-1152.5543 677.677,-1159.4007"/>
<text text-anchor="middle" x="710.5" y="-1169" font-family="Helvetica,sans-Serif" font-size="10.00" fill="#000000"> #mHeader</text>
</g>
<!-- Node19 -->
<g id="node17" class="node">
<title>Node19</title>
<polygon fill="none" stroke="#bfbfbf" points="734.5,-1206.5 734.5,-1274.5 851.5,-1274.5 851.5,-1206.5 734.5,-1206.5"/>
<text text-anchor="start" x="742.5" y="-1262.5" font-family="Helvetica,sans-Serif" font-size="10.00" fill="#000000">array&lt; o2::ctf::Block</text>
<text text-anchor="middle" x="793" y="-1251.5" font-family="Helvetica,sans-Serif" font-size="10.00" fill="#000000">&lt; W &gt;, N &gt;</text>
<polyline fill="none" stroke="#bfbfbf" points="734.5,-1244.5 851.5,-1244.5 "/>
<text text-anchor="middle" x="793" y="-1232.5" font-family="Helvetica,sans-Serif" font-size="10.00" fill="#000000"> </text>
<polyline fill="none" stroke="#bfbfbf" points="734.5,-1225.5 851.5,-1225.5 "/>
<text text-anchor="middle" x="793" y="-1213.5" font-family="Helvetica,sans-Serif" font-size="10.00" fill="#000000"> </text>
</g>
<!-- Node19&#45;&gt;Node17 -->
<g id="edge17" class="edge">
<title>Node19&#45;&gt;Node17</title>
<path fill="none" stroke="#404040" d="M772.2243,-1206.4686C761.7544,-1189.092 748.983,-1167.5457 738,-1148 724.3155,-1123.6467 710.1694,-1097.771 696.4482,-1072.2633"/>
<polygon fill="none" stroke="#404040" points="696.2709,-1071.933 689.9091,-1068.5378 690.5962,-1061.3595 696.9581,-1064.7547 696.2709,-1071.933"/>
<text text-anchor="middle" x="781" y="-1169" font-family="Helvetica,sans-Serif" font-size="10.00" fill="#000000"> #mBlocks</text>
</g>
<!-- Node20 -->
<g id="node18" class="node">
<title>Node20</title>
<polygon fill="none" stroke="#bfbfbf" points="470,-325.5 470,-382.5 514,-382.5 514,-325.5 470,-325.5"/>
<text text-anchor="middle" x="492" y="-370.5" font-family="Helvetica,sans-Serif" font-size="10.00" fill="#000000">static</text>
<polyline fill="none" stroke="#bfbfbf" points="470,-363.5 514,-363.5 "/>
<text text-anchor="middle" x="492" y="-351.5" font-family="Helvetica,sans-Serif" font-size="10.00" fill="#000000"> </text>
<polyline fill="none" stroke="#bfbfbf" points="470,-344.5 514,-344.5 "/>
<text text-anchor="middle" x="492" y="-332.5" font-family="Helvetica,sans-Serif" font-size="10.00" fill="#000000"> </text>
</g>
<!-- Node20&#45;&gt;Node3 -->
<g id="edge20" class="edge">
<title>Node20&#45;&gt;Node3</title>
<path fill="none" stroke="#404040" d="M490.8706,-325.1581C488.4903,-278.2867 481.3738,-182.9736 461,-105 457.8718,-93.0279 453.299,-80.4333 448.6215,-69.016"/>
<polygon fill="none" stroke="#404040" points="448.4695,-68.6591 442.4376,-64.7074 443.7653,-57.6196 449.7973,-61.5713 448.4695,-68.6591"/>
<text text-anchor="middle" x="464.5" y="-79" font-family="Helvetica,sans-Serif" font-size="10.00" fill="#000000"> +N</text>
</g>
</g>
</svg>
