<?xml version="1.0" encoding="UTF-8" standalone="no"?>
<!DOCTYPE svg PUBLIC "-//W3C//DTD SVG 1.1//EN"
 "http://www.w3.org/Graphics/SVG/1.1/DTD/svg11.dtd">
<!-- Generated by graphviz version 2.40.1 (20161225.0304)
 -->
<!-- Title: /home/travis/build/AliceO2Group/AliceO2/DataFormats/Detectors/TPC/include/DataFormatsTPC/CompressedClusters.h Pages: 1 -->
<!--zoomable 361 -->
<svg id="main" version="1.1" xmlns="http://www.w3.org/2000/svg" xmlns:xlink="http://www.w3.org/1999/xlink" xml:space="preserve" onload="init(evt)">
<style type="text/css"><![CDATA[
.edge:hover path { stroke: red; }
.edge:hover polygon { stroke: red; fill: red; }
]]></style>
<script type="text/javascript"><![CDATA[
var edges = document.getElementsByTagName('g');
if (edges && edges.length) {
  for (var i=0;i<edges.length;i++) {
    if (edges[i].id.substr(0,4)=='edge') {
      edges[i].setAttribute('class','edge');
    }
  }
}
]]></script>
        <defs>
                <circle id="rim" cx="0" cy="0" r="7"/>
                <circle id="rim2" cx="0" cy="0" r="3.5"/>
                <g id="zoomPlus">
                        <use xlink:href="#rim" fill="#404040">
                                <set attributeName="fill" to="#808080" begin="zoomplus.mouseover" end="zoomplus.mouseout"/>
                        </use>
                        <path d="M-4,0h8M0,-4v8" fill="none" stroke="white" stroke-width="1.5" pointer-events="none"/>
                </g>
                <g id="zoomMin">
                        <use xlink:href="#rim" fill="#404040">
                                <set attributeName="fill" to="#808080" begin="zoomminus.mouseover" end="zoomminus.mouseout"/>
                        </use>
                        <path d="M-4,0h8" fill="none" stroke="white" stroke-width="1.5" pointer-events="none"/>
                </g>
                <g id="dirArrow">
                        <path fill="none" stroke="white" stroke-width="1.5" d="M0,-3.0v7 M-2.5,-0.5L0,-3.0L2.5,-0.5"/>
                </g>
               <g id="resetDef">
                       <use xlink:href="#rim2" fill="#404040">
                               <set attributeName="fill" to="#808080" begin="reset.mouseover" end="reset.mouseout"/>
                       </use>
               </g>
        </defs>

<script type="text/javascript">
var viewWidth = 1505;
var viewHeight = 361;
var sectionId = 'dynsection-1';
</script>
<script xlink:href="../../svgpan.js"/>
<svg id="graph" class="graph">
<g id="viewport">
<title>/home/travis/build/AliceO2Group/AliceO2/DataFormats/Detectors/TPC/include/DataFormatsTPC/CompressedClusters.h</title>
<!-- Node6 -->
<g id="node1" class="node">
<title>Node6</title>
<polygon fill="#bfbfbf" stroke="#000000" points="632,-289.5 632,-352.5 793,-352.5 793,-289.5 632,-289.5"/>
<text text-anchor="start" x="640" y="-340.5" font-family="Helvetica,sans-Serif" font-size="10.00" fill="#000000">/home/travis/build</text>
<text text-anchor="start" x="640" y="-329.5" font-family="Helvetica,sans-Serif" font-size="10.00" fill="#000000">/AliceO2Group/AliceO2</text>
<text text-anchor="start" x="640" y="-318.5" font-family="Helvetica,sans-Serif" font-size="10.00" fill="#000000">/DataFormats/Detectors</text>
<text text-anchor="start" x="640" y="-307.5" font-family="Helvetica,sans-Serif" font-size="10.00" fill="#000000">/TPC/include/DataFormatsTPC</text>
<text text-anchor="middle" x="712.5" y="-296.5" font-family="Helvetica,sans-Serif" font-size="10.00" fill="#000000">/CompressedClusters.h</text>
</g>
<!-- Node7 -->
<g id="node2" class="node">
<title>Node7</title>
<g id="a_node2"><a xlink:href="../../d3/d64/CompressedClustersHelpers_8h.html" target="_top" xlink:title="Helper for the CompressedClusters container. ">
<polygon fill="none" stroke="#000000" points="196,-189.5 196,-252.5 363,-252.5 363,-189.5 196,-189.5"/>
<text text-anchor="start" x="204" y="-240.5" font-family="Helvetica,sans-Serif" font-size="10.00" fill="#000000">/home/travis/build</text>
<text text-anchor="start" x="204" y="-229.5" font-family="Helvetica,sans-Serif" font-size="10.00" fill="#000000">/AliceO2Group/AliceO2</text>
<text text-anchor="start" x="204" y="-218.5" font-family="Helvetica,sans-Serif" font-size="10.00" fill="#000000">/DataFormats/Detectors</text>
<text text-anchor="start" x="204" y="-207.5" font-family="Helvetica,sans-Serif" font-size="10.00" fill="#000000">/TPC/include/DataFormatsTPC</text>
<text text-anchor="middle" x="279.5" y="-196.5" font-family="Helvetica,sans-Serif" font-size="10.00" fill="#000000">/CompressedClustersHelpers.h</text>
</a>
</g>
</g>
<!-- Node6&#45;&gt;Node7 -->
<g id="edge1" class="edge">
<title>Node6&#45;&gt;Node7</title>
<path fill="none" stroke="#191970" d="M621.5187,-305.615C553.5344,-293.3884 458.579,-274.7618 376.5,-253 372.1291,-251.8411 367.6665,-250.5956 363.1739,-249.2923"/>
<polygon fill="#191970" stroke="#191970" points="621.3102,-309.1331 631.77,-307.4469 622.5416,-302.2423 621.3102,-309.1331"/>
</g>
<!-- Node8 -->
<g id="node3" class="node">
<title>Node8</title>
<g id="a_node3"><a xlink:href="../../d3/dc9/CompressedClusters_8cxx.html" target="_top" xlink:title="Container to store compressed TPC cluster data. ">
<polygon fill="none" stroke="#000000" points="0,-95 0,-147 179,-147 179,-95 0,-95"/>
<text text-anchor="start" x="8" y="-135" font-family="Helvetica,sans-Serif" font-size="10.00" fill="#000000">/home/travis/build</text>
<text text-anchor="start" x="8" y="-124" font-family="Helvetica,sans-Serif" font-size="10.00" fill="#000000">/AliceO2Group/AliceO2</text>
<text text-anchor="start" x="8" y="-113" font-family="Helvetica,sans-Serif" font-size="10.00" fill="#000000">/DataFormats/Detectors</text>
<text text-anchor="middle" x="89.5" y="-102" font-family="Helvetica,sans-Serif" font-size="10.00" fill="#000000">/TPC/src/CompressedClusters.cxx</text>
</a>
</g>
</g>
<!-- Node6&#45;&gt;Node8 -->
<g id="edge14" class="edge">
<title>Node6&#45;&gt;Node8</title>
<path fill="none" stroke="#191970" d="M621.412,-317.7829C490.8088,-311.7459 258.1736,-295.2662 186.5,-253 144.7331,-228.37 115.5741,-177.9958 100.7557,-147.0947"/>
<polygon fill="#191970" stroke="#191970" points="621.6455,-321.2968 631.793,-318.2506 621.9607,-314.3039 621.6455,-321.2968"/>
</g>
<!-- Node9 -->
<g id="node4" class="node">
<title>Node9</title>
<g id="a_node4"><a xlink:href="../../df/d64/testCompressedClusters_8cxx.html" target="_top" xlink:title="/home/travis/build\l/AliceO2Group/AliceO2\l/DataFormats/Detectors\l/TPC/test/testCompressedClusters.cxx">
<polygon fill="none" stroke="#000000" points="197,-95 197,-147 400,-147 400,-95 197,-95"/>
<text text-anchor="start" x="205" y="-135" font-family="Helvetica,sans-Serif" font-size="10.00" fill="#000000">/home/travis/build</text>
<text text-anchor="start" x="205" y="-124" font-family="Helvetica,sans-Serif" font-size="10.00" fill="#000000">/AliceO2Group/AliceO2</text>
<text text-anchor="start" x="205" y="-113" font-family="Helvetica,sans-Serif" font-size="10.00" fill="#000000">/DataFormats/Detectors</text>
<text text-anchor="middle" x="298.5" y="-102" font-family="Helvetica,sans-Serif" font-size="10.00" fill="#000000">/TPC/test/testCompressedClusters.cxx</text>
</a>
</g>
</g>
<!-- Node6&#45;&gt;Node9 -->
<g id="edge15" class="edge">
<title>Node6&#45;&gt;Node9</title>
<path fill="none" stroke="#191970" d="M621.9763,-307.8526C547.0986,-295.6284 447.8346,-275.8922 414.5,-253 386.2514,-233.6005 393.7389,-215.072 371.5,-189 358.7985,-174.1093 343.0868,-159.1152 329.4971,-147.0103"/>
<polygon fill="#191970" stroke="#191970" points="621.4766,-311.3172 631.9062,-309.4533 622.5907,-304.4064 621.4766,-311.3172"/>
</g>
<!-- Node10 -->
<g id="node5" class="node">
<title>Node10</title>
<g id="a_node5"><a xlink:href="../../d8/d9c/TPC_2include_2DataFormatsTPC_2CTF_8h.html" target="_top" xlink:title="/home/travis/build\l/AliceO2Group/AliceO2\l/DataFormats/Detectors\l/TPC/include/DataFormatsTPC/CTF.h">
<polygon fill="none" stroke="#000000" points="617.5,-195 617.5,-247 807.5,-247 807.5,-195 617.5,-195"/>
<text text-anchor="start" x="625.5" y="-235" font-family="Helvetica,sans-Serif" font-size="10.00" fill="#000000">/home/travis/build</text>
<text text-anchor="start" x="625.5" y="-224" font-family="Helvetica,sans-Serif" font-size="10.00" fill="#000000">/AliceO2Group/AliceO2</text>
<text text-anchor="start" x="625.5" y="-213" font-family="Helvetica,sans-Serif" font-size="10.00" fill="#000000">/DataFormats/Detectors</text>
<text text-anchor="middle" x="712.5" y="-202" font-family="Helvetica,sans-Serif" font-size="10.00" fill="#000000">/TPC/include/DataFormatsTPC/CTF.h</text>
</a>
</g>
</g>
<!-- Node6&#45;&gt;Node10 -->
<g id="edge4" class="edge">
<title>Node6&#45;&gt;Node10</title>
<path fill="none" stroke="#191970" d="M712.5,-279.1631C712.5,-268.2863 712.5,-256.8798 712.5,-247.078"/>
<polygon fill="#191970" stroke="#191970" points="709.0001,-279.3593 712.5,-289.3594 716.0001,-279.3594 709.0001,-279.3593"/>
</g>
<!-- Node11 -->
<g id="node6" class="node">
<title>Node11</title>
<g id="a_node6"><a xlink:href="../../d3/d53/test__ctf__io__ft0_8cxx.html" target="_top" xlink:title="/home/travis/build\l/AliceO2Group/AliceO2\l/Detectors/CTF/test/test\l_ctf_io_ft0.cxx">
<polygon fill="none" stroke="#000000" points="457,-95 457,-147 588,-147 588,-95 457,-95"/>
<text text-anchor="start" x="465" y="-135" font-family="Helvetica,sans-Serif" font-size="10.00" fill="#000000">/home/travis/build</text>
<text text-anchor="start" x="465" y="-124" font-family="Helvetica,sans-Serif" font-size="10.00" fill="#000000">/AliceO2Group/AliceO2</text>
<text text-anchor="start" x="465" y="-113" font-family="Helvetica,sans-Serif" font-size="10.00" fill="#000000">/Detectors/CTF/test/test</text>
<text text-anchor="middle" x="522.5" y="-102" font-family="Helvetica,sans-Serif" font-size="10.00" fill="#000000">_ctf_io_ft0.cxx</text>
</a>
</g>
</g>
<!-- Node6&#45;&gt;Node11 -->
<g id="edge16" class="edge">
<title>Node6&#45;&gt;Node11</title>
<path fill="none" stroke="#191970" d="M646.7117,-283.9342C633.2696,-274.7782 619.7967,-264.3151 608.5,-253 576.6146,-221.0624 550.1053,-175.4589 535.2878,-147.0732"/>
<polygon fill="#191970" stroke="#191970" points="644.7878,-286.858 655.0576,-289.4621 648.6533,-281.0221 644.7878,-286.858"/>
</g>
<!-- Node12 -->
<g id="node7" class="node">
<title>Node12</title>
<g id="a_node7"><a xlink:href="../../df/d43/test__ctf__io__tpc_8cxx.html" target="_top" xlink:title="/home/travis/build\l/AliceO2Group/AliceO2\l/Detectors/CTF/test/test\l_ctf_io_tpc.cxx">
<polygon fill="none" stroke="#000000" points="551,-.5 551,-52.5 682,-52.5 682,-.5 551,-.5"/>
<text text-anchor="start" x="559" y="-40.5" font-family="Helvetica,sans-Serif" font-size="10.00" fill="#000000">/home/travis/build</text>
<text text-anchor="start" x="559" y="-29.5" font-family="Helvetica,sans-Serif" font-size="10.00" fill="#000000">/AliceO2Group/AliceO2</text>
<text text-anchor="start" x="559" y="-18.5" font-family="Helvetica,sans-Serif" font-size="10.00" fill="#000000">/Detectors/CTF/test/test</text>
<text text-anchor="middle" x="616.5" y="-7.5" font-family="Helvetica,sans-Serif" font-size="10.00" fill="#000000">_ctf_io_tpc.cxx</text>
</a>
</g>
</g>
<!-- Node6&#45;&gt;Node12 -->
<g id="edge17" class="edge">
<title>Node6&#45;&gt;Node12</title>
<path fill="none" stroke="#191970" d="M622.1234,-293.5417C558.4379,-268.5497 479.0992,-224.4315 447.5,-153 435.9927,-126.9871 431.2451,-112.3423 447.5,-89 459.9243,-71.1585 508.6803,-54.2658 550.6512,-42.5515"/>
<polygon fill="#191970" stroke="#191970" points="621.2084,-296.9388 631.7989,-297.2404 623.708,-290.4003 621.2084,-296.9388"/>
</g>
<!-- Node15 -->
<g id="node10" class="node">
<title>Node15</title>
<g id="a_node10"><a xlink:href="../../d9/de3/TPC_2reconstruction_2include_2TPCReconstruction_2CTFCoder_8h.html" target="_top" xlink:title="/home/travis/build\l/AliceO2Group/AliceO2\l/Detectors/TPC/reconstruction\l/include/TPCReconstruction\l/CTFCoder.h">
<polygon fill="none" stroke="#000000" points="951,-89.5 951,-152.5 1112,-152.5 1112,-89.5 951,-89.5"/>
<text text-anchor="start" x="959" y="-140.5" font-family="Helvetica,sans-Serif" font-size="10.00" fill="#000000">/home/travis/build</text>
<text text-anchor="start" x="959" y="-129.5" font-family="Helvetica,sans-Serif" font-size="10.00" fill="#000000">/AliceO2Group/AliceO2</text>
<text text-anchor="start" x="959" y="-118.5" font-family="Helvetica,sans-Serif" font-size="10.00" fill="#000000">/Detectors/TPC/reconstruction</text>
<text text-anchor="start" x="959" y="-107.5" font-family="Helvetica,sans-Serif" font-size="10.00" fill="#000000">/include/TPCReconstruction</text>
<text text-anchor="middle" x="1031.5" y="-96.5" font-family="Helvetica,sans-Serif" font-size="10.00" fill="#000000">/CTFCoder.h</text>
</a>
</g>
</g>
<!-- Node6&#45;&gt;Node15 -->
<g id="edge18" class="edge">
<title>Node6&#45;&gt;Node15</title>
<path fill="none" stroke="#191970" d="M771.6957,-283.8867C831.9533,-246.1076 924.3564,-188.1747 981.19,-152.5423"/>
<polygon fill="#191970" stroke="#191970" points="769.6598,-281.0321 763.0465,-289.3094 773.3782,-286.9628 769.6598,-281.0321"/>
</g>
<!-- Node17 -->
<g id="node12" class="node">
<title>Node17</title>
<g id="a_node12"><a xlink:href="../../db/d6d/TPC_2workflow_2src_2EntropyDecoderSpec_8cxx.html" target="_top" xlink:title="/home/travis/build\l/AliceO2Group/AliceO2\l/Detectors/TPC/workflow\l/src/EntropyDecoderSpec.cxx">
<polygon fill="none" stroke="#000000" points="952.5,-.5 952.5,-52.5 1110.5,-52.5 1110.5,-.5 952.5,-.5"/>
<text text-anchor="start" x="960.5" y="-40.5" font-family="Helvetica,sans-Serif" font-size="10.00" fill="#000000">/home/travis/build</text>
<text text-anchor="start" x="960.5" y="-29.5" font-family="Helvetica,sans-Serif" font-size="10.00" fill="#000000">/AliceO2Group/AliceO2</text>
<text text-anchor="start" x="960.5" y="-18.5" font-family="Helvetica,sans-Serif" font-size="10.00" fill="#000000">/Detectors/TPC/workflow</text>
<text text-anchor="middle" x="1031.5" y="-7.5" font-family="Helvetica,sans-Serif" font-size="10.00" fill="#000000">/src/EntropyDecoderSpec.cxx</text>
</a>
</g>
</g>
<!-- Node6&#45;&gt;Node17 -->
<g id="edge20" class="edge">
<title>Node6&#45;&gt;Node17</title>
<path fill="none" stroke="#191970" d="M803.1869,-312.625C900.7668,-298.2049 1051.3686,-259.0601 1121.5,-153 1137.1889,-129.2736 1134.6831,-114.205 1121.5,-89 1113.7414,-74.1662 1100.6821,-62.1453 1086.8831,-52.7564"/>
<polygon fill="#191970" stroke="#191970" points="802.4418,-309.1955 793.0322,-314.0649 803.4246,-316.1262 802.4418,-309.1955"/>
</g>
<!-- Node18 -->
<g id="node13" class="node">
<title>Node18</title>
<g id="a_node13"><a xlink:href="../../db/dd4/TPC_2workflow_2src_2EntropyEncoderSpec_8cxx.html" target="_top" xlink:title="/home/travis/build\l/AliceO2Group/AliceO2\l/Detectors/TPC/workflow\l/src/EntropyEncoderSpec.cxx">
<polygon fill="none" stroke="#000000" points="1129,-.5 1129,-52.5 1286,-52.5 1286,-.5 1129,-.5"/>
<text text-anchor="start" x="1137" y="-40.5" font-family="Helvetica,sans-Serif" font-size="10.00" fill="#000000">/home/travis/build</text>
<text text-anchor="start" x="1137" y="-29.5" font-family="Helvetica,sans-Serif" font-size="10.00" fill="#000000">/AliceO2Group/AliceO2</text>
<text text-anchor="start" x="1137" y="-18.5" font-family="Helvetica,sans-Serif" font-size="10.00" fill="#000000">/Detectors/TPC/workflow</text>
<text text-anchor="middle" x="1207.5" y="-7.5" font-family="Helvetica,sans-Serif" font-size="10.00" fill="#000000">/src/EntropyEncoderSpec.cxx</text>
</a>
</g>
</g>
<!-- Node6&#45;&gt;Node18 -->
<g id="edge21" class="edge">
<title>Node6&#45;&gt;Node18</title>
<path fill="none" stroke="#191970" d="M803.3052,-310.6798C892.0904,-299.3014 1019.9475,-279.0969 1062.5,-253 1139.118,-206.0111 1182.4976,-101.6184 1199.3038,-52.721"/>
<polygon fill="#191970" stroke="#191970" points="802.7026,-307.2281 793.2211,-311.9559 803.5815,-314.1727 802.7026,-307.2281"/>
</g>
<!-- Node19 -->
<g id="node14" class="node">
<title>Node19</title>
<g id="a_node14"><a xlink:href="../../da/d78/CATrackerSpec_8cxx.html" target="_top" xlink:title="Processor spec for running TPC CA tracking. ">
<polygon fill="none" stroke="#000000" points="1206.5,-195 1206.5,-247 1342.5,-247 1342.5,-195 1206.5,-195"/>
<text text-anchor="start" x="1214.5" y="-235" font-family="Helvetica,sans-Serif" font-size="10.00" fill="#000000">/home/travis/build</text>
<text text-anchor="start" x="1214.5" y="-224" font-family="Helvetica,sans-Serif" font-size="10.00" fill="#000000">/AliceO2Group/AliceO2</text>
<text text-anchor="start" x="1214.5" y="-213" font-family="Helvetica,sans-Serif" font-size="10.00" fill="#000000">/Detectors/TPC/workflow</text>
<text text-anchor="middle" x="1274.5" y="-202" font-family="Helvetica,sans-Serif" font-size="10.00" fill="#000000">/src/CATrackerSpec.cxx</text>
</a>
</g>
</g>
<!-- Node6&#45;&gt;Node19 -->
<g id="edge19" class="edge">
<title>Node6&#45;&gt;Node19</title>
<path fill="none" stroke="#191970" d="M803.1422,-314.445C900.5809,-305.9488 1059.4165,-287.8904 1192.5,-253 1198.8563,-251.3336 1205.3908,-249.3241 1211.8643,-247.1339"/>
<polygon fill="#191970" stroke="#191970" points="802.6965,-310.9703 793.0319,-315.3114 803.2942,-317.9447 802.6965,-310.9703"/>
</g>
<!-- Node20 -->
<g id="node15" class="node">
<title>Node20</title>
<g id="a_node15"><a xlink:href="../../d0/d80/TPC_2workflow_2src_2RecoWorkflow_8cxx.html" target="_top" xlink:title="/home/travis/build\l/AliceO2Group/AliceO2\l/Detectors/TPC/workflow\l/src/RecoWorkflow.cxx">
<polygon fill="none" stroke="#000000" points="1360.5,-195 1360.5,-247 1496.5,-247 1496.5,-195 1360.5,-195"/>
<text text-anchor="start" x="1368.5" y="-235" font-family="Helvetica,sans-Serif" font-size="10.00" fill="#000000">/home/travis/build</text>
<text text-anchor="start" x="1368.5" y="-224" font-family="Helvetica,sans-Serif" font-size="10.00" fill="#000000">/AliceO2Group/AliceO2</text>
<text text-anchor="start" x="1368.5" y="-213" font-family="Helvetica,sans-Serif" font-size="10.00" fill="#000000">/Detectors/TPC/workflow</text>
<text text-anchor="middle" x="1428.5" y="-202" font-family="Helvetica,sans-Serif" font-size="10.00" fill="#000000">/src/RecoWorkflow.cxx</text>
</a>
</g>
</g>
<!-- Node6&#45;&gt;Node20 -->
<g id="edge22" class="edge">
<title>Node6&#45;&gt;Node20</title>
<path fill="none" stroke="#191970" d="M803.3443,-314.5681C954.2744,-303.3398 1250.1236,-278.8795 1351.5,-253 1357.812,-251.3887 1364.2842,-249.355 1370.6652,-247.0974"/>
<polygon fill="#191970" stroke="#191970" points="802.8884,-311.0921 793.1741,-315.3209 803.4053,-318.073 802.8884,-311.0921"/>
</g>
<!-- Node7&#45;&gt;Node8 -->
<g id="edge2" class="edge">
<title>Node7&#45;&gt;Node8</title>
<path fill="none" stroke="#191970" d="M210.7032,-184.7911C187.0396,-172.3367 161.0231,-158.6437 139.1808,-147.1478"/>
<polygon fill="#191970" stroke="#191970" points="209.1643,-187.9363 219.6436,-189.4966 212.4245,-181.7419 209.1643,-187.9363"/>
</g>
<!-- Node7&#45;&gt;Node9 -->
<g id="edge3" class="edge">
<title>Node7&#45;&gt;Node9</title>
<path fill="none" stroke="#191970" d="M287.3851,-179.4993C289.4709,-168.5216 291.6636,-156.9808 293.5452,-147.078"/>
<polygon fill="#191970" stroke="#191970" points="283.9399,-178.8818 285.5117,-189.3594 290.8169,-180.1885 283.9399,-178.8818"/>
</g>
<!-- Node10&#45;&gt;Node11 -->
<g id="edge5" class="edge">
<title>Node10&#45;&gt;Node11</title>
<path fill="none" stroke="#191970" d="M653.9889,-190.2047C627.7362,-176.3875 597.0996,-160.263 572.0065,-147.0561"/>
<polygon fill="#191970" stroke="#191970" points="652.5964,-193.4269 663.0757,-194.9872 655.8567,-187.2325 652.5964,-193.4269"/>
</g>
<!-- Node10&#45;&gt;Node12 -->
<g id="edge6" class="edge">
<title>Node10&#45;&gt;Node12</title>
<path fill="none" stroke="#191970" d="M664.8259,-188.1589C653.5385,-178.1458 642.7017,-166.2382 635.5,-153 618.4135,-121.5917 615.3037,-79.6555 615.3486,-52.8562"/>
<polygon fill="#191970" stroke="#191970" points="662.7736,-191.0067 672.6732,-194.7815 667.2883,-185.6571 662.7736,-191.0067"/>
</g>
<!-- Node13 -->
<g id="node8" class="node">
<title>Node13</title>
<g id="a_node8"><a xlink:href="../../d8/d12/CTFReaderSpec_8cxx.html" target="_top" xlink:title="/home/travis/build\l/AliceO2Group/AliceO2\l/Detectors/CTF/workflow\l/src/CTFReaderSpec.cxx">
<polygon fill="none" stroke="#000000" points="645,-95 645,-147 780,-147 780,-95 645,-95"/>
<text text-anchor="start" x="653" y="-135" font-family="Helvetica,sans-Serif" font-size="10.00" fill="#000000">/home/travis/build</text>
<text text-anchor="start" x="653" y="-124" font-family="Helvetica,sans-Serif" font-size="10.00" fill="#000000">/AliceO2Group/AliceO2</text>
<text text-anchor="start" x="653" y="-113" font-family="Helvetica,sans-Serif" font-size="10.00" fill="#000000">/Detectors/CTF/workflow</text>
<text text-anchor="middle" x="712.5" y="-102" font-family="Helvetica,sans-Serif" font-size="10.00" fill="#000000">/src/CTFReaderSpec.cxx</text>
</a>
</g>
</g>
<!-- Node10&#45;&gt;Node13 -->
<g id="edge7" class="edge">
<title>Node10&#45;&gt;Node13</title>
<path fill="none" stroke="#191970" d="M712.5,-184.8962C712.5,-172.4433 712.5,-158.7413 712.5,-147.2299"/>
<polygon fill="#191970" stroke="#191970" points="709.0001,-184.9872 712.5,-194.9872 716.0001,-184.9873 709.0001,-184.9872"/>
</g>
<!-- Node14 -->
<g id="node9" class="node">
<title>Node14</title>
<g id="a_node9"><a xlink:href="../../d4/dd7/CTFWriterSpec_8cxx.html" target="_top" xlink:title="/home/travis/build\l/AliceO2Group/AliceO2\l/Detectors/CTF/workflow\l/src/CTFWriterSpec.cxx">
<polygon fill="none" stroke="#000000" points="798,-95 798,-147 933,-147 933,-95 798,-95"/>
<text text-anchor="start" x="806" y="-135" font-family="Helvetica,sans-Serif" font-size="10.00" fill="#000000">/home/travis/build</text>
<text text-anchor="start" x="806" y="-124" font-family="Helvetica,sans-Serif" font-size="10.00" fill="#000000">/AliceO2Group/AliceO2</text>
<text text-anchor="start" x="806" y="-113" font-family="Helvetica,sans-Serif" font-size="10.00" fill="#000000">/Detectors/CTF/workflow</text>
<text text-anchor="middle" x="865.5" y="-102" font-family="Helvetica,sans-Serif" font-size="10.00" fill="#000000">/src/CTFWriterSpec.cxx</text>
</a>
</g>
</g>
<!-- Node10&#45;&gt;Node14 -->
<g id="edge8" class="edge">
<title>Node10&#45;&gt;Node14</title>
<path fill="none" stroke="#191970" d="M760.7278,-189.4786C781.6177,-175.8251 805.7806,-160.0323 825.6342,-147.0561"/>
<polygon fill="#191970" stroke="#191970" points="758.7553,-186.5864 752.2995,-194.9872 762.5851,-192.4459 758.7553,-186.5864"/>
</g>
<!-- Node10&#45;&gt;Node15 -->
<g id="edge9" class="edge">
<title>Node10&#45;&gt;Node15</title>
<path fill="none" stroke="#191970" d="M813.9563,-192.1272C853.8574,-180.4452 899.9733,-166.5375 941.5,-153 944.4957,-152.0234 947.5424,-151.0155 950.6162,-149.9864"/>
<polygon fill="#191970" stroke="#191970" points="812.8376,-188.8077 804.2192,-194.97 814.7994,-195.5271 812.8376,-188.8077"/>
</g>
<!-- Node15&#45;&gt;Node12 -->
<g id="edge10" class="edge">
<title>Node15&#45;&gt;Node12</title>
<path fill="none" stroke="#191970" d="M940.802,-89.1233C894.2414,-78.0614 762.91,-53.5028 682.1266,-38.5685"/>
<polygon fill="#191970" stroke="#191970" points="940.178,-92.5755 950.7306,-91.6308 941.8921,-85.7886 940.178,-92.5755"/>
</g>
<!-- Node16 -->
<g id="node11" class="node">
<title>Node16</title>
<g id="a_node11"><a xlink:href="../../d4/d51/TPC_2reconstruction_2src_2CTFCoder_8cxx.html" target="_top" xlink:title="/home/travis/build\l/AliceO2Group/AliceO2\l/Detectors/TPC/reconstruction\l/src/CTFCoder.cxx">
<polygon fill="none" stroke="#000000" points="773,-.5 773,-52.5 934,-52.5 934,-.5 773,-.5"/>
<text text-anchor="start" x="781" y="-40.5" font-family="Helvetica,sans-Serif" font-size="10.00" fill="#000000">/home/travis/build</text>
<text text-anchor="start" x="781" y="-29.5" font-family="Helvetica,sans-Serif" font-size="10.00" fill="#000000">/AliceO2Group/AliceO2</text>
<text text-anchor="start" x="781" y="-18.5" font-family="Helvetica,sans-Serif" font-size="10.00" fill="#000000">/Detectors/TPC/reconstruction</text>
<text text-anchor="middle" x="853.5" y="-7.5" font-family="Helvetica,sans-Serif" font-size="10.00" fill="#000000">/src/CTFCoder.cxx</text>
</a>
</g>
</g>
<!-- Node15&#45;&gt;Node16 -->
<g id="edge11" class="edge">
<title>Node15&#45;&gt;Node16</title>
<path fill="none" stroke="#191970" d="M962.668,-84.4572C942.6843,-73.8479 921.2688,-62.4784 902.7451,-52.6442"/>
<polygon fill="#191970" stroke="#191970" points="961.2597,-87.6722 971.7334,-89.27 964.5422,-81.4894 961.2597,-87.6722"/>
</g>
<!-- Node15&#45;&gt;Node17 -->
<g id="edge12" class="edge">
<title>Node15&#45;&gt;Node17</title>
<path fill="none" stroke="#191970" d="M1031.5,-79.2457C1031.5,-70.2008 1031.5,-60.8836 1031.5,-52.6442"/>
<polygon fill="#191970" stroke="#191970" points="1028.0001,-79.2699 1031.5,-89.27 1035.0001,-79.27 1028.0001,-79.2699"/>
</g>
<!-- Node15&#45;&gt;Node18 -->
<g id="edge13" class="edge">
<title>Node15&#45;&gt;Node18</title>
<path fill="none" stroke="#191970" d="M1099.5586,-84.4572C1119.3177,-73.8479 1140.4927,-62.4784 1158.8082,-52.6442"/>
<polygon fill="#191970" stroke="#191970" points="1097.7497,-81.4558 1090.5951,-89.27 1101.0611,-87.623 1097.7497,-81.4558"/>
</g>
</g>
</svg>
        <g id="navigator" transform="translate(0 0)" fill="#404254">
                <rect fill="#f2f5e9" fill-opacity="0.5" stroke="#606060" stroke-width=".5" x="0" y="0" width="60" height="60"/>
                <use id="zoomplus" xlink:href="#zoomPlus" x="17" y="9" onmousedown="handleZoom(evt,'in')"/>
                <use id="zoomminus" xlink:href="#zoomMin" x="42" y="9" onmousedown="handleZoom(evt,'out')"/>
                <use id="reset" xlink:href="#resetDef" x="30" y="36" onmousedown="handleReset()"/>
                <g id="arrowUp" xlink:href="#dirArrow" transform="translate(30 24)" onmousedown="handlePan(0,-1)">
                  <use xlink:href="#rim" fill="#404040">
                        <set attributeName="fill" to="#808080" begin="arrowUp.mouseover" end="arrowUp.mouseout"/>
                  </use>
                  <path fill="none" stroke="white" stroke-width="1.5" d="M0,-3.0v7 M-2.5,-0.5L0,-3.0L2.5,-0.5"/>
                </g>
                <g id="arrowRight" xlink:href="#dirArrow" transform="rotate(90) translate(36 -43)" onmousedown="handlePan(1,0)">
                  <use xlink:href="#rim" fill="#404040">
                        <set attributeName="fill" to="#808080" begin="arrowRight.mouseover" end="arrowRight.mouseout"/>
                  </use>
                  <path fill="none" stroke="white" stroke-width="1.5" d="M0,-3.0v7 M-2.5,-0.5L0,-3.0L2.5,-0.5"/>
                </g>
                <g id="arrowDown" xlink:href="#dirArrow" transform="rotate(180) translate(-30 -48)" onmousedown="handlePan(0,1)">
                  <use xlink:href="#rim" fill="#404040">
                        <set attributeName="fill" to="#808080" begin="arrowDown.mouseover" end="arrowDown.mouseout"/>
                  </use>
                  <path fill="none" stroke="white" stroke-width="1.5" d="M0,-3.0v7 M-2.5,-0.5L0,-3.0L2.5,-0.5"/>
                </g>
                <g id="arrowLeft" xlink:href="#dirArrow" transform="rotate(270) translate(-36 17)" onmousedown="handlePan(-1,0)">
                  <use xlink:href="#rim" fill="#404040">
                        <set attributeName="fill" to="#808080" begin="arrowLeft.mouseover" end="arrowLeft.mouseout"/>
                  </use>
                  <path fill="none" stroke="white" stroke-width="1.5" d="M0,-3.0v7 M-2.5,-0.5L0,-3.0L2.5,-0.5"/>
                </g>
        </g>
        <svg viewBox="0 0 15 15" width="100%" height="30px" preserveAspectRatio="xMaxYMin meet">
         <g id="arrow_out" transform="scale(0.3 0.3)">
          <a xlink:href="CompressedClusters_8h__dep__incl_org.svg" target="_base">
           <rect id="button" ry="5" rx="5" y="6" x="6" height="38" width="38"
                fill="#f2f5e9" fill-opacity="0.5" stroke="#606060" stroke-width="1.0"/>
           <path id="arrow"
             d="M 11.500037,31.436501 C 11.940474,20.09759 22.043105,11.32322 32.158766,21.979434 L 37.068811,17.246167 C 37.068811,17.246167 37.088388,32 37.088388,32 L 22.160133,31.978069 C 22.160133,31.978069 26.997745,27.140456 26.997745,27.140456 C 18.528582,18.264221 13.291696,25.230495 11.500037,31.436501 z"
             style="fill:#404040;"/>
          </a>
         </g>
        </svg>
</svg>
