<?xml version="1.0" encoding="UTF-8" standalone="no"?>
<!DOCTYPE svg PUBLIC "-//W3C//DTD SVG 1.1//EN"
 "http://www.w3.org/Graphics/SVG/1.1/DTD/svg11.dtd">
<!-- Generated by graphviz version 2.40.1 (20161225.0304)
 -->
<!-- Title: /home/travis/build/AliceO2Group/AliceO2/Detectors/FIT/FT0/raw/include/FT0Raw/DataBlockRaw.h Pages: 1 -->
<!--zoomable 352 -->
<svg id="main" version="1.1" xmlns="http://www.w3.org/2000/svg" xmlns:xlink="http://www.w3.org/1999/xlink" xml:space="preserve" onload="init(evt)">
<style type="text/css"><![CDATA[
.edge:hover path { stroke: red; }
.edge:hover polygon { stroke: red; fill: red; }
]]></style>
<script type="text/javascript"><![CDATA[
var edges = document.getElementsByTagName('g');
if (edges && edges.length) {
  for (var i=0;i<edges.length;i++) {
    if (edges[i].id.substr(0,4)=='edge') {
      edges[i].setAttribute('class','edge');
    }
  }
}
]]></script>
        <defs>
                <circle id="rim" cx="0" cy="0" r="7"/>
                <circle id="rim2" cx="0" cy="0" r="3.5"/>
                <g id="zoomPlus">
                        <use xlink:href="#rim" fill="#404040">
                                <set attributeName="fill" to="#808080" begin="zoomplus.mouseover" end="zoomplus.mouseout"/>
                        </use>
                        <path d="M-4,0h8M0,-4v8" fill="none" stroke="white" stroke-width="1.5" pointer-events="none"/>
                </g>
                <g id="zoomMin">
                        <use xlink:href="#rim" fill="#404040">
                                <set attributeName="fill" to="#808080" begin="zoomminus.mouseover" end="zoomminus.mouseout"/>
                        </use>
                        <path d="M-4,0h8" fill="none" stroke="white" stroke-width="1.5" pointer-events="none"/>
                </g>
                <g id="dirArrow">
                        <path fill="none" stroke="white" stroke-width="1.5" d="M0,-3.0v7 M-2.5,-0.5L0,-3.0L2.5,-0.5"/>
                </g>
               <g id="resetDef">
                       <use xlink:href="#rim2" fill="#404040">
                               <set attributeName="fill" to="#808080" begin="reset.mouseover" end="reset.mouseout"/>
                       </use>
               </g>
        </defs>

<script type="text/javascript">
var viewWidth = 1888;
var viewHeight = 352;
var sectionId = 'dynsection-0';
</script>
<script xlink:href="../../svgpan.js"/>
<svg id="graph" class="graph">
<g id="viewport">
<title>/home/travis/build/AliceO2Group/AliceO2/Detectors/FIT/FT0/raw/include/FT0Raw/DataBlockRaw.h</title>
<!-- Node0 -->
<g id="node1" class="node">
<title>Node0</title>
<polygon fill="#bfbfbf" stroke="#000000" points="1340.5,-291.5 1340.5,-343.5 1519.5,-343.5 1519.5,-291.5 1340.5,-291.5"/>
<text text-anchor="start" x="1348.5" y="-331.5" font-family="Helvetica,sans-Serif" font-size="10.00" fill="#000000">/home/travis/build</text>
<text text-anchor="start" x="1348.5" y="-320.5" font-family="Helvetica,sans-Serif" font-size="10.00" fill="#000000">/AliceO2Group/AliceO2</text>
<text text-anchor="start" x="1348.5" y="-309.5" font-family="Helvetica,sans-Serif" font-size="10.00" fill="#000000">/Detectors/FIT/FT0/raw</text>
<text text-anchor="middle" x="1430" y="-298.5" font-family="Helvetica,sans-Serif" font-size="10.00" fill="#000000">/include/FT0Raw/DataBlockRaw.h</text>
</g>
<!-- Node1 -->
<g id="node2" class="node">
<title>Node1</title>
<polygon fill="none" stroke="#bfbfbf" points="1148,-118 1148,-137 1208,-137 1208,-118 1148,-118"/>
<text text-anchor="middle" x="1178" y="-125" font-family="Helvetica,sans-Serif" font-size="10.00" fill="#000000">iostream</text>
</g>
<!-- Node0&#45;&gt;Node1 -->
<g id="edge1" class="edge">
<title>Node0&#45;&gt;Node1</title>
<path fill="none" stroke="#191970" d="M1340.494,-298.6115C1285.5453,-282.0524 1219.0099,-252.0163 1183,-199 1172.7605,-183.9247 1172.6003,-162.6976 1174.3382,-147.2913"/>
<polygon fill="#191970" stroke="#191970" points="1177.819,-147.6779 1175.8221,-137.2729 1170.8946,-146.6522 1177.819,-147.6779"/>
</g>
<!-- Node2 -->
<g id="node3" class="node">
<title>Node2</title>
<polygon fill="none" stroke="#bfbfbf" points="1496.5,-235.5 1496.5,-254.5 1543.5,-254.5 1543.5,-235.5 1496.5,-235.5"/>
<text text-anchor="middle" x="1520" y="-242.5" font-family="Helvetica,sans-Serif" font-size="10.00" fill="#000000">vector</text>
</g>
<!-- Node0&#45;&gt;Node2 -->
<g id="edge2" class="edge">
<title>Node0&#45;&gt;Node2</title>
<path fill="none" stroke="#191970" d="M1462.4921,-291.3258C1475.1709,-281.1123 1489.2888,-269.7396 1500.3634,-260.8184"/>
<polygon fill="#191970" stroke="#191970" points="1502.5728,-263.533 1508.1647,-254.534 1498.1815,-258.0817 1502.5728,-263.533"/>
</g>
<!-- Node3 -->
<g id="node4" class="node">
<title>Node3</title>
<polygon fill="none" stroke="#bfbfbf" points="1042.5,-.5 1042.5,-19.5 1101.5,-19.5 1101.5,-.5 1042.5,-.5"/>
<text text-anchor="middle" x="1072" y="-7.5" font-family="Helvetica,sans-Serif" font-size="10.00" fill="#000000">Rtypes.h</text>
</g>
<!-- Node0&#45;&gt;Node3 -->
<g id="edge3" class="edge">
<title>Node0&#45;&gt;Node3</title>
<path fill="none" stroke="#191970" d="M1442.6534,-291.0983C1453.7077,-265.5801 1468,-225.5246 1468,-189 1468,-189 1468,-189 1468,-127.5 1468,-53.7365 1212.2786,-22.6477 1111.8274,-13.281"/>
<polygon fill="#191970" stroke="#191970" points="1112.0399,-9.786 1101.7644,-12.3673 1111.4069,-16.7573 1112.0399,-9.786"/>
</g>
<!-- Node4 -->
<g id="node5" class="node">
<title>Node4</title>
<g id="a_node5"><a xlink:href="../../d9/d80/InteractionRecord_8h.html" target="_top" xlink:title="CommonDataFormat/Interaction\lRecord.h">
<polygon fill="none" stroke="#000000" points="119,-112.5 119,-142.5 293,-142.5 293,-112.5 119,-112.5"/>
<text text-anchor="start" x="127" y="-130.5" font-family="Helvetica,sans-Serif" font-size="10.00" fill="#000000">CommonDataFormat/Interaction</text>
<text text-anchor="middle" x="206" y="-119.5" font-family="Helvetica,sans-Serif" font-size="10.00" fill="#000000">Record.h</text>
</a>
</g>
</g>
<!-- Node0&#45;&gt;Node4 -->
<g id="edge4" class="edge">
<title>Node0&#45;&gt;Node4</title>
<path fill="none" stroke="#191970" d="M1340.4253,-311.6122C1168.605,-299.2019 781.4289,-265.8309 462,-199 392.4104,-184.4405 313.8588,-161.508 262.3384,-145.5545"/>
<polygon fill="#191970" stroke="#191970" points="263.312,-142.1919 252.7236,-142.561 261.231,-148.8755 263.312,-142.1919"/>
</g>
<!-- Node10 -->
<g id="node11" class="node">
<title>Node10</title>
<g id="a_node11"><a xlink:href="../../d1/dfe/RawEventData_8h.html" target="_top" xlink:title="DataFormatsFT0/RawEventData.h">
<polygon fill="none" stroke="#000000" points="868.5,-235.5 868.5,-254.5 1049.5,-254.5 1049.5,-235.5 868.5,-235.5"/>
<text text-anchor="middle" x="959" y="-242.5" font-family="Helvetica,sans-Serif" font-size="10.00" fill="#000000">DataFormatsFT0/RawEventData.h</text>
</a>
</g>
</g>
<!-- Node0&#45;&gt;Node10 -->
<g id="edge11" class="edge">
<title>Node0&#45;&gt;Node10</title>
<path fill="none" stroke="#191970" d="M1340.2999,-303.6927C1250.4947,-289.8691 1114.0541,-268.8671 1031.0554,-256.0913"/>
<polygon fill="#191970" stroke="#191970" points="1031.3722,-252.599 1020.9561,-254.5368 1030.3072,-259.5175 1031.3722,-252.599"/>
</g>
<!-- Node18 -->
<g id="node19" class="node">
<title>Node18</title>
<polygon fill="none" stroke="#bfbfbf" points="1034.5,-118 1034.5,-137 1091.5,-137 1091.5,-118 1034.5,-118"/>
<text text-anchor="middle" x="1063" y="-125" font-family="Helvetica,sans-Serif" font-size="10.00" fill="#000000">gsl/span</text>
</g>
<!-- Node0&#45;&gt;Node18 -->
<g id="edge41" class="edge">
<title>Node0&#45;&gt;Node18</title>
<path fill="none" stroke="#191970" d="M1340.4884,-300.2791C1300.5896,-290.42 1253.9188,-275.7805 1215,-255 1158.8284,-225.0075 1104.5154,-171.8396 1078.6716,-144.6113"/>
<polygon fill="#191970" stroke="#191970" points="1080.9828,-141.9586 1071.5945,-137.0482 1075.8715,-146.7414 1080.9828,-141.9586"/>
</g>
<!-- Node22 -->
<g id="node23" class="node">
<title>Node22</title>
<polygon fill="none" stroke="#bfbfbf" points="1312,-118 1312,-137 1364,-137 1364,-118 1312,-118"/>
<text text-anchor="middle" x="1338" y="-125" font-family="Helvetica,sans-Serif" font-size="10.00" fill="#000000">cassert</text>
</g>
<!-- Node0&#45;&gt;Node22 -->
<g id="edge46" class="edge">
<title>Node0&#45;&gt;Node22</title>
<path fill="none" stroke="#191970" d="M1420.7081,-291.3095C1410.2659,-262.9522 1392.122,-216.7207 1372,-179 1365.8094,-167.3952 1357.7373,-155.0771 1351.0118,-145.3986"/>
<polygon fill="#191970" stroke="#191970" points="1353.7217,-143.1694 1345.0817,-137.0375 1348.012,-147.219 1353.7217,-143.1694"/>
</g>
<!-- Node23 -->
<g id="node24" class="node">
<title>Node23</title>
<polygon fill="none" stroke="#bfbfbf" points="1393.5,-118 1393.5,-137 1434.5,-137 1434.5,-118 1393.5,-118"/>
<text text-anchor="middle" x="1414" y="-125" font-family="Helvetica,sans-Serif" font-size="10.00" fill="#000000">tuple</text>
</g>
<!-- Node0&#45;&gt;Node23 -->
<g id="edge44" class="edge">
<title>Node0&#45;&gt;Node23</title>
<path fill="none" stroke="#191970" d="M1427.8088,-291.4797C1424.5793,-253.129 1418.6096,-182.2386 1415.6929,-147.6029"/>
<polygon fill="#191970" stroke="#191970" points="1419.156,-147.0171 1414.8291,-137.3461 1412.1807,-147.6046 1419.156,-147.0171"/>
</g>
<!-- Node27 -->
<g id="node28" class="node">
<title>Node27</title>
<polygon fill="none" stroke="#bfbfbf" points="1561.5,-235.5 1561.5,-254.5 1682.5,-254.5 1682.5,-235.5 1561.5,-235.5"/>
<text text-anchor="middle" x="1622" y="-242.5" font-family="Helvetica,sans-Serif" font-size="10.00" fill="#000000">boost/mpl/inherit.hpp</text>
</g>
<!-- Node0&#45;&gt;Node27 -->
<g id="edge42" class="edge">
<title>Node0&#45;&gt;Node27</title>
<path fill="none" stroke="#191970" d="M1499.0451,-291.4283C1528.904,-280.1534 1562.5487,-267.449 1587.086,-258.1837"/>
<polygon fill="#191970" stroke="#191970" points="1588.5568,-261.3696 1596.6757,-254.5626 1586.084,-254.8209 1588.5568,-261.3696"/>
</g>
<!-- Node28 -->
<g id="node29" class="node">
<title>Node28</title>
<polygon fill="none" stroke="#bfbfbf" points="1700.5,-235.5 1700.5,-254.5 1819.5,-254.5 1819.5,-235.5 1700.5,-235.5"/>
<text text-anchor="middle" x="1760" y="-242.5" font-family="Helvetica,sans-Serif" font-size="10.00" fill="#000000">boost/mpl/vector.hpp</text>
</g>
<!-- Node0&#45;&gt;Node28 -->
<g id="edge43" class="edge">
<title>Node0&#45;&gt;Node28</title>
<path fill="none" stroke="#191970" d="M1519.7381,-297.7848C1579.5547,-284.6433 1656.1663,-267.812 1706.5985,-256.7322"/>
<polygon fill="#191970" stroke="#191970" points="1707.619,-260.0915 1716.635,-254.5272 1706.1169,-253.2546 1707.619,-260.0915"/>
</g>
<!-- Node29 -->
<g id="node30" class="node">
<title>Node29</title>
<polygon fill="none" stroke="#bfbfbf" points="1838,-235.5 1838,-254.5 1880,-254.5 1880,-235.5 1838,-235.5"/>
<text text-anchor="middle" x="1859" y="-242.5" font-family="Helvetica,sans-Serif" font-size="10.00" fill="#000000">array</text>
</g>
<!-- Node0&#45;&gt;Node29 -->
<g id="edge45" class="edge">
<title>Node0&#45;&gt;Node29</title>
<path fill="none" stroke="#191970" d="M1519.6942,-307.4816C1600.8742,-297.4547 1723.3895,-279.9249 1828,-255 1828.0997,-254.9762 1828.1996,-254.9523 1828.2995,-254.9282"/>
<polygon fill="#191970" stroke="#191970" points="1829.0606,-258.3489 1837.7786,-252.3284 1827.209,-251.5982 1829.0606,-258.3489"/>
</g>
<!-- Node5 -->
<g id="node6" class="node">
<title>Node5</title>
<g id="a_node6"><a xlink:href="../../d2/d45/GPUCommonRtypes_8h.html" target="_top" xlink:title="GPUCommonRtypes.h">
<polygon fill="none" stroke="#000000" points="566.5,-56.5 566.5,-75.5 691.5,-75.5 691.5,-56.5 566.5,-56.5"/>
<text text-anchor="middle" x="629" y="-63.5" font-family="Helvetica,sans-Serif" font-size="10.00" fill="#000000">GPUCommonRtypes.h</text>
</a>
</g>
</g>
<!-- Node4&#45;&gt;Node5 -->
<g id="edge5" class="edge">
<title>Node4&#45;&gt;Node5</title>
<path fill="none" stroke="#191970" d="M293.1088,-113.3564C296.1082,-112.8946 299.0787,-112.4413 302,-112 389.3485,-98.806 490.0166,-84.8295 556.3234,-75.7927"/>
<polygon fill="#191970" stroke="#191970" points="556.8202,-79.2574 566.2568,-74.4408 555.8762,-72.3214 556.8202,-79.2574"/>
</g>
<!-- Node6 -->
<g id="node7" class="node">
<title>Node6</title>
<polygon fill="none" stroke="#bfbfbf" points="342.5,-56.5 342.5,-75.5 391.5,-75.5 391.5,-56.5 342.5,-56.5"/>
<text text-anchor="middle" x="367" y="-63.5" font-family="Helvetica,sans-Serif" font-size="10.00" fill="#000000">iosfwd</text>
</g>
<!-- Node4&#45;&gt;Node6 -->
<g id="edge7" class="edge">
<title>Node4&#45;&gt;Node6</title>
<path fill="none" stroke="#191970" d="M245.385,-112.4554C272.0127,-102.284 306.8444,-88.9787 332.4034,-79.2155"/>
<polygon fill="#191970" stroke="#191970" points="333.958,-82.3684 342.0507,-75.5303 331.4601,-75.8292 333.958,-82.3684"/>
</g>
<!-- Node7 -->
<g id="node8" class="node">
<title>Node7</title>
<polygon fill="none" stroke="#bfbfbf" points="68.5,-56.5 68.5,-75.5 115.5,-75.5 115.5,-56.5 68.5,-56.5"/>
<text text-anchor="middle" x="92" y="-63.5" font-family="Helvetica,sans-Serif" font-size="10.00" fill="#000000">cmath</text>
</g>
<!-- Node4&#45;&gt;Node7 -->
<g id="edge8" class="edge">
<title>Node4&#45;&gt;Node7</title>
<path fill="none" stroke="#191970" d="M178.1125,-112.4554C160.0924,-102.734 136.7659,-90.15 118.9368,-80.5317"/>
<polygon fill="#191970" stroke="#191970" points="120.1287,-77.1979 109.666,-75.5303 116.8052,-83.3586 120.1287,-77.1979"/>
</g>
<!-- Node8 -->
<g id="node9" class="node">
<title>Node8</title>
<polygon fill="none" stroke="#bfbfbf" points="0,-56.5 0,-75.5 50,-75.5 50,-56.5 0,-56.5"/>
<text text-anchor="middle" x="25" y="-63.5" font-family="Helvetica,sans-Serif" font-size="10.00" fill="#000000">cstdint</text>
</g>
<!-- Node4&#45;&gt;Node8 -->
<g id="edge9" class="edge">
<title>Node4&#45;&gt;Node8</title>
<path fill="none" stroke="#191970" d="M161.7224,-112.4554C130.3598,-101.7991 88.8735,-87.7029 59.8578,-77.8439"/>
<polygon fill="#191970" stroke="#191970" points="60.7461,-74.4493 50.1517,-74.546 58.494,-81.0772 60.7461,-74.4493"/>
</g>
<!-- Node9 -->
<g id="node10" class="node">
<title>Node9</title>
<g id="a_node10"><a xlink:href="../../d4/dc6/LHCConstants_8h.html" target="_top" xlink:title="Header to collect LHC related constants. ">
<polygon fill="none" stroke="#000000" points="134,-56.5 134,-75.5 324,-75.5 324,-56.5 134,-56.5"/>
<text text-anchor="middle" x="229" y="-63.5" font-family="Helvetica,sans-Serif" font-size="10.00" fill="#000000">CommonConstants/LHCConstants.h</text>
</a>
</g>
</g>
<!-- Node4&#45;&gt;Node9 -->
<g id="edge10" class="edge">
<title>Node4&#45;&gt;Node9</title>
<path fill="none" stroke="#191970" d="M211.6854,-112.2977C214.745,-104.1166 218.5498,-93.943 221.8128,-85.2179"/>
<polygon fill="#191970" stroke="#191970" points="225.0927,-86.4394 225.3174,-75.8469 218.5362,-83.9873 225.0927,-86.4394"/>
</g>
<!-- Node5&#45;&gt;Node3 -->
<g id="edge6" class="edge">
<title>Node5&#45;&gt;Node3</title>
<path fill="none" stroke="#191970" d="M691.5315,-58.0953C784.0136,-46.4046 954.6407,-24.8355 1032.0016,-15.0562"/>
<polygon fill="#191970" stroke="#191970" points="1032.7987,-18.4834 1042.2807,-13.7568 1031.9207,-11.5387 1032.7987,-18.4834"/>
</g>
<!-- Node10&#45;&gt;Node1 -->
<g id="edge37" class="edge">
<title>Node10&#45;&gt;Node1</title>
<path fill="none" stroke="#191970" d="M983.6679,-235.3961C1005.2569,-226.7091 1037.2598,-213.1444 1064,-199 1096.8524,-181.6226 1132.8966,-158.2322 1155.4797,-143.0123"/>
<polygon fill="#191970" stroke="#191970" points="1157.6972,-145.7372 1164.0038,-137.2238 1153.7647,-139.9462 1157.6972,-145.7372"/>
</g>
<!-- Node10&#45;&gt;Node3 -->
<g id="edge40" class="edge">
<title>Node10&#45;&gt;Node3</title>
<path fill="none" stroke="#191970" d="M975.8587,-235.4669C1010.2627,-215.618 1086.4621,-169.5021 1100,-143 1119.2267,-105.3611 1097.8412,-55.2826 1083.2618,-28.5978"/>
<polygon fill="#191970" stroke="#191970" points="1086.1116,-26.5309 1078.1063,-19.5908 1080.0364,-30.0083 1086.1116,-26.5309"/>
</g>
<!-- Node10&#45;&gt;Node4 -->
<g id="edge35" class="edge">
<title>Node10&#45;&gt;Node4</title>
<path fill="none" stroke="#191970" d="M868.3027,-235.8491C790.9552,-227.6152 676.9054,-214.4564 578,-199 476.9496,-183.2084 361.3889,-160.2166 286.2397,-144.6005"/>
<polygon fill="#191970" stroke="#191970" points="286.8707,-141.1569 276.367,-142.543 285.4426,-148.0096 286.8707,-141.1569"/>
</g>
<!-- Node11 -->
<g id="node12" class="node">
<title>Node11</title>
<g id="a_node12"><a xlink:href="../../d0/d0a/DataFormats_2Detectors_2FIT_2FT0_2include_2DataFormatsFT0_2Digit_8h.html" target="_top" xlink:title="DataFormatsFT0/Digit.h">
<polygon fill="none" stroke="#000000" points="587,-179.5 587,-198.5 719,-198.5 719,-179.5 587,-179.5"/>
<text text-anchor="middle" x="653" y="-186.5" font-family="Helvetica,sans-Serif" font-size="10.00" fill="#000000">DataFormatsFT0/Digit.h</text>
</a>
</g>
</g>
<!-- Node10&#45;&gt;Node11 -->
<g id="edge12" class="edge">
<title>Node10&#45;&gt;Node11</title>
<path fill="none" stroke="#191970" d="M906.7444,-235.4369C853.6047,-225.712 771.2778,-210.6456 714.9021,-200.3285"/>
<polygon fill="#191970" stroke="#191970" points="715.5068,-196.8811 705.0401,-198.5237 714.2466,-203.7667 715.5068,-196.8811"/>
</g>
<!-- Node17 -->
<g id="node18" class="node">
<title>Node17</title>
<g id="a_node18"><a xlink:href="../../dc/d44/FIT_2FT0_2include_2DataFormatsFT0_2ChannelData_8h.html" target="_top" xlink:title="DataFormatsFT0/ChannelData.h">
<polygon fill="none" stroke="#000000" points="844,-118 844,-137 1016,-137 1016,-118 844,-118"/>
<text text-anchor="middle" x="930" y="-125" font-family="Helvetica,sans-Serif" font-size="10.00" fill="#000000">DataFormatsFT0/ChannelData.h</text>
</a>
</g>
</g>
<!-- Node10&#45;&gt;Node17 -->
<g id="edge27" class="edge">
<title>Node10&#45;&gt;Node17</title>
<path fill="none" stroke="#191970" d="M970.188,-235.2608C983.4483,-222.4726 1002.6085,-199.265 993,-179 985.6729,-163.5467 971.1868,-151.1919 957.9512,-142.461"/>
<polygon fill="#191970" stroke="#191970" points="959.441,-139.2679 949.0913,-137.0019 955.769,-145.2275 959.441,-139.2679"/>
</g>
<!-- Node20 -->
<g id="node21" class="node">
<title>Node20</title>
<g id="a_node21"><a xlink:href="../../d4/d78/DataFormats_2Headers_2include_2Headers_2RAWDataHeader_8h.html" target="_top" xlink:title="Headers/RAWDataHeader.h">
<polygon fill="none" stroke="#000000" points="94.5,-179.5 94.5,-198.5 243.5,-198.5 243.5,-179.5 94.5,-179.5"/>
<text text-anchor="middle" x="169" y="-186.5" font-family="Helvetica,sans-Serif" font-size="10.00" fill="#000000">Headers/RAWDataHeader.h</text>
</a>
</g>
</g>
<!-- Node10&#45;&gt;Node20 -->
<g id="edge28" class="edge">
<title>Node10&#45;&gt;Node20</title>
<path fill="none" stroke="#191970" d="M868.377,-238.5761C714.3601,-227.6584 403.6895,-205.6362 253.7564,-195.0081"/>
<polygon fill="#191970" stroke="#191970" points="253.9023,-191.5097 243.6798,-194.2938 253.4073,-198.4922 253.9023,-191.5097"/>
</g>
<!-- Node21 -->
<g id="node22" class="node">
<title>Node21</title>
<g id="a_node22"><a xlink:href="../../df/d27/LookUpTable_8h.html" target="_top" xlink:title="DataFormatsFT0/LookUpTable.h">
<polygon fill="none" stroke="#000000" points="1192.5,-179.5 1192.5,-198.5 1363.5,-198.5 1363.5,-179.5 1192.5,-179.5"/>
<text text-anchor="middle" x="1278" y="-186.5" font-family="Helvetica,sans-Serif" font-size="10.00" fill="#000000">DataFormatsFT0/LookUpTable.h</text>
</a>
</g>
</g>
<!-- Node10&#45;&gt;Node21 -->
<g id="edge30" class="edge">
<title>Node10&#45;&gt;Node21</title>
<path fill="none" stroke="#191970" d="M1013.4756,-235.4369C1068.9875,-225.6918 1155.0529,-210.5832 1213.8328,-200.2645"/>
<polygon fill="#191970" stroke="#191970" points="1214.5049,-203.7001 1223.7491,-198.5237 1213.2945,-196.8055 1214.5049,-203.7001"/>
</g>
<!-- Node24 -->
<g id="node25" class="node">
<title>Node24</title>
<g id="a_node25"><a xlink:href="../../dd/da4/Logger_8h.html" target="_top" xlink:title="Framework/Logger.h">
<polygon fill="none" stroke="#000000" points="737.5,-179.5 737.5,-198.5 852.5,-198.5 852.5,-179.5 737.5,-179.5"/>
<text text-anchor="middle" x="795" y="-186.5" font-family="Helvetica,sans-Serif" font-size="10.00" fill="#000000">Framework/Logger.h</text>
</a>
</g>
</g>
<!-- Node10&#45;&gt;Node24 -->
<g id="edge36" class="edge">
<title>Node10&#45;&gt;Node24</title>
<path fill="none" stroke="#191970" d="M930.8074,-235.3733C903.6547,-226.1016 862.4093,-212.0178 832.4975,-201.804"/>
<polygon fill="#191970" stroke="#191970" points="833.4192,-198.4204 822.8247,-198.5011 831.1572,-205.0449 833.4192,-198.4204"/>
</g>
<!-- Node25 -->
<g id="node26" class="node">
<title>Node25</title>
<polygon fill="none" stroke="#bfbfbf" points="870.5,-179.5 870.5,-198.5 915.5,-198.5 915.5,-179.5 870.5,-179.5"/>
<text text-anchor="middle" x="893" y="-186.5" font-family="Helvetica,sans-Serif" font-size="10.00" fill="#000000">utility</text>
</g>
<!-- Node10&#45;&gt;Node25 -->
<g id="edge38" class="edge">
<title>Node10&#45;&gt;Node25</title>
<path fill="none" stroke="#191970" d="M947.5037,-235.2455C937.7558,-226.9746 923.5741,-214.9416 912.1202,-205.2232"/>
<polygon fill="#191970" stroke="#191970" points="914.2541,-202.4437 904.3646,-198.6427 909.7253,-207.7813 914.2541,-202.4437"/>
</g>
<!-- Node26 -->
<g id="node27" class="node">
<title>Node26</title>
<polygon fill="none" stroke="#bfbfbf" points="934,-179.5 934,-198.5 984,-198.5 984,-179.5 934,-179.5"/>
<text text-anchor="middle" x="959" y="-186.5" font-family="Helvetica,sans-Serif" font-size="10.00" fill="#000000">cstring</text>
</g>
<!-- Node10&#45;&gt;Node26 -->
<g id="edge39" class="edge">
<title>Node10&#45;&gt;Node26</title>
<path fill="none" stroke="#191970" d="M959,-235.2455C959,-227.9382 959,-217.6944 959,-208.7046"/>
<polygon fill="#191970" stroke="#191970" points="962.5001,-208.6426 959,-198.6427 955.5001,-208.6427 962.5001,-208.6426"/>
</g>
<!-- Node11&#45;&gt;Node1 -->
<g id="edge26" class="edge">
<title>Node11&#45;&gt;Node1</title>
<path fill="none" stroke="#191970" d="M719.2373,-180.0365C722.1975,-179.6775 725.129,-179.3302 728,-179 893.0178,-160.0203 935.6692,-167.2177 1100,-143 1112.3784,-141.1758 1125.7677,-138.7007 1137.9008,-136.2641"/>
<polygon fill="#191970" stroke="#191970" points="1138.6562,-139.6821 1147.7475,-134.2416 1137.2478,-132.8253 1138.6562,-139.6821"/>
</g>
<!-- Node11&#45;&gt;Node3 -->
<g id="edge23" class="edge">
<title>Node11&#45;&gt;Node3</title>
<path fill="none" stroke="#191970" d="M697.251,-179.4479C726.6573,-172.0168 765.5059,-160.0725 797,-143 816.1616,-132.6128 816.3658,-123.306 835,-112 900.7869,-72.0848 984.9987,-39.8101 1033.2867,-22.8945"/>
<polygon fill="#191970" stroke="#191970" points="1034.7225,-26.1013 1043.026,-19.5208 1032.4312,-19.4869 1034.7225,-26.1013"/>
</g>
<!-- Node11&#45;&gt;Node4 -->
<g id="edge13" class="edge">
<title>Node11&#45;&gt;Node4</title>
<path fill="none" stroke="#191970" d="M586.9333,-180.937C518.5252,-172.4535 408.2796,-158.4062 303.2498,-143.1587"/>
<polygon fill="#191970" stroke="#191970" points="303.5038,-139.6588 293.1035,-141.6796 302.494,-146.5856 303.5038,-139.6588"/>
</g>
<!-- Node12 -->
<g id="node13" class="node">
<title>Node12</title>
<g id="a_node13"><a xlink:href="../../de/d64/RangeReference_8h.html" target="_top" xlink:title="Class to refer to the 1st entry and N elements of some group in the continuous container. ">
<polygon fill="none" stroke="#000000" points="578,-118 578,-137 788,-137 788,-118 578,-118"/>
<text text-anchor="middle" x="683" y="-125" font-family="Helvetica,sans-Serif" font-size="10.00" fill="#000000">CommonDataFormat/RangeReference.h</text>
</a>
</g>
</g>
<!-- Node11&#45;&gt;Node12 -->
<g id="edge14" class="edge">
<title>Node11&#45;&gt;Node12</title>
<path fill="none" stroke="#191970" d="M657.6875,-179.3906C661.9773,-170.5965 668.4482,-157.3312 673.7734,-146.4145"/>
<polygon fill="#191970" stroke="#191970" points="677.0078,-147.7671 678.2464,-137.2449 670.7164,-144.6981 677.0078,-147.7671"/>
</g>
<!-- Node13 -->
<g id="node14" class="node">
<title>Node13</title>
<g id="a_node14"><a xlink:href="../../df/d5d/common_2include_2CommonDataFormat_2TimeStamp_8h.html" target="_top" xlink:title="CommonDataFormat/TimeStamp.h">
<polygon fill="none" stroke="#000000" points="311.5,-118 311.5,-137 498.5,-137 498.5,-118 311.5,-118"/>
<text text-anchor="middle" x="405" y="-125" font-family="Helvetica,sans-Serif" font-size="10.00" fill="#000000">CommonDataFormat/TimeStamp.h</text>
</a>
</g>
</g>
<!-- Node11&#45;&gt;Node13 -->
<g id="edge16" class="edge">
<title>Node11&#45;&gt;Node13</title>
<path fill="none" stroke="#191970" d="M614.5221,-179.4581C571.1731,-168.7082 500.6361,-151.2162 453.5373,-139.5365"/>
<polygon fill="#191970" stroke="#191970" points="454.1166,-136.0742 443.5682,-137.0643 452.4317,-142.8684 454.1166,-136.0742"/>
</g>
<!-- Node11&#45;&gt;Node17 -->
<g id="edge21" class="edge">
<title>Node11&#45;&gt;Node17</title>
<path fill="none" stroke="#191970" d="M695.9773,-179.4581C744.8014,-168.6181 824.5041,-150.9224 877.1049,-139.2439"/>
<polygon fill="#191970" stroke="#191970" points="877.9182,-142.6486 886.9219,-137.0643 876.4009,-135.815 877.9182,-142.6486"/>
</g>
<!-- Node11&#45;&gt;Node18 -->
<g id="edge24" class="edge">
<title>Node11&#45;&gt;Node18</title>
<path fill="none" stroke="#191970" d="M719.2478,-180.1234C722.2052,-179.7409 725.1332,-179.3649 728,-179 859.9022,-162.2131 896.2987,-176.4061 1025,-143 1027.6249,-142.3187 1030.3094,-141.4973 1032.9775,-140.5926"/>
<polygon fill="#191970" stroke="#191970" points="1034.296,-143.8363 1042.4341,-137.0524 1031.8418,-137.2806 1034.296,-143.8363"/>
</g>
<!-- Node19 -->
<g id="node20" class="node">
<title>Node19</title>
<polygon fill="none" stroke="#bfbfbf" points="516,-118 516,-137 560,-137 560,-118 516,-118"/>
<text text-anchor="middle" x="538" y="-125" font-family="Helvetica,sans-Serif" font-size="10.00" fill="#000000">bitset</text>
</g>
<!-- Node11&#45;&gt;Node19 -->
<g id="edge25" class="edge">
<title>Node11&#45;&gt;Node19</title>
<path fill="none" stroke="#191970" d="M635.0313,-179.3906C616.2116,-169.3262 586.4415,-153.4057 564.8359,-141.8514"/>
<polygon fill="#191970" stroke="#191970" points="566.3114,-138.6714 555.8426,-137.0419 563.0102,-144.8442 566.3114,-138.6714"/>
</g>
<!-- Node12&#45;&gt;Node5 -->
<g id="edge15" class="edge">
<title>Node12&#45;&gt;Node5</title>
<path fill="none" stroke="#191970" d="M674.5625,-117.8906C666.4469,-108.6478 653.9945,-94.466 644.1576,-83.2628"/>
<polygon fill="#191970" stroke="#191970" points="646.7846,-80.95 637.5565,-75.7449 641.5245,-85.5686 646.7846,-80.95"/>
</g>
<!-- Node13&#45;&gt;Node5 -->
<g id="edge17" class="edge">
<title>Node13&#45;&gt;Node5</title>
<path fill="none" stroke="#191970" d="M440,-117.8906C478.9588,-107.1944 542.0093,-89.8836 584.4571,-78.2294"/>
<polygon fill="#191970" stroke="#191970" points="585.5293,-81.5646 594.2458,-75.5419 583.6759,-74.8144 585.5293,-81.5646"/>
</g>
<!-- Node14 -->
<g id="node15" class="node">
<title>Node14</title>
<g id="a_node15"><a xlink:href="../../df/d21/GPUCommonDef_8h.html" target="_top" xlink:title="GPUCommonDef.h">
<polygon fill="none" stroke="#000000" points="409.5,-56.5 409.5,-75.5 516.5,-75.5 516.5,-56.5 409.5,-56.5"/>
<text text-anchor="middle" x="463" y="-63.5" font-family="Helvetica,sans-Serif" font-size="10.00" fill="#000000">GPUCommonDef.h</text>
</a>
</g>
</g>
<!-- Node13&#45;&gt;Node14 -->
<g id="edge18" class="edge">
<title>Node13&#45;&gt;Node14</title>
<path fill="none" stroke="#191970" d="M414.0625,-117.8906C422.7793,-108.6478 436.154,-94.466 446.7196,-83.2628"/>
<polygon fill="#191970" stroke="#191970" points="449.495,-85.4213 453.8097,-75.7449 444.4024,-80.6186 449.495,-85.4213"/>
</g>
<!-- Node15 -->
<g id="node16" class="node">
<title>Node15</title>
<g id="a_node16"><a xlink:href="../../d5/d93/GPUCommonDefSettings_8h.html" target="_top" xlink:title="GPUCommonDefSettings.h">
<polygon fill="none" stroke="#000000" points="312,-.5 312,-19.5 460,-19.5 460,-.5 312,-.5"/>
<text text-anchor="middle" x="386" y="-7.5" font-family="Helvetica,sans-Serif" font-size="10.00" fill="#000000">GPUCommonDefSettings.h</text>
</a>
</g>
</g>
<!-- Node14&#45;&gt;Node15 -->
<g id="edge19" class="edge">
<title>Node14&#45;&gt;Node15</title>
<path fill="none" stroke="#191970" d="M449.5876,-56.2455C437.9943,-47.814 421.0252,-35.4729 407.5322,-25.6598"/>
<polygon fill="#191970" stroke="#191970" points="409.4047,-22.6938 399.2587,-19.6427 405.2874,-28.355 409.4047,-22.6938"/>
</g>
<!-- Node16 -->
<g id="node17" class="node">
<title>Node16</title>
<g id="a_node17"><a xlink:href="../../da/d5a/GPUCommonDefAPI_8h.html" target="_top" xlink:title="GPUCommonDefAPI.h">
<polygon fill="none" stroke="#000000" points="478,-.5 478,-19.5 602,-19.5 602,-.5 478,-.5"/>
<text text-anchor="middle" x="540" y="-7.5" font-family="Helvetica,sans-Serif" font-size="10.00" fill="#000000">GPUCommonDefAPI.h</text>
</a>
</g>
</g>
<!-- Node14&#45;&gt;Node16 -->
<g id="edge20" class="edge">
<title>Node14&#45;&gt;Node16</title>
<path fill="none" stroke="#191970" d="M476.4124,-56.2455C488.0057,-47.814 504.9748,-35.4729 518.4678,-25.6598"/>
<polygon fill="#191970" stroke="#191970" points="520.7126,-28.355 526.7413,-19.6427 516.5953,-22.6938 520.7126,-28.355"/>
</g>
<!-- Node17&#45;&gt;Node3 -->
<g id="edge22" class="edge">
<title>Node17&#45;&gt;Node3</title>
<path fill="none" stroke="#191970" d="M941.6205,-117.8845C965.9597,-97.7446 1022.5175,-50.945 1052.5122,-26.1255"/>
<polygon fill="#191970" stroke="#191970" points="1054.7459,-28.8201 1060.219,-19.7484 1050.2832,-23.427 1054.7459,-28.8201"/>
</g>
<!-- Node20&#45;&gt;Node8 -->
<g id="edge29" class="edge">
<title>Node20&#45;&gt;Node8</title>
<path fill="none" stroke="#191970" d="M156.1245,-179.3956C144.0249,-170.2688 125.5084,-156.0397 110,-143 86.1632,-122.9577 59.7248,-98.6634 42.7615,-82.7941"/>
<polygon fill="#191970" stroke="#191970" points="44.9329,-80.0318 35.248,-75.736 40.1401,-85.1337 44.9329,-80.0318"/>
</g>
<!-- Node21&#45;&gt;Node1 -->
<g id="edge33" class="edge">
<title>Node21&#45;&gt;Node1</title>
<path fill="none" stroke="#191970" d="M1262.375,-179.3906C1246.2302,-169.4616 1220.8178,-153.833 1202.0977,-142.3201"/>
<polygon fill="#191970" stroke="#191970" points="1203.8669,-139.2992 1193.5153,-137.0419 1200.1998,-145.2619 1203.8669,-139.2992"/>
</g>
<!-- Node21&#45;&gt;Node3 -->
<g id="edge31" class="edge">
<title>Node21&#45;&gt;Node3</title>
<path fill="none" stroke="#191970" d="M1271.652,-179.2672C1261.3444,-163.8995 1239.8119,-133.5487 1217,-112 1179.0829,-76.1825 1127.8241,-43.0873 1097.504,-24.8063"/>
<polygon fill="#191970" stroke="#191970" points="1099.1866,-21.7347 1088.8045,-19.6219 1095.603,-27.7479 1099.1866,-21.7347"/>
</g>
<!-- Node21&#45;&gt;Node22 -->
<g id="edge32" class="edge">
<title>Node21&#45;&gt;Node22</title>
<path fill="none" stroke="#191970" d="M1287.375,-179.3906C1296.4799,-170.0581 1310.4974,-155.6902 1321.4757,-144.4374"/>
<polygon fill="#191970" stroke="#191970" points="1324.0148,-146.8468 1328.4928,-137.2449 1319.0043,-141.9586 1324.0148,-146.8468"/>
</g>
<!-- Node21&#45;&gt;Node23 -->
<g id="edge34" class="edge">
<title>Node21&#45;&gt;Node23</title>
<path fill="none" stroke="#191970" d="M1299.25,-179.3906C1322.038,-169.0858 1358.4022,-152.6416 1384.078,-141.0309"/>
<polygon fill="#191970" stroke="#191970" points="1385.675,-144.15 1393.3445,-136.8405 1382.7907,-137.7718 1385.675,-144.15"/>
</g>
</g>
</svg>
        <g id="navigator" transform="translate(0 0)" fill="#404254">
                <rect fill="#f2f5e9" fill-opacity="0.5" stroke="#606060" stroke-width=".5" x="0" y="0" width="60" height="60"/>
                <use id="zoomplus" xlink:href="#zoomPlus" x="17" y="9" onmousedown="handleZoom(evt,'in')"/>
                <use id="zoomminus" xlink:href="#zoomMin" x="42" y="9" onmousedown="handleZoom(evt,'out')"/>
                <use id="reset" xlink:href="#resetDef" x="30" y="36" onmousedown="handleReset()"/>
                <g id="arrowUp" xlink:href="#dirArrow" transform="translate(30 24)" onmousedown="handlePan(0,-1)">
                  <use xlink:href="#rim" fill="#404040">
                        <set attributeName="fill" to="#808080" begin="arrowUp.mouseover" end="arrowUp.mouseout"/>
                  </use>
                  <path fill="none" stroke="white" stroke-width="1.5" d="M0,-3.0v7 M-2.5,-0.5L0,-3.0L2.5,-0.5"/>
                </g>
                <g id="arrowRight" xlink:href="#dirArrow" transform="rotate(90) translate(36 -43)" onmousedown="handlePan(1,0)">
                  <use xlink:href="#rim" fill="#404040">
                        <set attributeName="fill" to="#808080" begin="arrowRight.mouseover" end="arrowRight.mouseout"/>
                  </use>
                  <path fill="none" stroke="white" stroke-width="1.5" d="M0,-3.0v7 M-2.5,-0.5L0,-3.0L2.5,-0.5"/>
                </g>
                <g id="arrowDown" xlink:href="#dirArrow" transform="rotate(180) translate(-30 -48)" onmousedown="handlePan(0,1)">
                  <use xlink:href="#rim" fill="#404040">
                        <set attributeName="fill" to="#808080" begin="arrowDown.mouseover" end="arrowDown.mouseout"/>
                  </use>
                  <path fill="none" stroke="white" stroke-width="1.5" d="M0,-3.0v7 M-2.5,-0.5L0,-3.0L2.5,-0.5"/>
                </g>
                <g id="arrowLeft" xlink:href="#dirArrow" transform="rotate(270) translate(-36 17)" onmousedown="handlePan(-1,0)">
                  <use xlink:href="#rim" fill="#404040">
                        <set attributeName="fill" to="#808080" begin="arrowLeft.mouseover" end="arrowLeft.mouseout"/>
                  </use>
                  <path fill="none" stroke="white" stroke-width="1.5" d="M0,-3.0v7 M-2.5,-0.5L0,-3.0L2.5,-0.5"/>
                </g>
        </g>
        <svg viewBox="0 0 15 15" width="100%" height="30px" preserveAspectRatio="xMaxYMin meet">
         <g id="arrow_out" transform="scale(0.3 0.3)">
          <a xlink:href="DataBlockRaw_8h__incl_org.svg" target="_base">
           <rect id="button" ry="5" rx="5" y="6" x="6" height="38" width="38"
                fill="#f2f5e9" fill-opacity="0.5" stroke="#606060" stroke-width="1.0"/>
           <path id="arrow"
             d="M 11.500037,31.436501 C 11.940474,20.09759 22.043105,11.32322 32.158766,21.979434 L 37.068811,17.246167 C 37.068811,17.246167 37.088388,32 37.088388,32 L 22.160133,31.978069 C 22.160133,31.978069 26.997745,27.140456 26.997745,27.140456 C 18.528582,18.264221 13.291696,25.230495 11.500037,31.436501 z"
             style="fill:#404040;"/>
          </a>
         </g>
        </svg>
</svg>
