<?xml version="1.0" encoding="UTF-8" standalone="no"?>
<!DOCTYPE svg PUBLIC "-//W3C//DTD SVG 1.1//EN"
 "http://www.w3.org/Graphics/SVG/1.1/DTD/svg11.dtd">
<!-- Generated by graphviz version 2.40.1 (20161225.0304)
 -->
<!-- Title: /home/travis/build/AliceO2Group/AliceO2/Detectors/FIT/FT0/raw/src/DataBlockReader.cxx Pages: 1 -->
<!--zoomable 520 -->
<svg id="main" version="1.1" xmlns="http://www.w3.org/2000/svg" xmlns:xlink="http://www.w3.org/1999/xlink" xml:space="preserve" onload="init(evt)">
<style type="text/css"><![CDATA[
.edge:hover path { stroke: red; }
.edge:hover polygon { stroke: red; fill: red; }
]]></style>
<script type="text/javascript"><![CDATA[
var edges = document.getElementsByTagName('g');
if (edges && edges.length) {
  for (var i=0;i<edges.length;i++) {
    if (edges[i].id.substr(0,4)=='edge') {
      edges[i].setAttribute('class','edge');
    }
  }
}
]]></script>
        <defs>
                <circle id="rim" cx="0" cy="0" r="7"/>
                <circle id="rim2" cx="0" cy="0" r="3.5"/>
                <g id="zoomPlus">
                        <use xlink:href="#rim" fill="#404040">
                                <set attributeName="fill" to="#808080" begin="zoomplus.mouseover" end="zoomplus.mouseout"/>
                        </use>
                        <path d="M-4,0h8M0,-4v8" fill="none" stroke="white" stroke-width="1.5" pointer-events="none"/>
                </g>
                <g id="zoomMin">
                        <use xlink:href="#rim" fill="#404040">
                                <set attributeName="fill" to="#808080" begin="zoomminus.mouseover" end="zoomminus.mouseout"/>
                        </use>
                        <path d="M-4,0h8" fill="none" stroke="white" stroke-width="1.5" pointer-events="none"/>
                </g>
                <g id="dirArrow">
                        <path fill="none" stroke="white" stroke-width="1.5" d="M0,-3.0v7 M-2.5,-0.5L0,-3.0L2.5,-0.5"/>
                </g>
               <g id="resetDef">
                       <use xlink:href="#rim2" fill="#404040">
                               <set attributeName="fill" to="#808080" begin="reset.mouseover" end="reset.mouseout"/>
                       </use>
               </g>
        </defs>

<script type="text/javascript">
var viewWidth = 1710;
var viewHeight = 520;
var sectionId = 'dynsection-0';
</script>
<script xlink:href="../../svgpan.js"/>
<svg id="graph" class="graph">
<g id="viewport">
<title>/home/travis/build/AliceO2Group/AliceO2/Detectors/FIT/FT0/raw/src/DataBlockReader.cxx</title>
<!-- Node0 -->
<g id="node1" class="node">
<title>Node0</title>
<polygon fill="#bfbfbf" stroke="#000000" points="599,-459.5 599,-511.5 739,-511.5 739,-459.5 599,-459.5"/>
<text text-anchor="start" x="607" y="-499.5" font-family="Helvetica,sans-Serif" font-size="10.00" fill="#000000">/home/travis/build</text>
<text text-anchor="start" x="607" y="-488.5" font-family="Helvetica,sans-Serif" font-size="10.00" fill="#000000">/AliceO2Group/AliceO2</text>
<text text-anchor="start" x="607" y="-477.5" font-family="Helvetica,sans-Serif" font-size="10.00" fill="#000000">/Detectors/FIT/FT0/raw</text>
<text text-anchor="middle" x="669" y="-466.5" font-family="Helvetica,sans-Serif" font-size="10.00" fill="#000000">/src/DataBlockReader.cxx</text>
</g>
<!-- Node1 -->
<g id="node2" class="node">
<title>Node1</title>
<g id="a_node2"><a xlink:href="../../d2/dbb/DataBlockReader_8h.html" target="_top" xlink:title="FT0Raw/DataBlockReader.h">
<polygon fill="none" stroke="#000000" points="594,-403.5 594,-422.5 744,-422.5 744,-403.5 594,-403.5"/>
<text text-anchor="middle" x="669" y="-410.5" font-family="Helvetica,sans-Serif" font-size="10.00" fill="#000000">FT0Raw/DataBlockReader.h</text>
</a>
</g>
</g>
<!-- Node0&#45;&gt;Node1 -->
<g id="edge1" class="edge">
<title>Node0&#45;&gt;Node1</title>
<path fill="none" stroke="#191970" d="M669,-459.3258C669,-450.5142 669,-440.8397 669,-432.621"/>
<polygon fill="#191970" stroke="#191970" points="672.5001,-432.534 669,-422.534 665.5001,-432.534 672.5001,-432.534"/>
</g>
<!-- Node2 -->
<g id="node3" class="node">
<title>Node2</title>
<polygon fill="none" stroke="#bfbfbf" points="85,-118 85,-137 145,-137 145,-118 85,-118"/>
<text text-anchor="middle" x="115" y="-125" font-family="Helvetica,sans-Serif" font-size="10.00" fill="#000000">iostream</text>
</g>
<!-- Node1&#45;&gt;Node2 -->
<g id="edge2" class="edge">
<title>Node1&#45;&gt;Node2</title>
<path fill="none" stroke="#191970" d="M593.9658,-410.6535C490.0247,-406.412 308.3185,-395.1305 249,-367 166.0922,-327.6827 160.7112,-285.1043 129,-199 122.7912,-182.1416 119.1624,-161.9809 117.162,-147.3715"/>
<polygon fill="#191970" stroke="#191970" points="120.5828,-146.5124 115.8886,-137.0143 113.6351,-147.3667 120.5828,-146.5124"/>
</g>
<!-- Node3 -->
<g id="node4" class="node">
<title>Node3</title>
<polygon fill="none" stroke="#bfbfbf" points="190.5,-235.5 190.5,-254.5 237.5,-254.5 237.5,-235.5 190.5,-235.5"/>
<text text-anchor="middle" x="214" y="-242.5" font-family="Helvetica,sans-Serif" font-size="10.00" fill="#000000">vector</text>
</g>
<!-- Node1&#45;&gt;Node3 -->
<g id="edge3" class="edge">
<title>Node1&#45;&gt;Node3</title>
<path fill="none" stroke="#191970" d="M593.5666,-405.2231C481.7814,-392.1393 279.9389,-362.0287 230,-311 218.04,-298.779 214.4961,-279.2221 213.671,-264.5637"/>
<polygon fill="#191970" stroke="#191970" points="217.1694,-264.4418 213.4756,-254.5118 210.1707,-264.5779 217.1694,-264.4418"/>
</g>
<!-- Node4 -->
<g id="node5" class="node">
<title>Node4</title>
<polygon fill="none" stroke="#bfbfbf" points="369.5,-.5 369.5,-19.5 428.5,-19.5 428.5,-.5 369.5,-.5"/>
<text text-anchor="middle" x="399" y="-7.5" font-family="Helvetica,sans-Serif" font-size="10.00" fill="#000000">Rtypes.h</text>
</g>
<!-- Node1&#45;&gt;Node4 -->
<g id="edge4" class="edge">
<title>Node1&#45;&gt;Node4</title>
<path fill="none" stroke="#191970" d="M593.8814,-408.2037C419.1141,-396.0408 0,-360.6539 0,-301 0,-301 0,-301 0,-127.5 0,-53.1356 258.2639,-22.3737 359.2266,-13.1892"/>
<polygon fill="#191970" stroke="#191970" points="359.6838,-16.6625 369.3361,-12.2942 359.0664,-9.6898 359.6838,-16.6625"/>
</g>
<!-- Node5 -->
<g id="node6" class="node">
<title>Node5</title>
<g id="a_node6"><a xlink:href="../../d6/d84/DataBlockRaw_8h.html" target="_top" xlink:title="FT0Raw/DataBlockRaw.h">
<polygon fill="none" stroke="#000000" points="833.5,-291.5 833.5,-310.5 970.5,-310.5 970.5,-291.5 833.5,-291.5"/>
<text text-anchor="middle" x="902" y="-298.5" font-family="Helvetica,sans-Serif" font-size="10.00" fill="#000000">FT0Raw/DataBlockRaw.h</text>
</a>
</g>
</g>
<!-- Node1&#45;&gt;Node5 -->
<g id="edge5" class="edge">
<title>Node1&#45;&gt;Node5</title>
<path fill="none" stroke="#191970" d="M688.8654,-403.4509C730.0485,-383.6548 824.8889,-338.0663 872.9504,-314.9638"/>
<polygon fill="#191970" stroke="#191970" points="874.6883,-318.0118 882.1848,-310.5249 871.6557,-311.7028 874.6883,-318.0118"/>
</g>
<!-- Node6 -->
<g id="node7" class="node">
<title>Node6</title>
<g id="a_node7"><a xlink:href="../../d9/d80/InteractionRecord_8h.html" target="_top" xlink:title="CommonDataFormat/Interaction\lRecord.h">
<polygon fill="none" stroke="#000000" points="1169,-112.5 1169,-142.5 1343,-142.5 1343,-112.5 1169,-112.5"/>
<text text-anchor="start" x="1177" y="-130.5" font-family="Helvetica,sans-Serif" font-size="10.00" fill="#000000">CommonDataFormat/Interaction</text>
<text text-anchor="middle" x="1256" y="-119.5" font-family="Helvetica,sans-Serif" font-size="10.00" fill="#000000">Record.h</text>
</a>
</g>
</g>
<!-- Node1&#45;&gt;Node6 -->
<g id="edge67" class="edge">
<title>Node1&#45;&gt;Node6</title>
<path fill="none" stroke="#191970" d="M744.1091,-411.3314C928.7514,-405.3391 1395.4667,-378.0666 1473,-255 1508.888,-198.0358 1422.9642,-163.4546 1348.8605,-144.9486"/>
<polygon fill="#191970" stroke="#191970" points="1349.5056,-141.5037 1338.9628,-142.5526 1347.8586,-148.3072 1349.5056,-141.5037"/>
</g>
<!-- Node13 -->
<g id="node14" class="node">
<title>Node13</title>
<g id="a_node14"><a xlink:href="../../d0/d0a/DataFormats_2Detectors_2FIT_2FT0_2include_2DataFormatsFT0_2Digit_8h.html" target="_top" xlink:title="DataFormatsFT0/Digit.h">
<polygon fill="none" stroke="#000000" points="547,-179.5 547,-198.5 679,-198.5 679,-179.5 547,-179.5"/>
<text text-anchor="middle" x="613" y="-186.5" font-family="Helvetica,sans-Serif" font-size="10.00" fill="#000000">DataFormatsFT0/Digit.h</text>
</a>
</g>
</g>
<!-- Node1&#45;&gt;Node13 -->
<g id="edge69" class="edge">
<title>Node1&#45;&gt;Node13</title>
<path fill="none" stroke="#191970" d="M593.6908,-407.7498C501.5696,-400.6153 351.4084,-386.4785 299,-367 231.2232,-341.8096 200.4834,-324.6322 181,-255 178.6048,-246.4399 175.0567,-241.6098 181,-235 186.8862,-228.4538 414.0771,-206.9791 536.5603,-195.84"/>
<polygon fill="#191970" stroke="#191970" points="536.992,-199.3153 546.6347,-194.9256 536.3592,-192.3439 536.992,-199.3153"/>
</g>
<!-- Node19 -->
<g id="node20" class="node">
<title>Node19</title>
<g id="a_node20"><a xlink:href="../../dc/d44/FIT_2FT0_2include_2DataFormatsFT0_2ChannelData_8h.html" target="_top" xlink:title="DataFormatsFT0/ChannelData.h">
<polygon fill="none" stroke="#000000" points="659,-118 659,-137 831,-137 831,-118 659,-118"/>
<text text-anchor="middle" x="745" y="-125" font-family="Helvetica,sans-Serif" font-size="10.00" fill="#000000">DataFormatsFT0/ChannelData.h</text>
</a>
</g>
</g>
<!-- Node1&#45;&gt;Node19 -->
<g id="edge70" class="edge">
<title>Node1&#45;&gt;Node19</title>
<path fill="none" stroke="#191970" d="M666.2032,-403.1056C658.8443,-375.0714 641.342,-293.3651 669,-235 679.8201,-212.167 697.6497,-219.0696 713,-199 725.1002,-183.1798 733.8287,-162.0601 739.0831,-146.882"/>
<polygon fill="#191970" stroke="#191970" points="742.5195,-147.6333 742.2937,-137.0409 735.8647,-145.4622 742.5195,-147.6333"/>
</g>
<!-- Node20 -->
<g id="node21" class="node">
<title>Node20</title>
<polygon fill="none" stroke="#bfbfbf" points="1361.5,-118 1361.5,-137 1418.5,-137 1418.5,-118 1361.5,-118"/>
<text text-anchor="middle" x="1390" y="-125" font-family="Helvetica,sans-Serif" font-size="10.00" fill="#000000">gsl/span</text>
</g>
<!-- Node1&#45;&gt;Node20 -->
<g id="edge71" class="edge">
<title>Node1&#45;&gt;Node20</title>
<path fill="none" stroke="#191970" d="M744.228,-409.4975C881.3203,-402.7306 1166.6539,-386.7687 1264,-367 1340.7181,-351.4204 1363.9128,-351.3447 1431,-311 1467.6454,-288.9623 1505.6478,-274.7956 1490,-235 1474.4653,-195.4922 1436.8189,-161.8909 1412.4064,-143.2324"/>
<polygon fill="#191970" stroke="#191970" points="1414.1928,-140.1996 1404.0766,-137.051 1410.0213,-145.8209 1414.1928,-140.1996"/>
</g>
<!-- Node22 -->
<g id="node23" class="node">
<title>Node22</title>
<g id="a_node23"><a xlink:href="../../d4/d78/DataFormats_2Headers_2include_2Headers_2RAWDataHeader_8h.html" target="_top" xlink:title="Headers/RAWDataHeader.h">
<polygon fill="none" stroke="#000000" points="1552.5,-179.5 1552.5,-198.5 1701.5,-198.5 1701.5,-179.5 1552.5,-179.5"/>
<text text-anchor="middle" x="1627" y="-186.5" font-family="Helvetica,sans-Serif" font-size="10.00" fill="#000000">Headers/RAWDataHeader.h</text>
</a>
</g>
</g>
<!-- Node1&#45;&gt;Node22 -->
<g id="edge68" class="edge">
<title>Node1&#45;&gt;Node22</title>
<path fill="none" stroke="#191970" d="M744.0576,-411.1461C950.0433,-405.7812 1511.0944,-389.1993 1544,-367 1598.8188,-330.0172 1618.2141,-246.9125 1624.3964,-208.7916"/>
<polygon fill="#191970" stroke="#191970" points="1627.9167,-208.9101 1625.9154,-198.506 1620.9918,-207.8874 1627.9167,-208.9101"/>
</g>
<!-- Node29 -->
<g id="node30" class="node">
<title>Node29</title>
<polygon fill="none" stroke="#bfbfbf" points="1342.5,-235.5 1342.5,-254.5 1463.5,-254.5 1463.5,-235.5 1342.5,-235.5"/>
<text text-anchor="middle" x="1403" y="-242.5" font-family="Helvetica,sans-Serif" font-size="10.00" fill="#000000">boost/mpl/inherit.hpp</text>
</g>
<!-- Node1&#45;&gt;Node29 -->
<g id="edge65" class="edge">
<title>Node1&#45;&gt;Node29</title>
<path fill="none" stroke="#191970" d="M744.2702,-406.6892C894.3808,-393.2406 1225.3657,-359.0187 1328,-311 1352.3901,-299.5888 1374.7808,-277.7449 1388.6272,-262.3188"/>
<polygon fill="#191970" stroke="#191970" points="1391.4878,-264.3626 1395.399,-254.5161 1386.2011,-259.7744 1391.4878,-264.3626"/>
</g>
<!-- Node30 -->
<g id="node31" class="node">
<title>Node30</title>
<polygon fill="none" stroke="#bfbfbf" points="678.5,-235.5 678.5,-254.5 797.5,-254.5 797.5,-235.5 678.5,-235.5"/>
<text text-anchor="middle" x="738" y="-242.5" font-family="Helvetica,sans-Serif" font-size="10.00" fill="#000000">boost/mpl/vector.hpp</text>
</g>
<!-- Node1&#45;&gt;Node30 -->
<g id="edge66" class="edge">
<title>Node1&#45;&gt;Node30</title>
<path fill="none" stroke="#191970" d="M672.9074,-403.4862C683.9092,-376.6994 715.3054,-300.2565 730.1024,-264.2289"/>
<polygon fill="#191970" stroke="#191970" points="733.4019,-265.4078 733.9635,-254.8279 726.9267,-262.7484 733.4019,-265.4078"/>
</g>
<!-- Node32 -->
<g id="node33" class="node">
<title>Node32</title>
<g id="a_node33"><a xlink:href="../../da/d89/DigitBlockFT0_8h.html" target="_top" xlink:title="FT0Raw/DigitBlockFT0.h">
<polygon fill="none" stroke="#000000" points="450,-347.5 450,-366.5 584,-366.5 584,-347.5 450,-347.5"/>
<text text-anchor="middle" x="517" y="-354.5" font-family="Helvetica,sans-Serif" font-size="10.00" fill="#000000">FT0Raw/DigitBlockFT0.h</text>
</a>
</g>
</g>
<!-- Node1&#45;&gt;Node32 -->
<g id="edge52" class="edge">
<title>Node1&#45;&gt;Node32</title>
<path fill="none" stroke="#191970" d="M642.8703,-403.3733C617.9232,-394.1822 580.1408,-380.2624 552.4794,-370.0713"/>
<polygon fill="#191970" stroke="#191970" points="553.3822,-366.674 542.7888,-366.5011 550.9622,-373.2424 553.3822,-366.674"/>
</g>
<!-- Node5&#45;&gt;Node2 -->
<g id="edge6" class="edge">
<title>Node5&#45;&gt;Node2</title>
<path fill="none" stroke="#191970" d="M888.7194,-291.2851C864.5851,-273.7185 815.1702,-238.1871 806,-235 579.2169,-156.1818 499.435,-259.1403 267,-199 219.1055,-186.6078 167.9407,-159.2423 138.871,-142.1896"/>
<polygon fill="#191970" stroke="#191970" points="140.6235,-139.1596 130.2414,-137.0474 137.0403,-145.173 140.6235,-139.1596"/>
</g>
<!-- Node5&#45;&gt;Node3 -->
<g id="edge7" class="edge">
<title>Node5&#45;&gt;Node3</title>
<path fill="none" stroke="#191970" d="M833.1996,-295.4C688.1007,-283.5896 355.2814,-256.4996 247.9994,-247.7674"/>
<polygon fill="#191970" stroke="#191970" points="248.0119,-244.2569 237.7609,-246.934 247.4439,-251.2338 248.0119,-244.2569"/>
</g>
<!-- Node5&#45;&gt;Node4 -->
<g id="edge8" class="edge">
<title>Node5&#45;&gt;Node4</title>
<path fill="none" stroke="#191970" d="M902.186,-291.154C902.1994,-259.295 897.5218,-158.3952 840,-112 777.6636,-61.7214 535.0355,-26.8461 438.7223,-14.7184"/>
<polygon fill="#191970" stroke="#191970" points="439.1482,-11.2445 428.7927,-13.4837 438.2844,-18.191 439.1482,-11.2445"/>
</g>
<!-- Node5&#45;&gt;Node6 -->
<g id="edge9" class="edge">
<title>Node5&#45;&gt;Node6</title>
<path fill="none" stroke="#191970" d="M970.7391,-296.5847C1023.7947,-291.3286 1098.1647,-279.8748 1159,-255 1179.4247,-246.6486 1228.7378,-217.3454 1241,-199 1250.0426,-185.4714 1253.7891,-167.5448 1255.2766,-153.0262"/>
<polygon fill="#191970" stroke="#191970" points="1258.7917,-152.9443 1256.0242,-142.7173 1251.81,-152.438 1258.7917,-152.9443"/>
</g>
<!-- Node12 -->
<g id="node13" class="node">
<title>Node12</title>
<g id="a_node13"><a xlink:href="../../d1/dfe/RawEventData_8h.html" target="_top" xlink:title="DataFormatsFT0/RawEventData.h">
<polygon fill="none" stroke="#000000" points="968.5,-235.5 968.5,-254.5 1149.5,-254.5 1149.5,-235.5 968.5,-235.5"/>
<text text-anchor="middle" x="1059" y="-242.5" font-family="Helvetica,sans-Serif" font-size="10.00" fill="#000000">DataFormatsFT0/RawEventData.h</text>
</a>
</g>
</g>
<!-- Node5&#45;&gt;Node12 -->
<g id="edge16" class="edge">
<title>Node5&#45;&gt;Node12</title>
<path fill="none" stroke="#191970" d="M928.9893,-291.3733C954.8699,-282.1419 994.1248,-268.1402 1022.7289,-257.9375"/>
<polygon fill="#191970" stroke="#191970" points="1024.12,-261.1573 1032.3629,-254.5011 1021.7683,-254.5642 1024.12,-261.1573"/>
</g>
<!-- Node5&#45;&gt;Node20 -->
<g id="edge46" class="edge">
<title>Node5&#45;&gt;Node20</title>
<path fill="none" stroke="#191970" d="M970.641,-297.2016C1059.2256,-291.4309 1207.8139,-278.5521 1257,-255 1310.3663,-229.4463 1356.0519,-174.2513 1377.293,-145.5935"/>
<polygon fill="#191970" stroke="#191970" points="1380.2747,-147.4437 1383.3093,-137.2927 1374.6068,-143.3357 1380.2747,-147.4437"/>
</g>
<!-- Node24 -->
<g id="node25" class="node">
<title>Node24</title>
<polygon fill="none" stroke="#bfbfbf" points="527,-118 527,-137 579,-137 579,-118 527,-118"/>
<text text-anchor="middle" x="553" y="-125" font-family="Helvetica,sans-Serif" font-size="10.00" fill="#000000">cassert</text>
</g>
<!-- Node5&#45;&gt;Node24 -->
<g id="edge51" class="edge">
<title>Node5&#45;&gt;Node24</title>
<path fill="none" stroke="#191970" d="M901.1574,-291.4946C899.3882,-277.2393 894.0136,-250.3613 878,-235 780.4189,-141.3935 714.4534,-190.8934 588,-143 586.3764,-142.3851 584.7197,-141.7342 583.0535,-141.0612"/>
<polygon fill="#191970" stroke="#191970" points="584.1461,-137.7235 573.5721,-137.0596 581.4243,-144.1726 584.1461,-137.7235"/>
</g>
<!-- Node25 -->
<g id="node26" class="node">
<title>Node25</title>
<polygon fill="none" stroke="#bfbfbf" points="201.5,-118 201.5,-137 242.5,-137 242.5,-118 201.5,-118"/>
<text text-anchor="middle" x="222" y="-125" font-family="Helvetica,sans-Serif" font-size="10.00" fill="#000000">tuple</text>
</g>
<!-- Node5&#45;&gt;Node25 -->
<g id="edge49" class="edge">
<title>Node5&#45;&gt;Node25</title>
<path fill="none" stroke="#191970" d="M896.1733,-291.3689C886.5537,-276.4306 865.8212,-248.0398 840,-235 719.3405,-174.0666 667.2842,-238.4615 538,-199 519.3689,-193.3132 517.5072,-185.0778 499,-179 404.0343,-147.813 374.5957,-164.5916 277,-143 268.9634,-141.222 260.3589,-138.9684 252.3988,-136.7342"/>
<polygon fill="#191970" stroke="#191970" points="253.3302,-133.3603 242.7519,-133.9519 251.3904,-140.0861 253.3302,-133.3603"/>
</g>
<!-- Node5&#45;&gt;Node29 -->
<g id="edge47" class="edge">
<title>Node5&#45;&gt;Node29</title>
<path fill="none" stroke="#191970" d="M970.6114,-293.3309C1065.5064,-282.7238 1235.9574,-263.6714 1332.067,-252.9286"/>
<polygon fill="#191970" stroke="#191970" points="1332.7202,-256.3775 1342.2695,-251.7882 1331.9426,-249.4208 1332.7202,-256.3775"/>
</g>
<!-- Node5&#45;&gt;Node30 -->
<g id="edge48" class="edge">
<title>Node5&#45;&gt;Node30</title>
<path fill="none" stroke="#191970" d="M873.8074,-291.3733C846.6547,-282.1016 805.4093,-268.0178 775.4975,-257.804"/>
<polygon fill="#191970" stroke="#191970" points="776.4192,-254.4204 765.8247,-254.5011 774.1572,-261.0449 776.4192,-254.4204"/>
</g>
<!-- Node31 -->
<g id="node32" class="node">
<title>Node31</title>
<polygon fill="none" stroke="#bfbfbf" points="1206,-235.5 1206,-254.5 1248,-254.5 1248,-235.5 1206,-235.5"/>
<text text-anchor="middle" x="1227" y="-242.5" font-family="Helvetica,sans-Serif" font-size="10.00" fill="#000000">array</text>
</g>
<!-- Node5&#45;&gt;Node31 -->
<g id="edge50" class="edge">
<title>Node5&#45;&gt;Node31</title>
<path fill="none" stroke="#191970" d="M970.7019,-292.4879C1029.7423,-284.6055 1116.9683,-271.6057 1192,-255 1193.2495,-254.7235 1194.5203,-254.4281 1195.8012,-254.1187"/>
<polygon fill="#191970" stroke="#191970" points="1196.8439,-257.4638 1205.6335,-251.5481 1195.0733,-250.6914 1196.8439,-257.4638"/>
</g>
<!-- Node7 -->
<g id="node8" class="node">
<title>Node7</title>
<g id="a_node8"><a xlink:href="../../d2/d45/GPUCommonRtypes_8h.html" target="_top" xlink:title="GPUCommonRtypes.h">
<polygon fill="none" stroke="#000000" points="902.5,-56.5 902.5,-75.5 1027.5,-75.5 1027.5,-56.5 902.5,-56.5"/>
<text text-anchor="middle" x="965" y="-63.5" font-family="Helvetica,sans-Serif" font-size="10.00" fill="#000000">GPUCommonRtypes.h</text>
</a>
</g>
</g>
<!-- Node6&#45;&gt;Node7 -->
<g id="edge10" class="edge">
<title>Node6&#45;&gt;Node7</title>
<path fill="none" stroke="#191970" d="M1184.8134,-112.4554C1134.0232,-101.7214 1066.7188,-87.4973 1020.0255,-77.6291"/>
<polygon fill="#191970" stroke="#191970" points="1020.6023,-74.1738 1010.0947,-75.5303 1019.1548,-81.0225 1020.6023,-74.1738"/>
</g>
<!-- Node8 -->
<g id="node9" class="node">
<title>Node8</title>
<polygon fill="none" stroke="#bfbfbf" points="1231.5,-56.5 1231.5,-75.5 1280.5,-75.5 1280.5,-56.5 1231.5,-56.5"/>
<text text-anchor="middle" x="1256" y="-63.5" font-family="Helvetica,sans-Serif" font-size="10.00" fill="#000000">iosfwd</text>
</g>
<!-- Node6&#45;&gt;Node8 -->
<g id="edge12" class="edge">
<title>Node6&#45;&gt;Node8</title>
<path fill="none" stroke="#191970" d="M1256,-112.2977C1256,-104.3834 1256,-94.6043 1256,-86.0759"/>
<polygon fill="#191970" stroke="#191970" points="1259.5001,-85.8469 1256,-75.8469 1252.5001,-85.847 1259.5001,-85.8469"/>
</g>
<!-- Node9 -->
<g id="node10" class="node">
<title>Node9</title>
<polygon fill="none" stroke="#bfbfbf" points="1298.5,-56.5 1298.5,-75.5 1345.5,-75.5 1345.5,-56.5 1298.5,-56.5"/>
<text text-anchor="middle" x="1322" y="-63.5" font-family="Helvetica,sans-Serif" font-size="10.00" fill="#000000">cmath</text>
</g>
<!-- Node6&#45;&gt;Node9 -->
<g id="edge13" class="edge">
<title>Node6&#45;&gt;Node9</title>
<path fill="none" stroke="#191970" d="M1272.3146,-112.2977C1281.9533,-103.3163 1294.1691,-91.9334 1304.0759,-82.702"/>
<polygon fill="#191970" stroke="#191970" points="1306.5025,-85.2249 1311.4326,-75.8469 1301.7304,-80.1036 1306.5025,-85.2249"/>
</g>
<!-- Node10 -->
<g id="node11" class="node">
<title>Node10</title>
<polygon fill="none" stroke="#bfbfbf" points="1581,-56.5 1581,-75.5 1631,-75.5 1631,-56.5 1581,-56.5"/>
<text text-anchor="middle" x="1606" y="-63.5" font-family="Helvetica,sans-Serif" font-size="10.00" fill="#000000">cstdint</text>
</g>
<!-- Node6&#45;&gt;Node10 -->
<g id="edge14" class="edge">
<title>Node6&#45;&gt;Node10</title>
<path fill="none" stroke="#191970" d="M1343.2057,-113.4927C1418.7184,-101.2489 1522.0619,-84.1857 1563,-76 1565.499,-75.5003 1568.0742,-74.9617 1570.6637,-74.4028"/>
<polygon fill="#191970" stroke="#191970" points="1571.5944,-77.7812 1580.5909,-72.1853 1570.0684,-70.9496 1571.5944,-77.7812"/>
</g>
<!-- Node11 -->
<g id="node12" class="node">
<title>Node11</title>
<g id="a_node12"><a xlink:href="../../d4/dc6/LHCConstants_8h.html" target="_top" xlink:title="Header to collect LHC related constants. ">
<polygon fill="none" stroke="#000000" points="1364,-56.5 1364,-75.5 1554,-75.5 1554,-56.5 1364,-56.5"/>
<text text-anchor="middle" x="1459" y="-63.5" font-family="Helvetica,sans-Serif" font-size="10.00" fill="#000000">CommonConstants/LHCConstants.h</text>
</a>
</g>
</g>
<!-- Node6&#45;&gt;Node11 -->
<g id="edge15" class="edge">
<title>Node6&#45;&gt;Node11</title>
<path fill="none" stroke="#191970" d="M1305.6594,-112.4554C1340.1247,-102.0139 1385.4909,-88.27 1417.9198,-78.4455"/>
<polygon fill="#191970" stroke="#191970" points="1418.9866,-81.7795 1427.5422,-75.5303 1416.9569,-75.0802 1418.9866,-81.7795"/>
</g>
<!-- Node7&#45;&gt;Node4 -->
<g id="edge11" class="edge">
<title>Node7&#45;&gt;Node4</title>
<path fill="none" stroke="#191970" d="M902.1591,-59.0718C892.399,-58.024 882.4294,-56.97 873,-56 712.2341,-39.4624 520.6201,-21.3603 438.9999,-13.7249"/>
<polygon fill="#191970" stroke="#191970" points="438.9664,-10.2066 428.6841,-12.7609 438.315,-17.1762 438.9664,-10.2066"/>
</g>
<!-- Node12&#45;&gt;Node2 -->
<g id="edge42" class="edge">
<title>Node12&#45;&gt;Node2</title>
<path fill="none" stroke="#191970" d="M968.4481,-240.3399C776.0352,-230.314 341.3931,-206.9607 310,-199 289.5695,-193.8192 286.5849,-186.7896 267,-179 219.9857,-160.3008 206.8627,-159.4062 159,-143 156.5867,-142.1728 154.101,-141.3144 151.5975,-140.4452"/>
<polygon fill="#191970" stroke="#191970" points="152.5621,-137.0748 141.9673,-137.081 150.2536,-143.6832 152.5621,-137.0748"/>
</g>
<!-- Node12&#45;&gt;Node4 -->
<g id="edge45" class="edge">
<title>Node12&#45;&gt;Node4</title>
<path fill="none" stroke="#191970" d="M1016.2837,-235.4984C978.8178,-225.1238 933.3,-206.2677 954,-179 989.9912,-131.5896 1047.0088,-190.4104 1083,-143 1109.4467,-108.1624 1075.8455,-76.1026 1037,-56 984.0052,-28.5751 570.2859,-14.7761 438.9023,-11.0544"/>
<polygon fill="#191970" stroke="#191970" points="438.956,-7.5546 428.8622,-10.7741 438.7606,-14.5519 438.956,-7.5546"/>
</g>
<!-- Node12&#45;&gt;Node6 -->
<g id="edge40" class="edge">
<title>Node12&#45;&gt;Node6</title>
<path fill="none" stroke="#191970" d="M1107.5558,-235.4595C1148.0885,-226.7097 1201.8995,-213.0164 1219,-199 1233.6311,-187.0077 1243.1338,-167.7093 1248.8411,-152.1828"/>
<polygon fill="#191970" stroke="#191970" points="1252.1804,-153.2332 1252.0592,-142.639 1245.5474,-150.9964 1252.1804,-153.2332"/>
</g>
<!-- Node12&#45;&gt;Node13 -->
<g id="edge17" class="edge">
<title>Node12&#45;&gt;Node13</title>
<path fill="none" stroke="#191970" d="M983.0896,-235.4686C901.0943,-225.1733 771.2081,-208.8647 689.1282,-198.5587"/>
<polygon fill="#191970" stroke="#191970" points="689.4724,-195.0745 679.1143,-197.3013 688.6003,-202.02 689.4724,-195.0745"/>
</g>
<!-- Node12&#45;&gt;Node19 -->
<g id="edge32" class="edge">
<title>Node12&#45;&gt;Node19</title>
<path fill="none" stroke="#191970" d="M1028.3826,-235.4161C1000.2874,-226.4747 957.601,-212.5189 921,-199 869.9562,-180.1465 811.6028,-155.8963 776.5632,-141.0365"/>
<polygon fill="#191970" stroke="#191970" points="777.8961,-137.8001 767.3239,-137.1066 775.1561,-144.2416 777.8961,-137.8001"/>
</g>
<!-- Node12&#45;&gt;Node22 -->
<g id="edge33" class="edge">
<title>Node12&#45;&gt;Node22</title>
<path fill="none" stroke="#191970" d="M1149.6294,-236.0647C1257.6465,-225.4151 1436.7368,-207.7583 1542.1438,-197.3661"/>
<polygon fill="#191970" stroke="#191970" points="1542.5012,-200.8479 1552.1096,-196.3836 1541.8144,-193.8817 1542.5012,-200.8479"/>
</g>
<!-- Node23 -->
<g id="node24" class="node">
<title>Node23</title>
<g id="a_node24"><a xlink:href="../../df/d27/LookUpTable_8h.html" target="_top" xlink:title="DataFormatsFT0/LookUpTable.h">
<polygon fill="none" stroke="#000000" points="319.5,-179.5 319.5,-198.5 490.5,-198.5 490.5,-179.5 319.5,-179.5"/>
<text text-anchor="middle" x="405" y="-186.5" font-family="Helvetica,sans-Serif" font-size="10.00" fill="#000000">DataFormatsFT0/LookUpTable.h</text>
</a>
</g>
</g>
<!-- Node12&#45;&gt;Node23 -->
<g id="edge35" class="edge">
<title>Node12&#45;&gt;Node23</title>
<path fill="none" stroke="#191970" d="M968.4077,-237.2429C845.3157,-226.7029 626.2126,-207.9418 500.585,-197.1846"/>
<polygon fill="#191970" stroke="#191970" points="500.8501,-193.6946 490.588,-196.3286 500.2529,-200.6691 500.8501,-193.6946"/>
</g>
<!-- Node26 -->
<g id="node27" class="node">
<title>Node26</title>
<g id="a_node27"><a xlink:href="../../dd/da4/Logger_8h.html" target="_top" xlink:title="Framework/Logger.h">
<polygon fill="none" stroke="#000000" points="1031.5,-179.5 1031.5,-198.5 1146.5,-198.5 1146.5,-179.5 1031.5,-179.5"/>
<text text-anchor="middle" x="1089" y="-186.5" font-family="Helvetica,sans-Serif" font-size="10.00" fill="#000000">Framework/Logger.h</text>
</a>
</g>
</g>
<!-- Node12&#45;&gt;Node26 -->
<g id="edge41" class="edge">
<title>Node12&#45;&gt;Node26</title>
<path fill="none" stroke="#191970" d="M1064.2256,-235.2455C1068.3123,-227.617 1074.1135,-216.7881 1079.075,-207.5267"/>
<polygon fill="#191970" stroke="#191970" points="1082.1972,-209.1103 1083.8343,-198.6427 1076.0268,-205.8047 1082.1972,-209.1103"/>
</g>
<!-- Node27 -->
<g id="node28" class="node">
<title>Node27</title>
<polygon fill="none" stroke="#bfbfbf" points="1164.5,-179.5 1164.5,-198.5 1209.5,-198.5 1209.5,-179.5 1164.5,-179.5"/>
<text text-anchor="middle" x="1187" y="-186.5" font-family="Helvetica,sans-Serif" font-size="10.00" fill="#000000">utility</text>
</g>
<!-- Node12&#45;&gt;Node27 -->
<g id="edge43" class="edge">
<title>Node12&#45;&gt;Node27</title>
<path fill="none" stroke="#191970" d="M1081.004,-235.3733C1101.6435,-226.3435 1132.7158,-212.7494 1155.8889,-202.6111"/>
<polygon fill="#191970" stroke="#191970" points="1157.5245,-205.7159 1165.2831,-198.5011 1154.7187,-199.3028 1157.5245,-205.7159"/>
</g>
<!-- Node28 -->
<g id="node29" class="node">
<title>Node28</title>
<polygon fill="none" stroke="#bfbfbf" points="963,-179.5 963,-198.5 1013,-198.5 1013,-179.5 963,-179.5"/>
<text text-anchor="middle" x="988" y="-186.5" font-family="Helvetica,sans-Serif" font-size="10.00" fill="#000000">cstring</text>
</g>
<!-- Node12&#45;&gt;Node28 -->
<g id="edge44" class="edge">
<title>Node12&#45;&gt;Node28</title>
<path fill="none" stroke="#191970" d="M1046.6327,-235.2455C1036.0446,-226.8943 1020.5936,-214.7076 1008.2107,-204.9408"/>
<polygon fill="#191970" stroke="#191970" points="1010.2447,-202.0875 1000.2255,-198.6427 1005.9097,-207.5837 1010.2447,-202.0875"/>
</g>
<!-- Node13&#45;&gt;Node2 -->
<g id="edge31" class="edge">
<title>Node13&#45;&gt;Node2</title>
<path fill="none" stroke="#191970" d="M546.8677,-182.5071C446.0676,-172.4858 258.6638,-153.3303 192,-143 180.0143,-141.1427 167.0621,-138.7049 155.2619,-136.3142"/>
<polygon fill="#191970" stroke="#191970" points="155.7436,-132.8398 145.2418,-134.2412 154.3254,-139.6946 155.7436,-132.8398"/>
</g>
<!-- Node13&#45;&gt;Node4 -->
<g id="edge28" class="edge">
<title>Node13&#45;&gt;Node4</title>
<path fill="none" stroke="#191970" d="M546.7688,-180.6657C453.4851,-168.7729 294.1936,-147.8331 290,-143 253.362,-100.7746 328.6466,-49.1595 371.7186,-24.485"/>
<polygon fill="#191970" stroke="#191970" points="373.6048,-27.4403 380.6226,-19.503 370.1867,-21.3315 373.6048,-27.4403"/>
</g>
<!-- Node13&#45;&gt;Node6 -->
<g id="edge18" class="edge">
<title>Node13&#45;&gt;Node6</title>
<path fill="none" stroke="#191970" d="M679.0902,-182.6788C792.8589,-171.7973 1026.2119,-149.4782 1158.6242,-136.8135"/>
<polygon fill="#191970" stroke="#191970" points="1159.1423,-140.2801 1168.7636,-135.8438 1158.4758,-133.3119 1159.1423,-140.2801"/>
</g>
<!-- Node14 -->
<g id="node15" class="node">
<title>Node14</title>
<g id="a_node15"><a xlink:href="../../de/d64/RangeReference_8h.html" target="_top" xlink:title="Class to refer to the 1st entry and N elements of some group in the continuous container. ">
<polygon fill="none" stroke="#000000" points="299,-118 299,-137 509,-137 509,-118 299,-118"/>
<text text-anchor="middle" x="404" y="-125" font-family="Helvetica,sans-Serif" font-size="10.00" fill="#000000">CommonDataFormat/RangeReference.h</text>
</a>
</g>
</g>
<!-- Node13&#45;&gt;Node14 -->
<g id="edge19" class="edge">
<title>Node13&#45;&gt;Node14</title>
<path fill="none" stroke="#191970" d="M580.3438,-179.3906C544.1472,-168.7395 485.6614,-151.5296 446.0625,-139.8772"/>
<polygon fill="#191970" stroke="#191970" points="447.0083,-136.5072 436.4269,-137.0419 445.0322,-143.2225 447.0083,-136.5072"/>
</g>
<!-- Node15 -->
<g id="node16" class="node">
<title>Node15</title>
<g id="a_node16"><a xlink:href="../../df/d5d/common_2include_2CommonDataFormat_2TimeStamp_8h.html" target="_top" xlink:title="CommonDataFormat/TimeStamp.h">
<polygon fill="none" stroke="#000000" points="886.5,-118 886.5,-137 1073.5,-137 1073.5,-118 886.5,-118"/>
<text text-anchor="middle" x="980" y="-125" font-family="Helvetica,sans-Serif" font-size="10.00" fill="#000000">CommonDataFormat/TimeStamp.h</text>
</a>
</g>
</g>
<!-- Node13&#45;&gt;Node15 -->
<g id="edge21" class="edge">
<title>Node13&#45;&gt;Node15</title>
<path fill="none" stroke="#191970" d="M669.9411,-179.4581C735.6659,-168.4443 843.6248,-150.3531 913.2435,-138.6867"/>
<polygon fill="#191970" stroke="#191970" points="913.9433,-142.1183 923.2273,-137.0137 912.7863,-135.2146 913.9433,-142.1183"/>
</g>
<!-- Node13&#45;&gt;Node19 -->
<g id="edge26" class="edge">
<title>Node13&#45;&gt;Node19</title>
<path fill="none" stroke="#191970" d="M633.625,-179.3906C655.5173,-169.1908 690.3193,-152.9763 715.1927,-141.3875"/>
<polygon fill="#191970" stroke="#191970" points="716.9335,-144.4377 724.5198,-137.0419 713.9772,-138.0926 716.9335,-144.4377"/>
</g>
<!-- Node13&#45;&gt;Node20 -->
<g id="edge29" class="edge">
<title>Node13&#45;&gt;Node20</title>
<path fill="none" stroke="#191970" d="M679.1319,-187.6265C835.6114,-183.9345 1224.9624,-172.0397 1352,-143 1354.8,-142.3599 1357.6605,-141.5371 1360.4929,-140.6049"/>
<polygon fill="#191970" stroke="#191970" points="1361.7275,-143.8801 1369.8864,-137.1211 1359.2934,-137.3169 1361.7275,-143.8801"/>
</g>
<!-- Node21 -->
<g id="node22" class="node">
<title>Node21</title>
<polygon fill="none" stroke="#bfbfbf" points="597,-118 597,-137 641,-137 641,-118 597,-118"/>
<text text-anchor="middle" x="619" y="-125" font-family="Helvetica,sans-Serif" font-size="10.00" fill="#000000">bitset</text>
</g>
<!-- Node13&#45;&gt;Node21 -->
<g id="edge30" class="edge">
<title>Node13&#45;&gt;Node21</title>
<path fill="none" stroke="#191970" d="M613.9375,-179.3906C614.7692,-170.8657 616.0108,-158.1392 617.0562,-147.4235"/>
<polygon fill="#191970" stroke="#191970" points="620.5617,-147.5375 618.0493,-137.2449 613.5947,-146.8577 620.5617,-147.5375"/>
</g>
<!-- Node14&#45;&gt;Node7 -->
<g id="edge20" class="edge">
<title>Node14&#45;&gt;Node7</title>
<path fill="none" stroke="#191970" d="M471.1663,-117.9971C486.5434,-115.9246 502.8278,-113.8116 518,-112 649.7025,-96.2741 803.6289,-81.147 892.1693,-72.7596"/>
<polygon fill="#191970" stroke="#191970" points="892.747,-76.2207 902.3733,-71.7955 892.0884,-69.2518 892.747,-76.2207"/>
</g>
<!-- Node15&#45;&gt;Node7 -->
<g id="edge22" class="edge">
<title>Node15&#45;&gt;Node7</title>
<path fill="none" stroke="#191970" d="M977.6563,-117.8906C975.5551,-109.276 972.4075,-96.3708 969.777,-85.5858"/>
<polygon fill="#191970" stroke="#191970" points="973.1468,-84.6307 967.3768,-75.7449 966.3461,-86.2894 973.1468,-84.6307"/>
</g>
<!-- Node16 -->
<g id="node17" class="node">
<title>Node16</title>
<g id="a_node17"><a xlink:href="../../df/d21/GPUCommonDef_8h.html" target="_top" xlink:title="GPUCommonDef.h">
<polygon fill="none" stroke="#000000" points="1106.5,-56.5 1106.5,-75.5 1213.5,-75.5 1213.5,-56.5 1106.5,-56.5"/>
<text text-anchor="middle" x="1160" y="-63.5" font-family="Helvetica,sans-Serif" font-size="10.00" fill="#000000">GPUCommonDef.h</text>
</a>
</g>
</g>
<!-- Node15&#45;&gt;Node16 -->
<g id="edge23" class="edge">
<title>Node15&#45;&gt;Node16</title>
<path fill="none" stroke="#191970" d="M1008.125,-117.8906C1038.9028,-107.3749 1088.3921,-90.466 1122.4655,-78.8243"/>
<polygon fill="#191970" stroke="#191970" points="1123.7412,-82.0871 1132.0725,-75.5419 1121.478,-75.4631 1123.7412,-82.0871"/>
</g>
<!-- Node17 -->
<g id="node18" class="node">
<title>Node17</title>
<g id="a_node18"><a xlink:href="../../d5/d93/GPUCommonDefSettings_8h.html" target="_top" xlink:title="GPUCommonDefSettings.h">
<polygon fill="none" stroke="#000000" points="1009,-.5 1009,-19.5 1157,-19.5 1157,-.5 1009,-.5"/>
<text text-anchor="middle" x="1083" y="-7.5" font-family="Helvetica,sans-Serif" font-size="10.00" fill="#000000">GPUCommonDefSettings.h</text>
</a>
</g>
</g>
<!-- Node16&#45;&gt;Node17 -->
<g id="edge24" class="edge">
<title>Node16&#45;&gt;Node17</title>
<path fill="none" stroke="#191970" d="M1146.5876,-56.2455C1134.9943,-47.814 1118.0252,-35.4729 1104.5322,-25.6598"/>
<polygon fill="#191970" stroke="#191970" points="1106.4047,-22.6938 1096.2587,-19.6427 1102.2874,-28.355 1106.4047,-22.6938"/>
</g>
<!-- Node18 -->
<g id="node19" class="node">
<title>Node18</title>
<g id="a_node19"><a xlink:href="../../da/d5a/GPUCommonDefAPI_8h.html" target="_top" xlink:title="GPUCommonDefAPI.h">
<polygon fill="none" stroke="#000000" points="1175,-.5 1175,-19.5 1299,-19.5 1299,-.5 1175,-.5"/>
<text text-anchor="middle" x="1237" y="-7.5" font-family="Helvetica,sans-Serif" font-size="10.00" fill="#000000">GPUCommonDefAPI.h</text>
</a>
</g>
</g>
<!-- Node16&#45;&gt;Node18 -->
<g id="edge25" class="edge">
<title>Node16&#45;&gt;Node18</title>
<path fill="none" stroke="#191970" d="M1173.4124,-56.2455C1185.0057,-47.814 1201.9748,-35.4729 1215.4678,-25.6598"/>
<polygon fill="#191970" stroke="#191970" points="1217.7126,-28.355 1223.7413,-19.6427 1213.5953,-22.6938 1217.7126,-28.355"/>
</g>
<!-- Node19&#45;&gt;Node4 -->
<g id="edge27" class="edge">
<title>Node19&#45;&gt;Node4</title>
<path fill="none" stroke="#191970" d="M716.9785,-117.984C655.1828,-96.9985 507.1423,-46.7246 437.0409,-22.9185"/>
<polygon fill="#191970" stroke="#191970" points="437.8775,-19.5063 427.2831,-19.6048 435.6265,-26.1346 437.8775,-19.5063"/>
</g>
<!-- Node22&#45;&gt;Node10 -->
<g id="edge34" class="edge">
<title>Node22&#45;&gt;Node10</title>
<path fill="none" stroke="#191970" d="M1625.3522,-179.3484C1621.9172,-159.2295 1613.9323,-112.4608 1609.3651,-85.7098"/>
<polygon fill="#191970" stroke="#191970" points="1612.7733,-84.8751 1607.6402,-75.6068 1605.8731,-86.0532 1612.7733,-84.8751"/>
</g>
<!-- Node23&#45;&gt;Node2 -->
<g id="edge38" class="edge">
<title>Node23&#45;&gt;Node2</title>
<path fill="none" stroke="#191970" d="M338.8632,-179.4645C288.9842,-171.592 219.1197,-159.1076 159,-143 155.8708,-142.1616 152.6452,-141.2068 149.4298,-140.1924"/>
<polygon fill="#191970" stroke="#191970" points="150.5142,-136.8646 139.9206,-137.0274 148.3035,-143.5064 150.5142,-136.8646"/>
</g>
<!-- Node23&#45;&gt;Node4 -->
<g id="edge36" class="edge">
<title>Node23&#45;&gt;Node4</title>
<path fill="none" stroke="#191970" d="M341.8928,-179.4582C282.584,-169.8476 201.519,-154.7942 192,-143 139.9215,-78.4739 285.8457,-35.332 359.4343,-18.2457"/>
<polygon fill="#191970" stroke="#191970" points="360.3304,-21.6315 369.3097,-16.0082 358.7835,-14.8045 360.3304,-21.6315"/>
</g>
<!-- Node23&#45;&gt;Node24 -->
<g id="edge37" class="edge">
<title>Node23&#45;&gt;Node24</title>
<path fill="none" stroke="#191970" d="M429.3352,-179.3411C452.2795,-170.1758 487.5881,-155.9206 518,-143 519.3762,-142.4153 520.7809,-141.8137 522.1983,-141.2026"/>
<polygon fill="#191970" stroke="#191970" points="523.8078,-144.3191 531.5735,-137.1118 521.0082,-137.9032 523.8078,-144.3191"/>
</g>
<!-- Node23&#45;&gt;Node25 -->
<g id="edge39" class="edge">
<title>Node23&#45;&gt;Node25</title>
<path fill="none" stroke="#191970" d="M370.2275,-179.4245C339.99,-170.8066 295.1635,-157.3266 257,-143 255.3746,-142.3898 253.7164,-141.7428 252.0491,-141.0727"/>
<polygon fill="#191970" stroke="#191970" points="253.139,-137.7341 242.5644,-137.0802 250.4232,-144.1858 253.139,-137.7341"/>
</g>
<!-- Node32&#45;&gt;Node2 -->
<g id="edge53" class="edge">
<title>Node32&#45;&gt;Node2</title>
<path fill="none" stroke="#191970" d="M449.7688,-351.5227C377.1044,-344.6813 266.7569,-331.3411 230,-311 165.3523,-275.2242 132.1893,-186.2368 120.2693,-146.8189"/>
<polygon fill="#191970" stroke="#191970" points="123.5999,-145.7368 117.4621,-137.1009 116.8749,-147.6795 123.5999,-145.7368"/>
</g>
<!-- Node32&#45;&gt;Node3 -->
<g id="edge54" class="edge">
<title>Node32&#45;&gt;Node3</title>
<path fill="none" stroke="#191970" d="M449.84,-351.8317C382.0953,-345.4919 283.1899,-332.8054 252,-311 235.9759,-299.7973 225.7848,-279.5149 220.0346,-264.3804"/>
<polygon fill="#191970" stroke="#191970" points="223.3301,-263.2006 216.7461,-254.8998 216.7166,-265.4946 223.3301,-263.2006"/>
</g>
<!-- Node32&#45;&gt;Node4 -->
<g id="edge56" class="edge">
<title>Node32&#45;&gt;Node4</title>
<path fill="none" stroke="#191970" d="M449.6789,-353.0782C369.5174,-347.4085 241.2771,-334.8791 200,-311 173.6826,-295.7752 86.4949,-175.7489 76,-143 71.7953,-129.8795 68.4102,-123.4988 76,-112 107.7392,-63.9146 280.1338,-29.6806 359.262,-16.2663"/>
<polygon fill="#191970" stroke="#191970" points="360.0471,-19.6838 369.3349,-14.586 358.8953,-12.7792 360.0471,-19.6838"/>
</g>
<!-- Node32&#45;&gt;Node5 -->
<g id="edge57" class="edge">
<title>Node32&#45;&gt;Node5</title>
<path fill="none" stroke="#191970" d="M582.7464,-347.4369C650.2973,-337.6113 755.335,-322.3331 826.3089,-312.0096"/>
<polygon fill="#191970" stroke="#191970" points="827.1327,-315.4267 836.5248,-310.5237 826.1251,-308.4996 827.1327,-315.4267"/>
</g>
<!-- Node32&#45;&gt;Node6 -->
<g id="edge58" class="edge">
<title>Node32&#45;&gt;Node6</title>
<path fill="none" stroke="#191970" d="M525.8381,-347.2013C547.6313,-323.704 606.7119,-263.9582 669,-235 754.4958,-195.2524 1015.1337,-157.685 1158.6585,-139.2889"/>
<polygon fill="#191970" stroke="#191970" points="1159.3089,-142.7344 1168.7859,-137.9978 1158.4235,-135.7906 1159.3089,-142.7344"/>
</g>
<!-- Node32&#45;&gt;Node13 -->
<g id="edge59" class="edge">
<title>Node32&#45;&gt;Node13</title>
<path fill="none" stroke="#191970" d="M449.7957,-352.9343C388.871,-347.6791 305.5541,-336.0296 285,-311 279.3588,-304.1305 279.7298,-298.158 285,-291 316.0345,-248.8486 458.7441,-216.5426 545.3751,-200.4005"/>
<polygon fill="#191970" stroke="#191970" points="546.1887,-203.8097 555.3912,-198.5595 544.9232,-196.925 546.1887,-203.8097"/>
</g>
<!-- Node32&#45;&gt;Node19 -->
<g id="edge60" class="edge">
<title>Node32&#45;&gt;Node19</title>
<path fill="none" stroke="#191970" d="M520.9725,-347.3294C530.7565,-324.6266 558.1509,-267.3959 598,-235 631.4284,-207.8239 653.4224,-224.6981 688,-199 707.4148,-184.5709 723.9116,-161.9876 734.0859,-146.069"/>
<polygon fill="#191970" stroke="#191970" points="737.3135,-147.5022 739.5733,-137.1512 731.3517,-143.8337 737.3135,-147.5022"/>
</g>
<!-- Node32&#45;&gt;Node20 -->
<g id="edge64" class="edge">
<title>Node32&#45;&gt;Node20</title>
<path fill="none" stroke="#191970" d="M584.1508,-353.1754C747.4912,-343.0678 1161.2916,-312.4034 1286,-255 1321.8773,-238.4857 1330.4081,-229.9054 1355,-199 1367.7252,-183.0078 1377.4276,-161.634 1383.3534,-146.4318"/>
<polygon fill="#191970" stroke="#191970" points="1386.6426,-147.6281 1386.8432,-137.0352 1380.0805,-145.191 1386.6426,-147.6281"/>
</g>
<!-- Node32&#45;&gt;Node23 -->
<g id="edge61" class="edge">
<title>Node32&#45;&gt;Node23</title>
<path fill="none" stroke="#191970" d="M519.185,-347.0844C521.6287,-333.6982 524.2497,-309.4046 516,-291 498.4958,-251.949 458.0669,-221.1704 431.1401,-204.0285"/>
<polygon fill="#191970" stroke="#191970" points="432.9269,-201.0184 422.5787,-198.7457 429.251,-206.9756 432.9269,-201.0184"/>
</g>
<!-- Node32&#45;&gt;Node30 -->
<g id="edge62" class="edge">
<title>Node32&#45;&gt;Node30</title>
<path fill="none" stroke="#191970" d="M564.7689,-347.4957C594.5927,-340.2727 633.0613,-328.542 664,-311 686.7434,-298.1047 708.5462,-277.2807 722.5197,-262.4741"/>
<polygon fill="#191970" stroke="#191970" points="725.2408,-264.6859 729.4335,-254.9559 720.0882,-259.9475 725.2408,-264.6859"/>
</g>
<!-- Node33 -->
<g id="node34" class="node">
<title>Node33</title>
<polygon fill="none" stroke="#bfbfbf" points="294,-291.5 294,-310.5 358,-310.5 358,-291.5 294,-291.5"/>
<text text-anchor="middle" x="326" y="-298.5" font-family="Helvetica,sans-Serif" font-size="10.00" fill="#000000">algorithm</text>
</g>
<!-- Node32&#45;&gt;Node33 -->
<g id="edge55" class="edge">
<title>Node32&#45;&gt;Node33</title>
<path fill="none" stroke="#191970" d="M484.1659,-347.3733C452.0335,-337.9522 402.9549,-323.5627 367.9973,-313.3133"/>
<polygon fill="#191970" stroke="#191970" points="368.6685,-309.8629 358.0877,-310.4079 366.699,-316.5801 368.6685,-309.8629"/>
</g>
<!-- Node34 -->
<g id="node35" class="node">
<title>Node34</title>
<polygon fill="none" stroke="#bfbfbf" points="376.5,-291.5 376.5,-310.5 507.5,-310.5 507.5,-291.5 376.5,-291.5"/>
<text text-anchor="middle" x="442" y="-298.5" font-family="Helvetica,sans-Serif" font-size="10.00" fill="#000000">boost/mpl/contains.hpp</text>
</g>
<!-- Node32&#45;&gt;Node34 -->
<g id="edge63" class="edge">
<title>Node32&#45;&gt;Node34</title>
<path fill="none" stroke="#191970" d="M503.936,-347.2455C492.6438,-338.814 476.1155,-326.4729 462.9729,-316.6598"/>
<polygon fill="#191970" stroke="#191970" points="465.0211,-313.8211 454.9143,-310.6427 460.8331,-319.4301 465.0211,-313.8211"/>
</g>
</g>
</svg>
        <g id="navigator" transform="translate(0 0)" fill="#404254">
                <rect fill="#f2f5e9" fill-opacity="0.5" stroke="#606060" stroke-width=".5" x="0" y="0" width="60" height="60"/>
                <use id="zoomplus" xlink:href="#zoomPlus" x="17" y="9" onmousedown="handleZoom(evt,'in')"/>
                <use id="zoomminus" xlink:href="#zoomMin" x="42" y="9" onmousedown="handleZoom(evt,'out')"/>
                <use id="reset" xlink:href="#resetDef" x="30" y="36" onmousedown="handleReset()"/>
                <g id="arrowUp" xlink:href="#dirArrow" transform="translate(30 24)" onmousedown="handlePan(0,-1)">
                  <use xlink:href="#rim" fill="#404040">
                        <set attributeName="fill" to="#808080" begin="arrowUp.mouseover" end="arrowUp.mouseout"/>
                  </use>
                  <path fill="none" stroke="white" stroke-width="1.5" d="M0,-3.0v7 M-2.5,-0.5L0,-3.0L2.5,-0.5"/>
                </g>
                <g id="arrowRight" xlink:href="#dirArrow" transform="rotate(90) translate(36 -43)" onmousedown="handlePan(1,0)">
                  <use xlink:href="#rim" fill="#404040">
                        <set attributeName="fill" to="#808080" begin="arrowRight.mouseover" end="arrowRight.mouseout"/>
                  </use>
                  <path fill="none" stroke="white" stroke-width="1.5" d="M0,-3.0v7 M-2.5,-0.5L0,-3.0L2.5,-0.5"/>
                </g>
                <g id="arrowDown" xlink:href="#dirArrow" transform="rotate(180) translate(-30 -48)" onmousedown="handlePan(0,1)">
                  <use xlink:href="#rim" fill="#404040">
                        <set attributeName="fill" to="#808080" begin="arrowDown.mouseover" end="arrowDown.mouseout"/>
                  </use>
                  <path fill="none" stroke="white" stroke-width="1.5" d="M0,-3.0v7 M-2.5,-0.5L0,-3.0L2.5,-0.5"/>
                </g>
                <g id="arrowLeft" xlink:href="#dirArrow" transform="rotate(270) translate(-36 17)" onmousedown="handlePan(-1,0)">
                  <use xlink:href="#rim" fill="#404040">
                        <set attributeName="fill" to="#808080" begin="arrowLeft.mouseover" end="arrowLeft.mouseout"/>
                  </use>
                  <path fill="none" stroke="white" stroke-width="1.5" d="M0,-3.0v7 M-2.5,-0.5L0,-3.0L2.5,-0.5"/>
                </g>
        </g>
        <svg viewBox="0 0 15 15" width="100%" height="30px" preserveAspectRatio="xMaxYMin meet">
         <g id="arrow_out" transform="scale(0.3 0.3)">
          <a xlink:href="DataBlockReader_8cxx__incl_org.svg" target="_base">
           <rect id="button" ry="5" rx="5" y="6" x="6" height="38" width="38"
                fill="#f2f5e9" fill-opacity="0.5" stroke="#606060" stroke-width="1.0"/>
           <path id="arrow"
             d="M 11.500037,31.436501 C 11.940474,20.09759 22.043105,11.32322 32.158766,21.979434 L 37.068811,17.246167 C 37.068811,17.246167 37.088388,32 37.088388,32 L 22.160133,31.978069 C 22.160133,31.978069 26.997745,27.140456 26.997745,27.140456 C 18.528582,18.264221 13.291696,25.230495 11.500037,31.436501 z"
             style="fill:#404040;"/>
          </a>
         </g>
        </svg>
</svg>
