<?xml version="1.0" encoding="UTF-8" standalone="no"?>
<!DOCTYPE svg PUBLIC "-//W3C//DTD SVG 1.1//EN"
 "http://www.w3.org/Graphics/SVG/1.1/DTD/svg11.dtd">
<!-- Generated by graphviz version 2.40.1 (20161225.0304)
 -->
<!-- Title: o2::emcal::CaloRawFitterGamma2 Pages: 1 -->
<svg width="580pt" height="651pt"
 viewBox="0.00 0.00 580.00 651.00" xmlns="http://www.w3.org/2000/svg" xmlns:xlink="http://www.w3.org/1999/xlink">
<g id="graph0" class="graph" transform="scale(1 1) rotate(0) translate(4 647)">
<title>o2::emcal::CaloRawFitterGamma2</title>
<!-- Node2 -->
<g id="node1" class="node">
<title>Node2</title>
<polygon fill="#bfbfbf" stroke="#000000" points="143,-.5 143,-123.5 299,-123.5 299,-.5 143,-.5"/>
<text text-anchor="start" x="151" y="-111.5" font-family="Helvetica,sans-Serif" font-size="10.00" fill="#000000">o2::emcal::CaloRawFitter</text>
<text text-anchor="middle" x="221" y="-100.5" font-family="Helvetica,sans-Serif" font-size="10.00" fill="#000000">Gamma2</text>
<polyline fill="none" stroke="#000000" points="143,-93.5 299,-93.5 "/>
<text text-anchor="middle" x="221" y="-81.5" font-family="Helvetica,sans-Serif" font-size="10.00" fill="#000000"> </text>
<polyline fill="none" stroke="#000000" points="143,-74.5 299,-74.5 "/>
<text text-anchor="start" x="151" y="-62.5" font-family="Helvetica,sans-Serif" font-size="10.00" fill="#000000">+ CaloRawFitterGamma2()</text>
<text text-anchor="start" x="151" y="-51.5" font-family="Helvetica,sans-Serif" font-size="10.00" fill="#000000">+ ~CaloRawFitterGamma2()</text>
<text text-anchor="start" x="151" y="-40.5" font-family="Helvetica,sans-Serif" font-size="10.00" fill="#000000">+ setNiterationsMax()</text>
<text text-anchor="start" x="151" y="-29.5" font-family="Helvetica,sans-Serif" font-size="10.00" fill="#000000">+ getNiterations()</text>
<text text-anchor="start" x="151" y="-18.5" font-family="Helvetica,sans-Serif" font-size="10.00" fill="#000000">+ getNiterationsMax()</text>
<text text-anchor="start" x="151" y="-7.5" font-family="Helvetica,sans-Serif" font-size="10.00" fill="#000000">+ evaluate()</text>
</g>
<!-- Node3 -->
<g id="node2" class="node">
<title>Node3</title>
<g id="a_node2"><a xlink:href="../../d8/d83/classo2_1_1emcal_1_1CaloRawFitter.html" target="_top" xlink:title="{o2::emcal::CaloRawFitter\n||+ CaloRawFitter()\l+ ~CaloRawFitter()\l+ preFitEvaluateSamples()\l+ setTimeConstraint()\l+ setIsZeroSuppressed()\l+ setAmpCut()\l+ setNsamplePed()\l+ setL1Phase()\l+ getIsZeroSuppressed()\l+ getAmpCut()\l+ getNsamplePed()\l+ getReversed()\l+ getAlgoName()\l+ getAlgoAbbr()\l+ getAlgo()\l+ maxAmp()\l+ maxAmp()\l+ checkBunchEdgesForMax()\l+ isInTimeRange()\l+ reverseAndSubtractPed()\l+ selectBunch()\l+ selectSubarray()\l+ evaluatePedestal()\l+ calculateChi2()\l# ClassDefNV()\l}">
<polygon fill="none" stroke="#000000" points="142,-161.5 142,-482.5 300,-482.5 300,-161.5 142,-161.5"/>
<text text-anchor="middle" x="221" y="-470.5" font-family="Helvetica,sans-Serif" font-size="10.00" fill="#000000">o2::emcal::CaloRawFitter</text>
<polyline fill="none" stroke="#000000" points="142,-463.5 300,-463.5 "/>
<text text-anchor="middle" x="221" y="-451.5" font-family="Helvetica,sans-Serif" font-size="10.00" fill="#000000"> </text>
<polyline fill="none" stroke="#000000" points="142,-444.5 300,-444.5 "/>
<text text-anchor="start" x="150" y="-432.5" font-family="Helvetica,sans-Serif" font-size="10.00" fill="#000000">+ CaloRawFitter()</text>
<text text-anchor="start" x="150" y="-421.5" font-family="Helvetica,sans-Serif" font-size="10.00" fill="#000000">+ ~CaloRawFitter()</text>
<text text-anchor="start" x="150" y="-410.5" font-family="Helvetica,sans-Serif" font-size="10.00" fill="#000000">+ preFitEvaluateSamples()</text>
<text text-anchor="start" x="150" y="-399.5" font-family="Helvetica,sans-Serif" font-size="10.00" fill="#000000">+ setTimeConstraint()</text>
<text text-anchor="start" x="150" y="-388.5" font-family="Helvetica,sans-Serif" font-size="10.00" fill="#000000">+ setIsZeroSuppressed()</text>
<text text-anchor="start" x="150" y="-377.5" font-family="Helvetica,sans-Serif" font-size="10.00" fill="#000000">+ setAmpCut()</text>
<text text-anchor="start" x="150" y="-366.5" font-family="Helvetica,sans-Serif" font-size="10.00" fill="#000000">+ setNsamplePed()</text>
<text text-anchor="start" x="150" y="-355.5" font-family="Helvetica,sans-Serif" font-size="10.00" fill="#000000">+ setL1Phase()</text>
<text text-anchor="start" x="150" y="-344.5" font-family="Helvetica,sans-Serif" font-size="10.00" fill="#000000">+ getIsZeroSuppressed()</text>
<text text-anchor="start" x="150" y="-333.5" font-family="Helvetica,sans-Serif" font-size="10.00" fill="#000000">+ getAmpCut()</text>
<text text-anchor="start" x="150" y="-322.5" font-family="Helvetica,sans-Serif" font-size="10.00" fill="#000000">+ getNsamplePed()</text>
<text text-anchor="start" x="150" y="-311.5" font-family="Helvetica,sans-Serif" font-size="10.00" fill="#000000">+ getReversed()</text>
<text text-anchor="start" x="150" y="-300.5" font-family="Helvetica,sans-Serif" font-size="10.00" fill="#000000">+ getAlgoName()</text>
<text text-anchor="start" x="150" y="-289.5" font-family="Helvetica,sans-Serif" font-size="10.00" fill="#000000">+ getAlgoAbbr()</text>
<text text-anchor="start" x="150" y="-278.5" font-family="Helvetica,sans-Serif" font-size="10.00" fill="#000000">+ getAlgo()</text>
<text text-anchor="start" x="150" y="-267.5" font-family="Helvetica,sans-Serif" font-size="10.00" fill="#000000">+ maxAmp()</text>
<text text-anchor="start" x="150" y="-256.5" font-family="Helvetica,sans-Serif" font-size="10.00" fill="#000000">+ maxAmp()</text>
<text text-anchor="start" x="150" y="-245.5" font-family="Helvetica,sans-Serif" font-size="10.00" fill="#000000">+ checkBunchEdgesForMax()</text>
<text text-anchor="start" x="150" y="-234.5" font-family="Helvetica,sans-Serif" font-size="10.00" fill="#000000">+ isInTimeRange()</text>
<text text-anchor="start" x="150" y="-223.5" font-family="Helvetica,sans-Serif" font-size="10.00" fill="#000000">+ reverseAndSubtractPed()</text>
<text text-anchor="start" x="150" y="-212.5" font-family="Helvetica,sans-Serif" font-size="10.00" fill="#000000">+ selectBunch()</text>
<text text-anchor="start" x="150" y="-201.5" font-family="Helvetica,sans-Serif" font-size="10.00" fill="#000000">+ selectSubarray()</text>
<text text-anchor="start" x="150" y="-190.5" font-family="Helvetica,sans-Serif" font-size="10.00" fill="#000000">+ evaluatePedestal()</text>
<text text-anchor="start" x="150" y="-179.5" font-family="Helvetica,sans-Serif" font-size="10.00" fill="#000000">+ calculateChi2()</text>
<text text-anchor="start" x="150" y="-168.5" font-family="Helvetica,sans-Serif" font-size="10.00" fill="#000000"># ClassDefNV()</text>
</a>
</g>
</g>
<!-- Node3&#45;&gt;Node2 -->
<g id="edge1" class="edge">
<title>Node3&#45;&gt;Node2</title>
<path fill="none" stroke="#191970" d="M221,-151.2727C221,-141.6524 221,-132.363 221,-123.6466"/>
<polygon fill="none" stroke="#191970" points="217.5001,-151.4077 221,-161.4078 224.5001,-151.4078 217.5001,-151.4077"/>
</g>
<!-- Node4 -->
<g id="node3" class="node">
<title>Node4</title>
<polygon fill="none" stroke="#bfbfbf" points="0,-580 0,-637 50,-637 50,-580 0,-580"/>
<text text-anchor="middle" x="25" y="-625" font-family="Helvetica,sans-Serif" font-size="10.00" fill="#000000">double</text>
<polyline fill="none" stroke="#bfbfbf" points="0,-618 50,-618 "/>
<text text-anchor="middle" x="25" y="-606" font-family="Helvetica,sans-Serif" font-size="10.00" fill="#000000"> </text>
<polyline fill="none" stroke="#bfbfbf" points="0,-599 50,-599 "/>
<text text-anchor="middle" x="25" y="-587" font-family="Helvetica,sans-Serif" font-size="10.00" fill="#000000"> </text>
</g>
<!-- Node4&#45;&gt;Node3 -->
<g id="edge2" class="edge">
<title>Node4&#45;&gt;Node3</title>
<path fill="none" stroke="#404040" d="M27.8525,-579.6515C31.0258,-557.1252 37.5977,-525.6227 51,-501 71.8863,-462.6276 103.0938,-426.4326 133.0913,-396.7652"/>
<polygon fill="none" stroke="#404040" points="133.3238,-396.5391 134.8378,-389.4887 141.9282,-388.1746 140.4142,-395.225 133.3238,-396.5391"/>
<text text-anchor="middle" x="82" y="-531.5" font-family="Helvetica,sans-Serif" font-size="10.00" fill="#000000"> #mL1Phase</text>
<text text-anchor="middle" x="82" y="-520.5" font-family="Helvetica,sans-Serif" font-size="10.00" fill="#000000">#mAmp</text>
</g>
<!-- Node5 -->
<g id="node4" class="node">
<title>Node5</title>
<polygon fill="none" stroke="#bfbfbf" points="70,-580 70,-637 146,-637 146,-580 70,-580"/>
<text text-anchor="middle" x="108" y="-625" font-family="Helvetica,sans-Serif" font-size="10.00" fill="#000000">FitAlgorithm</text>
<polyline fill="none" stroke="#bfbfbf" points="70,-618 146,-618 "/>
<text text-anchor="middle" x="108" y="-606" font-family="Helvetica,sans-Serif" font-size="10.00" fill="#000000"> </text>
<polyline fill="none" stroke="#bfbfbf" points="70,-599 146,-599 "/>
<text text-anchor="middle" x="108" y="-587" font-family="Helvetica,sans-Serif" font-size="10.00" fill="#000000"> </text>
</g>
<!-- Node5&#45;&gt;Node3 -->
<g id="edge3" class="edge">
<title>Node5&#45;&gt;Node3</title>
<path fill="none" stroke="#404040" d="M112.117,-579.6624C115.7409,-557.6983 121.878,-526.9252 131,-501 132.9536,-495.4477 135.0422,-489.8473 137.2394,-484.2294"/>
<polygon fill="none" stroke="#404040" points="137.4071,-483.8131 135.9403,-476.7527 141.8935,-472.6832 143.3602,-479.7436 137.4071,-483.8131"/>
<text text-anchor="middle" x="152.5" y="-526" font-family="Helvetica,sans-Serif" font-size="10.00" fill="#000000"> #mAlgo</text>
</g>
<!-- Node6 -->
<g id="node5" class="node">
<title>Node6</title>
<g id="a_node5"><a xlink:href="../../d4/dc3/classfloat.html" target="_top" xlink:title="{float\n||}">
<polygon fill="none" stroke="#000000" points="164,-580 164,-637 202,-637 202,-580 164,-580"/>
<text text-anchor="middle" x="183" y="-625" font-family="Helvetica,sans-Serif" font-size="10.00" fill="#000000">float</text>
<polyline fill="none" stroke="#000000" points="164,-618 202,-618 "/>
<text text-anchor="middle" x="183" y="-606" font-family="Helvetica,sans-Serif" font-size="10.00" fill="#000000"> </text>
<polyline fill="none" stroke="#000000" points="164,-599 202,-599 "/>
<text text-anchor="middle" x="183" y="-587" font-family="Helvetica,sans-Serif" font-size="10.00" fill="#000000"> </text>
</a>
</g>
</g>
<!-- Node6&#45;&gt;Node3 -->
<g id="edge4" class="edge">
<title>Node6&#45;&gt;Node3</title>
<path fill="none" stroke="#404040" d="M181.069,-579.903C180.6266,-572.1505 180.2214,-563.7569 180,-556 179.3024,-531.5655 177.2538,-525.2897 180,-501 180.2339,-498.9309 180.4826,-496.851 180.7451,-494.7619"/>
<polygon fill="none" stroke="#404040" points="180.767,-494.6013 177.6173,-488.1144 182.3938,-482.712 185.5435,-489.1989 180.767,-494.6013"/>
<text text-anchor="middle" x="210.5" y="-526" font-family="Helvetica,sans-Serif" font-size="10.00" fill="#000000"> #mAmpCut</text>
</g>
<!-- Node7 -->
<g id="node6" class="node">
<title>Node7</title>
<polygon fill="none" stroke="#bfbfbf" points="248.5,-580 248.5,-637 277.5,-637 277.5,-580 248.5,-580"/>
<text text-anchor="middle" x="263" y="-625" font-family="Helvetica,sans-Serif" font-size="10.00" fill="#000000">int</text>
<polyline fill="none" stroke="#bfbfbf" points="248.5,-618 277.5,-618 "/>
<text text-anchor="middle" x="263" y="-606" font-family="Helvetica,sans-Serif" font-size="10.00" fill="#000000"> </text>
<polyline fill="none" stroke="#bfbfbf" points="248.5,-599 277.5,-599 "/>
<text text-anchor="middle" x="263" y="-587" font-family="Helvetica,sans-Serif" font-size="10.00" fill="#000000"> </text>
</g>
<!-- Node7&#45;&gt;Node3 -->
<g id="edge5" class="edge">
<title>Node7&#45;&gt;Node3</title>
<path fill="none" stroke="#404040" d="M258.8193,-579.9819C255.7148,-558.8044 251.1949,-527.9724 246.3521,-494.9373"/>
<polygon fill="none" stroke="#404040" points="246.2959,-494.5537 241.4679,-489.1974 244.5553,-482.6806 249.3833,-488.0369 246.2959,-494.5537"/>
<text text-anchor="middle" x="299.5" y="-548" font-family="Helvetica,sans-Serif" font-size="10.00" fill="#000000"> #mName</text>
<text text-anchor="middle" x="299.5" y="-537" font-family="Helvetica,sans-Serif" font-size="10.00" fill="#000000">#mNameShort</text>
<text text-anchor="middle" x="299.5" y="-526" font-family="Helvetica,sans-Serif" font-size="10.00" fill="#000000">#mMaxTimeIndex</text>
<text text-anchor="middle" x="299.5" y="-515" font-family="Helvetica,sans-Serif" font-size="10.00" fill="#000000">#mNsamplePed</text>
<text text-anchor="middle" x="299.5" y="-504" font-family="Helvetica,sans-Serif" font-size="10.00" fill="#000000">#mMinTimeIndex</text>
</g>
<!-- Node8 -->
<g id="node7" class="node">
<title>Node8</title>
<polygon fill="none" stroke="#bfbfbf" points="358,-580 358,-637 396,-637 396,-580 358,-580"/>
<text text-anchor="middle" x="377" y="-625" font-family="Helvetica,sans-Serif" font-size="10.00" fill="#000000">bool</text>
<polyline fill="none" stroke="#bfbfbf" points="358,-618 396,-618 "/>
<text text-anchor="middle" x="377" y="-606" font-family="Helvetica,sans-Serif" font-size="10.00" fill="#000000"> </text>
<polyline fill="none" stroke="#bfbfbf" points="358,-599 396,-599 "/>
<text text-anchor="middle" x="377" y="-587" font-family="Helvetica,sans-Serif" font-size="10.00" fill="#000000"> </text>
</g>
<!-- Node8&#45;&gt;Node3 -->
<g id="edge6" class="edge">
<title>Node8&#45;&gt;Node3</title>
<path fill="none" stroke="#404040" d="M372.4592,-579.6799C368.2636,-557.4512 360.8553,-526.3272 349,-501 337.5721,-476.5858 322.7201,-452.0318 307.1995,-429.2696"/>
<polygon fill="none" stroke="#404040" points="307.1149,-429.1477 300.4081,-426.4982 300.2742,-419.2884 306.981,-421.9378 307.1149,-429.1477"/>
<text text-anchor="middle" x="418" y="-526" font-family="Helvetica,sans-Serif" font-size="10.00" fill="#000000"> #mIsZerosupressed</text>
</g>
<!-- Node9 -->
<g id="node8" class="node">
<title>Node9</title>
<polygon fill="none" stroke="#bfbfbf" points="432,-574.5 432,-642.5 572,-642.5 572,-574.5 432,-574.5"/>
<text text-anchor="start" x="440" y="-630.5" font-family="Helvetica,sans-Serif" font-size="10.00" fill="#000000">array&lt; double, constants</text>
<text text-anchor="middle" x="502" y="-619.5" font-family="Helvetica,sans-Serif" font-size="10.00" fill="#000000">::EMCAL_MAXTIMEBINS &gt;</text>
<polyline fill="none" stroke="#bfbfbf" points="432,-612.5 572,-612.5 "/>
<text text-anchor="middle" x="502" y="-600.5" font-family="Helvetica,sans-Serif" font-size="10.00" fill="#000000"> </text>
<polyline fill="none" stroke="#bfbfbf" points="432,-593.5 572,-593.5 "/>
<text text-anchor="middle" x="502" y="-581.5" font-family="Helvetica,sans-Serif" font-size="10.00" fill="#000000"> </text>
</g>
<!-- Node9&#45;&gt;Node3 -->
<g id="edge7" class="edge">
<title>Node9&#45;&gt;Node3</title>
<path fill="none" stroke="#404040" d="M498.8378,-574.4969C495.3761,-551.9908 488.1349,-522.7316 473,-501 432.0999,-442.2732 365.4263,-396.1563 310.9311,-365.4483"/>
<polygon fill="none" stroke="#404040" points="310.7052,-365.3233 303.5186,-365.918 300.2056,-359.5129 307.3922,-358.9183 310.7052,-365.3233"/>
<text text-anchor="middle" x="527.5" y="-526" font-family="Helvetica,sans-Serif" font-size="10.00" fill="#000000"> #mReversed</text>
</g>
</g>
</svg>
