<?xml version="1.0" encoding="UTF-8" standalone="no"?>
<!DOCTYPE svg PUBLIC "-//W3C//DTD SVG 1.1//EN"
 "http://www.w3.org/Graphics/SVG/1.1/DTD/svg11.dtd">
<!-- Generated by graphviz version 2.40.1 (20161225.0304)
 -->
<!-- Title: TestPages::RawPage Pages: 1 -->
<!--zoomable 529 -->
<svg id="main" version="1.1" xmlns="http://www.w3.org/2000/svg" xmlns:xlink="http://www.w3.org/1999/xlink" xml:space="preserve" onload="init(evt)">
<style type="text/css"><![CDATA[
.edge:hover path { stroke: red; }
.edge:hover polygon { stroke: red; fill: red; }
]]></style>
<script type="text/javascript"><![CDATA[
var edges = document.getElementsByTagName('g');
if (edges && edges.length) {
  for (var i=0;i<edges.length;i++) {
    if (edges[i].id.substr(0,4)=='edge') {
      edges[i].setAttribute('class','edge');
    }
  }
}
]]></script>
        <defs>
                <circle id="rim" cx="0" cy="0" r="7"/>
                <circle id="rim2" cx="0" cy="0" r="3.5"/>
                <g id="zoomPlus">
                        <use xlink:href="#rim" fill="#404040">
                                <set attributeName="fill" to="#808080" begin="zoomplus.mouseover" end="zoomplus.mouseout"/>
                        </use>
                        <path d="M-4,0h8M0,-4v8" fill="none" stroke="white" stroke-width="1.5" pointer-events="none"/>
                </g>
                <g id="zoomMin">
                        <use xlink:href="#rim" fill="#404040">
                                <set attributeName="fill" to="#808080" begin="zoomminus.mouseover" end="zoomminus.mouseout"/>
                        </use>
                        <path d="M-4,0h8" fill="none" stroke="white" stroke-width="1.5" pointer-events="none"/>
                </g>
                <g id="dirArrow">
                        <path fill="none" stroke="white" stroke-width="1.5" d="M0,-3.0v7 M-2.5,-0.5L0,-3.0L2.5,-0.5"/>
                </g>
               <g id="resetDef">
                       <use xlink:href="#rim2" fill="#404040">
                               <set attributeName="fill" to="#808080" begin="reset.mouseover" end="reset.mouseout"/>
                       </use>
               </g>
        </defs>

<script type="text/javascript">
var viewWidth = 1331;
var viewHeight = 529;
var sectionId = 'dynsection-0';
</script>
<script xlink:href="../../svgpan.js"/>
<svg id="graph" class="graph">
<g id="viewport">
<title>TestPages::RawPage</title>
<!-- Node1 -->
<g id="node1" class="node">
<title>Node1</title>
<polygon fill="#bfbfbf" stroke="#000000" points="414,-.5 414,-57.5 529,-57.5 529,-.5 414,-.5"/>
<text text-anchor="middle" x="471.5" y="-45.5" font-family="Helvetica,sans-Serif" font-size="10.00" fill="#000000">TestPages::RawPage</text>
<polyline fill="none" stroke="#000000" points="414,-38.5 529,-38.5 "/>
<text text-anchor="middle" x="471.5" y="-26.5" font-family="Helvetica,sans-Serif" font-size="10.00" fill="#000000"> </text>
<polyline fill="none" stroke="#000000" points="414,-19.5 529,-19.5 "/>
<text text-anchor="middle" x="471.5" y="-7.5" font-family="Helvetica,sans-Serif" font-size="10.00" fill="#000000"> </text>
</g>
<!-- Node2 -->
<g id="node2" class="node">
<title>Node2</title>
<polygon fill="none" stroke="#bfbfbf" points="424.5,-177 424.5,-234 462.5,-234 462.5,-177 424.5,-177"/>
<text text-anchor="middle" x="443.5" y="-222" font-family="Helvetica,sans-Serif" font-size="10.00" fill="#000000">char</text>
<polyline fill="none" stroke="#bfbfbf" points="424.5,-215 462.5,-215 "/>
<text text-anchor="middle" x="443.5" y="-203" font-family="Helvetica,sans-Serif" font-size="10.00" fill="#000000"> </text>
<polyline fill="none" stroke="#bfbfbf" points="424.5,-196 462.5,-196 "/>
<text text-anchor="middle" x="443.5" y="-184" font-family="Helvetica,sans-Serif" font-size="10.00" fill="#000000"> </text>
</g>
<!-- Node2&#45;&gt;Node1 -->
<g id="edge1" class="edge">
<title>Node2&#45;&gt;Node1</title>
<path fill="none" stroke="#404040" d="M448.061,-176.7494C452.6779,-147.6462 459.8585,-102.3832 465.0557,-69.6223"/>
<polygon fill="none" stroke="#404040" points="465.0607,-69.5901 462.0502,-63.0374 466.941,-57.7383 469.9514,-64.2909 465.0607,-69.5901"/>
<text text-anchor="middle" x="481.5" y="-79" font-family="Helvetica,sans-Serif" font-size="10.00" fill="#000000"> +data</text>
</g>
<!-- Node3 -->
<g id="node3" class="node">
<title>Node3</title>
<g id="a_node3"><a xlink:href="../../d8/d47/structo2_1_1header_1_1RAWDataHeaderV4.html" target="_top" xlink:title="{o2::header::RAWDataHeaderV4\n|+ word0\l+ blockLength\l+ zero0\l+ word1\l+ word2\l+ word3\l+ word4\l+ heartbeatBC\l+ zero42\l+ word5\l+ word6\l+ detectorField\l+ stop\l+ pageCnt\l|}">
<polygon fill="none" stroke="#000000" points="480,-105.5 480,-305.5 647,-305.5 647,-105.5 480,-105.5"/>
<text text-anchor="middle" x="563.5" y="-293.5" font-family="Helvetica,sans-Serif" font-size="10.00" fill="#000000">o2::header::RAWDataHeaderV4</text>
<polyline fill="none" stroke="#000000" points="480,-286.5 647,-286.5 "/>
<text text-anchor="start" x="488" y="-274.5" font-family="Helvetica,sans-Serif" font-size="10.00" fill="#000000">+ word0</text>
<text text-anchor="start" x="488" y="-263.5" font-family="Helvetica,sans-Serif" font-size="10.00" fill="#000000">+ blockLength</text>
<text text-anchor="start" x="488" y="-252.5" font-family="Helvetica,sans-Serif" font-size="10.00" fill="#000000">+ zero0</text>
<text text-anchor="start" x="488" y="-241.5" font-family="Helvetica,sans-Serif" font-size="10.00" fill="#000000">+ word1</text>
<text text-anchor="start" x="488" y="-230.5" font-family="Helvetica,sans-Serif" font-size="10.00" fill="#000000">+ word2</text>
<text text-anchor="start" x="488" y="-219.5" font-family="Helvetica,sans-Serif" font-size="10.00" fill="#000000">+ word3</text>
<text text-anchor="start" x="488" y="-208.5" font-family="Helvetica,sans-Serif" font-size="10.00" fill="#000000">+ word4</text>
<text text-anchor="start" x="488" y="-197.5" font-family="Helvetica,sans-Serif" font-size="10.00" fill="#000000">+ heartbeatBC</text>
<text text-anchor="start" x="488" y="-186.5" font-family="Helvetica,sans-Serif" font-size="10.00" fill="#000000">+ zero42</text>
<text text-anchor="start" x="488" y="-175.5" font-family="Helvetica,sans-Serif" font-size="10.00" fill="#000000">+ word5</text>
<text text-anchor="start" x="488" y="-164.5" font-family="Helvetica,sans-Serif" font-size="10.00" fill="#000000">+ word6</text>
<text text-anchor="start" x="488" y="-153.5" font-family="Helvetica,sans-Serif" font-size="10.00" fill="#000000">+ detectorField</text>
<text text-anchor="start" x="488" y="-142.5" font-family="Helvetica,sans-Serif" font-size="10.00" fill="#000000">+ stop</text>
<text text-anchor="start" x="488" y="-131.5" font-family="Helvetica,sans-Serif" font-size="10.00" fill="#000000">+ pageCnt</text>
<polyline fill="none" stroke="#000000" points="480,-124.5 647,-124.5 "/>
<text text-anchor="middle" x="563.5" y="-112.5" font-family="Helvetica,sans-Serif" font-size="10.00" fill="#000000"> </text>
</a>
</g>
</g>
<!-- Node3&#45;&gt;Node1 -->
<g id="edge2" class="edge">
<title>Node3&#45;&gt;Node1</title>
<path fill="none" stroke="#404040" d="M518.1264,-105.4315C513.0485,-95.3881 507.793,-85.4262 502.5,-76 501.0134,-73.3525 499.4311,-70.6556 497.7983,-67.9601"/>
<polygon fill="none" stroke="#404040" points="497.7249,-67.843 491.1472,-64.8874 491.3456,-57.679 497.9232,-60.6346 497.7249,-67.843"/>
<text text-anchor="middle" x="521.5" y="-79" font-family="Helvetica,sans-Serif" font-size="10.00" fill="#000000"> +rdh</text>
</g>
<!-- Node4 -->
<g id="node4" class="node">
<title>Node4</title>
<polygon fill="none" stroke="#bfbfbf" points="0,-463.5 0,-520.5 113,-520.5 113,-463.5 0,-463.5"/>
<text text-anchor="middle" x="56.5" y="-508.5" font-family="Helvetica,sans-Serif" font-size="10.00" fill="#000000">anonymous:+@129</text>
<polyline fill="none" stroke="#bfbfbf" points="0,-501.5 113,-501.5 "/>
<text text-anchor="middle" x="56.5" y="-489.5" font-family="Helvetica,sans-Serif" font-size="10.00" fill="#000000"> </text>
<polyline fill="none" stroke="#bfbfbf" points="0,-482.5 113,-482.5 "/>
<text text-anchor="middle" x="56.5" y="-470.5" font-family="Helvetica,sans-Serif" font-size="10.00" fill="#000000"> </text>
</g>
<!-- Node4&#45;&gt;Node3 -->
<g id="edge3" class="edge">
<title>Node4&#45;&gt;Node3</title>
<path fill="none" stroke="#404040" d="M54.0799,-463.2133C52.6227,-424.8015 56.6235,-357.7203 97.5,-324 127.5872,-299.1801 396.8704,-320.6125 468.2126,-305.2954"/>
<polygon fill="none" stroke="#404040" points="468.2541,-305.2825 472.7948,-299.6805 479.7123,-301.7173 475.1716,-307.3193 468.2541,-305.2825"/>
<text text-anchor="middle" x="117.5" y="-382" font-family="Helvetica,sans-Serif" font-size="10.00" fill="#000000"> +@129</text>
</g>
<!-- Node5 -->
<g id="node5" class="node">
<title>Node5</title>
<g id="a_node5"><a xlink:href="../../d6/d30/classuint64__t.html" target="_top" xlink:title="{uint64_t\n||}">
<polygon fill="none" stroke="#000000" points="131.5,-463.5 131.5,-520.5 187.5,-520.5 187.5,-463.5 131.5,-463.5"/>
<text text-anchor="middle" x="159.5" y="-508.5" font-family="Helvetica,sans-Serif" font-size="10.00" fill="#000000">uint64_t</text>
<polyline fill="none" stroke="#000000" points="131.5,-501.5 187.5,-501.5 "/>
<text text-anchor="middle" x="159.5" y="-489.5" font-family="Helvetica,sans-Serif" font-size="10.00" fill="#000000"> </text>
<polyline fill="none" stroke="#000000" points="131.5,-482.5 187.5,-482.5 "/>
<text text-anchor="middle" x="159.5" y="-470.5" font-family="Helvetica,sans-Serif" font-size="10.00" fill="#000000"> </text>
</a>
</g>
</g>
<!-- Node5&#45;&gt;Node3 -->
<g id="edge4" class="edge">
<title>Node5&#45;&gt;Node3</title>
<path fill="none" stroke="#404040" d="M150.4883,-463.4503C140.6251,-425.935 130.5884,-360.5385 166.5,-324 188.5765,-301.5381 405.8189,-317.8184 468.12,-305.1866"/>
<polygon fill="none" stroke="#404040" points="468.2096,-305.1595 472.7903,-299.5902 479.693,-301.6765 475.1123,-307.2458 468.2096,-305.1595"/>
<text text-anchor="middle" x="198.5" y="-437" font-family="Helvetica,sans-Serif" font-size="10.00" fill="#000000"> +word7</text>
<text text-anchor="middle" x="198.5" y="-426" font-family="Helvetica,sans-Serif" font-size="10.00" fill="#000000">+triggerType</text>
<text text-anchor="middle" x="198.5" y="-415" font-family="Helvetica,sans-Serif" font-size="10.00" fill="#000000">+zero6</text>
<text text-anchor="middle" x="198.5" y="-404" font-family="Helvetica,sans-Serif" font-size="10.00" fill="#000000">+par</text>
<text text-anchor="middle" x="198.5" y="-393" font-family="Helvetica,sans-Serif" font-size="10.00" fill="#000000">+feeId</text>
<text text-anchor="middle" x="198.5" y="-382" font-family="Helvetica,sans-Serif" font-size="10.00" fill="#000000">+priority</text>
<text text-anchor="middle" x="198.5" y="-371" font-family="Helvetica,sans-Serif" font-size="10.00" fill="#000000">+headerSize</text>
<text text-anchor="middle" x="198.5" y="-360" font-family="Helvetica,sans-Serif" font-size="10.00" fill="#000000">+version</text>
<text text-anchor="middle" x="198.5" y="-349" font-family="Helvetica,sans-Serif" font-size="10.00" fill="#000000">+triggerBC</text>
<text text-anchor="middle" x="198.5" y="-338" font-family="Helvetica,sans-Serif" font-size="10.00" fill="#000000">+zero41</text>
<text text-anchor="middle" x="198.5" y="-327" font-family="Helvetica,sans-Serif" font-size="10.00" fill="#000000">...</text>
</g>
<!-- Node6 -->
<g id="node6" class="node">
<title>Node6</title>
<polygon fill="none" stroke="#bfbfbf" points="207.5,-463.5 207.5,-520.5 263.5,-520.5 263.5,-463.5 207.5,-463.5"/>
<text text-anchor="middle" x="235.5" y="-508.5" font-family="Helvetica,sans-Serif" font-size="10.00" fill="#000000">uint16_t</text>
<polyline fill="none" stroke="#bfbfbf" points="207.5,-501.5 263.5,-501.5 "/>
<text text-anchor="middle" x="235.5" y="-489.5" font-family="Helvetica,sans-Serif" font-size="10.00" fill="#000000"> </text>
<polyline fill="none" stroke="#bfbfbf" points="207.5,-482.5 263.5,-482.5 "/>
<text text-anchor="middle" x="235.5" y="-470.5" font-family="Helvetica,sans-Serif" font-size="10.00" fill="#000000"> </text>
</g>
<!-- Node6&#45;&gt;Node3 -->
<g id="edge5" class="edge">
<title>Node6&#45;&gt;Node3</title>
<path fill="none" stroke="#404040" d="M234.1884,-463.3917C232.8943,-420.5632 233.3549,-342.7878 252.5,-324 285.0379,-292.0694 409.4849,-322.8036 468.4317,-305.8"/>
<polygon fill="none" stroke="#404040" points="468.7459,-305.6803 472.9284,-299.806 479.9594,-301.4073 475.777,-307.2817 468.7459,-305.6803"/>
<text text-anchor="middle" x="271" y="-382" font-family="Helvetica,sans-Serif" font-size="10.00" fill="#000000"> +cruID</text>
</g>
<!-- Node7 -->
<g id="node7" class="node">
<title>Node7</title>
<polygon fill="none" stroke="#bfbfbf" points="281.5,-463.5 281.5,-520.5 331.5,-520.5 331.5,-463.5 281.5,-463.5"/>
<text text-anchor="middle" x="306.5" y="-508.5" font-family="Helvetica,sans-Serif" font-size="10.00" fill="#000000">uint8_t</text>
<polyline fill="none" stroke="#bfbfbf" points="281.5,-501.5 331.5,-501.5 "/>
<text text-anchor="middle" x="306.5" y="-489.5" font-family="Helvetica,sans-Serif" font-size="10.00" fill="#000000"> </text>
<polyline fill="none" stroke="#bfbfbf" points="281.5,-482.5 331.5,-482.5 "/>
<text text-anchor="middle" x="306.5" y="-470.5" font-family="Helvetica,sans-Serif" font-size="10.00" fill="#000000"> </text>
</g>
<!-- Node7&#45;&gt;Node3 -->
<g id="edge6" class="edge">
<title>Node7&#45;&gt;Node3</title>
<path fill="none" stroke="#404040" d="M301.5004,-463.3028C294.8084,-420.7491 285.7085,-343.7996 303.5,-324 326.5861,-298.3083 421.0125,-318.9899 468.6214,-305.6284"/>
<polygon fill="none" stroke="#404040" points="468.7032,-305.5972 472.8793,-299.7184 479.9121,-301.3122 475.736,-307.191 468.7032,-305.5972"/>
<text text-anchor="middle" x="343.5" y="-393" font-family="Helvetica,sans-Serif" font-size="10.00" fill="#000000"> +linkID</text>
<text text-anchor="middle" x="343.5" y="-382" font-family="Helvetica,sans-Serif" font-size="10.00" fill="#000000">+endPointID</text>
<text text-anchor="middle" x="343.5" y="-371" font-family="Helvetica,sans-Serif" font-size="10.00" fill="#000000">+packetCounter</text>
</g>
<!-- Node8 -->
<g id="node8" class="node">
<title>Node8</title>
<g id="a_node8"><a xlink:href="../../d3/d87/classuint32__t.html" target="_top" xlink:title="{uint32_t\n||}">
<polygon fill="none" stroke="#000000" points="349.5,-463.5 349.5,-520.5 405.5,-520.5 405.5,-463.5 349.5,-463.5"/>
<text text-anchor="middle" x="377.5" y="-508.5" font-family="Helvetica,sans-Serif" font-size="10.00" fill="#000000">uint32_t</text>
<polyline fill="none" stroke="#000000" points="349.5,-501.5 405.5,-501.5 "/>
<text text-anchor="middle" x="377.5" y="-489.5" font-family="Helvetica,sans-Serif" font-size="10.00" fill="#000000"> </text>
<polyline fill="none" stroke="#000000" points="349.5,-482.5 405.5,-482.5 "/>
<text text-anchor="middle" x="377.5" y="-470.5" font-family="Helvetica,sans-Serif" font-size="10.00" fill="#000000"> </text>
</a>
</g>
</g>
<!-- Node8&#45;&gt;Node3 -->
<g id="edge7" class="edge">
<title>Node8&#45;&gt;Node3</title>
<path fill="none" stroke="#404040" d="M383.8806,-463.2161C385.1403,-457.2084 386.4087,-450.9065 387.5,-445 392.4451,-418.2346 388.3855,-344.3151 406.5,-324 424.2679,-304.0737 441.6727,-317.7882 469.2323,-306.0695"/>
<polygon fill="none" stroke="#404040" points="469.2382,-306.0665 472.6933,-299.737 479.8648,-300.492 476.4097,-306.8214 469.2382,-306.0665"/>
<text text-anchor="middle" x="448" y="-398.5" font-family="Helvetica,sans-Serif" font-size="10.00" fill="#000000"> +heartbeatOrbit</text>
<text text-anchor="middle" x="448" y="-387.5" font-family="Helvetica,sans-Serif" font-size="10.00" fill="#000000">+triggerOrbit</text>
<text text-anchor="middle" x="448" y="-376.5" font-family="Helvetica,sans-Serif" font-size="10.00" fill="#000000">+memorySize</text>
<text text-anchor="middle" x="448" y="-365.5" font-family="Helvetica,sans-Serif" font-size="10.00" fill="#000000">+offsetToNext</text>
</g>
<!-- Node9 -->
<g id="node9" class="node">
<title>Node9</title>
<polygon fill="none" stroke="#bfbfbf" points="424,-463.5 424,-520.5 537,-520.5 537,-463.5 424,-463.5"/>
<text text-anchor="middle" x="480.5" y="-508.5" font-family="Helvetica,sans-Serif" font-size="10.00" fill="#000000">anonymous:+@121</text>
<polyline fill="none" stroke="#bfbfbf" points="424,-501.5 537,-501.5 "/>
<text text-anchor="middle" x="480.5" y="-489.5" font-family="Helvetica,sans-Serif" font-size="10.00" fill="#000000"> </text>
<polyline fill="none" stroke="#bfbfbf" points="424,-482.5 537,-482.5 "/>
<text text-anchor="middle" x="480.5" y="-470.5" font-family="Helvetica,sans-Serif" font-size="10.00" fill="#000000"> </text>
</g>
<!-- Node9&#45;&gt;Node3 -->
<g id="edge8" class="edge">
<title>Node9&#45;&gt;Node3</title>
<path fill="none" stroke="#404040" d="M488.7618,-463.4819C498.6367,-429.3957 515.7575,-370.2979 531.1229,-317.2594"/>
<polygon fill="none" stroke="#404040" points="531.1341,-317.2204 528.9617,-310.3443 534.4734,-305.6944 536.6458,-312.5705 531.1341,-317.2204"/>
<text text-anchor="middle" x="546.5" y="-382" font-family="Helvetica,sans-Serif" font-size="10.00" fill="#000000"> +@121</text>
</g>
<!-- Node10 -->
<g id="node10" class="node">
<title>Node10</title>
<polygon fill="none" stroke="#bfbfbf" points="555,-463.5 555,-520.5 668,-520.5 668,-463.5 555,-463.5"/>
<text text-anchor="middle" x="611.5" y="-508.5" font-family="Helvetica,sans-Serif" font-size="10.00" fill="#000000">anonymous:+@131</text>
<polyline fill="none" stroke="#bfbfbf" points="555,-501.5 668,-501.5 "/>
<text text-anchor="middle" x="611.5" y="-489.5" font-family="Helvetica,sans-Serif" font-size="10.00" fill="#000000"> </text>
<polyline fill="none" stroke="#bfbfbf" points="555,-482.5 668,-482.5 "/>
<text text-anchor="middle" x="611.5" y="-470.5" font-family="Helvetica,sans-Serif" font-size="10.00" fill="#000000"> </text>
</g>
<!-- Node10&#45;&gt;Node3 -->
<g id="edge9" class="edge">
<title>Node10&#45;&gt;Node3</title>
<path fill="none" stroke="#404040" d="M606.7221,-463.4819C601.0233,-429.4672 591.1516,-370.5456 582.28,-317.593"/>
<polygon fill="none" stroke="#404040" points="582.2694,-317.5294 577.3329,-312.2729 580.2865,-305.6944 585.223,-310.9509 582.2694,-317.5294"/>
<text text-anchor="middle" x="622.5" y="-382" font-family="Helvetica,sans-Serif" font-size="10.00" fill="#000000"> +@131</text>
</g>
<!-- Node11 -->
<g id="node11" class="node">
<title>Node11</title>
<polygon fill="none" stroke="#bfbfbf" points="686,-463.5 686,-520.5 799,-520.5 799,-463.5 686,-463.5"/>
<text text-anchor="middle" x="742.5" y="-508.5" font-family="Helvetica,sans-Serif" font-size="10.00" fill="#000000">anonymous:+@123</text>
<polyline fill="none" stroke="#bfbfbf" points="686,-501.5 799,-501.5 "/>
<text text-anchor="middle" x="742.5" y="-489.5" font-family="Helvetica,sans-Serif" font-size="10.00" fill="#000000"> </text>
<polyline fill="none" stroke="#bfbfbf" points="686,-482.5 799,-482.5 "/>
<text text-anchor="middle" x="742.5" y="-470.5" font-family="Helvetica,sans-Serif" font-size="10.00" fill="#000000"> </text>
</g>
<!-- Node11&#45;&gt;Node3 -->
<g id="edge10" class="edge">
<title>Node11&#45;&gt;Node3</title>
<path fill="none" stroke="#404040" d="M727.144,-463.2911C708.8101,-429.4618 676.8103,-371.8045 646.5,-324 644.7631,-321.2606 642.9902,-318.496 641.1893,-315.7157"/>
<polygon fill="none" stroke="#404040" points="641.1369,-315.6355 634.503,-312.8084 634.5612,-305.5975 641.1951,-308.4246 641.1369,-315.6355"/>
<text text-anchor="middle" x="735.5" y="-382" font-family="Helvetica,sans-Serif" font-size="10.00" fill="#000000"> +@123</text>
</g>
<!-- Node12 -->
<g id="node12" class="node">
<title>Node12</title>
<polygon fill="none" stroke="#bfbfbf" points="817,-463.5 817,-520.5 930,-520.5 930,-463.5 817,-463.5"/>
<text text-anchor="middle" x="873.5" y="-508.5" font-family="Helvetica,sans-Serif" font-size="10.00" fill="#000000">anonymous:+@133</text>
<polyline fill="none" stroke="#bfbfbf" points="817,-501.5 930,-501.5 "/>
<text text-anchor="middle" x="873.5" y="-489.5" font-family="Helvetica,sans-Serif" font-size="10.00" fill="#000000"> </text>
<polyline fill="none" stroke="#bfbfbf" points="817,-482.5 930,-482.5 "/>
<text text-anchor="middle" x="873.5" y="-470.5" font-family="Helvetica,sans-Serif" font-size="10.00" fill="#000000"> </text>
</g>
<!-- Node12&#45;&gt;Node3 -->
<g id="edge11" class="edge">
<title>Node12&#45;&gt;Node3</title>
<path fill="none" stroke="#404040" d="M859.104,-463.3977C840.033,-427.5817 803.6055,-365.8525 759.5,-324 729.7004,-295.7227 692.0316,-270.9694 657.6982,-251.5012"/>
<polygon fill="none" stroke="#404040" points="657.6452,-251.4717 650.457,-252.0455 647.1625,-245.6309 654.3508,-245.0571 657.6452,-251.4717"/>
<text text-anchor="middle" x="867.5" y="-382" font-family="Helvetica,sans-Serif" font-size="10.00" fill="#000000"> +@133</text>
</g>
<!-- Node13 -->
<g id="node13" class="node">
<title>Node13</title>
<polygon fill="none" stroke="#bfbfbf" points="948,-463.5 948,-520.5 1061,-520.5 1061,-463.5 948,-463.5"/>
<text text-anchor="middle" x="1004.5" y="-508.5" font-family="Helvetica,sans-Serif" font-size="10.00" fill="#000000">anonymous:+@125</text>
<polyline fill="none" stroke="#bfbfbf" points="948,-501.5 1061,-501.5 "/>
<text text-anchor="middle" x="1004.5" y="-489.5" font-family="Helvetica,sans-Serif" font-size="10.00" fill="#000000"> </text>
<polyline fill="none" stroke="#bfbfbf" points="948,-482.5 1061,-482.5 "/>
<text text-anchor="middle" x="1004.5" y="-470.5" font-family="Helvetica,sans-Serif" font-size="10.00" fill="#000000"> </text>
</g>
<!-- Node13&#45;&gt;Node3 -->
<g id="edge12" class="edge">
<title>Node13&#45;&gt;Node3</title>
<path fill="none" stroke="#404040" d="M992.1365,-463.2341C974.7923,-426.0865 939.8551,-361.7372 891.5,-324 823.2541,-270.7396 728.9261,-240.008 658.9384,-223.2538"/>
<polygon fill="none" stroke="#404040" points="658.7333,-223.2061 651.9825,-225.7412 647.0459,-220.4848 653.7967,-217.9497 658.7333,-223.2061"/>
<text text-anchor="middle" x="1002.5" y="-382" font-family="Helvetica,sans-Serif" font-size="10.00" fill="#000000"> +@125</text>
</g>
<!-- Node14 -->
<g id="node14" class="node">
<title>Node14</title>
<polygon fill="none" stroke="#bfbfbf" points="1079,-463.5 1079,-520.5 1192,-520.5 1192,-463.5 1079,-463.5"/>
<text text-anchor="middle" x="1135.5" y="-508.5" font-family="Helvetica,sans-Serif" font-size="10.00" fill="#000000">anonymous:+@135</text>
<polyline fill="none" stroke="#bfbfbf" points="1079,-501.5 1192,-501.5 "/>
<text text-anchor="middle" x="1135.5" y="-489.5" font-family="Helvetica,sans-Serif" font-size="10.00" fill="#000000"> </text>
<polyline fill="none" stroke="#bfbfbf" points="1079,-482.5 1192,-482.5 "/>
<text text-anchor="middle" x="1135.5" y="-470.5" font-family="Helvetica,sans-Serif" font-size="10.00" fill="#000000"> </text>
</g>
<!-- Node14&#45;&gt;Node3 -->
<g id="edge13" class="edge">
<title>Node14&#45;&gt;Node3</title>
<path fill="none" stroke="#404040" d="M1124.7794,-463.4939C1109.0812,-425.7181 1076.1986,-359.699 1026.5,-324 968.1077,-282.0562 776.5995,-242.5964 658.9587,-221.4786"/>
<polygon fill="none" stroke="#404040" points="658.9221,-221.4721 652.3138,-224.3583 647.1079,-219.3683 653.7163,-216.4822 658.9221,-221.4721"/>
<text text-anchor="middle" x="1135.5" y="-382" font-family="Helvetica,sans-Serif" font-size="10.00" fill="#000000"> +@135</text>
</g>
<!-- Node15 -->
<g id="node15" class="node">
<title>Node15</title>
<polygon fill="none" stroke="#bfbfbf" points="1210,-463.5 1210,-520.5 1323,-520.5 1323,-463.5 1210,-463.5"/>
<text text-anchor="middle" x="1266.5" y="-508.5" font-family="Helvetica,sans-Serif" font-size="10.00" fill="#000000">anonymous:+@127</text>
<polyline fill="none" stroke="#bfbfbf" points="1210,-501.5 1323,-501.5 "/>
<text text-anchor="middle" x="1266.5" y="-489.5" font-family="Helvetica,sans-Serif" font-size="10.00" fill="#000000"> </text>
<polyline fill="none" stroke="#bfbfbf" points="1210,-482.5 1323,-482.5 "/>
<text text-anchor="middle" x="1266.5" y="-470.5" font-family="Helvetica,sans-Serif" font-size="10.00" fill="#000000"> </text>
</g>
<!-- Node15&#45;&gt;Node3 -->
<g id="edge14" class="edge">
<title>Node15&#45;&gt;Node3</title>
<path fill="none" stroke="#404040" d="M1256.5262,-463.4276C1241.6491,-425.2615 1209.8742,-358.4609 1159.5,-324 1079.3606,-269.1767 806.3224,-231.9268 659.2248,-215.3231"/>
<polygon fill="none" stroke="#404040" points="659.0505,-215.3038 652.6436,-218.6131 647.1246,-213.9718 653.5315,-210.6625 659.0505,-215.3038"/>
<text text-anchor="middle" x="1267.5" y="-382" font-family="Helvetica,sans-Serif" font-size="10.00" fill="#000000"> +@127</text>
</g>
</g>
</svg>
        <g id="navigator" transform="translate(0 0)" fill="#404254">
                <rect fill="#f2f5e9" fill-opacity="0.5" stroke="#606060" stroke-width=".5" x="0" y="0" width="60" height="60"/>
                <use id="zoomplus" xlink:href="#zoomPlus" x="17" y="9" onmousedown="handleZoom(evt,'in')"/>
                <use id="zoomminus" xlink:href="#zoomMin" x="42" y="9" onmousedown="handleZoom(evt,'out')"/>
                <use id="reset" xlink:href="#resetDef" x="30" y="36" onmousedown="handleReset()"/>
                <g id="arrowUp" xlink:href="#dirArrow" transform="translate(30 24)" onmousedown="handlePan(0,-1)">
                  <use xlink:href="#rim" fill="#404040">
                        <set attributeName="fill" to="#808080" begin="arrowUp.mouseover" end="arrowUp.mouseout"/>
                  </use>
                  <path fill="none" stroke="white" stroke-width="1.5" d="M0,-3.0v7 M-2.5,-0.5L0,-3.0L2.5,-0.5"/>
                </g>
                <g id="arrowRight" xlink:href="#dirArrow" transform="rotate(90) translate(36 -43)" onmousedown="handlePan(1,0)">
                  <use xlink:href="#rim" fill="#404040">
                        <set attributeName="fill" to="#808080" begin="arrowRight.mouseover" end="arrowRight.mouseout"/>
                  </use>
                  <path fill="none" stroke="white" stroke-width="1.5" d="M0,-3.0v7 M-2.5,-0.5L0,-3.0L2.5,-0.5"/>
                </g>
                <g id="arrowDown" xlink:href="#dirArrow" transform="rotate(180) translate(-30 -48)" onmousedown="handlePan(0,1)">
                  <use xlink:href="#rim" fill="#404040">
                        <set attributeName="fill" to="#808080" begin="arrowDown.mouseover" end="arrowDown.mouseout"/>
                  </use>
                  <path fill="none" stroke="white" stroke-width="1.5" d="M0,-3.0v7 M-2.5,-0.5L0,-3.0L2.5,-0.5"/>
                </g>
                <g id="arrowLeft" xlink:href="#dirArrow" transform="rotate(270) translate(-36 17)" onmousedown="handlePan(-1,0)">
                  <use xlink:href="#rim" fill="#404040">
                        <set attributeName="fill" to="#808080" begin="arrowLeft.mouseover" end="arrowLeft.mouseout"/>
                  </use>
                  <path fill="none" stroke="white" stroke-width="1.5" d="M0,-3.0v7 M-2.5,-0.5L0,-3.0L2.5,-0.5"/>
                </g>
        </g>
        <svg viewBox="0 0 15 15" width="100%" height="30px" preserveAspectRatio="xMaxYMin meet">
         <g id="arrow_out" transform="scale(0.3 0.3)">
          <a xlink:href="structTestPages_1_1RawPage__coll__graph_org.svg" target="_base">
           <rect id="button" ry="5" rx="5" y="6" x="6" height="38" width="38"
                fill="#f2f5e9" fill-opacity="0.5" stroke="#606060" stroke-width="1.0"/>
           <path id="arrow"
             d="M 11.500037,31.436501 C 11.940474,20.09759 22.043105,11.32322 32.158766,21.979434 L 37.068811,17.246167 C 37.068811,17.246167 37.088388,32 37.088388,32 L 22.160133,31.978069 C 22.160133,31.978069 26.997745,27.140456 26.997745,27.140456 C 18.528582,18.264221 13.291696,25.230495 11.500037,31.436501 z"
             style="fill:#404040;"/>
          </a>
         </g>
        </svg>
</svg>
