<?xml version="1.0" encoding="UTF-8" standalone="no"?>
<!DOCTYPE svg PUBLIC "-//W3C//DTD SVG 1.1//EN"
 "http://www.w3.org/Graphics/SVG/1.1/DTD/svg11.dtd">
<!-- Generated by graphviz version 2.40.1 (20161225.0304)
 -->
<!-- Title: /home/travis/build/AliceO2Group/AliceO2/Framework/Core/include/Framework/ASoAHelpers.h Pages: 1 -->
<svg width="2790pt" height="150pt"
 viewBox="0.00 0.00 2789.50 150.00" xmlns="http://www.w3.org/2000/svg" xmlns:xlink="http://www.w3.org/1999/xlink">
<g id="graph0" class="graph" transform="scale(1 1) rotate(0) translate(4 146)">
<title>/home/travis/build/AliceO2Group/AliceO2/Framework/Core/include/Framework/ASoAHelpers.h</title>
<!-- Node46 -->
<g id="node1" class="node">
<title>Node46</title>
<polygon fill="#bfbfbf" stroke="#000000" points="1441.5,-89.5 1441.5,-141.5 1590.5,-141.5 1590.5,-89.5 1441.5,-89.5"/>
<text text-anchor="start" x="1449.5" y="-129.5" font-family="Helvetica,sans-Serif" font-size="10.00" fill="#000000">/home/travis/build</text>
<text text-anchor="start" x="1449.5" y="-118.5" font-family="Helvetica,sans-Serif" font-size="10.00" fill="#000000">/AliceO2Group/AliceO2</text>
<text text-anchor="start" x="1449.5" y="-107.5" font-family="Helvetica,sans-Serif" font-size="10.00" fill="#000000">/Framework/Core/include</text>
<text text-anchor="middle" x="1516" y="-96.5" font-family="Helvetica,sans-Serif" font-size="10.00" fill="#000000">/Framework/ASoAHelpers.h</text>
</g>
<!-- Node47 -->
<g id="node2" class="node">
<title>Node47</title>
<g id="a_node2"><a xlink:href="../../df/d59/correlationsCollection_8cxx.html" target="_top" xlink:title="/home/travis/build\l/AliceO2Group/AliceO2\l/Analysis/Tasks/correlations\lCollection.cxx">
<polygon fill="none" stroke="#000000" points="0,-.5 0,-52.5 152,-52.5 152,-.5 0,-.5"/>
<text text-anchor="start" x="8" y="-40.5" font-family="Helvetica,sans-Serif" font-size="10.00" fill="#000000">/home/travis/build</text>
<text text-anchor="start" x="8" y="-29.5" font-family="Helvetica,sans-Serif" font-size="10.00" fill="#000000">/AliceO2Group/AliceO2</text>
<text text-anchor="start" x="8" y="-18.5" font-family="Helvetica,sans-Serif" font-size="10.00" fill="#000000">/Analysis/Tasks/correlations</text>
<text text-anchor="middle" x="76" y="-7.5" font-family="Helvetica,sans-Serif" font-size="10.00" fill="#000000">Collection.cxx</text>
</a>
</g>
</g>
<!-- Node46&#45;&gt;Node47 -->
<g id="edge1" class="edge">
<title>Node46&#45;&gt;Node47</title>
<path fill="none" stroke="#191970" d="M1431.168,-114.4247C1174.1687,-110.7192 406.7527,-96.2368 161,-53 158.1075,-52.4911 155.1761,-51.9118 152.2276,-51.2753"/>
<polygon fill="#191970" stroke="#191970" points="1431.1437,-117.9246 1441.1926,-114.5675 1431.2435,-110.9253 1431.1437,-117.9246"/>
</g>
<!-- Node48 -->
<g id="node3" class="node">
<title>Node48</title>
<g id="a_node3"><a xlink:href="../../d4/d39/correlationsMixed_8cxx.html" target="_top" xlink:title="/home/travis/build\l/AliceO2Group/AliceO2\l/Analysis/Tasks/correlations\lMixed.cxx">
<polygon fill="none" stroke="#000000" points="170,-.5 170,-52.5 322,-52.5 322,-.5 170,-.5"/>
<text text-anchor="start" x="178" y="-40.5" font-family="Helvetica,sans-Serif" font-size="10.00" fill="#000000">/home/travis/build</text>
<text text-anchor="start" x="178" y="-29.5" font-family="Helvetica,sans-Serif" font-size="10.00" fill="#000000">/AliceO2Group/AliceO2</text>
<text text-anchor="start" x="178" y="-18.5" font-family="Helvetica,sans-Serif" font-size="10.00" fill="#000000">/Analysis/Tasks/correlations</text>
<text text-anchor="middle" x="246" y="-7.5" font-family="Helvetica,sans-Serif" font-size="10.00" fill="#000000">Mixed.cxx</text>
</a>
</g>
</g>
<!-- Node46&#45;&gt;Node48 -->
<g id="edge2" class="edge">
<title>Node46&#45;&gt;Node48</title>
<path fill="none" stroke="#191970" d="M1431.0836,-113.7701C1196.4278,-108.5524 542.5483,-90.9392 331,-53 328.1092,-52.4816 325.1793,-51.8941 322.232,-51.2507"/>
<polygon fill="#191970" stroke="#191970" points="1431.1934,-117.2733 1441.2681,-113.9946 1431.3477,-110.275 1431.1934,-117.2733"/>
</g>
<!-- Node49 -->
<g id="node4" class="node">
<title>Node49</title>
<g id="a_node4"><a xlink:href="../../d2/d60/hfcandidatecreator2prong_8cxx.html" target="_top" xlink:title="/home/travis/build\l/AliceO2Group/AliceO2\l/Analysis/Tasks/hfcandidatecreator2prong.cxx">
<polygon fill="none" stroke="#000000" points="340,-6 340,-47 580,-47 580,-6 340,-6"/>
<text text-anchor="start" x="348" y="-35" font-family="Helvetica,sans-Serif" font-size="10.00" fill="#000000">/home/travis/build</text>
<text text-anchor="start" x="348" y="-24" font-family="Helvetica,sans-Serif" font-size="10.00" fill="#000000">/AliceO2Group/AliceO2</text>
<text text-anchor="middle" x="460" y="-13" font-family="Helvetica,sans-Serif" font-size="10.00" fill="#000000">/Analysis/Tasks/hfcandidatecreator2prong.cxx</text>
</a>
</g>
</g>
<!-- Node46&#45;&gt;Node49 -->
<g id="edge3" class="edge">
<title>Node46&#45;&gt;Node49</title>
<path fill="none" stroke="#191970" d="M1430.9758,-113.6105C1267.2926,-109.1243 897.3075,-94.8649 589,-53 577.1058,-51.3849 564.6648,-49.3177 552.4013,-47.0518"/>
<polygon fill="#191970" stroke="#191970" points="1431.3657,-117.1222 1441.4561,-113.8921 1431.5538,-110.1247 1431.3657,-117.1222"/>
</g>
<!-- Node50 -->
<g id="node5" class="node">
<title>Node50</title>
<g id="a_node5"><a xlink:href="../../d7/dbb/hftrackindexskimscreator_8cxx.html" target="_top" xlink:title="/home/travis/build\l/AliceO2Group/AliceO2\l/Analysis/Tasks/hftrackindexskimscreator.cxx">
<polygon fill="none" stroke="#000000" points="598.5,-6 598.5,-47 837.5,-47 837.5,-6 598.5,-6"/>
<text text-anchor="start" x="606.5" y="-35" font-family="Helvetica,sans-Serif" font-size="10.00" fill="#000000">/home/travis/build</text>
<text text-anchor="start" x="606.5" y="-24" font-family="Helvetica,sans-Serif" font-size="10.00" fill="#000000">/AliceO2Group/AliceO2</text>
<text text-anchor="middle" x="718" y="-13" font-family="Helvetica,sans-Serif" font-size="10.00" fill="#000000">/Analysis/Tasks/hftrackindexskimscreator.cxx</text>
</a>
</g>
</g>
<!-- Node46&#45;&gt;Node50 -->
<g id="edge4" class="edge">
<title>Node46&#45;&gt;Node50</title>
<path fill="none" stroke="#191970" d="M1431.2252,-110.6228C1303.7238,-102.6038 1055.2331,-84.3188 846,-53 834.6661,-51.3035 822.8228,-49.2451 811.1121,-47.0336"/>
<polygon fill="#191970" stroke="#191970" points="1431.1161,-114.1227 1441.3145,-111.2517 1431.5517,-107.1362 1431.1161,-114.1227"/>
</g>
<!-- Node51 -->
<g id="node6" class="node">
<title>Node51</title>
<g id="a_node6"><a xlink:href="../../d3/db8/invMassAnalysis_8cxx.html" target="_top" xlink:title="/home/travis/build\l/AliceO2Group/AliceO2\l/Analysis/Tasks/invMassAnalysis.cxx">
<polygon fill="none" stroke="#000000" points="855.5,-6 855.5,-47 1050.5,-47 1050.5,-6 855.5,-6"/>
<text text-anchor="start" x="863.5" y="-35" font-family="Helvetica,sans-Serif" font-size="10.00" fill="#000000">/home/travis/build</text>
<text text-anchor="start" x="863.5" y="-24" font-family="Helvetica,sans-Serif" font-size="10.00" fill="#000000">/AliceO2Group/AliceO2</text>
<text text-anchor="middle" x="953" y="-13" font-family="Helvetica,sans-Serif" font-size="10.00" fill="#000000">/Analysis/Tasks/invMassAnalysis.cxx</text>
</a>
</g>
</g>
<!-- Node46&#45;&gt;Node51 -->
<g id="edge5" class="edge">
<title>Node46&#45;&gt;Node51</title>
<path fill="none" stroke="#191970" d="M1431.0801,-106.6916C1338.9762,-96.4861 1187.8426,-77.8389 1059,-53 1049.8732,-51.2405 1040.3568,-49.1837 1030.9343,-47.0078"/>
<polygon fill="#191970" stroke="#191970" points="1430.8622,-110.1887 1441.1851,-107.8036 1431.628,-103.2307 1430.8622,-110.1887"/>
</g>
<!-- Node52 -->
<g id="node7" class="node">
<title>Node52</title>
<g id="a_node7"><a xlink:href="../../d4/d5e/reducedEventAnalysis_8cxx.html" target="_top" xlink:title="/home/travis/build\l/AliceO2Group/AliceO2\l/Analysis/Tasks/reducedEvent\lAnalysis.cxx">
<polygon fill="none" stroke="#000000" points="1068.5,-.5 1068.5,-52.5 1229.5,-52.5 1229.5,-.5 1068.5,-.5"/>
<text text-anchor="start" x="1076.5" y="-40.5" font-family="Helvetica,sans-Serif" font-size="10.00" fill="#000000">/home/travis/build</text>
<text text-anchor="start" x="1076.5" y="-29.5" font-family="Helvetica,sans-Serif" font-size="10.00" fill="#000000">/AliceO2Group/AliceO2</text>
<text text-anchor="start" x="1076.5" y="-18.5" font-family="Helvetica,sans-Serif" font-size="10.00" fill="#000000">/Analysis/Tasks/reducedEvent</text>
<text text-anchor="middle" x="1149" y="-7.5" font-family="Helvetica,sans-Serif" font-size="10.00" fill="#000000">Analysis.cxx</text>
</a>
</g>
</g>
<!-- Node46&#45;&gt;Node52 -->
<g id="edge6" class="edge">
<title>Node46&#45;&gt;Node52</title>
<path fill="none" stroke="#191970" d="M1431.233,-98.0133C1375.9801,-86.2291 1302.4372,-69.8156 1238,-53 1235.3481,-52.308 1232.6559,-51.591 1229.9406,-50.8554"/>
<polygon fill="#191970" stroke="#191970" points="1430.8216,-101.5039 1441.3307,-100.1588 1432.2766,-94.6568 1430.8216,-101.5039"/>
</g>
<!-- Node53 -->
<g id="node8" class="node">
<title>Node53</title>
<g id="a_node8"><a xlink:href="../../df/d80/spectraTOF_8cxx.html" target="_top" xlink:title="/home/travis/build\l/AliceO2Group/AliceO2\l/Analysis/Tasks/spectraTOF.cxx">
<polygon fill="none" stroke="#000000" points="1247.5,-6 1247.5,-47 1414.5,-47 1414.5,-6 1247.5,-6"/>
<text text-anchor="start" x="1255.5" y="-35" font-family="Helvetica,sans-Serif" font-size="10.00" fill="#000000">/home/travis/build</text>
<text text-anchor="start" x="1255.5" y="-24" font-family="Helvetica,sans-Serif" font-size="10.00" fill="#000000">/AliceO2Group/AliceO2</text>
<text text-anchor="middle" x="1331" y="-13" font-family="Helvetica,sans-Serif" font-size="10.00" fill="#000000">/Analysis/Tasks/spectraTOF.cxx</text>
</a>
</g>
</g>
<!-- Node46&#45;&gt;Node53 -->
<g id="edge7" class="edge">
<title>Node46&#45;&gt;Node53</title>
<path fill="none" stroke="#191970" d="M1452.4527,-84.9286C1426.4458,-72.4172 1397.0432,-58.2721 1373.6823,-47.0336"/>
<polygon fill="#191970" stroke="#191970" points="1450.9657,-88.0972 1461.4945,-89.2784 1454.0004,-81.7891 1450.9657,-88.0972"/>
</g>
<!-- Node54 -->
<g id="node9" class="node">
<title>Node54</title>
<g id="a_node9"><a xlink:href="../../d9/d14/tableMaker_8cxx.html" target="_top" xlink:title="/home/travis/build\l/AliceO2Group/AliceO2\l/Analysis/Tasks/tableMaker.cxx">
<polygon fill="none" stroke="#000000" points="1432,-6 1432,-47 1600,-47 1600,-6 1432,-6"/>
<text text-anchor="start" x="1440" y="-35" font-family="Helvetica,sans-Serif" font-size="10.00" fill="#000000">/home/travis/build</text>
<text text-anchor="start" x="1440" y="-24" font-family="Helvetica,sans-Serif" font-size="10.00" fill="#000000">/AliceO2Group/AliceO2</text>
<text text-anchor="middle" x="1516" y="-13" font-family="Helvetica,sans-Serif" font-size="10.00" fill="#000000">/Analysis/Tasks/tableMaker.cxx</text>
</a>
</g>
</g>
<!-- Node46&#45;&gt;Node54 -->
<g id="edge8" class="edge">
<title>Node46&#45;&gt;Node54</title>
<path fill="none" stroke="#191970" d="M1516,-79.1335C1516,-68.2443 1516,-56.6825 1516,-47.1771"/>
<polygon fill="#191970" stroke="#191970" points="1512.5001,-79.2784 1516,-89.2784 1519.5001,-79.2785 1512.5001,-79.2784"/>
</g>
<!-- Node55 -->
<g id="node10" class="node">
<title>Node55</title>
<g id="a_node10"><a xlink:href="../../d3/d48/taskdzero_8cxx.html" target="_top" xlink:title="/home/travis/build\l/AliceO2Group/AliceO2\l/Analysis/Tasks/taskdzero.cxx">
<polygon fill="none" stroke="#000000" points="1618,-6 1618,-47 1780,-47 1780,-6 1618,-6"/>
<text text-anchor="start" x="1626" y="-35" font-family="Helvetica,sans-Serif" font-size="10.00" fill="#000000">/home/travis/build</text>
<text text-anchor="start" x="1626" y="-24" font-family="Helvetica,sans-Serif" font-size="10.00" fill="#000000">/AliceO2Group/AliceO2</text>
<text text-anchor="middle" x="1699" y="-13" font-family="Helvetica,sans-Serif" font-size="10.00" fill="#000000">/Analysis/Tasks/taskdzero.cxx</text>
</a>
</g>
</g>
<!-- Node46&#45;&gt;Node55 -->
<g id="edge9" class="edge">
<title>Node46&#45;&gt;Node55</title>
<path fill="none" stroke="#191970" d="M1579.1975,-84.7646C1604.8399,-72.2937 1633.7717,-58.2231 1656.7791,-47.0336"/>
<polygon fill="#191970" stroke="#191970" points="1577.3784,-81.7573 1569.9163,-89.2784 1580.4399,-88.0523 1577.3784,-81.7573"/>
</g>
<!-- Node56 -->
<g id="node11" class="node">
<title>Node56</title>
<g id="a_node11"><a xlink:href="../../de/d5e/vertexerhf_8cxx.html" target="_top" xlink:title="/home/travis/build\l/AliceO2Group/AliceO2\l/Analysis/Tasks/vertexerhf.cxx">
<polygon fill="none" stroke="#000000" points="1798,-6 1798,-47 1962,-47 1962,-6 1798,-6"/>
<text text-anchor="start" x="1806" y="-35" font-family="Helvetica,sans-Serif" font-size="10.00" fill="#000000">/home/travis/build</text>
<text text-anchor="start" x="1806" y="-24" font-family="Helvetica,sans-Serif" font-size="10.00" fill="#000000">/AliceO2Group/AliceO2</text>
<text text-anchor="middle" x="1880" y="-13" font-family="Helvetica,sans-Serif" font-size="10.00" fill="#000000">/Analysis/Tasks/vertexerhf.cxx</text>
</a>
</g>
</g>
<!-- Node46&#45;&gt;Node56 -->
<g id="edge10" class="edge">
<title>Node46&#45;&gt;Node56</title>
<path fill="none" stroke="#191970" d="M1600.6193,-97.4616C1654.6936,-85.6057 1726.2019,-69.3173 1789,-53 1796.1667,-51.1378 1803.6257,-49.1115 1811.0527,-47.0363"/>
<polygon fill="#191970" stroke="#191970" points="1599.7533,-94.0682 1590.7313,-99.6228 1601.248,-100.9067 1599.7533,-94.0682"/>
</g>
<!-- Node57 -->
<g id="node12" class="node">
<title>Node57</title>
<g id="a_node12"><a xlink:href="../../d6/ddb/eventMixing_8cxx.html" target="_top" xlink:title="/home/travis/build\l/AliceO2Group/AliceO2\l/Analysis/Tutorials/src\l/eventMixing.cxx">
<polygon fill="none" stroke="#000000" points="1980.5,-.5 1980.5,-52.5 2107.5,-52.5 2107.5,-.5 1980.5,-.5"/>
<text text-anchor="start" x="1988.5" y="-40.5" font-family="Helvetica,sans-Serif" font-size="10.00" fill="#000000">/home/travis/build</text>
<text text-anchor="start" x="1988.5" y="-29.5" font-family="Helvetica,sans-Serif" font-size="10.00" fill="#000000">/AliceO2Group/AliceO2</text>
<text text-anchor="start" x="1988.5" y="-18.5" font-family="Helvetica,sans-Serif" font-size="10.00" fill="#000000">/Analysis/Tutorials/src</text>
<text text-anchor="middle" x="2044" y="-7.5" font-family="Helvetica,sans-Serif" font-size="10.00" fill="#000000">/eventMixing.cxx</text>
</a>
</g>
</g>
<!-- Node46&#45;&gt;Node57 -->
<g id="edge11" class="edge">
<title>Node46&#45;&gt;Node57</title>
<path fill="none" stroke="#191970" d="M1600.704,-109.26C1692.8461,-101.2271 1843.9806,-84.4023 1971,-53 1974.0104,-52.2558 1977.0691,-51.4313 1980.1432,-50.5471"/>
<polygon fill="#191970" stroke="#191970" points="1600.259,-105.7852 1590.5945,-110.1266 1600.857,-112.7596 1600.259,-105.7852"/>
</g>
<!-- Node58 -->
<g id="node13" class="node">
<title>Node58</title>
<g id="a_node13"><a xlink:href="../../d0/da7/tracksCombinations_8cxx.html" target="_top" xlink:title="/home/travis/build\l/AliceO2Group/AliceO2\l/Analysis/Tutorials/src\l/tracksCombinations.cxx">
<polygon fill="none" stroke="#000000" points="2125.5,-.5 2125.5,-52.5 2262.5,-52.5 2262.5,-.5 2125.5,-.5"/>
<text text-anchor="start" x="2133.5" y="-40.5" font-family="Helvetica,sans-Serif" font-size="10.00" fill="#000000">/home/travis/build</text>
<text text-anchor="start" x="2133.5" y="-29.5" font-family="Helvetica,sans-Serif" font-size="10.00" fill="#000000">/AliceO2Group/AliceO2</text>
<text text-anchor="start" x="2133.5" y="-18.5" font-family="Helvetica,sans-Serif" font-size="10.00" fill="#000000">/Analysis/Tutorials/src</text>
<text text-anchor="middle" x="2194" y="-7.5" font-family="Helvetica,sans-Serif" font-size="10.00" fill="#000000">/tracksCombinations.cxx</text>
</a>
</g>
</g>
<!-- Node46&#45;&gt;Node58 -->
<g id="edge12" class="edge">
<title>Node46&#45;&gt;Node58</title>
<path fill="none" stroke="#191970" d="M1600.8867,-112.7532C1718.1789,-107.5858 1935.856,-93.0397 2117,-53 2119.7609,-52.3897 2122.5603,-51.7131 2125.3755,-50.9842"/>
<polygon fill="#191970" stroke="#191970" points="1600.7312,-109.2566 1590.8903,-113.1815 1601.031,-116.2501 1600.7312,-109.2566"/>
</g>
<!-- Node59 -->
<g id="node14" class="node">
<title>Node59</title>
<g id="a_node14"><a xlink:href="../../d2/d08/benchmark__ASoAHelpers_8cxx.html" target="_top" xlink:title="/home/travis/build\l/AliceO2Group/AliceO2\l/Framework/Core/test/benchmark\l_ASoAHelpers.cxx">
<polygon fill="none" stroke="#000000" points="2280.5,-.5 2280.5,-52.5 2459.5,-52.5 2459.5,-.5 2280.5,-.5"/>
<text text-anchor="start" x="2288.5" y="-40.5" font-family="Helvetica,sans-Serif" font-size="10.00" fill="#000000">/home/travis/build</text>
<text text-anchor="start" x="2288.5" y="-29.5" font-family="Helvetica,sans-Serif" font-size="10.00" fill="#000000">/AliceO2Group/AliceO2</text>
<text text-anchor="start" x="2288.5" y="-18.5" font-family="Helvetica,sans-Serif" font-size="10.00" fill="#000000">/Framework/Core/test/benchmark</text>
<text text-anchor="middle" x="2370" y="-7.5" font-family="Helvetica,sans-Serif" font-size="10.00" fill="#000000">_ASoAHelpers.cxx</text>
</a>
</g>
</g>
<!-- Node46&#45;&gt;Node59 -->
<g id="edge13" class="edge">
<title>Node46&#45;&gt;Node59</title>
<path fill="none" stroke="#191970" d="M1600.8819,-113.4995C1741.4279,-109.0687 2030.9066,-95.2019 2272,-53 2274.7778,-52.5138 2277.5911,-51.9848 2280.4248,-51.4203"/>
<polygon fill="#191970" stroke="#191970" points="1600.5012,-110.0095 1590.6133,-113.8147 1600.716,-117.0062 1600.5012,-110.0095"/>
</g>
<!-- Node60 -->
<g id="node15" class="node">
<title>Node60</title>
<g id="a_node15"><a xlink:href="../../db/dc9/test__ASoA_8cxx.html" target="_top" xlink:title="/home/travis/build\l/AliceO2Group/AliceO2\l/Framework/Core/test/test\l_ASoA.cxx">
<polygon fill="none" stroke="#000000" points="2477.5,-.5 2477.5,-52.5 2620.5,-52.5 2620.5,-.5 2477.5,-.5"/>
<text text-anchor="start" x="2485.5" y="-40.5" font-family="Helvetica,sans-Serif" font-size="10.00" fill="#000000">/home/travis/build</text>
<text text-anchor="start" x="2485.5" y="-29.5" font-family="Helvetica,sans-Serif" font-size="10.00" fill="#000000">/AliceO2Group/AliceO2</text>
<text text-anchor="start" x="2485.5" y="-18.5" font-family="Helvetica,sans-Serif" font-size="10.00" fill="#000000">/Framework/Core/test/test</text>
<text text-anchor="middle" x="2549" y="-7.5" font-family="Helvetica,sans-Serif" font-size="10.00" fill="#000000">_ASoA.cxx</text>
</a>
</g>
</g>
<!-- Node46&#45;&gt;Node60 -->
<g id="edge14" class="edge">
<title>Node46&#45;&gt;Node60</title>
<path fill="none" stroke="#191970" d="M1600.8409,-112.7006C1802.1113,-105.6133 2303.9441,-85.2027 2469,-53 2471.7285,-52.4677 2474.4926,-51.8684 2477.272,-51.215"/>
<polygon fill="#191970" stroke="#191970" points="1600.4898,-109.2107 1590.6183,-113.0582 1600.7346,-116.2064 1600.4898,-109.2107"/>
</g>
<!-- Node61 -->
<g id="node16" class="node">
<title>Node61</title>
<g id="a_node16"><a xlink:href="../../da/d00/test__ASoAHelpers_8cxx.html" target="_top" xlink:title="/home/travis/build\l/AliceO2Group/AliceO2\l/Framework/Core/test/test\l_ASoAHelpers.cxx">
<polygon fill="none" stroke="#000000" points="2638.5,-.5 2638.5,-52.5 2781.5,-52.5 2781.5,-.5 2638.5,-.5"/>
<text text-anchor="start" x="2646.5" y="-40.5" font-family="Helvetica,sans-Serif" font-size="10.00" fill="#000000">/home/travis/build</text>
<text text-anchor="start" x="2646.5" y="-29.5" font-family="Helvetica,sans-Serif" font-size="10.00" fill="#000000">/AliceO2Group/AliceO2</text>
<text text-anchor="start" x="2646.5" y="-18.5" font-family="Helvetica,sans-Serif" font-size="10.00" fill="#000000">/Framework/Core/test/test</text>
<text text-anchor="middle" x="2710" y="-7.5" font-family="Helvetica,sans-Serif" font-size="10.00" fill="#000000">_ASoAHelpers.cxx</text>
</a>
</g>
</g>
<!-- Node46&#45;&gt;Node61 -->
<g id="edge15" class="edge">
<title>Node46&#45;&gt;Node61</title>
<path fill="none" stroke="#191970" d="M1600.9477,-113.6299C1825.8474,-108.2165 2432.9802,-90.4742 2630,-53 2632.7309,-52.4806 2635.4972,-51.8923 2638.2784,-51.2482"/>
<polygon fill="#191970" stroke="#191970" points="1600.7654,-110.1332 1590.8518,-113.8708 1600.9325,-117.1312 1600.7654,-110.1332"/>
</g>
</g>
</svg>
