<?xml version="1.0" encoding="UTF-8" standalone="no"?>
<!DOCTYPE svg PUBLIC "-//W3C//DTD SVG 1.1//EN"
 "http://www.w3.org/Graphics/SVG/1.1/DTD/svg11.dtd">
<!-- Generated by graphviz version 2.40.1 (20161225.0304)
 -->
<!-- Title: /home/travis/build/AliceO2Group/AliceO2/Detectors/EMCAL/reconstruction/include/EMCALReconstruction/Bunch.h Pages: 1 -->
<svg width="1289pt" height="450pt"
 viewBox="0.00 0.00 1289.35 450.00" xmlns="http://www.w3.org/2000/svg" xmlns:xlink="http://www.w3.org/1999/xlink">
<g id="graph0" class="graph" transform="scale(1 1) rotate(0) translate(4 446)">
<title>/home/travis/build/AliceO2Group/AliceO2/Detectors/EMCAL/reconstruction/include/EMCALReconstruction/Bunch.h</title>
<!-- Node5 -->
<g id="node1" class="node">
<title>Node5</title>
<polygon fill="#bfbfbf" stroke="#000000" points="636.8504,-389.5 636.8504,-441.5 841.8504,-441.5 841.8504,-389.5 636.8504,-389.5"/>
<text text-anchor="start" x="644.8504" y="-429.5" font-family="Helvetica,sans-Serif" font-size="10.00" fill="#000000">/home/travis/build</text>
<text text-anchor="start" x="644.8504" y="-418.5" font-family="Helvetica,sans-Serif" font-size="10.00" fill="#000000">/AliceO2Group/AliceO2</text>
<text text-anchor="start" x="644.8504" y="-407.5" font-family="Helvetica,sans-Serif" font-size="10.00" fill="#000000">/Detectors/EMCAL/reconstruction</text>
<text text-anchor="middle" x="739.3504" y="-396.5" font-family="Helvetica,sans-Serif" font-size="10.00" fill="#000000">/include/EMCALReconstruction/Bunch.h</text>
</g>
<!-- Node6 -->
<g id="node2" class="node">
<title>Node6</title>
<g id="a_node2"><a xlink:href="../../db/d4a/AltroDecoder_8h.html" target="_top" xlink:title="/home/travis/build\l/AliceO2Group/AliceO2\l/Detectors/EMCAL/reconstruction\l/include/EMCALReconstruction\l/AltroDecoder.h">
<polygon fill="none" stroke="#000000" points="21.3504,-189.5 21.3504,-252.5 197.3504,-252.5 197.3504,-189.5 21.3504,-189.5"/>
<text text-anchor="start" x="29.3504" y="-240.5" font-family="Helvetica,sans-Serif" font-size="10.00" fill="#000000">/home/travis/build</text>
<text text-anchor="start" x="29.3504" y="-229.5" font-family="Helvetica,sans-Serif" font-size="10.00" fill="#000000">/AliceO2Group/AliceO2</text>
<text text-anchor="start" x="29.3504" y="-218.5" font-family="Helvetica,sans-Serif" font-size="10.00" fill="#000000">/Detectors/EMCAL/reconstruction</text>
<text text-anchor="start" x="29.3504" y="-207.5" font-family="Helvetica,sans-Serif" font-size="10.00" fill="#000000">/include/EMCALReconstruction</text>
<text text-anchor="middle" x="109.3504" y="-196.5" font-family="Helvetica,sans-Serif" font-size="10.00" fill="#000000">/AltroDecoder.h</text>
</a>
</g>
</g>
<!-- Node5&#45;&gt;Node6 -->
<g id="edge1" class="edge">
<title>Node5&#45;&gt;Node6</title>
<path fill="none" stroke="#191970" d="M626.4054,-412.7117C491.5317,-407.5965 275.4686,-393.2098 206.3504,-353 166.7737,-329.9761 138.6114,-283.7029 123.1597,-252.5302"/>
<polygon fill="#191970" stroke="#191970" points="626.6554,-416.2231 636.7773,-413.0928 626.9126,-409.2278 626.6554,-416.2231"/>
</g>
<!-- Node9 -->
<g id="node5" class="node">
<title>Node9</title>
<g id="a_node5"><a xlink:href="../../dd/d4a/RawToCellConverterSpec_8cxx.html" target="_top" xlink:title="/home/travis/build\l/AliceO2Group/AliceO2\l/Detectors/EMCAL/workflow\l/src/RawToCellConverterSpec.cxx">
<polygon fill="none" stroke="#000000" points="433.8504,-.5 433.8504,-52.5 612.8504,-52.5 612.8504,-.5 433.8504,-.5"/>
<text text-anchor="start" x="441.8504" y="-40.5" font-family="Helvetica,sans-Serif" font-size="10.00" fill="#000000">/home/travis/build</text>
<text text-anchor="start" x="441.8504" y="-29.5" font-family="Helvetica,sans-Serif" font-size="10.00" fill="#000000">/AliceO2Group/AliceO2</text>
<text text-anchor="start" x="441.8504" y="-18.5" font-family="Helvetica,sans-Serif" font-size="10.00" fill="#000000">/Detectors/EMCAL/workflow</text>
<text text-anchor="middle" x="523.3504" y="-7.5" font-family="Helvetica,sans-Serif" font-size="10.00" fill="#000000">/src/RawToCellConverterSpec.cxx</text>
</a>
</g>
</g>
<!-- Node5&#45;&gt;Node9 -->
<g id="edge26" class="edge">
<title>Node5&#45;&gt;Node9</title>
<path fill="none" stroke="#191970" d="M626.5262,-391.4406C555.3285,-369.2399 470.8766,-327.9182 438.3504,-253 407.4064,-181.7262 465.5758,-95.1797 500.2219,-52.6559"/>
<polygon fill="#191970" stroke="#191970" points="625.8929,-394.9055 636.4778,-394.4479 627.9178,-388.2047 625.8929,-394.9055"/>
</g>
<!-- Node10 -->
<g id="node6" class="node">
<title>Node10</title>
<g id="a_node6"><a xlink:href="../../d4/d18/CaloRawFitter_8h.html" target="_top" xlink:title="/home/travis/build\l/AliceO2Group/AliceO2\l/Detectors/EMCAL/reconstruction\l/include/EMCALReconstruction\l/CaloRawFitter.h">
<polygon fill="none" stroke="#000000" points="593.3504,-289.5 593.3504,-352.5 769.3504,-352.5 769.3504,-289.5 593.3504,-289.5"/>
<text text-anchor="start" x="601.3504" y="-340.5" font-family="Helvetica,sans-Serif" font-size="10.00" fill="#000000">/home/travis/build</text>
<text text-anchor="start" x="601.3504" y="-329.5" font-family="Helvetica,sans-Serif" font-size="10.00" fill="#000000">/AliceO2Group/AliceO2</text>
<text text-anchor="start" x="601.3504" y="-318.5" font-family="Helvetica,sans-Serif" font-size="10.00" fill="#000000">/Detectors/EMCAL/reconstruction</text>
<text text-anchor="start" x="601.3504" y="-307.5" font-family="Helvetica,sans-Serif" font-size="10.00" fill="#000000">/include/EMCALReconstruction</text>
<text text-anchor="middle" x="681.3504" y="-296.5" font-family="Helvetica,sans-Serif" font-size="10.00" fill="#000000">/CaloRawFitter.h</text>
</a>
</g>
</g>
<!-- Node5&#45;&gt;Node10 -->
<g id="edge5" class="edge">
<title>Node5&#45;&gt;Node10</title>
<path fill="none" stroke="#191970" d="M718.0892,-380.8589C712.4366,-371.6491 706.3607,-361.7496 700.8097,-352.7054"/>
<polygon fill="#191970" stroke="#191970" points="715.1342,-382.7354 723.3481,-389.4273 721.1001,-379.0737 715.1342,-382.7354"/>
</g>
<!-- Node11 -->
<g id="node7" class="node">
<title>Node11</title>
<g id="a_node7"><a xlink:href="../../d8/d35/CaloRawFitterGamma2_8h.html" target="_top" xlink:title="/home/travis/build\l/AliceO2Group/AliceO2\l/Detectors/EMCAL/reconstruction\l/include/EMCALReconstruction\l/CaloRawFitterGamma2.h">
<polygon fill="none" stroke="#000000" points="641.3504,-189.5 641.3504,-252.5 817.3504,-252.5 817.3504,-189.5 641.3504,-189.5"/>
<text text-anchor="start" x="649.3504" y="-240.5" font-family="Helvetica,sans-Serif" font-size="10.00" fill="#000000">/home/travis/build</text>
<text text-anchor="start" x="649.3504" y="-229.5" font-family="Helvetica,sans-Serif" font-size="10.00" fill="#000000">/AliceO2Group/AliceO2</text>
<text text-anchor="start" x="649.3504" y="-218.5" font-family="Helvetica,sans-Serif" font-size="10.00" fill="#000000">/Detectors/EMCAL/reconstruction</text>
<text text-anchor="start" x="649.3504" y="-207.5" font-family="Helvetica,sans-Serif" font-size="10.00" fill="#000000">/include/EMCALReconstruction</text>
<text text-anchor="middle" x="729.3504" y="-196.5" font-family="Helvetica,sans-Serif" font-size="10.00" fill="#000000">/CaloRawFitterGamma2.h</text>
</a>
</g>
</g>
<!-- Node5&#45;&gt;Node11 -->
<g id="edge17" class="edge">
<title>Node5&#45;&gt;Node11</title>
<path fill="none" stroke="#191970" d="M765.7252,-380.7573C770.9185,-372.1218 775.6061,-362.5819 778.3504,-353 786.1822,-325.655 787.0873,-316.0694 778.3504,-289 774.149,-275.983 766.4265,-263.3572 758.3352,-252.5903"/>
<polygon fill="#191970" stroke="#191970" points="762.6398,-379.0851 760.1903,-389.3929 768.5332,-382.8624 762.6398,-379.0851"/>
</g>
<!-- Node12 -->
<g id="node8" class="node">
<title>Node12</title>
<g id="a_node8"><a xlink:href="../../df/d14/CaloRawFitterGamma2_8cxx.html" target="_top" xlink:title="/home/travis/build\l/AliceO2Group/AliceO2\l/Detectors/EMCAL/reconstruction\l/src/CaloRawFitterGamma2.cxx">
<polygon fill="none" stroke="#000000" points="551.3504,-95 551.3504,-147 727.3504,-147 727.3504,-95 551.3504,-95"/>
<text text-anchor="start" x="559.3504" y="-135" font-family="Helvetica,sans-Serif" font-size="10.00" fill="#000000">/home/travis/build</text>
<text text-anchor="start" x="559.3504" y="-124" font-family="Helvetica,sans-Serif" font-size="10.00" fill="#000000">/AliceO2Group/AliceO2</text>
<text text-anchor="start" x="559.3504" y="-113" font-family="Helvetica,sans-Serif" font-size="10.00" fill="#000000">/Detectors/EMCAL/reconstruction</text>
<text text-anchor="middle" x="639.3504" y="-102" font-family="Helvetica,sans-Serif" font-size="10.00" fill="#000000">/src/CaloRawFitterGamma2.cxx</text>
</a>
</g>
</g>
<!-- Node5&#45;&gt;Node12 -->
<g id="edge24" class="edge">
<title>Node5&#45;&gt;Node12</title>
<path fill="none" stroke="#191970" d="M774.3112,-381.7629C782.0438,-372.9629 789.6278,-363.0975 795.3504,-353 831.9254,-288.4641 868.907,-249.7581 826.3504,-189 822.8698,-184.0307 766.883,-164.0336 717.0721,-147.0008"/>
<polygon fill="#191970" stroke="#191970" points="771.6781,-379.4559 767.5206,-389.2009 776.8478,-384.1755 771.6781,-379.4559"/>
</g>
<!-- Node15 -->
<g id="node11" class="node">
<title>Node15</title>
<g id="a_node11"><a xlink:href="../../dd/d8f/CaloRawFitterStandard_8h.html" target="_top" xlink:title="/home/travis/build\l/AliceO2Group/AliceO2\l/Detectors/EMCAL/reconstruction\l/include/EMCALReconstruction\l/CaloRawFitterStandard.h">
<polygon fill="none" stroke="#000000" points="873.3504,-189.5 873.3504,-252.5 1049.3504,-252.5 1049.3504,-189.5 873.3504,-189.5"/>
<text text-anchor="start" x="881.3504" y="-240.5" font-family="Helvetica,sans-Serif" font-size="10.00" fill="#000000">/home/travis/build</text>
<text text-anchor="start" x="881.3504" y="-229.5" font-family="Helvetica,sans-Serif" font-size="10.00" fill="#000000">/AliceO2Group/AliceO2</text>
<text text-anchor="start" x="881.3504" y="-218.5" font-family="Helvetica,sans-Serif" font-size="10.00" fill="#000000">/Detectors/EMCAL/reconstruction</text>
<text text-anchor="start" x="881.3504" y="-207.5" font-family="Helvetica,sans-Serif" font-size="10.00" fill="#000000">/include/EMCALReconstruction</text>
<text text-anchor="middle" x="961.3504" y="-196.5" font-family="Helvetica,sans-Serif" font-size="10.00" fill="#000000">/CaloRawFitterStandard.h</text>
</a>
</g>
</g>
<!-- Node5&#45;&gt;Node15 -->
<g id="edge18" class="edge">
<title>Node5&#45;&gt;Node15</title>
<path fill="none" stroke="#191970" d="M810.981,-384.6433C827.7448,-375.7223 844.9077,-365.0797 859.3504,-353 893.8951,-324.107 924.1074,-281.6116 942.5049,-252.699"/>
<polygon fill="#191970" stroke="#191970" points="809.0084,-381.7228 801.7286,-389.4206 812.2199,-387.9426 809.0084,-381.7228"/>
</g>
<!-- Node16 -->
<g id="node12" class="node">
<title>Node16</title>
<g id="a_node12"><a xlink:href="../../d5/dcd/CaloRawFitterStandard_8cxx.html" target="_top" xlink:title="/home/travis/build\l/AliceO2Group/AliceO2\l/Detectors/EMCAL/reconstruction\l/src/CaloRawFitterStandard.cxx">
<polygon fill="none" stroke="#000000" points="989.3504,-95 989.3504,-147 1165.3504,-147 1165.3504,-95 989.3504,-95"/>
<text text-anchor="start" x="997.3504" y="-135" font-family="Helvetica,sans-Serif" font-size="10.00" fill="#000000">/home/travis/build</text>
<text text-anchor="start" x="997.3504" y="-124" font-family="Helvetica,sans-Serif" font-size="10.00" fill="#000000">/AliceO2Group/AliceO2</text>
<text text-anchor="start" x="997.3504" y="-113" font-family="Helvetica,sans-Serif" font-size="10.00" fill="#000000">/Detectors/EMCAL/reconstruction</text>
<text text-anchor="middle" x="1077.3504" y="-102" font-family="Helvetica,sans-Serif" font-size="10.00" fill="#000000">/src/CaloRawFitterStandard.cxx</text>
</a>
</g>
</g>
<!-- Node5&#45;&gt;Node16 -->
<g id="edge25" class="edge">
<title>Node5&#45;&gt;Node16</title>
<path fill="none" stroke="#191970" d="M851.59,-389.3464C923.6223,-366.247 1012.0511,-324.7103 1058.3504,-253 1079.0717,-220.9059 1080.975,-175.3476 1079.7097,-147.0138"/>
<polygon fill="#191970" stroke="#191970" points="850.492,-386.0226 841.9922,-392.3473 852.581,-392.7036 850.492,-386.0226"/>
</g>
<!-- Node17 -->
<g id="node13" class="node">
<title>Node17</title>
<g id="a_node13"><a xlink:href="../../d0/dd0/CaloRawFitter_8cxx.html" target="_top" xlink:title="/home/travis/build\l/AliceO2Group/AliceO2\l/Detectors/EMCAL/reconstruction\l/src/CaloRawFitter.cxx">
<polygon fill="none" stroke="#000000" points="447.3504,-195 447.3504,-247 623.3504,-247 623.3504,-195 447.3504,-195"/>
<text text-anchor="start" x="455.3504" y="-235" font-family="Helvetica,sans-Serif" font-size="10.00" fill="#000000">/home/travis/build</text>
<text text-anchor="start" x="455.3504" y="-224" font-family="Helvetica,sans-Serif" font-size="10.00" fill="#000000">/AliceO2Group/AliceO2</text>
<text text-anchor="start" x="455.3504" y="-213" font-family="Helvetica,sans-Serif" font-size="10.00" fill="#000000">/Detectors/EMCAL/reconstruction</text>
<text text-anchor="middle" x="535.3504" y="-202" font-family="Helvetica,sans-Serif" font-size="10.00" fill="#000000">/src/CaloRawFitter.cxx</text>
</a>
</g>
</g>
<!-- Node5&#45;&gt;Node17 -->
<g id="edge23" class="edge">
<title>Node5&#45;&gt;Node17</title>
<path fill="none" stroke="#191970" d="M629.8456,-384.9476C613.0953,-376.6369 597.1516,-366.1627 584.3504,-353 555.889,-323.7351 543.7088,-276.4788 538.6797,-247.1581"/>
<polygon fill="#191970" stroke="#191970" points="628.6796,-388.2666 639.2194,-389.3454 631.6528,-381.9294 628.6796,-388.2666"/>
</g>
<!-- Node18 -->
<g id="node14" class="node">
<title>Node18</title>
<g id="a_node14"><a xlink:href="../../de/d03/Channel_8h.html" target="_top" xlink:title="/home/travis/build\l/AliceO2Group/AliceO2\l/Detectors/EMCAL/reconstruction\l/include/EMCALReconstruction\l/Channel.h">
<polygon fill="none" stroke="#000000" points="215.3504,-289.5 215.3504,-352.5 391.3504,-352.5 391.3504,-289.5 215.3504,-289.5"/>
<text text-anchor="start" x="223.3504" y="-340.5" font-family="Helvetica,sans-Serif" font-size="10.00" fill="#000000">/home/travis/build</text>
<text text-anchor="start" x="223.3504" y="-329.5" font-family="Helvetica,sans-Serif" font-size="10.00" fill="#000000">/AliceO2Group/AliceO2</text>
<text text-anchor="start" x="223.3504" y="-318.5" font-family="Helvetica,sans-Serif" font-size="10.00" fill="#000000">/Detectors/EMCAL/reconstruction</text>
<text text-anchor="start" x="223.3504" y="-307.5" font-family="Helvetica,sans-Serif" font-size="10.00" fill="#000000">/include/EMCALReconstruction</text>
<text text-anchor="middle" x="303.3504" y="-296.5" font-family="Helvetica,sans-Serif" font-size="10.00" fill="#000000">/Channel.h</text>
</a>
</g>
</g>
<!-- Node5&#45;&gt;Node18 -->
<g id="edge19" class="edge">
<title>Node5&#45;&gt;Node18</title>
<path fill="none" stroke="#191970" d="M626.8325,-397.8797C561.7171,-386.8289 478.4405,-371.2349 405.3504,-353 400.8485,-351.8769 396.2532,-350.6679 391.6256,-349.4006"/>
<polygon fill="#191970" stroke="#191970" points="626.2704,-401.3342 636.7131,-399.5454 627.4341,-394.4316 626.2704,-401.3342"/>
</g>
<!-- Node20 -->
<g id="node16" class="node">
<title>Node20</title>
<g id="a_node16"><a xlink:href="../../db/d6f/Bunch_8cxx.html" target="_top" xlink:title="/home/travis/build\l/AliceO2Group/AliceO2\l/Detectors/EMCAL/reconstruction\l/src/Bunch.cxx">
<polygon fill="none" stroke="#000000" points="1105.3504,-295 1105.3504,-347 1281.3504,-347 1281.3504,-295 1105.3504,-295"/>
<text text-anchor="start" x="1113.3504" y="-335" font-family="Helvetica,sans-Serif" font-size="10.00" fill="#000000">/home/travis/build</text>
<text text-anchor="start" x="1113.3504" y="-324" font-family="Helvetica,sans-Serif" font-size="10.00" fill="#000000">/AliceO2Group/AliceO2</text>
<text text-anchor="start" x="1113.3504" y="-313" font-family="Helvetica,sans-Serif" font-size="10.00" fill="#000000">/Detectors/EMCAL/reconstruction</text>
<text text-anchor="middle" x="1193.3504" y="-302" font-family="Helvetica,sans-Serif" font-size="10.00" fill="#000000">/src/Bunch.cxx</text>
</a>
</g>
</g>
<!-- Node5&#45;&gt;Node20 -->
<g id="edge22" class="edge">
<title>Node5&#45;&gt;Node20</title>
<path fill="none" stroke="#191970" d="M852.208,-399.2378C921.6442,-388.3007 1012.1938,-372.3594 1091.3504,-353 1098.6517,-351.2143 1106.1957,-349.1927 1113.7229,-347.0545"/>
<polygon fill="#191970" stroke="#191970" points="851.4597,-395.8122 842.1204,-400.8149 852.5411,-402.7281 851.4597,-395.8122"/>
</g>
<!-- Node7 -->
<g id="node3" class="node">
<title>Node7</title>
<g id="a_node3"><a xlink:href="../../d0/d27/rawReaderFile_8cxx.html" target="_top" xlink:title="/home/travis/build\l/AliceO2Group/AliceO2\l/Detectors/EMCAL/reconstruction\l/run/rawReaderFile.cxx">
<polygon fill="none" stroke="#000000" points="215.3504,-95 215.3504,-147 391.3504,-147 391.3504,-95 215.3504,-95"/>
<text text-anchor="start" x="223.3504" y="-135" font-family="Helvetica,sans-Serif" font-size="10.00" fill="#000000">/home/travis/build</text>
<text text-anchor="start" x="223.3504" y="-124" font-family="Helvetica,sans-Serif" font-size="10.00" fill="#000000">/AliceO2Group/AliceO2</text>
<text text-anchor="start" x="223.3504" y="-113" font-family="Helvetica,sans-Serif" font-size="10.00" fill="#000000">/Detectors/EMCAL/reconstruction</text>
<text text-anchor="middle" x="303.3504" y="-102" font-family="Helvetica,sans-Serif" font-size="10.00" fill="#000000">/run/rawReaderFile.cxx</text>
</a>
</g>
</g>
<!-- Node6&#45;&gt;Node7 -->
<g id="edge2" class="edge">
<title>Node6&#45;&gt;Node7</title>
<path fill="none" stroke="#191970" d="M179.5956,-184.7911C203.7573,-172.3367 230.3215,-158.6437 252.6237,-147.1478"/>
<polygon fill="#191970" stroke="#191970" points="177.7519,-181.8038 170.4669,-189.4966 180.9592,-188.0258 177.7519,-181.8038"/>
</g>
<!-- Node8 -->
<g id="node4" class="node">
<title>Node8</title>
<g id="a_node4"><a xlink:href="../../df/df1/AltroDecoder_8cxx.html" target="_top" xlink:title="/home/travis/build\l/AliceO2Group/AliceO2\l/Detectors/EMCAL/reconstruction\l/src/AltroDecoder.cxx">
<polygon fill="none" stroke="#000000" points="21.3504,-95 21.3504,-147 197.3504,-147 197.3504,-95 21.3504,-95"/>
<text text-anchor="start" x="29.3504" y="-135" font-family="Helvetica,sans-Serif" font-size="10.00" fill="#000000">/home/travis/build</text>
<text text-anchor="start" x="29.3504" y="-124" font-family="Helvetica,sans-Serif" font-size="10.00" fill="#000000">/AliceO2Group/AliceO2</text>
<text text-anchor="start" x="29.3504" y="-113" font-family="Helvetica,sans-Serif" font-size="10.00" fill="#000000">/Detectors/EMCAL/reconstruction</text>
<text text-anchor="middle" x="109.3504" y="-102" font-family="Helvetica,sans-Serif" font-size="10.00" fill="#000000">/src/AltroDecoder.cxx</text>
</a>
</g>
</g>
<!-- Node6&#45;&gt;Node8 -->
<g id="edge3" class="edge">
<title>Node6&#45;&gt;Node8</title>
<path fill="none" stroke="#191970" d="M109.3504,-179.1631C109.3504,-168.2863 109.3504,-156.8798 109.3504,-147.078"/>
<polygon fill="#191970" stroke="#191970" points="105.8505,-179.3593 109.3504,-189.3594 112.8505,-179.3594 105.8505,-179.3593"/>
</g>
<!-- Node6&#45;&gt;Node9 -->
<g id="edge4" class="edge">
<title>Node6&#45;&gt;Node9</title>
<path fill="none" stroke="#191970" d="M37.6374,-183.2292C27.4535,-174.6864 18.4011,-164.6312 12.3504,-153 -.7768,-127.7658 -6.5025,-110.2992 12.3504,-89 39.7666,-58.0262 294.7524,-39.1659 433.8393,-31.0968"/>
<polygon fill="#191970" stroke="#191970" points="35.5814,-186.0645 45.6147,-189.4682 39.8939,-180.5506 35.5814,-186.0645"/>
</g>
<!-- Node10&#45;&gt;Node11 -->
<g id="edge6" class="edge">
<title>Node10&#45;&gt;Node11</title>
<path fill="none" stroke="#191970" d="M700.9944,-280.0748C705.3646,-270.9704 709.9341,-261.4505 714.0969,-252.778"/>
<polygon fill="#191970" stroke="#191970" points="697.7099,-278.8296 696.5379,-289.3594 704.0206,-281.8587 697.7099,-278.8296"/>
</g>
<!-- Node10&#45;&gt;Node15 -->
<g id="edge12" class="edge">
<title>Node10&#45;&gt;Node15</title>
<path fill="none" stroke="#191970" d="M779.3538,-285.9988C809.8625,-275.1028 843.3034,-263.1596 873.1034,-252.5168"/>
<polygon fill="#191970" stroke="#191970" points="777.8,-282.8371 769.5598,-289.4966 780.1544,-289.4293 777.8,-282.8371"/>
</g>
<!-- Node10&#45;&gt;Node17 -->
<g id="edge16" class="edge">
<title>Node10&#45;&gt;Node17</title>
<path fill="none" stroke="#191970" d="M626.6041,-283.5025C608.8942,-271.3725 589.6527,-258.1934 573.4242,-247.078"/>
<polygon fill="#191970" stroke="#191970" points="624.9269,-286.5961 635.1551,-289.3594 628.8826,-280.8208 624.9269,-286.5961"/>
</g>
<!-- Node11&#45;&gt;Node9 -->
<g id="edge11" class="edge">
<title>Node11&#45;&gt;Node9</title>
<path fill="none" stroke="#191970" d="M631.5701,-187.8051C588.0182,-172.6049 545.6741,-157.0638 542.3504,-153 519.2216,-124.7214 517.9717,-80.5525 520.0329,-52.5913"/>
<polygon fill="#191970" stroke="#191970" points="630.5667,-191.1618 641.1615,-191.1409 632.8662,-184.5502 630.5667,-191.1618"/>
</g>
<!-- Node11&#45;&gt;Node12 -->
<g id="edge7" class="edge">
<title>Node11&#45;&gt;Node12</title>
<path fill="none" stroke="#191970" d="M694.1084,-181.8422C683.6112,-170.1787 672.3697,-157.6881 662.8205,-147.078"/>
<polygon fill="#191970" stroke="#191970" points="691.5826,-184.2678 700.8738,-189.3594 696.7857,-179.585 691.5826,-184.2678"/>
</g>
<!-- Node13 -->
<g id="node9" class="node">
<title>Node13</title>
<g id="a_node9"><a xlink:href="../../d5/da4/RawToCellConverterSpec_8h.html" target="_top" xlink:title="/home/travis/build\l/AliceO2Group/AliceO2\l/Detectors/EMCAL/workflow\l/include/EMCALWorkflow/RawToCell\lConverterSpec.h">
<polygon fill="none" stroke="#000000" points="745.3504,-89.5 745.3504,-152.5 933.3504,-152.5 933.3504,-89.5 745.3504,-89.5"/>
<text text-anchor="start" x="753.3504" y="-140.5" font-family="Helvetica,sans-Serif" font-size="10.00" fill="#000000">/home/travis/build</text>
<text text-anchor="start" x="753.3504" y="-129.5" font-family="Helvetica,sans-Serif" font-size="10.00" fill="#000000">/AliceO2Group/AliceO2</text>
<text text-anchor="start" x="753.3504" y="-118.5" font-family="Helvetica,sans-Serif" font-size="10.00" fill="#000000">/Detectors/EMCAL/workflow</text>
<text text-anchor="start" x="753.3504" y="-107.5" font-family="Helvetica,sans-Serif" font-size="10.00" fill="#000000">/include/EMCALWorkflow/RawToCell</text>
<text text-anchor="middle" x="839.3504" y="-96.5" font-family="Helvetica,sans-Serif" font-size="10.00" fill="#000000">ConverterSpec.h</text>
</a>
</g>
</g>
<!-- Node11&#45;&gt;Node13 -->
<g id="edge8" class="edge">
<title>Node11&#45;&gt;Node13</title>
<path fill="none" stroke="#191970" d="M771.8485,-182.3653C782.6127,-172.5797 794.0514,-162.1809 804.3945,-152.778"/>
<polygon fill="#191970" stroke="#191970" points="769.2001,-180.0428 764.1551,-189.3594 773.9089,-185.2224 769.2001,-180.0428"/>
</g>
<!-- Node13&#45;&gt;Node9 -->
<g id="edge9" class="edge">
<title>Node13&#45;&gt;Node9</title>
<path fill="none" stroke="#191970" d="M735.5665,-88.7762C690.032,-75.0551 648.6179,-62.8628 613.0899,-52.4905"/>
<polygon fill="#191970" stroke="#191970" points="734.7602,-92.1888 745.345,-91.7273 736.7827,-85.4873 734.7602,-92.1888"/>
</g>
<!-- Node14 -->
<g id="node10" class="node">
<title>Node14</title>
<g id="a_node10"><a xlink:href="../../d2/dbf/EMCAL_2workflow_2src_2RecoWorkflow_8cxx.html" target="_top" xlink:title="/home/travis/build\l/AliceO2Group/AliceO2\l/Detectors/EMCAL/workflow\l/src/RecoWorkflow.cxx">
<polygon fill="none" stroke="#000000" points="764.3504,-.5 764.3504,-52.5 914.3504,-52.5 914.3504,-.5 764.3504,-.5"/>
<text text-anchor="start" x="772.3504" y="-40.5" font-family="Helvetica,sans-Serif" font-size="10.00" fill="#000000">/home/travis/build</text>
<text text-anchor="start" x="772.3504" y="-29.5" font-family="Helvetica,sans-Serif" font-size="10.00" fill="#000000">/AliceO2Group/AliceO2</text>
<text text-anchor="start" x="772.3504" y="-18.5" font-family="Helvetica,sans-Serif" font-size="10.00" fill="#000000">/Detectors/EMCAL/workflow</text>
<text text-anchor="middle" x="839.3504" y="-7.5" font-family="Helvetica,sans-Serif" font-size="10.00" fill="#000000">/src/RecoWorkflow.cxx</text>
</a>
</g>
</g>
<!-- Node13&#45;&gt;Node14 -->
<g id="edge10" class="edge">
<title>Node13&#45;&gt;Node14</title>
<path fill="none" stroke="#191970" d="M839.3504,-79.2457C839.3504,-70.2008 839.3504,-60.8836 839.3504,-52.6442"/>
<polygon fill="#191970" stroke="#191970" points="835.8505,-79.2699 839.3504,-89.27 842.8505,-79.27 835.8505,-79.2699"/>
</g>
<!-- Node15&#45;&gt;Node9 -->
<g id="edge15" class="edge">
<title>Node15&#45;&gt;Node9</title>
<path fill="none" stroke="#191970" d="M967.2262,-179.1325C968.8085,-149.9236 965.4019,-112.1698 942.3504,-89 930.8005,-77.3909 732.4693,-51.6784 612.8737,-37.1092"/>
<polygon fill="#191970" stroke="#191970" points="963.709,-179.2286 966.4447,-189.4642 970.6891,-179.7567 963.709,-179.2286"/>
</g>
<!-- Node15&#45;&gt;Node13 -->
<g id="edge14" class="edge">
<title>Node15&#45;&gt;Node13</title>
<path fill="none" stroke="#191970" d="M914.9107,-182.9347C902.7708,-172.9839 889.8138,-162.3634 878.1196,-152.778"/>
<polygon fill="#191970" stroke="#191970" points="912.7961,-185.7269 922.7488,-189.3594 917.2336,-180.3132 912.7961,-185.7269"/>
</g>
<!-- Node15&#45;&gt;Node16 -->
<g id="edge13" class="edge">
<title>Node15&#45;&gt;Node16</title>
<path fill="none" stroke="#191970" d="M1006.0013,-182.5078C1019.7504,-170.6552 1034.5577,-157.8902 1047.0999,-147.078"/>
<polygon fill="#191970" stroke="#191970" points="1003.3423,-180.179 998.0535,-189.3594 1007.9129,-185.4809 1003.3423,-180.179"/>
</g>
<!-- Node18&#45;&gt;Node6 -->
<g id="edge20" class="edge">
<title>Node18&#45;&gt;Node6</title>
<path fill="none" stroke="#191970" d="M233.2447,-284.863C212.708,-274.2771 190.425,-262.7911 170.4929,-252.5168"/>
<polygon fill="#191970" stroke="#191970" points="231.7416,-288.0258 242.2338,-289.4966 234.9489,-281.8038 231.7416,-288.0258"/>
</g>
<!-- Node19 -->
<g id="node15" class="node">
<title>Node19</title>
<g id="a_node15"><a xlink:href="../../db/d93/Channel_8cxx.html" target="_top" xlink:title="/home/travis/build\l/AliceO2Group/AliceO2\l/Detectors/EMCAL/reconstruction\l/src/Channel.cxx">
<polygon fill="none" stroke="#000000" points="215.3504,-195 215.3504,-247 391.3504,-247 391.3504,-195 215.3504,-195"/>
<text text-anchor="start" x="223.3504" y="-235" font-family="Helvetica,sans-Serif" font-size="10.00" fill="#000000">/home/travis/build</text>
<text text-anchor="start" x="223.3504" y="-224" font-family="Helvetica,sans-Serif" font-size="10.00" fill="#000000">/AliceO2Group/AliceO2</text>
<text text-anchor="start" x="223.3504" y="-213" font-family="Helvetica,sans-Serif" font-size="10.00" fill="#000000">/Detectors/EMCAL/reconstruction</text>
<text text-anchor="middle" x="303.3504" y="-202" font-family="Helvetica,sans-Serif" font-size="10.00" fill="#000000">/src/Channel.cxx</text>
</a>
</g>
</g>
<!-- Node18&#45;&gt;Node19 -->
<g id="edge21" class="edge">
<title>Node18&#45;&gt;Node19</title>
<path fill="none" stroke="#191970" d="M303.3504,-279.1631C303.3504,-268.2863 303.3504,-256.8798 303.3504,-247.078"/>
<polygon fill="#191970" stroke="#191970" points="299.8505,-279.3593 303.3504,-289.3594 306.8505,-279.3594 299.8505,-279.3593"/>
</g>
</g>
</svg>
