<?xml version="1.0" encoding="UTF-8" standalone="no"?>
<!DOCTYPE svg PUBLIC "-//W3C//DTD SVG 1.1//EN"
 "http://www.w3.org/Graphics/SVG/1.1/DTD/svg11.dtd">
<!-- Generated by graphviz version 2.40.1 (20161225.0304)
 -->
<!-- Title: /home/travis/build/AliceO2Group/AliceO2/Detectors/EMCAL/reconstruction/include/EMCALReconstruction/CaloFitResults.h Pages: 1 -->
<svg width="949pt" height="461pt"
 viewBox="0.00 0.00 949.00 461.00" xmlns="http://www.w3.org/2000/svg" xmlns:xlink="http://www.w3.org/1999/xlink">
<g id="graph0" class="graph" transform="scale(1 1) rotate(0) translate(4 457)">
<title>/home/travis/build/AliceO2Group/AliceO2/Detectors/EMCAL/reconstruction/include/EMCALReconstruction/CaloFitResults.h</title>
<!-- Node6 -->
<g id="node1" class="node">
<title>Node6</title>
<polygon fill="#bfbfbf" stroke="#000000" points="480,-389.5 480,-452.5 656,-452.5 656,-389.5 480,-389.5"/>
<text text-anchor="start" x="488" y="-440.5" font-family="Helvetica,sans-Serif" font-size="10.00" fill="#000000">/home/travis/build</text>
<text text-anchor="start" x="488" y="-429.5" font-family="Helvetica,sans-Serif" font-size="10.00" fill="#000000">/AliceO2Group/AliceO2</text>
<text text-anchor="start" x="488" y="-418.5" font-family="Helvetica,sans-Serif" font-size="10.00" fill="#000000">/Detectors/EMCAL/reconstruction</text>
<text text-anchor="start" x="488" y="-407.5" font-family="Helvetica,sans-Serif" font-size="10.00" fill="#000000">/include/EMCALReconstruction</text>
<text text-anchor="middle" x="568" y="-396.5" font-family="Helvetica,sans-Serif" font-size="10.00" fill="#000000">/CaloFitResults.h</text>
</g>
<!-- Node7 -->
<g id="node2" class="node">
<title>Node7</title>
<g id="a_node2"><a xlink:href="../../d4/d18/CaloRawFitter_8h.html" target="_top" xlink:title="/home/travis/build\l/AliceO2Group/AliceO2\l/Detectors/EMCAL/reconstruction\l/include/EMCALReconstruction\l/CaloRawFitter.h">
<polygon fill="none" stroke="#000000" points="306,-289.5 306,-352.5 482,-352.5 482,-289.5 306,-289.5"/>
<text text-anchor="start" x="314" y="-340.5" font-family="Helvetica,sans-Serif" font-size="10.00" fill="#000000">/home/travis/build</text>
<text text-anchor="start" x="314" y="-329.5" font-family="Helvetica,sans-Serif" font-size="10.00" fill="#000000">/AliceO2Group/AliceO2</text>
<text text-anchor="start" x="314" y="-318.5" font-family="Helvetica,sans-Serif" font-size="10.00" fill="#000000">/Detectors/EMCAL/reconstruction</text>
<text text-anchor="start" x="314" y="-307.5" font-family="Helvetica,sans-Serif" font-size="10.00" fill="#000000">/include/EMCALReconstruction</text>
<text text-anchor="middle" x="394" y="-296.5" font-family="Helvetica,sans-Serif" font-size="10.00" fill="#000000">/CaloRawFitter.h</text>
</a>
</g>
</g>
<!-- Node6&#45;&gt;Node7 -->
<g id="edge1" class="edge">
<title>Node6&#45;&gt;Node7</title>
<path fill="none" stroke="#191970" d="M504.1882,-384.3265C486.0821,-373.9208 466.5307,-362.6843 448.995,-352.6063"/>
<polygon fill="#191970" stroke="#191970" points="502.5311,-387.411 512.9453,-389.3594 506.0192,-381.3419 502.5311,-387.411"/>
</g>
<!-- Node8 -->
<g id="node3" class="node">
<title>Node8</title>
<g id="a_node3"><a xlink:href="../../d8/d35/CaloRawFitterGamma2_8h.html" target="_top" xlink:title="/home/travis/build\l/AliceO2Group/AliceO2\l/Detectors/EMCAL/reconstruction\l/include/EMCALReconstruction\l/CaloRawFitterGamma2.h">
<polygon fill="none" stroke="#000000" points="107,-189.5 107,-252.5 283,-252.5 283,-189.5 107,-189.5"/>
<text text-anchor="start" x="115" y="-240.5" font-family="Helvetica,sans-Serif" font-size="10.00" fill="#000000">/home/travis/build</text>
<text text-anchor="start" x="115" y="-229.5" font-family="Helvetica,sans-Serif" font-size="10.00" fill="#000000">/AliceO2Group/AliceO2</text>
<text text-anchor="start" x="115" y="-218.5" font-family="Helvetica,sans-Serif" font-size="10.00" fill="#000000">/Detectors/EMCAL/reconstruction</text>
<text text-anchor="start" x="115" y="-207.5" font-family="Helvetica,sans-Serif" font-size="10.00" fill="#000000">/include/EMCALReconstruction</text>
<text text-anchor="middle" x="195" y="-196.5" font-family="Helvetica,sans-Serif" font-size="10.00" fill="#000000">/CaloRawFitterGamma2.h</text>
</a>
</g>
</g>
<!-- Node6&#45;&gt;Node8 -->
<g id="edge13" class="edge">
<title>Node6&#45;&gt;Node8</title>
<path fill="none" stroke="#191970" d="M469.6905,-412.2174C415.2465,-403.6252 348.3959,-386.6273 297,-353 258.4664,-327.7883 228.4515,-282.9743 211.2381,-252.6333"/>
<polygon fill="#191970" stroke="#191970" points="469.2957,-415.6973 479.7055,-413.726 470.3385,-408.7754 469.2957,-415.6973"/>
</g>
<!-- Node9 -->
<g id="node4" class="node">
<title>Node9</title>
<g id="a_node4"><a xlink:href="../../df/d14/CaloRawFitterGamma2_8cxx.html" target="_top" xlink:title="/home/travis/build\l/AliceO2Group/AliceO2\l/Detectors/EMCAL/reconstruction\l/src/CaloRawFitterGamma2.cxx">
<polygon fill="none" stroke="#000000" points="0,-95 0,-147 176,-147 176,-95 0,-95"/>
<text text-anchor="start" x="8" y="-135" font-family="Helvetica,sans-Serif" font-size="10.00" fill="#000000">/home/travis/build</text>
<text text-anchor="start" x="8" y="-124" font-family="Helvetica,sans-Serif" font-size="10.00" fill="#000000">/AliceO2Group/AliceO2</text>
<text text-anchor="start" x="8" y="-113" font-family="Helvetica,sans-Serif" font-size="10.00" fill="#000000">/Detectors/EMCAL/reconstruction</text>
<text text-anchor="middle" x="88" y="-102" font-family="Helvetica,sans-Serif" font-size="10.00" fill="#000000">/src/CaloRawFitterGamma2.cxx</text>
</a>
</g>
</g>
<!-- Node6&#45;&gt;Node9 -->
<g id="edge17" class="edge">
<title>Node6&#45;&gt;Node9</title>
<path fill="none" stroke="#191970" d="M469.9174,-412.9962C400.4689,-404.5679 306.4577,-387.4592 230,-353 162.8993,-322.758 133.224,-317.6247 98,-253 79.9618,-219.9057 80.931,-175.0406 83.9573,-147.068"/>
<polygon fill="#191970" stroke="#191970" points="469.6407,-416.4876 479.9806,-414.1777 470.457,-409.5354 469.6407,-416.4876"/>
</g>
<!-- Node11 -->
<g id="node6" class="node">
<title>Node11</title>
<g id="a_node6"><a xlink:href="../../dd/d4a/RawToCellConverterSpec_8cxx.html" target="_top" xlink:title="/home/travis/build\l/AliceO2Group/AliceO2\l/Detectors/EMCAL/workflow\l/src/RawToCellConverterSpec.cxx">
<polygon fill="none" stroke="#000000" points="415.5,-.5 415.5,-52.5 594.5,-52.5 594.5,-.5 415.5,-.5"/>
<text text-anchor="start" x="423.5" y="-40.5" font-family="Helvetica,sans-Serif" font-size="10.00" fill="#000000">/home/travis/build</text>
<text text-anchor="start" x="423.5" y="-29.5" font-family="Helvetica,sans-Serif" font-size="10.00" fill="#000000">/AliceO2Group/AliceO2</text>
<text text-anchor="start" x="423.5" y="-18.5" font-family="Helvetica,sans-Serif" font-size="10.00" fill="#000000">/Detectors/EMCAL/workflow</text>
<text text-anchor="middle" x="505" y="-7.5" font-family="Helvetica,sans-Serif" font-size="10.00" fill="#000000">/src/RawToCellConverterSpec.cxx</text>
</a>
</g>
</g>
<!-- Node6&#45;&gt;Node11 -->
<g id="edge19" class="edge">
<title>Node6&#45;&gt;Node11</title>
<path fill="none" stroke="#191970" d="M629.8966,-383.0787C640.9837,-374.2388 651.6479,-364.1168 660,-353 732.159,-256.9548 790.001,-185.1637 718,-89 702.6399,-68.4852 645.7485,-52.417 594.6253,-41.7123"/>
<polygon fill="#191970" stroke="#191970" points="627.5959,-380.4318 621.7756,-389.2848 631.8464,-385.9936 627.5959,-380.4318"/>
</g>
<!-- Node13 -->
<g id="node8" class="node">
<title>Node13</title>
<g id="a_node8"><a xlink:href="../../dd/d8f/CaloRawFitterStandard_8h.html" target="_top" xlink:title="/home/travis/build\l/AliceO2Group/AliceO2\l/Detectors/EMCAL/reconstruction\l/include/EMCALReconstruction\l/CaloRawFitterStandard.h">
<polygon fill="none" stroke="#000000" points="495,-189.5 495,-252.5 671,-252.5 671,-189.5 495,-189.5"/>
<text text-anchor="start" x="503" y="-240.5" font-family="Helvetica,sans-Serif" font-size="10.00" fill="#000000">/home/travis/build</text>
<text text-anchor="start" x="503" y="-229.5" font-family="Helvetica,sans-Serif" font-size="10.00" fill="#000000">/AliceO2Group/AliceO2</text>
<text text-anchor="start" x="503" y="-218.5" font-family="Helvetica,sans-Serif" font-size="10.00" fill="#000000">/Detectors/EMCAL/reconstruction</text>
<text text-anchor="start" x="503" y="-207.5" font-family="Helvetica,sans-Serif" font-size="10.00" fill="#000000">/include/EMCALReconstruction</text>
<text text-anchor="middle" x="583" y="-196.5" font-family="Helvetica,sans-Serif" font-size="10.00" fill="#000000">/CaloRawFitterStandard.h</text>
</a>
</g>
</g>
<!-- Node6&#45;&gt;Node13 -->
<g id="edge14" class="edge">
<title>Node6&#45;&gt;Node13</title>
<path fill="none" stroke="#191970" d="M571.1393,-379.1431C573.9703,-341.3965 578.0714,-286.7143 580.6343,-252.5423"/>
<polygon fill="#191970" stroke="#191970" points="567.6346,-379.0756 570.3768,-389.3094 574.615,-379.5992 567.6346,-379.0756"/>
</g>
<!-- Node14 -->
<g id="node9" class="node">
<title>Node14</title>
<g id="a_node9"><a xlink:href="../../d5/dcd/CaloRawFitterStandard_8cxx.html" target="_top" xlink:title="/home/travis/build\l/AliceO2Group/AliceO2\l/Detectors/EMCAL/reconstruction\l/src/CaloRawFitterStandard.cxx">
<polygon fill="none" stroke="#000000" points="533,-95 533,-147 709,-147 709,-95 533,-95"/>
<text text-anchor="start" x="541" y="-135" font-family="Helvetica,sans-Serif" font-size="10.00" fill="#000000">/home/travis/build</text>
<text text-anchor="start" x="541" y="-124" font-family="Helvetica,sans-Serif" font-size="10.00" fill="#000000">/AliceO2Group/AliceO2</text>
<text text-anchor="start" x="541" y="-113" font-family="Helvetica,sans-Serif" font-size="10.00" fill="#000000">/Detectors/EMCAL/reconstruction</text>
<text text-anchor="middle" x="621" y="-102" font-family="Helvetica,sans-Serif" font-size="10.00" fill="#000000">/src/CaloRawFitterStandard.cxx</text>
</a>
</g>
</g>
<!-- Node6&#45;&gt;Node14 -->
<g id="edge18" class="edge">
<title>Node6&#45;&gt;Node14</title>
<path fill="none" stroke="#191970" d="M604.2399,-381.507C630.9877,-349.5128 665.2041,-301.8675 680,-253 688.2427,-225.776 689.949,-215.6478 680,-189 674.0958,-173.186 662.6726,-158.6125 651.4378,-147.0474"/>
<polygon fill="#191970" stroke="#191970" points="601.4289,-379.4098 597.6169,-389.2951 606.7615,-383.9446 601.4289,-379.4098"/>
</g>
<!-- Node15 -->
<g id="node10" class="node">
<title>Node15</title>
<g id="a_node10"><a xlink:href="../../d0/dd0/CaloRawFitter_8cxx.html" target="_top" xlink:title="/home/travis/build\l/AliceO2Group/AliceO2\l/Detectors/EMCAL/reconstruction\l/src/CaloRawFitter.cxx">
<polygon fill="none" stroke="#000000" points="301,-195 301,-247 477,-247 477,-195 301,-195"/>
<text text-anchor="start" x="309" y="-235" font-family="Helvetica,sans-Serif" font-size="10.00" fill="#000000">/home/travis/build</text>
<text text-anchor="start" x="309" y="-224" font-family="Helvetica,sans-Serif" font-size="10.00" fill="#000000">/AliceO2Group/AliceO2</text>
<text text-anchor="start" x="309" y="-213" font-family="Helvetica,sans-Serif" font-size="10.00" fill="#000000">/Detectors/EMCAL/reconstruction</text>
<text text-anchor="middle" x="389" y="-202" font-family="Helvetica,sans-Serif" font-size="10.00" fill="#000000">/src/CaloRawFitter.cxx</text>
</a>
</g>
</g>
<!-- Node6&#45;&gt;Node15 -->
<g id="edge16" class="edge">
<title>Node6&#45;&gt;Node15</title>
<path fill="none" stroke="#191970" d="M550.2384,-380.1943C536.7549,-352.3537 516.2487,-315.809 491,-289 475.6789,-272.732 455.7666,-258.3694 437.6068,-247.0858"/>
<polygon fill="#191970" stroke="#191970" points="547.0956,-381.7355 554.5386,-389.2756 553.4222,-378.7397 547.0956,-381.7355"/>
</g>
<!-- Node16 -->
<g id="node11" class="node">
<title>Node16</title>
<g id="a_node11"><a xlink:href="../../d2/dc3/CaloFitResults_8cxx.html" target="_top" xlink:title="/home/travis/build\l/AliceO2Group/AliceO2\l/Detectors/EMCAL/reconstruction\l/src/CaloFitResults.cxx">
<polygon fill="none" stroke="#000000" points="765,-295 765,-347 941,-347 941,-295 765,-295"/>
<text text-anchor="start" x="773" y="-335" font-family="Helvetica,sans-Serif" font-size="10.00" fill="#000000">/home/travis/build</text>
<text text-anchor="start" x="773" y="-324" font-family="Helvetica,sans-Serif" font-size="10.00" fill="#000000">/AliceO2Group/AliceO2</text>
<text text-anchor="start" x="773" y="-313" font-family="Helvetica,sans-Serif" font-size="10.00" fill="#000000">/Detectors/EMCAL/reconstruction</text>
<text text-anchor="middle" x="853" y="-302" font-family="Helvetica,sans-Serif" font-size="10.00" fill="#000000">/src/CaloFitResults.cxx</text>
</a>
</g>
</g>
<!-- Node6&#45;&gt;Node16 -->
<g id="edge15" class="edge">
<title>Node6&#45;&gt;Node16</title>
<path fill="none" stroke="#191970" d="M666.0017,-386.6134C702.8997,-373.6668 744.2221,-359.1677 778.6197,-347.0983"/>
<polygon fill="#191970" stroke="#191970" points="664.5012,-383.4307 656.224,-390.0442 666.8188,-390.0359 664.5012,-383.4307"/>
</g>
<!-- Node7&#45;&gt;Node8 -->
<g id="edge2" class="edge">
<title>Node7&#45;&gt;Node8</title>
<path fill="none" stroke="#191970" d="M322.3707,-285.0054C301.2266,-274.3802 278.2559,-262.8371 257.7184,-252.5168"/>
<polygon fill="#191970" stroke="#191970" points="320.8015,-288.1338 331.3083,-289.4966 323.9446,-281.8791 320.8015,-288.1338"/>
</g>
<!-- Node7&#45;&gt;Node13 -->
<g id="edge8" class="edge">
<title>Node7&#45;&gt;Node13</title>
<path fill="none" stroke="#191970" d="M462.5681,-284.7206C482.5009,-274.1741 504.102,-262.745 523.4333,-252.5168"/>
<polygon fill="#191970" stroke="#191970" points="460.7435,-281.7262 453.5414,-289.4966 464.0173,-287.9135 460.7435,-281.7262"/>
</g>
<!-- Node7&#45;&gt;Node15 -->
<g id="edge12" class="edge">
<title>Node7&#45;&gt;Node15</title>
<path fill="none" stroke="#191970" d="M391.9082,-279.1631C391.3643,-268.2863 390.794,-256.8798 390.3039,-247.078"/>
<polygon fill="#191970" stroke="#191970" points="388.4229,-279.5467 392.418,-289.3594 395.4141,-279.197 388.4229,-279.5467"/>
</g>
<!-- Node8&#45;&gt;Node9 -->
<g id="edge3" class="edge">
<title>Node8&#45;&gt;Node9</title>
<path fill="none" stroke="#191970" d="M153.8133,-182.5078C141.131,-170.6552 127.4726,-157.8902 115.9034,-147.078"/>
<polygon fill="#191970" stroke="#191970" points="151.4487,-185.0884 161.1445,-189.3594 156.2283,-179.9742 151.4487,-185.0884"/>
</g>
<!-- Node10 -->
<g id="node5" class="node">
<title>Node10</title>
<g id="a_node5"><a xlink:href="../../d5/da4/RawToCellConverterSpec_8h.html" target="_top" xlink:title="/home/travis/build\l/AliceO2Group/AliceO2\l/Detectors/EMCAL/workflow\l/include/EMCALWorkflow/RawToCell\lConverterSpec.h">
<polygon fill="none" stroke="#000000" points="281,-89.5 281,-152.5 469,-152.5 469,-89.5 281,-89.5"/>
<text text-anchor="start" x="289" y="-140.5" font-family="Helvetica,sans-Serif" font-size="10.00" fill="#000000">/home/travis/build</text>
<text text-anchor="start" x="289" y="-129.5" font-family="Helvetica,sans-Serif" font-size="10.00" fill="#000000">/AliceO2Group/AliceO2</text>
<text text-anchor="start" x="289" y="-118.5" font-family="Helvetica,sans-Serif" font-size="10.00" fill="#000000">/Detectors/EMCAL/workflow</text>
<text text-anchor="start" x="289" y="-107.5" font-family="Helvetica,sans-Serif" font-size="10.00" fill="#000000">/include/EMCALWorkflow/RawToCell</text>
<text text-anchor="middle" x="375" y="-96.5" font-family="Helvetica,sans-Serif" font-size="10.00" fill="#000000">ConverterSpec.h</text>
</a>
</g>
</g>
<!-- Node8&#45;&gt;Node10 -->
<g id="edge4" class="edge">
<title>Node8&#45;&gt;Node10</title>
<path fill="none" stroke="#191970" d="M260.7569,-184.4684C279.5587,-174.0229 299.8858,-162.7301 318.1087,-152.6063"/>
<polygon fill="#191970" stroke="#191970" points="258.9949,-181.4433 251.9531,-189.3594 262.3945,-187.5624 258.9949,-181.4433"/>
</g>
<!-- Node8&#45;&gt;Node11 -->
<g id="edge7" class="edge">
<title>Node8&#45;&gt;Node11</title>
<path fill="none" stroke="#191970" d="M209.2953,-179.6411C221.5308,-150.1994 241.9786,-111.9362 272,-89 272.1921,-88.8533 349.7748,-68.0571 415.3524,-50.496"/>
<polygon fill="#191970" stroke="#191970" points="205.9154,-178.6676 205.4587,-189.2526 212.4166,-181.2627 205.9154,-178.6676"/>
</g>
<!-- Node10&#45;&gt;Node11 -->
<g id="edge5" class="edge">
<title>Node10&#45;&gt;Node11</title>
<path fill="none" stroke="#191970" d="M426.8523,-83.3074C440.9899,-73.0304 455.9935,-62.124 469.0345,-52.6442"/>
<polygon fill="#191970" stroke="#191970" points="424.6805,-80.559 418.6498,-89.27 428.7965,-86.2211 424.6805,-80.559"/>
</g>
<!-- Node12 -->
<g id="node7" class="node">
<title>Node12</title>
<g id="a_node7"><a xlink:href="../../d2/dbf/EMCAL_2workflow_2src_2RecoWorkflow_8cxx.html" target="_top" xlink:title="/home/travis/build\l/AliceO2Group/AliceO2\l/Detectors/EMCAL/workflow\l/src/RecoWorkflow.cxx">
<polygon fill="none" stroke="#000000" points="247,-.5 247,-52.5 397,-52.5 397,-.5 247,-.5"/>
<text text-anchor="start" x="255" y="-40.5" font-family="Helvetica,sans-Serif" font-size="10.00" fill="#000000">/home/travis/build</text>
<text text-anchor="start" x="255" y="-29.5" font-family="Helvetica,sans-Serif" font-size="10.00" fill="#000000">/AliceO2Group/AliceO2</text>
<text text-anchor="start" x="255" y="-18.5" font-family="Helvetica,sans-Serif" font-size="10.00" fill="#000000">/Detectors/EMCAL/workflow</text>
<text text-anchor="middle" x="322" y="-7.5" font-family="Helvetica,sans-Serif" font-size="10.00" fill="#000000">/src/RecoWorkflow.cxx</text>
</a>
</g>
</g>
<!-- Node10&#45;&gt;Node12 -->
<g id="edge6" class="edge">
<title>Node10&#45;&gt;Node12</title>
<path fill="none" stroke="#191970" d="M352.2359,-80.4112C346.9601,-71.0043 341.4827,-61.238 336.6629,-52.6442"/>
<polygon fill="#191970" stroke="#191970" points="349.26,-82.2602 357.2043,-89.27 355.3653,-78.836 349.26,-82.2602"/>
</g>
<!-- Node13&#45;&gt;Node10 -->
<g id="edge10" class="edge">
<title>Node13&#45;&gt;Node10</title>
<path fill="none" stroke="#191970" d="M508.4271,-185.1476C486.2452,-174.4833 462.1171,-162.8832 440.5549,-152.5168"/>
<polygon fill="#191970" stroke="#191970" points="506.9439,-188.318 517.473,-189.4966 509.977,-182.0092 506.9439,-188.318"/>
</g>
<!-- Node13&#45;&gt;Node11 -->
<g id="edge11" class="edge">
<title>Node13&#45;&gt;Node11</title>
<path fill="none" stroke="#191970" d="M542.4358,-181.6553C535.2894,-172.8524 528.6582,-163.1071 524,-153 509.127,-120.7294 505.4234,-79.383 504.7372,-52.9112"/>
<polygon fill="#191970" stroke="#191970" points="539.945,-184.1282 549.1017,-189.4579 545.2673,-179.5813 539.945,-184.1282"/>
</g>
<!-- Node13&#45;&gt;Node14 -->
<g id="edge9" class="edge">
<title>Node13&#45;&gt;Node14</title>
<path fill="none" stroke="#191970" d="M598.6426,-179.8352C602.8522,-168.7573 607.2889,-157.0819 611.0904,-147.078"/>
<polygon fill="#191970" stroke="#191970" points="595.3039,-178.7682 595.0234,-189.3594 601.8474,-181.2548 595.3039,-178.7682"/>
</g>
</g>
</svg>
