<?xml version="1.0" encoding="UTF-8" standalone="no"?>
<!DOCTYPE svg PUBLIC "-//W3C//DTD SVG 1.1//EN"
 "http://www.w3.org/Graphics/SVG/1.1/DTD/svg11.dtd">
<!-- Generated by graphviz version 2.40.1 (20161225.0304)
 -->
<!-- Title: o2::header::RAWDataHeaderV5 Pages: 1 -->
<svg width="1245pt" height="380pt"
 viewBox="0.00 0.00 1244.50 380.00" xmlns="http://www.w3.org/2000/svg" xmlns:xlink="http://www.w3.org/1999/xlink">
<g id="graph0" class="graph" transform="scale(1 1) rotate(0) translate(4 376)">
<title>o2::header::RAWDataHeaderV5</title>
<!-- Node1 -->
<g id="node1" class="node">
<title>Node1</title>
<polygon fill="#bfbfbf" stroke="#000000" points="487.5,-.5 487.5,-156.5 654.5,-156.5 654.5,-.5 487.5,-.5"/>
<text text-anchor="middle" x="571" y="-144.5" font-family="Helvetica,sans-Serif" font-size="10.00" fill="#000000">o2::header::RAWDataHeaderV5</text>
<polyline fill="none" stroke="#000000" points="487.5,-137.5 654.5,-137.5 "/>
<text text-anchor="start" x="495.5" y="-125.5" font-family="Helvetica,sans-Serif" font-size="10.00" fill="#000000">+ zero0</text>
<text text-anchor="start" x="495.5" y="-114.5" font-family="Helvetica,sans-Serif" font-size="10.00" fill="#000000">+ word1</text>
<text text-anchor="start" x="495.5" y="-103.5" font-family="Helvetica,sans-Serif" font-size="10.00" fill="#000000">+ word2</text>
<text text-anchor="start" x="495.5" y="-92.5" font-family="Helvetica,sans-Serif" font-size="10.00" fill="#000000">+ word3</text>
<text text-anchor="start" x="495.5" y="-81.5" font-family="Helvetica,sans-Serif" font-size="10.00" fill="#000000">+ word4</text>
<text text-anchor="start" x="495.5" y="-70.5" font-family="Helvetica,sans-Serif" font-size="10.00" fill="#000000">+ pageCnt</text>
<text text-anchor="start" x="495.5" y="-59.5" font-family="Helvetica,sans-Serif" font-size="10.00" fill="#000000">+ zero4</text>
<text text-anchor="start" x="495.5" y="-48.5" font-family="Helvetica,sans-Serif" font-size="10.00" fill="#000000">+ word5</text>
<text text-anchor="start" x="495.5" y="-37.5" font-family="Helvetica,sans-Serif" font-size="10.00" fill="#000000">+ word6</text>
<text text-anchor="start" x="495.5" y="-26.5" font-family="Helvetica,sans-Serif" font-size="10.00" fill="#000000">+ detectorField</text>
<polyline fill="none" stroke="#000000" points="487.5,-19.5 654.5,-19.5 "/>
<text text-anchor="middle" x="571" y="-7.5" font-family="Helvetica,sans-Serif" font-size="10.00" fill="#000000"> </text>
</g>
<!-- Node2 -->
<g id="node2" class="node">
<title>Node2</title>
<g id="a_node2"><a xlink:href="../../d6/d30/classuint64__t.html" target="_top" xlink:title="{uint64_t\n||}">
<polygon fill="none" stroke="#000000" points="0,-314.5 0,-371.5 56,-371.5 56,-314.5 0,-314.5"/>
<text text-anchor="middle" x="28" y="-359.5" font-family="Helvetica,sans-Serif" font-size="10.00" fill="#000000">uint64_t</text>
<polyline fill="none" stroke="#000000" points="0,-352.5 56,-352.5 "/>
<text text-anchor="middle" x="28" y="-340.5" font-family="Helvetica,sans-Serif" font-size="10.00" fill="#000000"> </text>
<polyline fill="none" stroke="#000000" points="0,-333.5 56,-333.5 "/>
<text text-anchor="middle" x="28" y="-321.5" font-family="Helvetica,sans-Serif" font-size="10.00" fill="#000000"> </text>
</a>
</g>
</g>
<!-- Node2&#45;&gt;Node1 -->
<g id="edge1" class="edge">
<title>Node2&#45;&gt;Node1</title>
<path fill="none" stroke="#404040" d="M26.2907,-314.3869C25.7275,-276.8006 30.8329,-211.3248 69,-175 126.179,-120.581 346.2819,-95.1958 475.2783,-84.7709"/>
<polygon fill="none" stroke="#404040" points="475.5061,-84.753 481.1726,-80.293 487.4689,-83.8082 481.8024,-88.2682 475.5061,-84.753"/>
<text text-anchor="middle" x="103" y="-288" font-family="Helvetica,sans-Serif" font-size="10.00" fill="#000000"> +word7</text>
<text text-anchor="middle" x="103" y="-277" font-family="Helvetica,sans-Serif" font-size="10.00" fill="#000000">+triggerType</text>
<text text-anchor="middle" x="103" y="-266" font-family="Helvetica,sans-Serif" font-size="10.00" fill="#000000">+zero6</text>
<text text-anchor="middle" x="103" y="-255" font-family="Helvetica,sans-Serif" font-size="10.00" fill="#000000">+detectorPAR</text>
<text text-anchor="middle" x="103" y="-244" font-family="Helvetica,sans-Serif" font-size="10.00" fill="#000000">+feeId</text>
<text text-anchor="middle" x="103" y="-233" font-family="Helvetica,sans-Serif" font-size="10.00" fill="#000000">+priority</text>
<text text-anchor="middle" x="103" y="-222" font-family="Helvetica,sans-Serif" font-size="10.00" fill="#000000">+headerSize</text>
<text text-anchor="middle" x="103" y="-211" font-family="Helvetica,sans-Serif" font-size="10.00" fill="#000000">+version</text>
<text text-anchor="middle" x="103" y="-200" font-family="Helvetica,sans-Serif" font-size="10.00" fill="#000000">+word0</text>
<text text-anchor="middle" x="103" y="-189" font-family="Helvetica,sans-Serif" font-size="10.00" fill="#000000">+stop</text>
<text text-anchor="middle" x="103" y="-178" font-family="Helvetica,sans-Serif" font-size="10.00" fill="#000000">...</text>
</g>
<!-- Node3 -->
<g id="node3" class="node">
<title>Node3</title>
<polygon fill="none" stroke="#bfbfbf" points="74.5,-314.5 74.5,-371.5 187.5,-371.5 187.5,-314.5 74.5,-314.5"/>
<text text-anchor="middle" x="131" y="-359.5" font-family="Helvetica,sans-Serif" font-size="10.00" fill="#000000">anonymous:+@101</text>
<polyline fill="none" stroke="#bfbfbf" points="74.5,-352.5 187.5,-352.5 "/>
<text text-anchor="middle" x="131" y="-340.5" font-family="Helvetica,sans-Serif" font-size="10.00" fill="#000000"> </text>
<polyline fill="none" stroke="#bfbfbf" points="74.5,-333.5 187.5,-333.5 "/>
<text text-anchor="middle" x="131" y="-321.5" font-family="Helvetica,sans-Serif" font-size="10.00" fill="#000000"> </text>
</g>
<!-- Node3&#45;&gt;Node1 -->
<g id="edge2" class="edge">
<title>Node3&#45;&gt;Node1</title>
<path fill="none" stroke="#404040" d="M135.9162,-314.3836C143.8947,-276.7935 163.2954,-211.3135 206,-175 246.403,-140.6436 381.5808,-111.1616 475.5657,-94.1204"/>
<polygon fill="none" stroke="#404040" points="475.5762,-94.1186 480.7769,-89.1234 487.3882,-92.0027 482.1875,-96.998 475.5762,-94.1186"/>
<text text-anchor="middle" x="226" y="-233" font-family="Helvetica,sans-Serif" font-size="10.00" fill="#000000"> +@101</text>
</g>
<!-- Node4 -->
<g id="node4" class="node">
<title>Node4</title>
<polygon fill="none" stroke="#bfbfbf" points="206,-314.5 206,-371.5 262,-371.5 262,-314.5 206,-314.5"/>
<text text-anchor="middle" x="234" y="-359.5" font-family="Helvetica,sans-Serif" font-size="10.00" fill="#000000">uint16_t</text>
<polyline fill="none" stroke="#bfbfbf" points="206,-352.5 262,-352.5 "/>
<text text-anchor="middle" x="234" y="-340.5" font-family="Helvetica,sans-Serif" font-size="10.00" fill="#000000"> </text>
<polyline fill="none" stroke="#bfbfbf" points="206,-333.5 262,-333.5 "/>
<text text-anchor="middle" x="234" y="-321.5" font-family="Helvetica,sans-Serif" font-size="10.00" fill="#000000"> </text>
</g>
<!-- Node4&#45;&gt;Node1 -->
<g id="edge3" class="edge">
<title>Node4&#45;&gt;Node1</title>
<path fill="none" stroke="#404040" d="M241.6716,-314.3839C252.9703,-277.4001 277.4832,-213.2297 320,-175 363.56,-135.8322 424.7187,-111.877 475.7596,-97.6312"/>
<polygon fill="none" stroke="#404040" points="475.9016,-97.5931 480.6568,-92.172 487.4898,-94.4763 482.7346,-99.8975 475.9016,-97.5931"/>
<text text-anchor="middle" x="338.5" y="-233" font-family="Helvetica,sans-Serif" font-size="10.00" fill="#000000"> +cruID</text>
</g>
<!-- Node5 -->
<g id="node5" class="node">
<title>Node5</title>
<polygon fill="none" stroke="#bfbfbf" points="280.5,-314.5 280.5,-371.5 393.5,-371.5 393.5,-314.5 280.5,-314.5"/>
<text text-anchor="middle" x="337" y="-359.5" font-family="Helvetica,sans-Serif" font-size="10.00" fill="#000000">anonymous:+@103</text>
<polyline fill="none" stroke="#bfbfbf" points="280.5,-352.5 393.5,-352.5 "/>
<text text-anchor="middle" x="337" y="-340.5" font-family="Helvetica,sans-Serif" font-size="10.00" fill="#000000"> </text>
<polyline fill="none" stroke="#bfbfbf" points="280.5,-333.5 393.5,-333.5 "/>
<text text-anchor="middle" x="337" y="-321.5" font-family="Helvetica,sans-Serif" font-size="10.00" fill="#000000"> </text>
</g>
<!-- Node5&#45;&gt;Node1 -->
<g id="edge4" class="edge">
<title>Node5&#45;&gt;Node1</title>
<path fill="none" stroke="#404040" d="M350.2848,-314.2958C367.5723,-278.9242 400.3097,-218.2118 440,-175 451.2247,-162.7794 464.1956,-151.0862 477.5203,-140.3217"/>
<polygon fill="none" stroke="#404040" points="477.835,-140.0741 480.0766,-133.2203 487.2654,-132.6534 485.0238,-139.5072 477.835,-140.0741"/>
<text text-anchor="middle" x="460" y="-233" font-family="Helvetica,sans-Serif" font-size="10.00" fill="#000000"> +@103</text>
</g>
<!-- Node6 -->
<g id="node6" class="node">
<title>Node6</title>
<polygon fill="none" stroke="#bfbfbf" points="411.5,-314.5 411.5,-371.5 524.5,-371.5 524.5,-314.5 411.5,-314.5"/>
<text text-anchor="middle" x="468" y="-359.5" font-family="Helvetica,sans-Serif" font-size="10.00" fill="#000000">anonymous:+@105</text>
<polyline fill="none" stroke="#bfbfbf" points="411.5,-352.5 524.5,-352.5 "/>
<text text-anchor="middle" x="468" y="-340.5" font-family="Helvetica,sans-Serif" font-size="10.00" fill="#000000"> </text>
<polyline fill="none" stroke="#bfbfbf" points="411.5,-333.5 524.5,-333.5 "/>
<text text-anchor="middle" x="468" y="-321.5" font-family="Helvetica,sans-Serif" font-size="10.00" fill="#000000"> </text>
</g>
<!-- Node6&#45;&gt;Node1 -->
<g id="edge5" class="edge">
<title>Node6&#45;&gt;Node1</title>
<path fill="none" stroke="#404040" d="M477.148,-314.4714C488.1404,-280.8135 507.5456,-223.3191 527,-175 527.9402,-172.6648 528.9055,-170.3038 529.8905,-167.9264"/>
<polygon fill="none" stroke="#404040" points="529.956,-167.7712 528.6049,-160.6877 534.6238,-156.7162 535.9749,-163.7996 529.956,-167.7712"/>
<text text-anchor="middle" x="547" y="-233" font-family="Helvetica,sans-Serif" font-size="10.00" fill="#000000"> +@105</text>
</g>
<!-- Node7 -->
<g id="node7" class="node">
<title>Node7</title>
<g id="a_node7"><a xlink:href="../../d3/d87/classuint32__t.html" target="_top" xlink:title="{uint32_t\n||}">
<polygon fill="none" stroke="#000000" points="543,-314.5 543,-371.5 599,-371.5 599,-314.5 543,-314.5"/>
<text text-anchor="middle" x="571" y="-359.5" font-family="Helvetica,sans-Serif" font-size="10.00" fill="#000000">uint32_t</text>
<polyline fill="none" stroke="#000000" points="543,-352.5 599,-352.5 "/>
<text text-anchor="middle" x="571" y="-340.5" font-family="Helvetica,sans-Serif" font-size="10.00" fill="#000000"> </text>
<polyline fill="none" stroke="#000000" points="543,-333.5 599,-333.5 "/>
<text text-anchor="middle" x="571" y="-321.5" font-family="Helvetica,sans-Serif" font-size="10.00" fill="#000000"> </text>
</a>
</g>
</g>
<!-- Node7&#45;&gt;Node1 -->
<g id="edge6" class="edge">
<title>Node7&#45;&gt;Node1</title>
<path fill="none" stroke="#404040" d="M571,-314.4426C571,-279.7538 571,-219.5583 571,-168.6529"/>
<polygon fill="none" stroke="#404040" points="571.0001,-168.6069 567,-162.607 571,-156.6069 575,-162.6069 571.0001,-168.6069"/>
<text text-anchor="middle" x="611" y="-271.5" font-family="Helvetica,sans-Serif" font-size="10.00" fill="#000000"> +linkID</text>
<text text-anchor="middle" x="611" y="-260.5" font-family="Helvetica,sans-Serif" font-size="10.00" fill="#000000">+endPointID</text>
<text text-anchor="middle" x="611" y="-249.5" font-family="Helvetica,sans-Serif" font-size="10.00" fill="#000000">+reserved2</text>
<text text-anchor="middle" x="611" y="-238.5" font-family="Helvetica,sans-Serif" font-size="10.00" fill="#000000">+memorySize</text>
<text text-anchor="middle" x="611" y="-227.5" font-family="Helvetica,sans-Serif" font-size="10.00" fill="#000000">+offsetToNext</text>
<text text-anchor="middle" x="611" y="-216.5" font-family="Helvetica,sans-Serif" font-size="10.00" fill="#000000">+orbit</text>
<text text-anchor="middle" x="611" y="-205.5" font-family="Helvetica,sans-Serif" font-size="10.00" fill="#000000">+packetCounter</text>
<text text-anchor="middle" x="611" y="-194.5" font-family="Helvetica,sans-Serif" font-size="10.00" fill="#000000">+bunchCrossing</text>
</g>
<!-- Node8 -->
<g id="node8" class="node">
<title>Node8</title>
<polygon fill="none" stroke="#bfbfbf" points="617.5,-314.5 617.5,-371.5 730.5,-371.5 730.5,-314.5 617.5,-314.5"/>
<text text-anchor="middle" x="674" y="-359.5" font-family="Helvetica,sans-Serif" font-size="10.00" fill="#000000">anonymous:+@107</text>
<polyline fill="none" stroke="#bfbfbf" points="617.5,-352.5 730.5,-352.5 "/>
<text text-anchor="middle" x="674" y="-340.5" font-family="Helvetica,sans-Serif" font-size="10.00" fill="#000000"> </text>
<polyline fill="none" stroke="#bfbfbf" points="617.5,-333.5 730.5,-333.5 "/>
<text text-anchor="middle" x="674" y="-321.5" font-family="Helvetica,sans-Serif" font-size="10.00" fill="#000000"> </text>
</g>
<!-- Node8&#45;&gt;Node1 -->
<g id="edge7" class="edge">
<title>Node8&#45;&gt;Node1</title>
<path fill="none" stroke="#404040" d="M675.0343,-314.3583C675.225,-279.8409 672.128,-220.777 652,-175 650.8486,-172.3814 649.6034,-169.7784 648.2771,-167.1964"/>
<polygon fill="none" stroke="#404040" points="648.268,-167.1801 641.8447,-163.9027 642.3995,-156.713 648.8228,-159.9904 648.268,-167.1801"/>
<text text-anchor="middle" x="694" y="-233" font-family="Helvetica,sans-Serif" font-size="10.00" fill="#000000"> +@107</text>
</g>
<!-- Node9 -->
<g id="node9" class="node">
<title>Node9</title>
<polygon fill="none" stroke="#bfbfbf" points="748.5,-314.5 748.5,-371.5 861.5,-371.5 861.5,-314.5 748.5,-314.5"/>
<text text-anchor="middle" x="805" y="-359.5" font-family="Helvetica,sans-Serif" font-size="10.00" fill="#000000">anonymous:+@109</text>
<polyline fill="none" stroke="#bfbfbf" points="748.5,-352.5 861.5,-352.5 "/>
<text text-anchor="middle" x="805" y="-340.5" font-family="Helvetica,sans-Serif" font-size="10.00" fill="#000000"> </text>
<polyline fill="none" stroke="#bfbfbf" points="748.5,-333.5 861.5,-333.5 "/>
<text text-anchor="middle" x="805" y="-321.5" font-family="Helvetica,sans-Serif" font-size="10.00" fill="#000000"> </text>
</g>
<!-- Node9&#45;&gt;Node1 -->
<g id="edge8" class="edge">
<title>Node9&#45;&gt;Node1</title>
<path fill="none" stroke="#404040" d="M795.3819,-314.4685C782.2561,-278.7264 755.9466,-217.0743 718,-175 702.6781,-158.0114 683.7303,-142.7 664.5923,-129.5394"/>
<polygon fill="none" stroke="#404040" points="664.5642,-129.5207 657.3531,-129.5146 654.5852,-122.8559 661.7963,-122.8619 664.5642,-129.5207"/>
<text text-anchor="middle" x="807" y="-233" font-family="Helvetica,sans-Serif" font-size="10.00" fill="#000000"> +@109</text>
</g>
<!-- Node10 -->
<g id="node10" class="node">
<title>Node10</title>
<polygon fill="none" stroke="#bfbfbf" points="879.5,-314.5 879.5,-371.5 986.5,-371.5 986.5,-314.5 879.5,-314.5"/>
<text text-anchor="middle" x="933" y="-359.5" font-family="Helvetica,sans-Serif" font-size="10.00" fill="#000000">anonymous:+@95</text>
<polyline fill="none" stroke="#bfbfbf" points="879.5,-352.5 986.5,-352.5 "/>
<text text-anchor="middle" x="933" y="-340.5" font-family="Helvetica,sans-Serif" font-size="10.00" fill="#000000"> </text>
<polyline fill="none" stroke="#bfbfbf" points="879.5,-333.5 986.5,-333.5 "/>
<text text-anchor="middle" x="933" y="-321.5" font-family="Helvetica,sans-Serif" font-size="10.00" fill="#000000"> </text>
</g>
<!-- Node10&#45;&gt;Node1 -->
<g id="edge9" class="edge">
<title>Node10&#45;&gt;Node1</title>
<path fill="none" stroke="#404040" d="M922.5282,-314.2876C907.6253,-277.1985 876.9114,-212.9131 831,-175 783.8006,-136.0234 719.3573,-111.96 666.4384,-97.6102"/>
<polygon fill="none" stroke="#404040" points="666.2498,-97.5609 659.4317,-99.9092 654.6417,-94.5188 661.4598,-92.1705 666.2498,-97.5609"/>
<text text-anchor="middle" x="930" y="-233" font-family="Helvetica,sans-Serif" font-size="10.00" fill="#000000"> +@95</text>
</g>
<!-- Node11 -->
<g id="node11" class="node">
<title>Node11</title>
<polygon fill="none" stroke="#bfbfbf" points="1004.5,-314.5 1004.5,-371.5 1111.5,-371.5 1111.5,-314.5 1004.5,-314.5"/>
<text text-anchor="middle" x="1058" y="-359.5" font-family="Helvetica,sans-Serif" font-size="10.00" fill="#000000">anonymous:+@97</text>
<polyline fill="none" stroke="#bfbfbf" points="1004.5,-352.5 1111.5,-352.5 "/>
<text text-anchor="middle" x="1058" y="-340.5" font-family="Helvetica,sans-Serif" font-size="10.00" fill="#000000"> </text>
<polyline fill="none" stroke="#bfbfbf" points="1004.5,-333.5 1111.5,-333.5 "/>
<text text-anchor="middle" x="1058" y="-321.5" font-family="Helvetica,sans-Serif" font-size="10.00" fill="#000000"> </text>
</g>
<!-- Node11&#45;&gt;Node1 -->
<g id="edge10" class="edge">
<title>Node11&#45;&gt;Node1</title>
<path fill="none" stroke="#404040" d="M1047.6304,-314.4848C1032.3952,-276.6988 1000.3136,-210.668 951,-175 905.9317,-142.4025 763.5313,-112.0958 666.4431,-94.4407"/>
<polygon fill="none" stroke="#404040" points="666.3518,-94.4244 659.738,-97.2981 654.5416,-92.2984 661.1554,-89.4246 666.3518,-94.4244"/>
<text text-anchor="middle" x="1056" y="-233" font-family="Helvetica,sans-Serif" font-size="10.00" fill="#000000"> +@97</text>
</g>
<!-- Node12 -->
<g id="node12" class="node">
<title>Node12</title>
<polygon fill="none" stroke="#bfbfbf" points="1129.5,-314.5 1129.5,-371.5 1236.5,-371.5 1236.5,-314.5 1129.5,-314.5"/>
<text text-anchor="middle" x="1183" y="-359.5" font-family="Helvetica,sans-Serif" font-size="10.00" fill="#000000">anonymous:+@99</text>
<polyline fill="none" stroke="#bfbfbf" points="1129.5,-352.5 1236.5,-352.5 "/>
<text text-anchor="middle" x="1183" y="-340.5" font-family="Helvetica,sans-Serif" font-size="10.00" fill="#000000"> </text>
<polyline fill="none" stroke="#bfbfbf" points="1129.5,-333.5 1236.5,-333.5 "/>
<text text-anchor="middle" x="1183" y="-321.5" font-family="Helvetica,sans-Serif" font-size="10.00" fill="#000000"> </text>
</g>
<!-- Node12&#45;&gt;Node1 -->
<g id="edge11" class="edge">
<title>Node12&#45;&gt;Node1</title>
<path fill="none" stroke="#404040" d="M1173.2342,-314.3748C1158.6277,-276.1482 1127.3001,-209.2785 1077,-175 1011.538,-130.3889 794.3521,-101.3078 666.7881,-87.6268"/>
<polygon fill="none" stroke="#404040" points="666.6644,-87.6138 660.2768,-90.9601 654.7311,-86.3509 661.1187,-83.0045 666.6644,-87.6138"/>
<text text-anchor="middle" x="1182" y="-233" font-family="Helvetica,sans-Serif" font-size="10.00" fill="#000000"> +@99</text>
</g>
</g>
</svg>
