<?xml version="1.0" encoding="UTF-8" standalone="no"?>
<!DOCTYPE svg PUBLIC "-//W3C//DTD SVG 1.1//EN"
 "http://www.w3.org/Graphics/SVG/1.1/DTD/svg11.dtd">
<!-- Generated by graphviz version 2.40.1 (20161225.0304)
 -->
<!-- Title: TableReader Pages: 1 -->
<!--zoomable 871 -->
<svg id="main" version="1.1" xmlns="http://www.w3.org/2000/svg" xmlns:xlink="http://www.w3.org/1999/xlink" xml:space="preserve" onload="init(evt)">
<style type="text/css"><![CDATA[
.edge:hover path { stroke: red; }
.edge:hover polygon { stroke: red; fill: red; }
]]></style>
<script type="text/javascript"><![CDATA[
var edges = document.getElementsByTagName('g');
if (edges && edges.length) {
  for (var i=0;i<edges.length;i++) {
    if (edges[i].id.substr(0,4)=='edge') {
      edges[i].setAttribute('class','edge');
    }
  }
}
]]></script>
        <defs>
                <circle id="rim" cx="0" cy="0" r="7"/>
                <circle id="rim2" cx="0" cy="0" r="3.5"/>
                <g id="zoomPlus">
                        <use xlink:href="#rim" fill="#404040">
                                <set attributeName="fill" to="#808080" begin="zoomplus.mouseover" end="zoomplus.mouseout"/>
                        </use>
                        <path d="M-4,0h8M0,-4v8" fill="none" stroke="white" stroke-width="1.5" pointer-events="none"/>
                </g>
                <g id="zoomMin">
                        <use xlink:href="#rim" fill="#404040">
                                <set attributeName="fill" to="#808080" begin="zoomminus.mouseover" end="zoomminus.mouseout"/>
                        </use>
                        <path d="M-4,0h8" fill="none" stroke="white" stroke-width="1.5" pointer-events="none"/>
                </g>
                <g id="dirArrow">
                        <path fill="none" stroke="white" stroke-width="1.5" d="M0,-3.0v7 M-2.5,-0.5L0,-3.0L2.5,-0.5"/>
                </g>
               <g id="resetDef">
                       <use xlink:href="#rim2" fill="#404040">
                               <set attributeName="fill" to="#808080" begin="reset.mouseover" end="reset.mouseout"/>
                       </use>
               </g>
        </defs>

<script type="text/javascript">
var viewWidth = 1387;
var viewHeight = 871;
var sectionId = 'dynsection-0';
</script>
<script xlink:href="../../svgpan.js"/>
<svg id="graph" class="graph">
<g id="viewport">
<title>TableReader</title>
<!-- Node1 -->
<g id="node1" class="node">
<title>Node1</title>
<polygon fill="#bfbfbf" stroke="#000000" points="338,-.5 338,-90.5 461,-90.5 461,-.5 338,-.5"/>
<text text-anchor="middle" x="399.5" y="-78.5" font-family="Helvetica,sans-Serif" font-size="10.00" fill="#000000">TableReader</text>
<polyline fill="none" stroke="#000000" points="338,-71.5 461,-71.5 "/>
<text text-anchor="middle" x="399.5" y="-59.5" font-family="Helvetica,sans-Serif" font-size="10.00" fill="#000000"> </text>
<polyline fill="none" stroke="#000000" points="338,-52.5 461,-52.5 "/>
<text text-anchor="start" x="346" y="-40.5" font-family="Helvetica,sans-Serif" font-size="10.00" fill="#000000">+ init()</text>
<text text-anchor="start" x="346" y="-29.5" font-family="Helvetica,sans-Serif" font-size="10.00" fill="#000000">+ DefineCuts()</text>
<text text-anchor="start" x="346" y="-18.5" font-family="Helvetica,sans-Serif" font-size="10.00" fill="#000000">+ process()</text>
<text text-anchor="start" x="346" y="-7.5" font-family="Helvetica,sans-Serif" font-size="10.00" fill="#000000">+ DefineHistograms()</text>
</g>
<!-- Node2 -->
<g id="node2" class="node">
<title>Node2</title>
<g id="a_node2"><a xlink:href="../../db/d7a/classAnalysisCompositeCut.html" target="_top" xlink:title="{AnalysisCompositeCut\n||+ AnalysisCompositeCut()\l+ AnalysisCompositeCut()\l+ ~AnalysisCompositeCut()\l+ AddCut()\l+ GetUseAND()\l+ GetNCuts()\l+ IsSelected()\l# AnalysisCompositeCut()\l# operator=()\l# ClassDef()\l}">
<polygon fill="none" stroke="#000000" points="156.5,-166 156.5,-322 310.5,-322 310.5,-166 156.5,-166"/>
<text text-anchor="middle" x="233.5" y="-310" font-family="Helvetica,sans-Serif" font-size="10.00" fill="#000000">AnalysisCompositeCut</text>
<polyline fill="none" stroke="#000000" points="156.5,-303 310.5,-303 "/>
<text text-anchor="middle" x="233.5" y="-291" font-family="Helvetica,sans-Serif" font-size="10.00" fill="#000000"> </text>
<polyline fill="none" stroke="#000000" points="156.5,-284 310.5,-284 "/>
<text text-anchor="start" x="164.5" y="-272" font-family="Helvetica,sans-Serif" font-size="10.00" fill="#000000">+ AnalysisCompositeCut()</text>
<text text-anchor="start" x="164.5" y="-261" font-family="Helvetica,sans-Serif" font-size="10.00" fill="#000000">+ AnalysisCompositeCut()</text>
<text text-anchor="start" x="164.5" y="-250" font-family="Helvetica,sans-Serif" font-size="10.00" fill="#000000">+ ~AnalysisCompositeCut()</text>
<text text-anchor="start" x="164.5" y="-239" font-family="Helvetica,sans-Serif" font-size="10.00" fill="#000000">+ AddCut()</text>
<text text-anchor="start" x="164.5" y="-228" font-family="Helvetica,sans-Serif" font-size="10.00" fill="#000000">+ GetUseAND()</text>
<text text-anchor="start" x="164.5" y="-217" font-family="Helvetica,sans-Serif" font-size="10.00" fill="#000000">+ GetNCuts()</text>
<text text-anchor="start" x="164.5" y="-206" font-family="Helvetica,sans-Serif" font-size="10.00" fill="#000000">+ IsSelected()</text>
<text text-anchor="start" x="164.5" y="-195" font-family="Helvetica,sans-Serif" font-size="10.00" fill="#000000"># AnalysisCompositeCut()</text>
<text text-anchor="start" x="164.5" y="-184" font-family="Helvetica,sans-Serif" font-size="10.00" fill="#000000"># operator=()</text>
<text text-anchor="start" x="164.5" y="-173" font-family="Helvetica,sans-Serif" font-size="10.00" fill="#000000"># ClassDef()</text>
</a>
</g>
</g>
<!-- Node2&#45;&gt;Node1 -->
<g id="edge1" class="edge">
<title>Node2&#45;&gt;Node1</title>
<path fill="none" stroke="#404040" d="M281.7367,-165.7009C294.9799,-146.412 309.9922,-126.3322 325.5,-109 328.4384,-105.7159 331.5444,-102.4431 334.7535,-99.2132"/>
<polygon fill="none" stroke="#404040" points="334.8297,-99.1394 336.3526,-92.0909 343.4447,-90.7858 341.9217,-97.8343 334.8297,-99.1394"/>
<text text-anchor="middle" x="355.5" y="-134" font-family="Helvetica,sans-Serif" font-size="10.00" fill="#000000"> +fEventCut</text>
<text text-anchor="middle" x="355.5" y="-123" font-family="Helvetica,sans-Serif" font-size="10.00" fill="#000000">+fMuonCut</text>
<text text-anchor="middle" x="355.5" y="-112" font-family="Helvetica,sans-Serif" font-size="10.00" fill="#000000">+fTrackCut</text>
</g>
<!-- Node3 -->
<g id="node3" class="node">
<title>Node3</title>
<g id="a_node3"><a xlink:href="../../de/df4/classAnalysisCut.html" target="_top" xlink:title="{AnalysisCut\n||+ AnalysisCut()\l+ AnalysisCut()\l+ AnalysisCut()\l+ operator=()\l+ ~AnalysisCut()\l+ AddCut()\l+ IsSelected()\l# ClassDef()\l}">
<polygon fill="none" stroke="#000000" points="0,-419.5 0,-553.5 101,-553.5 101,-419.5 0,-419.5"/>
<text text-anchor="middle" x="50.5" y="-541.5" font-family="Helvetica,sans-Serif" font-size="10.00" fill="#000000">AnalysisCut</text>
<polyline fill="none" stroke="#000000" points="0,-534.5 101,-534.5 "/>
<text text-anchor="middle" x="50.5" y="-522.5" font-family="Helvetica,sans-Serif" font-size="10.00" fill="#000000"> </text>
<polyline fill="none" stroke="#000000" points="0,-515.5 101,-515.5 "/>
<text text-anchor="start" x="8" y="-503.5" font-family="Helvetica,sans-Serif" font-size="10.00" fill="#000000">+ AnalysisCut()</text>
<text text-anchor="start" x="8" y="-492.5" font-family="Helvetica,sans-Serif" font-size="10.00" fill="#000000">+ AnalysisCut()</text>
<text text-anchor="start" x="8" y="-481.5" font-family="Helvetica,sans-Serif" font-size="10.00" fill="#000000">+ AnalysisCut()</text>
<text text-anchor="start" x="8" y="-470.5" font-family="Helvetica,sans-Serif" font-size="10.00" fill="#000000">+ operator=()</text>
<text text-anchor="start" x="8" y="-459.5" font-family="Helvetica,sans-Serif" font-size="10.00" fill="#000000">+ ~AnalysisCut()</text>
<text text-anchor="start" x="8" y="-448.5" font-family="Helvetica,sans-Serif" font-size="10.00" fill="#000000">+ AddCut()</text>
<text text-anchor="start" x="8" y="-437.5" font-family="Helvetica,sans-Serif" font-size="10.00" fill="#000000">+ IsSelected()</text>
<text text-anchor="start" x="8" y="-426.5" font-family="Helvetica,sans-Serif" font-size="10.00" fill="#000000"># ClassDef()</text>
</a>
</g>
</g>
<!-- Node3&#45;&gt;Node2 -->
<g id="edge2" class="edge">
<title>Node3&#45;&gt;Node2</title>
<path fill="none" stroke="#191970" d="M107.4592,-411.0213C128.7932,-382.7508 153.0635,-350.5894 174.5721,-322.0875"/>
<polygon fill="none" stroke="#191970" points="104.4626,-409.1818 101.2327,-419.2723 110.0502,-413.3984 104.4626,-409.1818"/>
</g>
<!-- Node4 -->
<g id="node4" class="node">
<title>Node4</title>
<polygon fill="none" stroke="#bfbfbf" points="2.5,-640 2.5,-697 60.5,-697 60.5,-640 2.5,-640"/>
<text text-anchor="middle" x="31.5" y="-685" font-family="Helvetica,sans-Serif" font-size="10.00" fill="#000000">TNamed</text>
<polyline fill="none" stroke="#bfbfbf" points="2.5,-678 60.5,-678 "/>
<text text-anchor="middle" x="31.5" y="-666" font-family="Helvetica,sans-Serif" font-size="10.00" fill="#000000"> </text>
<polyline fill="none" stroke="#bfbfbf" points="2.5,-659 60.5,-659 "/>
<text text-anchor="middle" x="31.5" y="-647" font-family="Helvetica,sans-Serif" font-size="10.00" fill="#000000"> </text>
</g>
<!-- Node4&#45;&gt;Node3 -->
<g id="edge3" class="edge">
<title>Node4&#45;&gt;Node3</title>
<path fill="none" stroke="#191970" d="M35.5537,-629.6696C37.8593,-607.5842 40.8113,-579.3078 43.4818,-553.7268"/>
<polygon fill="none" stroke="#191970" points="32.0679,-629.3522 34.5106,-639.6616 39.0301,-630.0791 32.0679,-629.3522"/>
</g>
<!-- Node5 -->
<g id="node5" class="node">
<title>Node5</title>
<polygon fill="none" stroke="#bfbfbf" points="78.5,-634.5 78.5,-702.5 194.5,-702.5 194.5,-634.5 78.5,-634.5"/>
<text text-anchor="start" x="86.5" y="-690.5" font-family="Helvetica,sans-Serif" font-size="10.00" fill="#000000">vector&lt; AnalysisCut</text>
<text text-anchor="middle" x="136.5" y="-679.5" font-family="Helvetica,sans-Serif" font-size="10.00" fill="#000000">::CutContainer &gt;</text>
<polyline fill="none" stroke="#bfbfbf" points="78.5,-672.5 194.5,-672.5 "/>
<text text-anchor="middle" x="136.5" y="-660.5" font-family="Helvetica,sans-Serif" font-size="10.00" fill="#000000"> </text>
<polyline fill="none" stroke="#bfbfbf" points="78.5,-653.5 194.5,-653.5 "/>
<text text-anchor="middle" x="136.5" y="-641.5" font-family="Helvetica,sans-Serif" font-size="10.00" fill="#000000"> </text>
</g>
<!-- Node5&#45;&gt;Node3 -->
<g id="edge4" class="edge">
<title>Node5&#45;&gt;Node3</title>
<path fill="none" stroke="#404040" d="M120.3241,-634.2672C111.0413,-614.6223 98.9817,-589.1008 87.5035,-564.8097"/>
<polygon fill="none" stroke="#404040" points="87.4095,-564.6108 81.2295,-560.8949 82.2827,-553.7611 88.4627,-557.477 87.4095,-564.6108"/>
<text text-anchor="middle" x="120" y="-586" font-family="Helvetica,sans-Serif" font-size="10.00" fill="#000000"> #fCuts</text>
</g>
<!-- Node6 -->
<g id="node6" class="node">
<title>Node6</title>
<polygon fill="none" stroke="#bfbfbf" points="113,-789 113,-846 160,-846 160,-789 113,-789"/>
<text text-anchor="middle" x="136.5" y="-834" font-family="Helvetica,sans-Serif" font-size="10.00" fill="#000000">vector</text>
<polyline fill="none" stroke="#bfbfbf" points="113,-827 160,-827 "/>
<text text-anchor="middle" x="136.5" y="-815" font-family="Helvetica,sans-Serif" font-size="10.00" fill="#000000"> </text>
<polyline fill="none" stroke="#bfbfbf" points="113,-808 160,-808 "/>
<text text-anchor="middle" x="136.5" y="-796" font-family="Helvetica,sans-Serif" font-size="10.00" fill="#000000"> </text>
</g>
<!-- Node6&#45;&gt;Node5 -->
<g id="edge5" class="edge">
<title>Node6&#45;&gt;Node5</title>
<path fill="none" stroke="#ffa500" d="M136.5,-778.7559C136.5,-755.1705 136.5,-725.3175 136.5,-702.6252"/>
<polygon fill="#ffa500" stroke="#ffa500" points="133.0001,-778.7713 136.5,-788.7713 140.0001,-778.7713 133.0001,-778.7713"/>
<text text-anchor="middle" x="213.5" y="-746" font-family="Helvetica,sans-Serif" font-size="10.00" fill="#000000"> &lt; AnalysisCut::CutContainer &gt;</text>
</g>
<!-- Node7 -->
<g id="node7" class="node">
<title>Node7</title>
<polygon fill="none" stroke="#bfbfbf" points="287.5,-640 287.5,-697 331.5,-697 331.5,-640 287.5,-640"/>
<text text-anchor="middle" x="309.5" y="-685" font-family="Helvetica,sans-Serif" font-size="10.00" fill="#000000">static</text>
<polyline fill="none" stroke="#bfbfbf" points="287.5,-678 331.5,-678 "/>
<text text-anchor="middle" x="309.5" y="-666" font-family="Helvetica,sans-Serif" font-size="10.00" fill="#000000"> </text>
<polyline fill="none" stroke="#bfbfbf" points="287.5,-659 331.5,-659 "/>
<text text-anchor="middle" x="309.5" y="-647" font-family="Helvetica,sans-Serif" font-size="10.00" fill="#000000"> </text>
</g>
<!-- Node7&#45;&gt;Node1 -->
<g id="edge26" class="edge">
<title>Node7&#45;&gt;Node1</title>
<path fill="none" stroke="#404040" d="M331.8604,-646.6193C350.1063,-627.1314 374.5869,-596.8441 385.5,-565 440.4084,-404.7785 422.3176,-200.1939 408.7615,-102.4603"/>
<polygon fill="none" stroke="#404040" points="408.7526,-102.3974 403.9431,-97.0244 407.0531,-90.5184 411.8625,-95.8914 408.7526,-102.3974"/>
<text text-anchor="middle" x="475.5" y="-382" font-family="Helvetica,sans-Serif" font-size="10.00" fill="#000000"> +fgMuonFillMap</text>
<text text-anchor="middle" x="475.5" y="-371" font-family="Helvetica,sans-Serif" font-size="10.00" fill="#000000">+fgTrackFillMap</text>
<text text-anchor="middle" x="475.5" y="-360" font-family="Helvetica,sans-Serif" font-size="10.00" fill="#000000">+fgEventFillMap</text>
<text text-anchor="middle" x="475.5" y="-349" font-family="Helvetica,sans-Serif" font-size="10.00" fill="#000000">+fgEventMuonFillMap</text>
</g>
<!-- Node7&#45;&gt;Node3 -->
<g id="edge6" class="edge">
<title>Node7&#45;&gt;Node3</title>
<path fill="none" stroke="#404040" d="M287.2407,-656.4541C265.8429,-644.9175 232.5583,-627.0847 203.5,-612 193.2241,-606.6656 119.4068,-572.3971 110.5,-565 109.3124,-564.0137 108.1341,-562.9997 106.9659,-561.9611"/>
<polygon fill="none" stroke="#404040" points="106.8815,-561.8801 99.7827,-560.6122 98.2228,-553.5719 105.3216,-554.8398 106.8815,-561.8801"/>
<text text-anchor="middle" x="198" y="-586" font-family="Helvetica,sans-Serif" font-size="10.00" fill="#000000"> +fgUsedVars</text>
</g>
<!-- Node8 -->
<g id="node8" class="node">
<title>Node8</title>
<polygon fill="none" stroke="#bfbfbf" points="119.5,-458 119.5,-515 247.5,-515 247.5,-458 119.5,-458"/>
<text text-anchor="middle" x="183.5" y="-503" font-family="Helvetica,sans-Serif" font-size="10.00" fill="#000000">vector&lt; AnalysisCut &gt;</text>
<polyline fill="none" stroke="#bfbfbf" points="119.5,-496 247.5,-496 "/>
<text text-anchor="middle" x="183.5" y="-484" font-family="Helvetica,sans-Serif" font-size="10.00" fill="#000000"> </text>
<polyline fill="none" stroke="#bfbfbf" points="119.5,-477 247.5,-477 "/>
<text text-anchor="middle" x="183.5" y="-465" font-family="Helvetica,sans-Serif" font-size="10.00" fill="#000000"> </text>
</g>
<!-- Node8&#45;&gt;Node2 -->
<g id="edge7" class="edge">
<title>Node8&#45;&gt;Node2</title>
<path fill="none" stroke="#404040" d="M189.432,-457.7298C195.7113,-427.275 205.9421,-377.6559 214.966,-333.89"/>
<polygon fill="none" stroke="#404040" points="214.9903,-333.7717 212.2844,-327.0876 217.4136,-322.0189 220.1195,-328.7031 214.9903,-333.7717"/>
<text text-anchor="middle" x="236" y="-365.5" font-family="Helvetica,sans-Serif" font-size="10.00" fill="#000000"> #fCutList</text>
</g>
<!-- Node9 -->
<g id="node9" class="node">
<title>Node9</title>
<polygon fill="none" stroke="#bfbfbf" points="501.5,-640 501.5,-697 539.5,-697 539.5,-640 501.5,-640"/>
<text text-anchor="middle" x="520.5" y="-685" font-family="Helvetica,sans-Serif" font-size="10.00" fill="#000000">bool</text>
<polyline fill="none" stroke="#bfbfbf" points="501.5,-678 539.5,-678 "/>
<text text-anchor="middle" x="520.5" y="-666" font-family="Helvetica,sans-Serif" font-size="10.00" fill="#000000"> </text>
<polyline fill="none" stroke="#bfbfbf" points="501.5,-659 539.5,-659 "/>
<text text-anchor="middle" x="520.5" y="-647" font-family="Helvetica,sans-Serif" font-size="10.00" fill="#000000"> </text>
</g>
<!-- Node9&#45;&gt;Node2 -->
<g id="edge8" class="edge">
<title>Node9&#45;&gt;Node2</title>
<path fill="none" stroke="#404040" d="M501.2633,-653.5628C477.8333,-634.7049 437.9873,-600.426 410.5,-565 354.3282,-492.605 305.3511,-400.1012 273.2447,-333.0098"/>
<polygon fill="none" stroke="#404040" points="273.1876,-332.8893 267.0009,-329.1846 268.0412,-322.0489 274.2279,-325.7536 273.1876,-332.8893"/>
<text text-anchor="middle" x="454.5" y="-484" font-family="Helvetica,sans-Serif" font-size="10.00" fill="#000000"> #fOptionUseAND</text>
</g>
<!-- Node10 -->
<g id="node10" class="node">
<title>Node10</title>
<g id="a_node10"><a xlink:href="../../d4/d79/structo2_1_1framework_1_1OutputObj.html" target="_top" xlink:title="{o2::framework::OutputObj\l\&lt; HistogramManager \&gt;\n||+ spec()\l+ OutputObj()\l+ OutputObj()\l+ setObject()\l+ setObject()\l+ setObject()\l+ setHash()\l+ operator&#45;\&gt;()\l+ operator*()\l+ ref()\l}">
<polygon fill="none" stroke="#000000" points="780,-160.5 780,-327.5 923,-327.5 923,-160.5 780,-160.5"/>
<text text-anchor="start" x="788" y="-315.5" font-family="Helvetica,sans-Serif" font-size="10.00" fill="#000000">o2::framework::OutputObj</text>
<text text-anchor="middle" x="851.5" y="-304.5" font-family="Helvetica,sans-Serif" font-size="10.00" fill="#000000">&lt; HistogramManager &gt;</text>
<polyline fill="none" stroke="#000000" points="780,-297.5 923,-297.5 "/>
<text text-anchor="middle" x="851.5" y="-285.5" font-family="Helvetica,sans-Serif" font-size="10.00" fill="#000000"> </text>
<polyline fill="none" stroke="#000000" points="780,-278.5 923,-278.5 "/>
<text text-anchor="start" x="788" y="-266.5" font-family="Helvetica,sans-Serif" font-size="10.00" fill="#000000">+ spec()</text>
<text text-anchor="start" x="788" y="-255.5" font-family="Helvetica,sans-Serif" font-size="10.00" fill="#000000">+ OutputObj()</text>
<text text-anchor="start" x="788" y="-244.5" font-family="Helvetica,sans-Serif" font-size="10.00" fill="#000000">+ OutputObj()</text>
<text text-anchor="start" x="788" y="-233.5" font-family="Helvetica,sans-Serif" font-size="10.00" fill="#000000">+ setObject()</text>
<text text-anchor="start" x="788" y="-222.5" font-family="Helvetica,sans-Serif" font-size="10.00" fill="#000000">+ setObject()</text>
<text text-anchor="start" x="788" y="-211.5" font-family="Helvetica,sans-Serif" font-size="10.00" fill="#000000">+ setObject()</text>
<text text-anchor="start" x="788" y="-200.5" font-family="Helvetica,sans-Serif" font-size="10.00" fill="#000000">+ setHash()</text>
<text text-anchor="start" x="788" y="-189.5" font-family="Helvetica,sans-Serif" font-size="10.00" fill="#000000">+ operator&#45;&gt;()</text>
<text text-anchor="start" x="788" y="-178.5" font-family="Helvetica,sans-Serif" font-size="10.00" fill="#000000">+ operator*()</text>
<text text-anchor="start" x="788" y="-167.5" font-family="Helvetica,sans-Serif" font-size="10.00" fill="#000000">+ ref()</text>
</a>
</g>
</g>
<!-- Node9&#45;&gt;Node10 -->
<g id="edge14" class="edge">
<title>Node9&#45;&gt;Node10</title>
<path fill="none" stroke="#404040" d="M512.7759,-639.9443C500.7259,-588.8873 483.3104,-480.5196 529.5,-408 582.3652,-324.9994 691.3367,-282.1409 767.8112,-261.3936"/>
<polygon fill="none" stroke="#404040" points="768.185,-261.2956 772.9738,-255.9041 779.7923,-258.2508 775.0036,-263.6423 768.185,-261.2956"/>
<text text-anchor="middle" x="560.5" y="-484" font-family="Helvetica,sans-Serif" font-size="10.00" fill="#000000"> +isdangling</text>
</g>
<!-- Node18 -->
<g id="node18" class="node">
<title>Node18</title>
<g id="a_node18"><a xlink:href="../../d4/d79/structo2_1_1framework_1_1OutputObj.html" target="_top" xlink:title="{o2::framework::OutputObj\&lt; T \&gt;\n||+ OutputObj()\l+ OutputObj()\l+ setObject()\l+ setObject()\l+ setObject()\l+ setHash()\l+ spec()\l+ operator&#45;\&gt;()\l+ operator*()\l+ ref()\l}">
<polygon fill="none" stroke="#000000" points="1019.5,-408.5 1019.5,-564.5 1191.5,-564.5 1191.5,-408.5 1019.5,-408.5"/>
<text text-anchor="middle" x="1105.5" y="-552.5" font-family="Helvetica,sans-Serif" font-size="10.00" fill="#000000">o2::framework::OutputObj&lt; T &gt;</text>
<polyline fill="none" stroke="#000000" points="1019.5,-545.5 1191.5,-545.5 "/>
<text text-anchor="middle" x="1105.5" y="-533.5" font-family="Helvetica,sans-Serif" font-size="10.00" fill="#000000"> </text>
<polyline fill="none" stroke="#000000" points="1019.5,-526.5 1191.5,-526.5 "/>
<text text-anchor="start" x="1027.5" y="-514.5" font-family="Helvetica,sans-Serif" font-size="10.00" fill="#000000">+ OutputObj()</text>
<text text-anchor="start" x="1027.5" y="-503.5" font-family="Helvetica,sans-Serif" font-size="10.00" fill="#000000">+ OutputObj()</text>
<text text-anchor="start" x="1027.5" y="-492.5" font-family="Helvetica,sans-Serif" font-size="10.00" fill="#000000">+ setObject()</text>
<text text-anchor="start" x="1027.5" y="-481.5" font-family="Helvetica,sans-Serif" font-size="10.00" fill="#000000">+ setObject()</text>
<text text-anchor="start" x="1027.5" y="-470.5" font-family="Helvetica,sans-Serif" font-size="10.00" fill="#000000">+ setObject()</text>
<text text-anchor="start" x="1027.5" y="-459.5" font-family="Helvetica,sans-Serif" font-size="10.00" fill="#000000">+ setHash()</text>
<text text-anchor="start" x="1027.5" y="-448.5" font-family="Helvetica,sans-Serif" font-size="10.00" fill="#000000">+ spec()</text>
<text text-anchor="start" x="1027.5" y="-437.5" font-family="Helvetica,sans-Serif" font-size="10.00" fill="#000000">+ operator&#45;&gt;()</text>
<text text-anchor="start" x="1027.5" y="-426.5" font-family="Helvetica,sans-Serif" font-size="10.00" fill="#000000">+ operator*()</text>
<text text-anchor="start" x="1027.5" y="-415.5" font-family="Helvetica,sans-Serif" font-size="10.00" fill="#000000">+ ref()</text>
</a>
</g>
</g>
<!-- Node9&#45;&gt;Node18 -->
<g id="edge24" class="edge">
<title>Node9&#45;&gt;Node18</title>
<path fill="none" stroke="#404040" d="M539.7271,-662.5417C573.0602,-652.2171 643.7416,-630.346 703.5,-612 745.7017,-599.044 755.1614,-591.4027 798.5,-583 889.1589,-565.4227 919.6086,-598.9216 1005.5,-565 1006.366,-564.658 1007.2307,-564.3059 1008.0938,-563.9442"/>
<polygon fill="none" stroke="#404040" points="1008.3437,-563.8271 1012.0792,-557.6589 1019.2096,-558.7346 1015.4741,-564.9028 1008.3437,-563.8271"/>
<text text-anchor="middle" x="829.5" y="-586" font-family="Helvetica,sans-Serif" font-size="10.00" fill="#000000"> +isdangling</text>
</g>
<!-- Node10&#45;&gt;Node1 -->
<g id="edge9" class="edge">
<title>Node10&#45;&gt;Node1</title>
<path fill="none" stroke="#404040" d="M779.8793,-212.5471C695.783,-175.6154 557.058,-114.693 472.4086,-77.5185"/>
<polygon fill="none" stroke="#404040" points="472.3309,-77.4844 465.2289,-78.7342 461.3437,-72.6592 468.4457,-71.4094 472.3309,-77.4844"/>
<text text-anchor="middle" x="640" y="-123" font-family="Helvetica,sans-Serif" font-size="10.00" fill="#000000"> +fHistMan</text>
</g>
<!-- Node11 -->
<g id="node11" class="node">
<title>Node11</title>
<polygon fill="none" stroke="#bfbfbf" points="600.5,-458 600.5,-515 784.5,-515 784.5,-458 600.5,-458"/>
<text text-anchor="middle" x="692.5" y="-503" font-family="Helvetica,sans-Serif" font-size="10.00" fill="#000000">shared_ptr&lt; HistogramManager &gt;</text>
<polyline fill="none" stroke="#bfbfbf" points="600.5,-496 784.5,-496 "/>
<text text-anchor="middle" x="692.5" y="-484" font-family="Helvetica,sans-Serif" font-size="10.00" fill="#000000"> </text>
<polyline fill="none" stroke="#bfbfbf" points="600.5,-477 784.5,-477 "/>
<text text-anchor="middle" x="692.5" y="-465" font-family="Helvetica,sans-Serif" font-size="10.00" fill="#000000"> </text>
</g>
<!-- Node11&#45;&gt;Node10 -->
<g id="edge10" class="edge">
<title>Node11&#45;&gt;Node10</title>
<path fill="none" stroke="#404040" d="M704.7455,-457.9649C717.8041,-428.7875 739.9533,-382.6707 764.5,-346 767.1197,-342.0863 769.8689,-338.1541 772.7106,-334.2307"/>
<polygon fill="none" stroke="#404040" points="772.7792,-334.1385 773.1528,-326.937 779.9439,-324.5121 779.5704,-331.7135 772.7792,-334.1385"/>
<text text-anchor="middle" x="785.5" y="-365.5" font-family="Helvetica,sans-Serif" font-size="10.00" fill="#000000"> +object</text>
</g>
<!-- Node12 -->
<g id="node12" class="node">
<title>Node12</title>
<polygon fill="none" stroke="#bfbfbf" points="1240,-640 1240,-697 1379,-697 1379,-640 1240,-640"/>
<text text-anchor="middle" x="1309.5" y="-685" font-family="Helvetica,sans-Serif" font-size="10.00" fill="#000000">OutputObjHandlingPolicy</text>
<polyline fill="none" stroke="#bfbfbf" points="1240,-678 1379,-678 "/>
<text text-anchor="middle" x="1309.5" y="-666" font-family="Helvetica,sans-Serif" font-size="10.00" fill="#000000"> </text>
<polyline fill="none" stroke="#bfbfbf" points="1240,-659 1379,-659 "/>
<text text-anchor="middle" x="1309.5" y="-647" font-family="Helvetica,sans-Serif" font-size="10.00" fill="#000000"> </text>
</g>
<!-- Node12&#45;&gt;Node10 -->
<g id="edge11" class="edge">
<title>Node12&#45;&gt;Node10</title>
<path fill="none" stroke="#404040" d="M1302.5082,-639.9673C1289.1044,-589.4137 1256.085,-482.4394 1200.5,-408 1136.3618,-322.1061 1015.9177,-279.5009 934.6983,-259.6359"/>
<polygon fill="none" stroke="#404040" points="934.688,-259.6335 927.9275,-262.1428 923.0111,-256.8675 929.7715,-254.3582 934.688,-259.6335"/>
<text text-anchor="middle" x="1298" y="-484" font-family="Helvetica,sans-Serif" font-size="10.00" fill="#000000"> +policy</text>
</g>
<!-- Node12&#45;&gt;Node18 -->
<g id="edge21" class="edge">
<title>Node12&#45;&gt;Node18</title>
<path fill="none" stroke="#404040" d="M1277.1756,-639.6616C1256.4833,-621.2008 1228.4628,-596.2021 1201.064,-571.7581"/>
<polygon fill="none" stroke="#404040" points="1200.762,-571.4887 1193.6219,-570.4791 1191.8076,-563.4999 1198.9477,-564.5095 1200.762,-571.4887"/>
<text text-anchor="middle" x="1246" y="-586" font-family="Helvetica,sans-Serif" font-size="10.00" fill="#000000"> +policy</text>
</g>
<!-- Node13 -->
<g id="node13" class="node">
<title>Node13</title>
<g id="a_node13"><a xlink:href="../../d3/d87/classuint32__t.html" target="_top" xlink:title="{uint32_t\n||}">
<polygon fill="none" stroke="#000000" points="961.5,-640 961.5,-697 1017.5,-697 1017.5,-640 961.5,-640"/>
<text text-anchor="middle" x="989.5" y="-685" font-family="Helvetica,sans-Serif" font-size="10.00" fill="#000000">uint32_t</text>
<polyline fill="none" stroke="#000000" points="961.5,-678 1017.5,-678 "/>
<text text-anchor="middle" x="989.5" y="-666" font-family="Helvetica,sans-Serif" font-size="10.00" fill="#000000"> </text>
<polyline fill="none" stroke="#000000" points="961.5,-659 1017.5,-659 "/>
<text text-anchor="middle" x="989.5" y="-647" font-family="Helvetica,sans-Serif" font-size="10.00" fill="#000000"> </text>
</a>
</g>
</g>
<!-- Node13&#45;&gt;Node10 -->
<g id="edge12" class="edge">
<title>Node13&#45;&gt;Node10</title>
<path fill="none" stroke="#404040" d="M974.3347,-639.7521C964.1062,-619.3594 950.9785,-591.088 942.5,-565 911.7595,-470.4126 926.96,-440.6781 896.5,-346 895.7359,-343.6249 894.9346,-341.2304 894.1019,-338.8244"/>
<polygon fill="none" stroke="#404040" points="894.0899,-338.7913 888.2831,-334.5156 889.9965,-327.511 895.8033,-331.7867 894.0899,-338.7913"/>
<text text-anchor="middle" x="976.5" y="-484" font-family="Helvetica,sans-Serif" font-size="10.00" fill="#000000"> +mTaskHash</text>
</g>
<!-- Node13&#45;&gt;Node18 -->
<g id="edge20" class="edge">
<title>Node13&#45;&gt;Node18</title>
<path fill="none" stroke="#404040" d="M998.7545,-639.7224C1004.8615,-622.6167 1013.7186,-600.8474 1024.5,-583 1026.1912,-580.2005 1027.9611,-577.3987 1029.7949,-574.6046"/>
<polygon fill="none" stroke="#404040" points="1029.9076,-574.44 1029.9968,-567.2294 1036.687,-564.5384 1036.5978,-571.749 1029.9076,-574.44"/>
<text text-anchor="middle" x="1058.5" y="-586" font-family="Helvetica,sans-Serif" font-size="10.00" fill="#000000"> +mTaskHash</text>
</g>
<!-- Node14 -->
<g id="node14" class="node">
<title>Node14</title>
<polygon fill="none" stroke="#bfbfbf" points="868,-789 868,-846 897,-846 897,-789 868,-789"/>
<text text-anchor="middle" x="882.5" y="-834" font-family="Helvetica,sans-Serif" font-size="10.00" fill="#000000">int</text>
<polyline fill="none" stroke="#bfbfbf" points="868,-827 897,-827 "/>
<text text-anchor="middle" x="882.5" y="-815" font-family="Helvetica,sans-Serif" font-size="10.00" fill="#000000"> </text>
<polyline fill="none" stroke="#bfbfbf" points="868,-808 897,-808 "/>
<text text-anchor="middle" x="882.5" y="-796" font-family="Helvetica,sans-Serif" font-size="10.00" fill="#000000"> </text>
</g>
<!-- Node14&#45;&gt;Node10 -->
<g id="edge13" class="edge">
<title>Node14&#45;&gt;Node10</title>
<path fill="none" stroke="#404040" d="M882.1988,-788.6694C881.35,-721.7371 878.3197,-550.6443 868.5,-408 866.9823,-385.953 864.8339,-362.2882 862.5732,-339.9866"/>
<polygon fill="none" stroke="#404040" points="862.5429,-339.6924 857.9471,-334.1355 861.309,-327.756 865.9047,-333.3129 862.5429,-339.6924"/>
<text text-anchor="middle" x="896.5" y="-586" font-family="Helvetica,sans-Serif" font-size="10.00" fill="#000000"> +label</text>
</g>
<!-- Node15 -->
<g id="node15" class="node">
<title>Node15</title>
<g id="a_node15"><a xlink:href="../../da/d96/structo2_1_1framework_1_1InputSpec.html" target="_top" xlink:title="{o2::framework::InputSpec\n||+ InputSpec()\l+ InputSpec()\l+ InputSpec()\l+ InputSpec()\l+ InputSpec()\l+ operator==()\l}">
<polygon fill="none" stroke="#000000" points="712.5,-612.5 712.5,-724.5 854.5,-724.5 854.5,-612.5 712.5,-612.5"/>
<text text-anchor="middle" x="783.5" y="-712.5" font-family="Helvetica,sans-Serif" font-size="10.00" fill="#000000">o2::framework::InputSpec</text>
<polyline fill="none" stroke="#000000" points="712.5,-705.5 854.5,-705.5 "/>
<text text-anchor="middle" x="783.5" y="-693.5" font-family="Helvetica,sans-Serif" font-size="10.00" fill="#000000"> </text>
<polyline fill="none" stroke="#000000" points="712.5,-686.5 854.5,-686.5 "/>
<text text-anchor="start" x="720.5" y="-674.5" font-family="Helvetica,sans-Serif" font-size="10.00" fill="#000000">+ InputSpec()</text>
<text text-anchor="start" x="720.5" y="-663.5" font-family="Helvetica,sans-Serif" font-size="10.00" fill="#000000">+ InputSpec()</text>
<text text-anchor="start" x="720.5" y="-652.5" font-family="Helvetica,sans-Serif" font-size="10.00" fill="#000000">+ InputSpec()</text>
<text text-anchor="start" x="720.5" y="-641.5" font-family="Helvetica,sans-Serif" font-size="10.00" fill="#000000">+ InputSpec()</text>
<text text-anchor="start" x="720.5" y="-630.5" font-family="Helvetica,sans-Serif" font-size="10.00" fill="#000000">+ InputSpec()</text>
<text text-anchor="start" x="720.5" y="-619.5" font-family="Helvetica,sans-Serif" font-size="10.00" fill="#000000">+ operator==()</text>
</a>
</g>
</g>
<!-- Node14&#45;&gt;Node15 -->
<g id="edge18" class="edge">
<title>Node14&#45;&gt;Node15</title>
<path fill="none" stroke="#404040" d="M867.8285,-803.6856C851.8681,-788.4511 827.6678,-764.6837 820.5,-754 816.6323,-748.235 813.0214,-741.9997 809.6899,-735.6139"/>
<polygon fill="none" stroke="#404040" points="809.656,-735.545 803.4157,-731.9314 804.3512,-724.7812 810.5915,-728.3948 809.656,-735.545"/>
<text text-anchor="middle" x="844.5" y="-746" font-family="Helvetica,sans-Serif" font-size="10.00" fill="#000000"> +binding</text>
</g>
<!-- Node14&#45;&gt;Node18 -->
<g id="edge22" class="edge">
<title>Node14&#45;&gt;Node18</title>
<path fill="none" stroke="#404040" d="M897.038,-811.4584C925.334,-799.0607 988.3691,-768.2306 1026.5,-725 1063.3198,-683.2559 1052.9926,-660.3902 1080.5,-612 1085.2515,-603.6413 1089.1654,-603.018 1092.5,-594 1094.5324,-588.5037 1096.2625,-582.752 1097.734,-576.8886"/>
<polygon fill="none" stroke="#404040" points="1097.8276,-576.4625 1095.2095,-569.7434 1100.4048,-564.7425 1103.0229,-571.4616 1097.8276,-576.4625"/>
<text text-anchor="middle" x="1098.5" y="-666" font-family="Helvetica,sans-Serif" font-size="10.00" fill="#000000"> +label</text>
</g>
<!-- Node15&#45;&gt;Node10 -->
<g id="edge15" class="edge">
<title>Node15&#45;&gt;Node10</title>
<path fill="none" stroke="#404040" d="M801.9856,-612.2286C803.6602,-606.1149 805.2084,-599.9529 806.5,-594 816.6889,-547.0397 831.2881,-426.2074 841.0667,-339.6712"/>
<polygon fill="none" stroke="#404040" points="841.0719,-339.6242 837.7678,-333.2146 842.4135,-327.6994 845.7176,-334.109 841.0719,-339.6242"/>
<text text-anchor="middle" x="850.5" y="-484" font-family="Helvetica,sans-Serif" font-size="10.00" fill="#000000"> +spec</text>
</g>
<!-- Node15&#45;&gt;Node18 -->
<g id="edge25" class="edge">
<title>Node15&#45;&gt;Node18</title>
<path fill="none" stroke="#404040" d="M854.6251,-640.2836C899.2714,-621.3845 957.3096,-594.605 1005.5,-565 1006.6519,-564.2924 1007.8059,-563.5737 1008.9612,-562.8448"/>
<polygon fill="none" stroke="#404040" points="1009.3315,-562.6028 1012.1649,-555.9716 1019.3758,-556.0366 1016.5424,-562.6678 1009.3315,-562.6028"/>
<text text-anchor="middle" x="988.5" y="-586" font-family="Helvetica,sans-Serif" font-size="10.00" fill="#000000"> +spec</text>
</g>
<!-- Node16 -->
<g id="node16" class="node">
<title>Node16</title>
<polygon fill="none" stroke="#bfbfbf" points="556.5,-789 556.5,-846 644.5,-846 644.5,-789 556.5,-789"/>
<text text-anchor="middle" x="600.5" y="-834" font-family="Helvetica,sans-Serif" font-size="10.00" fill="#000000">enum Lifetime</text>
<polyline fill="none" stroke="#bfbfbf" points="556.5,-827 644.5,-827 "/>
<text text-anchor="middle" x="600.5" y="-815" font-family="Helvetica,sans-Serif" font-size="10.00" fill="#000000"> </text>
<polyline fill="none" stroke="#bfbfbf" points="556.5,-808 644.5,-808 "/>
<text text-anchor="middle" x="600.5" y="-796" font-family="Helvetica,sans-Serif" font-size="10.00" fill="#000000"> </text>
</g>
<!-- Node16&#45;&gt;Node15 -->
<g id="edge16" class="edge">
<title>Node16&#45;&gt;Node15</title>
<path fill="none" stroke="#404040" d="M633.4183,-788.9121C640.0307,-783.2625 646.9578,-777.4094 653.5,-772 669.2976,-758.9378 686.3407,-745.1532 702.7209,-732.0534"/>
<polygon fill="none" stroke="#404040" points="702.8944,-731.915 705.0894,-725.046 712.2742,-724.4303 710.0792,-731.2992 702.8944,-731.915"/>
<text text-anchor="middle" x="714.5" y="-746" font-family="Helvetica,sans-Serif" font-size="10.00" fill="#000000"> +lifetime</text>
</g>
<!-- Node17 -->
<g id="node17" class="node">
<title>Node17</title>
<polygon fill="none" stroke="#bfbfbf" points="662.5,-772.5 662.5,-862.5 826.5,-862.5 826.5,-772.5 662.5,-772.5"/>
<text text-anchor="start" x="670.5" y="-850.5" font-family="Helvetica,sans-Serif" font-size="10.00" fill="#000000">variant&lt; o2::framework</text>
<text text-anchor="start" x="670.5" y="-839.5" font-family="Helvetica,sans-Serif" font-size="10.00" fill="#000000">::ConcreteDataMatcher,</text>
<text text-anchor="start" x="670.5" y="-828.5" font-family="Helvetica,sans-Serif" font-size="10.00" fill="#000000"> o2::framework::data_matcher</text>
<text text-anchor="middle" x="744.5" y="-817.5" font-family="Helvetica,sans-Serif" font-size="10.00" fill="#000000">::DataDescriptorMatcher &gt;</text>
<polyline fill="none" stroke="#bfbfbf" points="662.5,-810.5 826.5,-810.5 "/>
<text text-anchor="middle" x="744.5" y="-798.5" font-family="Helvetica,sans-Serif" font-size="10.00" fill="#000000"> </text>
<polyline fill="none" stroke="#bfbfbf" points="662.5,-791.5 826.5,-791.5 "/>
<text text-anchor="middle" x="744.5" y="-779.5" font-family="Helvetica,sans-Serif" font-size="10.00" fill="#000000"> </text>
</g>
<!-- Node17&#45;&gt;Node15 -->
<g id="edge17" class="edge">
<title>Node17&#45;&gt;Node15</title>
<path fill="none" stroke="#404040" d="M741.8117,-772.1654C742.1476,-762.4369 743.201,-752.2919 745.5,-743 746.0623,-740.7273 746.7045,-738.4453 747.4144,-736.1642"/>
<polygon fill="none" stroke="#404040" points="747.4324,-736.1138 745.6846,-729.1177 751.4704,-724.8136 753.2181,-731.8097 747.4324,-736.1138"/>
<text text-anchor="middle" x="771.5" y="-746" font-family="Helvetica,sans-Serif" font-size="10.00" fill="#000000"> +matcher</text>
</g>
<!-- Node18&#45;&gt;Node10 -->
<g id="edge19" class="edge">
<title>Node18&#45;&gt;Node10</title>
<path fill="none" stroke="#ffa500" d="M1016.4636,-401.4948C985.9562,-372.3686 952.2302,-340.1696 923.2651,-312.5159"/>
<polygon fill="#ffa500" stroke="#ffa500" points="1014.0848,-404.0627 1023.7347,-408.4366 1018.9186,-398.9997 1014.0848,-404.0627"/>
<text text-anchor="middle" x="1061" y="-365.5" font-family="Helvetica,sans-Serif" font-size="10.00" fill="#000000"> &lt; HistogramManager &gt;</text>
</g>
<!-- Node19 -->
<g id="node19" class="node">
<title>Node19</title>
<polygon fill="none" stroke="#bfbfbf" points="1125,-640 1125,-697 1222,-697 1222,-640 1125,-640"/>
<text text-anchor="middle" x="1173.5" y="-685" font-family="Helvetica,sans-Serif" font-size="10.00" fill="#000000">shared_ptr&lt; T &gt;</text>
<polyline fill="none" stroke="#bfbfbf" points="1125,-678 1222,-678 "/>
<text text-anchor="middle" x="1173.5" y="-666" font-family="Helvetica,sans-Serif" font-size="10.00" fill="#000000"> </text>
<polyline fill="none" stroke="#bfbfbf" points="1125,-659 1222,-659 "/>
<text text-anchor="middle" x="1173.5" y="-647" font-family="Helvetica,sans-Serif" font-size="10.00" fill="#000000"> </text>
</g>
<!-- Node19&#45;&gt;Node18 -->
<g id="edge23" class="edge">
<title>Node19&#45;&gt;Node18</title>
<path fill="none" stroke="#404040" d="M1162.7252,-639.6616C1156.2242,-622.2618 1147.5532,-599.0541 1138.931,-575.9771"/>
<polygon fill="none" stroke="#404040" points="1138.9119,-575.9259 1133.0649,-571.7054 1134.7119,-564.6849 1140.5589,-568.9054 1138.9119,-575.9259"/>
<text text-anchor="middle" x="1167.5" y="-586" font-family="Helvetica,sans-Serif" font-size="10.00" fill="#000000"> +object</text>
</g>
</g>
</svg>
        <g id="navigator" transform="translate(0 0)" fill="#404254">
                <rect fill="#f2f5e9" fill-opacity="0.5" stroke="#606060" stroke-width=".5" x="0" y="0" width="60" height="60"/>
                <use id="zoomplus" xlink:href="#zoomPlus" x="17" y="9" onmousedown="handleZoom(evt,'in')"/>
                <use id="zoomminus" xlink:href="#zoomMin" x="42" y="9" onmousedown="handleZoom(evt,'out')"/>
                <use id="reset" xlink:href="#resetDef" x="30" y="36" onmousedown="handleReset()"/>
                <g id="arrowUp" xlink:href="#dirArrow" transform="translate(30 24)" onmousedown="handlePan(0,-1)">
                  <use xlink:href="#rim" fill="#404040">
                        <set attributeName="fill" to="#808080" begin="arrowUp.mouseover" end="arrowUp.mouseout"/>
                  </use>
                  <path fill="none" stroke="white" stroke-width="1.5" d="M0,-3.0v7 M-2.5,-0.5L0,-3.0L2.5,-0.5"/>
                </g>
                <g id="arrowRight" xlink:href="#dirArrow" transform="rotate(90) translate(36 -43)" onmousedown="handlePan(1,0)">
                  <use xlink:href="#rim" fill="#404040">
                        <set attributeName="fill" to="#808080" begin="arrowRight.mouseover" end="arrowRight.mouseout"/>
                  </use>
                  <path fill="none" stroke="white" stroke-width="1.5" d="M0,-3.0v7 M-2.5,-0.5L0,-3.0L2.5,-0.5"/>
                </g>
                <g id="arrowDown" xlink:href="#dirArrow" transform="rotate(180) translate(-30 -48)" onmousedown="handlePan(0,1)">
                  <use xlink:href="#rim" fill="#404040">
                        <set attributeName="fill" to="#808080" begin="arrowDown.mouseover" end="arrowDown.mouseout"/>
                  </use>
                  <path fill="none" stroke="white" stroke-width="1.5" d="M0,-3.0v7 M-2.5,-0.5L0,-3.0L2.5,-0.5"/>
                </g>
                <g id="arrowLeft" xlink:href="#dirArrow" transform="rotate(270) translate(-36 17)" onmousedown="handlePan(-1,0)">
                  <use xlink:href="#rim" fill="#404040">
                        <set attributeName="fill" to="#808080" begin="arrowLeft.mouseover" end="arrowLeft.mouseout"/>
                  </use>
                  <path fill="none" stroke="white" stroke-width="1.5" d="M0,-3.0v7 M-2.5,-0.5L0,-3.0L2.5,-0.5"/>
                </g>
        </g>
        <svg viewBox="0 0 15 15" width="100%" height="30px" preserveAspectRatio="xMaxYMin meet">
         <g id="arrow_out" transform="scale(0.3 0.3)">
          <a xlink:href="structTableReader__coll__graph_org.svg" target="_base">
           <rect id="button" ry="5" rx="5" y="6" x="6" height="38" width="38"
                fill="#f2f5e9" fill-opacity="0.5" stroke="#606060" stroke-width="1.0"/>
           <path id="arrow"
             d="M 11.500037,31.436501 C 11.940474,20.09759 22.043105,11.32322 32.158766,21.979434 L 37.068811,17.246167 C 37.068811,17.246167 37.088388,32 37.088388,32 L 22.160133,31.978069 C 22.160133,31.978069 26.997745,27.140456 26.997745,27.140456 C 18.528582,18.264221 13.291696,25.230495 11.500037,31.436501 z"
             style="fill:#404040;"/>
          </a>
         </g>
        </svg>
</svg>
