<?xml version="1.0" encoding="UTF-8" standalone="no"?>
<!DOCTYPE svg PUBLIC "-//W3C//DTD SVG 1.1//EN"
 "http://www.w3.org/Graphics/SVG/1.1/DTD/svg11.dtd">
<!-- Generated by graphviz version 2.40.1 (20161225.0304)
 -->
<!-- Title: o2::framework::PollerContext Pages: 1 -->
<!--zoomable 463 -->
<svg id="main" version="1.1" xmlns="http://www.w3.org/2000/svg" xmlns:xlink="http://www.w3.org/1999/xlink" xml:space="preserve" onload="init(evt)">
<style type="text/css"><![CDATA[
.edge:hover path { stroke: red; }
.edge:hover polygon { stroke: red; fill: red; }
]]></style>
<script type="text/javascript"><![CDATA[
var edges = document.getElementsByTagName('g');
if (edges && edges.length) {
  for (var i=0;i<edges.length;i++) {
    if (edges[i].id.substr(0,4)=='edge') {
      edges[i].setAttribute('class','edge');
    }
  }
}
]]></script>
        <defs>
                <circle id="rim" cx="0" cy="0" r="7"/>
                <circle id="rim2" cx="0" cy="0" r="3.5"/>
                <g id="zoomPlus">
                        <use xlink:href="#rim" fill="#404040">
                                <set attributeName="fill" to="#808080" begin="zoomplus.mouseover" end="zoomplus.mouseout"/>
                        </use>
                        <path d="M-4,0h8M0,-4v8" fill="none" stroke="white" stroke-width="1.5" pointer-events="none"/>
                </g>
                <g id="zoomMin">
                        <use xlink:href="#rim" fill="#404040">
                                <set attributeName="fill" to="#808080" begin="zoomminus.mouseover" end="zoomminus.mouseout"/>
                        </use>
                        <path d="M-4,0h8" fill="none" stroke="white" stroke-width="1.5" pointer-events="none"/>
                </g>
                <g id="dirArrow">
                        <path fill="none" stroke="white" stroke-width="1.5" d="M0,-3.0v7 M-2.5,-0.5L0,-3.0L2.5,-0.5"/>
                </g>
               <g id="resetDef">
                       <use xlink:href="#rim2" fill="#404040">
                               <set attributeName="fill" to="#808080" begin="reset.mouseover" end="reset.mouseout"/>
                       </use>
               </g>
        </defs>

<script type="text/javascript">
var viewWidth = 405;
var viewHeight = 463;
var sectionId = 'dynsection-0';
</script>
<script xlink:href="../../svgpan.js"/>
<svg id="graph" class="graph">
<g id="viewport">
<title>o2::framework::PollerContext</title>
<!-- Node1 -->
<g id="node1" class="node">
<title>Node1</title>
<polygon fill="#bfbfbf" stroke="#000000" points="179.5,-.5 179.5,-57.5 339.5,-57.5 339.5,-.5 179.5,-.5"/>
<text text-anchor="middle" x="259.5" y="-45.5" font-family="Helvetica,sans-Serif" font-size="10.00" fill="#000000">o2::framework::PollerContext</text>
<polyline fill="none" stroke="#000000" points="179.5,-38.5 339.5,-38.5 "/>
<text text-anchor="middle" x="259.5" y="-26.5" font-family="Helvetica,sans-Serif" font-size="10.00" fill="#000000"> </text>
<polyline fill="none" stroke="#000000" points="179.5,-19.5 339.5,-19.5 "/>
<text text-anchor="middle" x="259.5" y="-7.5" font-family="Helvetica,sans-Serif" font-size="10.00" fill="#000000"> </text>
</g>
<!-- Node2 -->
<g id="node2" class="node">
<title>Node2</title>
<g id="a_node2"><a xlink:href="../../d4/d56/classo2_1_1framework_1_1DataProcessingDevice.html" target="_top" xlink:title="{o2::framework::DataProcessing\lDevice\n||+ DataProcessingDevice()\l+ Init()\l+ InitTask()\l+ PreRun()\l+ PostRun()\l+ Reset()\l+ ResetTask()\l+ ConditionalRun()\l+ SetErrorPolicy()\l+ bindService()\l+ doRun()\l+ doPrepare()\l+ handleData()\l+ tryDispatchComputation()\l# error()\l# fillContext()\l}">
<polygon fill="none" stroke="#000000" points="21.5,-105.5 21.5,-338.5 191.5,-338.5 191.5,-105.5 21.5,-105.5"/>
<text text-anchor="start" x="29.5" y="-326.5" font-family="Helvetica,sans-Serif" font-size="10.00" fill="#000000">o2::framework::DataProcessing</text>
<text text-anchor="middle" x="106.5" y="-315.5" font-family="Helvetica,sans-Serif" font-size="10.00" fill="#000000">Device</text>
<polyline fill="none" stroke="#000000" points="21.5,-308.5 191.5,-308.5 "/>
<text text-anchor="middle" x="106.5" y="-296.5" font-family="Helvetica,sans-Serif" font-size="10.00" fill="#000000"> </text>
<polyline fill="none" stroke="#000000" points="21.5,-289.5 191.5,-289.5 "/>
<text text-anchor="start" x="29.5" y="-277.5" font-family="Helvetica,sans-Serif" font-size="10.00" fill="#000000">+ DataProcessingDevice()</text>
<text text-anchor="start" x="29.5" y="-266.5" font-family="Helvetica,sans-Serif" font-size="10.00" fill="#000000">+ Init()</text>
<text text-anchor="start" x="29.5" y="-255.5" font-family="Helvetica,sans-Serif" font-size="10.00" fill="#000000">+ InitTask()</text>
<text text-anchor="start" x="29.5" y="-244.5" font-family="Helvetica,sans-Serif" font-size="10.00" fill="#000000">+ PreRun()</text>
<text text-anchor="start" x="29.5" y="-233.5" font-family="Helvetica,sans-Serif" font-size="10.00" fill="#000000">+ PostRun()</text>
<text text-anchor="start" x="29.5" y="-222.5" font-family="Helvetica,sans-Serif" font-size="10.00" fill="#000000">+ Reset()</text>
<text text-anchor="start" x="29.5" y="-211.5" font-family="Helvetica,sans-Serif" font-size="10.00" fill="#000000">+ ResetTask()</text>
<text text-anchor="start" x="29.5" y="-200.5" font-family="Helvetica,sans-Serif" font-size="10.00" fill="#000000">+ ConditionalRun()</text>
<text text-anchor="start" x="29.5" y="-189.5" font-family="Helvetica,sans-Serif" font-size="10.00" fill="#000000">+ SetErrorPolicy()</text>
<text text-anchor="start" x="29.5" y="-178.5" font-family="Helvetica,sans-Serif" font-size="10.00" fill="#000000">+ bindService()</text>
<text text-anchor="start" x="29.5" y="-167.5" font-family="Helvetica,sans-Serif" font-size="10.00" fill="#000000">+ doRun()</text>
<text text-anchor="start" x="29.5" y="-156.5" font-family="Helvetica,sans-Serif" font-size="10.00" fill="#000000">+ doPrepare()</text>
<text text-anchor="start" x="29.5" y="-145.5" font-family="Helvetica,sans-Serif" font-size="10.00" fill="#000000">+ handleData()</text>
<text text-anchor="start" x="29.5" y="-134.5" font-family="Helvetica,sans-Serif" font-size="10.00" fill="#000000">+ tryDispatchComputation()</text>
<text text-anchor="start" x="29.5" y="-123.5" font-family="Helvetica,sans-Serif" font-size="10.00" fill="#000000"># error()</text>
<text text-anchor="start" x="29.5" y="-112.5" font-family="Helvetica,sans-Serif" font-size="10.00" fill="#000000"># fillContext()</text>
</a>
</g>
</g>
<!-- Node2&#45;&gt;Node1 -->
<g id="edge1" class="edge">
<title>Node2&#45;&gt;Node1</title>
<path fill="none" stroke="#404040" d="M155.8552,-105.4133C162.6606,-94.8939 170.2022,-84.8787 178.5,-76 182.1582,-72.0857 186.2168,-68.4003 190.512,-64.9498"/>
<polygon fill="none" stroke="#404040" points="190.5764,-64.9023 193.0267,-58.1202 200.2295,-57.7735 197.7792,-64.5556 190.5764,-64.9023"/>
<text text-anchor="middle" x="200.5" y="-79" font-family="Helvetica,sans-Serif" font-size="10.00" fill="#000000"> +device</text>
</g>
<!-- Node3 -->
<g id="node3" class="node">
<title>Node3</title>
<g id="a_node3"><a xlink:href="../../db/dfe/classFairMQDevice.html" target="_top" xlink:title="{FairMQDevice\n||}">
<polygon fill="none" stroke="#000000" points="0,-392 0,-449 83,-449 83,-392 0,-392"/>
<text text-anchor="middle" x="41.5" y="-437" font-family="Helvetica,sans-Serif" font-size="10.00" fill="#000000">FairMQDevice</text>
<polyline fill="none" stroke="#000000" points="0,-430 83,-430 "/>
<text text-anchor="middle" x="41.5" y="-418" font-family="Helvetica,sans-Serif" font-size="10.00" fill="#000000"> </text>
<polyline fill="none" stroke="#000000" points="0,-411 83,-411 "/>
<text text-anchor="middle" x="41.5" y="-399" font-family="Helvetica,sans-Serif" font-size="10.00" fill="#000000"> </text>
</a>
</g>
</g>
<!-- Node3&#45;&gt;Node2 -->
<g id="edge2" class="edge">
<title>Node3&#45;&gt;Node2</title>
<path fill="none" stroke="#191970" d="M54.1306,-381.928C58.2958,-369.2082 63.1675,-354.3309 68.2322,-338.8639"/>
<polygon fill="none" stroke="#191970" points="50.7374,-381.0437 50.9516,-391.6364 57.3898,-383.2221 50.7374,-381.0437"/>
</g>
<!-- Node4 -->
<g id="node4" class="node">
<title>Node4</title>
<polygon fill="none" stroke="#bfbfbf" points="101,-386.5 101,-454.5 244,-454.5 244,-386.5 101,-386.5"/>
<text text-anchor="start" x="109" y="-442.5" font-family="Helvetica,sans-Serif" font-size="10.00" fill="#000000">vector&lt; o2::framework</text>
<text text-anchor="middle" x="172.5" y="-431.5" font-family="Helvetica,sans-Serif" font-size="10.00" fill="#000000">::DataProcessorContext &gt;</text>
<polyline fill="none" stroke="#bfbfbf" points="101,-424.5 244,-424.5 "/>
<text text-anchor="middle" x="172.5" y="-412.5" font-family="Helvetica,sans-Serif" font-size="10.00" fill="#000000"> </text>
<polyline fill="none" stroke="#bfbfbf" points="101,-405.5 244,-405.5 "/>
<text text-anchor="middle" x="172.5" y="-393.5" font-family="Helvetica,sans-Serif" font-size="10.00" fill="#000000"> </text>
</g>
<!-- Node4&#45;&gt;Node2 -->
<g id="edge3" class="edge">
<title>Node4&#45;&gt;Node2</title>
<path fill="none" stroke="#404040" d="M161.1542,-386.3766C157.648,-375.8314 153.5578,-363.5299 149.2218,-350.489"/>
<polygon fill="none" stroke="#404040" points="149.1427,-350.251 143.4539,-345.8195 145.3565,-338.8639 151.0453,-343.2954 149.1427,-350.251"/>
<text text-anchor="middle" x="224.5" y="-360" font-family="Helvetica,sans-Serif" font-size="10.00" fill="#000000"> +mDataProcessorContexes</text>
</g>
<!-- Node5 -->
<g id="node5" class="node">
<title>Node5</title>
<polygon fill="none" stroke="#bfbfbf" points="209.5,-193.5 209.5,-250.5 247.5,-250.5 247.5,-193.5 209.5,-193.5"/>
<text text-anchor="middle" x="228.5" y="-238.5" font-family="Helvetica,sans-Serif" font-size="10.00" fill="#000000">char</text>
<polyline fill="none" stroke="#bfbfbf" points="209.5,-231.5 247.5,-231.5 "/>
<text text-anchor="middle" x="228.5" y="-219.5" font-family="Helvetica,sans-Serif" font-size="10.00" fill="#000000"> </text>
<polyline fill="none" stroke="#bfbfbf" points="209.5,-212.5 247.5,-212.5 "/>
<text text-anchor="middle" x="228.5" y="-200.5" font-family="Helvetica,sans-Serif" font-size="10.00" fill="#000000"> </text>
</g>
<!-- Node5&#45;&gt;Node1 -->
<g id="edge4" class="edge">
<title>Node5&#45;&gt;Node1</title>
<path fill="none" stroke="#404040" d="M224.0962,-193.3296C220.5493,-163.3844 217.8571,-115.3783 229.5,-76 230.2582,-73.4356 231.2021,-70.8773 232.2828,-68.3537"/>
<polygon fill="none" stroke="#404040" points="232.3106,-68.299 231.4616,-61.138 237.7453,-57.6002 238.5942,-64.7612 232.3106,-68.299"/>
<text text-anchor="middle" x="249.5" y="-79" font-family="Helvetica,sans-Serif" font-size="10.00" fill="#000000"> +name</text>
</g>
<!-- Node6 -->
<g id="node6" class="node">
<title>Node6</title>
<polygon fill="none" stroke="#bfbfbf" points="277,-193.5 277,-250.5 306,-250.5 306,-193.5 277,-193.5"/>
<text text-anchor="middle" x="291.5" y="-238.5" font-family="Helvetica,sans-Serif" font-size="10.00" fill="#000000">int</text>
<polyline fill="none" stroke="#bfbfbf" points="277,-231.5 306,-231.5 "/>
<text text-anchor="middle" x="291.5" y="-219.5" font-family="Helvetica,sans-Serif" font-size="10.00" fill="#000000"> </text>
<polyline fill="none" stroke="#bfbfbf" points="277,-212.5 306,-212.5 "/>
<text text-anchor="middle" x="291.5" y="-200.5" font-family="Helvetica,sans-Serif" font-size="10.00" fill="#000000"> </text>
</g>
<!-- Node6&#45;&gt;Node1 -->
<g id="edge5" class="edge">
<title>Node6&#45;&gt;Node1</title>
<path fill="none" stroke="#404040" d="M287.7054,-193.3806C283.6731,-163.8836 276.8723,-116.6059 269.5,-76 269.1312,-73.9685 268.7402,-71.8905 268.3348,-69.7939"/>
<polygon fill="none" stroke="#404040" points="268.2839,-69.5414 263.1755,-64.4517 265.909,-57.7787 271.0173,-62.8685 268.2839,-69.5414"/>
<text text-anchor="middle" x="281.5" y="-79" font-family="Helvetica,sans-Serif" font-size="10.00" fill="#000000"> +fd</text>
</g>
<!-- Node7 -->
<g id="node7" class="node">
<title>Node7</title>
<polygon fill="none" stroke="#bfbfbf" points="324.5,-193.5 324.5,-250.5 396.5,-250.5 396.5,-193.5 324.5,-193.5"/>
<text text-anchor="middle" x="360.5" y="-238.5" font-family="Helvetica,sans-Serif" font-size="10.00" fill="#000000">uv_loop_t *</text>
<polyline fill="none" stroke="#bfbfbf" points="324.5,-231.5 396.5,-231.5 "/>
<text text-anchor="middle" x="360.5" y="-219.5" font-family="Helvetica,sans-Serif" font-size="10.00" fill="#000000"> </text>
<polyline fill="none" stroke="#bfbfbf" points="324.5,-212.5 396.5,-212.5 "/>
<text text-anchor="middle" x="360.5" y="-200.5" font-family="Helvetica,sans-Serif" font-size="10.00" fill="#000000"> </text>
</g>
<!-- Node7&#45;&gt;Node1 -->
<g id="edge6" class="edge">
<title>Node7&#45;&gt;Node1</title>
<path fill="none" stroke="#404040" d="M351.4015,-193.3761C343.2792,-169.2272 330.3887,-134.0517 315.5,-105 308.4723,-91.2871 305.4964,-88.5099 296.5,-76 294.4537,-73.1545 292.3039,-70.2424 290.1134,-67.3307"/>
<polygon fill="none" stroke="#404040" points="289.9011,-67.0538 283.0762,-64.7255 282.6005,-57.5301 289.4254,-59.8584 289.9011,-67.0538"/>
<text text-anchor="middle" x="320" y="-79" font-family="Helvetica,sans-Serif" font-size="10.00" fill="#000000"> +loop</text>
</g>
</g>
</svg>
        <g id="navigator" transform="translate(0 0)" fill="#404254">
                <rect fill="#f2f5e9" fill-opacity="0.5" stroke="#606060" stroke-width=".5" x="0" y="0" width="60" height="60"/>
                <use id="zoomplus" xlink:href="#zoomPlus" x="17" y="9" onmousedown="handleZoom(evt,'in')"/>
                <use id="zoomminus" xlink:href="#zoomMin" x="42" y="9" onmousedown="handleZoom(evt,'out')"/>
                <use id="reset" xlink:href="#resetDef" x="30" y="36" onmousedown="handleReset()"/>
                <g id="arrowUp" xlink:href="#dirArrow" transform="translate(30 24)" onmousedown="handlePan(0,-1)">
                  <use xlink:href="#rim" fill="#404040">
                        <set attributeName="fill" to="#808080" begin="arrowUp.mouseover" end="arrowUp.mouseout"/>
                  </use>
                  <path fill="none" stroke="white" stroke-width="1.5" d="M0,-3.0v7 M-2.5,-0.5L0,-3.0L2.5,-0.5"/>
                </g>
                <g id="arrowRight" xlink:href="#dirArrow" transform="rotate(90) translate(36 -43)" onmousedown="handlePan(1,0)">
                  <use xlink:href="#rim" fill="#404040">
                        <set attributeName="fill" to="#808080" begin="arrowRight.mouseover" end="arrowRight.mouseout"/>
                  </use>
                  <path fill="none" stroke="white" stroke-width="1.5" d="M0,-3.0v7 M-2.5,-0.5L0,-3.0L2.5,-0.5"/>
                </g>
                <g id="arrowDown" xlink:href="#dirArrow" transform="rotate(180) translate(-30 -48)" onmousedown="handlePan(0,1)">
                  <use xlink:href="#rim" fill="#404040">
                        <set attributeName="fill" to="#808080" begin="arrowDown.mouseover" end="arrowDown.mouseout"/>
                  </use>
                  <path fill="none" stroke="white" stroke-width="1.5" d="M0,-3.0v7 M-2.5,-0.5L0,-3.0L2.5,-0.5"/>
                </g>
                <g id="arrowLeft" xlink:href="#dirArrow" transform="rotate(270) translate(-36 17)" onmousedown="handlePan(-1,0)">
                  <use xlink:href="#rim" fill="#404040">
                        <set attributeName="fill" to="#808080" begin="arrowLeft.mouseover" end="arrowLeft.mouseout"/>
                  </use>
                  <path fill="none" stroke="white" stroke-width="1.5" d="M0,-3.0v7 M-2.5,-0.5L0,-3.0L2.5,-0.5"/>
                </g>
        </g>
        <svg viewBox="0 0 15 15" width="100%" height="30px" preserveAspectRatio="xMaxYMin meet">
         <g id="arrow_out" transform="scale(0.3 0.3)">
          <a xlink:href="structo2_1_1framework_1_1PollerContext__coll__graph_org.svg" target="_base">
           <rect id="button" ry="5" rx="5" y="6" x="6" height="38" width="38"
                fill="#f2f5e9" fill-opacity="0.5" stroke="#606060" stroke-width="1.0"/>
           <path id="arrow"
             d="M 11.500037,31.436501 C 11.940474,20.09759 22.043105,11.32322 32.158766,21.979434 L 37.068811,17.246167 C 37.068811,17.246167 37.088388,32 37.088388,32 L 22.160133,31.978069 C 22.160133,31.978069 26.997745,27.140456 26.997745,27.140456 C 18.528582,18.264221 13.291696,25.230495 11.500037,31.436501 z"
             style="fill:#404040;"/>
          </a>
         </g>
        </svg>
</svg>
