<?xml version="1.0" encoding="UTF-8" standalone="no"?>
<!DOCTYPE svg PUBLIC "-//W3C//DTD SVG 1.1//EN"
 "http://www.w3.org/Graphics/SVG/1.1/DTD/svg11.dtd">
<!-- Generated by graphviz version 2.40.1 (20161225.0304)
 -->
<!-- Title: /home/travis/build/AliceO2Group/AliceO2/Detectors/EMCAL/reconstruction/include/EMCALReconstruction/CaloRawFitter.h Pages: 1 -->
<svg width="661pt" height="361pt"
 viewBox="0.00 0.00 661.08 361.00" xmlns="http://www.w3.org/2000/svg" xmlns:xlink="http://www.w3.org/1999/xlink">
<g id="graph0" class="graph" transform="scale(1 1) rotate(0) translate(4 357)">
<title>/home/travis/build/AliceO2Group/AliceO2/Detectors/EMCAL/reconstruction/include/EMCALReconstruction/CaloRawFitter.h</title>
<!-- Node12 -->
<g id="node1" class="node">
<title>Node12</title>
<polygon fill="#bfbfbf" stroke="#000000" points="283.0842,-289.5 283.0842,-352.5 459.0842,-352.5 459.0842,-289.5 283.0842,-289.5"/>
<text text-anchor="start" x="291.0842" y="-340.5" font-family="Helvetica,sans-Serif" font-size="10.00" fill="#000000">/home/travis/build</text>
<text text-anchor="start" x="291.0842" y="-329.5" font-family="Helvetica,sans-Serif" font-size="10.00" fill="#000000">/AliceO2Group/AliceO2</text>
<text text-anchor="start" x="291.0842" y="-318.5" font-family="Helvetica,sans-Serif" font-size="10.00" fill="#000000">/Detectors/EMCAL/reconstruction</text>
<text text-anchor="start" x="291.0842" y="-307.5" font-family="Helvetica,sans-Serif" font-size="10.00" fill="#000000">/include/EMCALReconstruction</text>
<text text-anchor="middle" x="371.0842" y="-296.5" font-family="Helvetica,sans-Serif" font-size="10.00" fill="#000000">/CaloRawFitter.h</text>
</g>
<!-- Node13 -->
<g id="node2" class="node">
<title>Node13</title>
<g id="a_node2"><a xlink:href="../../d8/d35/CaloRawFitterGamma2_8h.html" target="_top" xlink:title="/home/travis/build\l/AliceO2Group/AliceO2\l/Detectors/EMCAL/reconstruction\l/include/EMCALReconstruction\l/CaloRawFitterGamma2.h">
<polygon fill="none" stroke="#000000" points="86.0842,-189.5 86.0842,-252.5 262.0842,-252.5 262.0842,-189.5 86.0842,-189.5"/>
<text text-anchor="start" x="94.0842" y="-240.5" font-family="Helvetica,sans-Serif" font-size="10.00" fill="#000000">/home/travis/build</text>
<text text-anchor="start" x="94.0842" y="-229.5" font-family="Helvetica,sans-Serif" font-size="10.00" fill="#000000">/AliceO2Group/AliceO2</text>
<text text-anchor="start" x="94.0842" y="-218.5" font-family="Helvetica,sans-Serif" font-size="10.00" fill="#000000">/Detectors/EMCAL/reconstruction</text>
<text text-anchor="start" x="94.0842" y="-207.5" font-family="Helvetica,sans-Serif" font-size="10.00" fill="#000000">/include/EMCALReconstruction</text>
<text text-anchor="middle" x="174.0842" y="-196.5" font-family="Helvetica,sans-Serif" font-size="10.00" fill="#000000">/CaloRawFitterGamma2.h</text>
</a>
</g>
</g>
<!-- Node12&#45;&gt;Node13 -->
<g id="edge1" class="edge">
<title>Node12&#45;&gt;Node13</title>
<path fill="none" stroke="#191970" d="M299.8943,-284.863C279.0401,-274.2771 256.4125,-262.7911 236.1722,-252.5168"/>
<polygon fill="#191970" stroke="#191970" points="298.5213,-288.0911 309.0225,-289.4966 301.6898,-281.8493 298.5213,-288.0911"/>
</g>
<!-- Node18 -->
<g id="node7" class="node">
<title>Node18</title>
<g id="a_node7"><a xlink:href="../../dd/d8f/CaloRawFitterStandard_8h.html" target="_top" xlink:title="/home/travis/build\l/AliceO2Group/AliceO2\l/Detectors/EMCAL/reconstruction\l/include/EMCALReconstruction\l/CaloRawFitterStandard.h">
<polygon fill="none" stroke="#000000" points="283.0842,-189.5 283.0842,-252.5 459.0842,-252.5 459.0842,-189.5 283.0842,-189.5"/>
<text text-anchor="start" x="291.0842" y="-240.5" font-family="Helvetica,sans-Serif" font-size="10.00" fill="#000000">/home/travis/build</text>
<text text-anchor="start" x="291.0842" y="-229.5" font-family="Helvetica,sans-Serif" font-size="10.00" fill="#000000">/AliceO2Group/AliceO2</text>
<text text-anchor="start" x="291.0842" y="-218.5" font-family="Helvetica,sans-Serif" font-size="10.00" fill="#000000">/Detectors/EMCAL/reconstruction</text>
<text text-anchor="start" x="291.0842" y="-207.5" font-family="Helvetica,sans-Serif" font-size="10.00" fill="#000000">/include/EMCALReconstruction</text>
<text text-anchor="middle" x="371.0842" y="-196.5" font-family="Helvetica,sans-Serif" font-size="10.00" fill="#000000">/CaloRawFitterStandard.h</text>
</a>
</g>
</g>
<!-- Node12&#45;&gt;Node18 -->
<g id="edge7" class="edge">
<title>Node12&#45;&gt;Node18</title>
<path fill="none" stroke="#191970" d="M371.0842,-279.2111C371.0842,-270.37 371.0842,-261.1767 371.0842,-252.778"/>
<polygon fill="#191970" stroke="#191970" points="367.5843,-279.3593 371.0842,-289.3594 374.5843,-279.3594 367.5843,-279.3593"/>
</g>
<!-- Node20 -->
<g id="node9" class="node">
<title>Node20</title>
<g id="a_node9"><a xlink:href="../../d0/dd0/CaloRawFitter_8cxx.html" target="_top" xlink:title="/home/travis/build\l/AliceO2Group/AliceO2\l/Detectors/EMCAL/reconstruction\l/src/CaloRawFitter.cxx">
<polygon fill="none" stroke="#000000" points="477.0842,-195 477.0842,-247 653.0842,-247 653.0842,-195 477.0842,-195"/>
<text text-anchor="start" x="485.0842" y="-235" font-family="Helvetica,sans-Serif" font-size="10.00" fill="#000000">/home/travis/build</text>
<text text-anchor="start" x="485.0842" y="-224" font-family="Helvetica,sans-Serif" font-size="10.00" fill="#000000">/AliceO2Group/AliceO2</text>
<text text-anchor="start" x="485.0842" y="-213" font-family="Helvetica,sans-Serif" font-size="10.00" fill="#000000">/Detectors/EMCAL/reconstruction</text>
<text text-anchor="middle" x="565.0842" y="-202" font-family="Helvetica,sans-Serif" font-size="10.00" fill="#000000">/src/CaloRawFitter.cxx</text>
</a>
</g>
</g>
<!-- Node12&#45;&gt;Node20 -->
<g id="edge11" class="edge">
<title>Node12&#45;&gt;Node20</title>
<path fill="none" stroke="#191970" d="M441.3294,-284.7911C465.491,-272.3367 492.0553,-258.6437 514.3574,-247.1478"/>
<polygon fill="#191970" stroke="#191970" points="439.4857,-281.8038 432.2007,-289.4966 442.6929,-288.0258 439.4857,-281.8038"/>
</g>
<!-- Node14 -->
<g id="node3" class="node">
<title>Node14</title>
<g id="a_node3"><a xlink:href="../../df/d14/CaloRawFitterGamma2_8cxx.html" target="_top" xlink:title="/home/travis/build\l/AliceO2Group/AliceO2\l/Detectors/EMCAL/reconstruction\l/src/CaloRawFitterGamma2.cxx">
<polygon fill="none" stroke="#000000" points="22.0842,-95 22.0842,-147 198.0842,-147 198.0842,-95 22.0842,-95"/>
<text text-anchor="start" x="30.0842" y="-135" font-family="Helvetica,sans-Serif" font-size="10.00" fill="#000000">/home/travis/build</text>
<text text-anchor="start" x="30.0842" y="-124" font-family="Helvetica,sans-Serif" font-size="10.00" fill="#000000">/AliceO2Group/AliceO2</text>
<text text-anchor="start" x="30.0842" y="-113" font-family="Helvetica,sans-Serif" font-size="10.00" fill="#000000">/Detectors/EMCAL/reconstruction</text>
<text text-anchor="middle" x="110.0842" y="-102" font-family="Helvetica,sans-Serif" font-size="10.00" fill="#000000">/src/CaloRawFitterGamma2.cxx</text>
</a>
</g>
</g>
<!-- Node13&#45;&gt;Node14 -->
<g id="edge2" class="edge">
<title>Node13&#45;&gt;Node14</title>
<path fill="none" stroke="#191970" d="M148.3821,-180.8405C141.1027,-169.4664 133.3706,-157.385 126.7741,-147.078"/>
<polygon fill="#191970" stroke="#191970" points="145.4956,-182.8233 153.8342,-189.3594 151.3915,-179.0499 145.4956,-182.8233"/>
</g>
<!-- Node15 -->
<g id="node4" class="node">
<title>Node15</title>
<g id="a_node4"><a xlink:href="../../d5/da4/RawToCellConverterSpec_8h.html" target="_top" xlink:title="/home/travis/build\l/AliceO2Group/AliceO2\l/Detectors/EMCAL/workflow\l/include/EMCALWorkflow/RawToCell\lConverterSpec.h">
<polygon fill="none" stroke="#000000" points="216.0842,-89.5 216.0842,-152.5 404.0842,-152.5 404.0842,-89.5 216.0842,-89.5"/>
<text text-anchor="start" x="224.0842" y="-140.5" font-family="Helvetica,sans-Serif" font-size="10.00" fill="#000000">/home/travis/build</text>
<text text-anchor="start" x="224.0842" y="-129.5" font-family="Helvetica,sans-Serif" font-size="10.00" fill="#000000">/AliceO2Group/AliceO2</text>
<text text-anchor="start" x="224.0842" y="-118.5" font-family="Helvetica,sans-Serif" font-size="10.00" fill="#000000">/Detectors/EMCAL/workflow</text>
<text text-anchor="start" x="224.0842" y="-107.5" font-family="Helvetica,sans-Serif" font-size="10.00" fill="#000000">/include/EMCALWorkflow/RawToCell</text>
<text text-anchor="middle" x="310.0842" y="-96.5" font-family="Helvetica,sans-Serif" font-size="10.00" fill="#000000">ConverterSpec.h</text>
</a>
</g>
</g>
<!-- Node13&#45;&gt;Node15 -->
<g id="edge3" class="edge">
<title>Node13&#45;&gt;Node15</title>
<path fill="none" stroke="#191970" d="M225.4666,-183.2188C239.1107,-173.1863 253.7057,-162.4547 266.866,-152.778"/>
<polygon fill="#191970" stroke="#191970" points="223.0986,-180.6156 217.1154,-189.3594 227.2453,-186.2552 223.0986,-180.6156"/>
</g>
<!-- Node16 -->
<g id="node5" class="node">
<title>Node16</title>
<g id="a_node5"><a xlink:href="../../dd/d4a/RawToCellConverterSpec_8cxx.html" target="_top" xlink:title="/home/travis/build\l/AliceO2Group/AliceO2\l/Detectors/EMCAL/workflow\l/src/RawToCellConverterSpec.cxx">
<polygon fill="none" stroke="#000000" points="281.5842,-.5 281.5842,-52.5 460.5842,-52.5 460.5842,-.5 281.5842,-.5"/>
<text text-anchor="start" x="289.5842" y="-40.5" font-family="Helvetica,sans-Serif" font-size="10.00" fill="#000000">/home/travis/build</text>
<text text-anchor="start" x="289.5842" y="-29.5" font-family="Helvetica,sans-Serif" font-size="10.00" fill="#000000">/AliceO2Group/AliceO2</text>
<text text-anchor="start" x="289.5842" y="-18.5" font-family="Helvetica,sans-Serif" font-size="10.00" fill="#000000">/Detectors/EMCAL/workflow</text>
<text text-anchor="middle" x="371.0842" y="-7.5" font-family="Helvetica,sans-Serif" font-size="10.00" fill="#000000">/src/RawToCellConverterSpec.cxx</text>
</a>
</g>
</g>
<!-- Node13&#45;&gt;Node16 -->
<g id="edge6" class="edge">
<title>Node13&#45;&gt;Node16</title>
<path fill="none" stroke="#191970" d="M76.3366,-200.4099C51.6004,-190.3194 27.8798,-175.3103 13.0842,-153 -2.6366,-129.2947 -5.5933,-110.4532 13.0842,-89 51.2402,-45.1736 215.1316,-64.5347 272.0842,-53 275.1359,-52.3819 278.233,-51.7245 281.3551,-51.036"/>
<polygon fill="#191970" stroke="#191970" points="75.2596,-203.745 85.8503,-204.0413 77.7559,-197.2052 75.2596,-203.745"/>
</g>
<!-- Node15&#45;&gt;Node16 -->
<g id="edge4" class="edge">
<title>Node15&#45;&gt;Node16</title>
<path fill="none" stroke="#191970" d="M336.0966,-80.702C342.2264,-71.2058 348.6035,-61.3266 354.208,-52.6442"/>
<polygon fill="#191970" stroke="#191970" points="333.0487,-78.9701 330.566,-89.27 338.9299,-82.7665 333.0487,-78.9701"/>
</g>
<!-- Node17 -->
<g id="node6" class="node">
<title>Node17</title>
<g id="a_node6"><a xlink:href="../../d2/dbf/EMCAL_2workflow_2src_2RecoWorkflow_8cxx.html" target="_top" xlink:title="/home/travis/build\l/AliceO2Group/AliceO2\l/Detectors/EMCAL/workflow\l/src/RecoWorkflow.cxx">
<polygon fill="none" stroke="#000000" points="113.0842,-.5 113.0842,-52.5 263.0842,-52.5 263.0842,-.5 113.0842,-.5"/>
<text text-anchor="start" x="121.0842" y="-40.5" font-family="Helvetica,sans-Serif" font-size="10.00" fill="#000000">/home/travis/build</text>
<text text-anchor="start" x="121.0842" y="-29.5" font-family="Helvetica,sans-Serif" font-size="10.00" fill="#000000">/AliceO2Group/AliceO2</text>
<text text-anchor="start" x="121.0842" y="-18.5" font-family="Helvetica,sans-Serif" font-size="10.00" fill="#000000">/Detectors/EMCAL/workflow</text>
<text text-anchor="middle" x="188.0842" y="-7.5" font-family="Helvetica,sans-Serif" font-size="10.00" fill="#000000">/src/RecoWorkflow.cxx</text>
</a>
</g>
</g>
<!-- Node15&#45;&gt;Node17 -->
<g id="edge5" class="edge">
<title>Node15&#45;&gt;Node17</title>
<path fill="none" stroke="#191970" d="M261.0506,-83.0191C247.8922,-72.8267 233.9605,-62.0354 221.8364,-52.6442"/>
<polygon fill="#191970" stroke="#191970" points="259.0715,-85.9133 269.1205,-89.27 263.3581,-80.3792 259.0715,-85.9133"/>
</g>
<!-- Node18&#45;&gt;Node15 -->
<g id="edge9" class="edge">
<title>Node18&#45;&gt;Node15</title>
<path fill="none" stroke="#191970" d="M346.4702,-180.6493C340.8108,-171.3716 334.8704,-161.6331 329.4687,-152.778"/>
<polygon fill="#191970" stroke="#191970" points="343.5878,-182.645 351.7834,-189.3594 349.5637,-178.9997 343.5878,-182.645"/>
</g>
<!-- Node18&#45;&gt;Node16 -->
<g id="edge10" class="edge">
<title>Node18&#45;&gt;Node16</title>
<path fill="none" stroke="#191970" d="M401.0723,-180.457C406.0257,-171.7971 410.4119,-162.4116 413.0842,-153 420.8532,-125.6371 421.377,-116.2087 413.0842,-89 409.1203,-75.9946 401.4454,-63.2412 393.7289,-52.6814"/>
<polygon fill="#191970" stroke="#191970" points="397.9662,-178.8284 395.7531,-189.1896 403.9445,-182.47 397.9662,-178.8284"/>
</g>
<!-- Node19 -->
<g id="node8" class="node">
<title>Node19</title>
<g id="a_node8"><a xlink:href="../../d5/dcd/CaloRawFitterStandard_8cxx.html" target="_top" xlink:title="/home/travis/build\l/AliceO2Group/AliceO2\l/Detectors/EMCAL/reconstruction\l/src/CaloRawFitterStandard.cxx">
<polygon fill="none" stroke="#000000" points="460.0842,-95 460.0842,-147 636.0842,-147 636.0842,-95 460.0842,-95"/>
<text text-anchor="start" x="468.0842" y="-135" font-family="Helvetica,sans-Serif" font-size="10.00" fill="#000000">/home/travis/build</text>
<text text-anchor="start" x="468.0842" y="-124" font-family="Helvetica,sans-Serif" font-size="10.00" fill="#000000">/AliceO2Group/AliceO2</text>
<text text-anchor="start" x="468.0842" y="-113" font-family="Helvetica,sans-Serif" font-size="10.00" fill="#000000">/Detectors/EMCAL/reconstruction</text>
<text text-anchor="middle" x="548.0842" y="-102" font-family="Helvetica,sans-Serif" font-size="10.00" fill="#000000">/src/CaloRawFitterStandard.cxx</text>
</a>
</g>
</g>
<!-- Node18&#45;&gt;Node19 -->
<g id="edge8" class="edge">
<title>Node18&#45;&gt;Node19</title>
<path fill="none" stroke="#191970" d="M435.9937,-184.3279C457.8626,-171.9726 481.8047,-158.446 501.9262,-147.078"/>
<polygon fill="#191970" stroke="#191970" points="434.073,-181.3931 427.0881,-189.3594 437.5163,-187.4877 434.073,-181.3931"/>
</g>
</g>
</svg>
