<?xml version="1.0" encoding="UTF-8" standalone="no"?>
<!DOCTYPE svg PUBLIC "-//W3C//DTD SVG 1.1//EN"
 "http://www.w3.org/Graphics/SVG/1.1/DTD/svg11.dtd">
<!-- Generated by graphviz version 2.40.1 (20161225.0304)
 -->
<!-- Title: /home/travis/build/AliceO2Group/AliceO2/Framework/Core/include/Framework/ServiceSpec.h Pages: 1 -->
<svg width="348pt" height="128pt"
 viewBox="0.00 0.00 348.00 128.00" xmlns="http://www.w3.org/2000/svg" xmlns:xlink="http://www.w3.org/1999/xlink">
<g id="graph0" class="graph" transform="scale(1 1) rotate(0) translate(4 124)">
<title>/home/travis/build/AliceO2Group/AliceO2/Framework/Core/include/Framework/ServiceSpec.h</title>
<!-- Node0 -->
<g id="node1" class="node">
<title>Node0</title>
<polygon fill="#bfbfbf" stroke="#000000" points="65,-67.5 65,-119.5 210,-119.5 210,-67.5 65,-67.5"/>
<text text-anchor="start" x="73" y="-107.5" font-family="Helvetica,sans-Serif" font-size="10.00" fill="#000000">/home/travis/build</text>
<text text-anchor="start" x="73" y="-96.5" font-family="Helvetica,sans-Serif" font-size="10.00" fill="#000000">/AliceO2Group/AliceO2</text>
<text text-anchor="start" x="73" y="-85.5" font-family="Helvetica,sans-Serif" font-size="10.00" fill="#000000">/Framework/Core/include</text>
<text text-anchor="middle" x="137.5" y="-74.5" font-family="Helvetica,sans-Serif" font-size="10.00" fill="#000000">/Framework/ServiceSpec.h</text>
</g>
<!-- Node1 -->
<g id="node2" class="node">
<title>Node1</title>
<polygon fill="none" stroke="#bfbfbf" points="0,-6 0,-25 65,-25 65,-6 0,-6"/>
<text text-anchor="middle" x="32.5" y="-13" font-family="Helvetica,sans-Serif" font-size="10.00" fill="#000000">functional</text>
</g>
<!-- Node0&#45;&gt;Node1 -->
<g id="edge1" class="edge">
<title>Node0&#45;&gt;Node1</title>
<path fill="none" stroke="#191970" d="M102.2444,-67.3101C86.2144,-55.4021 67.7715,-41.7017 53.8786,-31.3812"/>
<polygon fill="#191970" stroke="#191970" points="55.5917,-28.2938 45.4771,-25.1401 51.4174,-33.913 55.5917,-28.2938"/>
</g>
<!-- Node2 -->
<g id="node3" class="node">
<title>Node2</title>
<polygon fill="none" stroke="#bfbfbf" points="83.5,-6 83.5,-25 127.5,-25 127.5,-6 83.5,-6"/>
<text text-anchor="middle" x="105.5" y="-13" font-family="Helvetica,sans-Serif" font-size="10.00" fill="#000000">string</text>
</g>
<!-- Node0&#45;&gt;Node2 -->
<g id="edge2" class="edge">
<title>Node0&#45;&gt;Node2</title>
<path fill="none" stroke="#191970" d="M126.6663,-67.0928C122.2988,-56.447 117.356,-44.3989 113.3458,-34.6242"/>
<polygon fill="#191970" stroke="#191970" points="116.4656,-33.0071 109.4318,-25.0839 109.9894,-35.664 116.4656,-33.0071"/>
</g>
<!-- Node3 -->
<g id="node4" class="node">
<title>Node3</title>
<polygon fill="none" stroke="#bfbfbf" points="146,-6 146,-25 193,-25 193,-6 146,-6"/>
<text text-anchor="middle" x="169.5" y="-13" font-family="Helvetica,sans-Serif" font-size="10.00" fill="#000000">vector</text>
</g>
<!-- Node0&#45;&gt;Node3 -->
<g id="edge3" class="edge">
<title>Node0&#45;&gt;Node3</title>
<path fill="none" stroke="#191970" d="M148.3337,-67.0928C152.7012,-56.447 157.644,-44.3989 161.6542,-34.6242"/>
<polygon fill="#191970" stroke="#191970" points="165.0106,-35.664 165.5682,-25.0839 158.5344,-33.0071 165.0106,-35.664"/>
</g>
<!-- Node4 -->
<g id="node5" class="node">
<title>Node4</title>
<polygon fill="none" stroke="#bfbfbf" points="211,-.5 211,-30.5 340,-30.5 340,-.5 211,-.5"/>
<text text-anchor="start" x="219" y="-18.5" font-family="Helvetica,sans-Serif" font-size="10.00" fill="#000000">boost/program_options</text>
<text text-anchor="middle" x="275.5" y="-7.5" font-family="Helvetica,sans-Serif" font-size="10.00" fill="#000000">/variables_map.hpp</text>
</g>
<!-- Node0&#45;&gt;Node4 -->
<g id="edge4" class="edge">
<title>Node0&#45;&gt;Node4</title>
<path fill="none" stroke="#191970" d="M183.8359,-67.3101C202.0704,-57.0037 222.6805,-45.3545 239.7329,-35.7162"/>
<polygon fill="#191970" stroke="#191970" points="241.8193,-38.5573 248.8028,-30.5897 238.3749,-32.4634 241.8193,-38.5573"/>
</g>
</g>
</svg>
