<?xml version="1.0" encoding="UTF-8" standalone="no"?>
<!DOCTYPE svg PUBLIC "-//W3C//DTD SVG 1.1//EN"
 "http://www.w3.org/Graphics/SVG/1.1/DTD/svg11.dtd">
<!-- Generated by graphviz version 2.40.1 (20161225.0304)
 -->
<!-- Title: o2::trd::HalfCRUHeader Pages: 1 -->
<!--zoomable 292 -->
<svg id="main" version="1.1" xmlns="http://www.w3.org/2000/svg" xmlns:xlink="http://www.w3.org/1999/xlink" xml:space="preserve" onload="init(evt)">
<style type="text/css"><![CDATA[
.edge:hover path { stroke: red; }
.edge:hover polygon { stroke: red; fill: red; }
]]></style>
<script type="text/javascript"><![CDATA[
var edges = document.getElementsByTagName('g');
if (edges && edges.length) {
  for (var i=0;i<edges.length;i++) {
    if (edges[i].id.substr(0,4)=='edge') {
      edges[i].setAttribute('class','edge');
    }
  }
}
]]></script>
        <defs>
                <circle id="rim" cx="0" cy="0" r="7"/>
                <circle id="rim2" cx="0" cy="0" r="3.5"/>
                <g id="zoomPlus">
                        <use xlink:href="#rim" fill="#404040">
                                <set attributeName="fill" to="#808080" begin="zoomplus.mouseover" end="zoomplus.mouseout"/>
                        </use>
                        <path d="M-4,0h8M0,-4v8" fill="none" stroke="white" stroke-width="1.5" pointer-events="none"/>
                </g>
                <g id="zoomMin">
                        <use xlink:href="#rim" fill="#404040">
                                <set attributeName="fill" to="#808080" begin="zoomminus.mouseover" end="zoomminus.mouseout"/>
                        </use>
                        <path d="M-4,0h8" fill="none" stroke="white" stroke-width="1.5" pointer-events="none"/>
                </g>
                <g id="dirArrow">
                        <path fill="none" stroke="white" stroke-width="1.5" d="M0,-3.0v7 M-2.5,-0.5L0,-3.0L2.5,-0.5"/>
                </g>
               <g id="resetDef">
                       <use xlink:href="#rim2" fill="#404040">
                               <set attributeName="fill" to="#808080" begin="reset.mouseover" end="reset.mouseout"/>
                       </use>
               </g>
        </defs>

<script type="text/javascript">
var viewWidth = 566;
var viewHeight = 292;
var sectionId = 'dynsection-0';
</script>
<script xlink:href="../../svgpan.js"/>
<svg id="graph" class="graph">
<g id="viewport">
<title>o2::trd::HalfCRUHeader</title>
<!-- Node1 -->
<g id="node1" class="node">
<title>Node1</title>
<polygon fill="#bfbfbf" stroke="#000000" points="188.5,-.5 188.5,-68.5 319.5,-68.5 319.5,-.5 188.5,-.5"/>
<text text-anchor="middle" x="254" y="-56.5" font-family="Helvetica,sans-Serif" font-size="10.00" fill="#000000">o2::trd::HalfCRUHeader</text>
<polyline fill="none" stroke="#000000" points="188.5,-49.5 319.5,-49.5 "/>
<text text-anchor="start" x="196.5" y="-37.5" font-family="Helvetica,sans-Serif" font-size="10.00" fill="#000000">+ BunchCrossing</text>
<text text-anchor="start" x="196.5" y="-26.5" font-family="Helvetica,sans-Serif" font-size="10.00" fill="#000000">+ word4</text>
<polyline fill="none" stroke="#000000" points="188.5,-19.5 319.5,-19.5 "/>
<text text-anchor="middle" x="254" y="-7.5" font-family="Helvetica,sans-Serif" font-size="10.00" fill="#000000"> </text>
</g>
<!-- Node2 -->
<g id="node2" class="node">
<title>Node2</title>
<g id="a_node2"><a xlink:href="../../d6/d30/classuint64__t.html" target="_top" xlink:title="{uint64_t\n||}">
<polygon fill="none" stroke="#000000" points="0,-226.5 0,-283.5 56,-283.5 56,-226.5 0,-226.5"/>
<text text-anchor="middle" x="28" y="-271.5" font-family="Helvetica,sans-Serif" font-size="10.00" fill="#000000">uint64_t</text>
<polyline fill="none" stroke="#000000" points="0,-264.5 56,-264.5 "/>
<text text-anchor="middle" x="28" y="-252.5" font-family="Helvetica,sans-Serif" font-size="10.00" fill="#000000"> </text>
<polyline fill="none" stroke="#000000" points="0,-245.5 56,-245.5 "/>
<text text-anchor="middle" x="28" y="-233.5" font-family="Helvetica,sans-Serif" font-size="10.00" fill="#000000"> </text>
</a>
</g>
</g>
<!-- Node2&#45;&gt;Node1 -->
<g id="edge1" class="edge">
<title>Node2&#45;&gt;Node1</title>
<path fill="none" stroke="#404040" d="M26.7678,-226.2309C26.8049,-189.0797 32.6494,-124.7266 69,-87 84.2782,-71.1435 132.9279,-57.6891 176.5029,-48.3712"/>
<polygon fill="none" stroke="#404040" points="176.5816,-48.3549 181.6425,-43.218 188.3308,-45.9139 183.2699,-51.0508 176.5816,-48.3549"/>
<text text-anchor="middle" x="109" y="-200" font-family="Helvetica,sans-Serif" font-size="10.00" fill="#000000"> +StopBit</text>
<text text-anchor="middle" x="109" y="-189" font-family="Helvetica,sans-Serif" font-size="10.00" fill="#000000">+EventType</text>
<text text-anchor="middle" x="109" y="-178" font-family="Helvetica,sans-Serif" font-size="10.00" fill="#000000">+errorflags</text>
<text text-anchor="middle" x="109" y="-167" font-family="Helvetica,sans-Serif" font-size="10.00" fill="#000000">+word57</text>
<text text-anchor="middle" x="109" y="-156" font-family="Helvetica,sans-Serif" font-size="10.00" fill="#000000">+reserveda</text>
<text text-anchor="middle" x="109" y="-145" font-family="Helvetica,sans-Serif" font-size="10.00" fill="#000000">+reservedb</text>
<text text-anchor="middle" x="109" y="-134" font-family="Helvetica,sans-Serif" font-size="10.00" fill="#000000">+HeaderVersion</text>
<text text-anchor="middle" x="109" y="-123" font-family="Helvetica,sans-Serif" font-size="10.00" fill="#000000">+size</text>
<text text-anchor="middle" x="109" y="-112" font-family="Helvetica,sans-Serif" font-size="10.00" fill="#000000">+word02</text>
<text text-anchor="middle" x="109" y="-101" font-family="Helvetica,sans-Serif" font-size="10.00" fill="#000000">+word3</text>
<text text-anchor="middle" x="109" y="-90" font-family="Helvetica,sans-Serif" font-size="10.00" fill="#000000">...</text>
</g>
<!-- Node3 -->
<g id="node3" class="node">
<title>Node3</title>
<polygon fill="none" stroke="#bfbfbf" points="75.5,-226.5 75.5,-283.5 182.5,-283.5 182.5,-226.5 75.5,-226.5"/>
<text text-anchor="middle" x="129" y="-271.5" font-family="Helvetica,sans-Serif" font-size="10.00" fill="#000000">anonymous:+@41</text>
<polyline fill="none" stroke="#bfbfbf" points="75.5,-264.5 182.5,-264.5 "/>
<text text-anchor="middle" x="129" y="-252.5" font-family="Helvetica,sans-Serif" font-size="10.00" fill="#000000"> </text>
<polyline fill="none" stroke="#bfbfbf" points="75.5,-245.5 182.5,-245.5 "/>
<text text-anchor="middle" x="129" y="-233.5" font-family="Helvetica,sans-Serif" font-size="10.00" fill="#000000"> </text>
</g>
<!-- Node3&#45;&gt;Node1 -->
<g id="edge2" class="edge">
<title>Node3&#45;&gt;Node1</title>
<path fill="none" stroke="#404040" d="M142.2259,-226.3536C158.2945,-192.3371 186.8831,-134.2594 216,-87 217.6848,-84.2654 219.4664,-81.4878 221.3023,-78.7109"/>
<polygon fill="none" stroke="#404040" points="221.3459,-78.6469 221.425,-71.4362 228.1114,-68.7359 228.0323,-75.9466 221.3459,-78.6469"/>
<text text-anchor="middle" x="233" y="-145" font-family="Helvetica,sans-Serif" font-size="10.00" fill="#000000"> +@41</text>
</g>
<!-- Node4 -->
<g id="node4" class="node">
<title>Node4</title>
<polygon fill="none" stroke="#bfbfbf" points="200.5,-226.5 200.5,-283.5 307.5,-283.5 307.5,-226.5 200.5,-226.5"/>
<text text-anchor="middle" x="254" y="-271.5" font-family="Helvetica,sans-Serif" font-size="10.00" fill="#000000">anonymous:+@35</text>
<polyline fill="none" stroke="#bfbfbf" points="200.5,-264.5 307.5,-264.5 "/>
<text text-anchor="middle" x="254" y="-252.5" font-family="Helvetica,sans-Serif" font-size="10.00" fill="#000000"> </text>
<polyline fill="none" stroke="#bfbfbf" points="200.5,-245.5 307.5,-245.5 "/>
<text text-anchor="middle" x="254" y="-233.5" font-family="Helvetica,sans-Serif" font-size="10.00" fill="#000000"> </text>
</g>
<!-- Node4&#45;&gt;Node1 -->
<g id="edge3" class="edge">
<title>Node4&#45;&gt;Node1</title>
<path fill="none" stroke="#404040" d="M254,-226.1735C254,-189.2261 254,-124.7136 254,-80.8345"/>
<polygon fill="none" stroke="#404040" points="254.0001,-80.7678 250,-74.7679 254,-68.7678 258,-74.7678 254.0001,-80.7678"/>
<text text-anchor="middle" x="271" y="-145" font-family="Helvetica,sans-Serif" font-size="10.00" fill="#000000"> +@35</text>
</g>
<!-- Node5 -->
<g id="node5" class="node">
<title>Node5</title>
<polygon fill="none" stroke="#bfbfbf" points="325.5,-226.5 325.5,-283.5 432.5,-283.5 432.5,-226.5 325.5,-226.5"/>
<text text-anchor="middle" x="379" y="-271.5" font-family="Helvetica,sans-Serif" font-size="10.00" fill="#000000">anonymous:+@37</text>
<polyline fill="none" stroke="#bfbfbf" points="325.5,-264.5 432.5,-264.5 "/>
<text text-anchor="middle" x="379" y="-252.5" font-family="Helvetica,sans-Serif" font-size="10.00" fill="#000000"> </text>
<polyline fill="none" stroke="#bfbfbf" points="325.5,-245.5 432.5,-245.5 "/>
<text text-anchor="middle" x="379" y="-233.5" font-family="Helvetica,sans-Serif" font-size="10.00" fill="#000000"> </text>
</g>
<!-- Node5&#45;&gt;Node1 -->
<g id="edge4" class="edge">
<title>Node5&#45;&gt;Node1</title>
<path fill="none" stroke="#404040" d="M365.7741,-226.3536C349.7055,-192.3371 321.1169,-134.2594 292,-87 290.3152,-84.2654 288.5336,-81.4878 286.6977,-78.7109"/>
<polygon fill="none" stroke="#404040" points="286.6541,-78.6469 279.9677,-75.9466 279.8886,-68.7359 286.575,-71.4362 286.6541,-78.6469"/>
<text text-anchor="middle" x="372" y="-145" font-family="Helvetica,sans-Serif" font-size="10.00" fill="#000000"> +@37</text>
</g>
<!-- Node6 -->
<g id="node6" class="node">
<title>Node6</title>
<polygon fill="none" stroke="#bfbfbf" points="450.5,-226.5 450.5,-283.5 557.5,-283.5 557.5,-226.5 450.5,-226.5"/>
<text text-anchor="middle" x="504" y="-271.5" font-family="Helvetica,sans-Serif" font-size="10.00" fill="#000000">anonymous:+@39</text>
<polyline fill="none" stroke="#bfbfbf" points="450.5,-264.5 557.5,-264.5 "/>
<text text-anchor="middle" x="504" y="-252.5" font-family="Helvetica,sans-Serif" font-size="10.00" fill="#000000"> </text>
<polyline fill="none" stroke="#bfbfbf" points="450.5,-245.5 557.5,-245.5 "/>
<text text-anchor="middle" x="504" y="-233.5" font-family="Helvetica,sans-Serif" font-size="10.00" fill="#000000"> </text>
</g>
<!-- Node6&#45;&gt;Node1 -->
<g id="edge5" class="edge">
<title>Node6&#45;&gt;Node1</title>
<path fill="none" stroke="#404040" d="M491.9046,-226.3364C474.9213,-189.3006 440.6614,-125.0735 393,-87 374.9762,-72.6019 352.5827,-61.8566 331.0718,-53.969"/>
<polygon fill="none" stroke="#404040" points="330.9279,-53.9191 323.9486,-55.7332 319.5898,-49.9885 326.5691,-48.1745 330.9279,-53.9191"/>
<text text-anchor="middle" x="498" y="-145" font-family="Helvetica,sans-Serif" font-size="10.00" fill="#000000"> +@39</text>
</g>
</g>
</svg>
        <g id="navigator" transform="translate(0 0)" fill="#404254">
                <rect fill="#f2f5e9" fill-opacity="0.5" stroke="#606060" stroke-width=".5" x="0" y="0" width="60" height="60"/>
                <use id="zoomplus" xlink:href="#zoomPlus" x="17" y="9" onmousedown="handleZoom(evt,'in')"/>
                <use id="zoomminus" xlink:href="#zoomMin" x="42" y="9" onmousedown="handleZoom(evt,'out')"/>
                <use id="reset" xlink:href="#resetDef" x="30" y="36" onmousedown="handleReset()"/>
                <g id="arrowUp" xlink:href="#dirArrow" transform="translate(30 24)" onmousedown="handlePan(0,-1)">
                  <use xlink:href="#rim" fill="#404040">
                        <set attributeName="fill" to="#808080" begin="arrowUp.mouseover" end="arrowUp.mouseout"/>
                  </use>
                  <path fill="none" stroke="white" stroke-width="1.5" d="M0,-3.0v7 M-2.5,-0.5L0,-3.0L2.5,-0.5"/>
                </g>
                <g id="arrowRight" xlink:href="#dirArrow" transform="rotate(90) translate(36 -43)" onmousedown="handlePan(1,0)">
                  <use xlink:href="#rim" fill="#404040">
                        <set attributeName="fill" to="#808080" begin="arrowRight.mouseover" end="arrowRight.mouseout"/>
                  </use>
                  <path fill="none" stroke="white" stroke-width="1.5" d="M0,-3.0v7 M-2.5,-0.5L0,-3.0L2.5,-0.5"/>
                </g>
                <g id="arrowDown" xlink:href="#dirArrow" transform="rotate(180) translate(-30 -48)" onmousedown="handlePan(0,1)">
                  <use xlink:href="#rim" fill="#404040">
                        <set attributeName="fill" to="#808080" begin="arrowDown.mouseover" end="arrowDown.mouseout"/>
                  </use>
                  <path fill="none" stroke="white" stroke-width="1.5" d="M0,-3.0v7 M-2.5,-0.5L0,-3.0L2.5,-0.5"/>
                </g>
                <g id="arrowLeft" xlink:href="#dirArrow" transform="rotate(270) translate(-36 17)" onmousedown="handlePan(-1,0)">
                  <use xlink:href="#rim" fill="#404040">
                        <set attributeName="fill" to="#808080" begin="arrowLeft.mouseover" end="arrowLeft.mouseout"/>
                  </use>
                  <path fill="none" stroke="white" stroke-width="1.5" d="M0,-3.0v7 M-2.5,-0.5L0,-3.0L2.5,-0.5"/>
                </g>
        </g>
        <svg viewBox="0 0 15 15" width="100%" height="30px" preserveAspectRatio="xMaxYMin meet">
         <g id="arrow_out" transform="scale(0.3 0.3)">
          <a xlink:href="structo2_1_1trd_1_1HalfCRUHeader__coll__graph_org.svg" target="_base">
           <rect id="button" ry="5" rx="5" y="6" x="6" height="38" width="38"
                fill="#f2f5e9" fill-opacity="0.5" stroke="#606060" stroke-width="1.0"/>
           <path id="arrow"
             d="M 11.500037,31.436501 C 11.940474,20.09759 22.043105,11.32322 32.158766,21.979434 L 37.068811,17.246167 C 37.068811,17.246167 37.088388,32 37.088388,32 L 22.160133,31.978069 C 22.160133,31.978069 26.997745,27.140456 26.997745,27.140456 C 18.528582,18.264221 13.291696,25.230495 11.500037,31.436501 z"
             style="fill:#404040;"/>
          </a>
         </g>
        </svg>
</svg>
