<?xml version="1.0" encoding="UTF-8" standalone="no"?>
<!DOCTYPE svg PUBLIC "-//W3C//DTD SVG 1.1//EN"
 "http://www.w3.org/Graphics/SVG/1.1/DTD/svg11.dtd">
<!-- Generated by graphviz version 2.40.1 (20161225.0304)
 -->
<!-- Title: /home/travis/build/AliceO2Group/AliceO2/Detectors/TRD/base/test/testRawData.cxx Pages: 1 -->
<svg width="921pt" height="229pt"
 viewBox="0.00 0.00 920.50 229.00" xmlns="http://www.w3.org/2000/svg" xmlns:xlink="http://www.w3.org/1999/xlink">
<g id="graph0" class="graph" transform="scale(1 1) rotate(0) translate(4 225)">
<title>/home/travis/build/AliceO2Group/AliceO2/Detectors/TRD/base/test/testRawData.cxx</title>
<!-- Node0 -->
<g id="node1" class="node">
<title>Node0</title>
<polygon fill="#bfbfbf" stroke="#000000" points="250,-168.5 250,-220.5 388,-220.5 388,-168.5 250,-168.5"/>
<text text-anchor="start" x="258" y="-208.5" font-family="Helvetica,sans-Serif" font-size="10.00" fill="#000000">/home/travis/build</text>
<text text-anchor="start" x="258" y="-197.5" font-family="Helvetica,sans-Serif" font-size="10.00" fill="#000000">/AliceO2Group/AliceO2</text>
<text text-anchor="start" x="258" y="-186.5" font-family="Helvetica,sans-Serif" font-size="10.00" fill="#000000">/Detectors/TRD/base/test</text>
<text text-anchor="middle" x="319" y="-175.5" font-family="Helvetica,sans-Serif" font-size="10.00" fill="#000000">/testRawData.cxx</text>
</g>
<!-- Node1 -->
<g id="node2" class="node">
<title>Node1</title>
<polygon fill="none" stroke="#bfbfbf" points="0,-112.5 0,-131.5 132,-131.5 132,-112.5 0,-112.5"/>
<text text-anchor="middle" x="66" y="-119.5" font-family="Helvetica,sans-Serif" font-size="10.00" fill="#000000">boost/test/unit_test.hpp</text>
</g>
<!-- Node0&#45;&gt;Node1 -->
<g id="edge1" class="edge">
<title>Node0&#45;&gt;Node1</title>
<path fill="none" stroke="#191970" d="M249.8666,-174.6891C204.8747,-161.7961 147.5995,-145.3833 109.0271,-134.3299"/>
<polygon fill="#191970" stroke="#191970" points="109.7338,-130.8916 99.1565,-131.5014 107.8055,-137.6208 109.7338,-130.8916"/>
</g>
<!-- Node2 -->
<g id="node3" class="node">
<title>Node2</title>
<polygon fill="none" stroke="#bfbfbf" points="150.5,-112.5 150.5,-131.5 199.5,-131.5 199.5,-112.5 150.5,-112.5"/>
<text text-anchor="middle" x="175" y="-119.5" font-family="Helvetica,sans-Serif" font-size="10.00" fill="#000000">cstdlib</text>
</g>
<!-- Node0&#45;&gt;Node2 -->
<g id="edge2" class="edge">
<title>Node0&#45;&gt;Node2</title>
<path fill="none" stroke="#191970" d="M267.0127,-168.3258C245.5332,-157.5115 221.4724,-145.3976 203.3437,-136.2703"/>
<polygon fill="#191970" stroke="#191970" points="204.4423,-132.9048 193.9365,-131.534 201.2944,-139.1571 204.4423,-132.9048"/>
</g>
<!-- Node3 -->
<g id="node4" class="node">
<title>Node3</title>
<polygon fill="none" stroke="#bfbfbf" points="143.5,-56.5 143.5,-75.5 198.5,-75.5 198.5,-56.5 143.5,-56.5"/>
<text text-anchor="middle" x="171" y="-63.5" font-family="Helvetica,sans-Serif" font-size="10.00" fill="#000000">fstream</text>
</g>
<!-- Node0&#45;&gt;Node3 -->
<g id="edge3" class="edge">
<title>Node0&#45;&gt;Node3</title>
<path fill="none" stroke="#191970" d="M289.05,-168.4961C259.3025,-142.6681 214.6231,-103.8754 189.6294,-82.1748"/>
<polygon fill="#191970" stroke="#191970" points="191.8036,-79.4274 181.9579,-75.5142 187.2143,-84.7132 191.8036,-79.4274"/>
</g>
<!-- Node4 -->
<g id="node5" class="node">
<title>Node4</title>
<polygon fill="none" stroke="#bfbfbf" points="217,-56.5 217,-75.5 277,-75.5 277,-56.5 217,-56.5"/>
<text text-anchor="middle" x="247" y="-63.5" font-family="Helvetica,sans-Serif" font-size="10.00" fill="#000000">iostream</text>
</g>
<!-- Node0&#45;&gt;Node4 -->
<g id="edge4" class="edge">
<title>Node0&#45;&gt;Node4</title>
<path fill="none" stroke="#191970" d="M304.4297,-168.4961C290.4613,-143.5664 269.7253,-106.5584 257.3658,-84.5"/>
<polygon fill="#191970" stroke="#191970" points="260.2724,-82.5272 252.3309,-75.5142 254.1657,-85.9489 260.2724,-82.5272"/>
</g>
<!-- Node5 -->
<g id="node6" class="node">
<title>Node5</title>
<polygon fill="none" stroke="#bfbfbf" points="672,-112.5 672,-131.5 728,-131.5 728,-112.5 672,-112.5"/>
<text text-anchor="middle" x="700" y="-119.5" font-family="Helvetica,sans-Serif" font-size="10.00" fill="#000000">sstream</text>
</g>
<!-- Node0&#45;&gt;Node5 -->
<g id="edge5" class="edge">
<title>Node0&#45;&gt;Node5</title>
<path fill="none" stroke="#191970" d="M388.2024,-183.6867C455.6694,-172.7457 561.329,-154.5554 661.7648,-132.1429"/>
<polygon fill="#191970" stroke="#191970" points="662.7913,-135.4995 671.7793,-129.89 661.2549,-128.6702 662.7913,-135.4995"/>
</g>
<!-- Node6 -->
<g id="node7" class="node">
<title>Node6</title>
<polygon fill="none" stroke="#bfbfbf" points="746,-112.5 746,-131.5 790,-131.5 790,-112.5 746,-112.5"/>
<text text-anchor="middle" x="768" y="-119.5" font-family="Helvetica,sans-Serif" font-size="10.00" fill="#000000">string</text>
</g>
<!-- Node0&#45;&gt;Node6 -->
<g id="edge6" class="edge">
<title>Node0&#45;&gt;Node6</title>
<path fill="none" stroke="#191970" d="M388.0751,-187.6765C469.3796,-178.8628 608.4454,-161.3429 735.84,-131.9712"/>
<polygon fill="#191970" stroke="#191970" points="736.8299,-135.3343 745.7717,-129.6514 735.2377,-128.5178 736.8299,-135.3343"/>
</g>
<!-- Node7 -->
<g id="node8" class="node">
<title>Node7</title>
<g id="a_node8"><a xlink:href="../../dc/d62/RawData_8h.html" target="_top" xlink:title="DataFormatsTRD/RawData.h">
<polygon fill="none" stroke="#000000" points="294,-112.5 294,-131.5 450,-131.5 450,-112.5 294,-112.5"/>
<text text-anchor="middle" x="372" y="-119.5" font-family="Helvetica,sans-Serif" font-size="10.00" fill="#000000">DataFormatsTRD/RawData.h</text>
</a>
</g>
</g>
<!-- Node0&#45;&gt;Node7 -->
<g id="edge7" class="edge">
<title>Node0&#45;&gt;Node7</title>
<path fill="none" stroke="#191970" d="M338.1342,-168.3258C345.0883,-158.8132 352.7774,-148.2951 359.069,-139.6886"/>
<polygon fill="#191970" stroke="#191970" points="361.9542,-141.6725 365.0303,-131.534 356.3032,-137.5414 361.9542,-141.6725"/>
</g>
<!-- Node11 -->
<g id="node12" class="node">
<title>Node11</title>
<g id="a_node12"><a xlink:href="../../dd/df0/Tracklet64_8h.html" target="_top" xlink:title="DataFormatsTRD/Tracklet64.h">
<polygon fill="none" stroke="#000000" points="492,-112.5 492,-131.5 654,-131.5 654,-112.5 492,-112.5"/>
<text text-anchor="middle" x="573" y="-119.5" font-family="Helvetica,sans-Serif" font-size="10.00" fill="#000000">DataFormatsTRD/Tracklet64.h</text>
</a>
</g>
</g>
<!-- Node0&#45;&gt;Node11 -->
<g id="edge13" class="edge">
<title>Node0&#45;&gt;Node11</title>
<path fill="none" stroke="#191970" d="M388.0711,-174.7848C433.2467,-161.8902 490.8682,-145.4431 529.6879,-134.3627"/>
<polygon fill="#191970" stroke="#191970" points="530.9668,-137.6375 539.6221,-131.5272 529.0455,-130.9064 530.9668,-137.6375"/>
</g>
<!-- Node7&#45;&gt;Node3 -->
<g id="edge11" class="edge">
<title>Node7&#45;&gt;Node3</title>
<path fill="none" stroke="#191970" d="M337.4469,-112.3733C301.5376,-102.3687 245.5174,-86.7611 208.539,-76.4586"/>
<polygon fill="#191970" stroke="#191970" points="209.2192,-73.0149 198.6467,-73.7026 207.3404,-79.7581 209.2192,-73.0149"/>
</g>
<!-- Node7&#45;&gt;Node4 -->
<g id="edge9" class="edge">
<title>Node7&#45;&gt;Node4</title>
<path fill="none" stroke="#191970" d="M350.5117,-112.3733C330.356,-103.3435 300.012,-89.7494 277.382,-79.6111"/>
<polygon fill="#191970" stroke="#191970" points="278.7649,-76.3955 268.2079,-75.5011 275.9029,-82.7838 278.7649,-76.3955"/>
</g>
<!-- Node8 -->
<g id="node9" class="node">
<title>Node8</title>
<polygon fill="none" stroke="#bfbfbf" points="295.5,-56.5 295.5,-75.5 344.5,-75.5 344.5,-56.5 295.5,-56.5"/>
<text text-anchor="middle" x="320" y="-63.5" font-family="Helvetica,sans-Serif" font-size="10.00" fill="#000000">iosfwd</text>
</g>
<!-- Node7&#45;&gt;Node8 -->
<g id="edge8" class="edge">
<title>Node7&#45;&gt;Node8</title>
<path fill="none" stroke="#191970" d="M362.9423,-112.2455C355.4858,-104.2155 344.7366,-92.6394 335.8583,-83.0781"/>
<polygon fill="#191970" stroke="#191970" points="338.3232,-80.589 328.9539,-75.6427 333.1937,-85.3522 338.3232,-80.589"/>
</g>
<!-- Node9 -->
<g id="node10" class="node">
<title>Node9</title>
<polygon fill="none" stroke="#bfbfbf" points="363,-56.5 363,-75.5 419,-75.5 419,-56.5 363,-56.5"/>
<text text-anchor="middle" x="391" y="-63.5" font-family="Helvetica,sans-Serif" font-size="10.00" fill="#000000">iomanip</text>
</g>
<!-- Node7&#45;&gt;Node9 -->
<g id="edge10" class="edge">
<title>Node7&#45;&gt;Node9</title>
<path fill="none" stroke="#191970" d="M375.3095,-112.2455C377.8433,-104.7776 381.4177,-94.2427 384.515,-85.1137"/>
<polygon fill="#191970" stroke="#191970" points="387.8298,-86.237 387.7284,-75.6427 381.2009,-83.9879 387.8298,-86.237"/>
</g>
<!-- Node10 -->
<g id="node11" class="node">
<title>Node10</title>
<polygon fill="none" stroke="#bfbfbf" points="437,-56.5 437,-75.5 545,-75.5 545,-56.5 437,-56.5"/>
<text text-anchor="middle" x="491" y="-63.5" font-family="Helvetica,sans-Serif" font-size="10.00" fill="#000000">fairlogger/Logger.h</text>
</g>
<!-- Node7&#45;&gt;Node10 -->
<g id="edge12" class="edge">
<title>Node7&#45;&gt;Node10</title>
<path fill="none" stroke="#191970" d="M392.4568,-112.3733C411.4738,-103.4241 440.0175,-89.9917 461.4976,-79.8835"/>
<polygon fill="#191970" stroke="#191970" points="463.2522,-82.926 470.8101,-75.5011 460.2716,-76.5923 463.2522,-82.926"/>
</g>
<!-- Node11&#45;&gt;Node10 -->
<g id="edge18" class="edge">
<title>Node11&#45;&gt;Node10</title>
<path fill="none" stroke="#191970" d="M558.7167,-112.2455C546.253,-103.7337 527.9549,-91.2375 513.5208,-81.3801"/>
<polygon fill="#191970" stroke="#191970" points="515.3515,-78.392 505.1196,-75.6427 511.4038,-84.1726 515.3515,-78.392"/>
</g>
<!-- Node12 -->
<g id="node13" class="node">
<title>Node12</title>
<polygon fill="none" stroke="#bfbfbf" points="599.5,-.5 599.5,-19.5 646.5,-19.5 646.5,-.5 599.5,-.5"/>
<text text-anchor="middle" x="623" y="-7.5" font-family="Helvetica,sans-Serif" font-size="10.00" fill="#000000">vector</text>
</g>
<!-- Node11&#45;&gt;Node12 -->
<g id="edge14" class="edge">
<title>Node11&#45;&gt;Node12</title>
<path fill="none" stroke="#191970" d="M574.8066,-112.2637C577.4727,-99.0807 583.125,-75.0167 592,-56 596.606,-46.1306 603.1925,-36.0038 609.1106,-27.7731"/>
<polygon fill="#191970" stroke="#191970" points="611.9685,-29.7956 615.1448,-19.6881 606.3586,-25.6087 611.9685,-29.7956"/>
</g>
<!-- Node13 -->
<g id="node14" class="node">
<title>Node13</title>
<polygon fill="none" stroke="#bfbfbf" points="677,-.5 677,-19.5 719,-19.5 719,-.5 677,-.5"/>
<text text-anchor="middle" x="698" y="-7.5" font-family="Helvetica,sans-Serif" font-size="10.00" fill="#000000">array</text>
</g>
<!-- Node11&#45;&gt;Node13 -->
<g id="edge15" class="edge">
<title>Node11&#45;&gt;Node13</title>
<path fill="none" stroke="#191970" d="M631.0637,-112.4429C670.5958,-104.6152 717.8677,-92.197 730,-76 741.3595,-60.8347 728.7031,-41.0014 716.111,-27.05"/>
<polygon fill="#191970" stroke="#191970" points="718.3591,-24.3405 708.8864,-19.595 713.3322,-29.2119 718.3591,-24.3405"/>
</g>
<!-- Node14 -->
<g id="node15" class="node">
<title>Node14</title>
<polygon fill="none" stroke="#bfbfbf" points="777,-56.5 777,-75.5 835,-75.5 835,-56.5 777,-56.5"/>
<text text-anchor="middle" x="806" y="-63.5" font-family="Helvetica,sans-Serif" font-size="10.00" fill="#000000">memory</text>
</g>
<!-- Node11&#45;&gt;Node14 -->
<g id="edge16" class="edge">
<title>Node11&#45;&gt;Node14</title>
<path fill="none" stroke="#191970" d="M612.7894,-112.4369C655.8672,-102.0834 724.1351,-85.6757 766.93,-75.3902"/>
<polygon fill="#191970" stroke="#191970" points="767.8,-78.7809 776.7051,-73.0408 766.1641,-71.9747 767.8,-78.7809"/>
</g>
<!-- Node15 -->
<g id="node16" class="node">
<title>Node15</title>
<polygon fill="none" stroke="#bfbfbf" points="853.5,-56.5 853.5,-75.5 912.5,-75.5 912.5,-56.5 853.5,-56.5"/>
<text text-anchor="middle" x="883" y="-63.5" font-family="Helvetica,sans-Serif" font-size="10.00" fill="#000000">Rtypes.h</text>
</g>
<!-- Node11&#45;&gt;Node15 -->
<g id="edge17" class="edge">
<title>Node11&#45;&gt;Node15</title>
<path fill="none" stroke="#191970" d="M638.1737,-112.4888C690.8809,-104.4424 767.1998,-91.9939 843.0393,-76.0654"/>
<polygon fill="#191970" stroke="#191970" points="844.1937,-79.3984 853.2494,-73.8989 842.7406,-72.5509 844.1937,-79.3984"/>
</g>
<!-- Node16 -->
<g id="node17" class="node">
<title>Node16</title>
<g id="a_node17"><a xlink:href="../../d2/d36/FeeParam_8h.html" target="_top" xlink:title="TRDBase/FeeParam.h">
<polygon fill="none" stroke="#000000" points="601,-56.5 601,-75.5 721,-75.5 721,-56.5 601,-56.5"/>
<text text-anchor="middle" x="661" y="-63.5" font-family="Helvetica,sans-Serif" font-size="10.00" fill="#000000">TRDBase/FeeParam.h</text>
</a>
</g>
</g>
<!-- Node11&#45;&gt;Node16 -->
<g id="edge19" class="edge">
<title>Node11&#45;&gt;Node16</title>
<path fill="none" stroke="#191970" d="M588.3284,-112.2455C601.8303,-103.6534 621.7122,-91.0014 637.2686,-81.1018"/>
<polygon fill="#191970" stroke="#191970" points="639.2897,-83.9643 645.8472,-75.6427 635.5315,-78.0587 639.2897,-83.9643"/>
</g>
<!-- Node16&#45;&gt;Node12 -->
<g id="edge21" class="edge">
<title>Node16&#45;&gt;Node12</title>
<path fill="none" stroke="#191970" d="M654.3809,-56.2455C649.0954,-48.4564 641.5459,-37.3308 635.1762,-27.9439"/>
<polygon fill="#191970" stroke="#191970" points="638.0545,-25.9522 629.5432,-19.6427 632.2621,-29.8827 638.0545,-25.9522"/>
</g>
<!-- Node16&#45;&gt;Node13 -->
<g id="edge20" class="edge">
<title>Node16&#45;&gt;Node13</title>
<path fill="none" stroke="#191970" d="M667.4449,-56.2455C672.5382,-48.5367 679.7908,-37.5598 685.952,-28.2348"/>
<polygon fill="#191970" stroke="#191970" points="689.0365,-29.9155 691.6289,-19.6427 683.1962,-26.0566 689.0365,-29.9155"/>
</g>
</g>
</svg>
